  0
SECTION
  2
BLOCKS
  0
ENDSEC
  0
SECTION
  2
ENTITIES
  0
LINE
  8
0
 10
0
 11
0
 20
9.95
 21
70
  0
LINE
  8
0
 10
0
 11
0.059
 20
70
 21
70
  0
LINE
  8
0
 10
0.059
 11
0.02
 20
70
 21
70.628
  0
LINE
  8
0
 10
0.02
 11
0.489
 20
70.628
 21
73.09
  0
LINE
  8
0
 10
0.489
 11
1.557
 20
73.09
 21
75.358
  0
LINE
  8
0
 10
1.557
 11
3.155
 20
75.358
 21
77.29
  0
LINE
  8
0
 10
3.155
 11
5.182
 20
77.29
 21
78.763
  0
LINE
  8
0
 10
5.182
 11
7.513
 20
78.763
 21
79.686
  0
LINE
  8
0
 10
7.513
 11
9.95
 20
79.686
 21
79.994
  0
LINE
  8
0
 10
9.95
 11
9.95
 20
79.994
 21
80
  0
LINE
  8
0
 10
9.95
 11
264
 20
80
 21
80
  0
LINE
  8
0
 10
264
 11
264
 20
80
 21
79.941
  0
LINE
  8
0
 10
264
 11
264.628
 20
79.941
 21
79.98
  0
LINE
  8
0
 10
264.628
 11
267.09
 20
79.98
 21
79.511
  0
LINE
  8
0
 10
267.09
 11
269.358
 20
79.511
 21
78.443
  0
LINE
  8
0
 10
269.358
 11
271.29
 20
78.443
 21
76.845
  0
LINE
  8
0
 10
271.29
 11
272.763
 20
76.845
 21
74.818
  0
LINE
  8
0
 10
272.763
 11
273.686
 20
74.818
 21
72.487
  0
LINE
  8
0
 10
273.686
 11
273.994
 20
72.487
 21
70.05
  0
LINE
  8
0
 10
273.994
 11
274
 20
70.05
 21
70.05
  0
LINE
  8
0
 10
274
 11
274
 20
70.05
 21
10
  0
LINE
  8
0
 10
274
 11
273.941
 20
10
 21
10
  0
LINE
  8
0
 10
273.941
 11
273.98
 20
10
 21
9.372
  0
LINE
  8
0
 10
273.98
 11
273.511
 20
9.372
 21
6.91
  0
LINE
  8
0
 10
273.511
 11
272.443
 20
6.91
 21
4.642
  0
LINE
  8
0
 10
272.443
 11
270.845
 20
4.642
 21
2.71
  0
LINE
  8
0
 10
270.845
 11
268.818
 20
2.71
 21
1.237
  0
LINE
  8
0
 10
268.818
 11
266.487
 20
1.237
 21
0.314
  0
LINE
  8
0
 10
266.487
 11
264.05
 20
0.314
 21
0.006
  0
LINE
  8
0
 10
264.05
 11
264.05
 20
0.006
 21
0
  0
LINE
  8
0
 10
264.05
 11
10
 20
0
 21
0
  0
LINE
  8
0
 10
10
 11
10
 20
0
 21
0.059
  0
LINE
  8
0
 10
10
 11
9.372
 20
0.059
 21
0.02
  0
LINE
  8
0
 10
9.372
 11
6.91
 20
0.02
 21
0.489
  0
LINE
  8
0
 10
6.91
 11
4.642
 20
0.489
 21
1.557
  0
LINE
  8
0
 10
4.642
 11
2.71
 20
1.557
 21
3.155
  0
LINE
  8
0
 10
2.71
 11
1.237
 20
3.155
 21
5.182
  0
LINE
  8
0
 10
1.237
 11
0.314
 20
5.182
 21
7.513
  0
LINE
  8
0
 10
0.314
 11
0.006
 20
7.513
 21
9.95
  0
LINE
  8
0
 10
0.006
 11
0
 20
9.95
 21
9.95
  0
LINE
  8
0
 10
17.45
 11
17.45
 20
14.95
 21
25.05
  0
LINE
  8
0
 10
17.45
 11
22.55
 20
25.05
 21
25.05
  0
LINE
  8
0
 10
22.55
 11
22.55
 20
25.05
 21
14.95
  0
LINE
  8
0
 10
22.55
 11
17.45
 20
14.95
 21
14.95
  0
LINE
  8
0
 10
17.45
 11
17.45
 20
54.95
 21
65.05
  0
LINE
  8
0
 10
17.45
 11
22.55
 20
65.05
 21
65.05
  0
LINE
  8
0
 10
22.55
 11
22.55
 20
65.05
 21
54.95
  0
LINE
  8
0
 10
22.55
 11
17.45
 20
54.95
 21
54.95
  0
LINE
  8
0
 10
18.2
 11
18.21
 20
40
 21
40.188
  0
LINE
  8
0
 10
18.21
 11
18.239
 20
40.188
 21
40.374
  0
LINE
  8
0
 10
18.239
 11
18.288
 20
40.374
 21
40.556
  0
LINE
  8
0
 10
18.288
 11
18.356
 20
40.556
 21
40.732
  0
LINE
  8
0
 10
18.356
 11
18.441
 20
40.732
 21
40.9
  0
LINE
  8
0
 10
18.441
 11
18.544
 20
40.9
 21
41.058
  0
LINE
  8
0
 10
18.544
 11
18.662
 20
41.058
 21
41.204
  0
LINE
  8
0
 10
18.662
 11
18.796
 20
41.204
 21
41.338
  0
LINE
  8
0
 10
18.796
 11
18.942
 20
41.338
 21
41.456
  0
LINE
  8
0
 10
18.942
 11
19.1
 20
41.456
 21
41.559
  0
LINE
  8
0
 10
19.1
 11
19.268
 20
41.559
 21
41.644
  0
LINE
  8
0
 10
19.268
 11
19.444
 20
41.644
 21
41.712
  0
LINE
  8
0
 10
19.444
 11
19.626
 20
41.712
 21
41.761
  0
LINE
  8
0
 10
19.626
 11
19.812
 20
41.761
 21
41.79
  0
LINE
  8
0
 10
19.812
 11
20
 20
41.79
 21
41.8
  0
LINE
  8
0
 10
20
 11
20.188
 20
41.8
 21
41.79
  0
LINE
  8
0
 10
20.188
 11
20.374
 20
41.79
 21
41.761
  0
LINE
  8
0
 10
20.374
 11
20.556
 20
41.761
 21
41.712
  0
LINE
  8
0
 10
20.556
 11
20.732
 20
41.712
 21
41.644
  0
LINE
  8
0
 10
20.732
 11
20.9
 20
41.644
 21
41.559
  0
LINE
  8
0
 10
20.9
 11
21.058
 20
41.559
 21
41.456
  0
LINE
  8
0
 10
21.058
 11
21.204
 20
41.456
 21
41.338
  0
LINE
  8
0
 10
21.204
 11
21.338
 20
41.338
 21
41.204
  0
LINE
  8
0
 10
21.338
 11
21.456
 20
41.204
 21
41.058
  0
LINE
  8
0
 10
21.456
 11
21.559
 20
41.058
 21
40.9
  0
LINE
  8
0
 10
21.559
 11
21.644
 20
40.9
 21
40.732
  0
LINE
  8
0
 10
21.644
 11
21.712
 20
40.732
 21
40.556
  0
LINE
  8
0
 10
21.712
 11
21.761
 20
40.556
 21
40.374
  0
LINE
  8
0
 10
21.761
 11
21.79
 20
40.374
 21
40.188
  0
LINE
  8
0
 10
21.79
 11
21.8
 20
40.188
 21
40
  0
LINE
  8
0
 10
21.8
 11
21.79
 20
40
 21
39.812
  0
LINE
  8
0
 10
21.79
 11
21.761
 20
39.812
 21
39.626
  0
LINE
  8
0
 10
21.761
 11
21.712
 20
39.626
 21
39.444
  0
LINE
  8
0
 10
21.712
 11
21.644
 20
39.444
 21
39.268
  0
LINE
  8
0
 10
21.644
 11
21.559
 20
39.268
 21
39.1
  0
LINE
  8
0
 10
21.559
 11
21.456
 20
39.1
 21
38.942
  0
LINE
  8
0
 10
21.456
 11
21.338
 20
38.942
 21
38.796
  0
LINE
  8
0
 10
21.338
 11
21.204
 20
38.796
 21
38.662
  0
LINE
  8
0
 10
21.204
 11
21.058
 20
38.662
 21
38.544
  0
LINE
  8
0
 10
21.058
 11
20.9
 20
38.544
 21
38.441
  0
LINE
  8
0
 10
20.9
 11
20.732
 20
38.441
 21
38.356
  0
LINE
  8
0
 10
20.732
 11
20.556
 20
38.356
 21
38.288
  0
LINE
  8
0
 10
20.556
 11
20.374
 20
38.288
 21
38.239
  0
LINE
  8
0
 10
20.374
 11
20.188
 20
38.239
 21
38.21
  0
LINE
  8
0
 10
20.188
 11
20
 20
38.21
 21
38.2
  0
LINE
  8
0
 10
20
 11
19.812
 20
38.2
 21
38.21
  0
LINE
  8
0
 10
19.812
 11
19.626
 20
38.21
 21
38.239
  0
LINE
  8
0
 10
19.626
 11
19.444
 20
38.239
 21
38.288
  0
LINE
  8
0
 10
19.444
 11
19.268
 20
38.288
 21
38.356
  0
LINE
  8
0
 10
19.268
 11
19.1
 20
38.356
 21
38.441
  0
LINE
  8
0
 10
19.1
 11
18.942
 20
38.441
 21
38.544
  0
LINE
  8
0
 10
18.942
 11
18.796
 20
38.544
 21
38.662
  0
LINE
  8
0
 10
18.796
 11
18.662
 20
38.662
 21
38.796
  0
LINE
  8
0
 10
18.662
 11
18.544
 20
38.796
 21
38.942
  0
LINE
  8
0
 10
18.544
 11
18.441
 20
38.942
 21
39.1
  0
LINE
  8
0
 10
18.441
 11
18.356
 20
39.1
 21
39.268
  0
LINE
  8
0
 10
18.356
 11
18.288
 20
39.268
 21
39.444
  0
LINE
  8
0
 10
18.288
 11
18.239
 20
39.444
 21
39.626
  0
LINE
  8
0
 10
18.239
 11
18.21
 20
39.626
 21
39.812
  0
LINE
  8
0
 10
18.21
 11
18.2
 20
39.812
 21
40
  0
LINE
  8
0
 10
44.95
 11
44.96
 20
72
 21
72.188
  0
LINE
  8
0
 10
44.96
 11
44.989
 20
72.188
 21
72.374
  0
LINE
  8
0
 10
44.989
 11
45.038
 20
72.374
 21
72.556
  0
LINE
  8
0
 10
45.038
 11
45.106
 20
72.556
 21
72.732
  0
LINE
  8
0
 10
45.106
 11
45.191
 20
72.732
 21
72.9
  0
LINE
  8
0
 10
45.191
 11
45.294
 20
72.9
 21
73.058
  0
LINE
  8
0
 10
45.294
 11
45.412
 20
73.058
 21
73.204
  0
LINE
  8
0
 10
45.412
 11
45.546
 20
73.204
 21
73.338
  0
LINE
  8
0
 10
45.546
 11
45.692
 20
73.338
 21
73.456
  0
LINE
  8
0
 10
45.692
 11
45.85
 20
73.456
 21
73.559
  0
LINE
  8
0
 10
45.85
 11
46.018
 20
73.559
 21
73.644
  0
LINE
  8
0
 10
46.018
 11
46.194
 20
73.644
 21
73.712
  0
LINE
  8
0
 10
46.194
 11
46.376
 20
73.712
 21
73.761
  0
LINE
  8
0
 10
46.376
 11
46.562
 20
73.761
 21
73.79
  0
LINE
  8
0
 10
46.562
 11
46.75
 20
73.79
 21
73.8
  0
LINE
  8
0
 10
46.75
 11
46.938
 20
73.8
 21
73.79
  0
LINE
  8
0
 10
46.938
 11
47.124
 20
73.79
 21
73.761
  0
LINE
  8
0
 10
47.124
 11
47.306
 20
73.761
 21
73.712
  0
LINE
  8
0
 10
47.306
 11
47.482
 20
73.712
 21
73.644
  0
LINE
  8
0
 10
47.482
 11
47.65
 20
73.644
 21
73.559
  0
LINE
  8
0
 10
47.65
 11
47.808
 20
73.559
 21
73.456
  0
LINE
  8
0
 10
47.808
 11
47.954
 20
73.456
 21
73.338
  0
LINE
  8
0
 10
47.954
 11
48.088
 20
73.338
 21
73.204
  0
LINE
  8
0
 10
48.088
 11
48.206
 20
73.204
 21
73.058
  0
LINE
  8
0
 10
48.206
 11
48.309
 20
73.058
 21
72.9
  0
LINE
  8
0
 10
48.309
 11
48.394
 20
72.9
 21
72.732
  0
LINE
  8
0
 10
48.394
 11
48.462
 20
72.732
 21
72.556
  0
LINE
  8
0
 10
48.462
 11
48.511
 20
72.556
 21
72.374
  0
LINE
  8
0
 10
48.511
 11
48.54
 20
72.374
 21
72.188
  0
LINE
  8
0
 10
48.54
 11
48.55
 20
72.188
 21
72
  0
LINE
  8
0
 10
48.55
 11
48.54
 20
72
 21
71.812
  0
LINE
  8
0
 10
48.54
 11
48.511
 20
71.812
 21
71.626
  0
LINE
  8
0
 10
48.511
 11
48.462
 20
71.626
 21
71.444
  0
LINE
  8
0
 10
48.462
 11
48.394
 20
71.444
 21
71.268
  0
LINE
  8
0
 10
48.394
 11
48.309
 20
71.268
 21
71.1
  0
LINE
  8
0
 10
48.309
 11
48.206
 20
71.1
 21
70.942
  0
LINE
  8
0
 10
48.206
 11
48.088
 20
70.942
 21
70.796
  0
LINE
  8
0
 10
48.088
 11
47.954
 20
70.796
 21
70.662
  0
LINE
  8
0
 10
47.954
 11
47.808
 20
70.662
 21
70.544
  0
LINE
  8
0
 10
47.808
 11
47.65
 20
70.544
 21
70.441
  0
LINE
  8
0
 10
47.65
 11
47.482
 20
70.441
 21
70.356
  0
LINE
  8
0
 10
47.482
 11
47.306
 20
70.356
 21
70.288
  0
LINE
  8
0
 10
47.306
 11
47.124
 20
70.288
 21
70.239
  0
LINE
  8
0
 10
47.124
 11
46.938
 20
70.239
 21
70.21
  0
LINE
  8
0
 10
46.938
 11
46.75
 20
70.21
 21
70.2
  0
LINE
  8
0
 10
46.75
 11
46.562
 20
70.2
 21
70.21
  0
LINE
  8
0
 10
46.562
 11
46.376
 20
70.21
 21
70.239
  0
LINE
  8
0
 10
46.376
 11
46.194
 20
70.239
 21
70.288
  0
LINE
  8
0
 10
46.194
 11
46.018
 20
70.288
 21
70.356
  0
LINE
  8
0
 10
46.018
 11
45.85
 20
70.356
 21
70.441
  0
LINE
  8
0
 10
45.85
 11
45.692
 20
70.441
 21
70.544
  0
LINE
  8
0
 10
45.692
 11
45.546
 20
70.544
 21
70.662
  0
LINE
  8
0
 10
45.546
 11
45.412
 20
70.662
 21
70.796
  0
LINE
  8
0
 10
45.412
 11
45.294
 20
70.796
 21
70.942
  0
LINE
  8
0
 10
45.294
 11
45.191
 20
70.942
 21
71.1
  0
LINE
  8
0
 10
45.191
 11
45.106
 20
71.1
 21
71.268
  0
LINE
  8
0
 10
45.106
 11
45.038
 20
71.268
 21
71.444
  0
LINE
  8
0
 10
45.038
 11
44.989
 20
71.444
 21
71.626
  0
LINE
  8
0
 10
44.989
 11
44.96
 20
71.626
 21
71.812
  0
LINE
  8
0
 10
44.96
 11
44.95
 20
71.812
 21
72
  0
LINE
  8
0
 10
53.2
 11
53.21
 20
16
 21
16.188
  0
LINE
  8
0
 10
53.21
 11
53.239
 20
16.188
 21
16.374
  0
LINE
  8
0
 10
53.239
 11
53.288
 20
16.374
 21
16.556
  0
LINE
  8
0
 10
53.288
 11
53.356
 20
16.556
 21
16.732
  0
LINE
  8
0
 10
53.356
 11
53.441
 20
16.732
 21
16.9
  0
LINE
  8
0
 10
53.441
 11
53.544
 20
16.9
 21
17.058
  0
LINE
  8
0
 10
53.544
 11
53.662
 20
17.058
 21
17.204
  0
LINE
  8
0
 10
53.662
 11
53.796
 20
17.204
 21
17.338
  0
LINE
  8
0
 10
53.796
 11
53.942
 20
17.338
 21
17.456
  0
LINE
  8
0
 10
53.942
 11
54.1
 20
17.456
 21
17.559
  0
LINE
  8
0
 10
54.1
 11
54.268
 20
17.559
 21
17.644
  0
LINE
  8
0
 10
54.268
 11
54.444
 20
17.644
 21
17.712
  0
LINE
  8
0
 10
54.444
 11
54.626
 20
17.712
 21
17.761
  0
LINE
  8
0
 10
54.626
 11
54.812
 20
17.761
 21
17.79
  0
LINE
  8
0
 10
54.812
 11
55
 20
17.79
 21
17.8
  0
LINE
  8
0
 10
55
 11
55.188
 20
17.8
 21
17.79
  0
LINE
  8
0
 10
55.188
 11
55.374
 20
17.79
 21
17.761
  0
LINE
  8
0
 10
55.374
 11
55.556
 20
17.761
 21
17.712
  0
LINE
  8
0
 10
55.556
 11
55.732
 20
17.712
 21
17.644
  0
LINE
  8
0
 10
55.732
 11
55.9
 20
17.644
 21
17.559
  0
LINE
  8
0
 10
55.9
 11
56.058
 20
17.559
 21
17.456
  0
LINE
  8
0
 10
56.058
 11
56.204
 20
17.456
 21
17.338
  0
LINE
  8
0
 10
56.204
 11
56.338
 20
17.338
 21
17.204
  0
LINE
  8
0
 10
56.338
 11
56.456
 20
17.204
 21
17.058
  0
LINE
  8
0
 10
56.456
 11
56.559
 20
17.058
 21
16.9
  0
LINE
  8
0
 10
56.559
 11
56.644
 20
16.9
 21
16.732
  0
LINE
  8
0
 10
56.644
 11
56.712
 20
16.732
 21
16.556
  0
LINE
  8
0
 10
56.712
 11
56.761
 20
16.556
 21
16.374
  0
LINE
  8
0
 10
56.761
 11
56.79
 20
16.374
 21
16.188
  0
LINE
  8
0
 10
56.79
 11
56.8
 20
16.188
 21
16
  0
LINE
  8
0
 10
56.8
 11
56.79
 20
16
 21
15.812
  0
LINE
  8
0
 10
56.79
 11
56.761
 20
15.812
 21
15.626
  0
LINE
  8
0
 10
56.761
 11
56.712
 20
15.626
 21
15.444
  0
LINE
  8
0
 10
56.712
 11
56.644
 20
15.444
 21
15.268
  0
LINE
  8
0
 10
56.644
 11
56.559
 20
15.268
 21
15.1
  0
LINE
  8
0
 10
56.559
 11
56.456
 20
15.1
 21
14.942
  0
LINE
  8
0
 10
56.456
 11
56.338
 20
14.942
 21
14.796
  0
LINE
  8
0
 10
56.338
 11
56.204
 20
14.796
 21
14.662
  0
LINE
  8
0
 10
56.204
 11
56.058
 20
14.662
 21
14.544
  0
LINE
  8
0
 10
56.058
 11
55.9
 20
14.544
 21
14.441
  0
LINE
  8
0
 10
55.9
 11
55.732
 20
14.441
 21
14.356
  0
LINE
  8
0
 10
55.732
 11
55.556
 20
14.356
 21
14.288
  0
LINE
  8
0
 10
55.556
 11
55.374
 20
14.288
 21
14.239
  0
LINE
  8
0
 10
55.374
 11
55.188
 20
14.239
 21
14.21
  0
LINE
  8
0
 10
55.188
 11
55
 20
14.21
 21
14.2
  0
LINE
  8
0
 10
55
 11
54.812
 20
14.2
 21
14.21
  0
LINE
  8
0
 10
54.812
 11
54.626
 20
14.21
 21
14.239
  0
LINE
  8
0
 10
54.626
 11
54.444
 20
14.239
 21
14.288
  0
LINE
  8
0
 10
54.444
 11
54.268
 20
14.288
 21
14.356
  0
LINE
  8
0
 10
54.268
 11
54.1
 20
14.356
 21
14.441
  0
LINE
  8
0
 10
54.1
 11
53.942
 20
14.441
 21
14.544
  0
LINE
  8
0
 10
53.942
 11
53.796
 20
14.544
 21
14.662
  0
LINE
  8
0
 10
53.796
 11
53.662
 20
14.662
 21
14.796
  0
LINE
  8
0
 10
53.662
 11
53.544
 20
14.796
 21
14.942
  0
LINE
  8
0
 10
53.544
 11
53.441
 20
14.942
 21
15.1
  0
LINE
  8
0
 10
53.441
 11
53.356
 20
15.1
 21
15.268
  0
LINE
  8
0
 10
53.356
 11
53.288
 20
15.268
 21
15.444
  0
LINE
  8
0
 10
53.288
 11
53.239
 20
15.444
 21
15.626
  0
LINE
  8
0
 10
53.239
 11
53.21
 20
15.626
 21
15.812
  0
LINE
  8
0
 10
53.21
 11
53.2
 20
15.812
 21
16
  0
LINE
  8
0
 10
53.2
 11
53.21
 20
64
 21
64.188
  0
LINE
  8
0
 10
53.21
 11
53.239
 20
64.188
 21
64.374
  0
LINE
  8
0
 10
53.239
 11
53.288
 20
64.374
 21
64.556
  0
LINE
  8
0
 10
53.288
 11
53.356
 20
64.556
 21
64.732
  0
LINE
  8
0
 10
53.356
 11
53.441
 20
64.732
 21
64.9
  0
LINE
  8
0
 10
53.441
 11
53.544
 20
64.9
 21
65.058
  0
LINE
  8
0
 10
53.544
 11
53.662
 20
65.058
 21
65.204
  0
LINE
  8
0
 10
53.662
 11
53.796
 20
65.204
 21
65.338
  0
LINE
  8
0
 10
53.796
 11
53.942
 20
65.338
 21
65.456
  0
LINE
  8
0
 10
53.942
 11
54.1
 20
65.456
 21
65.559
  0
LINE
  8
0
 10
54.1
 11
54.268
 20
65.559
 21
65.644
  0
LINE
  8
0
 10
54.268
 11
54.444
 20
65.644
 21
65.712
  0
LINE
  8
0
 10
54.444
 11
54.626
 20
65.712
 21
65.761
  0
LINE
  8
0
 10
54.626
 11
54.812
 20
65.761
 21
65.79
  0
LINE
  8
0
 10
54.812
 11
55
 20
65.79
 21
65.8
  0
LINE
  8
0
 10
55
 11
55.188
 20
65.8
 21
65.79
  0
LINE
  8
0
 10
55.188
 11
55.374
 20
65.79
 21
65.761
  0
LINE
  8
0
 10
55.374
 11
55.556
 20
65.761
 21
65.712
  0
LINE
  8
0
 10
55.556
 11
55.732
 20
65.712
 21
65.644
  0
LINE
  8
0
 10
55.732
 11
55.9
 20
65.644
 21
65.559
  0
LINE
  8
0
 10
55.9
 11
56.058
 20
65.559
 21
65.456
  0
LINE
  8
0
 10
56.058
 11
56.204
 20
65.456
 21
65.338
  0
LINE
  8
0
 10
56.204
 11
56.338
 20
65.338
 21
65.204
  0
LINE
  8
0
 10
56.338
 11
56.456
 20
65.204
 21
65.058
  0
LINE
  8
0
 10
56.456
 11
56.559
 20
65.058
 21
64.9
  0
LINE
  8
0
 10
56.559
 11
56.644
 20
64.9
 21
64.732
  0
LINE
  8
0
 10
56.644
 11
56.712
 20
64.732
 21
64.556
  0
LINE
  8
0
 10
56.712
 11
56.761
 20
64.556
 21
64.374
  0
LINE
  8
0
 10
56.761
 11
56.79
 20
64.374
 21
64.188
  0
LINE
  8
0
 10
56.79
 11
56.8
 20
64.188
 21
64
  0
LINE
  8
0
 10
56.8
 11
56.79
 20
64
 21
63.812
  0
LINE
  8
0
 10
56.79
 11
56.761
 20
63.812
 21
63.626
  0
LINE
  8
0
 10
56.761
 11
56.712
 20
63.626
 21
63.444
  0
LINE
  8
0
 10
56.712
 11
56.644
 20
63.444
 21
63.268
  0
LINE
  8
0
 10
56.644
 11
56.559
 20
63.268
 21
63.1
  0
LINE
  8
0
 10
56.559
 11
56.456
 20
63.1
 21
62.942
  0
LINE
  8
0
 10
56.456
 11
56.338
 20
62.942
 21
62.796
  0
LINE
  8
0
 10
56.338
 11
56.204
 20
62.796
 21
62.662
  0
LINE
  8
0
 10
56.204
 11
56.058
 20
62.662
 21
62.544
  0
LINE
  8
0
 10
56.058
 11
55.9
 20
62.544
 21
62.441
  0
LINE
  8
0
 10
55.9
 11
55.732
 20
62.441
 21
62.356
  0
LINE
  8
0
 10
55.732
 11
55.556
 20
62.356
 21
62.288
  0
LINE
  8
0
 10
55.556
 11
55.374
 20
62.288
 21
62.239
  0
LINE
  8
0
 10
55.374
 11
55.188
 20
62.239
 21
62.21
  0
LINE
  8
0
 10
55.188
 11
55
 20
62.21
 21
62.2
  0
LINE
  8
0
 10
55
 11
54.812
 20
62.2
 21
62.21
  0
LINE
  8
0
 10
54.812
 11
54.626
 20
62.21
 21
62.239
  0
LINE
  8
0
 10
54.626
 11
54.444
 20
62.239
 21
62.288
  0
LINE
  8
0
 10
54.444
 11
54.268
 20
62.288
 21
62.356
  0
LINE
  8
0
 10
54.268
 11
54.1
 20
62.356
 21
62.441
  0
LINE
  8
0
 10
54.1
 11
53.942
 20
62.441
 21
62.544
  0
LINE
  8
0
 10
53.942
 11
53.796
 20
62.544
 21
62.662
  0
LINE
  8
0
 10
53.796
 11
53.662
 20
62.662
 21
62.796
  0
LINE
  8
0
 10
53.662
 11
53.544
 20
62.796
 21
62.942
  0
LINE
  8
0
 10
53.544
 11
53.441
 20
62.942
 21
63.1
  0
LINE
  8
0
 10
53.441
 11
53.356
 20
63.1
 21
63.268
  0
LINE
  8
0
 10
53.356
 11
53.288
 20
63.268
 21
63.444
  0
LINE
  8
0
 10
53.288
 11
53.239
 20
63.444
 21
63.626
  0
LINE
  8
0
 10
53.239
 11
53.21
 20
63.626
 21
63.812
  0
LINE
  8
0
 10
53.21
 11
53.2
 20
63.812
 21
64
  0
LINE
  8
0
 10
71.7
 11
71.71
 20
72
 21
72.188
  0
LINE
  8
0
 10
71.71
 11
71.739
 20
72.188
 21
72.374
  0
LINE
  8
0
 10
71.739
 11
71.788
 20
72.374
 21
72.556
  0
LINE
  8
0
 10
71.788
 11
71.856
 20
72.556
 21
72.732
  0
LINE
  8
0
 10
71.856
 11
71.941
 20
72.732
 21
72.9
  0
LINE
  8
0
 10
71.941
 11
72.044
 20
72.9
 21
73.058
  0
LINE
  8
0
 10
72.044
 11
72.162
 20
73.058
 21
73.204
  0
LINE
  8
0
 10
72.162
 11
72.296
 20
73.204
 21
73.338
  0
LINE
  8
0
 10
72.296
 11
72.442
 20
73.338
 21
73.456
  0
LINE
  8
0
 10
72.442
 11
72.6
 20
73.456
 21
73.559
  0
LINE
  8
0
 10
72.6
 11
72.768
 20
73.559
 21
73.644
  0
LINE
  8
0
 10
72.768
 11
72.944
 20
73.644
 21
73.712
  0
LINE
  8
0
 10
72.944
 11
73.126
 20
73.712
 21
73.761
  0
LINE
  8
0
 10
73.126
 11
73.312
 20
73.761
 21
73.79
  0
LINE
  8
0
 10
73.312
 11
73.5
 20
73.79
 21
73.8
  0
LINE
  8
0
 10
73.5
 11
73.688
 20
73.8
 21
73.79
  0
LINE
  8
0
 10
73.688
 11
73.874
 20
73.79
 21
73.761
  0
LINE
  8
0
 10
73.874
 11
74.056
 20
73.761
 21
73.712
  0
LINE
  8
0
 10
74.056
 11
74.232
 20
73.712
 21
73.644
  0
LINE
  8
0
 10
74.232
 11
74.4
 20
73.644
 21
73.559
  0
LINE
  8
0
 10
74.4
 11
74.558
 20
73.559
 21
73.456
  0
LINE
  8
0
 10
74.558
 11
74.704
 20
73.456
 21
73.338
  0
LINE
  8
0
 10
74.704
 11
74.838
 20
73.338
 21
73.204
  0
LINE
  8
0
 10
74.838
 11
74.956
 20
73.204
 21
73.058
  0
LINE
  8
0
 10
74.956
 11
75.059
 20
73.058
 21
72.9
  0
LINE
  8
0
 10
75.059
 11
75.144
 20
72.9
 21
72.732
  0
LINE
  8
0
 10
75.144
 11
75.212
 20
72.732
 21
72.556
  0
LINE
  8
0
 10
75.212
 11
75.261
 20
72.556
 21
72.374
  0
LINE
  8
0
 10
75.261
 11
75.29
 20
72.374
 21
72.188
  0
LINE
  8
0
 10
75.29
 11
75.3
 20
72.188
 21
72
  0
LINE
  8
0
 10
75.3
 11
75.29
 20
72
 21
71.812
  0
LINE
  8
0
 10
75.29
 11
75.261
 20
71.812
 21
71.626
  0
LINE
  8
0
 10
75.261
 11
75.212
 20
71.626
 21
71.444
  0
LINE
  8
0
 10
75.212
 11
75.144
 20
71.444
 21
71.268
  0
LINE
  8
0
 10
75.144
 11
75.059
 20
71.268
 21
71.1
  0
LINE
  8
0
 10
75.059
 11
74.956
 20
71.1
 21
70.942
  0
LINE
  8
0
 10
74.956
 11
74.838
 20
70.942
 21
70.796
  0
LINE
  8
0
 10
74.838
 11
74.704
 20
70.796
 21
70.662
  0
LINE
  8
0
 10
74.704
 11
74.558
 20
70.662
 21
70.544
  0
LINE
  8
0
 10
74.558
 11
74.4
 20
70.544
 21
70.441
  0
LINE
  8
0
 10
74.4
 11
74.232
 20
70.441
 21
70.356
  0
LINE
  8
0
 10
74.232
 11
74.056
 20
70.356
 21
70.288
  0
LINE
  8
0
 10
74.056
 11
73.874
 20
70.288
 21
70.239
  0
LINE
  8
0
 10
73.874
 11
73.688
 20
70.239
 21
70.21
  0
LINE
  8
0
 10
73.688
 11
73.5
 20
70.21
 21
70.2
  0
LINE
  8
0
 10
73.5
 11
73.312
 20
70.2
 21
70.21
  0
LINE
  8
0
 10
73.312
 11
73.126
 20
70.21
 21
70.239
  0
LINE
  8
0
 10
73.126
 11
72.944
 20
70.239
 21
70.288
  0
LINE
  8
0
 10
72.944
 11
72.768
 20
70.288
 21
70.356
  0
LINE
  8
0
 10
72.768
 11
72.6
 20
70.356
 21
70.441
  0
LINE
  8
0
 10
72.6
 11
72.442
 20
70.441
 21
70.544
  0
LINE
  8
0
 10
72.442
 11
72.296
 20
70.544
 21
70.662
  0
LINE
  8
0
 10
72.296
 11
72.162
 20
70.662
 21
70.796
  0
LINE
  8
0
 10
72.162
 11
72.044
 20
70.796
 21
70.942
  0
LINE
  8
0
 10
72.044
 11
71.941
 20
70.942
 21
71.1
  0
LINE
  8
0
 10
71.941
 11
71.856
 20
71.1
 21
71.268
  0
LINE
  8
0
 10
71.856
 11
71.788
 20
71.268
 21
71.444
  0
LINE
  8
0
 10
71.788
 11
71.739
 20
71.444
 21
71.626
  0
LINE
  8
0
 10
71.739
 11
71.71
 20
71.626
 21
71.812
  0
LINE
  8
0
 10
71.71
 11
71.7
 20
71.812
 21
72
  0
LINE
  8
0
 10
98.45
 11
98.46
 20
72
 21
72.188
  0
LINE
  8
0
 10
98.46
 11
98.489
 20
72.188
 21
72.374
  0
LINE
  8
0
 10
98.489
 11
98.538
 20
72.374
 21
72.556
  0
LINE
  8
0
 10
98.538
 11
98.606
 20
72.556
 21
72.732
  0
LINE
  8
0
 10
98.606
 11
98.691
 20
72.732
 21
72.9
  0
LINE
  8
0
 10
98.691
 11
98.794
 20
72.9
 21
73.058
  0
LINE
  8
0
 10
98.794
 11
98.912
 20
73.058
 21
73.204
  0
LINE
  8
0
 10
98.912
 11
99.046
 20
73.204
 21
73.338
  0
LINE
  8
0
 10
99.046
 11
99.192
 20
73.338
 21
73.456
  0
LINE
  8
0
 10
99.192
 11
99.35
 20
73.456
 21
73.559
  0
LINE
  8
0
 10
99.35
 11
99.518
 20
73.559
 21
73.644
  0
LINE
  8
0
 10
99.518
 11
99.694
 20
73.644
 21
73.712
  0
LINE
  8
0
 10
99.694
 11
99.876
 20
73.712
 21
73.761
  0
LINE
  8
0
 10
99.876
 11
100.062
 20
73.761
 21
73.79
  0
LINE
  8
0
 10
100.062
 11
100.25
 20
73.79
 21
73.8
  0
LINE
  8
0
 10
100.25
 11
100.438
 20
73.8
 21
73.79
  0
LINE
  8
0
 10
100.438
 11
100.624
 20
73.79
 21
73.761
  0
LINE
  8
0
 10
100.624
 11
100.806
 20
73.761
 21
73.712
  0
LINE
  8
0
 10
100.806
 11
100.982
 20
73.712
 21
73.644
  0
LINE
  8
0
 10
100.982
 11
101.15
 20
73.644
 21
73.559
  0
LINE
  8
0
 10
101.15
 11
101.308
 20
73.559
 21
73.456
  0
LINE
  8
0
 10
101.308
 11
101.454
 20
73.456
 21
73.338
  0
LINE
  8
0
 10
101.454
 11
101.588
 20
73.338
 21
73.204
  0
LINE
  8
0
 10
101.588
 11
101.706
 20
73.204
 21
73.058
  0
LINE
  8
0
 10
101.706
 11
101.809
 20
73.058
 21
72.9
  0
LINE
  8
0
 10
101.809
 11
101.894
 20
72.9
 21
72.732
  0
LINE
  8
0
 10
101.894
 11
101.962
 20
72.732
 21
72.556
  0
LINE
  8
0
 10
101.962
 11
102.011
 20
72.556
 21
72.374
  0
LINE
  8
0
 10
102.011
 11
102.04
 20
72.374
 21
72.188
  0
LINE
  8
0
 10
102.04
 11
102.05
 20
72.188
 21
72
  0
LINE
  8
0
 10
102.05
 11
102.04
 20
72
 21
71.812
  0
LINE
  8
0
 10
102.04
 11
102.011
 20
71.812
 21
71.626
  0
LINE
  8
0
 10
102.011
 11
101.962
 20
71.626
 21
71.444
  0
LINE
  8
0
 10
101.962
 11
101.894
 20
71.444
 21
71.268
  0
LINE
  8
0
 10
101.894
 11
101.809
 20
71.268
 21
71.1
  0
LINE
  8
0
 10
101.809
 11
101.706
 20
71.1
 21
70.942
  0
LINE
  8
0
 10
101.706
 11
101.588
 20
70.942
 21
70.796
  0
LINE
  8
0
 10
101.588
 11
101.454
 20
70.796
 21
70.662
  0
LINE
  8
0
 10
101.454
 11
101.308
 20
70.662
 21
70.544
  0
LINE
  8
0
 10
101.308
 11
101.15
 20
70.544
 21
70.441
  0
LINE
  8
0
 10
101.15
 11
100.982
 20
70.441
 21
70.356
  0
LINE
  8
0
 10
100.982
 11
100.806
 20
70.356
 21
70.288
  0
LINE
  8
0
 10
100.806
 11
100.624
 20
70.288
 21
70.239
  0
LINE
  8
0
 10
100.624
 11
100.438
 20
70.239
 21
70.21
  0
LINE
  8
0
 10
100.438
 11
100.25
 20
70.21
 21
70.2
  0
LINE
  8
0
 10
100.25
 11
100.062
 20
70.2
 21
70.21
  0
LINE
  8
0
 10
100.062
 11
99.876
 20
70.21
 21
70.239
  0
LINE
  8
0
 10
99.876
 11
99.694
 20
70.239
 21
70.288
  0
LINE
  8
0
 10
99.694
 11
99.518
 20
70.288
 21
70.356
  0
LINE
  8
0
 10
99.518
 11
99.35
 20
70.356
 21
70.441
  0
LINE
  8
0
 10
99.35
 11
99.192
 20
70.441
 21
70.544
  0
LINE
  8
0
 10
99.192
 11
99.046
 20
70.544
 21
70.662
  0
LINE
  8
0
 10
99.046
 11
98.912
 20
70.662
 21
70.796
  0
LINE
  8
0
 10
98.912
 11
98.794
 20
70.796
 21
70.942
  0
LINE
  8
0
 10
98.794
 11
98.691
 20
70.942
 21
71.1
  0
LINE
  8
0
 10
98.691
 11
98.606
 20
71.1
 21
71.268
  0
LINE
  8
0
 10
98.606
 11
98.538
 20
71.268
 21
71.444
  0
LINE
  8
0
 10
98.538
 11
98.489
 20
71.444
 21
71.626
  0
LINE
  8
0
 10
98.489
 11
98.46
 20
71.626
 21
71.812
  0
LINE
  8
0
 10
98.46
 11
98.45
 20
71.812
 21
72
  0
LINE
  8
0
 10
125.2
 11
125.21
 20
72
 21
72.188
  0
LINE
  8
0
 10
125.21
 11
125.239
 20
72.188
 21
72.374
  0
LINE
  8
0
 10
125.239
 11
125.288
 20
72.374
 21
72.556
  0
LINE
  8
0
 10
125.288
 11
125.356
 20
72.556
 21
72.732
  0
LINE
  8
0
 10
125.356
 11
125.441
 20
72.732
 21
72.9
  0
LINE
  8
0
 10
125.441
 11
125.544
 20
72.9
 21
73.058
  0
LINE
  8
0
 10
125.544
 11
125.662
 20
73.058
 21
73.204
  0
LINE
  8
0
 10
125.662
 11
125.796
 20
73.204
 21
73.338
  0
LINE
  8
0
 10
125.796
 11
125.942
 20
73.338
 21
73.456
  0
LINE
  8
0
 10
125.942
 11
126.1
 20
73.456
 21
73.559
  0
LINE
  8
0
 10
126.1
 11
126.268
 20
73.559
 21
73.644
  0
LINE
  8
0
 10
126.268
 11
126.444
 20
73.644
 21
73.712
  0
LINE
  8
0
 10
126.444
 11
126.626
 20
73.712
 21
73.761
  0
LINE
  8
0
 10
126.626
 11
126.812
 20
73.761
 21
73.79
  0
LINE
  8
0
 10
126.812
 11
127
 20
73.79
 21
73.8
  0
LINE
  8
0
 10
127
 11
127.188
 20
73.8
 21
73.79
  0
LINE
  8
0
 10
127.188
 11
127.374
 20
73.79
 21
73.761
  0
LINE
  8
0
 10
127.374
 11
127.556
 20
73.761
 21
73.712
  0
LINE
  8
0
 10
127.556
 11
127.732
 20
73.712
 21
73.644
  0
LINE
  8
0
 10
127.732
 11
127.9
 20
73.644
 21
73.559
  0
LINE
  8
0
 10
127.9
 11
128.058
 20
73.559
 21
73.456
  0
LINE
  8
0
 10
128.058
 11
128.204
 20
73.456
 21
73.338
  0
LINE
  8
0
 10
128.204
 11
128.338
 20
73.338
 21
73.204
  0
LINE
  8
0
 10
128.338
 11
128.456
 20
73.204
 21
73.058
  0
LINE
  8
0
 10
128.456
 11
128.559
 20
73.058
 21
72.9
  0
LINE
  8
0
 10
128.559
 11
128.644
 20
72.9
 21
72.732
  0
LINE
  8
0
 10
128.644
 11
128.712
 20
72.732
 21
72.556
  0
LINE
  8
0
 10
128.712
 11
128.761
 20
72.556
 21
72.374
  0
LINE
  8
0
 10
128.761
 11
128.79
 20
72.374
 21
72.188
  0
LINE
  8
0
 10
128.79
 11
128.8
 20
72.188
 21
72
  0
LINE
  8
0
 10
128.8
 11
128.79
 20
72
 21
71.812
  0
LINE
  8
0
 10
128.79
 11
128.761
 20
71.812
 21
71.626
  0
LINE
  8
0
 10
128.761
 11
128.712
 20
71.626
 21
71.444
  0
LINE
  8
0
 10
128.712
 11
128.644
 20
71.444
 21
71.268
  0
LINE
  8
0
 10
128.644
 11
128.559
 20
71.268
 21
71.1
  0
LINE
  8
0
 10
128.559
 11
128.456
 20
71.1
 21
70.942
  0
LINE
  8
0
 10
128.456
 11
128.338
 20
70.942
 21
70.796
  0
LINE
  8
0
 10
128.338
 11
128.204
 20
70.796
 21
70.662
  0
LINE
  8
0
 10
128.204
 11
128.058
 20
70.662
 21
70.544
  0
LINE
  8
0
 10
128.058
 11
127.9
 20
70.544
 21
70.441
  0
LINE
  8
0
 10
127.9
 11
127.732
 20
70.441
 21
70.356
  0
LINE
  8
0
 10
127.732
 11
127.556
 20
70.356
 21
70.288
  0
LINE
  8
0
 10
127.556
 11
127.374
 20
70.288
 21
70.239
  0
LINE
  8
0
 10
127.374
 11
127.188
 20
70.239
 21
70.21
  0
LINE
  8
0
 10
127.188
 11
127
 20
70.21
 21
70.2
  0
LINE
  8
0
 10
127
 11
126.812
 20
70.2
 21
70.21
  0
LINE
  8
0
 10
126.812
 11
126.626
 20
70.21
 21
70.239
  0
LINE
  8
0
 10
126.626
 11
126.444
 20
70.239
 21
70.288
  0
LINE
  8
0
 10
126.444
 11
126.268
 20
70.288
 21
70.356
  0
LINE
  8
0
 10
126.268
 11
126.1
 20
70.356
 21
70.441
  0
LINE
  8
0
 10
126.1
 11
125.942
 20
70.441
 21
70.544
  0
LINE
  8
0
 10
125.942
 11
125.796
 20
70.544
 21
70.662
  0
LINE
  8
0
 10
125.796
 11
125.662
 20
70.662
 21
70.796
  0
LINE
  8
0
 10
125.662
 11
125.544
 20
70.796
 21
70.942
  0
LINE
  8
0
 10
125.544
 11
125.441
 20
70.942
 21
71.1
  0
LINE
  8
0
 10
125.441
 11
125.356
 20
71.1
 21
71.268
  0
LINE
  8
0
 10
125.356
 11
125.288
 20
71.268
 21
71.444
  0
LINE
  8
0
 10
125.288
 11
125.239
 20
71.444
 21
71.626
  0
LINE
  8
0
 10
125.239
 11
125.21
 20
71.626
 21
71.812
  0
LINE
  8
0
 10
125.21
 11
125.2
 20
71.812
 21
72
  0
LINE
  8
0
 10
135.7
 11
135.71
 20
16
 21
16.188
  0
LINE
  8
0
 10
135.71
 11
135.739
 20
16.188
 21
16.374
  0
LINE
  8
0
 10
135.739
 11
135.788
 20
16.374
 21
16.556
  0
LINE
  8
0
 10
135.788
 11
135.856
 20
16.556
 21
16.732
  0
LINE
  8
0
 10
135.856
 11
135.941
 20
16.732
 21
16.9
  0
LINE
  8
0
 10
135.941
 11
136.044
 20
16.9
 21
17.058
  0
LINE
  8
0
 10
136.044
 11
136.162
 20
17.058
 21
17.204
  0
LINE
  8
0
 10
136.162
 11
136.296
 20
17.204
 21
17.338
  0
LINE
  8
0
 10
136.296
 11
136.442
 20
17.338
 21
17.456
  0
LINE
  8
0
 10
136.442
 11
136.6
 20
17.456
 21
17.559
  0
LINE
  8
0
 10
136.6
 11
136.768
 20
17.559
 21
17.644
  0
LINE
  8
0
 10
136.768
 11
136.944
 20
17.644
 21
17.712
  0
LINE
  8
0
 10
136.944
 11
137.126
 20
17.712
 21
17.761
  0
LINE
  8
0
 10
137.126
 11
137.312
 20
17.761
 21
17.79
  0
LINE
  8
0
 10
137.312
 11
137.5
 20
17.79
 21
17.8
  0
LINE
  8
0
 10
137.5
 11
137.688
 20
17.8
 21
17.79
  0
LINE
  8
0
 10
137.688
 11
137.874
 20
17.79
 21
17.761
  0
LINE
  8
0
 10
137.874
 11
138.056
 20
17.761
 21
17.712
  0
LINE
  8
0
 10
138.056
 11
138.232
 20
17.712
 21
17.644
  0
LINE
  8
0
 10
138.232
 11
138.4
 20
17.644
 21
17.559
  0
LINE
  8
0
 10
138.4
 11
138.558
 20
17.559
 21
17.456
  0
LINE
  8
0
 10
138.558
 11
138.704
 20
17.456
 21
17.338
  0
LINE
  8
0
 10
138.704
 11
138.838
 20
17.338
 21
17.204
  0
LINE
  8
0
 10
138.838
 11
138.956
 20
17.204
 21
17.058
  0
LINE
  8
0
 10
138.956
 11
139.059
 20
17.058
 21
16.9
  0
LINE
  8
0
 10
139.059
 11
139.144
 20
16.9
 21
16.732
  0
LINE
  8
0
 10
139.144
 11
139.212
 20
16.732
 21
16.556
  0
LINE
  8
0
 10
139.212
 11
139.261
 20
16.556
 21
16.374
  0
LINE
  8
0
 10
139.261
 11
139.29
 20
16.374
 21
16.188
  0
LINE
  8
0
 10
139.29
 11
139.3
 20
16.188
 21
16
  0
LINE
  8
0
 10
139.3
 11
139.29
 20
16
 21
15.812
  0
LINE
  8
0
 10
139.29
 11
139.261
 20
15.812
 21
15.626
  0
LINE
  8
0
 10
139.261
 11
139.212
 20
15.626
 21
15.444
  0
LINE
  8
0
 10
139.212
 11
139.144
 20
15.444
 21
15.268
  0
LINE
  8
0
 10
139.144
 11
139.059
 20
15.268
 21
15.1
  0
LINE
  8
0
 10
139.059
 11
138.956
 20
15.1
 21
14.942
  0
LINE
  8
0
 10
138.956
 11
138.838
 20
14.942
 21
14.796
  0
LINE
  8
0
 10
138.838
 11
138.704
 20
14.796
 21
14.662
  0
LINE
  8
0
 10
138.704
 11
138.558
 20
14.662
 21
14.544
  0
LINE
  8
0
 10
138.558
 11
138.4
 20
14.544
 21
14.441
  0
LINE
  8
0
 10
138.4
 11
138.232
 20
14.441
 21
14.356
  0
LINE
  8
0
 10
138.232
 11
138.056
 20
14.356
 21
14.288
  0
LINE
  8
0
 10
138.056
 11
137.874
 20
14.288
 21
14.239
  0
LINE
  8
0
 10
137.874
 11
137.688
 20
14.239
 21
14.21
  0
LINE
  8
0
 10
137.688
 11
137.5
 20
14.21
 21
14.2
  0
LINE
  8
0
 10
137.5
 11
137.312
 20
14.2
 21
14.21
  0
LINE
  8
0
 10
137.312
 11
137.126
 20
14.21
 21
14.239
  0
LINE
  8
0
 10
137.126
 11
136.944
 20
14.239
 21
14.288
  0
LINE
  8
0
 10
136.944
 11
136.768
 20
14.288
 21
14.356
  0
LINE
  8
0
 10
136.768
 11
136.6
 20
14.356
 21
14.441
  0
LINE
  8
0
 10
136.6
 11
136.442
 20
14.441
 21
14.544
  0
LINE
  8
0
 10
136.442
 11
136.296
 20
14.544
 21
14.662
  0
LINE
  8
0
 10
136.296
 11
136.162
 20
14.662
 21
14.796
  0
LINE
  8
0
 10
136.162
 11
136.044
 20
14.796
 21
14.942
  0
LINE
  8
0
 10
136.044
 11
135.941
 20
14.942
 21
15.1
  0
LINE
  8
0
 10
135.941
 11
135.856
 20
15.1
 21
15.268
  0
LINE
  8
0
 10
135.856
 11
135.788
 20
15.268
 21
15.444
  0
LINE
  8
0
 10
135.788
 11
135.739
 20
15.444
 21
15.626
  0
LINE
  8
0
 10
135.739
 11
135.71
 20
15.626
 21
15.812
  0
LINE
  8
0
 10
135.71
 11
135.7
 20
15.812
 21
16
  0
LINE
  8
0
 10
135.7
 11
135.71
 20
64
 21
64.188
  0
LINE
  8
0
 10
135.71
 11
135.739
 20
64.188
 21
64.374
  0
LINE
  8
0
 10
135.739
 11
135.788
 20
64.374
 21
64.556
  0
LINE
  8
0
 10
135.788
 11
135.856
 20
64.556
 21
64.732
  0
LINE
  8
0
 10
135.856
 11
135.941
 20
64.732
 21
64.9
  0
LINE
  8
0
 10
135.941
 11
136.044
 20
64.9
 21
65.058
  0
LINE
  8
0
 10
136.044
 11
136.162
 20
65.058
 21
65.204
  0
LINE
  8
0
 10
136.162
 11
136.296
 20
65.204
 21
65.338
  0
LINE
  8
0
 10
136.296
 11
136.442
 20
65.338
 21
65.456
  0
LINE
  8
0
 10
136.442
 11
136.6
 20
65.456
 21
65.559
  0
LINE
  8
0
 10
136.6
 11
136.768
 20
65.559
 21
65.644
  0
LINE
  8
0
 10
136.768
 11
136.944
 20
65.644
 21
65.712
  0
LINE
  8
0
 10
136.944
 11
137.126
 20
65.712
 21
65.761
  0
LINE
  8
0
 10
137.126
 11
137.312
 20
65.761
 21
65.79
  0
LINE
  8
0
 10
137.312
 11
137.5
 20
65.79
 21
65.8
  0
LINE
  8
0
 10
137.5
 11
137.688
 20
65.8
 21
65.79
  0
LINE
  8
0
 10
137.688
 11
137.874
 20
65.79
 21
65.761
  0
LINE
  8
0
 10
137.874
 11
138.056
 20
65.761
 21
65.712
  0
LINE
  8
0
 10
138.056
 11
138.232
 20
65.712
 21
65.644
  0
LINE
  8
0
 10
138.232
 11
138.4
 20
65.644
 21
65.559
  0
LINE
  8
0
 10
138.4
 11
138.558
 20
65.559
 21
65.456
  0
LINE
  8
0
 10
138.558
 11
138.704
 20
65.456
 21
65.338
  0
LINE
  8
0
 10
138.704
 11
138.838
 20
65.338
 21
65.204
  0
LINE
  8
0
 10
138.838
 11
138.956
 20
65.204
 21
65.058
  0
LINE
  8
0
 10
138.956
 11
139.059
 20
65.058
 21
64.9
  0
LINE
  8
0
 10
139.059
 11
139.144
 20
64.9
 21
64.732
  0
LINE
  8
0
 10
139.144
 11
139.212
 20
64.732
 21
64.556
  0
LINE
  8
0
 10
139.212
 11
139.261
 20
64.556
 21
64.374
  0
LINE
  8
0
 10
139.261
 11
139.29
 20
64.374
 21
64.188
  0
LINE
  8
0
 10
139.29
 11
139.3
 20
64.188
 21
64
  0
LINE
  8
0
 10
139.3
 11
139.29
 20
64
 21
63.812
  0
LINE
  8
0
 10
139.29
 11
139.261
 20
63.812
 21
63.626
  0
LINE
  8
0
 10
139.261
 11
139.212
 20
63.626
 21
63.444
  0
LINE
  8
0
 10
139.212
 11
139.144
 20
63.444
 21
63.268
  0
LINE
  8
0
 10
139.144
 11
139.059
 20
63.268
 21
63.1
  0
LINE
  8
0
 10
139.059
 11
138.956
 20
63.1
 21
62.942
  0
LINE
  8
0
 10
138.956
 11
138.838
 20
62.942
 21
62.796
  0
LINE
  8
0
 10
138.838
 11
138.704
 20
62.796
 21
62.662
  0
LINE
  8
0
 10
138.704
 11
138.558
 20
62.662
 21
62.544
  0
LINE
  8
0
 10
138.558
 11
138.4
 20
62.544
 21
62.441
  0
LINE
  8
0
 10
138.4
 11
138.232
 20
62.441
 21
62.356
  0
LINE
  8
0
 10
138.232
 11
138.056
 20
62.356
 21
62.288
  0
LINE
  8
0
 10
138.056
 11
137.874
 20
62.288
 21
62.239
  0
LINE
  8
0
 10
137.874
 11
137.688
 20
62.239
 21
62.21
  0
LINE
  8
0
 10
137.688
 11
137.5
 20
62.21
 21
62.2
  0
LINE
  8
0
 10
137.5
 11
137.312
 20
62.2
 21
62.21
  0
LINE
  8
0
 10
137.312
 11
137.126
 20
62.21
 21
62.239
  0
LINE
  8
0
 10
137.126
 11
136.944
 20
62.239
 21
62.288
  0
LINE
  8
0
 10
136.944
 11
136.768
 20
62.288
 21
62.356
  0
LINE
  8
0
 10
136.768
 11
136.6
 20
62.356
 21
62.441
  0
LINE
  8
0
 10
136.6
 11
136.442
 20
62.441
 21
62.544
  0
LINE
  8
0
 10
136.442
 11
136.296
 20
62.544
 21
62.662
  0
LINE
  8
0
 10
136.296
 11
136.162
 20
62.662
 21
62.796
  0
LINE
  8
0
 10
136.162
 11
136.044
 20
62.796
 21
62.942
  0
LINE
  8
0
 10
136.044
 11
135.941
 20
62.942
 21
63.1
  0
LINE
  8
0
 10
135.941
 11
135.856
 20
63.1
 21
63.268
  0
LINE
  8
0
 10
135.856
 11
135.788
 20
63.268
 21
63.444
  0
LINE
  8
0
 10
135.788
 11
135.739
 20
63.444
 21
63.626
  0
LINE
  8
0
 10
135.739
 11
135.71
 20
63.626
 21
63.812
  0
LINE
  8
0
 10
135.71
 11
135.7
 20
63.812
 21
64
  0
LINE
  8
0
 10
151.95
 11
151.96
 20
72
 21
72.188
  0
LINE
  8
0
 10
151.96
 11
151.989
 20
72.188
 21
72.374
  0
LINE
  8
0
 10
151.989
 11
152.038
 20
72.374
 21
72.556
  0
LINE
  8
0
 10
152.038
 11
152.106
 20
72.556
 21
72.732
  0
LINE
  8
0
 10
152.106
 11
152.191
 20
72.732
 21
72.9
  0
LINE
  8
0
 10
152.191
 11
152.294
 20
72.9
 21
73.058
  0
LINE
  8
0
 10
152.294
 11
152.412
 20
73.058
 21
73.204
  0
LINE
  8
0
 10
152.412
 11
152.546
 20
73.204
 21
73.338
  0
LINE
  8
0
 10
152.546
 11
152.692
 20
73.338
 21
73.456
  0
LINE
  8
0
 10
152.692
 11
152.85
 20
73.456
 21
73.559
  0
LINE
  8
0
 10
152.85
 11
153.018
 20
73.559
 21
73.644
  0
LINE
  8
0
 10
153.018
 11
153.194
 20
73.644
 21
73.712
  0
LINE
  8
0
 10
153.194
 11
153.376
 20
73.712
 21
73.761
  0
LINE
  8
0
 10
153.376
 11
153.562
 20
73.761
 21
73.79
  0
LINE
  8
0
 10
153.562
 11
153.75
 20
73.79
 21
73.8
  0
LINE
  8
0
 10
153.75
 11
153.938
 20
73.8
 21
73.79
  0
LINE
  8
0
 10
153.938
 11
154.124
 20
73.79
 21
73.761
  0
LINE
  8
0
 10
154.124
 11
154.306
 20
73.761
 21
73.712
  0
LINE
  8
0
 10
154.306
 11
154.482
 20
73.712
 21
73.644
  0
LINE
  8
0
 10
154.482
 11
154.65
 20
73.644
 21
73.559
  0
LINE
  8
0
 10
154.65
 11
154.808
 20
73.559
 21
73.456
  0
LINE
  8
0
 10
154.808
 11
154.954
 20
73.456
 21
73.338
  0
LINE
  8
0
 10
154.954
 11
155.088
 20
73.338
 21
73.204
  0
LINE
  8
0
 10
155.088
 11
155.206
 20
73.204
 21
73.058
  0
LINE
  8
0
 10
155.206
 11
155.309
 20
73.058
 21
72.9
  0
LINE
  8
0
 10
155.309
 11
155.394
 20
72.9
 21
72.732
  0
LINE
  8
0
 10
155.394
 11
155.462
 20
72.732
 21
72.556
  0
LINE
  8
0
 10
155.462
 11
155.511
 20
72.556
 21
72.374
  0
LINE
  8
0
 10
155.511
 11
155.54
 20
72.374
 21
72.188
  0
LINE
  8
0
 10
155.54
 11
155.55
 20
72.188
 21
72
  0
LINE
  8
0
 10
155.55
 11
155.54
 20
72
 21
71.812
  0
LINE
  8
0
 10
155.54
 11
155.511
 20
71.812
 21
71.626
  0
LINE
  8
0
 10
155.511
 11
155.462
 20
71.626
 21
71.444
  0
LINE
  8
0
 10
155.462
 11
155.394
 20
71.444
 21
71.268
  0
LINE
  8
0
 10
155.394
 11
155.309
 20
71.268
 21
71.1
  0
LINE
  8
0
 10
155.309
 11
155.206
 20
71.1
 21
70.942
  0
LINE
  8
0
 10
155.206
 11
155.088
 20
70.942
 21
70.796
  0
LINE
  8
0
 10
155.088
 11
154.954
 20
70.796
 21
70.662
  0
LINE
  8
0
 10
154.954
 11
154.808
 20
70.662
 21
70.544
  0
LINE
  8
0
 10
154.808
 11
154.65
 20
70.544
 21
70.441
  0
LINE
  8
0
 10
154.65
 11
154.482
 20
70.441
 21
70.356
  0
LINE
  8
0
 10
154.482
 11
154.306
 20
70.356
 21
70.288
  0
LINE
  8
0
 10
154.306
 11
154.124
 20
70.288
 21
70.239
  0
LINE
  8
0
 10
154.124
 11
153.938
 20
70.239
 21
70.21
  0
LINE
  8
0
 10
153.938
 11
153.75
 20
70.21
 21
70.2
  0
LINE
  8
0
 10
153.75
 11
153.562
 20
70.2
 21
70.21
  0
LINE
  8
0
 10
153.562
 11
153.376
 20
70.21
 21
70.239
  0
LINE
  8
0
 10
153.376
 11
153.194
 20
70.239
 21
70.288
  0
LINE
  8
0
 10
153.194
 11
153.018
 20
70.288
 21
70.356
  0
LINE
  8
0
 10
153.018
 11
152.85
 20
70.356
 21
70.441
  0
LINE
  8
0
 10
152.85
 11
152.692
 20
70.441
 21
70.544
  0
LINE
  8
0
 10
152.692
 11
152.546
 20
70.544
 21
70.662
  0
LINE
  8
0
 10
152.546
 11
152.412
 20
70.662
 21
70.796
  0
LINE
  8
0
 10
152.412
 11
152.294
 20
70.796
 21
70.942
  0
LINE
  8
0
 10
152.294
 11
152.191
 20
70.942
 21
71.1
  0
LINE
  8
0
 10
152.191
 11
152.106
 20
71.1
 21
71.268
  0
LINE
  8
0
 10
152.106
 11
152.038
 20
71.268
 21
71.444
  0
LINE
  8
0
 10
152.038
 11
151.989
 20
71.444
 21
71.626
  0
LINE
  8
0
 10
151.989
 11
151.96
 20
71.626
 21
71.812
  0
LINE
  8
0
 10
151.96
 11
151.95
 20
71.812
 21
72
  0
LINE
  8
0
 10
155.7
 11
155.71
 20
30
 21
30.188
  0
LINE
  8
0
 10
155.71
 11
155.739
 20
30.188
 21
30.374
  0
LINE
  8
0
 10
155.739
 11
155.788
 20
30.374
 21
30.556
  0
LINE
  8
0
 10
155.788
 11
155.856
 20
30.556
 21
30.732
  0
LINE
  8
0
 10
155.856
 11
155.941
 20
30.732
 21
30.9
  0
LINE
  8
0
 10
155.941
 11
156.044
 20
30.9
 21
31.058
  0
LINE
  8
0
 10
156.044
 11
156.162
 20
31.058
 21
31.204
  0
LINE
  8
0
 10
156.162
 11
156.296
 20
31.204
 21
31.338
  0
LINE
  8
0
 10
156.296
 11
156.442
 20
31.338
 21
31.456
  0
LINE
  8
0
 10
156.442
 11
156.6
 20
31.456
 21
31.559
  0
LINE
  8
0
 10
156.6
 11
156.768
 20
31.559
 21
31.644
  0
LINE
  8
0
 10
156.768
 11
156.944
 20
31.644
 21
31.712
  0
LINE
  8
0
 10
156.944
 11
157.126
 20
31.712
 21
31.761
  0
LINE
  8
0
 10
157.126
 11
157.312
 20
31.761
 21
31.79
  0
LINE
  8
0
 10
157.312
 11
157.5
 20
31.79
 21
31.8
  0
LINE
  8
0
 10
157.5
 11
157.688
 20
31.8
 21
31.79
  0
LINE
  8
0
 10
157.688
 11
157.874
 20
31.79
 21
31.761
  0
LINE
  8
0
 10
157.874
 11
158.056
 20
31.761
 21
31.712
  0
LINE
  8
0
 10
158.056
 11
158.232
 20
31.712
 21
31.644
  0
LINE
  8
0
 10
158.232
 11
158.4
 20
31.644
 21
31.559
  0
LINE
  8
0
 10
158.4
 11
158.558
 20
31.559
 21
31.456
  0
LINE
  8
0
 10
158.558
 11
158.704
 20
31.456
 21
31.338
  0
LINE
  8
0
 10
158.704
 11
158.838
 20
31.338
 21
31.204
  0
LINE
  8
0
 10
158.838
 11
158.956
 20
31.204
 21
31.058
  0
LINE
  8
0
 10
158.956
 11
159.059
 20
31.058
 21
30.9
  0
LINE
  8
0
 10
159.059
 11
159.144
 20
30.9
 21
30.732
  0
LINE
  8
0
 10
159.144
 11
159.212
 20
30.732
 21
30.556
  0
LINE
  8
0
 10
159.212
 11
159.261
 20
30.556
 21
30.374
  0
LINE
  8
0
 10
159.261
 11
159.29
 20
30.374
 21
30.188
  0
LINE
  8
0
 10
159.29
 11
159.3
 20
30.188
 21
30
  0
LINE
  8
0
 10
159.3
 11
159.29
 20
30
 21
29.812
  0
LINE
  8
0
 10
159.29
 11
159.261
 20
29.812
 21
29.626
  0
LINE
  8
0
 10
159.261
 11
159.212
 20
29.626
 21
29.444
  0
LINE
  8
0
 10
159.212
 11
159.144
 20
29.444
 21
29.268
  0
LINE
  8
0
 10
159.144
 11
159.059
 20
29.268
 21
29.1
  0
LINE
  8
0
 10
159.059
 11
158.956
 20
29.1
 21
28.942
  0
LINE
  8
0
 10
158.956
 11
158.838
 20
28.942
 21
28.796
  0
LINE
  8
0
 10
158.838
 11
158.704
 20
28.796
 21
28.662
  0
LINE
  8
0
 10
158.704
 11
158.558
 20
28.662
 21
28.544
  0
LINE
  8
0
 10
158.558
 11
158.4
 20
28.544
 21
28.441
  0
LINE
  8
0
 10
158.4
 11
158.232
 20
28.441
 21
28.356
  0
LINE
  8
0
 10
158.232
 11
158.056
 20
28.356
 21
28.288
  0
LINE
  8
0
 10
158.056
 11
157.874
 20
28.288
 21
28.239
  0
LINE
  8
0
 10
157.874
 11
157.688
 20
28.239
 21
28.21
  0
LINE
  8
0
 10
157.688
 11
157.5
 20
28.21
 21
28.2
  0
LINE
  8
0
 10
157.5
 11
157.312
 20
28.2
 21
28.21
  0
LINE
  8
0
 10
157.312
 11
157.126
 20
28.21
 21
28.239
  0
LINE
  8
0
 10
157.126
 11
156.944
 20
28.239
 21
28.288
  0
LINE
  8
0
 10
156.944
 11
156.768
 20
28.288
 21
28.356
  0
LINE
  8
0
 10
156.768
 11
156.6
 20
28.356
 21
28.441
  0
LINE
  8
0
 10
156.6
 11
156.442
 20
28.441
 21
28.544
  0
LINE
  8
0
 10
156.442
 11
156.296
 20
28.544
 21
28.662
  0
LINE
  8
0
 10
156.296
 11
156.162
 20
28.662
 21
28.796
  0
LINE
  8
0
 10
156.162
 11
156.044
 20
28.796
 21
28.942
  0
LINE
  8
0
 10
156.044
 11
155.941
 20
28.942
 21
29.1
  0
LINE
  8
0
 10
155.941
 11
155.856
 20
29.1
 21
29.268
  0
LINE
  8
0
 10
155.856
 11
155.788
 20
29.268
 21
29.444
  0
LINE
  8
0
 10
155.788
 11
155.739
 20
29.444
 21
29.626
  0
LINE
  8
0
 10
155.739
 11
155.71
 20
29.626
 21
29.812
  0
LINE
  8
0
 10
155.71
 11
155.7
 20
29.812
 21
30
  0
LINE
  8
0
 10
155.7
 11
155.71
 20
50
 21
50.188
  0
LINE
  8
0
 10
155.71
 11
155.739
 20
50.188
 21
50.374
  0
LINE
  8
0
 10
155.739
 11
155.788
 20
50.374
 21
50.556
  0
LINE
  8
0
 10
155.788
 11
155.856
 20
50.556
 21
50.732
  0
LINE
  8
0
 10
155.856
 11
155.941
 20
50.732
 21
50.9
  0
LINE
  8
0
 10
155.941
 11
156.044
 20
50.9
 21
51.058
  0
LINE
  8
0
 10
156.044
 11
156.162
 20
51.058
 21
51.204
  0
LINE
  8
0
 10
156.162
 11
156.296
 20
51.204
 21
51.338
  0
LINE
  8
0
 10
156.296
 11
156.442
 20
51.338
 21
51.456
  0
LINE
  8
0
 10
156.442
 11
156.6
 20
51.456
 21
51.559
  0
LINE
  8
0
 10
156.6
 11
156.768
 20
51.559
 21
51.644
  0
LINE
  8
0
 10
156.768
 11
156.944
 20
51.644
 21
51.712
  0
LINE
  8
0
 10
156.944
 11
157.126
 20
51.712
 21
51.761
  0
LINE
  8
0
 10
157.126
 11
157.312
 20
51.761
 21
51.79
  0
LINE
  8
0
 10
157.312
 11
157.5
 20
51.79
 21
51.8
  0
LINE
  8
0
 10
157.5
 11
157.688
 20
51.8
 21
51.79
  0
LINE
  8
0
 10
157.688
 11
157.874
 20
51.79
 21
51.761
  0
LINE
  8
0
 10
157.874
 11
158.056
 20
51.761
 21
51.712
  0
LINE
  8
0
 10
158.056
 11
158.232
 20
51.712
 21
51.644
  0
LINE
  8
0
 10
158.232
 11
158.4
 20
51.644
 21
51.559
  0
LINE
  8
0
 10
158.4
 11
158.558
 20
51.559
 21
51.456
  0
LINE
  8
0
 10
158.558
 11
158.704
 20
51.456
 21
51.338
  0
LINE
  8
0
 10
158.704
 11
158.838
 20
51.338
 21
51.204
  0
LINE
  8
0
 10
158.838
 11
158.956
 20
51.204
 21
51.058
  0
LINE
  8
0
 10
158.956
 11
159.059
 20
51.058
 21
50.9
  0
LINE
  8
0
 10
159.059
 11
159.144
 20
50.9
 21
50.732
  0
LINE
  8
0
 10
159.144
 11
159.212
 20
50.732
 21
50.556
  0
LINE
  8
0
 10
159.212
 11
159.261
 20
50.556
 21
50.374
  0
LINE
  8
0
 10
159.261
 11
159.29
 20
50.374
 21
50.188
  0
LINE
  8
0
 10
159.29
 11
159.3
 20
50.188
 21
50
  0
LINE
  8
0
 10
159.3
 11
159.29
 20
50
 21
49.812
  0
LINE
  8
0
 10
159.29
 11
159.261
 20
49.812
 21
49.626
  0
LINE
  8
0
 10
159.261
 11
159.212
 20
49.626
 21
49.444
  0
LINE
  8
0
 10
159.212
 11
159.144
 20
49.444
 21
49.268
  0
LINE
  8
0
 10
159.144
 11
159.059
 20
49.268
 21
49.1
  0
LINE
  8
0
 10
159.059
 11
158.956
 20
49.1
 21
48.942
  0
LINE
  8
0
 10
158.956
 11
158.838
 20
48.942
 21
48.796
  0
LINE
  8
0
 10
158.838
 11
158.704
 20
48.796
 21
48.662
  0
LINE
  8
0
 10
158.704
 11
158.558
 20
48.662
 21
48.544
  0
LINE
  8
0
 10
158.558
 11
158.4
 20
48.544
 21
48.441
  0
LINE
  8
0
 10
158.4
 11
158.232
 20
48.441
 21
48.356
  0
LINE
  8
0
 10
158.232
 11
158.056
 20
48.356
 21
48.288
  0
LINE
  8
0
 10
158.056
 11
157.874
 20
48.288
 21
48.239
  0
LINE
  8
0
 10
157.874
 11
157.688
 20
48.239
 21
48.21
  0
LINE
  8
0
 10
157.688
 11
157.5
 20
48.21
 21
48.2
  0
LINE
  8
0
 10
157.5
 11
157.312
 20
48.2
 21
48.21
  0
LINE
  8
0
 10
157.312
 11
157.126
 20
48.21
 21
48.239
  0
LINE
  8
0
 10
157.126
 11
156.944
 20
48.239
 21
48.288
  0
LINE
  8
0
 10
156.944
 11
156.768
 20
48.288
 21
48.356
  0
LINE
  8
0
 10
156.768
 11
156.6
 20
48.356
 21
48.441
  0
LINE
  8
0
 10
156.6
 11
156.442
 20
48.441
 21
48.544
  0
LINE
  8
0
 10
156.442
 11
156.296
 20
48.544
 21
48.662
  0
LINE
  8
0
 10
156.296
 11
156.162
 20
48.662
 21
48.796
  0
LINE
  8
0
 10
156.162
 11
156.044
 20
48.796
 21
48.942
  0
LINE
  8
0
 10
156.044
 11
155.941
 20
48.942
 21
49.1
  0
LINE
  8
0
 10
155.941
 11
155.856
 20
49.1
 21
49.268
  0
LINE
  8
0
 10
155.856
 11
155.788
 20
49.268
 21
49.444
  0
LINE
  8
0
 10
155.788
 11
155.739
 20
49.444
 21
49.626
  0
LINE
  8
0
 10
155.739
 11
155.71
 20
49.626
 21
49.812
  0
LINE
  8
0
 10
155.71
 11
155.7
 20
49.812
 21
50
  0
LINE
  8
0
 10
178.7
 11
178.71
 20
72
 21
72.188
  0
LINE
  8
0
 10
178.71
 11
178.739
 20
72.188
 21
72.374
  0
LINE
  8
0
 10
178.739
 11
178.788
 20
72.374
 21
72.556
  0
LINE
  8
0
 10
178.788
 11
178.856
 20
72.556
 21
72.732
  0
LINE
  8
0
 10
178.856
 11
178.941
 20
72.732
 21
72.9
  0
LINE
  8
0
 10
178.941
 11
179.044
 20
72.9
 21
73.058
  0
LINE
  8
0
 10
179.044
 11
179.162
 20
73.058
 21
73.204
  0
LINE
  8
0
 10
179.162
 11
179.296
 20
73.204
 21
73.338
  0
LINE
  8
0
 10
179.296
 11
179.442
 20
73.338
 21
73.456
  0
LINE
  8
0
 10
179.442
 11
179.6
 20
73.456
 21
73.559
  0
LINE
  8
0
 10
179.6
 11
179.768
 20
73.559
 21
73.644
  0
LINE
  8
0
 10
179.768
 11
179.944
 20
73.644
 21
73.712
  0
LINE
  8
0
 10
179.944
 11
180.126
 20
73.712
 21
73.761
  0
LINE
  8
0
 10
180.126
 11
180.312
 20
73.761
 21
73.79
  0
LINE
  8
0
 10
180.312
 11
180.5
 20
73.79
 21
73.8
  0
LINE
  8
0
 10
180.5
 11
180.688
 20
73.8
 21
73.79
  0
LINE
  8
0
 10
180.688
 11
180.874
 20
73.79
 21
73.761
  0
LINE
  8
0
 10
180.874
 11
181.056
 20
73.761
 21
73.712
  0
LINE
  8
0
 10
181.056
 11
181.232
 20
73.712
 21
73.644
  0
LINE
  8
0
 10
181.232
 11
181.4
 20
73.644
 21
73.559
  0
LINE
  8
0
 10
181.4
 11
181.558
 20
73.559
 21
73.456
  0
LINE
  8
0
 10
181.558
 11
181.704
 20
73.456
 21
73.338
  0
LINE
  8
0
 10
181.704
 11
181.838
 20
73.338
 21
73.204
  0
LINE
  8
0
 10
181.838
 11
181.956
 20
73.204
 21
73.058
  0
LINE
  8
0
 10
181.956
 11
182.059
 20
73.058
 21
72.9
  0
LINE
  8
0
 10
182.059
 11
182.144
 20
72.9
 21
72.732
  0
LINE
  8
0
 10
182.144
 11
182.212
 20
72.732
 21
72.556
  0
LINE
  8
0
 10
182.212
 11
182.261
 20
72.556
 21
72.374
  0
LINE
  8
0
 10
182.261
 11
182.29
 20
72.374
 21
72.188
  0
LINE
  8
0
 10
182.29
 11
182.3
 20
72.188
 21
72
  0
LINE
  8
0
 10
182.3
 11
182.29
 20
72
 21
71.812
  0
LINE
  8
0
 10
182.29
 11
182.261
 20
71.812
 21
71.626
  0
LINE
  8
0
 10
182.261
 11
182.212
 20
71.626
 21
71.444
  0
LINE
  8
0
 10
182.212
 11
182.144
 20
71.444
 21
71.268
  0
LINE
  8
0
 10
182.144
 11
182.059
 20
71.268
 21
71.1
  0
LINE
  8
0
 10
182.059
 11
181.956
 20
71.1
 21
70.942
  0
LINE
  8
0
 10
181.956
 11
181.838
 20
70.942
 21
70.796
  0
LINE
  8
0
 10
181.838
 11
181.704
 20
70.796
 21
70.662
  0
LINE
  8
0
 10
181.704
 11
181.558
 20
70.662
 21
70.544
  0
LINE
  8
0
 10
181.558
 11
181.4
 20
70.544
 21
70.441
  0
LINE
  8
0
 10
181.4
 11
181.232
 20
70.441
 21
70.356
  0
LINE
  8
0
 10
181.232
 11
181.056
 20
70.356
 21
70.288
  0
LINE
  8
0
 10
181.056
 11
180.874
 20
70.288
 21
70.239
  0
LINE
  8
0
 10
180.874
 11
180.688
 20
70.239
 21
70.21
  0
LINE
  8
0
 10
180.688
 11
180.5
 20
70.21
 21
70.2
  0
LINE
  8
0
 10
180.5
 11
180.312
 20
70.2
 21
70.21
  0
LINE
  8
0
 10
180.312
 11
180.126
 20
70.21
 21
70.239
  0
LINE
  8
0
 10
180.126
 11
179.944
 20
70.239
 21
70.288
  0
LINE
  8
0
 10
179.944
 11
179.768
 20
70.288
 21
70.356
  0
LINE
  8
0
 10
179.768
 11
179.6
 20
70.356
 21
70.441
  0
LINE
  8
0
 10
179.6
 11
179.442
 20
70.441
 21
70.544
  0
LINE
  8
0
 10
179.442
 11
179.296
 20
70.544
 21
70.662
  0
LINE
  8
0
 10
179.296
 11
179.162
 20
70.662
 21
70.796
  0
LINE
  8
0
 10
179.162
 11
179.044
 20
70.796
 21
70.942
  0
LINE
  8
0
 10
179.044
 11
178.941
 20
70.942
 21
71.1
  0
LINE
  8
0
 10
178.941
 11
178.856
 20
71.1
 21
71.268
  0
LINE
  8
0
 10
178.856
 11
178.788
 20
71.268
 21
71.444
  0
LINE
  8
0
 10
178.788
 11
178.739
 20
71.444
 21
71.626
  0
LINE
  8
0
 10
178.739
 11
178.71
 20
71.626
 21
71.812
  0
LINE
  8
0
 10
178.71
 11
178.7
 20
71.812
 21
72
  0
LINE
  8
0
 10
205.45
 11
205.46
 20
72
 21
72.188
  0
LINE
  8
0
 10
205.46
 11
205.489
 20
72.188
 21
72.374
  0
LINE
  8
0
 10
205.489
 11
205.538
 20
72.374
 21
72.556
  0
LINE
  8
0
 10
205.538
 11
205.606
 20
72.556
 21
72.732
  0
LINE
  8
0
 10
205.606
 11
205.691
 20
72.732
 21
72.9
  0
LINE
  8
0
 10
205.691
 11
205.794
 20
72.9
 21
73.058
  0
LINE
  8
0
 10
205.794
 11
205.912
 20
73.058
 21
73.204
  0
LINE
  8
0
 10
205.912
 11
206.046
 20
73.204
 21
73.338
  0
LINE
  8
0
 10
206.046
 11
206.192
 20
73.338
 21
73.456
  0
LINE
  8
0
 10
206.192
 11
206.35
 20
73.456
 21
73.559
  0
LINE
  8
0
 10
206.35
 11
206.518
 20
73.559
 21
73.644
  0
LINE
  8
0
 10
206.518
 11
206.694
 20
73.644
 21
73.712
  0
LINE
  8
0
 10
206.694
 11
206.876
 20
73.712
 21
73.761
  0
LINE
  8
0
 10
206.876
 11
207.062
 20
73.761
 21
73.79
  0
LINE
  8
0
 10
207.062
 11
207.25
 20
73.79
 21
73.8
  0
LINE
  8
0
 10
207.25
 11
207.438
 20
73.8
 21
73.79
  0
LINE
  8
0
 10
207.438
 11
207.624
 20
73.79
 21
73.761
  0
LINE
  8
0
 10
207.624
 11
207.806
 20
73.761
 21
73.712
  0
LINE
  8
0
 10
207.806
 11
207.982
 20
73.712
 21
73.644
  0
LINE
  8
0
 10
207.982
 11
208.15
 20
73.644
 21
73.559
  0
LINE
  8
0
 10
208.15
 11
208.308
 20
73.559
 21
73.456
  0
LINE
  8
0
 10
208.308
 11
208.454
 20
73.456
 21
73.338
  0
LINE
  8
0
 10
208.454
 11
208.588
 20
73.338
 21
73.204
  0
LINE
  8
0
 10
208.588
 11
208.706
 20
73.204
 21
73.058
  0
LINE
  8
0
 10
208.706
 11
208.809
 20
73.058
 21
72.9
  0
LINE
  8
0
 10
208.809
 11
208.894
 20
72.9
 21
72.732
  0
LINE
  8
0
 10
208.894
 11
208.962
 20
72.732
 21
72.556
  0
LINE
  8
0
 10
208.962
 11
209.011
 20
72.556
 21
72.374
  0
LINE
  8
0
 10
209.011
 11
209.04
 20
72.374
 21
72.188
  0
LINE
  8
0
 10
209.04
 11
209.05
 20
72.188
 21
72
  0
LINE
  8
0
 10
209.05
 11
209.04
 20
72
 21
71.812
  0
LINE
  8
0
 10
209.04
 11
209.011
 20
71.812
 21
71.626
  0
LINE
  8
0
 10
209.011
 11
208.962
 20
71.626
 21
71.444
  0
LINE
  8
0
 10
208.962
 11
208.894
 20
71.444
 21
71.268
  0
LINE
  8
0
 10
208.894
 11
208.809
 20
71.268
 21
71.1
  0
LINE
  8
0
 10
208.809
 11
208.706
 20
71.1
 21
70.942
  0
LINE
  8
0
 10
208.706
 11
208.588
 20
70.942
 21
70.796
  0
LINE
  8
0
 10
208.588
 11
208.454
 20
70.796
 21
70.662
  0
LINE
  8
0
 10
208.454
 11
208.308
 20
70.662
 21
70.544
  0
LINE
  8
0
 10
208.308
 11
208.15
 20
70.544
 21
70.441
  0
LINE
  8
0
 10
208.15
 11
207.982
 20
70.441
 21
70.356
  0
LINE
  8
0
 10
207.982
 11
207.806
 20
70.356
 21
70.288
  0
LINE
  8
0
 10
207.806
 11
207.624
 20
70.288
 21
70.239
  0
LINE
  8
0
 10
207.624
 11
207.438
 20
70.239
 21
70.21
  0
LINE
  8
0
 10
207.438
 11
207.25
 20
70.21
 21
70.2
  0
LINE
  8
0
 10
207.25
 11
207.062
 20
70.2
 21
70.21
  0
LINE
  8
0
 10
207.062
 11
206.876
 20
70.21
 21
70.239
  0
LINE
  8
0
 10
206.876
 11
206.694
 20
70.239
 21
70.288
  0
LINE
  8
0
 10
206.694
 11
206.518
 20
70.288
 21
70.356
  0
LINE
  8
0
 10
206.518
 11
206.35
 20
70.356
 21
70.441
  0
LINE
  8
0
 10
206.35
 11
206.192
 20
70.441
 21
70.544
  0
LINE
  8
0
 10
206.192
 11
206.046
 20
70.544
 21
70.662
  0
LINE
  8
0
 10
206.046
 11
205.912
 20
70.662
 21
70.796
  0
LINE
  8
0
 10
205.912
 11
205.794
 20
70.796
 21
70.942
  0
LINE
  8
0
 10
205.794
 11
205.691
 20
70.942
 21
71.1
  0
LINE
  8
0
 10
205.691
 11
205.606
 20
71.1
 21
71.268
  0
LINE
  8
0
 10
205.606
 11
205.538
 20
71.268
 21
71.444
  0
LINE
  8
0
 10
205.538
 11
205.489
 20
71.444
 21
71.626
  0
LINE
  8
0
 10
205.489
 11
205.46
 20
71.626
 21
71.812
  0
LINE
  8
0
 10
205.46
 11
205.45
 20
71.812
 21
72
  0
LINE
  8
0
 10
232.2
 11
232.21
 20
72
 21
72.188
  0
LINE
  8
0
 10
232.21
 11
232.239
 20
72.188
 21
72.374
  0
LINE
  8
0
 10
232.239
 11
232.288
 20
72.374
 21
72.556
  0
LINE
  8
0
 10
232.288
 11
232.356
 20
72.556
 21
72.732
  0
LINE
  8
0
 10
232.356
 11
232.441
 20
72.732
 21
72.9
  0
LINE
  8
0
 10
232.441
 11
232.544
 20
72.9
 21
73.058
  0
LINE
  8
0
 10
232.544
 11
232.662
 20
73.058
 21
73.204
  0
LINE
  8
0
 10
232.662
 11
232.796
 20
73.204
 21
73.338
  0
LINE
  8
0
 10
232.796
 11
232.942
 20
73.338
 21
73.456
  0
LINE
  8
0
 10
232.942
 11
233.1
 20
73.456
 21
73.559
  0
LINE
  8
0
 10
233.1
 11
233.268
 20
73.559
 21
73.644
  0
LINE
  8
0
 10
233.268
 11
233.444
 20
73.644
 21
73.712
  0
LINE
  8
0
 10
233.444
 11
233.626
 20
73.712
 21
73.761
  0
LINE
  8
0
 10
233.626
 11
233.812
 20
73.761
 21
73.79
  0
LINE
  8
0
 10
233.812
 11
234
 20
73.79
 21
73.8
  0
LINE
  8
0
 10
234
 11
234.188
 20
73.8
 21
73.79
  0
LINE
  8
0
 10
234.188
 11
234.374
 20
73.79
 21
73.761
  0
LINE
  8
0
 10
234.374
 11
234.556
 20
73.761
 21
73.712
  0
LINE
  8
0
 10
234.556
 11
234.732
 20
73.712
 21
73.644
  0
LINE
  8
0
 10
234.732
 11
234.9
 20
73.644
 21
73.559
  0
LINE
  8
0
 10
234.9
 11
235.058
 20
73.559
 21
73.456
  0
LINE
  8
0
 10
235.058
 11
235.204
 20
73.456
 21
73.338
  0
LINE
  8
0
 10
235.204
 11
235.338
 20
73.338
 21
73.204
  0
LINE
  8
0
 10
235.338
 11
235.456
 20
73.204
 21
73.058
  0
LINE
  8
0
 10
235.456
 11
235.559
 20
73.058
 21
72.9
  0
LINE
  8
0
 10
235.559
 11
235.644
 20
72.9
 21
72.732
  0
LINE
  8
0
 10
235.644
 11
235.712
 20
72.732
 21
72.556
  0
LINE
  8
0
 10
235.712
 11
235.761
 20
72.556
 21
72.374
  0
LINE
  8
0
 10
235.761
 11
235.79
 20
72.374
 21
72.188
  0
LINE
  8
0
 10
235.79
 11
235.8
 20
72.188
 21
72
  0
LINE
  8
0
 10
235.8
 11
235.79
 20
72
 21
71.812
  0
LINE
  8
0
 10
235.79
 11
235.761
 20
71.812
 21
71.626
  0
LINE
  8
0
 10
235.761
 11
235.712
 20
71.626
 21
71.444
  0
LINE
  8
0
 10
235.712
 11
235.644
 20
71.444
 21
71.268
  0
LINE
  8
0
 10
235.644
 11
235.559
 20
71.268
 21
71.1
  0
LINE
  8
0
 10
235.559
 11
235.456
 20
71.1
 21
70.942
  0
LINE
  8
0
 10
235.456
 11
235.338
 20
70.942
 21
70.796
  0
LINE
  8
0
 10
235.338
 11
235.204
 20
70.796
 21
70.662
  0
LINE
  8
0
 10
235.204
 11
235.058
 20
70.662
 21
70.544
  0
LINE
  8
0
 10
235.058
 11
234.9
 20
70.544
 21
70.441
  0
LINE
  8
0
 10
234.9
 11
234.732
 20
70.441
 21
70.356
  0
LINE
  8
0
 10
234.732
 11
234.556
 20
70.356
 21
70.288
  0
LINE
  8
0
 10
234.556
 11
234.374
 20
70.288
 21
70.239
  0
LINE
  8
0
 10
234.374
 11
234.188
 20
70.239
 21
70.21
  0
LINE
  8
0
 10
234.188
 11
234
 20
70.21
 21
70.2
  0
LINE
  8
0
 10
234
 11
233.812
 20
70.2
 21
70.21
  0
LINE
  8
0
 10
233.812
 11
233.626
 20
70.21
 21
70.239
  0
LINE
  8
0
 10
233.626
 11
233.444
 20
70.239
 21
70.288
  0
LINE
  8
0
 10
233.444
 11
233.268
 20
70.288
 21
70.356
  0
LINE
  8
0
 10
233.268
 11
233.1
 20
70.356
 21
70.441
  0
LINE
  8
0
 10
233.1
 11
232.942
 20
70.441
 21
70.544
  0
LINE
  8
0
 10
232.942
 11
232.796
 20
70.544
 21
70.662
  0
LINE
  8
0
 10
232.796
 11
232.662
 20
70.662
 21
70.796
  0
LINE
  8
0
 10
232.662
 11
232.544
 20
70.796
 21
70.942
  0
LINE
  8
0
 10
232.544
 11
232.441
 20
70.942
 21
71.1
  0
LINE
  8
0
 10
232.441
 11
232.356
 20
71.1
 21
71.268
  0
LINE
  8
0
 10
232.356
 11
232.288
 20
71.268
 21
71.444
  0
LINE
  8
0
 10
232.288
 11
232.239
 20
71.444
 21
71.626
  0
LINE
  8
0
 10
232.239
 11
232.21
 20
71.626
 21
71.812
  0
LINE
  8
0
 10
232.21
 11
232.2
 20
71.812
 21
72
  0
LINE
  8
0
 10
256.45
 11
256.45
 20
14.95
 21
25.05
  0
LINE
  8
0
 10
256.45
 11
261.55
 20
25.05
 21
25.05
  0
LINE
  8
0
 10
261.55
 11
261.55
 20
25.05
 21
14.95
  0
LINE
  8
0
 10
261.55
 11
256.45
 20
14.95
 21
14.95
  0
LINE
  8
0
 10
256.45
 11
256.45
 20
54.95
 21
65.05
  0
LINE
  8
0
 10
256.45
 11
261.55
 20
65.05
 21
65.05
  0
LINE
  8
0
 10
261.55
 11
261.55
 20
65.05
 21
54.95
  0
LINE
  8
0
 10
261.55
 11
256.45
 20
54.95
 21
54.95
  0
LINE
  8
0
 10
257.2
 11
257.21
 20
40
 21
40.188
  0
LINE
  8
0
 10
257.21
 11
257.239
 20
40.188
 21
40.374
  0
LINE
  8
0
 10
257.239
 11
257.288
 20
40.374
 21
40.556
  0
LINE
  8
0
 10
257.288
 11
257.356
 20
40.556
 21
40.732
  0
LINE
  8
0
 10
257.356
 11
257.441
 20
40.732
 21
40.9
  0
LINE
  8
0
 10
257.441
 11
257.544
 20
40.9
 21
41.058
  0
LINE
  8
0
 10
257.544
 11
257.662
 20
41.058
 21
41.204
  0
LINE
  8
0
 10
257.662
 11
257.796
 20
41.204
 21
41.338
  0
LINE
  8
0
 10
257.796
 11
257.942
 20
41.338
 21
41.456
  0
LINE
  8
0
 10
257.942
 11
258.1
 20
41.456
 21
41.559
  0
LINE
  8
0
 10
258.1
 11
258.268
 20
41.559
 21
41.644
  0
LINE
  8
0
 10
258.268
 11
258.444
 20
41.644
 21
41.712
  0
LINE
  8
0
 10
258.444
 11
258.626
 20
41.712
 21
41.761
  0
LINE
  8
0
 10
258.626
 11
258.812
 20
41.761
 21
41.79
  0
LINE
  8
0
 10
258.812
 11
259
 20
41.79
 21
41.8
  0
LINE
  8
0
 10
259
 11
259.188
 20
41.8
 21
41.79
  0
LINE
  8
0
 10
259.188
 11
259.374
 20
41.79
 21
41.761
  0
LINE
  8
0
 10
259.374
 11
259.556
 20
41.761
 21
41.712
  0
LINE
  8
0
 10
259.556
 11
259.732
 20
41.712
 21
41.644
  0
LINE
  8
0
 10
259.732
 11
259.9
 20
41.644
 21
41.559
  0
LINE
  8
0
 10
259.9
 11
260.058
 20
41.559
 21
41.456
  0
LINE
  8
0
 10
260.058
 11
260.204
 20
41.456
 21
41.338
  0
LINE
  8
0
 10
260.204
 11
260.338
 20
41.338
 21
41.204
  0
LINE
  8
0
 10
260.338
 11
260.456
 20
41.204
 21
41.058
  0
LINE
  8
0
 10
260.456
 11
260.559
 20
41.058
 21
40.9
  0
LINE
  8
0
 10
260.559
 11
260.644
 20
40.9
 21
40.732
  0
LINE
  8
0
 10
260.644
 11
260.712
 20
40.732
 21
40.556
  0
LINE
  8
0
 10
260.712
 11
260.761
 20
40.556
 21
40.374
  0
LINE
  8
0
 10
260.761
 11
260.79
 20
40.374
 21
40.188
  0
LINE
  8
0
 10
260.79
 11
260.8
 20
40.188
 21
40
  0
LINE
  8
0
 10
260.8
 11
260.79
 20
40
 21
39.812
  0
LINE
  8
0
 10
260.79
 11
260.761
 20
39.812
 21
39.626
  0
LINE
  8
0
 10
260.761
 11
260.712
 20
39.626
 21
39.444
  0
LINE
  8
0
 10
260.712
 11
260.644
 20
39.444
 21
39.268
  0
LINE
  8
0
 10
260.644
 11
260.559
 20
39.268
 21
39.1
  0
LINE
  8
0
 10
260.559
 11
260.456
 20
39.1
 21
38.942
  0
LINE
  8
0
 10
260.456
 11
260.338
 20
38.942
 21
38.796
  0
LINE
  8
0
 10
260.338
 11
260.204
 20
38.796
 21
38.662
  0
LINE
  8
0
 10
260.204
 11
260.058
 20
38.662
 21
38.544
  0
LINE
  8
0
 10
260.058
 11
259.9
 20
38.544
 21
38.441
  0
LINE
  8
0
 10
259.9
 11
259.732
 20
38.441
 21
38.356
  0
LINE
  8
0
 10
259.732
 11
259.556
 20
38.356
 21
38.288
  0
LINE
  8
0
 10
259.556
 11
259.374
 20
38.288
 21
38.239
  0
LINE
  8
0
 10
259.374
 11
259.188
 20
38.239
 21
38.21
  0
LINE
  8
0
 10
259.188
 11
259
 20
38.21
 21
38.2
  0
LINE
  8
0
 10
259
 11
258.812
 20
38.2
 21
38.21
  0
LINE
  8
0
 10
258.812
 11
258.626
 20
38.21
 21
38.239
  0
LINE
  8
0
 10
258.626
 11
258.444
 20
38.239
 21
38.288
  0
LINE
  8
0
 10
258.444
 11
258.268
 20
38.288
 21
38.356
  0
LINE
  8
0
 10
258.268
 11
258.1
 20
38.356
 21
38.441
  0
LINE
  8
0
 10
258.1
 11
257.942
 20
38.441
 21
38.544
  0
LINE
  8
0
 10
257.942
 11
257.796
 20
38.544
 21
38.662
  0
LINE
  8
0
 10
257.796
 11
257.662
 20
38.662
 21
38.796
  0
LINE
  8
0
 10
257.662
 11
257.544
 20
38.796
 21
38.942
  0
LINE
  8
0
 10
257.544
 11
257.441
 20
38.942
 21
39.1
  0
LINE
  8
0
 10
257.441
 11
257.356
 20
39.1
 21
39.268
  0
LINE
  8
0
 10
257.356
 11
257.288
 20
39.268
 21
39.444
  0
LINE
  8
0
 10
257.288
 11
257.239
 20
39.444
 21
39.626
  0
LINE
  8
0
 10
257.239
 11
257.21
 20
39.626
 21
39.812
  0
LINE
  8
0
 10
257.21
 11
257.2
 20
39.812
 21
40
  0
ENDSEC
  0
SECTION
  2
OBJECTS
  0
DICTIONARY
  0
ENDSEC
  0
EOF
