  0
SECTION
  2
BLOCKS
  0
ENDSEC
  0
SECTION
  2
ENTITIES
  0
LINE
  8
0
 10
3.2
 11
3.21
 20
5
 21
5.188
  0
LINE
  8
0
 10
3.21
 11
3.239
 20
5.188
 21
5.374
  0
LINE
  8
0
 10
3.239
 11
3.288
 20
5.374
 21
5.556
  0
LINE
  8
0
 10
3.288
 11
3.356
 20
5.556
 21
5.732
  0
LINE
  8
0
 10
3.356
 11
3.441
 20
5.732
 21
5.9
  0
LINE
  8
0
 10
3.441
 11
3.544
 20
5.9
 21
6.058
  0
LINE
  8
0
 10
3.544
 11
3.662
 20
6.058
 21
6.204
  0
LINE
  8
0
 10
3.662
 11
3.796
 20
6.204
 21
6.338
  0
LINE
  8
0
 10
3.796
 11
3.942
 20
6.338
 21
6.456
  0
LINE
  8
0
 10
3.942
 11
4.1
 20
6.456
 21
6.559
  0
LINE
  8
0
 10
4.1
 11
4.268
 20
6.559
 21
6.644
  0
LINE
  8
0
 10
4.268
 11
4.444
 20
6.644
 21
6.712
  0
LINE
  8
0
 10
4.444
 11
4.626
 20
6.712
 21
6.761
  0
LINE
  8
0
 10
4.626
 11
4.812
 20
6.761
 21
6.79
  0
LINE
  8
0
 10
4.812
 11
5
 20
6.79
 21
6.8
  0
LINE
  8
0
 10
5
 11
5.188
 20
6.8
 21
6.79
  0
LINE
  8
0
 10
5.188
 11
5.374
 20
6.79
 21
6.761
  0
LINE
  8
0
 10
5.374
 11
5.556
 20
6.761
 21
6.712
  0
LINE
  8
0
 10
5.556
 11
5.732
 20
6.712
 21
6.644
  0
LINE
  8
0
 10
5.732
 11
5.9
 20
6.644
 21
6.559
  0
LINE
  8
0
 10
5.9
 11
6.058
 20
6.559
 21
6.456
  0
LINE
  8
0
 10
6.058
 11
6.204
 20
6.456
 21
6.338
  0
LINE
  8
0
 10
6.204
 11
6.338
 20
6.338
 21
6.204
  0
LINE
  8
0
 10
6.338
 11
6.456
 20
6.204
 21
6.058
  0
LINE
  8
0
 10
6.456
 11
6.559
 20
6.058
 21
5.9
  0
LINE
  8
0
 10
6.559
 11
6.644
 20
5.9
 21
5.732
  0
LINE
  8
0
 10
6.644
 11
6.712
 20
5.732
 21
5.556
  0
LINE
  8
0
 10
6.712
 11
6.761
 20
5.556
 21
5.374
  0
LINE
  8
0
 10
6.761
 11
6.79
 20
5.374
 21
5.188
  0
LINE
  8
0
 10
6.79
 11
6.8
 20
5.188
 21
5
  0
LINE
  8
0
 10
6.8
 11
6.79
 20
5
 21
4.812
  0
LINE
  8
0
 10
6.79
 11
6.761
 20
4.812
 21
4.626
  0
LINE
  8
0
 10
6.761
 11
6.712
 20
4.626
 21
4.444
  0
LINE
  8
0
 10
6.712
 11
6.644
 20
4.444
 21
4.268
  0
LINE
  8
0
 10
6.644
 11
6.559
 20
4.268
 21
4.1
  0
LINE
  8
0
 10
6.559
 11
6.456
 20
4.1
 21
3.942
  0
LINE
  8
0
 10
6.456
 11
6.338
 20
3.942
 21
3.796
  0
LINE
  8
0
 10
6.338
 11
6.204
 20
3.796
 21
3.662
  0
LINE
  8
0
 10
6.204
 11
6.058
 20
3.662
 21
3.544
  0
LINE
  8
0
 10
6.058
 11
5.9
 20
3.544
 21
3.441
  0
LINE
  8
0
 10
5.9
 11
5.732
 20
3.441
 21
3.356
  0
LINE
  8
0
 10
5.732
 11
5.556
 20
3.356
 21
3.288
  0
LINE
  8
0
 10
5.556
 11
5.374
 20
3.288
 21
3.239
  0
LINE
  8
0
 10
5.374
 11
5.188
 20
3.239
 21
3.21
  0
LINE
  8
0
 10
5.188
 11
5
 20
3.21
 21
3.2
  0
LINE
  8
0
 10
5
 11
4.812
 20
3.2
 21
3.21
  0
LINE
  8
0
 10
4.812
 11
4.626
 20
3.21
 21
3.239
  0
LINE
  8
0
 10
4.626
 11
4.444
 20
3.239
 21
3.288
  0
LINE
  8
0
 10
4.444
 11
4.268
 20
3.288
 21
3.356
  0
LINE
  8
0
 10
4.268
 11
4.1
 20
3.356
 21
3.441
  0
LINE
  8
0
 10
4.1
 11
3.942
 20
3.441
 21
3.544
  0
LINE
  8
0
 10
3.942
 11
3.796
 20
3.544
 21
3.662
  0
LINE
  8
0
 10
3.796
 11
3.662
 20
3.662
 21
3.796
  0
LINE
  8
0
 10
3.662
 11
3.544
 20
3.796
 21
3.942
  0
LINE
  8
0
 10
3.544
 11
3.441
 20
3.942
 21
4.1
  0
LINE
  8
0
 10
3.441
 11
3.356
 20
4.1
 21
4.268
  0
LINE
  8
0
 10
3.356
 11
3.288
 20
4.268
 21
4.444
  0
LINE
  8
0
 10
3.288
 11
3.239
 20
4.444
 21
4.626
  0
LINE
  8
0
 10
3.239
 11
3.21
 20
4.626
 21
4.812
  0
LINE
  8
0
 10
3.21
 11
3.2
 20
4.812
 21
5
  0
LINE
  8
0
 10
3.2
 11
3.21
 20
215
 21
215.188
  0
LINE
  8
0
 10
3.21
 11
3.239
 20
215.188
 21
215.374
  0
LINE
  8
0
 10
3.239
 11
3.288
 20
215.374
 21
215.556
  0
LINE
  8
0
 10
3.288
 11
3.356
 20
215.556
 21
215.732
  0
LINE
  8
0
 10
3.356
 11
3.441
 20
215.732
 21
215.9
  0
LINE
  8
0
 10
3.441
 11
3.544
 20
215.9
 21
216.058
  0
LINE
  8
0
 10
3.544
 11
3.662
 20
216.058
 21
216.204
  0
LINE
  8
0
 10
3.662
 11
3.796
 20
216.204
 21
216.338
  0
LINE
  8
0
 10
3.796
 11
3.942
 20
216.338
 21
216.456
  0
LINE
  8
0
 10
3.942
 11
4.1
 20
216.456
 21
216.559
  0
LINE
  8
0
 10
4.1
 11
4.268
 20
216.559
 21
216.644
  0
LINE
  8
0
 10
4.268
 11
4.444
 20
216.644
 21
216.712
  0
LINE
  8
0
 10
4.444
 11
4.626
 20
216.712
 21
216.761
  0
LINE
  8
0
 10
4.626
 11
4.812
 20
216.761
 21
216.79
  0
LINE
  8
0
 10
4.812
 11
5
 20
216.79
 21
216.8
  0
LINE
  8
0
 10
5
 11
5.188
 20
216.8
 21
216.79
  0
LINE
  8
0
 10
5.188
 11
5.374
 20
216.79
 21
216.761
  0
LINE
  8
0
 10
5.374
 11
5.556
 20
216.761
 21
216.712
  0
LINE
  8
0
 10
5.556
 11
5.732
 20
216.712
 21
216.644
  0
LINE
  8
0
 10
5.732
 11
5.9
 20
216.644
 21
216.559
  0
LINE
  8
0
 10
5.9
 11
6.058
 20
216.559
 21
216.456
  0
LINE
  8
0
 10
6.058
 11
6.204
 20
216.456
 21
216.338
  0
LINE
  8
0
 10
6.204
 11
6.338
 20
216.338
 21
216.204
  0
LINE
  8
0
 10
6.338
 11
6.456
 20
216.204
 21
216.058
  0
LINE
  8
0
 10
6.456
 11
6.559
 20
216.058
 21
215.9
  0
LINE
  8
0
 10
6.559
 11
6.644
 20
215.9
 21
215.732
  0
LINE
  8
0
 10
6.644
 11
6.712
 20
215.732
 21
215.556
  0
LINE
  8
0
 10
6.712
 11
6.761
 20
215.556
 21
215.374
  0
LINE
  8
0
 10
6.761
 11
6.79
 20
215.374
 21
215.188
  0
LINE
  8
0
 10
6.79
 11
6.8
 20
215.188
 21
215
  0
LINE
  8
0
 10
6.8
 11
6.79
 20
215
 21
214.812
  0
LINE
  8
0
 10
6.79
 11
6.761
 20
214.812
 21
214.626
  0
LINE
  8
0
 10
6.761
 11
6.712
 20
214.626
 21
214.444
  0
LINE
  8
0
 10
6.712
 11
6.644
 20
214.444
 21
214.268
  0
LINE
  8
0
 10
6.644
 11
6.559
 20
214.268
 21
214.1
  0
LINE
  8
0
 10
6.559
 11
6.456
 20
214.1
 21
213.942
  0
LINE
  8
0
 10
6.456
 11
6.338
 20
213.942
 21
213.796
  0
LINE
  8
0
 10
6.338
 11
6.204
 20
213.796
 21
213.662
  0
LINE
  8
0
 10
6.204
 11
6.058
 20
213.662
 21
213.544
  0
LINE
  8
0
 10
6.058
 11
5.9
 20
213.544
 21
213.441
  0
LINE
  8
0
 10
5.9
 11
5.732
 20
213.441
 21
213.356
  0
LINE
  8
0
 10
5.732
 11
5.556
 20
213.356
 21
213.288
  0
LINE
  8
0
 10
5.556
 11
5.374
 20
213.288
 21
213.239
  0
LINE
  8
0
 10
5.374
 11
5.188
 20
213.239
 21
213.21
  0
LINE
  8
0
 10
5.188
 11
5
 20
213.21
 21
213.2
  0
LINE
  8
0
 10
5
 11
4.812
 20
213.2
 21
213.21
  0
LINE
  8
0
 10
4.812
 11
4.626
 20
213.21
 21
213.239
  0
LINE
  8
0
 10
4.626
 11
4.444
 20
213.239
 21
213.288
  0
LINE
  8
0
 10
4.444
 11
4.268
 20
213.288
 21
213.356
  0
LINE
  8
0
 10
4.268
 11
4.1
 20
213.356
 21
213.441
  0
LINE
  8
0
 10
4.1
 11
3.942
 20
213.441
 21
213.544
  0
LINE
  8
0
 10
3.942
 11
3.796
 20
213.544
 21
213.662
  0
LINE
  8
0
 10
3.796
 11
3.662
 20
213.662
 21
213.796
  0
LINE
  8
0
 10
3.662
 11
3.544
 20
213.796
 21
213.942
  0
LINE
  8
0
 10
3.544
 11
3.441
 20
213.942
 21
214.1
  0
LINE
  8
0
 10
3.441
 11
3.356
 20
214.1
 21
214.268
  0
LINE
  8
0
 10
3.356
 11
3.288
 20
214.268
 21
214.444
  0
LINE
  8
0
 10
3.288
 11
3.239
 20
214.444
 21
214.626
  0
LINE
  8
0
 10
3.239
 11
3.21
 20
214.626
 21
214.812
  0
LINE
  8
0
 10
3.21
 11
3.2
 20
214.812
 21
215
  0
LINE
  8
0
 10
24.2
 11
24.21
 20
60
 21
60.188
  0
LINE
  8
0
 10
24.21
 11
24.239
 20
60.188
 21
60.374
  0
LINE
  8
0
 10
24.239
 11
24.288
 20
60.374
 21
60.556
  0
LINE
  8
0
 10
24.288
 11
24.356
 20
60.556
 21
60.732
  0
LINE
  8
0
 10
24.356
 11
24.441
 20
60.732
 21
60.9
  0
LINE
  8
0
 10
24.441
 11
24.544
 20
60.9
 21
61.058
  0
LINE
  8
0
 10
24.544
 11
24.662
 20
61.058
 21
61.204
  0
LINE
  8
0
 10
24.662
 11
24.796
 20
61.204
 21
61.338
  0
LINE
  8
0
 10
24.796
 11
24.942
 20
61.338
 21
61.456
  0
LINE
  8
0
 10
24.942
 11
25.1
 20
61.456
 21
61.559
  0
LINE
  8
0
 10
25.1
 11
25.268
 20
61.559
 21
61.644
  0
LINE
  8
0
 10
25.268
 11
25.444
 20
61.644
 21
61.712
  0
LINE
  8
0
 10
25.444
 11
25.626
 20
61.712
 21
61.761
  0
LINE
  8
0
 10
25.626
 11
25.812
 20
61.761
 21
61.79
  0
LINE
  8
0
 10
25.812
 11
26
 20
61.79
 21
61.8
  0
LINE
  8
0
 10
26
 11
26.188
 20
61.8
 21
61.79
  0
LINE
  8
0
 10
26.188
 11
26.374
 20
61.79
 21
61.761
  0
LINE
  8
0
 10
26.374
 11
26.556
 20
61.761
 21
61.712
  0
LINE
  8
0
 10
26.556
 11
26.732
 20
61.712
 21
61.644
  0
LINE
  8
0
 10
26.732
 11
26.9
 20
61.644
 21
61.559
  0
LINE
  8
0
 10
26.9
 11
27.058
 20
61.559
 21
61.456
  0
LINE
  8
0
 10
27.058
 11
27.204
 20
61.456
 21
61.338
  0
LINE
  8
0
 10
27.204
 11
27.338
 20
61.338
 21
61.204
  0
LINE
  8
0
 10
27.338
 11
27.456
 20
61.204
 21
61.058
  0
LINE
  8
0
 10
27.456
 11
27.559
 20
61.058
 21
60.9
  0
LINE
  8
0
 10
27.559
 11
27.644
 20
60.9
 21
60.732
  0
LINE
  8
0
 10
27.644
 11
27.712
 20
60.732
 21
60.556
  0
LINE
  8
0
 10
27.712
 11
27.761
 20
60.556
 21
60.374
  0
LINE
  8
0
 10
27.761
 11
27.79
 20
60.374
 21
60.188
  0
LINE
  8
0
 10
27.79
 11
27.8
 20
60.188
 21
60
  0
LINE
  8
0
 10
27.8
 11
27.79
 20
60
 21
59.812
  0
LINE
  8
0
 10
27.79
 11
27.761
 20
59.812
 21
59.626
  0
LINE
  8
0
 10
27.761
 11
27.712
 20
59.626
 21
59.444
  0
LINE
  8
0
 10
27.712
 11
27.644
 20
59.444
 21
59.268
  0
LINE
  8
0
 10
27.644
 11
27.559
 20
59.268
 21
59.1
  0
LINE
  8
0
 10
27.559
 11
27.456
 20
59.1
 21
58.942
  0
LINE
  8
0
 10
27.456
 11
27.338
 20
58.942
 21
58.796
  0
LINE
  8
0
 10
27.338
 11
27.204
 20
58.796
 21
58.662
  0
LINE
  8
0
 10
27.204
 11
27.058
 20
58.662
 21
58.544
  0
LINE
  8
0
 10
27.058
 11
26.9
 20
58.544
 21
58.441
  0
LINE
  8
0
 10
26.9
 11
26.732
 20
58.441
 21
58.356
  0
LINE
  8
0
 10
26.732
 11
26.556
 20
58.356
 21
58.288
  0
LINE
  8
0
 10
26.556
 11
26.374
 20
58.288
 21
58.239
  0
LINE
  8
0
 10
26.374
 11
26.188
 20
58.239
 21
58.21
  0
LINE
  8
0
 10
26.188
 11
26
 20
58.21
 21
58.2
  0
LINE
  8
0
 10
26
 11
25.812
 20
58.2
 21
58.21
  0
LINE
  8
0
 10
25.812
 11
25.626
 20
58.21
 21
58.239
  0
LINE
  8
0
 10
25.626
 11
25.444
 20
58.239
 21
58.288
  0
LINE
  8
0
 10
25.444
 11
25.268
 20
58.288
 21
58.356
  0
LINE
  8
0
 10
25.268
 11
25.1
 20
58.356
 21
58.441
  0
LINE
  8
0
 10
25.1
 11
24.942
 20
58.441
 21
58.544
  0
LINE
  8
0
 10
24.942
 11
24.796
 20
58.544
 21
58.662
  0
LINE
  8
0
 10
24.796
 11
24.662
 20
58.662
 21
58.796
  0
LINE
  8
0
 10
24.662
 11
24.544
 20
58.796
 21
58.942
  0
LINE
  8
0
 10
24.544
 11
24.441
 20
58.942
 21
59.1
  0
LINE
  8
0
 10
24.441
 11
24.356
 20
59.1
 21
59.268
  0
LINE
  8
0
 10
24.356
 11
24.288
 20
59.268
 21
59.444
  0
LINE
  8
0
 10
24.288
 11
24.239
 20
59.444
 21
59.626
  0
LINE
  8
0
 10
24.239
 11
24.21
 20
59.626
 21
59.812
  0
LINE
  8
0
 10
24.21
 11
24.2
 20
59.812
 21
60
  0
LINE
  8
0
 10
24.2
 11
24.21
 20
160
 21
160.188
  0
LINE
  8
0
 10
24.21
 11
24.239
 20
160.188
 21
160.374
  0
LINE
  8
0
 10
24.239
 11
24.288
 20
160.374
 21
160.556
  0
LINE
  8
0
 10
24.288
 11
24.356
 20
160.556
 21
160.732
  0
LINE
  8
0
 10
24.356
 11
24.441
 20
160.732
 21
160.9
  0
LINE
  8
0
 10
24.441
 11
24.544
 20
160.9
 21
161.058
  0
LINE
  8
0
 10
24.544
 11
24.662
 20
161.058
 21
161.204
  0
LINE
  8
0
 10
24.662
 11
24.796
 20
161.204
 21
161.338
  0
LINE
  8
0
 10
24.796
 11
24.942
 20
161.338
 21
161.456
  0
LINE
  8
0
 10
24.942
 11
25.1
 20
161.456
 21
161.559
  0
LINE
  8
0
 10
25.1
 11
25.268
 20
161.559
 21
161.644
  0
LINE
  8
0
 10
25.268
 11
25.444
 20
161.644
 21
161.712
  0
LINE
  8
0
 10
25.444
 11
25.626
 20
161.712
 21
161.761
  0
LINE
  8
0
 10
25.626
 11
25.812
 20
161.761
 21
161.79
  0
LINE
  8
0
 10
25.812
 11
26
 20
161.79
 21
161.8
  0
LINE
  8
0
 10
26
 11
26.188
 20
161.8
 21
161.79
  0
LINE
  8
0
 10
26.188
 11
26.374
 20
161.79
 21
161.761
  0
LINE
  8
0
 10
26.374
 11
26.556
 20
161.761
 21
161.712
  0
LINE
  8
0
 10
26.556
 11
26.732
 20
161.712
 21
161.644
  0
LINE
  8
0
 10
26.732
 11
26.9
 20
161.644
 21
161.559
  0
LINE
  8
0
 10
26.9
 11
27.058
 20
161.559
 21
161.456
  0
LINE
  8
0
 10
27.058
 11
27.204
 20
161.456
 21
161.338
  0
LINE
  8
0
 10
27.204
 11
27.338
 20
161.338
 21
161.204
  0
LINE
  8
0
 10
27.338
 11
27.456
 20
161.204
 21
161.058
  0
LINE
  8
0
 10
27.456
 11
27.559
 20
161.058
 21
160.9
  0
LINE
  8
0
 10
27.559
 11
27.644
 20
160.9
 21
160.732
  0
LINE
  8
0
 10
27.644
 11
27.712
 20
160.732
 21
160.556
  0
LINE
  8
0
 10
27.712
 11
27.761
 20
160.556
 21
160.374
  0
LINE
  8
0
 10
27.761
 11
27.79
 20
160.374
 21
160.188
  0
LINE
  8
0
 10
27.79
 11
27.8
 20
160.188
 21
160
  0
LINE
  8
0
 10
27.8
 11
27.79
 20
160
 21
159.812
  0
LINE
  8
0
 10
27.79
 11
27.761
 20
159.812
 21
159.626
  0
LINE
  8
0
 10
27.761
 11
27.712
 20
159.626
 21
159.444
  0
LINE
  8
0
 10
27.712
 11
27.644
 20
159.444
 21
159.268
  0
LINE
  8
0
 10
27.644
 11
27.559
 20
159.268
 21
159.1
  0
LINE
  8
0
 10
27.559
 11
27.456
 20
159.1
 21
158.942
  0
LINE
  8
0
 10
27.456
 11
27.338
 20
158.942
 21
158.796
  0
LINE
  8
0
 10
27.338
 11
27.204
 20
158.796
 21
158.662
  0
LINE
  8
0
 10
27.204
 11
27.058
 20
158.662
 21
158.544
  0
LINE
  8
0
 10
27.058
 11
26.9
 20
158.544
 21
158.441
  0
LINE
  8
0
 10
26.9
 11
26.732
 20
158.441
 21
158.356
  0
LINE
  8
0
 10
26.732
 11
26.556
 20
158.356
 21
158.288
  0
LINE
  8
0
 10
26.556
 11
26.374
 20
158.288
 21
158.239
  0
LINE
  8
0
 10
26.374
 11
26.188
 20
158.239
 21
158.21
  0
LINE
  8
0
 10
26.188
 11
26
 20
158.21
 21
158.2
  0
LINE
  8
0
 10
26
 11
25.812
 20
158.2
 21
158.21
  0
LINE
  8
0
 10
25.812
 11
25.626
 20
158.21
 21
158.239
  0
LINE
  8
0
 10
25.626
 11
25.444
 20
158.239
 21
158.288
  0
LINE
  8
0
 10
25.444
 11
25.268
 20
158.288
 21
158.356
  0
LINE
  8
0
 10
25.268
 11
25.1
 20
158.356
 21
158.441
  0
LINE
  8
0
 10
25.1
 11
24.942
 20
158.441
 21
158.544
  0
LINE
  8
0
 10
24.942
 11
24.796
 20
158.544
 21
158.662
  0
LINE
  8
0
 10
24.796
 11
24.662
 20
158.662
 21
158.796
  0
LINE
  8
0
 10
24.662
 11
24.544
 20
158.796
 21
158.942
  0
LINE
  8
0
 10
24.544
 11
24.441
 20
158.942
 21
159.1
  0
LINE
  8
0
 10
24.441
 11
24.356
 20
159.1
 21
159.268
  0
LINE
  8
0
 10
24.356
 11
24.288
 20
159.268
 21
159.444
  0
LINE
  8
0
 10
24.288
 11
24.239
 20
159.444
 21
159.626
  0
LINE
  8
0
 10
24.239
 11
24.21
 20
159.626
 21
159.812
  0
LINE
  8
0
 10
24.21
 11
24.2
 20
159.812
 21
160
  0
LINE
  8
0
 10
52.2
 11
52.21
 20
60
 21
60.188
  0
LINE
  8
0
 10
52.21
 11
52.239
 20
60.188
 21
60.374
  0
LINE
  8
0
 10
52.239
 11
52.288
 20
60.374
 21
60.556
  0
LINE
  8
0
 10
52.288
 11
52.356
 20
60.556
 21
60.732
  0
LINE
  8
0
 10
52.356
 11
52.441
 20
60.732
 21
60.9
  0
LINE
  8
0
 10
52.441
 11
52.544
 20
60.9
 21
61.058
  0
LINE
  8
0
 10
52.544
 11
52.662
 20
61.058
 21
61.204
  0
LINE
  8
0
 10
52.662
 11
52.796
 20
61.204
 21
61.338
  0
LINE
  8
0
 10
52.796
 11
52.942
 20
61.338
 21
61.456
  0
LINE
  8
0
 10
52.942
 11
53.1
 20
61.456
 21
61.559
  0
LINE
  8
0
 10
53.1
 11
53.268
 20
61.559
 21
61.644
  0
LINE
  8
0
 10
53.268
 11
53.444
 20
61.644
 21
61.712
  0
LINE
  8
0
 10
53.444
 11
53.626
 20
61.712
 21
61.761
  0
LINE
  8
0
 10
53.626
 11
53.812
 20
61.761
 21
61.79
  0
LINE
  8
0
 10
53.812
 11
54
 20
61.79
 21
61.8
  0
LINE
  8
0
 10
54
 11
54.188
 20
61.8
 21
61.79
  0
LINE
  8
0
 10
54.188
 11
54.374
 20
61.79
 21
61.761
  0
LINE
  8
0
 10
54.374
 11
54.556
 20
61.761
 21
61.712
  0
LINE
  8
0
 10
54.556
 11
54.732
 20
61.712
 21
61.644
  0
LINE
  8
0
 10
54.732
 11
54.9
 20
61.644
 21
61.559
  0
LINE
  8
0
 10
54.9
 11
55.058
 20
61.559
 21
61.456
  0
LINE
  8
0
 10
55.058
 11
55.204
 20
61.456
 21
61.338
  0
LINE
  8
0
 10
55.204
 11
55.338
 20
61.338
 21
61.204
  0
LINE
  8
0
 10
55.338
 11
55.456
 20
61.204
 21
61.058
  0
LINE
  8
0
 10
55.456
 11
55.559
 20
61.058
 21
60.9
  0
LINE
  8
0
 10
55.559
 11
55.644
 20
60.9
 21
60.732
  0
LINE
  8
0
 10
55.644
 11
55.712
 20
60.732
 21
60.556
  0
LINE
  8
0
 10
55.712
 11
55.761
 20
60.556
 21
60.374
  0
LINE
  8
0
 10
55.761
 11
55.79
 20
60.374
 21
60.188
  0
LINE
  8
0
 10
55.79
 11
55.8
 20
60.188
 21
60
  0
LINE
  8
0
 10
55.8
 11
55.79
 20
60
 21
59.812
  0
LINE
  8
0
 10
55.79
 11
55.761
 20
59.812
 21
59.626
  0
LINE
  8
0
 10
55.761
 11
55.712
 20
59.626
 21
59.444
  0
LINE
  8
0
 10
55.712
 11
55.644
 20
59.444
 21
59.268
  0
LINE
  8
0
 10
55.644
 11
55.559
 20
59.268
 21
59.1
  0
LINE
  8
0
 10
55.559
 11
55.456
 20
59.1
 21
58.942
  0
LINE
  8
0
 10
55.456
 11
55.338
 20
58.942
 21
58.796
  0
LINE
  8
0
 10
55.338
 11
55.204
 20
58.796
 21
58.662
  0
LINE
  8
0
 10
55.204
 11
55.058
 20
58.662
 21
58.544
  0
LINE
  8
0
 10
55.058
 11
54.9
 20
58.544
 21
58.441
  0
LINE
  8
0
 10
54.9
 11
54.732
 20
58.441
 21
58.356
  0
LINE
  8
0
 10
54.732
 11
54.556
 20
58.356
 21
58.288
  0
LINE
  8
0
 10
54.556
 11
54.374
 20
58.288
 21
58.239
  0
LINE
  8
0
 10
54.374
 11
54.188
 20
58.239
 21
58.21
  0
LINE
  8
0
 10
54.188
 11
54
 20
58.21
 21
58.2
  0
LINE
  8
0
 10
54
 11
53.812
 20
58.2
 21
58.21
  0
LINE
  8
0
 10
53.812
 11
53.626
 20
58.21
 21
58.239
  0
LINE
  8
0
 10
53.626
 11
53.444
 20
58.239
 21
58.288
  0
LINE
  8
0
 10
53.444
 11
53.268
 20
58.288
 21
58.356
  0
LINE
  8
0
 10
53.268
 11
53.1
 20
58.356
 21
58.441
  0
LINE
  8
0
 10
53.1
 11
52.942
 20
58.441
 21
58.544
  0
LINE
  8
0
 10
52.942
 11
52.796
 20
58.544
 21
58.662
  0
LINE
  8
0
 10
52.796
 11
52.662
 20
58.662
 21
58.796
  0
LINE
  8
0
 10
52.662
 11
52.544
 20
58.796
 21
58.942
  0
LINE
  8
0
 10
52.544
 11
52.441
 20
58.942
 21
59.1
  0
LINE
  8
0
 10
52.441
 11
52.356
 20
59.1
 21
59.268
  0
LINE
  8
0
 10
52.356
 11
52.288
 20
59.268
 21
59.444
  0
LINE
  8
0
 10
52.288
 11
52.239
 20
59.444
 21
59.626
  0
LINE
  8
0
 10
52.239
 11
52.21
 20
59.626
 21
59.812
  0
LINE
  8
0
 10
52.21
 11
52.2
 20
59.812
 21
60
  0
LINE
  8
0
 10
52.2
 11
52.21
 20
160
 21
160.188
  0
LINE
  8
0
 10
52.21
 11
52.239
 20
160.188
 21
160.374
  0
LINE
  8
0
 10
52.239
 11
52.288
 20
160.374
 21
160.556
  0
LINE
  8
0
 10
52.288
 11
52.356
 20
160.556
 21
160.732
  0
LINE
  8
0
 10
52.356
 11
52.441
 20
160.732
 21
160.9
  0
LINE
  8
0
 10
52.441
 11
52.544
 20
160.9
 21
161.058
  0
LINE
  8
0
 10
52.544
 11
52.662
 20
161.058
 21
161.204
  0
LINE
  8
0
 10
52.662
 11
52.796
 20
161.204
 21
161.338
  0
LINE
  8
0
 10
52.796
 11
52.942
 20
161.338
 21
161.456
  0
LINE
  8
0
 10
52.942
 11
53.1
 20
161.456
 21
161.559
  0
LINE
  8
0
 10
53.1
 11
53.268
 20
161.559
 21
161.644
  0
LINE
  8
0
 10
53.268
 11
53.444
 20
161.644
 21
161.712
  0
LINE
  8
0
 10
53.444
 11
53.626
 20
161.712
 21
161.761
  0
LINE
  8
0
 10
53.626
 11
53.812
 20
161.761
 21
161.79
  0
LINE
  8
0
 10
53.812
 11
54
 20
161.79
 21
161.8
  0
LINE
  8
0
 10
54
 11
54.188
 20
161.8
 21
161.79
  0
LINE
  8
0
 10
54.188
 11
54.374
 20
161.79
 21
161.761
  0
LINE
  8
0
 10
54.374
 11
54.556
 20
161.761
 21
161.712
  0
LINE
  8
0
 10
54.556
 11
54.732
 20
161.712
 21
161.644
  0
LINE
  8
0
 10
54.732
 11
54.9
 20
161.644
 21
161.559
  0
LINE
  8
0
 10
54.9
 11
55.058
 20
161.559
 21
161.456
  0
LINE
  8
0
 10
55.058
 11
55.204
 20
161.456
 21
161.338
  0
LINE
  8
0
 10
55.204
 11
55.338
 20
161.338
 21
161.204
  0
LINE
  8
0
 10
55.338
 11
55.456
 20
161.204
 21
161.058
  0
LINE
  8
0
 10
55.456
 11
55.559
 20
161.058
 21
160.9
  0
LINE
  8
0
 10
55.559
 11
55.644
 20
160.9
 21
160.732
  0
LINE
  8
0
 10
55.644
 11
55.712
 20
160.732
 21
160.556
  0
LINE
  8
0
 10
55.712
 11
55.761
 20
160.556
 21
160.374
  0
LINE
  8
0
 10
55.761
 11
55.79
 20
160.374
 21
160.188
  0
LINE
  8
0
 10
55.79
 11
55.8
 20
160.188
 21
160
  0
LINE
  8
0
 10
55.8
 11
55.79
 20
160
 21
159.812
  0
LINE
  8
0
 10
55.79
 11
55.761
 20
159.812
 21
159.626
  0
LINE
  8
0
 10
55.761
 11
55.712
 20
159.626
 21
159.444
  0
LINE
  8
0
 10
55.712
 11
55.644
 20
159.444
 21
159.268
  0
LINE
  8
0
 10
55.644
 11
55.559
 20
159.268
 21
159.1
  0
LINE
  8
0
 10
55.559
 11
55.456
 20
159.1
 21
158.942
  0
LINE
  8
0
 10
55.456
 11
55.338
 20
158.942
 21
158.796
  0
LINE
  8
0
 10
55.338
 11
55.204
 20
158.796
 21
158.662
  0
LINE
  8
0
 10
55.204
 11
55.058
 20
158.662
 21
158.544
  0
LINE
  8
0
 10
55.058
 11
54.9
 20
158.544
 21
158.441
  0
LINE
  8
0
 10
54.9
 11
54.732
 20
158.441
 21
158.356
  0
LINE
  8
0
 10
54.732
 11
54.556
 20
158.356
 21
158.288
  0
LINE
  8
0
 10
54.556
 11
54.374
 20
158.288
 21
158.239
  0
LINE
  8
0
 10
54.374
 11
54.188
 20
158.239
 21
158.21
  0
LINE
  8
0
 10
54.188
 11
54
 20
158.21
 21
158.2
  0
LINE
  8
0
 10
54
 11
53.812
 20
158.2
 21
158.21
  0
LINE
  8
0
 10
53.812
 11
53.626
 20
158.21
 21
158.239
  0
LINE
  8
0
 10
53.626
 11
53.444
 20
158.239
 21
158.288
  0
LINE
  8
0
 10
53.444
 11
53.268
 20
158.288
 21
158.356
  0
LINE
  8
0
 10
53.268
 11
53.1
 20
158.356
 21
158.441
  0
LINE
  8
0
 10
53.1
 11
52.942
 20
158.441
 21
158.544
  0
LINE
  8
0
 10
52.942
 11
52.796
 20
158.544
 21
158.662
  0
LINE
  8
0
 10
52.796
 11
52.662
 20
158.662
 21
158.796
  0
LINE
  8
0
 10
52.662
 11
52.544
 20
158.796
 21
158.942
  0
LINE
  8
0
 10
52.544
 11
52.441
 20
158.942
 21
159.1
  0
LINE
  8
0
 10
52.441
 11
52.356
 20
159.1
 21
159.268
  0
LINE
  8
0
 10
52.356
 11
52.288
 20
159.268
 21
159.444
  0
LINE
  8
0
 10
52.288
 11
52.239
 20
159.444
 21
159.626
  0
LINE
  8
0
 10
52.239
 11
52.21
 20
159.626
 21
159.812
  0
LINE
  8
0
 10
52.21
 11
52.2
 20
159.812
 21
160
  0
LINE
  8
0
 10
99.2
 11
99.21
 20
90
 21
90.188
  0
LINE
  8
0
 10
99.21
 11
99.239
 20
90.188
 21
90.374
  0
LINE
  8
0
 10
99.239
 11
99.288
 20
90.374
 21
90.556
  0
LINE
  8
0
 10
99.288
 11
99.356
 20
90.556
 21
90.732
  0
LINE
  8
0
 10
99.356
 11
99.441
 20
90.732
 21
90.9
  0
LINE
  8
0
 10
99.441
 11
99.544
 20
90.9
 21
91.058
  0
LINE
  8
0
 10
99.544
 11
99.662
 20
91.058
 21
91.204
  0
LINE
  8
0
 10
99.662
 11
99.796
 20
91.204
 21
91.338
  0
LINE
  8
0
 10
99.796
 11
99.942
 20
91.338
 21
91.456
  0
LINE
  8
0
 10
99.942
 11
100.1
 20
91.456
 21
91.559
  0
LINE
  8
0
 10
100.1
 11
100.268
 20
91.559
 21
91.644
  0
LINE
  8
0
 10
100.268
 11
100.444
 20
91.644
 21
91.712
  0
LINE
  8
0
 10
100.444
 11
100.626
 20
91.712
 21
91.761
  0
LINE
  8
0
 10
100.626
 11
100.812
 20
91.761
 21
91.79
  0
LINE
  8
0
 10
100.812
 11
101
 20
91.79
 21
91.8
  0
LINE
  8
0
 10
101
 11
101.188
 20
91.8
 21
91.79
  0
LINE
  8
0
 10
101.188
 11
101.374
 20
91.79
 21
91.761
  0
LINE
  8
0
 10
101.374
 11
101.556
 20
91.761
 21
91.712
  0
LINE
  8
0
 10
101.556
 11
101.732
 20
91.712
 21
91.644
  0
LINE
  8
0
 10
101.732
 11
101.9
 20
91.644
 21
91.559
  0
LINE
  8
0
 10
101.9
 11
102.058
 20
91.559
 21
91.456
  0
LINE
  8
0
 10
102.058
 11
102.204
 20
91.456
 21
91.338
  0
LINE
  8
0
 10
102.204
 11
102.338
 20
91.338
 21
91.204
  0
LINE
  8
0
 10
102.338
 11
102.456
 20
91.204
 21
91.058
  0
LINE
  8
0
 10
102.456
 11
102.559
 20
91.058
 21
90.9
  0
LINE
  8
0
 10
102.559
 11
102.644
 20
90.9
 21
90.732
  0
LINE
  8
0
 10
102.644
 11
102.712
 20
90.732
 21
90.556
  0
LINE
  8
0
 10
102.712
 11
102.761
 20
90.556
 21
90.374
  0
LINE
  8
0
 10
102.761
 11
102.79
 20
90.374
 21
90.188
  0
LINE
  8
0
 10
102.79
 11
102.8
 20
90.188
 21
90
  0
LINE
  8
0
 10
102.8
 11
102.79
 20
90
 21
89.812
  0
LINE
  8
0
 10
102.79
 11
102.761
 20
89.812
 21
89.626
  0
LINE
  8
0
 10
102.761
 11
102.712
 20
89.626
 21
89.444
  0
LINE
  8
0
 10
102.712
 11
102.644
 20
89.444
 21
89.268
  0
LINE
  8
0
 10
102.644
 11
102.559
 20
89.268
 21
89.1
  0
LINE
  8
0
 10
102.559
 11
102.456
 20
89.1
 21
88.942
  0
LINE
  8
0
 10
102.456
 11
102.338
 20
88.942
 21
88.796
  0
LINE
  8
0
 10
102.338
 11
102.204
 20
88.796
 21
88.662
  0
LINE
  8
0
 10
102.204
 11
102.058
 20
88.662
 21
88.544
  0
LINE
  8
0
 10
102.058
 11
101.9
 20
88.544
 21
88.441
  0
LINE
  8
0
 10
101.9
 11
101.732
 20
88.441
 21
88.356
  0
LINE
  8
0
 10
101.732
 11
101.556
 20
88.356
 21
88.288
  0
LINE
  8
0
 10
101.556
 11
101.374
 20
88.288
 21
88.239
  0
LINE
  8
0
 10
101.374
 11
101.188
 20
88.239
 21
88.21
  0
LINE
  8
0
 10
101.188
 11
101
 20
88.21
 21
88.2
  0
LINE
  8
0
 10
101
 11
100.812
 20
88.2
 21
88.21
  0
LINE
  8
0
 10
100.812
 11
100.626
 20
88.21
 21
88.239
  0
LINE
  8
0
 10
100.626
 11
100.444
 20
88.239
 21
88.288
  0
LINE
  8
0
 10
100.444
 11
100.268
 20
88.288
 21
88.356
  0
LINE
  8
0
 10
100.268
 11
100.1
 20
88.356
 21
88.441
  0
LINE
  8
0
 10
100.1
 11
99.942
 20
88.441
 21
88.544
  0
LINE
  8
0
 10
99.942
 11
99.796
 20
88.544
 21
88.662
  0
LINE
  8
0
 10
99.796
 11
99.662
 20
88.662
 21
88.796
  0
LINE
  8
0
 10
99.662
 11
99.544
 20
88.796
 21
88.942
  0
LINE
  8
0
 10
99.544
 11
99.441
 20
88.942
 21
89.1
  0
LINE
  8
0
 10
99.441
 11
99.356
 20
89.1
 21
89.268
  0
LINE
  8
0
 10
99.356
 11
99.288
 20
89.268
 21
89.444
  0
LINE
  8
0
 10
99.288
 11
99.239
 20
89.444
 21
89.626
  0
LINE
  8
0
 10
99.239
 11
99.21
 20
89.626
 21
89.812
  0
LINE
  8
0
 10
99.21
 11
99.2
 20
89.812
 21
90
  0
LINE
  8
0
 10
99.2
 11
99.21
 20
130
 21
130.188
  0
LINE
  8
0
 10
99.21
 11
99.239
 20
130.188
 21
130.374
  0
LINE
  8
0
 10
99.239
 11
99.288
 20
130.374
 21
130.556
  0
LINE
  8
0
 10
99.288
 11
99.356
 20
130.556
 21
130.732
  0
LINE
  8
0
 10
99.356
 11
99.441
 20
130.732
 21
130.9
  0
LINE
  8
0
 10
99.441
 11
99.544
 20
130.9
 21
131.058
  0
LINE
  8
0
 10
99.544
 11
99.662
 20
131.058
 21
131.204
  0
LINE
  8
0
 10
99.662
 11
99.796
 20
131.204
 21
131.338
  0
LINE
  8
0
 10
99.796
 11
99.942
 20
131.338
 21
131.456
  0
LINE
  8
0
 10
99.942
 11
100.1
 20
131.456
 21
131.559
  0
LINE
  8
0
 10
100.1
 11
100.268
 20
131.559
 21
131.644
  0
LINE
  8
0
 10
100.268
 11
100.444
 20
131.644
 21
131.712
  0
LINE
  8
0
 10
100.444
 11
100.626
 20
131.712
 21
131.761
  0
LINE
  8
0
 10
100.626
 11
100.812
 20
131.761
 21
131.79
  0
LINE
  8
0
 10
100.812
 11
101
 20
131.79
 21
131.8
  0
LINE
  8
0
 10
101
 11
101.188
 20
131.8
 21
131.79
  0
LINE
  8
0
 10
101.188
 11
101.374
 20
131.79
 21
131.761
  0
LINE
  8
0
 10
101.374
 11
101.556
 20
131.761
 21
131.712
  0
LINE
  8
0
 10
101.556
 11
101.732
 20
131.712
 21
131.644
  0
LINE
  8
0
 10
101.732
 11
101.9
 20
131.644
 21
131.559
  0
LINE
  8
0
 10
101.9
 11
102.058
 20
131.559
 21
131.456
  0
LINE
  8
0
 10
102.058
 11
102.204
 20
131.456
 21
131.338
  0
LINE
  8
0
 10
102.204
 11
102.338
 20
131.338
 21
131.204
  0
LINE
  8
0
 10
102.338
 11
102.456
 20
131.204
 21
131.058
  0
LINE
  8
0
 10
102.456
 11
102.559
 20
131.058
 21
130.9
  0
LINE
  8
0
 10
102.559
 11
102.644
 20
130.9
 21
130.732
  0
LINE
  8
0
 10
102.644
 11
102.712
 20
130.732
 21
130.556
  0
LINE
  8
0
 10
102.712
 11
102.761
 20
130.556
 21
130.374
  0
LINE
  8
0
 10
102.761
 11
102.79
 20
130.374
 21
130.188
  0
LINE
  8
0
 10
102.79
 11
102.8
 20
130.188
 21
130
  0
LINE
  8
0
 10
102.8
 11
102.79
 20
130
 21
129.812
  0
LINE
  8
0
 10
102.79
 11
102.761
 20
129.812
 21
129.626
  0
LINE
  8
0
 10
102.761
 11
102.712
 20
129.626
 21
129.444
  0
LINE
  8
0
 10
102.712
 11
102.644
 20
129.444
 21
129.268
  0
LINE
  8
0
 10
102.644
 11
102.559
 20
129.268
 21
129.1
  0
LINE
  8
0
 10
102.559
 11
102.456
 20
129.1
 21
128.942
  0
LINE
  8
0
 10
102.456
 11
102.338
 20
128.942
 21
128.796
  0
LINE
  8
0
 10
102.338
 11
102.204
 20
128.796
 21
128.662
  0
LINE
  8
0
 10
102.204
 11
102.058
 20
128.662
 21
128.544
  0
LINE
  8
0
 10
102.058
 11
101.9
 20
128.544
 21
128.441
  0
LINE
  8
0
 10
101.9
 11
101.732
 20
128.441
 21
128.356
  0
LINE
  8
0
 10
101.732
 11
101.556
 20
128.356
 21
128.288
  0
LINE
  8
0
 10
101.556
 11
101.374
 20
128.288
 21
128.239
  0
LINE
  8
0
 10
101.374
 11
101.188
 20
128.239
 21
128.21
  0
LINE
  8
0
 10
101.188
 11
101
 20
128.21
 21
128.2
  0
LINE
  8
0
 10
101
 11
100.812
 20
128.2
 21
128.21
  0
LINE
  8
0
 10
100.812
 11
100.626
 20
128.21
 21
128.239
  0
LINE
  8
0
 10
100.626
 11
100.444
 20
128.239
 21
128.288
  0
LINE
  8
0
 10
100.444
 11
100.268
 20
128.288
 21
128.356
  0
LINE
  8
0
 10
100.268
 11
100.1
 20
128.356
 21
128.441
  0
LINE
  8
0
 10
100.1
 11
99.942
 20
128.441
 21
128.544
  0
LINE
  8
0
 10
99.942
 11
99.796
 20
128.544
 21
128.662
  0
LINE
  8
0
 10
99.796
 11
99.662
 20
128.662
 21
128.796
  0
LINE
  8
0
 10
99.662
 11
99.544
 20
128.796
 21
128.942
  0
LINE
  8
0
 10
99.544
 11
99.441
 20
128.942
 21
129.1
  0
LINE
  8
0
 10
99.441
 11
99.356
 20
129.1
 21
129.268
  0
LINE
  8
0
 10
99.356
 11
99.288
 20
129.268
 21
129.444
  0
LINE
  8
0
 10
99.288
 11
99.239
 20
129.444
 21
129.626
  0
LINE
  8
0
 10
99.239
 11
99.21
 20
129.626
 21
129.812
  0
LINE
  8
0
 10
99.21
 11
99.2
 20
129.812
 21
130
  0
LINE
  8
0
 10
117.2
 11
117.21
 20
90
 21
90.188
  0
LINE
  8
0
 10
117.21
 11
117.239
 20
90.188
 21
90.374
  0
LINE
  8
0
 10
117.239
 11
117.288
 20
90.374
 21
90.556
  0
LINE
  8
0
 10
117.288
 11
117.356
 20
90.556
 21
90.732
  0
LINE
  8
0
 10
117.356
 11
117.441
 20
90.732
 21
90.9
  0
LINE
  8
0
 10
117.441
 11
117.544
 20
90.9
 21
91.058
  0
LINE
  8
0
 10
117.544
 11
117.662
 20
91.058
 21
91.204
  0
LINE
  8
0
 10
117.662
 11
117.796
 20
91.204
 21
91.338
  0
LINE
  8
0
 10
117.796
 11
117.942
 20
91.338
 21
91.456
  0
LINE
  8
0
 10
117.942
 11
118.1
 20
91.456
 21
91.559
  0
LINE
  8
0
 10
118.1
 11
118.268
 20
91.559
 21
91.644
  0
LINE
  8
0
 10
118.268
 11
118.444
 20
91.644
 21
91.712
  0
LINE
  8
0
 10
118.444
 11
118.626
 20
91.712
 21
91.761
  0
LINE
  8
0
 10
118.626
 11
118.812
 20
91.761
 21
91.79
  0
LINE
  8
0
 10
118.812
 11
119
 20
91.79
 21
91.8
  0
LINE
  8
0
 10
119
 11
119.188
 20
91.8
 21
91.79
  0
LINE
  8
0
 10
119.188
 11
119.374
 20
91.79
 21
91.761
  0
LINE
  8
0
 10
119.374
 11
119.556
 20
91.761
 21
91.712
  0
LINE
  8
0
 10
119.556
 11
119.732
 20
91.712
 21
91.644
  0
LINE
  8
0
 10
119.732
 11
119.9
 20
91.644
 21
91.559
  0
LINE
  8
0
 10
119.9
 11
120.058
 20
91.559
 21
91.456
  0
LINE
  8
0
 10
120.058
 11
120.204
 20
91.456
 21
91.338
  0
LINE
  8
0
 10
120.204
 11
120.338
 20
91.338
 21
91.204
  0
LINE
  8
0
 10
120.338
 11
120.456
 20
91.204
 21
91.058
  0
LINE
  8
0
 10
120.456
 11
120.559
 20
91.058
 21
90.9
  0
LINE
  8
0
 10
120.559
 11
120.644
 20
90.9
 21
90.732
  0
LINE
  8
0
 10
120.644
 11
120.712
 20
90.732
 21
90.556
  0
LINE
  8
0
 10
120.712
 11
120.761
 20
90.556
 21
90.374
  0
LINE
  8
0
 10
120.761
 11
120.79
 20
90.374
 21
90.188
  0
LINE
  8
0
 10
120.79
 11
120.8
 20
90.188
 21
90
  0
LINE
  8
0
 10
120.8
 11
120.79
 20
90
 21
89.812
  0
LINE
  8
0
 10
120.79
 11
120.761
 20
89.812
 21
89.626
  0
LINE
  8
0
 10
120.761
 11
120.712
 20
89.626
 21
89.444
  0
LINE
  8
0
 10
120.712
 11
120.644
 20
89.444
 21
89.268
  0
LINE
  8
0
 10
120.644
 11
120.559
 20
89.268
 21
89.1
  0
LINE
  8
0
 10
120.559
 11
120.456
 20
89.1
 21
88.942
  0
LINE
  8
0
 10
120.456
 11
120.338
 20
88.942
 21
88.796
  0
LINE
  8
0
 10
120.338
 11
120.204
 20
88.796
 21
88.662
  0
LINE
  8
0
 10
120.204
 11
120.058
 20
88.662
 21
88.544
  0
LINE
  8
0
 10
120.058
 11
119.9
 20
88.544
 21
88.441
  0
LINE
  8
0
 10
119.9
 11
119.732
 20
88.441
 21
88.356
  0
LINE
  8
0
 10
119.732
 11
119.556
 20
88.356
 21
88.288
  0
LINE
  8
0
 10
119.556
 11
119.374
 20
88.288
 21
88.239
  0
LINE
  8
0
 10
119.374
 11
119.188
 20
88.239
 21
88.21
  0
LINE
  8
0
 10
119.188
 11
119
 20
88.21
 21
88.2
  0
LINE
  8
0
 10
119
 11
118.812
 20
88.2
 21
88.21
  0
LINE
  8
0
 10
118.812
 11
118.626
 20
88.21
 21
88.239
  0
LINE
  8
0
 10
118.626
 11
118.444
 20
88.239
 21
88.288
  0
LINE
  8
0
 10
118.444
 11
118.268
 20
88.288
 21
88.356
  0
LINE
  8
0
 10
118.268
 11
118.1
 20
88.356
 21
88.441
  0
LINE
  8
0
 10
118.1
 11
117.942
 20
88.441
 21
88.544
  0
LINE
  8
0
 10
117.942
 11
117.796
 20
88.544
 21
88.662
  0
LINE
  8
0
 10
117.796
 11
117.662
 20
88.662
 21
88.796
  0
LINE
  8
0
 10
117.662
 11
117.544
 20
88.796
 21
88.942
  0
LINE
  8
0
 10
117.544
 11
117.441
 20
88.942
 21
89.1
  0
LINE
  8
0
 10
117.441
 11
117.356
 20
89.1
 21
89.268
  0
LINE
  8
0
 10
117.356
 11
117.288
 20
89.268
 21
89.444
  0
LINE
  8
0
 10
117.288
 11
117.239
 20
89.444
 21
89.626
  0
LINE
  8
0
 10
117.239
 11
117.21
 20
89.626
 21
89.812
  0
LINE
  8
0
 10
117.21
 11
117.2
 20
89.812
 21
90
  0
LINE
  8
0
 10
117.2
 11
117.21
 20
130
 21
130.188
  0
LINE
  8
0
 10
117.21
 11
117.239
 20
130.188
 21
130.374
  0
LINE
  8
0
 10
117.239
 11
117.288
 20
130.374
 21
130.556
  0
LINE
  8
0
 10
117.288
 11
117.356
 20
130.556
 21
130.732
  0
LINE
  8
0
 10
117.356
 11
117.441
 20
130.732
 21
130.9
  0
LINE
  8
0
 10
117.441
 11
117.544
 20
130.9
 21
131.058
  0
LINE
  8
0
 10
117.544
 11
117.662
 20
131.058
 21
131.204
  0
LINE
  8
0
 10
117.662
 11
117.796
 20
131.204
 21
131.338
  0
LINE
  8
0
 10
117.796
 11
117.942
 20
131.338
 21
131.456
  0
LINE
  8
0
 10
117.942
 11
118.1
 20
131.456
 21
131.559
  0
LINE
  8
0
 10
118.1
 11
118.268
 20
131.559
 21
131.644
  0
LINE
  8
0
 10
118.268
 11
118.444
 20
131.644
 21
131.712
  0
LINE
  8
0
 10
118.444
 11
118.626
 20
131.712
 21
131.761
  0
LINE
  8
0
 10
118.626
 11
118.812
 20
131.761
 21
131.79
  0
LINE
  8
0
 10
118.812
 11
119
 20
131.79
 21
131.8
  0
LINE
  8
0
 10
119
 11
119.188
 20
131.8
 21
131.79
  0
LINE
  8
0
 10
119.188
 11
119.374
 20
131.79
 21
131.761
  0
LINE
  8
0
 10
119.374
 11
119.556
 20
131.761
 21
131.712
  0
LINE
  8
0
 10
119.556
 11
119.732
 20
131.712
 21
131.644
  0
LINE
  8
0
 10
119.732
 11
119.9
 20
131.644
 21
131.559
  0
LINE
  8
0
 10
119.9
 11
120.058
 20
131.559
 21
131.456
  0
LINE
  8
0
 10
120.058
 11
120.204
 20
131.456
 21
131.338
  0
LINE
  8
0
 10
120.204
 11
120.338
 20
131.338
 21
131.204
  0
LINE
  8
0
 10
120.338
 11
120.456
 20
131.204
 21
131.058
  0
LINE
  8
0
 10
120.456
 11
120.559
 20
131.058
 21
130.9
  0
LINE
  8
0
 10
120.559
 11
120.644
 20
130.9
 21
130.732
  0
LINE
  8
0
 10
120.644
 11
120.712
 20
130.732
 21
130.556
  0
LINE
  8
0
 10
120.712
 11
120.761
 20
130.556
 21
130.374
  0
LINE
  8
0
 10
120.761
 11
120.79
 20
130.374
 21
130.188
  0
LINE
  8
0
 10
120.79
 11
120.8
 20
130.188
 21
130
  0
LINE
  8
0
 10
120.8
 11
120.79
 20
130
 21
129.812
  0
LINE
  8
0
 10
120.79
 11
120.761
 20
129.812
 21
129.626
  0
LINE
  8
0
 10
120.761
 11
120.712
 20
129.626
 21
129.444
  0
LINE
  8
0
 10
120.712
 11
120.644
 20
129.444
 21
129.268
  0
LINE
  8
0
 10
120.644
 11
120.559
 20
129.268
 21
129.1
  0
LINE
  8
0
 10
120.559
 11
120.456
 20
129.1
 21
128.942
  0
LINE
  8
0
 10
120.456
 11
120.338
 20
128.942
 21
128.796
  0
LINE
  8
0
 10
120.338
 11
120.204
 20
128.796
 21
128.662
  0
LINE
  8
0
 10
120.204
 11
120.058
 20
128.662
 21
128.544
  0
LINE
  8
0
 10
120.058
 11
119.9
 20
128.544
 21
128.441
  0
LINE
  8
0
 10
119.9
 11
119.732
 20
128.441
 21
128.356
  0
LINE
  8
0
 10
119.732
 11
119.556
 20
128.356
 21
128.288
  0
LINE
  8
0
 10
119.556
 11
119.374
 20
128.288
 21
128.239
  0
LINE
  8
0
 10
119.374
 11
119.188
 20
128.239
 21
128.21
  0
LINE
  8
0
 10
119.188
 11
119
 20
128.21
 21
128.2
  0
LINE
  8
0
 10
119
 11
118.812
 20
128.2
 21
128.21
  0
LINE
  8
0
 10
118.812
 11
118.626
 20
128.21
 21
128.239
  0
LINE
  8
0
 10
118.626
 11
118.444
 20
128.239
 21
128.288
  0
LINE
  8
0
 10
118.444
 11
118.268
 20
128.288
 21
128.356
  0
LINE
  8
0
 10
118.268
 11
118.1
 20
128.356
 21
128.441
  0
LINE
  8
0
 10
118.1
 11
117.942
 20
128.441
 21
128.544
  0
LINE
  8
0
 10
117.942
 11
117.796
 20
128.544
 21
128.662
  0
LINE
  8
0
 10
117.796
 11
117.662
 20
128.662
 21
128.796
  0
LINE
  8
0
 10
117.662
 11
117.544
 20
128.796
 21
128.942
  0
LINE
  8
0
 10
117.544
 11
117.441
 20
128.942
 21
129.1
  0
LINE
  8
0
 10
117.441
 11
117.356
 20
129.1
 21
129.268
  0
LINE
  8
0
 10
117.356
 11
117.288
 20
129.268
 21
129.444
  0
LINE
  8
0
 10
117.288
 11
117.239
 20
129.444
 21
129.626
  0
LINE
  8
0
 10
117.239
 11
117.21
 20
129.626
 21
129.812
  0
LINE
  8
0
 10
117.21
 11
117.2
 20
129.812
 21
130
  0
LINE
  8
0
 10
164.2
 11
164.21
 20
75
 21
75.188
  0
LINE
  8
0
 10
164.21
 11
164.239
 20
75.188
 21
75.374
  0
LINE
  8
0
 10
164.239
 11
164.288
 20
75.374
 21
75.556
  0
LINE
  8
0
 10
164.288
 11
164.356
 20
75.556
 21
75.732
  0
LINE
  8
0
 10
164.356
 11
164.441
 20
75.732
 21
75.9
  0
LINE
  8
0
 10
164.441
 11
164.544
 20
75.9
 21
76.058
  0
LINE
  8
0
 10
164.544
 11
164.662
 20
76.058
 21
76.204
  0
LINE
  8
0
 10
164.662
 11
164.796
 20
76.204
 21
76.338
  0
LINE
  8
0
 10
164.796
 11
164.942
 20
76.338
 21
76.456
  0
LINE
  8
0
 10
164.942
 11
165.1
 20
76.456
 21
76.559
  0
LINE
  8
0
 10
165.1
 11
165.268
 20
76.559
 21
76.644
  0
LINE
  8
0
 10
165.268
 11
165.444
 20
76.644
 21
76.712
  0
LINE
  8
0
 10
165.444
 11
165.626
 20
76.712
 21
76.761
  0
LINE
  8
0
 10
165.626
 11
165.812
 20
76.761
 21
76.79
  0
LINE
  8
0
 10
165.812
 11
166
 20
76.79
 21
76.8
  0
LINE
  8
0
 10
166
 11
166.188
 20
76.8
 21
76.79
  0
LINE
  8
0
 10
166.188
 11
166.374
 20
76.79
 21
76.761
  0
LINE
  8
0
 10
166.374
 11
166.556
 20
76.761
 21
76.712
  0
LINE
  8
0
 10
166.556
 11
166.732
 20
76.712
 21
76.644
  0
LINE
  8
0
 10
166.732
 11
166.9
 20
76.644
 21
76.559
  0
LINE
  8
0
 10
166.9
 11
167.058
 20
76.559
 21
76.456
  0
LINE
  8
0
 10
167.058
 11
167.204
 20
76.456
 21
76.338
  0
LINE
  8
0
 10
167.204
 11
167.338
 20
76.338
 21
76.204
  0
LINE
  8
0
 10
167.338
 11
167.456
 20
76.204
 21
76.058
  0
LINE
  8
0
 10
167.456
 11
167.559
 20
76.058
 21
75.9
  0
LINE
  8
0
 10
167.559
 11
167.644
 20
75.9
 21
75.732
  0
LINE
  8
0
 10
167.644
 11
167.712
 20
75.732
 21
75.556
  0
LINE
  8
0
 10
167.712
 11
167.761
 20
75.556
 21
75.374
  0
LINE
  8
0
 10
167.761
 11
167.79
 20
75.374
 21
75.188
  0
LINE
  8
0
 10
167.79
 11
167.8
 20
75.188
 21
75
  0
LINE
  8
0
 10
167.8
 11
167.79
 20
75
 21
74.812
  0
LINE
  8
0
 10
167.79
 11
167.761
 20
74.812
 21
74.626
  0
LINE
  8
0
 10
167.761
 11
167.712
 20
74.626
 21
74.444
  0
LINE
  8
0
 10
167.712
 11
167.644
 20
74.444
 21
74.268
  0
LINE
  8
0
 10
167.644
 11
167.559
 20
74.268
 21
74.1
  0
LINE
  8
0
 10
167.559
 11
167.456
 20
74.1
 21
73.942
  0
LINE
  8
0
 10
167.456
 11
167.338
 20
73.942
 21
73.796
  0
LINE
  8
0
 10
167.338
 11
167.204
 20
73.796
 21
73.662
  0
LINE
  8
0
 10
167.204
 11
167.058
 20
73.662
 21
73.544
  0
LINE
  8
0
 10
167.058
 11
166.9
 20
73.544
 21
73.441
  0
LINE
  8
0
 10
166.9
 11
166.732
 20
73.441
 21
73.356
  0
LINE
  8
0
 10
166.732
 11
166.556
 20
73.356
 21
73.288
  0
LINE
  8
0
 10
166.556
 11
166.374
 20
73.288
 21
73.239
  0
LINE
  8
0
 10
166.374
 11
166.188
 20
73.239
 21
73.21
  0
LINE
  8
0
 10
166.188
 11
166
 20
73.21
 21
73.2
  0
LINE
  8
0
 10
166
 11
165.812
 20
73.2
 21
73.21
  0
LINE
  8
0
 10
165.812
 11
165.626
 20
73.21
 21
73.239
  0
LINE
  8
0
 10
165.626
 11
165.444
 20
73.239
 21
73.288
  0
LINE
  8
0
 10
165.444
 11
165.268
 20
73.288
 21
73.356
  0
LINE
  8
0
 10
165.268
 11
165.1
 20
73.356
 21
73.441
  0
LINE
  8
0
 10
165.1
 11
164.942
 20
73.441
 21
73.544
  0
LINE
  8
0
 10
164.942
 11
164.796
 20
73.544
 21
73.662
  0
LINE
  8
0
 10
164.796
 11
164.662
 20
73.662
 21
73.796
  0
LINE
  8
0
 10
164.662
 11
164.544
 20
73.796
 21
73.942
  0
LINE
  8
0
 10
164.544
 11
164.441
 20
73.942
 21
74.1
  0
LINE
  8
0
 10
164.441
 11
164.356
 20
74.1
 21
74.268
  0
LINE
  8
0
 10
164.356
 11
164.288
 20
74.268
 21
74.444
  0
LINE
  8
0
 10
164.288
 11
164.239
 20
74.444
 21
74.626
  0
LINE
  8
0
 10
164.239
 11
164.21
 20
74.626
 21
74.812
  0
LINE
  8
0
 10
164.21
 11
164.2
 20
74.812
 21
75
  0
LINE
  8
0
 10
164.2
 11
164.21
 20
160
 21
160.188
  0
LINE
  8
0
 10
164.21
 11
164.239
 20
160.188
 21
160.374
  0
LINE
  8
0
 10
164.239
 11
164.288
 20
160.374
 21
160.556
  0
LINE
  8
0
 10
164.288
 11
164.356
 20
160.556
 21
160.732
  0
LINE
  8
0
 10
164.356
 11
164.441
 20
160.732
 21
160.9
  0
LINE
  8
0
 10
164.441
 11
164.544
 20
160.9
 21
161.058
  0
LINE
  8
0
 10
164.544
 11
164.662
 20
161.058
 21
161.204
  0
LINE
  8
0
 10
164.662
 11
164.796
 20
161.204
 21
161.338
  0
LINE
  8
0
 10
164.796
 11
164.942
 20
161.338
 21
161.456
  0
LINE
  8
0
 10
164.942
 11
165.1
 20
161.456
 21
161.559
  0
LINE
  8
0
 10
165.1
 11
165.268
 20
161.559
 21
161.644
  0
LINE
  8
0
 10
165.268
 11
165.444
 20
161.644
 21
161.712
  0
LINE
  8
0
 10
165.444
 11
165.626
 20
161.712
 21
161.761
  0
LINE
  8
0
 10
165.626
 11
165.812
 20
161.761
 21
161.79
  0
LINE
  8
0
 10
165.812
 11
166
 20
161.79
 21
161.8
  0
LINE
  8
0
 10
166
 11
166.188
 20
161.8
 21
161.79
  0
LINE
  8
0
 10
166.188
 11
166.374
 20
161.79
 21
161.761
  0
LINE
  8
0
 10
166.374
 11
166.556
 20
161.761
 21
161.712
  0
LINE
  8
0
 10
166.556
 11
166.732
 20
161.712
 21
161.644
  0
LINE
  8
0
 10
166.732
 11
166.9
 20
161.644
 21
161.559
  0
LINE
  8
0
 10
166.9
 11
167.058
 20
161.559
 21
161.456
  0
LINE
  8
0
 10
167.058
 11
167.204
 20
161.456
 21
161.338
  0
LINE
  8
0
 10
167.204
 11
167.338
 20
161.338
 21
161.204
  0
LINE
  8
0
 10
167.338
 11
167.456
 20
161.204
 21
161.058
  0
LINE
  8
0
 10
167.456
 11
167.559
 20
161.058
 21
160.9
  0
LINE
  8
0
 10
167.559
 11
167.644
 20
160.9
 21
160.732
  0
LINE
  8
0
 10
167.644
 11
167.712
 20
160.732
 21
160.556
  0
LINE
  8
0
 10
167.712
 11
167.761
 20
160.556
 21
160.374
  0
LINE
  8
0
 10
167.761
 11
167.79
 20
160.374
 21
160.188
  0
LINE
  8
0
 10
167.79
 11
167.8
 20
160.188
 21
160
  0
LINE
  8
0
 10
167.8
 11
167.79
 20
160
 21
159.812
  0
LINE
  8
0
 10
167.79
 11
167.761
 20
159.812
 21
159.626
  0
LINE
  8
0
 10
167.761
 11
167.712
 20
159.626
 21
159.444
  0
LINE
  8
0
 10
167.712
 11
167.644
 20
159.444
 21
159.268
  0
LINE
  8
0
 10
167.644
 11
167.559
 20
159.268
 21
159.1
  0
LINE
  8
0
 10
167.559
 11
167.456
 20
159.1
 21
158.942
  0
LINE
  8
0
 10
167.456
 11
167.338
 20
158.942
 21
158.796
  0
LINE
  8
0
 10
167.338
 11
167.204
 20
158.796
 21
158.662
  0
LINE
  8
0
 10
167.204
 11
167.058
 20
158.662
 21
158.544
  0
LINE
  8
0
 10
167.058
 11
166.9
 20
158.544
 21
158.441
  0
LINE
  8
0
 10
166.9
 11
166.732
 20
158.441
 21
158.356
  0
LINE
  8
0
 10
166.732
 11
166.556
 20
158.356
 21
158.288
  0
LINE
  8
0
 10
166.556
 11
166.374
 20
158.288
 21
158.239
  0
LINE
  8
0
 10
166.374
 11
166.188
 20
158.239
 21
158.21
  0
LINE
  8
0
 10
166.188
 11
166
 20
158.21
 21
158.2
  0
LINE
  8
0
 10
166
 11
165.812
 20
158.2
 21
158.21
  0
LINE
  8
0
 10
165.812
 11
165.626
 20
158.21
 21
158.239
  0
LINE
  8
0
 10
165.626
 11
165.444
 20
158.239
 21
158.288
  0
LINE
  8
0
 10
165.444
 11
165.268
 20
158.288
 21
158.356
  0
LINE
  8
0
 10
165.268
 11
165.1
 20
158.356
 21
158.441
  0
LINE
  8
0
 10
165.1
 11
164.942
 20
158.441
 21
158.544
  0
LINE
  8
0
 10
164.942
 11
164.796
 20
158.544
 21
158.662
  0
LINE
  8
0
 10
164.796
 11
164.662
 20
158.662
 21
158.796
  0
LINE
  8
0
 10
164.662
 11
164.544
 20
158.796
 21
158.942
  0
LINE
  8
0
 10
164.544
 11
164.441
 20
158.942
 21
159.1
  0
LINE
  8
0
 10
164.441
 11
164.356
 20
159.1
 21
159.268
  0
LINE
  8
0
 10
164.356
 11
164.288
 20
159.268
 21
159.444
  0
LINE
  8
0
 10
164.288
 11
164.239
 20
159.444
 21
159.626
  0
LINE
  8
0
 10
164.239
 11
164.21
 20
159.626
 21
159.812
  0
LINE
  8
0
 10
164.21
 11
164.2
 20
159.812
 21
160
  0
LINE
  8
0
 10
0
 11
0
 20
3.95
 21
90
  0
LINE
  8
0
 10
0
 11
8.55
 20
90
 21
90
  0
LINE
  8
0
 10
8.55
 11
8.55
 20
90
 21
90.006
  0
LINE
  8
0
 10
8.55
 11
9.495
 20
90.006
 21
90.126
  0
LINE
  8
0
 10
9.495
 11
10.427
 20
90.126
 21
90.495
  0
LINE
  8
0
 10
10.427
 11
11.238
 20
90.495
 21
91.084
  0
LINE
  8
0
 10
11.238
 11
11.877
 20
91.084
 21
91.857
  0
LINE
  8
0
 10
11.877
 11
12.304
 20
91.857
 21
92.764
  0
LINE
  8
0
 10
12.304
 11
12.492
 20
92.764
 21
93.749
  0
LINE
  8
0
 10
12.492
 11
12.476
 20
93.749
 21
94
  0
LINE
  8
0
 10
12.476
 11
12.5
 20
94
 21
94
  0
LINE
  8
0
 10
12.5
 11
12.5
 20
94
 21
126.05
  0
LINE
  8
0
 10
12.5
 11
12.494
 20
126.05
 21
126.05
  0
LINE
  8
0
 10
12.494
 11
12.374
 20
126.05
 21
126.995
  0
LINE
  8
0
 10
12.374
 11
12.005
 20
126.995
 21
127.927
  0
LINE
  8
0
 10
12.005
 11
11.416
 20
127.927
 21
128.738
  0
LINE
  8
0
 10
11.416
 11
10.643
 20
128.738
 21
129.377
  0
LINE
  8
0
 10
10.643
 11
9.736
 20
129.377
 21
129.804
  0
LINE
  8
0
 10
9.736
 11
8.751
 20
129.804
 21
129.992
  0
LINE
  8
0
 10
8.751
 11
8.5
 20
129.992
 21
129.976
  0
LINE
  8
0
 10
8.5
 11
8.5
 20
129.976
 21
130
  0
LINE
  8
0
 10
8.5
 11
0
 20
130
 21
130
  0
LINE
  8
0
 10
0
 11
0
 20
130
 21
216
  0
LINE
  8
0
 10
0
 11
0.024
 20
216
 21
216
  0
LINE
  8
0
 10
0.024
 11
0.008
 20
216
 21
216.251
  0
LINE
  8
0
 10
0.008
 11
0.196
 20
216.251
 21
217.236
  0
LINE
  8
0
 10
0.196
 11
0.623
 20
217.236
 21
218.143
  0
LINE
  8
0
 10
0.623
 11
1.262
 20
218.143
 21
218.916
  0
LINE
  8
0
 10
1.262
 11
2.073
 20
218.916
 21
219.505
  0
LINE
  8
0
 10
2.073
 11
3.005
 20
219.505
 21
219.874
  0
LINE
  8
0
 10
3.005
 11
3.95
 20
219.874
 21
219.994
  0
LINE
  8
0
 10
3.95
 11
3.95
 20
219.994
 21
220
  0
LINE
  8
0
 10
3.95
 11
216
 20
220
 21
220
  0
LINE
  8
0
 10
216
 11
216
 20
220
 21
219.976
  0
LINE
  8
0
 10
216
 11
216.251
 20
219.976
 21
219.992
  0
LINE
  8
0
 10
216.251
 11
217.236
 20
219.992
 21
219.804
  0
LINE
  8
0
 10
217.236
 11
218.143
 20
219.804
 21
219.377
  0
LINE
  8
0
 10
218.143
 11
218.916
 20
219.377
 21
218.738
  0
LINE
  8
0
 10
218.916
 11
219.505
 20
218.738
 21
217.927
  0
LINE
  8
0
 10
219.505
 11
219.874
 20
217.927
 21
216.995
  0
LINE
  8
0
 10
219.874
 11
219.994
 20
216.995
 21
216.05
  0
LINE
  8
0
 10
219.994
 11
220
 20
216.05
 21
216.05
  0
LINE
  8
0
 10
220
 11
220
 20
216.05
 21
4
  0
LINE
  8
0
 10
220
 11
219.976
 20
4
 21
4
  0
LINE
  8
0
 10
219.976
 11
219.992
 20
4
 21
3.749
  0
LINE
  8
0
 10
219.992
 11
219.804
 20
3.749
 21
2.764
  0
LINE
  8
0
 10
219.804
 11
219.377
 20
2.764
 21
1.857
  0
LINE
  8
0
 10
219.377
 11
218.738
 20
1.857
 21
1.084
  0
LINE
  8
0
 10
218.738
 11
217.927
 20
1.084
 21
0.495
  0
LINE
  8
0
 10
217.927
 11
216.995
 20
0.495
 21
0.126
  0
LINE
  8
0
 10
216.995
 11
216.05
 20
0.126
 21
0.006
  0
LINE
  8
0
 10
216.05
 11
216.05
 20
0.006
 21
0
  0
LINE
  8
0
 10
216.05
 11
184.2
 20
0
 21
0
  0
LINE
  8
0
 10
184.2
 11
184.177
 20
0
 21
0.439
  0
LINE
  8
0
 10
184.177
 11
184.108
 20
0.439
 21
0.873
  0
LINE
  8
0
 10
184.108
 11
183.994
 20
0.873
 21
1.298
  0
LINE
  8
0
 10
183.994
 11
183.837
 20
1.298
 21
1.708
  0
LINE
  8
0
 10
183.837
 11
183.637
 20
1.708
 21
2.1
  0
LINE
  8
0
 10
183.637
 11
183.398
 20
2.1
 21
2.469
  0
LINE
  8
0
 10
183.398
 11
183.121
 20
2.469
 21
2.81
  0
LINE
  8
0
 10
183.121
 11
182.81
 20
2.81
 21
3.121
  0
LINE
  8
0
 10
182.81
 11
182.469
 20
3.121
 21
3.398
  0
LINE
  8
0
 10
182.469
 11
182.1
 20
3.398
 21
3.637
  0
LINE
  8
0
 10
182.1
 11
181.708
 20
3.637
 21
3.837
  0
LINE
  8
0
 10
181.708
 11
181.298
 20
3.837
 21
3.994
  0
LINE
  8
0
 10
181.298
 11
180.873
 20
3.994
 21
4.108
  0
LINE
  8
0
 10
180.873
 11
180.439
 20
4.108
 21
4.177
  0
LINE
  8
0
 10
180.439
 11
180
 20
4.177
 21
4.2
  0
LINE
  8
0
 10
180
 11
179.561
 20
4.2
 21
4.177
  0
LINE
  8
0
 10
179.561
 11
179.127
 20
4.177
 21
4.108
  0
LINE
  8
0
 10
179.127
 11
178.702
 20
4.108
 21
3.994
  0
LINE
  8
0
 10
178.702
 11
178.292
 20
3.994
 21
3.837
  0
LINE
  8
0
 10
178.292
 11
177.9
 20
3.837
 21
3.637
  0
LINE
  8
0
 10
177.9
 11
177.531
 20
3.637
 21
3.398
  0
LINE
  8
0
 10
177.531
 11
177.19
 20
3.398
 21
3.121
  0
LINE
  8
0
 10
177.19
 11
176.879
 20
3.121
 21
2.81
  0
LINE
  8
0
 10
176.879
 11
176.602
 20
2.81
 21
2.469
  0
LINE
  8
0
 10
176.602
 11
176.363
 20
2.469
 21
2.1
  0
LINE
  8
0
 10
176.363
 11
176.163
 20
2.1
 21
1.708
  0
LINE
  8
0
 10
176.163
 11
176.006
 20
1.708
 21
1.298
  0
LINE
  8
0
 10
176.006
 11
175.892
 20
1.298
 21
0.873
  0
LINE
  8
0
 10
175.892
 11
175.823
 20
0.873
 21
0.439
  0
LINE
  8
0
 10
175.823
 11
175.8
 20
0.439
 21
0
  0
LINE
  8
0
 10
175.8
 11
113
 20
0
 21
0
  0
LINE
  8
0
 10
113
 11
113
 20
0
 21
0.55
  0
LINE
  8
0
 10
113
 11
112.994
 20
0.55
 21
0.55
  0
LINE
  8
0
 10
112.994
 11
112.937
 20
0.55
 21
0.997
  0
LINE
  8
0
 10
112.937
 11
112.753
 20
0.997
 21
1.464
  0
LINE
  8
0
 10
112.753
 11
112.458
 20
1.464
 21
1.869
  0
LINE
  8
0
 10
112.458
 11
112.072
 20
1.869
 21
2.189
  0
LINE
  8
0
 10
112.072
 11
111.618
 20
2.189
 21
2.402
  0
LINE
  8
0
 10
111.618
 11
111.126
 20
2.402
 21
2.496
  0
LINE
  8
0
 10
111.126
 11
111
 20
2.496
 21
2.488
  0
LINE
  8
0
 10
111
 11
111
 20
2.488
 21
2.5
  0
LINE
  8
0
 10
111
 11
108.95
 20
2.5
 21
2.5
  0
LINE
  8
0
 10
108.95
 11
108.95
 20
2.5
 21
2.494
  0
LINE
  8
0
 10
108.95
 11
108.503
 20
2.494
 21
2.437
  0
LINE
  8
0
 10
108.503
 11
108.036
 20
2.437
 21
2.253
  0
LINE
  8
0
 10
108.036
 11
107.631
 20
2.253
 21
1.958
  0
LINE
  8
0
 10
107.631
 11
107.311
 20
1.958
 21
1.572
  0
LINE
  8
0
 10
107.311
 11
107.098
 20
1.572
 21
1.118
  0
LINE
  8
0
 10
107.098
 11
107.004
 20
1.118
 21
0.626
  0
LINE
  8
0
 10
107.004
 11
107.012
 20
0.626
 21
0.5
  0
LINE
  8
0
 10
107.012
 11
107
 20
0.5
 21
0.5
  0
LINE
  8
0
 10
107
 11
107
 20
0.5
 21
0
  0
LINE
  8
0
 10
107
 11
44.2
 20
0
 21
0
  0
LINE
  8
0
 10
44.2
 11
44.177
 20
0
 21
0.439
  0
LINE
  8
0
 10
44.177
 11
44.108
 20
0.439
 21
0.873
  0
LINE
  8
0
 10
44.108
 11
43.994
 20
0.873
 21
1.298
  0
LINE
  8
0
 10
43.994
 11
43.837
 20
1.298
 21
1.708
  0
LINE
  8
0
 10
43.837
 11
43.637
 20
1.708
 21
2.1
  0
LINE
  8
0
 10
43.637
 11
43.398
 20
2.1
 21
2.469
  0
LINE
  8
0
 10
43.398
 11
43.121
 20
2.469
 21
2.81
  0
LINE
  8
0
 10
43.121
 11
42.81
 20
2.81
 21
3.121
  0
LINE
  8
0
 10
42.81
 11
42.469
 20
3.121
 21
3.398
  0
LINE
  8
0
 10
42.469
 11
42.1
 20
3.398
 21
3.637
  0
LINE
  8
0
 10
42.1
 11
41.708
 20
3.637
 21
3.837
  0
LINE
  8
0
 10
41.708
 11
41.298
 20
3.837
 21
3.994
  0
LINE
  8
0
 10
41.298
 11
40.873
 20
3.994
 21
4.108
  0
LINE
  8
0
 10
40.873
 11
40.439
 20
4.108
 21
4.177
  0
LINE
  8
0
 10
40.439
 11
40
 20
4.177
 21
4.2
  0
LINE
  8
0
 10
40
 11
39.561
 20
4.2
 21
4.177
  0
LINE
  8
0
 10
39.561
 11
39.127
 20
4.177
 21
4.108
  0
LINE
  8
0
 10
39.127
 11
38.702
 20
4.108
 21
3.994
  0
LINE
  8
0
 10
38.702
 11
38.292
 20
3.994
 21
3.837
  0
LINE
  8
0
 10
38.292
 11
37.9
 20
3.837
 21
3.637
  0
LINE
  8
0
 10
37.9
 11
37.531
 20
3.637
 21
3.398
  0
LINE
  8
0
 10
37.531
 11
37.19
 20
3.398
 21
3.121
  0
LINE
  8
0
 10
37.19
 11
36.879
 20
3.121
 21
2.81
  0
LINE
  8
0
 10
36.879
 11
36.602
 20
2.81
 21
2.469
  0
LINE
  8
0
 10
36.602
 11
36.363
 20
2.469
 21
2.1
  0
LINE
  8
0
 10
36.363
 11
36.163
 20
2.1
 21
1.708
  0
LINE
  8
0
 10
36.163
 11
36.006
 20
1.708
 21
1.298
  0
LINE
  8
0
 10
36.006
 11
35.892
 20
1.298
 21
0.873
  0
LINE
  8
0
 10
35.892
 11
35.823
 20
0.873
 21
0.439
  0
LINE
  8
0
 10
35.823
 11
35.8
 20
0.439
 21
0
  0
LINE
  8
0
 10
35.8
 11
4
 20
0
 21
0
  0
LINE
  8
0
 10
4
 11
4
 20
0
 21
0.024
  0
LINE
  8
0
 10
4
 11
3.749
 20
0.024
 21
0.008
  0
LINE
  8
0
 10
3.749
 11
2.764
 20
0.008
 21
0.196
  0
LINE
  8
0
 10
2.764
 11
1.857
 20
0.196
 21
0.623
  0
LINE
  8
0
 10
1.857
 11
1.084
 20
0.623
 21
1.262
  0
LINE
  8
0
 10
1.084
 11
0.495
 20
1.262
 21
2.073
  0
LINE
  8
0
 10
0.495
 11
0.126
 20
2.073
 21
3.005
  0
LINE
  8
0
 10
0.126
 11
0.006
 20
3.005
 21
3.95
  0
LINE
  8
0
 10
0.006
 11
0
 20
3.95
 21
3.95
  0
LINE
  8
0
 10
192.2
 11
192.21
 20
75
 21
75.188
  0
LINE
  8
0
 10
192.21
 11
192.239
 20
75.188
 21
75.374
  0
LINE
  8
0
 10
192.239
 11
192.288
 20
75.374
 21
75.556
  0
LINE
  8
0
 10
192.288
 11
192.356
 20
75.556
 21
75.732
  0
LINE
  8
0
 10
192.356
 11
192.441
 20
75.732
 21
75.9
  0
LINE
  8
0
 10
192.441
 11
192.544
 20
75.9
 21
76.058
  0
LINE
  8
0
 10
192.544
 11
192.662
 20
76.058
 21
76.204
  0
LINE
  8
0
 10
192.662
 11
192.796
 20
76.204
 21
76.338
  0
LINE
  8
0
 10
192.796
 11
192.942
 20
76.338
 21
76.456
  0
LINE
  8
0
 10
192.942
 11
193.1
 20
76.456
 21
76.559
  0
LINE
  8
0
 10
193.1
 11
193.268
 20
76.559
 21
76.644
  0
LINE
  8
0
 10
193.268
 11
193.444
 20
76.644
 21
76.712
  0
LINE
  8
0
 10
193.444
 11
193.626
 20
76.712
 21
76.761
  0
LINE
  8
0
 10
193.626
 11
193.812
 20
76.761
 21
76.79
  0
LINE
  8
0
 10
193.812
 11
194
 20
76.79
 21
76.8
  0
LINE
  8
0
 10
194
 11
194.188
 20
76.8
 21
76.79
  0
LINE
  8
0
 10
194.188
 11
194.374
 20
76.79
 21
76.761
  0
LINE
  8
0
 10
194.374
 11
194.556
 20
76.761
 21
76.712
  0
LINE
  8
0
 10
194.556
 11
194.732
 20
76.712
 21
76.644
  0
LINE
  8
0
 10
194.732
 11
194.9
 20
76.644
 21
76.559
  0
LINE
  8
0
 10
194.9
 11
195.058
 20
76.559
 21
76.456
  0
LINE
  8
0
 10
195.058
 11
195.204
 20
76.456
 21
76.338
  0
LINE
  8
0
 10
195.204
 11
195.338
 20
76.338
 21
76.204
  0
LINE
  8
0
 10
195.338
 11
195.456
 20
76.204
 21
76.058
  0
LINE
  8
0
 10
195.456
 11
195.559
 20
76.058
 21
75.9
  0
LINE
  8
0
 10
195.559
 11
195.644
 20
75.9
 21
75.732
  0
LINE
  8
0
 10
195.644
 11
195.712
 20
75.732
 21
75.556
  0
LINE
  8
0
 10
195.712
 11
195.761
 20
75.556
 21
75.374
  0
LINE
  8
0
 10
195.761
 11
195.79
 20
75.374
 21
75.188
  0
LINE
  8
0
 10
195.79
 11
195.8
 20
75.188
 21
75
  0
LINE
  8
0
 10
195.8
 11
195.79
 20
75
 21
74.812
  0
LINE
  8
0
 10
195.79
 11
195.761
 20
74.812
 21
74.626
  0
LINE
  8
0
 10
195.761
 11
195.712
 20
74.626
 21
74.444
  0
LINE
  8
0
 10
195.712
 11
195.644
 20
74.444
 21
74.268
  0
LINE
  8
0
 10
195.644
 11
195.559
 20
74.268
 21
74.1
  0
LINE
  8
0
 10
195.559
 11
195.456
 20
74.1
 21
73.942
  0
LINE
  8
0
 10
195.456
 11
195.338
 20
73.942
 21
73.796
  0
LINE
  8
0
 10
195.338
 11
195.204
 20
73.796
 21
73.662
  0
LINE
  8
0
 10
195.204
 11
195.058
 20
73.662
 21
73.544
  0
LINE
  8
0
 10
195.058
 11
194.9
 20
73.544
 21
73.441
  0
LINE
  8
0
 10
194.9
 11
194.732
 20
73.441
 21
73.356
  0
LINE
  8
0
 10
194.732
 11
194.556
 20
73.356
 21
73.288
  0
LINE
  8
0
 10
194.556
 11
194.374
 20
73.288
 21
73.239
  0
LINE
  8
0
 10
194.374
 11
194.188
 20
73.239
 21
73.21
  0
LINE
  8
0
 10
194.188
 11
194
 20
73.21
 21
73.2
  0
LINE
  8
0
 10
194
 11
193.812
 20
73.2
 21
73.21
  0
LINE
  8
0
 10
193.812
 11
193.626
 20
73.21
 21
73.239
  0
LINE
  8
0
 10
193.626
 11
193.444
 20
73.239
 21
73.288
  0
LINE
  8
0
 10
193.444
 11
193.268
 20
73.288
 21
73.356
  0
LINE
  8
0
 10
193.268
 11
193.1
 20
73.356
 21
73.441
  0
LINE
  8
0
 10
193.1
 11
192.942
 20
73.441
 21
73.544
  0
LINE
  8
0
 10
192.942
 11
192.796
 20
73.544
 21
73.662
  0
LINE
  8
0
 10
192.796
 11
192.662
 20
73.662
 21
73.796
  0
LINE
  8
0
 10
192.662
 11
192.544
 20
73.796
 21
73.942
  0
LINE
  8
0
 10
192.544
 11
192.441
 20
73.942
 21
74.1
  0
LINE
  8
0
 10
192.441
 11
192.356
 20
74.1
 21
74.268
  0
LINE
  8
0
 10
192.356
 11
192.288
 20
74.268
 21
74.444
  0
LINE
  8
0
 10
192.288
 11
192.239
 20
74.444
 21
74.626
  0
LINE
  8
0
 10
192.239
 11
192.21
 20
74.626
 21
74.812
  0
LINE
  8
0
 10
192.21
 11
192.2
 20
74.812
 21
75
  0
LINE
  8
0
 10
192.2
 11
192.21
 20
160
 21
160.188
  0
LINE
  8
0
 10
192.21
 11
192.239
 20
160.188
 21
160.374
  0
LINE
  8
0
 10
192.239
 11
192.288
 20
160.374
 21
160.556
  0
LINE
  8
0
 10
192.288
 11
192.356
 20
160.556
 21
160.732
  0
LINE
  8
0
 10
192.356
 11
192.441
 20
160.732
 21
160.9
  0
LINE
  8
0
 10
192.441
 11
192.544
 20
160.9
 21
161.058
  0
LINE
  8
0
 10
192.544
 11
192.662
 20
161.058
 21
161.204
  0
LINE
  8
0
 10
192.662
 11
192.796
 20
161.204
 21
161.338
  0
LINE
  8
0
 10
192.796
 11
192.942
 20
161.338
 21
161.456
  0
LINE
  8
0
 10
192.942
 11
193.1
 20
161.456
 21
161.559
  0
LINE
  8
0
 10
193.1
 11
193.268
 20
161.559
 21
161.644
  0
LINE
  8
0
 10
193.268
 11
193.444
 20
161.644
 21
161.712
  0
LINE
  8
0
 10
193.444
 11
193.626
 20
161.712
 21
161.761
  0
LINE
  8
0
 10
193.626
 11
193.812
 20
161.761
 21
161.79
  0
LINE
  8
0
 10
193.812
 11
194
 20
161.79
 21
161.8
  0
LINE
  8
0
 10
194
 11
194.188
 20
161.8
 21
161.79
  0
LINE
  8
0
 10
194.188
 11
194.374
 20
161.79
 21
161.761
  0
LINE
  8
0
 10
194.374
 11
194.556
 20
161.761
 21
161.712
  0
LINE
  8
0
 10
194.556
 11
194.732
 20
161.712
 21
161.644
  0
LINE
  8
0
 10
194.732
 11
194.9
 20
161.644
 21
161.559
  0
LINE
  8
0
 10
194.9
 11
195.058
 20
161.559
 21
161.456
  0
LINE
  8
0
 10
195.058
 11
195.204
 20
161.456
 21
161.338
  0
LINE
  8
0
 10
195.204
 11
195.338
 20
161.338
 21
161.204
  0
LINE
  8
0
 10
195.338
 11
195.456
 20
161.204
 21
161.058
  0
LINE
  8
0
 10
195.456
 11
195.559
 20
161.058
 21
160.9
  0
LINE
  8
0
 10
195.559
 11
195.644
 20
160.9
 21
160.732
  0
LINE
  8
0
 10
195.644
 11
195.712
 20
160.732
 21
160.556
  0
LINE
  8
0
 10
195.712
 11
195.761
 20
160.556
 21
160.374
  0
LINE
  8
0
 10
195.761
 11
195.79
 20
160.374
 21
160.188
  0
LINE
  8
0
 10
195.79
 11
195.8
 20
160.188
 21
160
  0
LINE
  8
0
 10
195.8
 11
195.79
 20
160
 21
159.812
  0
LINE
  8
0
 10
195.79
 11
195.761
 20
159.812
 21
159.626
  0
LINE
  8
0
 10
195.761
 11
195.712
 20
159.626
 21
159.444
  0
LINE
  8
0
 10
195.712
 11
195.644
 20
159.444
 21
159.268
  0
LINE
  8
0
 10
195.644
 11
195.559
 20
159.268
 21
159.1
  0
LINE
  8
0
 10
195.559
 11
195.456
 20
159.1
 21
158.942
  0
LINE
  8
0
 10
195.456
 11
195.338
 20
158.942
 21
158.796
  0
LINE
  8
0
 10
195.338
 11
195.204
 20
158.796
 21
158.662
  0
LINE
  8
0
 10
195.204
 11
195.058
 20
158.662
 21
158.544
  0
LINE
  8
0
 10
195.058
 11
194.9
 20
158.544
 21
158.441
  0
LINE
  8
0
 10
194.9
 11
194.732
 20
158.441
 21
158.356
  0
LINE
  8
0
 10
194.732
 11
194.556
 20
158.356
 21
158.288
  0
LINE
  8
0
 10
194.556
 11
194.374
 20
158.288
 21
158.239
  0
LINE
  8
0
 10
194.374
 11
194.188
 20
158.239
 21
158.21
  0
LINE
  8
0
 10
194.188
 11
194
 20
158.21
 21
158.2
  0
LINE
  8
0
 10
194
 11
193.812
 20
158.2
 21
158.21
  0
LINE
  8
0
 10
193.812
 11
193.626
 20
158.21
 21
158.239
  0
LINE
  8
0
 10
193.626
 11
193.444
 20
158.239
 21
158.288
  0
LINE
  8
0
 10
193.444
 11
193.268
 20
158.288
 21
158.356
  0
LINE
  8
0
 10
193.268
 11
193.1
 20
158.356
 21
158.441
  0
LINE
  8
0
 10
193.1
 11
192.942
 20
158.441
 21
158.544
  0
LINE
  8
0
 10
192.942
 11
192.796
 20
158.544
 21
158.662
  0
LINE
  8
0
 10
192.796
 11
192.662
 20
158.662
 21
158.796
  0
LINE
  8
0
 10
192.662
 11
192.544
 20
158.796
 21
158.942
  0
LINE
  8
0
 10
192.544
 11
192.441
 20
158.942
 21
159.1
  0
LINE
  8
0
 10
192.441
 11
192.356
 20
159.1
 21
159.268
  0
LINE
  8
0
 10
192.356
 11
192.288
 20
159.268
 21
159.444
  0
LINE
  8
0
 10
192.288
 11
192.239
 20
159.444
 21
159.626
  0
LINE
  8
0
 10
192.239
 11
192.21
 20
159.626
 21
159.812
  0
LINE
  8
0
 10
192.21
 11
192.2
 20
159.812
 21
160
  0
LINE
  8
0
 10
213.2
 11
213.21
 20
5
 21
5.188
  0
LINE
  8
0
 10
213.21
 11
213.239
 20
5.188
 21
5.374
  0
LINE
  8
0
 10
213.239
 11
213.288
 20
5.374
 21
5.556
  0
LINE
  8
0
 10
213.288
 11
213.356
 20
5.556
 21
5.732
  0
LINE
  8
0
 10
213.356
 11
213.441
 20
5.732
 21
5.9
  0
LINE
  8
0
 10
213.441
 11
213.544
 20
5.9
 21
6.058
  0
LINE
  8
0
 10
213.544
 11
213.662
 20
6.058
 21
6.204
  0
LINE
  8
0
 10
213.662
 11
213.796
 20
6.204
 21
6.338
  0
LINE
  8
0
 10
213.796
 11
213.942
 20
6.338
 21
6.456
  0
LINE
  8
0
 10
213.942
 11
214.1
 20
6.456
 21
6.559
  0
LINE
  8
0
 10
214.1
 11
214.268
 20
6.559
 21
6.644
  0
LINE
  8
0
 10
214.268
 11
214.444
 20
6.644
 21
6.712
  0
LINE
  8
0
 10
214.444
 11
214.626
 20
6.712
 21
6.761
  0
LINE
  8
0
 10
214.626
 11
214.812
 20
6.761
 21
6.79
  0
LINE
  8
0
 10
214.812
 11
215
 20
6.79
 21
6.8
  0
LINE
  8
0
 10
215
 11
215.188
 20
6.8
 21
6.79
  0
LINE
  8
0
 10
215.188
 11
215.374
 20
6.79
 21
6.761
  0
LINE
  8
0
 10
215.374
 11
215.556
 20
6.761
 21
6.712
  0
LINE
  8
0
 10
215.556
 11
215.732
 20
6.712
 21
6.644
  0
LINE
  8
0
 10
215.732
 11
215.9
 20
6.644
 21
6.559
  0
LINE
  8
0
 10
215.9
 11
216.058
 20
6.559
 21
6.456
  0
LINE
  8
0
 10
216.058
 11
216.204
 20
6.456
 21
6.338
  0
LINE
  8
0
 10
216.204
 11
216.338
 20
6.338
 21
6.204
  0
LINE
  8
0
 10
216.338
 11
216.456
 20
6.204
 21
6.058
  0
LINE
  8
0
 10
216.456
 11
216.559
 20
6.058
 21
5.9
  0
LINE
  8
0
 10
216.559
 11
216.644
 20
5.9
 21
5.732
  0
LINE
  8
0
 10
216.644
 11
216.712
 20
5.732
 21
5.556
  0
LINE
  8
0
 10
216.712
 11
216.761
 20
5.556
 21
5.374
  0
LINE
  8
0
 10
216.761
 11
216.79
 20
5.374
 21
5.188
  0
LINE
  8
0
 10
216.79
 11
216.8
 20
5.188
 21
5
  0
LINE
  8
0
 10
216.8
 11
216.79
 20
5
 21
4.812
  0
LINE
  8
0
 10
216.79
 11
216.761
 20
4.812
 21
4.626
  0
LINE
  8
0
 10
216.761
 11
216.712
 20
4.626
 21
4.444
  0
LINE
  8
0
 10
216.712
 11
216.644
 20
4.444
 21
4.268
  0
LINE
  8
0
 10
216.644
 11
216.559
 20
4.268
 21
4.1
  0
LINE
  8
0
 10
216.559
 11
216.456
 20
4.1
 21
3.942
  0
LINE
  8
0
 10
216.456
 11
216.338
 20
3.942
 21
3.796
  0
LINE
  8
0
 10
216.338
 11
216.204
 20
3.796
 21
3.662
  0
LINE
  8
0
 10
216.204
 11
216.058
 20
3.662
 21
3.544
  0
LINE
  8
0
 10
216.058
 11
215.9
 20
3.544
 21
3.441
  0
LINE
  8
0
 10
215.9
 11
215.732
 20
3.441
 21
3.356
  0
LINE
  8
0
 10
215.732
 11
215.556
 20
3.356
 21
3.288
  0
LINE
  8
0
 10
215.556
 11
215.374
 20
3.288
 21
3.239
  0
LINE
  8
0
 10
215.374
 11
215.188
 20
3.239
 21
3.21
  0
LINE
  8
0
 10
215.188
 11
215
 20
3.21
 21
3.2
  0
LINE
  8
0
 10
215
 11
214.812
 20
3.2
 21
3.21
  0
LINE
  8
0
 10
214.812
 11
214.626
 20
3.21
 21
3.239
  0
LINE
  8
0
 10
214.626
 11
214.444
 20
3.239
 21
3.288
  0
LINE
  8
0
 10
214.444
 11
214.268
 20
3.288
 21
3.356
  0
LINE
  8
0
 10
214.268
 11
214.1
 20
3.356
 21
3.441
  0
LINE
  8
0
 10
214.1
 11
213.942
 20
3.441
 21
3.544
  0
LINE
  8
0
 10
213.942
 11
213.796
 20
3.544
 21
3.662
  0
LINE
  8
0
 10
213.796
 11
213.662
 20
3.662
 21
3.796
  0
LINE
  8
0
 10
213.662
 11
213.544
 20
3.796
 21
3.942
  0
LINE
  8
0
 10
213.544
 11
213.441
 20
3.942
 21
4.1
  0
LINE
  8
0
 10
213.441
 11
213.356
 20
4.1
 21
4.268
  0
LINE
  8
0
 10
213.356
 11
213.288
 20
4.268
 21
4.444
  0
LINE
  8
0
 10
213.288
 11
213.239
 20
4.444
 21
4.626
  0
LINE
  8
0
 10
213.239
 11
213.21
 20
4.626
 21
4.812
  0
LINE
  8
0
 10
213.21
 11
213.2
 20
4.812
 21
5
  0
LINE
  8
0
 10
213.2
 11
213.21
 20
215
 21
215.188
  0
LINE
  8
0
 10
213.21
 11
213.239
 20
215.188
 21
215.374
  0
LINE
  8
0
 10
213.239
 11
213.288
 20
215.374
 21
215.556
  0
LINE
  8
0
 10
213.288
 11
213.356
 20
215.556
 21
215.732
  0
LINE
  8
0
 10
213.356
 11
213.441
 20
215.732
 21
215.9
  0
LINE
  8
0
 10
213.441
 11
213.544
 20
215.9
 21
216.058
  0
LINE
  8
0
 10
213.544
 11
213.662
 20
216.058
 21
216.204
  0
LINE
  8
0
 10
213.662
 11
213.796
 20
216.204
 21
216.338
  0
LINE
  8
0
 10
213.796
 11
213.942
 20
216.338
 21
216.456
  0
LINE
  8
0
 10
213.942
 11
214.1
 20
216.456
 21
216.559
  0
LINE
  8
0
 10
214.1
 11
214.268
 20
216.559
 21
216.644
  0
LINE
  8
0
 10
214.268
 11
214.444
 20
216.644
 21
216.712
  0
LINE
  8
0
 10
214.444
 11
214.626
 20
216.712
 21
216.761
  0
LINE
  8
0
 10
214.626
 11
214.812
 20
216.761
 21
216.79
  0
LINE
  8
0
 10
214.812
 11
215
 20
216.79
 21
216.8
  0
LINE
  8
0
 10
215
 11
215.188
 20
216.8
 21
216.79
  0
LINE
  8
0
 10
215.188
 11
215.374
 20
216.79
 21
216.761
  0
LINE
  8
0
 10
215.374
 11
215.556
 20
216.761
 21
216.712
  0
LINE
  8
0
 10
215.556
 11
215.732
 20
216.712
 21
216.644
  0
LINE
  8
0
 10
215.732
 11
215.9
 20
216.644
 21
216.559
  0
LINE
  8
0
 10
215.9
 11
216.058
 20
216.559
 21
216.456
  0
LINE
  8
0
 10
216.058
 11
216.204
 20
216.456
 21
216.338
  0
LINE
  8
0
 10
216.204
 11
216.338
 20
216.338
 21
216.204
  0
LINE
  8
0
 10
216.338
 11
216.456
 20
216.204
 21
216.058
  0
LINE
  8
0
 10
216.456
 11
216.559
 20
216.058
 21
215.9
  0
LINE
  8
0
 10
216.559
 11
216.644
 20
215.9
 21
215.732
  0
LINE
  8
0
 10
216.644
 11
216.712
 20
215.732
 21
215.556
  0
LINE
  8
0
 10
216.712
 11
216.761
 20
215.556
 21
215.374
  0
LINE
  8
0
 10
216.761
 11
216.79
 20
215.374
 21
215.188
  0
LINE
  8
0
 10
216.79
 11
216.8
 20
215.188
 21
215
  0
LINE
  8
0
 10
216.8
 11
216.79
 20
215
 21
214.812
  0
LINE
  8
0
 10
216.79
 11
216.761
 20
214.812
 21
214.626
  0
LINE
  8
0
 10
216.761
 11
216.712
 20
214.626
 21
214.444
  0
LINE
  8
0
 10
216.712
 11
216.644
 20
214.444
 21
214.268
  0
LINE
  8
0
 10
216.644
 11
216.559
 20
214.268
 21
214.1
  0
LINE
  8
0
 10
216.559
 11
216.456
 20
214.1
 21
213.942
  0
LINE
  8
0
 10
216.456
 11
216.338
 20
213.942
 21
213.796
  0
LINE
  8
0
 10
216.338
 11
216.204
 20
213.796
 21
213.662
  0
LINE
  8
0
 10
216.204
 11
216.058
 20
213.662
 21
213.544
  0
LINE
  8
0
 10
216.058
 11
215.9
 20
213.544
 21
213.441
  0
LINE
  8
0
 10
215.9
 11
215.732
 20
213.441
 21
213.356
  0
LINE
  8
0
 10
215.732
 11
215.556
 20
213.356
 21
213.288
  0
LINE
  8
0
 10
215.556
 11
215.374
 20
213.288
 21
213.239
  0
LINE
  8
0
 10
215.374
 11
215.188
 20
213.239
 21
213.21
  0
LINE
  8
0
 10
215.188
 11
215
 20
213.21
 21
213.2
  0
LINE
  8
0
 10
215
 11
214.812
 20
213.2
 21
213.21
  0
LINE
  8
0
 10
214.812
 11
214.626
 20
213.21
 21
213.239
  0
LINE
  8
0
 10
214.626
 11
214.444
 20
213.239
 21
213.288
  0
LINE
  8
0
 10
214.444
 11
214.268
 20
213.288
 21
213.356
  0
LINE
  8
0
 10
214.268
 11
214.1
 20
213.356
 21
213.441
  0
LINE
  8
0
 10
214.1
 11
213.942
 20
213.441
 21
213.544
  0
LINE
  8
0
 10
213.942
 11
213.796
 20
213.544
 21
213.662
  0
LINE
  8
0
 10
213.796
 11
213.662
 20
213.662
 21
213.796
  0
LINE
  8
0
 10
213.662
 11
213.544
 20
213.796
 21
213.942
  0
LINE
  8
0
 10
213.544
 11
213.441
 20
213.942
 21
214.1
  0
LINE
  8
0
 10
213.441
 11
213.356
 20
214.1
 21
214.268
  0
LINE
  8
0
 10
213.356
 11
213.288
 20
214.268
 21
214.444
  0
LINE
  8
0
 10
213.288
 11
213.239
 20
214.444
 21
214.626
  0
LINE
  8
0
 10
213.239
 11
213.21
 20
214.626
 21
214.812
  0
LINE
  8
0
 10
213.21
 11
213.2
 20
214.812
 21
215
  0
ENDSEC
  0
SECTION
  2
OBJECTS
  0
DICTIONARY
  0
ENDSEC
  0
EOF
