  0
SECTION
  2
BLOCKS
  0
ENDSEC
  0
SECTION
  2
ENTITIES
  0
LINE
  8
0
 10
21.962
 11
22.021
 20
40
 21
41.884
  0
LINE
  8
0
 10
22.021
 11
22.198
 20
41.884
 21
43.76
  0
LINE
  8
0
 10
22.198
 11
22.493
 20
43.76
 21
45.621
  0
LINE
  8
0
 10
22.493
 11
22.904
 20
45.621
 21
47.461
  0
LINE
  8
0
 10
22.904
 11
23.43
 20
47.461
 21
49.271
  0
LINE
  8
0
 10
23.43
 11
24.068
 20
49.271
 21
51.044
  0
LINE
  8
0
 10
24.068
 11
24.817
 20
51.044
 21
52.773
  0
LINE
  8
0
 10
24.817
 11
24.902
 20
52.773
 21
52.94
  0
LINE
  8
0
 10
24.902
 11
24.792
 20
52.94
 21
52.94
  0
LINE
  8
0
 10
24.792
 11
165
 20
52.94
 21
295.788
  0
LINE
  8
0
 10
165
 11
160.67
 20
295.788
 21
298.288
  0
LINE
  8
0
 10
160.67
 11
165.67
 20
298.288
 21
306.949
  0
LINE
  8
0
 10
165.67
 11
170
 20
306.949
 21
304.449
  0
LINE
  8
0
 10
170
 11
176.6
 20
304.449
 21
315.88
  0
LINE
  8
0
 10
176.6
 11
183.961
 20
315.88
 21
311.63
  0
LINE
  8
0
 10
183.961
 11
183.336
 20
311.63
 21
310.548
  0
LINE
  8
0
 10
183.336
 11
185.934
 20
310.548
 21
309.048
  0
LINE
  8
0
 10
185.934
 11
186.559
 20
309.048
 21
310.13
  0
LINE
  8
0
 10
186.559
 11
190.023
 20
310.13
 21
308.13
  0
LINE
  8
0
 10
190.023
 11
191.823
 20
308.13
 21
311.248
  0
LINE
  8
0
 10
191.823
 11
188.359
 20
311.248
 21
313.248
  0
LINE
  8
0
 10
188.359
 11
188.984
 20
313.248
 21
314.33
  0
LINE
  8
0
 10
188.984
 11
186.386
 20
314.33
 21
315.83
  0
LINE
  8
0
 10
186.386
 11
185.761
 20
315.83
 21
314.748
  0
LINE
  8
0
 10
185.761
 11
178.4
 20
314.748
 21
318.998
  0
LINE
  8
0
 10
178.4
 11
185
 20
318.998
 21
330.429
  0
LINE
  8
0
 10
185
 11
180.67
 20
330.429
 21
332.929
  0
LINE
  8
0
 10
180.67
 11
185.67
 20
332.929
 21
341.59
  0
LINE
  8
0
 10
185.67
 11
190
 20
341.59
 21
339.09
  0
LINE
  8
0
 10
190
 11
209.019
 20
339.09
 21
372.032
  0
LINE
  8
0
 10
209.019
 11
210.012
 20
372.032
 21
373.634
  0
LINE
  8
0
 10
210.012
 11
211.104
 20
373.634
 21
375.17
  0
LINE
  8
0
 10
211.104
 11
212.29
 20
375.17
 21
376.635
  0
LINE
  8
0
 10
212.29
 11
213.566
 20
376.635
 21
378.022
  0
LINE
  8
0
 10
213.566
 11
214.926
 20
378.022
 21
379.326
  0
LINE
  8
0
 10
214.926
 11
216.366
 20
379.326
 21
380.543
  0
LINE
  8
0
 10
216.366
 11
217.879
 20
380.543
 21
381.666
  0
LINE
  8
0
 10
217.879
 11
219.459
 20
381.666
 21
382.693
  0
LINE
  8
0
 10
219.459
 11
221.101
 20
382.693
 21
383.618
  0
LINE
  8
0
 10
221.101
 11
222.798
 20
383.618
 21
384.438
  0
LINE
  8
0
 10
222.798
 11
224.543
 20
384.438
 21
385.15
  0
LINE
  8
0
 10
224.543
 11
226.329
 20
385.15
 21
385.752
  0
LINE
  8
0
 10
226.329
 11
228.149
 20
385.752
 21
386.239
  0
LINE
  8
0
 10
228.149
 11
229.997
 20
386.239
 21
386.612
  0
LINE
  8
0
 10
229.997
 11
231.864
 20
386.612
 21
386.868
  0
LINE
  8
0
 10
231.864
 11
233.744
 20
386.868
 21
387.006
  0
LINE
  8
0
 10
233.744
 11
235.628
 20
387.006
 21
387.025
  0
LINE
  8
0
 10
235.628
 11
237.51
 20
387.025
 21
386.927
  0
LINE
  8
0
 10
237.51
 11
239.382
 20
386.927
 21
386.71
  0
LINE
  8
0
 10
239.382
 11
241.237
 20
386.71
 21
386.376
  0
LINE
  8
0
 10
241.237
 11
243.068
 20
386.376
 21
385.927
  0
LINE
  8
0
 10
243.068
 11
244.866
 20
385.927
 21
385.363
  0
LINE
  8
0
 10
244.866
 11
246.625
 20
385.363
 21
384.688
  0
LINE
  8
0
 10
246.625
 11
248.339
 20
384.688
 21
383.903
  0
LINE
  8
0
 10
248.339
 11
250
 20
383.903
 21
383.013
  0
LINE
  8
0
 10
250
 11
251.602
 20
383.013
 21
382.02
  0
LINE
  8
0
 10
251.602
 11
253.138
 20
382.02
 21
380.928
  0
LINE
  8
0
 10
253.138
 11
254.603
 20
380.928
 21
379.742
  0
LINE
  8
0
 10
254.603
 11
255.99
 20
379.742
 21
378.466
  0
LINE
  8
0
 10
255.99
 11
257.294
 20
378.466
 21
377.106
  0
LINE
  8
0
 10
257.294
 11
258.511
 20
377.106
 21
375.666
  0
LINE
  8
0
 10
258.511
 11
259.634
 20
375.666
 21
374.153
  0
LINE
  8
0
 10
259.634
 11
259.737
 20
374.153
 21
373.996
  0
LINE
  8
0
 10
259.737
 11
259.792
 20
373.996
 21
374.092
  0
LINE
  8
0
 10
259.792
 11
280
 20
374.092
 21
339.09
  0
LINE
  8
0
 10
280
 11
284.33
 20
339.09
 21
341.59
  0
LINE
  8
0
 10
284.33
 11
289.33
 20
341.59
 21
332.929
  0
LINE
  8
0
 10
289.33
 11
285
 20
332.929
 21
330.429
  0
LINE
  8
0
 10
285
 11
291.6
 20
330.429
 21
318.998
  0
LINE
  8
0
 10
291.6
 11
284.239
 20
318.998
 21
314.748
  0
LINE
  8
0
 10
284.239
 11
283.614
 20
314.748
 21
315.83
  0
LINE
  8
0
 10
283.614
 11
281.016
 20
315.83
 21
314.33
  0
LINE
  8
0
 10
281.016
 11
281.641
 20
314.33
 21
313.248
  0
LINE
  8
0
 10
281.641
 11
278.177
 20
313.248
 21
311.248
  0
LINE
  8
0
 10
278.177
 11
279.977
 20
311.248
 21
308.13
  0
LINE
  8
0
 10
279.977
 11
283.441
 20
308.13
 21
310.13
  0
LINE
  8
0
 10
283.441
 11
284.066
 20
310.13
 21
309.048
  0
LINE
  8
0
 10
284.066
 11
286.664
 20
309.048
 21
310.548
  0
LINE
  8
0
 10
286.664
 11
286.039
 20
310.548
 21
311.63
  0
LINE
  8
0
 10
286.039
 11
293.4
 20
311.63
 21
315.88
  0
LINE
  8
0
 10
293.4
 11
300
 20
315.88
 21
304.449
  0
LINE
  8
0
 10
300
 11
304.33
 20
304.449
 21
306.949
  0
LINE
  8
0
 10
304.33
 11
309.33
 20
306.949
 21
298.288
  0
LINE
  8
0
 10
309.33
 11
305
 20
298.288
 21
295.788
  0
LINE
  8
0
 10
305
 11
445.208
 20
295.788
 21
52.94
  0
LINE
  8
0
 10
445.208
 11
445.098
 20
52.94
 21
52.94
  0
LINE
  8
0
 10
445.098
 11
445.183
 20
52.94
 21
52.773
  0
LINE
  8
0
 10
445.183
 11
445.932
 20
52.773
 21
51.044
  0
LINE
  8
0
 10
445.932
 11
446.57
 20
51.044
 21
49.271
  0
LINE
  8
0
 10
446.57
 11
447.096
 20
49.271
 21
47.461
  0
LINE
  8
0
 10
447.096
 11
447.507
 20
47.461
 21
45.621
  0
LINE
  8
0
 10
447.507
 11
447.802
 20
45.621
 21
43.76
  0
LINE
  8
0
 10
447.802
 11
447.979
 20
43.76
 21
41.884
  0
LINE
  8
0
 10
447.979
 11
448.038
 20
41.884
 21
40
  0
LINE
  8
0
 10
448.038
 11
447.979
 20
40
 21
38.116
  0
LINE
  8
0
 10
447.979
 11
447.802
 20
38.116
 21
36.24
  0
LINE
  8
0
 10
447.802
 11
447.507
 20
36.24
 21
34.379
  0
LINE
  8
0
 10
447.507
 11
447.096
 20
34.379
 21
32.539
  0
LINE
  8
0
 10
447.096
 11
446.57
 20
32.539
 21
30.729
  0
LINE
  8
0
 10
446.57
 11
445.932
 20
30.729
 21
28.956
  0
LINE
  8
0
 10
445.932
 11
445.183
 20
28.956
 21
27.227
  0
LINE
  8
0
 10
445.183
 11
444.328
 20
27.227
 21
25.547
  0
LINE
  8
0
 10
444.328
 11
443.368
 20
25.547
 21
23.925
  0
LINE
  8
0
 10
443.368
 11
442.309
 20
23.925
 21
22.366
  0
LINE
  8
0
 10
442.309
 11
441.154
 20
22.366
 21
20.877
  0
LINE
  8
0
 10
441.154
 11
439.908
 20
20.877
 21
19.464
  0
LINE
  8
0
 10
439.908
 11
438.575
 20
19.464
 21
18.131
  0
LINE
  8
0
 10
438.575
 11
437.161
 20
18.131
 21
16.885
  0
LINE
  8
0
 10
437.161
 11
435.672
 20
16.885
 21
15.729
  0
LINE
  8
0
 10
435.672
 11
434.113
 20
15.729
 21
14.67
  0
LINE
  8
0
 10
434.113
 11
432.491
 20
14.67
 21
13.711
  0
LINE
  8
0
 10
432.491
 11
430.812
 20
13.711
 21
12.855
  0
LINE
  8
0
 10
430.812
 11
429.082
 20
12.855
 21
12.107
  0
LINE
  8
0
 10
429.082
 11
427.309
 20
12.107
 21
11.468
  0
LINE
  8
0
 10
427.309
 11
425.499
 20
11.468
 21
10.943
  0
LINE
  8
0
 10
425.499
 11
423.66
 20
10.943
 21
10.531
  0
LINE
  8
0
 10
423.66
 11
421.798
 20
10.531
 21
10.237
  0
LINE
  8
0
 10
421.798
 11
420
 20
10.237
 21
10.067
  0
LINE
  8
0
 10
420
 11
420
 20
10.067
 21
0
  0
LINE
  8
0
 10
420
 11
370
 20
0
 21
0
  0
LINE
  8
0
 10
370
 11
370
 20
0
 21
10
  0
LINE
  8
0
 10
370
 11
285
 20
10
 21
10
  0
LINE
  8
0
 10
285
 11
285
 20
10
 21
0
  0
LINE
  8
0
 10
285
 11
185
 20
0
 21
0
  0
LINE
  8
0
 10
185
 11
185
 20
0
 21
10
  0
LINE
  8
0
 10
185
 11
100
 20
10
 21
10
  0
LINE
  8
0
 10
100
 11
100
 20
10
 21
0
  0
LINE
  8
0
 10
100
 11
50
 20
0
 21
0
  0
LINE
  8
0
 10
50
 11
50
 20
0
 21
10.067
  0
LINE
  8
0
 10
50
 11
48.202
 20
10.067
 21
10.237
  0
LINE
  8
0
 10
48.202
 11
46.34
 20
10.237
 21
10.531
  0
LINE
  8
0
 10
46.34
 11
44.501
 20
10.531
 21
10.943
  0
LINE
  8
0
 10
44.501
 11
42.691
 20
10.943
 21
11.468
  0
LINE
  8
0
 10
42.691
 11
40.918
 20
11.468
 21
12.107
  0
LINE
  8
0
 10
40.918
 11
39.188
 20
12.107
 21
12.855
  0
LINE
  8
0
 10
39.188
 11
37.509
 20
12.855
 21
13.711
  0
LINE
  8
0
 10
37.509
 11
35.887
 20
13.711
 21
14.67
  0
LINE
  8
0
 10
35.887
 11
34.328
 20
14.67
 21
15.729
  0
LINE
  8
0
 10
34.328
 11
32.839
 20
15.729
 21
16.885
  0
LINE
  8
0
 10
32.839
 11
31.425
 20
16.885
 21
18.131
  0
LINE
  8
0
 10
31.425
 11
30.092
 20
18.131
 21
19.464
  0
LINE
  8
0
 10
30.092
 11
28.846
 20
19.464
 21
20.877
  0
LINE
  8
0
 10
28.846
 11
27.691
 20
20.877
 21
22.366
  0
LINE
  8
0
 10
27.691
 11
26.632
 20
22.366
 21
23.925
  0
LINE
  8
0
 10
26.632
 11
25.672
 20
23.925
 21
25.547
  0
LINE
  8
0
 10
25.672
 11
24.817
 20
25.547
 21
27.227
  0
LINE
  8
0
 10
24.817
 11
24.068
 20
27.227
 21
28.956
  0
LINE
  8
0
 10
24.068
 11
23.43
 20
28.956
 21
30.729
  0
LINE
  8
0
 10
23.43
 11
22.904
 20
30.729
 21
32.539
  0
LINE
  8
0
 10
22.904
 11
22.493
 20
32.539
 21
34.379
  0
LINE
  8
0
 10
22.493
 11
22.198
 20
34.379
 21
36.24
  0
LINE
  8
0
 10
22.198
 11
22.021
 20
36.24
 21
38.116
  0
LINE
  8
0
 10
22.021
 11
21.962
 20
38.116
 21
40
  0
LINE
  8
0
 10
41.4
 11
41.831
 20
70.662
 21
72.55
  0
LINE
  8
0
 10
41.831
 11
43.038
 20
72.55
 21
74.063
  0
LINE
  8
0
 10
43.038
 11
44.782
 20
74.063
 21
74.903
  0
LINE
  8
0
 10
44.782
 11
46.718
 20
74.903
 21
74.903
  0
LINE
  8
0
 10
46.718
 11
48.462
 20
74.903
 21
74.063
  0
LINE
  8
0
 10
48.462
 11
49.669
 20
74.063
 21
72.55
  0
LINE
  8
0
 10
49.669
 11
50.1
 20
72.55
 21
70.662
  0
LINE
  8
0
 10
50.1
 11
49.669
 20
70.662
 21
68.775
  0
LINE
  8
0
 10
49.669
 11
48.462
 20
68.775
 21
67.262
  0
LINE
  8
0
 10
48.462
 11
46.718
 20
67.262
 21
66.422
  0
LINE
  8
0
 10
46.718
 11
44.782
 20
66.422
 21
66.422
  0
LINE
  8
0
 10
44.782
 11
43.038
 20
66.422
 21
67.262
  0
LINE
  8
0
 10
43.038
 11
41.831
 20
67.262
 21
68.775
  0
LINE
  8
0
 10
41.831
 11
41.4
 20
68.775
 21
70.662
  0
LINE
  8
0
 10
69.36
 11
69.37
 20
113.253
 21
113.441
  0
LINE
  8
0
 10
69.37
 11
69.4
 20
113.441
 21
113.627
  0
LINE
  8
0
 10
69.4
 11
69.448
 20
113.627
 21
113.809
  0
LINE
  8
0
 10
69.448
 11
69.516
 20
113.809
 21
113.985
  0
LINE
  8
0
 10
69.516
 11
69.601
 20
113.985
 21
114.153
  0
LINE
  8
0
 10
69.601
 11
69.704
 20
114.153
 21
114.311
  0
LINE
  8
0
 10
69.704
 11
69.823
 20
114.311
 21
114.458
  0
LINE
  8
0
 10
69.823
 11
69.956
 20
114.458
 21
114.591
  0
LINE
  8
0
 10
69.956
 11
70.102
 20
114.591
 21
114.709
  0
LINE
  8
0
 10
70.102
 11
70.26
 20
114.709
 21
114.812
  0
LINE
  8
0
 10
70.26
 11
70.428
 20
114.812
 21
114.898
  0
LINE
  8
0
 10
70.428
 11
70.604
 20
114.898
 21
114.965
  0
LINE
  8
0
 10
70.604
 11
70.786
 20
114.965
 21
115.014
  0
LINE
  8
0
 10
70.786
 11
70.972
 20
115.014
 21
115.043
  0
LINE
  8
0
 10
70.972
 11
71.16
 20
115.043
 21
115.053
  0
LINE
  8
0
 10
71.16
 11
71.348
 20
115.053
 21
115.043
  0
LINE
  8
0
 10
71.348
 11
71.534
 20
115.043
 21
115.014
  0
LINE
  8
0
 10
71.534
 11
71.716
 20
115.014
 21
114.965
  0
LINE
  8
0
 10
71.716
 11
71.892
 20
114.965
 21
114.898
  0
LINE
  8
0
 10
71.892
 11
72.06
 20
114.898
 21
114.812
  0
LINE
  8
0
 10
72.06
 11
72.218
 20
114.812
 21
114.709
  0
LINE
  8
0
 10
72.218
 11
72.365
 20
114.709
 21
114.591
  0
LINE
  8
0
 10
72.365
 11
72.498
 20
114.591
 21
114.458
  0
LINE
  8
0
 10
72.498
 11
72.616
 20
114.458
 21
114.311
  0
LINE
  8
0
 10
72.616
 11
72.719
 20
114.311
 21
114.153
  0
LINE
  8
0
 10
72.719
 11
72.805
 20
114.153
 21
113.985
  0
LINE
  8
0
 10
72.805
 11
72.872
 20
113.985
 21
113.809
  0
LINE
  8
0
 10
72.872
 11
72.921
 20
113.809
 21
113.627
  0
LINE
  8
0
 10
72.921
 11
72.95
 20
113.627
 21
113.441
  0
LINE
  8
0
 10
72.95
 11
72.96
 20
113.441
 21
113.253
  0
LINE
  8
0
 10
72.96
 11
72.95
 20
113.253
 21
113.065
  0
LINE
  8
0
 10
72.95
 11
72.921
 20
113.065
 21
112.879
  0
LINE
  8
0
 10
72.921
 11
72.872
 20
112.879
 21
112.697
  0
LINE
  8
0
 10
72.872
 11
72.805
 20
112.697
 21
112.521
  0
LINE
  8
0
 10
72.805
 11
72.719
 20
112.521
 21
112.353
  0
LINE
  8
0
 10
72.719
 11
72.616
 20
112.353
 21
112.195
  0
LINE
  8
0
 10
72.616
 11
72.498
 20
112.195
 21
112.049
  0
LINE
  8
0
 10
72.498
 11
72.365
 20
112.049
 21
111.916
  0
LINE
  8
0
 10
72.365
 11
72.218
 20
111.916
 21
111.797
  0
LINE
  8
0
 10
72.218
 11
72.06
 20
111.797
 21
111.694
  0
LINE
  8
0
 10
72.06
 11
71.892
 20
111.694
 21
111.609
  0
LINE
  8
0
 10
71.892
 11
71.716
 20
111.609
 21
111.541
  0
LINE
  8
0
 10
71.716
 11
71.534
 20
111.541
 21
111.493
  0
LINE
  8
0
 10
71.534
 11
71.348
 20
111.493
 21
111.463
  0
LINE
  8
0
 10
71.348
 11
71.16
 20
111.463
 21
111.453
  0
LINE
  8
0
 10
71.16
 11
70.972
 20
111.453
 21
111.463
  0
LINE
  8
0
 10
70.972
 11
70.786
 20
111.463
 21
111.493
  0
LINE
  8
0
 10
70.786
 11
70.604
 20
111.493
 21
111.541
  0
LINE
  8
0
 10
70.604
 11
70.428
 20
111.541
 21
111.609
  0
LINE
  8
0
 10
70.428
 11
70.26
 20
111.609
 21
111.694
  0
LINE
  8
0
 10
70.26
 11
70.102
 20
111.694
 21
111.797
  0
LINE
  8
0
 10
70.102
 11
69.956
 20
111.797
 21
111.916
  0
LINE
  8
0
 10
69.956
 11
69.823
 20
111.916
 21
112.049
  0
LINE
  8
0
 10
69.823
 11
69.704
 20
112.049
 21
112.195
  0
LINE
  8
0
 10
69.704
 11
69.601
 20
112.195
 21
112.353
  0
LINE
  8
0
 10
69.601
 11
69.516
 20
112.353
 21
112.521
  0
LINE
  8
0
 10
69.516
 11
69.448
 20
112.521
 21
112.697
  0
LINE
  8
0
 10
69.448
 11
69.4
 20
112.697
 21
112.879
  0
LINE
  8
0
 10
69.4
 11
69.37
 20
112.879
 21
113.065
  0
LINE
  8
0
 10
69.37
 11
69.36
 20
113.065
 21
113.253
  0
LINE
  8
0
 10
70.65
 11
70.674
 20
20
 21
20.455
  0
LINE
  8
0
 10
70.674
 11
70.745
 20
20.455
 21
20.904
  0
LINE
  8
0
 10
70.745
 11
70.863
 20
20.904
 21
21.344
  0
LINE
  8
0
 10
70.863
 11
71.026
 20
21.344
 21
21.769
  0
LINE
  8
0
 10
71.026
 11
71.233
 20
21.769
 21
22.175
  0
LINE
  8
0
 10
71.233
 11
71.481
 20
22.175
 21
22.557
  0
LINE
  8
0
 10
71.481
 11
71.767
 20
22.557
 21
22.911
  0
LINE
  8
0
 10
71.767
 11
72.089
 20
22.911
 21
23.233
  0
LINE
  8
0
 10
72.089
 11
72.443
 20
23.233
 21
23.519
  0
LINE
  8
0
 10
72.443
 11
72.825
 20
23.519
 21
23.767
  0
LINE
  8
0
 10
72.825
 11
73.231
 20
23.767
 21
23.974
  0
LINE
  8
0
 10
73.231
 11
73.656
 20
23.974
 21
24.137
  0
LINE
  8
0
 10
73.656
 11
74.096
 20
24.137
 21
24.255
  0
LINE
  8
0
 10
74.096
 11
74.545
 20
24.255
 21
24.326
  0
LINE
  8
0
 10
74.545
 11
75
 20
24.326
 21
24.35
  0
LINE
  8
0
 10
75
 11
75.455
 20
24.35
 21
24.326
  0
LINE
  8
0
 10
75.455
 11
75.904
 20
24.326
 21
24.255
  0
LINE
  8
0
 10
75.904
 11
76.344
 20
24.255
 21
24.137
  0
LINE
  8
0
 10
76.344
 11
76.769
 20
24.137
 21
23.974
  0
LINE
  8
0
 10
76.769
 11
77.175
 20
23.974
 21
23.767
  0
LINE
  8
0
 10
77.175
 11
77.557
 20
23.767
 21
23.519
  0
LINE
  8
0
 10
77.557
 11
77.911
 20
23.519
 21
23.233
  0
LINE
  8
0
 10
77.911
 11
78.233
 20
23.233
 21
22.911
  0
LINE
  8
0
 10
78.233
 11
78.519
 20
22.911
 21
22.557
  0
LINE
  8
0
 10
78.519
 11
78.767
 20
22.557
 21
22.175
  0
LINE
  8
0
 10
78.767
 11
78.974
 20
22.175
 21
21.769
  0
LINE
  8
0
 10
78.974
 11
79.137
 20
21.769
 21
21.344
  0
LINE
  8
0
 10
79.137
 11
79.255
 20
21.344
 21
20.904
  0
LINE
  8
0
 10
79.255
 11
79.326
 20
20.904
 21
20.455
  0
LINE
  8
0
 10
79.326
 11
79.35
 20
20.455
 21
20
  0
LINE
  8
0
 10
79.35
 11
79.326
 20
20
 21
19.545
  0
LINE
  8
0
 10
79.326
 11
79.255
 20
19.545
 21
19.096
  0
LINE
  8
0
 10
79.255
 11
79.137
 20
19.096
 21
18.656
  0
LINE
  8
0
 10
79.137
 11
78.974
 20
18.656
 21
18.231
  0
LINE
  8
0
 10
78.974
 11
78.767
 20
18.231
 21
17.825
  0
LINE
  8
0
 10
78.767
 11
78.519
 20
17.825
 21
17.443
  0
LINE
  8
0
 10
78.519
 11
78.233
 20
17.443
 21
17.089
  0
LINE
  8
0
 10
78.233
 11
77.911
 20
17.089
 21
16.767
  0
LINE
  8
0
 10
77.911
 11
77.557
 20
16.767
 21
16.481
  0
LINE
  8
0
 10
77.557
 11
77.175
 20
16.481
 21
16.233
  0
LINE
  8
0
 10
77.175
 11
76.769
 20
16.233
 21
16.026
  0
LINE
  8
0
 10
76.769
 11
76.344
 20
16.026
 21
15.863
  0
LINE
  8
0
 10
76.344
 11
75.904
 20
15.863
 21
15.745
  0
LINE
  8
0
 10
75.904
 11
75.455
 20
15.745
 21
15.674
  0
LINE
  8
0
 10
75.455
 11
75
 20
15.674
 21
15.65
  0
LINE
  8
0
 10
75
 11
74.545
 20
15.65
 21
15.674
  0
LINE
  8
0
 10
74.545
 11
74.096
 20
15.674
 21
15.745
  0
LINE
  8
0
 10
74.096
 11
73.656
 20
15.745
 21
15.863
  0
LINE
  8
0
 10
73.656
 11
73.231
 20
15.863
 21
16.026
  0
LINE
  8
0
 10
73.231
 11
72.825
 20
16.026
 21
16.233
  0
LINE
  8
0
 10
72.825
 11
72.443
 20
16.233
 21
16.481
  0
LINE
  8
0
 10
72.443
 11
72.089
 20
16.481
 21
16.767
  0
LINE
  8
0
 10
72.089
 11
71.767
 20
16.767
 21
17.089
  0
LINE
  8
0
 10
71.767
 11
71.481
 20
17.089
 21
17.443
  0
LINE
  8
0
 10
71.481
 11
71.233
 20
17.443
 21
17.825
  0
LINE
  8
0
 10
71.233
 11
71.026
 20
17.825
 21
18.231
  0
LINE
  8
0
 10
71.026
 11
70.863
 20
18.231
 21
18.656
  0
LINE
  8
0
 10
70.863
 11
70.745
 20
18.656
 21
19.096
  0
LINE
  8
0
 10
70.745
 11
70.674
 20
19.096
 21
19.545
  0
LINE
  8
0
 10
70.674
 11
70.65
 20
19.545
 21
20
  0
LINE
  8
0
 10
94.36
 11
94.37
 20
156.554
 21
156.743
  0
LINE
  8
0
 10
94.37
 11
94.4
 20
156.743
 21
156.929
  0
LINE
  8
0
 10
94.4
 11
94.448
 20
156.929
 21
157.111
  0
LINE
  8
0
 10
94.448
 11
94.516
 20
157.111
 21
157.287
  0
LINE
  8
0
 10
94.516
 11
94.601
 20
157.287
 21
157.454
  0
LINE
  8
0
 10
94.601
 11
94.704
 20
157.454
 21
157.612
  0
LINE
  8
0
 10
94.704
 11
94.823
 20
157.612
 21
157.759
  0
LINE
  8
0
 10
94.823
 11
94.956
 20
157.759
 21
157.892
  0
LINE
  8
0
 10
94.956
 11
95.102
 20
157.892
 21
158.011
  0
LINE
  8
0
 10
95.102
 11
95.26
 20
158.011
 21
158.113
  0
LINE
  8
0
 10
95.26
 11
95.428
 20
158.113
 21
158.199
  0
LINE
  8
0
 10
95.428
 11
95.604
 20
158.199
 21
158.266
  0
LINE
  8
0
 10
95.604
 11
95.786
 20
158.266
 21
158.315
  0
LINE
  8
0
 10
95.786
 11
95.972
 20
158.315
 21
158.345
  0
LINE
  8
0
 10
95.972
 11
96.16
 20
158.345
 21
158.354
  0
LINE
  8
0
 10
96.16
 11
96.348
 20
158.354
 21
158.345
  0
LINE
  8
0
 10
96.348
 11
96.534
 20
158.345
 21
158.315
  0
LINE
  8
0
 10
96.534
 11
96.716
 20
158.315
 21
158.266
  0
LINE
  8
0
 10
96.716
 11
96.892
 20
158.266
 21
158.199
  0
LINE
  8
0
 10
96.892
 11
97.06
 20
158.199
 21
158.113
  0
LINE
  8
0
 10
97.06
 11
97.218
 20
158.113
 21
158.011
  0
LINE
  8
0
 10
97.218
 11
97.365
 20
158.011
 21
157.892
  0
LINE
  8
0
 10
97.365
 11
97.498
 20
157.892
 21
157.759
  0
LINE
  8
0
 10
97.498
 11
97.616
 20
157.759
 21
157.612
  0
LINE
  8
0
 10
97.616
 11
97.719
 20
157.612
 21
157.454
  0
LINE
  8
0
 10
97.719
 11
97.805
 20
157.454
 21
157.287
  0
LINE
  8
0
 10
97.805
 11
97.872
 20
157.287
 21
157.111
  0
LINE
  8
0
 10
97.872
 11
97.921
 20
157.111
 21
156.929
  0
LINE
  8
0
 10
97.921
 11
97.95
 20
156.929
 21
156.743
  0
LINE
  8
0
 10
97.95
 11
97.96
 20
156.743
 21
156.554
  0
LINE
  8
0
 10
97.96
 11
97.95
 20
156.554
 21
156.366
  0
LINE
  8
0
 10
97.95
 11
97.921
 20
156.366
 21
156.18
  0
LINE
  8
0
 10
97.921
 11
97.872
 20
156.18
 21
155.998
  0
LINE
  8
0
 10
97.872
 11
97.805
 20
155.998
 21
155.822
  0
LINE
  8
0
 10
97.805
 11
97.719
 20
155.822
 21
155.654
  0
LINE
  8
0
 10
97.719
 11
97.616
 20
155.654
 21
155.496
  0
LINE
  8
0
 10
97.616
 11
97.498
 20
155.496
 21
155.35
  0
LINE
  8
0
 10
97.498
 11
97.365
 20
155.35
 21
155.217
  0
LINE
  8
0
 10
97.365
 11
97.218
 20
155.217
 21
155.098
  0
LINE
  8
0
 10
97.218
 11
97.06
 20
155.098
 21
154.996
  0
LINE
  8
0
 10
97.06
 11
96.892
 20
154.996
 21
154.91
  0
LINE
  8
0
 10
96.892
 11
96.716
 20
154.91
 21
154.843
  0
LINE
  8
0
 10
96.716
 11
96.534
 20
154.843
 21
154.794
  0
LINE
  8
0
 10
96.534
 11
96.348
 20
154.794
 21
154.764
  0
LINE
  8
0
 10
96.348
 11
96.16
 20
154.764
 21
154.754
  0
LINE
  8
0
 10
96.16
 11
95.972
 20
154.754
 21
154.764
  0
LINE
  8
0
 10
95.972
 11
95.786
 20
154.764
 21
154.794
  0
LINE
  8
0
 10
95.786
 11
95.604
 20
154.794
 21
154.843
  0
LINE
  8
0
 10
95.604
 11
95.428
 20
154.843
 21
154.91
  0
LINE
  8
0
 10
95.428
 11
95.26
 20
154.91
 21
154.996
  0
LINE
  8
0
 10
95.26
 11
95.102
 20
154.996
 21
155.098
  0
LINE
  8
0
 10
95.102
 11
94.956
 20
155.098
 21
155.217
  0
LINE
  8
0
 10
94.956
 11
94.823
 20
155.217
 21
155.35
  0
LINE
  8
0
 10
94.823
 11
94.704
 20
155.35
 21
155.496
  0
LINE
  8
0
 10
94.704
 11
94.601
 20
155.496
 21
155.654
  0
LINE
  8
0
 10
94.601
 11
94.516
 20
155.654
 21
155.822
  0
LINE
  8
0
 10
94.516
 11
94.448
 20
155.822
 21
155.998
  0
LINE
  8
0
 10
94.448
 11
94.4
 20
155.998
 21
156.18
  0
LINE
  8
0
 10
94.4
 11
94.37
 20
156.18
 21
156.366
  0
LINE
  8
0
 10
94.37
 11
94.36
 20
156.366
 21
156.554
  0
LINE
  8
0
 10
116.617
 11
116.617
 20
17.45
 21
22.55
  0
LINE
  8
0
 10
116.617
 11
126.717
 20
22.55
 21
22.55
  0
LINE
  8
0
 10
126.717
 11
126.717
 20
22.55
 21
17.45
  0
LINE
  8
0
 10
126.717
 11
116.617
 20
17.45
 21
17.45
  0
LINE
  8
0
 10
119.36
 11
119.37
 20
199.856
 21
200.044
  0
LINE
  8
0
 10
119.37
 11
119.4
 20
200.044
 21
200.23
  0
LINE
  8
0
 10
119.4
 11
119.448
 20
200.23
 21
200.412
  0
LINE
  8
0
 10
119.448
 11
119.516
 20
200.412
 21
200.588
  0
LINE
  8
0
 10
119.516
 11
119.601
 20
200.588
 21
200.756
  0
LINE
  8
0
 10
119.601
 11
119.704
 20
200.756
 21
200.914
  0
LINE
  8
0
 10
119.704
 11
119.823
 20
200.914
 21
201.06
  0
LINE
  8
0
 10
119.823
 11
119.956
 20
201.06
 21
201.193
  0
LINE
  8
0
 10
119.956
 11
120.102
 20
201.193
 21
201.312
  0
LINE
  8
0
 10
120.102
 11
120.26
 20
201.312
 21
201.415
  0
LINE
  8
0
 10
120.26
 11
120.428
 20
201.415
 21
201.5
  0
LINE
  8
0
 10
120.428
 11
120.604
 20
201.5
 21
201.568
  0
LINE
  8
0
 10
120.604
 11
120.786
 20
201.568
 21
201.616
  0
LINE
  8
0
 10
120.786
 11
120.972
 20
201.616
 21
201.646
  0
LINE
  8
0
 10
120.972
 11
121.16
 20
201.646
 21
201.656
  0
LINE
  8
0
 10
121.16
 11
121.348
 20
201.656
 21
201.646
  0
LINE
  8
0
 10
121.348
 11
121.534
 20
201.646
 21
201.616
  0
LINE
  8
0
 10
121.534
 11
121.716
 20
201.616
 21
201.568
  0
LINE
  8
0
 10
121.716
 11
121.892
 20
201.568
 21
201.5
  0
LINE
  8
0
 10
121.892
 11
122.06
 20
201.5
 21
201.415
  0
LINE
  8
0
 10
122.06
 11
122.218
 20
201.415
 21
201.312
  0
LINE
  8
0
 10
122.218
 11
122.365
 20
201.312
 21
201.193
  0
LINE
  8
0
 10
122.365
 11
122.498
 20
201.193
 21
201.06
  0
LINE
  8
0
 10
122.498
 11
122.616
 20
201.06
 21
200.914
  0
LINE
  8
0
 10
122.616
 11
122.719
 20
200.914
 21
200.756
  0
LINE
  8
0
 10
122.719
 11
122.805
 20
200.756
 21
200.588
  0
LINE
  8
0
 10
122.805
 11
122.872
 20
200.588
 21
200.412
  0
LINE
  8
0
 10
122.872
 11
122.921
 20
200.412
 21
200.23
  0
LINE
  8
0
 10
122.921
 11
122.95
 20
200.23
 21
200.044
  0
LINE
  8
0
 10
122.95
 11
122.96
 20
200.044
 21
199.856
  0
LINE
  8
0
 10
122.96
 11
122.95
 20
199.856
 21
199.668
  0
LINE
  8
0
 10
122.95
 11
122.921
 20
199.668
 21
199.481
  0
LINE
  8
0
 10
122.921
 11
122.872
 20
199.481
 21
199.299
  0
LINE
  8
0
 10
122.872
 11
122.805
 20
199.299
 21
199.124
  0
LINE
  8
0
 10
122.805
 11
122.719
 20
199.124
 21
198.956
  0
LINE
  8
0
 10
122.719
 11
122.616
 20
198.956
 21
198.798
  0
LINE
  8
0
 10
122.616
 11
122.498
 20
198.798
 21
198.651
  0
LINE
  8
0
 10
122.498
 11
122.365
 20
198.651
 21
198.518
  0
LINE
  8
0
 10
122.365
 11
122.218
 20
198.518
 21
198.399
  0
LINE
  8
0
 10
122.218
 11
122.06
 20
198.399
 21
198.297
  0
LINE
  8
0
 10
122.06
 11
121.892
 20
198.297
 21
198.211
  0
LINE
  8
0
 10
121.892
 11
121.716
 20
198.211
 21
198.144
  0
LINE
  8
0
 10
121.716
 11
121.534
 20
198.144
 21
198.095
  0
LINE
  8
0
 10
121.534
 11
121.348
 20
198.095
 21
198.066
  0
LINE
  8
0
 10
121.348
 11
121.16
 20
198.066
 21
198.056
  0
LINE
  8
0
 10
121.16
 11
120.972
 20
198.056
 21
198.066
  0
LINE
  8
0
 10
120.972
 11
120.786
 20
198.066
 21
198.095
  0
LINE
  8
0
 10
120.786
 11
120.604
 20
198.095
 21
198.144
  0
LINE
  8
0
 10
120.604
 11
120.428
 20
198.144
 21
198.211
  0
LINE
  8
0
 10
120.428
 11
120.26
 20
198.211
 21
198.297
  0
LINE
  8
0
 10
120.26
 11
120.102
 20
198.297
 21
198.399
  0
LINE
  8
0
 10
120.102
 11
119.956
 20
198.399
 21
198.518
  0
LINE
  8
0
 10
119.956
 11
119.823
 20
198.518
 21
198.651
  0
LINE
  8
0
 10
119.823
 11
119.704
 20
198.651
 21
198.798
  0
LINE
  8
0
 10
119.704
 11
119.601
 20
198.798
 21
198.956
  0
LINE
  8
0
 10
119.601
 11
119.516
 20
198.956
 21
199.124
  0
LINE
  8
0
 10
119.516
 11
119.448
 20
199.124
 21
199.299
  0
LINE
  8
0
 10
119.448
 11
119.4
 20
199.299
 21
199.481
  0
LINE
  8
0
 10
119.4
 11
119.37
 20
199.481
 21
199.668
  0
LINE
  8
0
 10
119.37
 11
119.36
 20
199.668
 21
199.856
  0
LINE
  8
0
 10
139.867
 11
139.877
 20
20
 21
20.188
  0
LINE
  8
0
 10
139.877
 11
139.906
 20
20.188
 21
20.374
  0
LINE
  8
0
 10
139.906
 11
139.955
 20
20.374
 21
20.556
  0
LINE
  8
0
 10
139.955
 11
140.022
 20
20.556
 21
20.732
  0
LINE
  8
0
 10
140.022
 11
140.108
 20
20.732
 21
20.9
  0
LINE
  8
0
 10
140.108
 11
140.21
 20
20.9
 21
21.058
  0
LINE
  8
0
 10
140.21
 11
140.329
 20
21.058
 21
21.204
  0
LINE
  8
0
 10
140.329
 11
140.462
 20
21.204
 21
21.338
  0
LINE
  8
0
 10
140.462
 11
140.609
 20
21.338
 21
21.456
  0
LINE
  8
0
 10
140.609
 11
140.767
 20
21.456
 21
21.559
  0
LINE
  8
0
 10
140.767
 11
140.935
 20
21.559
 21
21.644
  0
LINE
  8
0
 10
140.935
 11
141.11
 20
21.644
 21
21.712
  0
LINE
  8
0
 10
141.11
 11
141.292
 20
21.712
 21
21.761
  0
LINE
  8
0
 10
141.292
 11
141.479
 20
21.761
 21
21.79
  0
LINE
  8
0
 10
141.479
 11
141.667
 20
21.79
 21
21.8
  0
LINE
  8
0
 10
141.667
 11
141.855
 20
21.8
 21
21.79
  0
LINE
  8
0
 10
141.855
 11
142.041
 20
21.79
 21
21.761
  0
LINE
  8
0
 10
142.041
 11
142.223
 20
21.761
 21
21.712
  0
LINE
  8
0
 10
142.223
 11
142.399
 20
21.712
 21
21.644
  0
LINE
  8
0
 10
142.399
 11
142.567
 20
21.644
 21
21.559
  0
LINE
  8
0
 10
142.567
 11
142.725
 20
21.559
 21
21.456
  0
LINE
  8
0
 10
142.725
 11
142.871
 20
21.456
 21
21.338
  0
LINE
  8
0
 10
142.871
 11
143.004
 20
21.338
 21
21.204
  0
LINE
  8
0
 10
143.004
 11
143.123
 20
21.204
 21
21.058
  0
LINE
  8
0
 10
143.123
 11
143.226
 20
21.058
 21
20.9
  0
LINE
  8
0
 10
143.226
 11
143.311
 20
20.9
 21
20.732
  0
LINE
  8
0
 10
143.311
 11
143.379
 20
20.732
 21
20.556
  0
LINE
  8
0
 10
143.379
 11
143.427
 20
20.556
 21
20.374
  0
LINE
  8
0
 10
143.427
 11
143.457
 20
20.374
 21
20.188
  0
LINE
  8
0
 10
143.457
 11
143.467
 20
20.188
 21
20
  0
LINE
  8
0
 10
143.467
 11
143.457
 20
20
 21
19.812
  0
LINE
  8
0
 10
143.457
 11
143.427
 20
19.812
 21
19.626
  0
LINE
  8
0
 10
143.427
 11
143.379
 20
19.626
 21
19.444
  0
LINE
  8
0
 10
143.379
 11
143.311
 20
19.444
 21
19.268
  0
LINE
  8
0
 10
143.311
 11
143.226
 20
19.268
 21
19.1
  0
LINE
  8
0
 10
143.226
 11
143.123
 20
19.1
 21
18.942
  0
LINE
  8
0
 10
143.123
 11
143.004
 20
18.942
 21
18.796
  0
LINE
  8
0
 10
143.004
 11
142.871
 20
18.796
 21
18.662
  0
LINE
  8
0
 10
142.871
 11
142.725
 20
18.662
 21
18.544
  0
LINE
  8
0
 10
142.725
 11
142.567
 20
18.544
 21
18.441
  0
LINE
  8
0
 10
142.567
 11
142.399
 20
18.441
 21
18.356
  0
LINE
  8
0
 10
142.399
 11
142.223
 20
18.356
 21
18.288
  0
LINE
  8
0
 10
142.223
 11
142.041
 20
18.288
 21
18.239
  0
LINE
  8
0
 10
142.041
 11
141.855
 20
18.239
 21
18.21
  0
LINE
  8
0
 10
141.855
 11
141.667
 20
18.21
 21
18.2
  0
LINE
  8
0
 10
141.667
 11
141.479
 20
18.2
 21
18.21
  0
LINE
  8
0
 10
141.479
 11
141.292
 20
18.21
 21
18.239
  0
LINE
  8
0
 10
141.292
 11
141.11
 20
18.239
 21
18.288
  0
LINE
  8
0
 10
141.11
 11
140.935
 20
18.288
 21
18.356
  0
LINE
  8
0
 10
140.935
 11
140.767
 20
18.356
 21
18.441
  0
LINE
  8
0
 10
140.767
 11
140.609
 20
18.441
 21
18.544
  0
LINE
  8
0
 10
140.609
 11
140.462
 20
18.544
 21
18.662
  0
LINE
  8
0
 10
140.462
 11
140.329
 20
18.662
 21
18.796
  0
LINE
  8
0
 10
140.329
 11
140.21
 20
18.796
 21
18.942
  0
LINE
  8
0
 10
140.21
 11
140.108
 20
18.942
 21
19.1
  0
LINE
  8
0
 10
140.108
 11
140.022
 20
19.1
 21
19.268
  0
LINE
  8
0
 10
140.022
 11
139.955
 20
19.268
 21
19.444
  0
LINE
  8
0
 10
139.955
 11
139.906
 20
19.444
 21
19.626
  0
LINE
  8
0
 10
139.906
 11
139.877
 20
19.626
 21
19.812
  0
LINE
  8
0
 10
139.877
 11
139.867
 20
19.812
 21
20
  0
LINE
  8
0
 10
144.36
 11
144.37
 20
243.157
 21
243.345
  0
LINE
  8
0
 10
144.37
 11
144.4
 20
243.345
 21
243.531
  0
LINE
  8
0
 10
144.4
 11
144.448
 20
243.531
 21
243.713
  0
LINE
  8
0
 10
144.448
 11
144.516
 20
243.713
 21
243.889
  0
LINE
  8
0
 10
144.516
 11
144.601
 20
243.889
 21
244.057
  0
LINE
  8
0
 10
144.601
 11
144.704
 20
244.057
 21
244.215
  0
LINE
  8
0
 10
144.704
 11
144.823
 20
244.215
 21
244.361
  0
LINE
  8
0
 10
144.823
 11
144.956
 20
244.361
 21
244.495
  0
LINE
  8
0
 10
144.956
 11
145.102
 20
244.495
 21
244.613
  0
LINE
  8
0
 10
145.102
 11
145.26
 20
244.613
 21
244.716
  0
LINE
  8
0
 10
145.26
 11
145.428
 20
244.716
 21
244.801
  0
LINE
  8
0
 10
145.428
 11
145.604
 20
244.801
 21
244.869
  0
LINE
  8
0
 10
145.604
 11
145.786
 20
244.869
 21
244.918
  0
LINE
  8
0
 10
145.786
 11
145.972
 20
244.918
 21
244.947
  0
LINE
  8
0
 10
145.972
 11
146.16
 20
244.947
 21
244.957
  0
LINE
  8
0
 10
146.16
 11
146.348
 20
244.957
 21
244.947
  0
LINE
  8
0
 10
146.348
 11
146.534
 20
244.947
 21
244.918
  0
LINE
  8
0
 10
146.534
 11
146.716
 20
244.918
 21
244.869
  0
LINE
  8
0
 10
146.716
 11
146.892
 20
244.869
 21
244.801
  0
LINE
  8
0
 10
146.892
 11
147.06
 20
244.801
 21
244.716
  0
LINE
  8
0
 10
147.06
 11
147.218
 20
244.716
 21
244.613
  0
LINE
  8
0
 10
147.218
 11
147.365
 20
244.613
 21
244.495
  0
LINE
  8
0
 10
147.365
 11
147.498
 20
244.495
 21
244.361
  0
LINE
  8
0
 10
147.498
 11
147.616
 20
244.361
 21
244.215
  0
LINE
  8
0
 10
147.616
 11
147.719
 20
244.215
 21
244.057
  0
LINE
  8
0
 10
147.719
 11
147.805
 20
244.057
 21
243.889
  0
LINE
  8
0
 10
147.805
 11
147.872
 20
243.889
 21
243.713
  0
LINE
  8
0
 10
147.872
 11
147.921
 20
243.713
 21
243.531
  0
LINE
  8
0
 10
147.921
 11
147.95
 20
243.531
 21
243.345
  0
LINE
  8
0
 10
147.95
 11
147.96
 20
243.345
 21
243.157
  0
LINE
  8
0
 10
147.96
 11
147.95
 20
243.157
 21
242.969
  0
LINE
  8
0
 10
147.95
 11
147.921
 20
242.969
 21
242.783
  0
LINE
  8
0
 10
147.921
 11
147.872
 20
242.783
 21
242.601
  0
LINE
  8
0
 10
147.872
 11
147.805
 20
242.601
 21
242.425
  0
LINE
  8
0
 10
147.805
 11
147.719
 20
242.425
 21
242.257
  0
LINE
  8
0
 10
147.719
 11
147.616
 20
242.257
 21
242.099
  0
LINE
  8
0
 10
147.616
 11
147.498
 20
242.099
 21
241.953
  0
LINE
  8
0
 10
147.498
 11
147.365
 20
241.953
 21
241.819
  0
LINE
  8
0
 10
147.365
 11
147.218
 20
241.819
 21
241.701
  0
LINE
  8
0
 10
147.218
 11
147.06
 20
241.701
 21
241.598
  0
LINE
  8
0
 10
147.06
 11
146.892
 20
241.598
 21
241.513
  0
LINE
  8
0
 10
146.892
 11
146.716
 20
241.513
 21
241.445
  0
LINE
  8
0
 10
146.716
 11
146.534
 20
241.445
 21
241.396
  0
LINE
  8
0
 10
146.534
 11
146.348
 20
241.396
 21
241.367
  0
LINE
  8
0
 10
146.348
 11
146.16
 20
241.367
 21
241.357
  0
LINE
  8
0
 10
146.16
 11
145.972
 20
241.357
 21
241.367
  0
LINE
  8
0
 10
145.972
 11
145.786
 20
241.367
 21
241.396
  0
LINE
  8
0
 10
145.786
 11
145.604
 20
241.396
 21
241.445
  0
LINE
  8
0
 10
145.604
 11
145.428
 20
241.445
 21
241.513
  0
LINE
  8
0
 10
145.428
 11
145.26
 20
241.513
 21
241.598
  0
LINE
  8
0
 10
145.26
 11
145.102
 20
241.598
 21
241.701
  0
LINE
  8
0
 10
145.102
 11
144.956
 20
241.701
 21
241.819
  0
LINE
  8
0
 10
144.956
 11
144.823
 20
241.819
 21
241.953
  0
LINE
  8
0
 10
144.823
 11
144.704
 20
241.953
 21
242.099
  0
LINE
  8
0
 10
144.704
 11
144.601
 20
242.099
 21
242.257
  0
LINE
  8
0
 10
144.601
 11
144.516
 20
242.257
 21
242.425
  0
LINE
  8
0
 10
144.516
 11
144.448
 20
242.425
 21
242.601
  0
LINE
  8
0
 10
144.448
 11
144.4
 20
242.601
 21
242.783
  0
LINE
  8
0
 10
144.4
 11
144.37
 20
242.783
 21
242.969
  0
LINE
  8
0
 10
144.37
 11
144.36
 20
242.969
 21
243.157
  0
LINE
  8
0
 10
156.617
 11
156.617
 20
17.45
 21
22.55
  0
LINE
  8
0
 10
156.617
 11
166.717
 20
22.55
 21
22.55
  0
LINE
  8
0
 10
166.717
 11
166.717
 20
22.55
 21
17.45
  0
LINE
  8
0
 10
166.717
 11
156.617
 20
17.45
 21
17.45
  0
LINE
  8
0
 10
173.2
 11
173.21
 20
85
 21
85.188
  0
LINE
  8
0
 10
173.21
 11
173.239
 20
85.188
 21
85.374
  0
LINE
  8
0
 10
173.239
 11
173.288
 20
85.374
 21
85.556
  0
LINE
  8
0
 10
173.288
 11
173.356
 20
85.556
 21
85.732
  0
LINE
  8
0
 10
173.356
 11
173.441
 20
85.732
 21
85.9
  0
LINE
  8
0
 10
173.441
 11
173.544
 20
85.9
 21
86.058
  0
LINE
  8
0
 10
173.544
 11
173.662
 20
86.058
 21
86.204
  0
LINE
  8
0
 10
173.662
 11
173.796
 20
86.204
 21
86.338
  0
LINE
  8
0
 10
173.796
 11
173.942
 20
86.338
 21
86.456
  0
LINE
  8
0
 10
173.942
 11
174.1
 20
86.456
 21
86.559
  0
LINE
  8
0
 10
174.1
 11
174.268
 20
86.559
 21
86.644
  0
LINE
  8
0
 10
174.268
 11
174.444
 20
86.644
 21
86.712
  0
LINE
  8
0
 10
174.444
 11
174.626
 20
86.712
 21
86.761
  0
LINE
  8
0
 10
174.626
 11
174.812
 20
86.761
 21
86.79
  0
LINE
  8
0
 10
174.812
 11
175
 20
86.79
 21
86.8
  0
LINE
  8
0
 10
175
 11
175.188
 20
86.8
 21
86.79
  0
LINE
  8
0
 10
175.188
 11
175.374
 20
86.79
 21
86.761
  0
LINE
  8
0
 10
175.374
 11
175.556
 20
86.761
 21
86.712
  0
LINE
  8
0
 10
175.556
 11
175.732
 20
86.712
 21
86.644
  0
LINE
  8
0
 10
175.732
 11
175.9
 20
86.644
 21
86.559
  0
LINE
  8
0
 10
175.9
 11
176.058
 20
86.559
 21
86.456
  0
LINE
  8
0
 10
176.058
 11
176.204
 20
86.456
 21
86.338
  0
LINE
  8
0
 10
176.204
 11
176.338
 20
86.338
 21
86.204
  0
LINE
  8
0
 10
176.338
 11
176.456
 20
86.204
 21
86.058
  0
LINE
  8
0
 10
176.456
 11
176.559
 20
86.058
 21
85.9
  0
LINE
  8
0
 10
176.559
 11
176.644
 20
85.9
 21
85.732
  0
LINE
  8
0
 10
176.644
 11
176.712
 20
85.732
 21
85.556
  0
LINE
  8
0
 10
176.712
 11
176.761
 20
85.556
 21
85.374
  0
LINE
  8
0
 10
176.761
 11
176.79
 20
85.374
 21
85.188
  0
LINE
  8
0
 10
176.79
 11
176.8
 20
85.188
 21
85
  0
LINE
  8
0
 10
176.8
 11
176.79
 20
85
 21
84.812
  0
LINE
  8
0
 10
176.79
 11
176.761
 20
84.812
 21
84.626
  0
LINE
  8
0
 10
176.761
 11
176.712
 20
84.626
 21
84.444
  0
LINE
  8
0
 10
176.712
 11
176.644
 20
84.444
 21
84.268
  0
LINE
  8
0
 10
176.644
 11
176.559
 20
84.268
 21
84.1
  0
LINE
  8
0
 10
176.559
 11
176.456
 20
84.1
 21
83.942
  0
LINE
  8
0
 10
176.456
 11
176.338
 20
83.942
 21
83.796
  0
LINE
  8
0
 10
176.338
 11
176.204
 20
83.796
 21
83.662
  0
LINE
  8
0
 10
176.204
 11
176.058
 20
83.662
 21
83.544
  0
LINE
  8
0
 10
176.058
 11
175.9
 20
83.544
 21
83.441
  0
LINE
  8
0
 10
175.9
 11
175.732
 20
83.441
 21
83.356
  0
LINE
  8
0
 10
175.732
 11
175.556
 20
83.356
 21
83.288
  0
LINE
  8
0
 10
175.556
 11
175.374
 20
83.288
 21
83.239
  0
LINE
  8
0
 10
175.374
 11
175.188
 20
83.239
 21
83.21
  0
LINE
  8
0
 10
175.188
 11
175
 20
83.21
 21
83.2
  0
LINE
  8
0
 10
175
 11
174.812
 20
83.2
 21
83.21
  0
LINE
  8
0
 10
174.812
 11
174.626
 20
83.21
 21
83.239
  0
LINE
  8
0
 10
174.626
 11
174.444
 20
83.239
 21
83.288
  0
LINE
  8
0
 10
174.444
 11
174.268
 20
83.288
 21
83.356
  0
LINE
  8
0
 10
174.268
 11
174.1
 20
83.356
 21
83.441
  0
LINE
  8
0
 10
174.1
 11
173.942
 20
83.441
 21
83.544
  0
LINE
  8
0
 10
173.942
 11
173.796
 20
83.544
 21
83.662
  0
LINE
  8
0
 10
173.796
 11
173.662
 20
83.662
 21
83.796
  0
LINE
  8
0
 10
173.662
 11
173.544
 20
83.796
 21
83.942
  0
LINE
  8
0
 10
173.544
 11
173.441
 20
83.942
 21
84.1
  0
LINE
  8
0
 10
173.441
 11
173.356
 20
84.1
 21
84.268
  0
LINE
  8
0
 10
173.356
 11
173.288
 20
84.268
 21
84.444
  0
LINE
  8
0
 10
173.288
 11
173.239
 20
84.444
 21
84.626
  0
LINE
  8
0
 10
173.239
 11
173.21
 20
84.626
 21
84.812
  0
LINE
  8
0
 10
173.21
 11
173.2
 20
84.812
 21
85
  0
LINE
  8
0
 10
173.2
 11
173.21
 20
135
 21
135.188
  0
LINE
  8
0
 10
173.21
 11
173.239
 20
135.188
 21
135.374
  0
LINE
  8
0
 10
173.239
 11
173.288
 20
135.374
 21
135.556
  0
LINE
  8
0
 10
173.288
 11
173.356
 20
135.556
 21
135.732
  0
LINE
  8
0
 10
173.356
 11
173.441
 20
135.732
 21
135.9
  0
LINE
  8
0
 10
173.441
 11
173.544
 20
135.9
 21
136.058
  0
LINE
  8
0
 10
173.544
 11
173.662
 20
136.058
 21
136.204
  0
LINE
  8
0
 10
173.662
 11
173.796
 20
136.204
 21
136.338
  0
LINE
  8
0
 10
173.796
 11
173.942
 20
136.338
 21
136.456
  0
LINE
  8
0
 10
173.942
 11
174.1
 20
136.456
 21
136.559
  0
LINE
  8
0
 10
174.1
 11
174.268
 20
136.559
 21
136.644
  0
LINE
  8
0
 10
174.268
 11
174.444
 20
136.644
 21
136.712
  0
LINE
  8
0
 10
174.444
 11
174.626
 20
136.712
 21
136.761
  0
LINE
  8
0
 10
174.626
 11
174.812
 20
136.761
 21
136.79
  0
LINE
  8
0
 10
174.812
 11
175
 20
136.79
 21
136.8
  0
LINE
  8
0
 10
175
 11
175.188
 20
136.8
 21
136.79
  0
LINE
  8
0
 10
175.188
 11
175.374
 20
136.79
 21
136.761
  0
LINE
  8
0
 10
175.374
 11
175.556
 20
136.761
 21
136.712
  0
LINE
  8
0
 10
175.556
 11
175.732
 20
136.712
 21
136.644
  0
LINE
  8
0
 10
175.732
 11
175.9
 20
136.644
 21
136.559
  0
LINE
  8
0
 10
175.9
 11
176.058
 20
136.559
 21
136.456
  0
LINE
  8
0
 10
176.058
 11
176.204
 20
136.456
 21
136.338
  0
LINE
  8
0
 10
176.204
 11
176.338
 20
136.338
 21
136.204
  0
LINE
  8
0
 10
176.338
 11
176.456
 20
136.204
 21
136.058
  0
LINE
  8
0
 10
176.456
 11
176.559
 20
136.058
 21
135.9
  0
LINE
  8
0
 10
176.559
 11
176.644
 20
135.9
 21
135.732
  0
LINE
  8
0
 10
176.644
 11
176.712
 20
135.732
 21
135.556
  0
LINE
  8
0
 10
176.712
 11
176.761
 20
135.556
 21
135.374
  0
LINE
  8
0
 10
176.761
 11
176.79
 20
135.374
 21
135.188
  0
LINE
  8
0
 10
176.79
 11
176.8
 20
135.188
 21
135
  0
LINE
  8
0
 10
176.8
 11
176.79
 20
135
 21
134.812
  0
LINE
  8
0
 10
176.79
 11
176.761
 20
134.812
 21
134.626
  0
LINE
  8
0
 10
176.761
 11
176.712
 20
134.626
 21
134.444
  0
LINE
  8
0
 10
176.712
 11
176.644
 20
134.444
 21
134.268
  0
LINE
  8
0
 10
176.644
 11
176.559
 20
134.268
 21
134.1
  0
LINE
  8
0
 10
176.559
 11
176.456
 20
134.1
 21
133.942
  0
LINE
  8
0
 10
176.456
 11
176.338
 20
133.942
 21
133.796
  0
LINE
  8
0
 10
176.338
 11
176.204
 20
133.796
 21
133.662
  0
LINE
  8
0
 10
176.204
 11
176.058
 20
133.662
 21
133.544
  0
LINE
  8
0
 10
176.058
 11
175.9
 20
133.544
 21
133.441
  0
LINE
  8
0
 10
175.9
 11
175.732
 20
133.441
 21
133.356
  0
LINE
  8
0
 10
175.732
 11
175.556
 20
133.356
 21
133.288
  0
LINE
  8
0
 10
175.556
 11
175.374
 20
133.288
 21
133.239
  0
LINE
  8
0
 10
175.374
 11
175.188
 20
133.239
 21
133.21
  0
LINE
  8
0
 10
175.188
 11
175
 20
133.21
 21
133.2
  0
LINE
  8
0
 10
175
 11
174.812
 20
133.2
 21
133.21
  0
LINE
  8
0
 10
174.812
 11
174.626
 20
133.21
 21
133.239
  0
LINE
  8
0
 10
174.626
 11
174.444
 20
133.239
 21
133.288
  0
LINE
  8
0
 10
174.444
 11
174.268
 20
133.288
 21
133.356
  0
LINE
  8
0
 10
174.268
 11
174.1
 20
133.356
 21
133.441
  0
LINE
  8
0
 10
174.1
 11
173.942
 20
133.441
 21
133.544
  0
LINE
  8
0
 10
173.942
 11
173.796
 20
133.544
 21
133.662
  0
LINE
  8
0
 10
173.796
 11
173.662
 20
133.662
 21
133.796
  0
LINE
  8
0
 10
173.662
 11
173.544
 20
133.796
 21
133.942
  0
LINE
  8
0
 10
173.544
 11
173.441
 20
133.942
 21
134.1
  0
LINE
  8
0
 10
173.441
 11
173.356
 20
134.1
 21
134.268
  0
LINE
  8
0
 10
173.356
 11
173.288
 20
134.268
 21
134.444
  0
LINE
  8
0
 10
173.288
 11
173.239
 20
134.444
 21
134.626
  0
LINE
  8
0
 10
173.239
 11
173.21
 20
134.626
 21
134.812
  0
LINE
  8
0
 10
173.21
 11
173.2
 20
134.812
 21
135
  0
LINE
  8
0
 10
173.2
 11
173.21
 20
185
 21
185.188
  0
LINE
  8
0
 10
173.21
 11
173.239
 20
185.188
 21
185.374
  0
LINE
  8
0
 10
173.239
 11
173.288
 20
185.374
 21
185.556
  0
LINE
  8
0
 10
173.288
 11
173.356
 20
185.556
 21
185.732
  0
LINE
  8
0
 10
173.356
 11
173.441
 20
185.732
 21
185.9
  0
LINE
  8
0
 10
173.441
 11
173.544
 20
185.9
 21
186.058
  0
LINE
  8
0
 10
173.544
 11
173.662
 20
186.058
 21
186.204
  0
LINE
  8
0
 10
173.662
 11
173.796
 20
186.204
 21
186.338
  0
LINE
  8
0
 10
173.796
 11
173.942
 20
186.338
 21
186.456
  0
LINE
  8
0
 10
173.942
 11
174.1
 20
186.456
 21
186.559
  0
LINE
  8
0
 10
174.1
 11
174.268
 20
186.559
 21
186.644
  0
LINE
  8
0
 10
174.268
 11
174.444
 20
186.644
 21
186.712
  0
LINE
  8
0
 10
174.444
 11
174.626
 20
186.712
 21
186.761
  0
LINE
  8
0
 10
174.626
 11
174.812
 20
186.761
 21
186.79
  0
LINE
  8
0
 10
174.812
 11
175
 20
186.79
 21
186.8
  0
LINE
  8
0
 10
175
 11
175.188
 20
186.8
 21
186.79
  0
LINE
  8
0
 10
175.188
 11
175.374
 20
186.79
 21
186.761
  0
LINE
  8
0
 10
175.374
 11
175.556
 20
186.761
 21
186.712
  0
LINE
  8
0
 10
175.556
 11
175.732
 20
186.712
 21
186.644
  0
LINE
  8
0
 10
175.732
 11
175.9
 20
186.644
 21
186.559
  0
LINE
  8
0
 10
175.9
 11
176.058
 20
186.559
 21
186.456
  0
LINE
  8
0
 10
176.058
 11
176.204
 20
186.456
 21
186.338
  0
LINE
  8
0
 10
176.204
 11
176.338
 20
186.338
 21
186.204
  0
LINE
  8
0
 10
176.338
 11
176.456
 20
186.204
 21
186.058
  0
LINE
  8
0
 10
176.456
 11
176.559
 20
186.058
 21
185.9
  0
LINE
  8
0
 10
176.559
 11
176.644
 20
185.9
 21
185.732
  0
LINE
  8
0
 10
176.644
 11
176.712
 20
185.732
 21
185.556
  0
LINE
  8
0
 10
176.712
 11
176.761
 20
185.556
 21
185.374
  0
LINE
  8
0
 10
176.761
 11
176.79
 20
185.374
 21
185.188
  0
LINE
  8
0
 10
176.79
 11
176.8
 20
185.188
 21
185
  0
LINE
  8
0
 10
176.8
 11
176.79
 20
185
 21
184.812
  0
LINE
  8
0
 10
176.79
 11
176.761
 20
184.812
 21
184.626
  0
LINE
  8
0
 10
176.761
 11
176.712
 20
184.626
 21
184.444
  0
LINE
  8
0
 10
176.712
 11
176.644
 20
184.444
 21
184.268
  0
LINE
  8
0
 10
176.644
 11
176.559
 20
184.268
 21
184.1
  0
LINE
  8
0
 10
176.559
 11
176.456
 20
184.1
 21
183.942
  0
LINE
  8
0
 10
176.456
 11
176.338
 20
183.942
 21
183.796
  0
LINE
  8
0
 10
176.338
 11
176.204
 20
183.796
 21
183.662
  0
LINE
  8
0
 10
176.204
 11
176.058
 20
183.662
 21
183.544
  0
LINE
  8
0
 10
176.058
 11
175.9
 20
183.544
 21
183.441
  0
LINE
  8
0
 10
175.9
 11
175.732
 20
183.441
 21
183.356
  0
LINE
  8
0
 10
175.732
 11
175.556
 20
183.356
 21
183.288
  0
LINE
  8
0
 10
175.556
 11
175.374
 20
183.288
 21
183.239
  0
LINE
  8
0
 10
175.374
 11
175.188
 20
183.239
 21
183.21
  0
LINE
  8
0
 10
175.188
 11
175
 20
183.21
 21
183.2
  0
LINE
  8
0
 10
175
 11
174.812
 20
183.2
 21
183.21
  0
LINE
  8
0
 10
174.812
 11
174.626
 20
183.21
 21
183.239
  0
LINE
  8
0
 10
174.626
 11
174.444
 20
183.239
 21
183.288
  0
LINE
  8
0
 10
174.444
 11
174.268
 20
183.288
 21
183.356
  0
LINE
  8
0
 10
174.268
 11
174.1
 20
183.356
 21
183.441
  0
LINE
  8
0
 10
174.1
 11
173.942
 20
183.441
 21
183.544
  0
LINE
  8
0
 10
173.942
 11
173.796
 20
183.544
 21
183.662
  0
LINE
  8
0
 10
173.796
 11
173.662
 20
183.662
 21
183.796
  0
LINE
  8
0
 10
173.662
 11
173.544
 20
183.796
 21
183.942
  0
LINE
  8
0
 10
173.544
 11
173.441
 20
183.942
 21
184.1
  0
LINE
  8
0
 10
173.441
 11
173.356
 20
184.1
 21
184.268
  0
LINE
  8
0
 10
173.356
 11
173.288
 20
184.268
 21
184.444
  0
LINE
  8
0
 10
173.288
 11
173.239
 20
184.444
 21
184.626
  0
LINE
  8
0
 10
173.239
 11
173.21
 20
184.626
 21
184.812
  0
LINE
  8
0
 10
173.21
 11
173.2
 20
184.812
 21
185
  0
LINE
  8
0
 10
173.2
 11
173.21
 20
235
 21
235.188
  0
LINE
  8
0
 10
173.21
 11
173.239
 20
235.188
 21
235.374
  0
LINE
  8
0
 10
173.239
 11
173.288
 20
235.374
 21
235.556
  0
LINE
  8
0
 10
173.288
 11
173.356
 20
235.556
 21
235.732
  0
LINE
  8
0
 10
173.356
 11
173.441
 20
235.732
 21
235.9
  0
LINE
  8
0
 10
173.441
 11
173.544
 20
235.9
 21
236.058
  0
LINE
  8
0
 10
173.544
 11
173.662
 20
236.058
 21
236.204
  0
LINE
  8
0
 10
173.662
 11
173.796
 20
236.204
 21
236.338
  0
LINE
  8
0
 10
173.796
 11
173.942
 20
236.338
 21
236.456
  0
LINE
  8
0
 10
173.942
 11
174.1
 20
236.456
 21
236.559
  0
LINE
  8
0
 10
174.1
 11
174.268
 20
236.559
 21
236.644
  0
LINE
  8
0
 10
174.268
 11
174.444
 20
236.644
 21
236.712
  0
LINE
  8
0
 10
174.444
 11
174.626
 20
236.712
 21
236.761
  0
LINE
  8
0
 10
174.626
 11
174.812
 20
236.761
 21
236.79
  0
LINE
  8
0
 10
174.812
 11
175
 20
236.79
 21
236.8
  0
LINE
  8
0
 10
175
 11
175.188
 20
236.8
 21
236.79
  0
LINE
  8
0
 10
175.188
 11
175.374
 20
236.79
 21
236.761
  0
LINE
  8
0
 10
175.374
 11
175.556
 20
236.761
 21
236.712
  0
LINE
  8
0
 10
175.556
 11
175.732
 20
236.712
 21
236.644
  0
LINE
  8
0
 10
175.732
 11
175.9
 20
236.644
 21
236.559
  0
LINE
  8
0
 10
175.9
 11
176.058
 20
236.559
 21
236.456
  0
LINE
  8
0
 10
176.058
 11
176.204
 20
236.456
 21
236.338
  0
LINE
  8
0
 10
176.204
 11
176.338
 20
236.338
 21
236.204
  0
LINE
  8
0
 10
176.338
 11
176.456
 20
236.204
 21
236.058
  0
LINE
  8
0
 10
176.456
 11
176.559
 20
236.058
 21
235.9
  0
LINE
  8
0
 10
176.559
 11
176.644
 20
235.9
 21
235.732
  0
LINE
  8
0
 10
176.644
 11
176.712
 20
235.732
 21
235.556
  0
LINE
  8
0
 10
176.712
 11
176.761
 20
235.556
 21
235.374
  0
LINE
  8
0
 10
176.761
 11
176.79
 20
235.374
 21
235.188
  0
LINE
  8
0
 10
176.79
 11
176.8
 20
235.188
 21
235
  0
LINE
  8
0
 10
176.8
 11
176.79
 20
235
 21
234.812
  0
LINE
  8
0
 10
176.79
 11
176.761
 20
234.812
 21
234.626
  0
LINE
  8
0
 10
176.761
 11
176.712
 20
234.626
 21
234.444
  0
LINE
  8
0
 10
176.712
 11
176.644
 20
234.444
 21
234.268
  0
LINE
  8
0
 10
176.644
 11
176.559
 20
234.268
 21
234.1
  0
LINE
  8
0
 10
176.559
 11
176.456
 20
234.1
 21
233.942
  0
LINE
  8
0
 10
176.456
 11
176.338
 20
233.942
 21
233.796
  0
LINE
  8
0
 10
176.338
 11
176.204
 20
233.796
 21
233.662
  0
LINE
  8
0
 10
176.204
 11
176.058
 20
233.662
 21
233.544
  0
LINE
  8
0
 10
176.058
 11
175.9
 20
233.544
 21
233.441
  0
LINE
  8
0
 10
175.9
 11
175.732
 20
233.441
 21
233.356
  0
LINE
  8
0
 10
175.732
 11
175.556
 20
233.356
 21
233.288
  0
LINE
  8
0
 10
175.556
 11
175.374
 20
233.288
 21
233.239
  0
LINE
  8
0
 10
175.374
 11
175.188
 20
233.239
 21
233.21
  0
LINE
  8
0
 10
175.188
 11
175
 20
233.21
 21
233.2
  0
LINE
  8
0
 10
175
 11
174.812
 20
233.2
 21
233.21
  0
LINE
  8
0
 10
174.812
 11
174.626
 20
233.21
 21
233.239
  0
LINE
  8
0
 10
174.626
 11
174.444
 20
233.239
 21
233.288
  0
LINE
  8
0
 10
174.444
 11
174.268
 20
233.288
 21
233.356
  0
LINE
  8
0
 10
174.268
 11
174.1
 20
233.356
 21
233.441
  0
LINE
  8
0
 10
174.1
 11
173.942
 20
233.441
 21
233.544
  0
LINE
  8
0
 10
173.942
 11
173.796
 20
233.544
 21
233.662
  0
LINE
  8
0
 10
173.796
 11
173.662
 20
233.662
 21
233.796
  0
LINE
  8
0
 10
173.662
 11
173.544
 20
233.796
 21
233.942
  0
LINE
  8
0
 10
173.544
 11
173.441
 20
233.942
 21
234.1
  0
LINE
  8
0
 10
173.441
 11
173.356
 20
234.1
 21
234.268
  0
LINE
  8
0
 10
173.356
 11
173.288
 20
234.268
 21
234.444
  0
LINE
  8
0
 10
173.288
 11
173.239
 20
234.444
 21
234.626
  0
LINE
  8
0
 10
173.239
 11
173.21
 20
234.626
 21
234.812
  0
LINE
  8
0
 10
173.21
 11
173.2
 20
234.812
 21
235
  0
LINE
  8
0
 10
185
 11
185
 20
59.95
 21
285.788
  0
LINE
  8
0
 10
185
 11
185.059
 20
285.788
 21
285.788
  0
LINE
  8
0
 10
185.059
 11
185.02
 20
285.788
 21
286.416
  0
LINE
  8
0
 10
185.02
 11
185.489
 20
286.416
 21
288.879
  0
LINE
  8
0
 10
185.489
 11
186.557
 20
288.879
 21
291.147
  0
LINE
  8
0
 10
186.557
 11
188.155
 20
291.147
 21
293.078
  0
LINE
  8
0
 10
188.155
 11
190.182
 20
293.078
 21
294.551
  0
LINE
  8
0
 10
190.182
 11
192.513
 20
294.551
 21
295.474
  0
LINE
  8
0
 10
192.513
 11
194.95
 20
295.474
 21
295.782
  0
LINE
  8
0
 10
194.95
 11
194.95
 20
295.782
 21
295.788
  0
LINE
  8
0
 10
194.95
 11
275
 20
295.788
 21
295.788
  0
LINE
  8
0
 10
275
 11
275
 20
295.788
 21
295.729
  0
LINE
  8
0
 10
275
 11
275.628
 20
295.729
 21
295.769
  0
LINE
  8
0
 10
275.628
 11
278.09
 20
295.769
 21
295.299
  0
LINE
  8
0
 10
278.09
 11
280.358
 20
295.299
 21
294.232
  0
LINE
  8
0
 10
280.358
 11
282.29
 20
294.232
 21
292.634
  0
LINE
  8
0
 10
282.29
 11
283.763
 20
292.634
 21
290.606
  0
LINE
  8
0
 10
283.763
 11
284.686
 20
290.606
 21
288.275
  0
LINE
  8
0
 10
284.686
 11
284.994
 20
288.275
 21
285.838
  0
LINE
  8
0
 10
284.994
 11
285
 20
285.838
 21
285.838
  0
LINE
  8
0
 10
285
 11
285
 20
285.838
 21
60
  0
LINE
  8
0
 10
285
 11
284.941
 20
60
 21
60
  0
LINE
  8
0
 10
284.941
 11
284.98
 20
60
 21
59.372
  0
LINE
  8
0
 10
284.98
 11
284.511
 20
59.372
 21
56.91
  0
LINE
  8
0
 10
284.511
 11
283.443
 20
56.91
 21
54.642
  0
LINE
  8
0
 10
283.443
 11
281.845
 20
54.642
 21
52.71
  0
LINE
  8
0
 10
281.845
 11
279.818
 20
52.71
 21
51.237
  0
LINE
  8
0
 10
279.818
 11
277.487
 20
51.237
 21
50.314
  0
LINE
  8
0
 10
277.487
 11
275.05
 20
50.314
 21
50.006
  0
LINE
  8
0
 10
275.05
 11
275.05
 20
50.006
 21
50
  0
LINE
  8
0
 10
275.05
 11
195
 20
50
 21
50
  0
LINE
  8
0
 10
195
 11
195
 20
50
 21
50.059
  0
LINE
  8
0
 10
195
 11
194.372
 20
50.059
 21
50.02
  0
LINE
  8
0
 10
194.372
 11
191.91
 20
50.02
 21
50.489
  0
LINE
  8
0
 10
191.91
 11
189.642
 20
50.489
 21
51.557
  0
LINE
  8
0
 10
189.642
 11
187.71
 20
51.557
 21
53.155
  0
LINE
  8
0
 10
187.71
 11
186.237
 20
53.155
 21
55.182
  0
LINE
  8
0
 10
186.237
 11
185.314
 20
55.182
 21
57.513
  0
LINE
  8
0
 10
185.314
 11
185.006
 20
57.513
 21
59.95
  0
LINE
  8
0
 10
185.006
 11
185
 20
59.95
 21
59.95
  0
LINE
  8
0
 10
201.4
 11
201.424
 20
20
 21
20.455
  0
LINE
  8
0
 10
201.424
 11
201.495
 20
20.455
 21
20.904
  0
LINE
  8
0
 10
201.495
 11
201.613
 20
20.904
 21
21.344
  0
LINE
  8
0
 10
201.613
 11
201.776
 20
21.344
 21
21.769
  0
LINE
  8
0
 10
201.776
 11
201.983
 20
21.769
 21
22.175
  0
LINE
  8
0
 10
201.983
 11
202.231
 20
22.175
 21
22.557
  0
LINE
  8
0
 10
202.231
 11
202.517
 20
22.557
 21
22.911
  0
LINE
  8
0
 10
202.517
 11
202.839
 20
22.911
 21
23.233
  0
LINE
  8
0
 10
202.839
 11
203.193
 20
23.233
 21
23.519
  0
LINE
  8
0
 10
203.193
 11
203.575
 20
23.519
 21
23.767
  0
LINE
  8
0
 10
203.575
 11
203.981
 20
23.767
 21
23.974
  0
LINE
  8
0
 10
203.981
 11
204.406
 20
23.974
 21
24.137
  0
LINE
  8
0
 10
204.406
 11
204.846
 20
24.137
 21
24.255
  0
LINE
  8
0
 10
204.846
 11
205.295
 20
24.255
 21
24.326
  0
LINE
  8
0
 10
205.295
 11
205.75
 20
24.326
 21
24.35
  0
LINE
  8
0
 10
205.75
 11
206.205
 20
24.35
 21
24.326
  0
LINE
  8
0
 10
206.205
 11
206.654
 20
24.326
 21
24.255
  0
LINE
  8
0
 10
206.654
 11
207.094
 20
24.255
 21
24.137
  0
LINE
  8
0
 10
207.094
 11
207.519
 20
24.137
 21
23.974
  0
LINE
  8
0
 10
207.519
 11
207.925
 20
23.974
 21
23.767
  0
LINE
  8
0
 10
207.925
 11
208.307
 20
23.767
 21
23.519
  0
LINE
  8
0
 10
208.307
 11
208.661
 20
23.519
 21
23.233
  0
LINE
  8
0
 10
208.661
 11
208.983
 20
23.233
 21
22.911
  0
LINE
  8
0
 10
208.983
 11
209.269
 20
22.911
 21
22.557
  0
LINE
  8
0
 10
209.269
 11
209.517
 20
22.557
 21
22.175
  0
LINE
  8
0
 10
209.517
 11
209.724
 20
22.175
 21
21.769
  0
LINE
  8
0
 10
209.724
 11
209.887
 20
21.769
 21
21.344
  0
LINE
  8
0
 10
209.887
 11
210.005
 20
21.344
 21
20.904
  0
LINE
  8
0
 10
210.005
 11
210.076
 20
20.904
 21
20.455
  0
LINE
  8
0
 10
210.076
 11
210.1
 20
20.455
 21
20
  0
LINE
  8
0
 10
210.1
 11
210.076
 20
20
 21
19.545
  0
LINE
  8
0
 10
210.076
 11
210.005
 20
19.545
 21
19.096
  0
LINE
  8
0
 10
210.005
 11
209.887
 20
19.096
 21
18.656
  0
LINE
  8
0
 10
209.887
 11
209.724
 20
18.656
 21
18.231
  0
LINE
  8
0
 10
209.724
 11
209.517
 20
18.231
 21
17.825
  0
LINE
  8
0
 10
209.517
 11
209.269
 20
17.825
 21
17.443
  0
LINE
  8
0
 10
209.269
 11
208.983
 20
17.443
 21
17.089
  0
LINE
  8
0
 10
208.983
 11
208.661
 20
17.089
 21
16.767
  0
LINE
  8
0
 10
208.661
 11
208.307
 20
16.767
 21
16.481
  0
LINE
  8
0
 10
208.307
 11
207.925
 20
16.481
 21
16.233
  0
LINE
  8
0
 10
207.925
 11
207.519
 20
16.233
 21
16.026
  0
LINE
  8
0
 10
207.519
 11
207.094
 20
16.026
 21
15.863
  0
LINE
  8
0
 10
207.094
 11
206.654
 20
15.863
 21
15.745
  0
LINE
  8
0
 10
206.654
 11
206.205
 20
15.745
 21
15.674
  0
LINE
  8
0
 10
206.205
 11
205.75
 20
15.674
 21
15.65
  0
LINE
  8
0
 10
205.75
 11
205.295
 20
15.65
 21
15.674
  0
LINE
  8
0
 10
205.295
 11
204.846
 20
15.674
 21
15.745
  0
LINE
  8
0
 10
204.846
 11
204.406
 20
15.745
 21
15.863
  0
LINE
  8
0
 10
204.406
 11
203.981
 20
15.863
 21
16.026
  0
LINE
  8
0
 10
203.981
 11
203.575
 20
16.026
 21
16.233
  0
LINE
  8
0
 10
203.575
 11
203.193
 20
16.233
 21
16.481
  0
LINE
  8
0
 10
203.193
 11
202.839
 20
16.481
 21
16.767
  0
LINE
  8
0
 10
202.839
 11
202.517
 20
16.767
 21
17.089
  0
LINE
  8
0
 10
202.517
 11
202.231
 20
17.089
 21
17.443
  0
LINE
  8
0
 10
202.231
 11
201.983
 20
17.443
 21
17.825
  0
LINE
  8
0
 10
201.983
 11
201.776
 20
17.825
 21
18.231
  0
LINE
  8
0
 10
201.776
 11
201.613
 20
18.231
 21
18.656
  0
LINE
  8
0
 10
201.613
 11
201.495
 20
18.656
 21
19.096
  0
LINE
  8
0
 10
201.495
 11
201.424
 20
19.096
 21
19.545
  0
LINE
  8
0
 10
201.424
 11
201.4
 20
19.545
 21
20
  0
LINE
  8
0
 10
201.4
 11
201.424
 20
347.08
 21
347.535
  0
LINE
  8
0
 10
201.424
 11
201.495
 20
347.535
 21
347.984
  0
LINE
  8
0
 10
201.495
 11
201.613
 20
347.984
 21
348.424
  0
LINE
  8
0
 10
201.613
 11
201.776
 20
348.424
 21
348.849
  0
LINE
  8
0
 10
201.776
 11
201.983
 20
348.849
 21
349.255
  0
LINE
  8
0
 10
201.983
 11
202.231
 20
349.255
 21
349.637
  0
LINE
  8
0
 10
202.231
 11
202.517
 20
349.637
 21
349.991
  0
LINE
  8
0
 10
202.517
 11
202.839
 20
349.991
 21
350.313
  0
LINE
  8
0
 10
202.839
 11
203.193
 20
350.313
 21
350.599
  0
LINE
  8
0
 10
203.193
 11
203.575
 20
350.599
 21
350.847
  0
LINE
  8
0
 10
203.575
 11
203.981
 20
350.847
 21
351.054
  0
LINE
  8
0
 10
203.981
 11
204.406
 20
351.054
 21
351.217
  0
LINE
  8
0
 10
204.406
 11
204.846
 20
351.217
 21
351.335
  0
LINE
  8
0
 10
204.846
 11
205.295
 20
351.335
 21
351.406
  0
LINE
  8
0
 10
205.295
 11
205.75
 20
351.406
 21
351.43
  0
LINE
  8
0
 10
205.75
 11
206.205
 20
351.43
 21
351.406
  0
LINE
  8
0
 10
206.205
 11
206.654
 20
351.406
 21
351.335
  0
LINE
  8
0
 10
206.654
 11
207.094
 20
351.335
 21
351.217
  0
LINE
  8
0
 10
207.094
 11
207.519
 20
351.217
 21
351.054
  0
LINE
  8
0
 10
207.519
 11
207.925
 20
351.054
 21
350.847
  0
LINE
  8
0
 10
207.925
 11
208.307
 20
350.847
 21
350.599
  0
LINE
  8
0
 10
208.307
 11
208.661
 20
350.599
 21
350.313
  0
LINE
  8
0
 10
208.661
 11
208.983
 20
350.313
 21
349.991
  0
LINE
  8
0
 10
208.983
 11
209.269
 20
349.991
 21
349.637
  0
LINE
  8
0
 10
209.269
 11
209.517
 20
349.637
 21
349.255
  0
LINE
  8
0
 10
209.517
 11
209.724
 20
349.255
 21
348.849
  0
LINE
  8
0
 10
209.724
 11
209.887
 20
348.849
 21
348.424
  0
LINE
  8
0
 10
209.887
 11
210.005
 20
348.424
 21
347.984
  0
LINE
  8
0
 10
210.005
 11
210.076
 20
347.984
 21
347.535
  0
LINE
  8
0
 10
210.076
 11
210.1
 20
347.535
 21
347.08
  0
LINE
  8
0
 10
210.1
 11
210.076
 20
347.08
 21
346.625
  0
LINE
  8
0
 10
210.076
 11
210.005
 20
346.625
 21
346.176
  0
LINE
  8
0
 10
210.005
 11
209.887
 20
346.176
 21
345.736
  0
LINE
  8
0
 10
209.887
 11
209.724
 20
345.736
 21
345.311
  0
LINE
  8
0
 10
209.724
 11
209.517
 20
345.311
 21
344.905
  0
LINE
  8
0
 10
209.517
 11
209.269
 20
344.905
 21
344.523
  0
LINE
  8
0
 10
209.269
 11
208.983
 20
344.523
 21
344.169
  0
LINE
  8
0
 10
208.983
 11
208.661
 20
344.169
 21
343.847
  0
LINE
  8
0
 10
208.661
 11
208.307
 20
343.847
 21
343.561
  0
LINE
  8
0
 10
208.307
 11
207.925
 20
343.561
 21
343.313
  0
LINE
  8
0
 10
207.925
 11
207.519
 20
343.313
 21
343.106
  0
LINE
  8
0
 10
207.519
 11
207.094
 20
343.106
 21
342.943
  0
LINE
  8
0
 10
207.094
 11
206.654
 20
342.943
 21
342.825
  0
LINE
  8
0
 10
206.654
 11
206.205
 20
342.825
 21
342.754
  0
LINE
  8
0
 10
206.205
 11
205.75
 20
342.754
 21
342.73
  0
LINE
  8
0
 10
205.75
 11
205.295
 20
342.73
 21
342.754
  0
LINE
  8
0
 10
205.295
 11
204.846
 20
342.754
 21
342.825
  0
LINE
  8
0
 10
204.846
 11
204.406
 20
342.825
 21
342.943
  0
LINE
  8
0
 10
204.406
 11
203.981
 20
342.943
 21
343.106
  0
LINE
  8
0
 10
203.981
 11
203.575
 20
343.106
 21
343.313
  0
LINE
  8
0
 10
203.575
 11
203.193
 20
343.313
 21
343.561
  0
LINE
  8
0
 10
203.193
 11
202.839
 20
343.561
 21
343.847
  0
LINE
  8
0
 10
202.839
 11
202.517
 20
343.847
 21
344.169
  0
LINE
  8
0
 10
202.517
 11
202.231
 20
344.169
 21
344.523
  0
LINE
  8
0
 10
202.231
 11
201.983
 20
344.523
 21
344.905
  0
LINE
  8
0
 10
201.983
 11
201.776
 20
344.905
 21
345.311
  0
LINE
  8
0
 10
201.776
 11
201.613
 20
345.311
 21
345.736
  0
LINE
  8
0
 10
201.613
 11
201.495
 20
345.736
 21
346.176
  0
LINE
  8
0
 10
201.495
 11
201.424
 20
346.176
 21
346.625
  0
LINE
  8
0
 10
201.424
 11
201.4
 20
346.625
 21
347.08
  0
LINE
  8
0
 10
209.95
 11
209.95
 20
27.8
 21
32.9
  0
LINE
  8
0
 10
209.95
 11
220.05
 20
32.9
 21
32.9
  0
LINE
  8
0
 10
220.05
 11
220.05
 20
32.9
 21
27.8
  0
LINE
  8
0
 10
220.05
 11
209.95
 20
27.8
 21
27.8
  0
LINE
  8
0
 10
209.95
 11
209.95
 20
354.88
 21
359.98
  0
LINE
  8
0
 10
209.95
 11
220.05
 20
359.98
 21
359.98
  0
LINE
  8
0
 10
220.05
 11
220.05
 20
359.98
 21
354.88
  0
LINE
  8
0
 10
220.05
 11
209.95
 20
354.88
 21
354.88
  0
LINE
  8
0
 10
218.2
 11
218.21
 20
315.788
 21
315.977
  0
LINE
  8
0
 10
218.21
 11
218.239
 20
315.977
 21
316.163
  0
LINE
  8
0
 10
218.239
 11
218.288
 20
316.163
 21
316.345
  0
LINE
  8
0
 10
218.288
 11
218.356
 20
316.345
 21
316.521
  0
LINE
  8
0
 10
218.356
 11
218.441
 20
316.521
 21
316.688
  0
LINE
  8
0
 10
218.441
 11
218.544
 20
316.688
 21
316.846
  0
LINE
  8
0
 10
218.544
 11
218.662
 20
316.846
 21
316.993
  0
LINE
  8
0
 10
218.662
 11
218.796
 20
316.993
 21
317.126
  0
LINE
  8
0
 10
218.796
 11
218.942
 20
317.126
 21
317.245
  0
LINE
  8
0
 10
218.942
 11
219.1
 20
317.245
 21
317.347
  0
LINE
  8
0
 10
219.1
 11
219.268
 20
317.347
 21
317.433
  0
LINE
  8
0
 10
219.268
 11
219.444
 20
317.433
 21
317.5
  0
LINE
  8
0
 10
219.444
 11
219.626
 20
317.5
 21
317.549
  0
LINE
  8
0
 10
219.626
 11
219.812
 20
317.549
 21
317.579
  0
LINE
  8
0
 10
219.812
 11
220
 20
317.579
 21
317.588
  0
LINE
  8
0
 10
220
 11
220.188
 20
317.588
 21
317.579
  0
LINE
  8
0
 10
220.188
 11
220.374
 20
317.579
 21
317.549
  0
LINE
  8
0
 10
220.374
 11
220.556
 20
317.549
 21
317.5
  0
LINE
  8
0
 10
220.556
 11
220.732
 20
317.5
 21
317.433
  0
LINE
  8
0
 10
220.732
 11
220.9
 20
317.433
 21
317.347
  0
LINE
  8
0
 10
220.9
 11
221.058
 20
317.347
 21
317.245
  0
LINE
  8
0
 10
221.058
 11
221.204
 20
317.245
 21
317.126
  0
LINE
  8
0
 10
221.204
 11
221.338
 20
317.126
 21
316.993
  0
LINE
  8
0
 10
221.338
 11
221.456
 20
316.993
 21
316.846
  0
LINE
  8
0
 10
221.456
 11
221.559
 20
316.846
 21
316.688
  0
LINE
  8
0
 10
221.559
 11
221.644
 20
316.688
 21
316.521
  0
LINE
  8
0
 10
221.644
 11
221.712
 20
316.521
 21
316.345
  0
LINE
  8
0
 10
221.712
 11
221.761
 20
316.345
 21
316.163
  0
LINE
  8
0
 10
221.761
 11
221.79
 20
316.163
 21
315.977
  0
LINE
  8
0
 10
221.79
 11
221.8
 20
315.977
 21
315.788
  0
LINE
  8
0
 10
221.8
 11
221.79
 20
315.788
 21
315.6
  0
LINE
  8
0
 10
221.79
 11
221.761
 20
315.6
 21
315.414
  0
LINE
  8
0
 10
221.761
 11
221.712
 20
315.414
 21
315.232
  0
LINE
  8
0
 10
221.712
 11
221.644
 20
315.232
 21
315.056
  0
LINE
  8
0
 10
221.644
 11
221.559
 20
315.056
 21
314.888
  0
LINE
  8
0
 10
221.559
 11
221.456
 20
314.888
 21
314.73
  0
LINE
  8
0
 10
221.456
 11
221.338
 20
314.73
 21
314.584
  0
LINE
  8
0
 10
221.338
 11
221.204
 20
314.584
 21
314.451
  0
LINE
  8
0
 10
221.204
 11
221.058
 20
314.451
 21
314.332
  0
LINE
  8
0
 10
221.058
 11
220.9
 20
314.332
 21
314.23
  0
LINE
  8
0
 10
220.9
 11
220.732
 20
314.23
 21
314.144
  0
LINE
  8
0
 10
220.732
 11
220.556
 20
314.144
 21
314.076
  0
LINE
  8
0
 10
220.556
 11
220.374
 20
314.076
 21
314.028
  0
LINE
  8
0
 10
220.374
 11
220.188
 20
314.028
 21
313.998
  0
LINE
  8
0
 10
220.188
 11
220
 20
313.998
 21
313.988
  0
LINE
  8
0
 10
220
 11
219.812
 20
313.988
 21
313.998
  0
LINE
  8
0
 10
219.812
 11
219.626
 20
313.998
 21
314.028
  0
LINE
  8
0
 10
219.626
 11
219.444
 20
314.028
 21
314.076
  0
LINE
  8
0
 10
219.444
 11
219.268
 20
314.076
 21
314.144
  0
LINE
  8
0
 10
219.268
 11
219.1
 20
314.144
 21
314.23
  0
LINE
  8
0
 10
219.1
 11
218.942
 20
314.23
 21
314.332
  0
LINE
  8
0
 10
218.942
 11
218.796
 20
314.332
 21
314.451
  0
LINE
  8
0
 10
218.796
 11
218.662
 20
314.451
 21
314.584
  0
LINE
  8
0
 10
218.662
 11
218.544
 20
314.584
 21
314.73
  0
LINE
  8
0
 10
218.544
 11
218.441
 20
314.73
 21
314.888
  0
LINE
  8
0
 10
218.441
 11
218.356
 20
314.888
 21
315.056
  0
LINE
  8
0
 10
218.356
 11
218.288
 20
315.056
 21
315.232
  0
LINE
  8
0
 10
218.288
 11
218.239
 20
315.232
 21
315.414
  0
LINE
  8
0
 10
218.239
 11
218.21
 20
315.414
 21
315.6
  0
LINE
  8
0
 10
218.21
 11
218.2
 20
315.6
 21
315.788
  0
LINE
  8
0
 10
218.2
 11
218.21
 20
375.788
 21
375.977
  0
LINE
  8
0
 10
218.21
 11
218.239
 20
375.977
 21
376.163
  0
LINE
  8
0
 10
218.239
 11
218.288
 20
376.163
 21
376.345
  0
LINE
  8
0
 10
218.288
 11
218.356
 20
376.345
 21
376.521
  0
LINE
  8
0
 10
218.356
 11
218.441
 20
376.521
 21
376.688
  0
LINE
  8
0
 10
218.441
 11
218.544
 20
376.688
 21
376.846
  0
LINE
  8
0
 10
218.544
 11
218.662
 20
376.846
 21
376.993
  0
LINE
  8
0
 10
218.662
 11
218.796
 20
376.993
 21
377.126
  0
LINE
  8
0
 10
218.796
 11
218.942
 20
377.126
 21
377.245
  0
LINE
  8
0
 10
218.942
 11
219.1
 20
377.245
 21
377.347
  0
LINE
  8
0
 10
219.1
 11
219.268
 20
377.347
 21
377.433
  0
LINE
  8
0
 10
219.268
 11
219.444
 20
377.433
 21
377.5
  0
LINE
  8
0
 10
219.444
 11
219.626
 20
377.5
 21
377.549
  0
LINE
  8
0
 10
219.626
 11
219.812
 20
377.549
 21
377.579
  0
LINE
  8
0
 10
219.812
 11
220
 20
377.579
 21
377.588
  0
LINE
  8
0
 10
220
 11
220.188
 20
377.588
 21
377.579
  0
LINE
  8
0
 10
220.188
 11
220.374
 20
377.579
 21
377.549
  0
LINE
  8
0
 10
220.374
 11
220.556
 20
377.549
 21
377.5
  0
LINE
  8
0
 10
220.556
 11
220.732
 20
377.5
 21
377.433
  0
LINE
  8
0
 10
220.732
 11
220.9
 20
377.433
 21
377.347
  0
LINE
  8
0
 10
220.9
 11
221.058
 20
377.347
 21
377.245
  0
LINE
  8
0
 10
221.058
 11
221.204
 20
377.245
 21
377.126
  0
LINE
  8
0
 10
221.204
 11
221.338
 20
377.126
 21
376.993
  0
LINE
  8
0
 10
221.338
 11
221.456
 20
376.993
 21
376.846
  0
LINE
  8
0
 10
221.456
 11
221.559
 20
376.846
 21
376.688
  0
LINE
  8
0
 10
221.559
 11
221.644
 20
376.688
 21
376.521
  0
LINE
  8
0
 10
221.644
 11
221.712
 20
376.521
 21
376.345
  0
LINE
  8
0
 10
221.712
 11
221.761
 20
376.345
 21
376.163
  0
LINE
  8
0
 10
221.761
 11
221.79
 20
376.163
 21
375.977
  0
LINE
  8
0
 10
221.79
 11
221.8
 20
375.977
 21
375.788
  0
LINE
  8
0
 10
221.8
 11
221.79
 20
375.788
 21
375.6
  0
LINE
  8
0
 10
221.79
 11
221.761
 20
375.6
 21
375.414
  0
LINE
  8
0
 10
221.761
 11
221.712
 20
375.414
 21
375.232
  0
LINE
  8
0
 10
221.712
 11
221.644
 20
375.232
 21
375.056
  0
LINE
  8
0
 10
221.644
 11
221.559
 20
375.056
 21
374.888
  0
LINE
  8
0
 10
221.559
 11
221.456
 20
374.888
 21
374.73
  0
LINE
  8
0
 10
221.456
 11
221.338
 20
374.73
 21
374.584
  0
LINE
  8
0
 10
221.338
 11
221.204
 20
374.584
 21
374.451
  0
LINE
  8
0
 10
221.204
 11
221.058
 20
374.451
 21
374.332
  0
LINE
  8
0
 10
221.058
 11
220.9
 20
374.332
 21
374.23
  0
LINE
  8
0
 10
220.9
 11
220.732
 20
374.23
 21
374.144
  0
LINE
  8
0
 10
220.732
 11
220.556
 20
374.144
 21
374.076
  0
LINE
  8
0
 10
220.556
 11
220.374
 20
374.076
 21
374.028
  0
LINE
  8
0
 10
220.374
 11
220.188
 20
374.028
 21
373.998
  0
LINE
  8
0
 10
220.188
 11
220
 20
373.998
 21
373.988
  0
LINE
  8
0
 10
220
 11
219.812
 20
373.988
 21
373.998
  0
LINE
  8
0
 10
219.812
 11
219.626
 20
373.998
 21
374.028
  0
LINE
  8
0
 10
219.626
 11
219.444
 20
374.028
 21
374.076
  0
LINE
  8
0
 10
219.444
 11
219.268
 20
374.076
 21
374.144
  0
LINE
  8
0
 10
219.268
 11
219.1
 20
374.144
 21
374.23
  0
LINE
  8
0
 10
219.1
 11
218.942
 20
374.23
 21
374.332
  0
LINE
  8
0
 10
218.942
 11
218.796
 20
374.332
 21
374.451
  0
LINE
  8
0
 10
218.796
 11
218.662
 20
374.451
 21
374.584
  0
LINE
  8
0
 10
218.662
 11
218.544
 20
374.584
 21
374.73
  0
LINE
  8
0
 10
218.544
 11
218.441
 20
374.73
 21
374.888
  0
LINE
  8
0
 10
218.441
 11
218.356
 20
374.888
 21
375.056
  0
LINE
  8
0
 10
218.356
 11
218.288
 20
375.056
 21
375.232
  0
LINE
  8
0
 10
218.288
 11
218.239
 20
375.232
 21
375.414
  0
LINE
  8
0
 10
218.239
 11
218.21
 20
375.414
 21
375.6
  0
LINE
  8
0
 10
218.21
 11
218.2
 20
375.6
 21
375.788
  0
LINE
  8
0
 10
233.2
 11
233.21
 20
30.35
 21
30.538
  0
LINE
  8
0
 10
233.21
 11
233.239
 20
30.538
 21
30.724
  0
LINE
  8
0
 10
233.239
 11
233.288
 20
30.724
 21
30.906
  0
LINE
  8
0
 10
233.288
 11
233.356
 20
30.906
 21
31.082
  0
LINE
  8
0
 10
233.356
 11
233.441
 20
31.082
 21
31.25
  0
LINE
  8
0
 10
233.441
 11
233.544
 20
31.25
 21
31.408
  0
LINE
  8
0
 10
233.544
 11
233.662
 20
31.408
 21
31.554
  0
LINE
  8
0
 10
233.662
 11
233.796
 20
31.554
 21
31.688
  0
LINE
  8
0
 10
233.796
 11
233.942
 20
31.688
 21
31.806
  0
LINE
  8
0
 10
233.942
 11
234.1
 20
31.806
 21
31.909
  0
LINE
  8
0
 10
234.1
 11
234.268
 20
31.909
 21
31.994
  0
LINE
  8
0
 10
234.268
 11
234.444
 20
31.994
 21
32.062
  0
LINE
  8
0
 10
234.444
 11
234.626
 20
32.062
 21
32.111
  0
LINE
  8
0
 10
234.626
 11
234.812
 20
32.111
 21
32.14
  0
LINE
  8
0
 10
234.812
 11
235
 20
32.14
 21
32.15
  0
LINE
  8
0
 10
235
 11
235.188
 20
32.15
 21
32.14
  0
LINE
  8
0
 10
235.188
 11
235.374
 20
32.14
 21
32.111
  0
LINE
  8
0
 10
235.374
 11
235.556
 20
32.111
 21
32.062
  0
LINE
  8
0
 10
235.556
 11
235.732
 20
32.062
 21
31.994
  0
LINE
  8
0
 10
235.732
 11
235.9
 20
31.994
 21
31.909
  0
LINE
  8
0
 10
235.9
 11
236.058
 20
31.909
 21
31.806
  0
LINE
  8
0
 10
236.058
 11
236.204
 20
31.806
 21
31.688
  0
LINE
  8
0
 10
236.204
 11
236.338
 20
31.688
 21
31.554
  0
LINE
  8
0
 10
236.338
 11
236.456
 20
31.554
 21
31.408
  0
LINE
  8
0
 10
236.456
 11
236.559
 20
31.408
 21
31.25
  0
LINE
  8
0
 10
236.559
 11
236.644
 20
31.25
 21
31.082
  0
LINE
  8
0
 10
236.644
 11
236.712
 20
31.082
 21
30.906
  0
LINE
  8
0
 10
236.712
 11
236.761
 20
30.906
 21
30.724
  0
LINE
  8
0
 10
236.761
 11
236.79
 20
30.724
 21
30.538
  0
LINE
  8
0
 10
236.79
 11
236.8
 20
30.538
 21
30.35
  0
LINE
  8
0
 10
236.8
 11
236.79
 20
30.35
 21
30.162
  0
LINE
  8
0
 10
236.79
 11
236.761
 20
30.162
 21
29.976
  0
LINE
  8
0
 10
236.761
 11
236.712
 20
29.976
 21
29.794
  0
LINE
  8
0
 10
236.712
 11
236.644
 20
29.794
 21
29.618
  0
LINE
  8
0
 10
236.644
 11
236.559
 20
29.618
 21
29.45
  0
LINE
  8
0
 10
236.559
 11
236.456
 20
29.45
 21
29.292
  0
LINE
  8
0
 10
236.456
 11
236.338
 20
29.292
 21
29.146
  0
LINE
  8
0
 10
236.338
 11
236.204
 20
29.146
 21
29.012
  0
LINE
  8
0
 10
236.204
 11
236.058
 20
29.012
 21
28.894
  0
LINE
  8
0
 10
236.058
 11
235.9
 20
28.894
 21
28.791
  0
LINE
  8
0
 10
235.9
 11
235.732
 20
28.791
 21
28.706
  0
LINE
  8
0
 10
235.732
 11
235.556
 20
28.706
 21
28.638
  0
LINE
  8
0
 10
235.556
 11
235.374
 20
28.638
 21
28.589
  0
LINE
  8
0
 10
235.374
 11
235.188
 20
28.589
 21
28.56
  0
LINE
  8
0
 10
235.188
 11
235
 20
28.56
 21
28.55
  0
LINE
  8
0
 10
235
 11
234.812
 20
28.55
 21
28.56
  0
LINE
  8
0
 10
234.812
 11
234.626
 20
28.56
 21
28.589
  0
LINE
  8
0
 10
234.626
 11
234.444
 20
28.589
 21
28.638
  0
LINE
  8
0
 10
234.444
 11
234.268
 20
28.638
 21
28.706
  0
LINE
  8
0
 10
234.268
 11
234.1
 20
28.706
 21
28.791
  0
LINE
  8
0
 10
234.1
 11
233.942
 20
28.791
 21
28.894
  0
LINE
  8
0
 10
233.942
 11
233.796
 20
28.894
 21
29.012
  0
LINE
  8
0
 10
233.796
 11
233.662
 20
29.012
 21
29.146
  0
LINE
  8
0
 10
233.662
 11
233.544
 20
29.146
 21
29.292
  0
LINE
  8
0
 10
233.544
 11
233.441
 20
29.292
 21
29.45
  0
LINE
  8
0
 10
233.441
 11
233.356
 20
29.45
 21
29.618
  0
LINE
  8
0
 10
233.356
 11
233.288
 20
29.618
 21
29.794
  0
LINE
  8
0
 10
233.288
 11
233.239
 20
29.794
 21
29.976
  0
LINE
  8
0
 10
233.239
 11
233.21
 20
29.976
 21
30.162
  0
LINE
  8
0
 10
233.21
 11
233.2
 20
30.162
 21
30.35
  0
LINE
  8
0
 10
233.2
 11
233.21
 20
357.43
 21
357.618
  0
LINE
  8
0
 10
233.21
 11
233.239
 20
357.618
 21
357.804
  0
LINE
  8
0
 10
233.239
 11
233.288
 20
357.804
 21
357.986
  0
LINE
  8
0
 10
233.288
 11
233.356
 20
357.986
 21
358.162
  0
LINE
  8
0
 10
233.356
 11
233.441
 20
358.162
 21
358.33
  0
LINE
  8
0
 10
233.441
 11
233.544
 20
358.33
 21
358.488
  0
LINE
  8
0
 10
233.544
 11
233.662
 20
358.488
 21
358.634
  0
LINE
  8
0
 10
233.662
 11
233.796
 20
358.634
 21
358.768
  0
LINE
  8
0
 10
233.796
 11
233.942
 20
358.768
 21
358.886
  0
LINE
  8
0
 10
233.942
 11
234.1
 20
358.886
 21
358.989
  0
LINE
  8
0
 10
234.1
 11
234.268
 20
358.989
 21
359.074
  0
LINE
  8
0
 10
234.268
 11
234.444
 20
359.074
 21
359.142
  0
LINE
  8
0
 10
234.444
 11
234.626
 20
359.142
 21
359.191
  0
LINE
  8
0
 10
234.626
 11
234.812
 20
359.191
 21
359.22
  0
LINE
  8
0
 10
234.812
 11
235
 20
359.22
 21
359.23
  0
LINE
  8
0
 10
235
 11
235.188
 20
359.23
 21
359.22
  0
LINE
  8
0
 10
235.188
 11
235.374
 20
359.22
 21
359.191
  0
LINE
  8
0
 10
235.374
 11
235.556
 20
359.191
 21
359.142
  0
LINE
  8
0
 10
235.556
 11
235.732
 20
359.142
 21
359.074
  0
LINE
  8
0
 10
235.732
 11
235.9
 20
359.074
 21
358.989
  0
LINE
  8
0
 10
235.9
 11
236.058
 20
358.989
 21
358.886
  0
LINE
  8
0
 10
236.058
 11
236.204
 20
358.886
 21
358.768
  0
LINE
  8
0
 10
236.204
 11
236.338
 20
358.768
 21
358.634
  0
LINE
  8
0
 10
236.338
 11
236.456
 20
358.634
 21
358.488
  0
LINE
  8
0
 10
236.456
 11
236.559
 20
358.488
 21
358.33
  0
LINE
  8
0
 10
236.559
 11
236.644
 20
358.33
 21
358.162
  0
LINE
  8
0
 10
236.644
 11
236.712
 20
358.162
 21
357.986
  0
LINE
  8
0
 10
236.712
 11
236.761
 20
357.986
 21
357.804
  0
LINE
  8
0
 10
236.761
 11
236.79
 20
357.804
 21
357.618
  0
LINE
  8
0
 10
236.79
 11
236.8
 20
357.618
 21
357.43
  0
LINE
  8
0
 10
236.8
 11
236.79
 20
357.43
 21
357.242
  0
LINE
  8
0
 10
236.79
 11
236.761
 20
357.242
 21
357.056
  0
LINE
  8
0
 10
236.761
 11
236.712
 20
357.056
 21
356.874
  0
LINE
  8
0
 10
236.712
 11
236.644
 20
356.874
 21
356.698
  0
LINE
  8
0
 10
236.644
 11
236.559
 20
356.698
 21
356.53
  0
LINE
  8
0
 10
236.559
 11
236.456
 20
356.53
 21
356.372
  0
LINE
  8
0
 10
236.456
 11
236.338
 20
356.372
 21
356.226
  0
LINE
  8
0
 10
236.338
 11
236.204
 20
356.226
 21
356.092
  0
LINE
  8
0
 10
236.204
 11
236.058
 20
356.092
 21
355.974
  0
LINE
  8
0
 10
236.058
 11
235.9
 20
355.974
 21
355.871
  0
LINE
  8
0
 10
235.9
 11
235.732
 20
355.871
 21
355.786
  0
LINE
  8
0
 10
235.732
 11
235.556
 20
355.786
 21
355.718
  0
LINE
  8
0
 10
235.556
 11
235.374
 20
355.718
 21
355.669
  0
LINE
  8
0
 10
235.374
 11
235.188
 20
355.669
 21
355.64
  0
LINE
  8
0
 10
235.188
 11
235
 20
355.64
 21
355.63
  0
LINE
  8
0
 10
235
 11
234.812
 20
355.63
 21
355.64
  0
LINE
  8
0
 10
234.812
 11
234.626
 20
355.64
 21
355.669
  0
LINE
  8
0
 10
234.626
 11
234.444
 20
355.669
 21
355.718
  0
LINE
  8
0
 10
234.444
 11
234.268
 20
355.718
 21
355.786
  0
LINE
  8
0
 10
234.268
 11
234.1
 20
355.786
 21
355.871
  0
LINE
  8
0
 10
234.1
 11
233.942
 20
355.871
 21
355.974
  0
LINE
  8
0
 10
233.942
 11
233.796
 20
355.974
 21
356.092
  0
LINE
  8
0
 10
233.796
 11
233.662
 20
356.092
 21
356.226
  0
LINE
  8
0
 10
233.662
 11
233.544
 20
356.226
 21
356.372
  0
LINE
  8
0
 10
233.544
 11
233.441
 20
356.372
 21
356.53
  0
LINE
  8
0
 10
233.441
 11
233.356
 20
356.53
 21
356.698
  0
LINE
  8
0
 10
233.356
 11
233.288
 20
356.698
 21
356.874
  0
LINE
  8
0
 10
233.288
 11
233.239
 20
356.874
 21
357.056
  0
LINE
  8
0
 10
233.239
 11
233.21
 20
357.056
 21
357.242
  0
LINE
  8
0
 10
233.21
 11
233.2
 20
357.242
 21
357.43
  0
LINE
  8
0
 10
248.2
 11
248.21
 20
315.788
 21
315.977
  0
LINE
  8
0
 10
248.21
 11
248.239
 20
315.977
 21
316.163
  0
LINE
  8
0
 10
248.239
 11
248.288
 20
316.163
 21
316.345
  0
LINE
  8
0
 10
248.288
 11
248.356
 20
316.345
 21
316.521
  0
LINE
  8
0
 10
248.356
 11
248.441
 20
316.521
 21
316.688
  0
LINE
  8
0
 10
248.441
 11
248.544
 20
316.688
 21
316.846
  0
LINE
  8
0
 10
248.544
 11
248.662
 20
316.846
 21
316.993
  0
LINE
  8
0
 10
248.662
 11
248.796
 20
316.993
 21
317.126
  0
LINE
  8
0
 10
248.796
 11
248.942
 20
317.126
 21
317.245
  0
LINE
  8
0
 10
248.942
 11
249.1
 20
317.245
 21
317.347
  0
LINE
  8
0
 10
249.1
 11
249.268
 20
317.347
 21
317.433
  0
LINE
  8
0
 10
249.268
 11
249.444
 20
317.433
 21
317.5
  0
LINE
  8
0
 10
249.444
 11
249.626
 20
317.5
 21
317.549
  0
LINE
  8
0
 10
249.626
 11
249.812
 20
317.549
 21
317.579
  0
LINE
  8
0
 10
249.812
 11
250
 20
317.579
 21
317.588
  0
LINE
  8
0
 10
250
 11
250.188
 20
317.588
 21
317.579
  0
LINE
  8
0
 10
250.188
 11
250.374
 20
317.579
 21
317.549
  0
LINE
  8
0
 10
250.374
 11
250.556
 20
317.549
 21
317.5
  0
LINE
  8
0
 10
250.556
 11
250.732
 20
317.5
 21
317.433
  0
LINE
  8
0
 10
250.732
 11
250.9
 20
317.433
 21
317.347
  0
LINE
  8
0
 10
250.9
 11
251.058
 20
317.347
 21
317.245
  0
LINE
  8
0
 10
251.058
 11
251.204
 20
317.245
 21
317.126
  0
LINE
  8
0
 10
251.204
 11
251.338
 20
317.126
 21
316.993
  0
LINE
  8
0
 10
251.338
 11
251.456
 20
316.993
 21
316.846
  0
LINE
  8
0
 10
251.456
 11
251.559
 20
316.846
 21
316.688
  0
LINE
  8
0
 10
251.559
 11
251.644
 20
316.688
 21
316.521
  0
LINE
  8
0
 10
251.644
 11
251.712
 20
316.521
 21
316.345
  0
LINE
  8
0
 10
251.712
 11
251.761
 20
316.345
 21
316.163
  0
LINE
  8
0
 10
251.761
 11
251.79
 20
316.163
 21
315.977
  0
LINE
  8
0
 10
251.79
 11
251.8
 20
315.977
 21
315.788
  0
LINE
  8
0
 10
251.8
 11
251.79
 20
315.788
 21
315.6
  0
LINE
  8
0
 10
251.79
 11
251.761
 20
315.6
 21
315.414
  0
LINE
  8
0
 10
251.761
 11
251.712
 20
315.414
 21
315.232
  0
LINE
  8
0
 10
251.712
 11
251.644
 20
315.232
 21
315.056
  0
LINE
  8
0
 10
251.644
 11
251.559
 20
315.056
 21
314.888
  0
LINE
  8
0
 10
251.559
 11
251.456
 20
314.888
 21
314.73
  0
LINE
  8
0
 10
251.456
 11
251.338
 20
314.73
 21
314.584
  0
LINE
  8
0
 10
251.338
 11
251.204
 20
314.584
 21
314.451
  0
LINE
  8
0
 10
251.204
 11
251.058
 20
314.451
 21
314.332
  0
LINE
  8
0
 10
251.058
 11
250.9
 20
314.332
 21
314.23
  0
LINE
  8
0
 10
250.9
 11
250.732
 20
314.23
 21
314.144
  0
LINE
  8
0
 10
250.732
 11
250.556
 20
314.144
 21
314.076
  0
LINE
  8
0
 10
250.556
 11
250.374
 20
314.076
 21
314.028
  0
LINE
  8
0
 10
250.374
 11
250.188
 20
314.028
 21
313.998
  0
LINE
  8
0
 10
250.188
 11
250
 20
313.998
 21
313.988
  0
LINE
  8
0
 10
250
 11
249.812
 20
313.988
 21
313.998
  0
LINE
  8
0
 10
249.812
 11
249.626
 20
313.998
 21
314.028
  0
LINE
  8
0
 10
249.626
 11
249.444
 20
314.028
 21
314.076
  0
LINE
  8
0
 10
249.444
 11
249.268
 20
314.076
 21
314.144
  0
LINE
  8
0
 10
249.268
 11
249.1
 20
314.144
 21
314.23
  0
LINE
  8
0
 10
249.1
 11
248.942
 20
314.23
 21
314.332
  0
LINE
  8
0
 10
248.942
 11
248.796
 20
314.332
 21
314.451
  0
LINE
  8
0
 10
248.796
 11
248.662
 20
314.451
 21
314.584
  0
LINE
  8
0
 10
248.662
 11
248.544
 20
314.584
 21
314.73
  0
LINE
  8
0
 10
248.544
 11
248.441
 20
314.73
 21
314.888
  0
LINE
  8
0
 10
248.441
 11
248.356
 20
314.888
 21
315.056
  0
LINE
  8
0
 10
248.356
 11
248.288
 20
315.056
 21
315.232
  0
LINE
  8
0
 10
248.288
 11
248.239
 20
315.232
 21
315.414
  0
LINE
  8
0
 10
248.239
 11
248.21
 20
315.414
 21
315.6
  0
LINE
  8
0
 10
248.21
 11
248.2
 20
315.6
 21
315.788
  0
LINE
  8
0
 10
248.2
 11
248.21
 20
375.788
 21
375.977
  0
LINE
  8
0
 10
248.21
 11
248.239
 20
375.977
 21
376.163
  0
LINE
  8
0
 10
248.239
 11
248.288
 20
376.163
 21
376.345
  0
LINE
  8
0
 10
248.288
 11
248.356
 20
376.345
 21
376.521
  0
LINE
  8
0
 10
248.356
 11
248.441
 20
376.521
 21
376.688
  0
LINE
  8
0
 10
248.441
 11
248.544
 20
376.688
 21
376.846
  0
LINE
  8
0
 10
248.544
 11
248.662
 20
376.846
 21
376.993
  0
LINE
  8
0
 10
248.662
 11
248.796
 20
376.993
 21
377.126
  0
LINE
  8
0
 10
248.796
 11
248.942
 20
377.126
 21
377.245
  0
LINE
  8
0
 10
248.942
 11
249.1
 20
377.245
 21
377.347
  0
LINE
  8
0
 10
249.1
 11
249.268
 20
377.347
 21
377.433
  0
LINE
  8
0
 10
249.268
 11
249.444
 20
377.433
 21
377.5
  0
LINE
  8
0
 10
249.444
 11
249.626
 20
377.5
 21
377.549
  0
LINE
  8
0
 10
249.626
 11
249.812
 20
377.549
 21
377.579
  0
LINE
  8
0
 10
249.812
 11
250
 20
377.579
 21
377.588
  0
LINE
  8
0
 10
250
 11
250.188
 20
377.588
 21
377.579
  0
LINE
  8
0
 10
250.188
 11
250.374
 20
377.579
 21
377.549
  0
LINE
  8
0
 10
250.374
 11
250.556
 20
377.549
 21
377.5
  0
LINE
  8
0
 10
250.556
 11
250.732
 20
377.5
 21
377.433
  0
LINE
  8
0
 10
250.732
 11
250.9
 20
377.433
 21
377.347
  0
LINE
  8
0
 10
250.9
 11
251.058
 20
377.347
 21
377.245
  0
LINE
  8
0
 10
251.058
 11
251.204
 20
377.245
 21
377.126
  0
LINE
  8
0
 10
251.204
 11
251.338
 20
377.126
 21
376.993
  0
LINE
  8
0
 10
251.338
 11
251.456
 20
376.993
 21
376.846
  0
LINE
  8
0
 10
251.456
 11
251.559
 20
376.846
 21
376.688
  0
LINE
  8
0
 10
251.559
 11
251.644
 20
376.688
 21
376.521
  0
LINE
  8
0
 10
251.644
 11
251.712
 20
376.521
 21
376.345
  0
LINE
  8
0
 10
251.712
 11
251.761
 20
376.345
 21
376.163
  0
LINE
  8
0
 10
251.761
 11
251.79
 20
376.163
 21
375.977
  0
LINE
  8
0
 10
251.79
 11
251.8
 20
375.977
 21
375.788
  0
LINE
  8
0
 10
251.8
 11
251.79
 20
375.788
 21
375.6
  0
LINE
  8
0
 10
251.79
 11
251.761
 20
375.6
 21
375.414
  0
LINE
  8
0
 10
251.761
 11
251.712
 20
375.414
 21
375.232
  0
LINE
  8
0
 10
251.712
 11
251.644
 20
375.232
 21
375.056
  0
LINE
  8
0
 10
251.644
 11
251.559
 20
375.056
 21
374.888
  0
LINE
  8
0
 10
251.559
 11
251.456
 20
374.888
 21
374.73
  0
LINE
  8
0
 10
251.456
 11
251.338
 20
374.73
 21
374.584
  0
LINE
  8
0
 10
251.338
 11
251.204
 20
374.584
 21
374.451
  0
LINE
  8
0
 10
251.204
 11
251.058
 20
374.451
 21
374.332
  0
LINE
  8
0
 10
251.058
 11
250.9
 20
374.332
 21
374.23
  0
LINE
  8
0
 10
250.9
 11
250.732
 20
374.23
 21
374.144
  0
LINE
  8
0
 10
250.732
 11
250.556
 20
374.144
 21
374.076
  0
LINE
  8
0
 10
250.556
 11
250.374
 20
374.076
 21
374.028
  0
LINE
  8
0
 10
250.374
 11
250.188
 20
374.028
 21
373.998
  0
LINE
  8
0
 10
250.188
 11
250
 20
373.998
 21
373.988
  0
LINE
  8
0
 10
250
 11
249.812
 20
373.988
 21
373.998
  0
LINE
  8
0
 10
249.812
 11
249.626
 20
373.998
 21
374.028
  0
LINE
  8
0
 10
249.626
 11
249.444
 20
374.028
 21
374.076
  0
LINE
  8
0
 10
249.444
 11
249.268
 20
374.076
 21
374.144
  0
LINE
  8
0
 10
249.268
 11
249.1
 20
374.144
 21
374.23
  0
LINE
  8
0
 10
249.1
 11
248.942
 20
374.23
 21
374.332
  0
LINE
  8
0
 10
248.942
 11
248.796
 20
374.332
 21
374.451
  0
LINE
  8
0
 10
248.796
 11
248.662
 20
374.451
 21
374.584
  0
LINE
  8
0
 10
248.662
 11
248.544
 20
374.584
 21
374.73
  0
LINE
  8
0
 10
248.544
 11
248.441
 20
374.73
 21
374.888
  0
LINE
  8
0
 10
248.441
 11
248.356
 20
374.888
 21
375.056
  0
LINE
  8
0
 10
248.356
 11
248.288
 20
375.056
 21
375.232
  0
LINE
  8
0
 10
248.288
 11
248.239
 20
375.232
 21
375.414
  0
LINE
  8
0
 10
248.239
 11
248.21
 20
375.414
 21
375.6
  0
LINE
  8
0
 10
248.21
 11
248.2
 20
375.6
 21
375.788
  0
LINE
  8
0
 10
249.95
 11
249.95
 20
27.8
 21
32.9
  0
LINE
  8
0
 10
249.95
 11
260.05
 20
32.9
 21
32.9
  0
LINE
  8
0
 10
260.05
 11
260.05
 20
32.9
 21
27.8
  0
LINE
  8
0
 10
260.05
 11
249.95
 20
27.8
 21
27.8
  0
LINE
  8
0
 10
249.95
 11
249.95
 20
354.88
 21
359.98
  0
LINE
  8
0
 10
249.95
 11
260.05
 20
359.98
 21
359.98
  0
LINE
  8
0
 10
260.05
 11
260.05
 20
359.98
 21
354.88
  0
LINE
  8
0
 10
260.05
 11
249.95
 20
354.88
 21
354.88
  0
LINE
  8
0
 10
259.9
 11
259.924
 20
20
 21
20.455
  0
LINE
  8
0
 10
259.924
 11
259.995
 20
20.455
 21
20.904
  0
LINE
  8
0
 10
259.995
 11
260.113
 20
20.904
 21
21.344
  0
LINE
  8
0
 10
260.113
 11
260.276
 20
21.344
 21
21.769
  0
LINE
  8
0
 10
260.276
 11
260.483
 20
21.769
 21
22.175
  0
LINE
  8
0
 10
260.483
 11
260.731
 20
22.175
 21
22.557
  0
LINE
  8
0
 10
260.731
 11
261.017
 20
22.557
 21
22.911
  0
LINE
  8
0
 10
261.017
 11
261.339
 20
22.911
 21
23.233
  0
LINE
  8
0
 10
261.339
 11
261.693
 20
23.233
 21
23.519
  0
LINE
  8
0
 10
261.693
 11
262.075
 20
23.519
 21
23.767
  0
LINE
  8
0
 10
262.075
 11
262.481
 20
23.767
 21
23.974
  0
LINE
  8
0
 10
262.481
 11
262.906
 20
23.974
 21
24.137
  0
LINE
  8
0
 10
262.906
 11
263.346
 20
24.137
 21
24.255
  0
LINE
  8
0
 10
263.346
 11
263.795
 20
24.255
 21
24.326
  0
LINE
  8
0
 10
263.795
 11
264.25
 20
24.326
 21
24.35
  0
LINE
  8
0
 10
264.25
 11
264.705
 20
24.35
 21
24.326
  0
LINE
  8
0
 10
264.705
 11
265.154
 20
24.326
 21
24.255
  0
LINE
  8
0
 10
265.154
 11
265.594
 20
24.255
 21
24.137
  0
LINE
  8
0
 10
265.594
 11
266.019
 20
24.137
 21
23.974
  0
LINE
  8
0
 10
266.019
 11
266.425
 20
23.974
 21
23.767
  0
LINE
  8
0
 10
266.425
 11
266.807
 20
23.767
 21
23.519
  0
LINE
  8
0
 10
266.807
 11
267.161
 20
23.519
 21
23.233
  0
LINE
  8
0
 10
267.161
 11
267.483
 20
23.233
 21
22.911
  0
LINE
  8
0
 10
267.483
 11
267.769
 20
22.911
 21
22.557
  0
LINE
  8
0
 10
267.769
 11
268.017
 20
22.557
 21
22.175
  0
LINE
  8
0
 10
268.017
 11
268.224
 20
22.175
 21
21.769
  0
LINE
  8
0
 10
268.224
 11
268.387
 20
21.769
 21
21.344
  0
LINE
  8
0
 10
268.387
 11
268.505
 20
21.344
 21
20.904
  0
LINE
  8
0
 10
268.505
 11
268.576
 20
20.904
 21
20.455
  0
LINE
  8
0
 10
268.576
 11
268.6
 20
20.455
 21
20
  0
LINE
  8
0
 10
268.6
 11
268.576
 20
20
 21
19.545
  0
LINE
  8
0
 10
268.576
 11
268.505
 20
19.545
 21
19.096
  0
LINE
  8
0
 10
268.505
 11
268.387
 20
19.096
 21
18.656
  0
LINE
  8
0
 10
268.387
 11
268.224
 20
18.656
 21
18.231
  0
LINE
  8
0
 10
268.224
 11
268.017
 20
18.231
 21
17.825
  0
LINE
  8
0
 10
268.017
 11
267.769
 20
17.825
 21
17.443
  0
LINE
  8
0
 10
267.769
 11
267.483
 20
17.443
 21
17.089
  0
LINE
  8
0
 10
267.483
 11
267.161
 20
17.089
 21
16.767
  0
LINE
  8
0
 10
267.161
 11
266.807
 20
16.767
 21
16.481
  0
LINE
  8
0
 10
266.807
 11
266.425
 20
16.481
 21
16.233
  0
LINE
  8
0
 10
266.425
 11
266.019
 20
16.233
 21
16.026
  0
LINE
  8
0
 10
266.019
 11
265.594
 20
16.026
 21
15.863
  0
LINE
  8
0
 10
265.594
 11
265.154
 20
15.863
 21
15.745
  0
LINE
  8
0
 10
265.154
 11
264.705
 20
15.745
 21
15.674
  0
LINE
  8
0
 10
264.705
 11
264.25
 20
15.674
 21
15.65
  0
LINE
  8
0
 10
264.25
 11
263.795
 20
15.65
 21
15.674
  0
LINE
  8
0
 10
263.795
 11
263.346
 20
15.674
 21
15.745
  0
LINE
  8
0
 10
263.346
 11
262.906
 20
15.745
 21
15.863
  0
LINE
  8
0
 10
262.906
 11
262.481
 20
15.863
 21
16.026
  0
LINE
  8
0
 10
262.481
 11
262.075
 20
16.026
 21
16.233
  0
LINE
  8
0
 10
262.075
 11
261.693
 20
16.233
 21
16.481
  0
LINE
  8
0
 10
261.693
 11
261.339
 20
16.481
 21
16.767
  0
LINE
  8
0
 10
261.339
 11
261.017
 20
16.767
 21
17.089
  0
LINE
  8
0
 10
261.017
 11
260.731
 20
17.089
 21
17.443
  0
LINE
  8
0
 10
260.731
 11
260.483
 20
17.443
 21
17.825
  0
LINE
  8
0
 10
260.483
 11
260.276
 20
17.825
 21
18.231
  0
LINE
  8
0
 10
260.276
 11
260.113
 20
18.231
 21
18.656
  0
LINE
  8
0
 10
260.113
 11
259.995
 20
18.656
 21
19.096
  0
LINE
  8
0
 10
259.995
 11
259.924
 20
19.096
 21
19.545
  0
LINE
  8
0
 10
259.924
 11
259.9
 20
19.545
 21
20
  0
LINE
  8
0
 10
259.9
 11
259.924
 20
347.08
 21
347.535
  0
LINE
  8
0
 10
259.924
 11
259.995
 20
347.535
 21
347.984
  0
LINE
  8
0
 10
259.995
 11
260.113
 20
347.984
 21
348.424
  0
LINE
  8
0
 10
260.113
 11
260.276
 20
348.424
 21
348.849
  0
LINE
  8
0
 10
260.276
 11
260.483
 20
348.849
 21
349.255
  0
LINE
  8
0
 10
260.483
 11
260.731
 20
349.255
 21
349.637
  0
LINE
  8
0
 10
260.731
 11
261.017
 20
349.637
 21
349.991
  0
LINE
  8
0
 10
261.017
 11
261.339
 20
349.991
 21
350.313
  0
LINE
  8
0
 10
261.339
 11
261.693
 20
350.313
 21
350.599
  0
LINE
  8
0
 10
261.693
 11
262.075
 20
350.599
 21
350.847
  0
LINE
  8
0
 10
262.075
 11
262.481
 20
350.847
 21
351.054
  0
LINE
  8
0
 10
262.481
 11
262.906
 20
351.054
 21
351.217
  0
LINE
  8
0
 10
262.906
 11
263.346
 20
351.217
 21
351.335
  0
LINE
  8
0
 10
263.346
 11
263.795
 20
351.335
 21
351.406
  0
LINE
  8
0
 10
263.795
 11
264.25
 20
351.406
 21
351.43
  0
LINE
  8
0
 10
264.25
 11
264.705
 20
351.43
 21
351.406
  0
LINE
  8
0
 10
264.705
 11
265.154
 20
351.406
 21
351.335
  0
LINE
  8
0
 10
265.154
 11
265.594
 20
351.335
 21
351.217
  0
LINE
  8
0
 10
265.594
 11
266.019
 20
351.217
 21
351.054
  0
LINE
  8
0
 10
266.019
 11
266.425
 20
351.054
 21
350.847
  0
LINE
  8
0
 10
266.425
 11
266.807
 20
350.847
 21
350.599
  0
LINE
  8
0
 10
266.807
 11
267.161
 20
350.599
 21
350.313
  0
LINE
  8
0
 10
267.161
 11
267.483
 20
350.313
 21
349.991
  0
LINE
  8
0
 10
267.483
 11
267.769
 20
349.991
 21
349.637
  0
LINE
  8
0
 10
267.769
 11
268.017
 20
349.637
 21
349.255
  0
LINE
  8
0
 10
268.017
 11
268.224
 20
349.255
 21
348.849
  0
LINE
  8
0
 10
268.224
 11
268.387
 20
348.849
 21
348.424
  0
LINE
  8
0
 10
268.387
 11
268.505
 20
348.424
 21
347.984
  0
LINE
  8
0
 10
268.505
 11
268.576
 20
347.984
 21
347.535
  0
LINE
  8
0
 10
268.576
 11
268.6
 20
347.535
 21
347.08
  0
LINE
  8
0
 10
268.6
 11
268.576
 20
347.08
 21
346.625
  0
LINE
  8
0
 10
268.576
 11
268.505
 20
346.625
 21
346.176
  0
LINE
  8
0
 10
268.505
 11
268.387
 20
346.176
 21
345.736
  0
LINE
  8
0
 10
268.387
 11
268.224
 20
345.736
 21
345.311
  0
LINE
  8
0
 10
268.224
 11
268.017
 20
345.311
 21
344.905
  0
LINE
  8
0
 10
268.017
 11
267.769
 20
344.905
 21
344.523
  0
LINE
  8
0
 10
267.769
 11
267.483
 20
344.523
 21
344.169
  0
LINE
  8
0
 10
267.483
 11
267.161
 20
344.169
 21
343.847
  0
LINE
  8
0
 10
267.161
 11
266.807
 20
343.847
 21
343.561
  0
LINE
  8
0
 10
266.807
 11
266.425
 20
343.561
 21
343.313
  0
LINE
  8
0
 10
266.425
 11
266.019
 20
343.313
 21
343.106
  0
LINE
  8
0
 10
266.019
 11
265.594
 20
343.106
 21
342.943
  0
LINE
  8
0
 10
265.594
 11
265.154
 20
342.943
 21
342.825
  0
LINE
  8
0
 10
265.154
 11
264.705
 20
342.825
 21
342.754
  0
LINE
  8
0
 10
264.705
 11
264.25
 20
342.754
 21
342.73
  0
LINE
  8
0
 10
264.25
 11
263.795
 20
342.73
 21
342.754
  0
LINE
  8
0
 10
263.795
 11
263.346
 20
342.754
 21
342.825
  0
LINE
  8
0
 10
263.346
 11
262.906
 20
342.825
 21
342.943
  0
LINE
  8
0
 10
262.906
 11
262.481
 20
342.943
 21
343.106
  0
LINE
  8
0
 10
262.481
 11
262.075
 20
343.106
 21
343.313
  0
LINE
  8
0
 10
262.075
 11
261.693
 20
343.313
 21
343.561
  0
LINE
  8
0
 10
261.693
 11
261.339
 20
343.561
 21
343.847
  0
LINE
  8
0
 10
261.339
 11
261.017
 20
343.847
 21
344.169
  0
LINE
  8
0
 10
261.017
 11
260.731
 20
344.169
 21
344.523
  0
LINE
  8
0
 10
260.731
 11
260.483
 20
344.523
 21
344.905
  0
LINE
  8
0
 10
260.483
 11
260.276
 20
344.905
 21
345.311
  0
LINE
  8
0
 10
260.276
 11
260.113
 20
345.311
 21
345.736
  0
LINE
  8
0
 10
260.113
 11
259.995
 20
345.736
 21
346.176
  0
LINE
  8
0
 10
259.995
 11
259.924
 20
346.176
 21
346.625
  0
LINE
  8
0
 10
259.924
 11
259.9
 20
346.625
 21
347.08
  0
LINE
  8
0
 10
293.2
 11
293.21
 20
85
 21
85.188
  0
LINE
  8
0
 10
293.21
 11
293.239
 20
85.188
 21
85.374
  0
LINE
  8
0
 10
293.239
 11
293.288
 20
85.374
 21
85.556
  0
LINE
  8
0
 10
293.288
 11
293.356
 20
85.556
 21
85.732
  0
LINE
  8
0
 10
293.356
 11
293.441
 20
85.732
 21
85.9
  0
LINE
  8
0
 10
293.441
 11
293.544
 20
85.9
 21
86.058
  0
LINE
  8
0
 10
293.544
 11
293.662
 20
86.058
 21
86.204
  0
LINE
  8
0
 10
293.662
 11
293.796
 20
86.204
 21
86.338
  0
LINE
  8
0
 10
293.796
 11
293.942
 20
86.338
 21
86.456
  0
LINE
  8
0
 10
293.942
 11
294.1
 20
86.456
 21
86.559
  0
LINE
  8
0
 10
294.1
 11
294.268
 20
86.559
 21
86.644
  0
LINE
  8
0
 10
294.268
 11
294.444
 20
86.644
 21
86.712
  0
LINE
  8
0
 10
294.444
 11
294.626
 20
86.712
 21
86.761
  0
LINE
  8
0
 10
294.626
 11
294.812
 20
86.761
 21
86.79
  0
LINE
  8
0
 10
294.812
 11
295
 20
86.79
 21
86.8
  0
LINE
  8
0
 10
295
 11
295.188
 20
86.8
 21
86.79
  0
LINE
  8
0
 10
295.188
 11
295.374
 20
86.79
 21
86.761
  0
LINE
  8
0
 10
295.374
 11
295.556
 20
86.761
 21
86.712
  0
LINE
  8
0
 10
295.556
 11
295.732
 20
86.712
 21
86.644
  0
LINE
  8
0
 10
295.732
 11
295.9
 20
86.644
 21
86.559
  0
LINE
  8
0
 10
295.9
 11
296.058
 20
86.559
 21
86.456
  0
LINE
  8
0
 10
296.058
 11
296.204
 20
86.456
 21
86.338
  0
LINE
  8
0
 10
296.204
 11
296.338
 20
86.338
 21
86.204
  0
LINE
  8
0
 10
296.338
 11
296.456
 20
86.204
 21
86.058
  0
LINE
  8
0
 10
296.456
 11
296.559
 20
86.058
 21
85.9
  0
LINE
  8
0
 10
296.559
 11
296.644
 20
85.9
 21
85.732
  0
LINE
  8
0
 10
296.644
 11
296.712
 20
85.732
 21
85.556
  0
LINE
  8
0
 10
296.712
 11
296.761
 20
85.556
 21
85.374
  0
LINE
  8
0
 10
296.761
 11
296.79
 20
85.374
 21
85.188
  0
LINE
  8
0
 10
296.79
 11
296.8
 20
85.188
 21
85
  0
LINE
  8
0
 10
296.8
 11
296.79
 20
85
 21
84.812
  0
LINE
  8
0
 10
296.79
 11
296.761
 20
84.812
 21
84.626
  0
LINE
  8
0
 10
296.761
 11
296.712
 20
84.626
 21
84.444
  0
LINE
  8
0
 10
296.712
 11
296.644
 20
84.444
 21
84.268
  0
LINE
  8
0
 10
296.644
 11
296.559
 20
84.268
 21
84.1
  0
LINE
  8
0
 10
296.559
 11
296.456
 20
84.1
 21
83.942
  0
LINE
  8
0
 10
296.456
 11
296.338
 20
83.942
 21
83.796
  0
LINE
  8
0
 10
296.338
 11
296.204
 20
83.796
 21
83.662
  0
LINE
  8
0
 10
296.204
 11
296.058
 20
83.662
 21
83.544
  0
LINE
  8
0
 10
296.058
 11
295.9
 20
83.544
 21
83.441
  0
LINE
  8
0
 10
295.9
 11
295.732
 20
83.441
 21
83.356
  0
LINE
  8
0
 10
295.732
 11
295.556
 20
83.356
 21
83.288
  0
LINE
  8
0
 10
295.556
 11
295.374
 20
83.288
 21
83.239
  0
LINE
  8
0
 10
295.374
 11
295.188
 20
83.239
 21
83.21
  0
LINE
  8
0
 10
295.188
 11
295
 20
83.21
 21
83.2
  0
LINE
  8
0
 10
295
 11
294.812
 20
83.2
 21
83.21
  0
LINE
  8
0
 10
294.812
 11
294.626
 20
83.21
 21
83.239
  0
LINE
  8
0
 10
294.626
 11
294.444
 20
83.239
 21
83.288
  0
LINE
  8
0
 10
294.444
 11
294.268
 20
83.288
 21
83.356
  0
LINE
  8
0
 10
294.268
 11
294.1
 20
83.356
 21
83.441
  0
LINE
  8
0
 10
294.1
 11
293.942
 20
83.441
 21
83.544
  0
LINE
  8
0
 10
293.942
 11
293.796
 20
83.544
 21
83.662
  0
LINE
  8
0
 10
293.796
 11
293.662
 20
83.662
 21
83.796
  0
LINE
  8
0
 10
293.662
 11
293.544
 20
83.796
 21
83.942
  0
LINE
  8
0
 10
293.544
 11
293.441
 20
83.942
 21
84.1
  0
LINE
  8
0
 10
293.441
 11
293.356
 20
84.1
 21
84.268
  0
LINE
  8
0
 10
293.356
 11
293.288
 20
84.268
 21
84.444
  0
LINE
  8
0
 10
293.288
 11
293.239
 20
84.444
 21
84.626
  0
LINE
  8
0
 10
293.239
 11
293.21
 20
84.626
 21
84.812
  0
LINE
  8
0
 10
293.21
 11
293.2
 20
84.812
 21
85
  0
LINE
  8
0
 10
293.2
 11
293.21
 20
135
 21
135.188
  0
LINE
  8
0
 10
293.21
 11
293.239
 20
135.188
 21
135.374
  0
LINE
  8
0
 10
293.239
 11
293.288
 20
135.374
 21
135.556
  0
LINE
  8
0
 10
293.288
 11
293.356
 20
135.556
 21
135.732
  0
LINE
  8
0
 10
293.356
 11
293.441
 20
135.732
 21
135.9
  0
LINE
  8
0
 10
293.441
 11
293.544
 20
135.9
 21
136.058
  0
LINE
  8
0
 10
293.544
 11
293.662
 20
136.058
 21
136.204
  0
LINE
  8
0
 10
293.662
 11
293.796
 20
136.204
 21
136.338
  0
LINE
  8
0
 10
293.796
 11
293.942
 20
136.338
 21
136.456
  0
LINE
  8
0
 10
293.942
 11
294.1
 20
136.456
 21
136.559
  0
LINE
  8
0
 10
294.1
 11
294.268
 20
136.559
 21
136.644
  0
LINE
  8
0
 10
294.268
 11
294.444
 20
136.644
 21
136.712
  0
LINE
  8
0
 10
294.444
 11
294.626
 20
136.712
 21
136.761
  0
LINE
  8
0
 10
294.626
 11
294.812
 20
136.761
 21
136.79
  0
LINE
  8
0
 10
294.812
 11
295
 20
136.79
 21
136.8
  0
LINE
  8
0
 10
295
 11
295.188
 20
136.8
 21
136.79
  0
LINE
  8
0
 10
295.188
 11
295.374
 20
136.79
 21
136.761
  0
LINE
  8
0
 10
295.374
 11
295.556
 20
136.761
 21
136.712
  0
LINE
  8
0
 10
295.556
 11
295.732
 20
136.712
 21
136.644
  0
LINE
  8
0
 10
295.732
 11
295.9
 20
136.644
 21
136.559
  0
LINE
  8
0
 10
295.9
 11
296.058
 20
136.559
 21
136.456
  0
LINE
  8
0
 10
296.058
 11
296.204
 20
136.456
 21
136.338
  0
LINE
  8
0
 10
296.204
 11
296.338
 20
136.338
 21
136.204
  0
LINE
  8
0
 10
296.338
 11
296.456
 20
136.204
 21
136.058
  0
LINE
  8
0
 10
296.456
 11
296.559
 20
136.058
 21
135.9
  0
LINE
  8
0
 10
296.559
 11
296.644
 20
135.9
 21
135.732
  0
LINE
  8
0
 10
296.644
 11
296.712
 20
135.732
 21
135.556
  0
LINE
  8
0
 10
296.712
 11
296.761
 20
135.556
 21
135.374
  0
LINE
  8
0
 10
296.761
 11
296.79
 20
135.374
 21
135.188
  0
LINE
  8
0
 10
296.79
 11
296.8
 20
135.188
 21
135
  0
LINE
  8
0
 10
296.8
 11
296.79
 20
135
 21
134.812
  0
LINE
  8
0
 10
296.79
 11
296.761
 20
134.812
 21
134.626
  0
LINE
  8
0
 10
296.761
 11
296.712
 20
134.626
 21
134.444
  0
LINE
  8
0
 10
296.712
 11
296.644
 20
134.444
 21
134.268
  0
LINE
  8
0
 10
296.644
 11
296.559
 20
134.268
 21
134.1
  0
LINE
  8
0
 10
296.559
 11
296.456
 20
134.1
 21
133.942
  0
LINE
  8
0
 10
296.456
 11
296.338
 20
133.942
 21
133.796
  0
LINE
  8
0
 10
296.338
 11
296.204
 20
133.796
 21
133.662
  0
LINE
  8
0
 10
296.204
 11
296.058
 20
133.662
 21
133.544
  0
LINE
  8
0
 10
296.058
 11
295.9
 20
133.544
 21
133.441
  0
LINE
  8
0
 10
295.9
 11
295.732
 20
133.441
 21
133.356
  0
LINE
  8
0
 10
295.732
 11
295.556
 20
133.356
 21
133.288
  0
LINE
  8
0
 10
295.556
 11
295.374
 20
133.288
 21
133.239
  0
LINE
  8
0
 10
295.374
 11
295.188
 20
133.239
 21
133.21
  0
LINE
  8
0
 10
295.188
 11
295
 20
133.21
 21
133.2
  0
LINE
  8
0
 10
295
 11
294.812
 20
133.2
 21
133.21
  0
LINE
  8
0
 10
294.812
 11
294.626
 20
133.21
 21
133.239
  0
LINE
  8
0
 10
294.626
 11
294.444
 20
133.239
 21
133.288
  0
LINE
  8
0
 10
294.444
 11
294.268
 20
133.288
 21
133.356
  0
LINE
  8
0
 10
294.268
 11
294.1
 20
133.356
 21
133.441
  0
LINE
  8
0
 10
294.1
 11
293.942
 20
133.441
 21
133.544
  0
LINE
  8
0
 10
293.942
 11
293.796
 20
133.544
 21
133.662
  0
LINE
  8
0
 10
293.796
 11
293.662
 20
133.662
 21
133.796
  0
LINE
  8
0
 10
293.662
 11
293.544
 20
133.796
 21
133.942
  0
LINE
  8
0
 10
293.544
 11
293.441
 20
133.942
 21
134.1
  0
LINE
  8
0
 10
293.441
 11
293.356
 20
134.1
 21
134.268
  0
LINE
  8
0
 10
293.356
 11
293.288
 20
134.268
 21
134.444
  0
LINE
  8
0
 10
293.288
 11
293.239
 20
134.444
 21
134.626
  0
LINE
  8
0
 10
293.239
 11
293.21
 20
134.626
 21
134.812
  0
LINE
  8
0
 10
293.21
 11
293.2
 20
134.812
 21
135
  0
LINE
  8
0
 10
293.2
 11
293.21
 20
185
 21
185.188
  0
LINE
  8
0
 10
293.21
 11
293.239
 20
185.188
 21
185.374
  0
LINE
  8
0
 10
293.239
 11
293.288
 20
185.374
 21
185.556
  0
LINE
  8
0
 10
293.288
 11
293.356
 20
185.556
 21
185.732
  0
LINE
  8
0
 10
293.356
 11
293.441
 20
185.732
 21
185.9
  0
LINE
  8
0
 10
293.441
 11
293.544
 20
185.9
 21
186.058
  0
LINE
  8
0
 10
293.544
 11
293.662
 20
186.058
 21
186.204
  0
LINE
  8
0
 10
293.662
 11
293.796
 20
186.204
 21
186.338
  0
LINE
  8
0
 10
293.796
 11
293.942
 20
186.338
 21
186.456
  0
LINE
  8
0
 10
293.942
 11
294.1
 20
186.456
 21
186.559
  0
LINE
  8
0
 10
294.1
 11
294.268
 20
186.559
 21
186.644
  0
LINE
  8
0
 10
294.268
 11
294.444
 20
186.644
 21
186.712
  0
LINE
  8
0
 10
294.444
 11
294.626
 20
186.712
 21
186.761
  0
LINE
  8
0
 10
294.626
 11
294.812
 20
186.761
 21
186.79
  0
LINE
  8
0
 10
294.812
 11
295
 20
186.79
 21
186.8
  0
LINE
  8
0
 10
295
 11
295.188
 20
186.8
 21
186.79
  0
LINE
  8
0
 10
295.188
 11
295.374
 20
186.79
 21
186.761
  0
LINE
  8
0
 10
295.374
 11
295.556
 20
186.761
 21
186.712
  0
LINE
  8
0
 10
295.556
 11
295.732
 20
186.712
 21
186.644
  0
LINE
  8
0
 10
295.732
 11
295.9
 20
186.644
 21
186.559
  0
LINE
  8
0
 10
295.9
 11
296.058
 20
186.559
 21
186.456
  0
LINE
  8
0
 10
296.058
 11
296.204
 20
186.456
 21
186.338
  0
LINE
  8
0
 10
296.204
 11
296.338
 20
186.338
 21
186.204
  0
LINE
  8
0
 10
296.338
 11
296.456
 20
186.204
 21
186.058
  0
LINE
  8
0
 10
296.456
 11
296.559
 20
186.058
 21
185.9
  0
LINE
  8
0
 10
296.559
 11
296.644
 20
185.9
 21
185.732
  0
LINE
  8
0
 10
296.644
 11
296.712
 20
185.732
 21
185.556
  0
LINE
  8
0
 10
296.712
 11
296.761
 20
185.556
 21
185.374
  0
LINE
  8
0
 10
296.761
 11
296.79
 20
185.374
 21
185.188
  0
LINE
  8
0
 10
296.79
 11
296.8
 20
185.188
 21
185
  0
LINE
  8
0
 10
296.8
 11
296.79
 20
185
 21
184.812
  0
LINE
  8
0
 10
296.79
 11
296.761
 20
184.812
 21
184.626
  0
LINE
  8
0
 10
296.761
 11
296.712
 20
184.626
 21
184.444
  0
LINE
  8
0
 10
296.712
 11
296.644
 20
184.444
 21
184.268
  0
LINE
  8
0
 10
296.644
 11
296.559
 20
184.268
 21
184.1
  0
LINE
  8
0
 10
296.559
 11
296.456
 20
184.1
 21
183.942
  0
LINE
  8
0
 10
296.456
 11
296.338
 20
183.942
 21
183.796
  0
LINE
  8
0
 10
296.338
 11
296.204
 20
183.796
 21
183.662
  0
LINE
  8
0
 10
296.204
 11
296.058
 20
183.662
 21
183.544
  0
LINE
  8
0
 10
296.058
 11
295.9
 20
183.544
 21
183.441
  0
LINE
  8
0
 10
295.9
 11
295.732
 20
183.441
 21
183.356
  0
LINE
  8
0
 10
295.732
 11
295.556
 20
183.356
 21
183.288
  0
LINE
  8
0
 10
295.556
 11
295.374
 20
183.288
 21
183.239
  0
LINE
  8
0
 10
295.374
 11
295.188
 20
183.239
 21
183.21
  0
LINE
  8
0
 10
295.188
 11
295
 20
183.21
 21
183.2
  0
LINE
  8
0
 10
295
 11
294.812
 20
183.2
 21
183.21
  0
LINE
  8
0
 10
294.812
 11
294.626
 20
183.21
 21
183.239
  0
LINE
  8
0
 10
294.626
 11
294.444
 20
183.239
 21
183.288
  0
LINE
  8
0
 10
294.444
 11
294.268
 20
183.288
 21
183.356
  0
LINE
  8
0
 10
294.268
 11
294.1
 20
183.356
 21
183.441
  0
LINE
  8
0
 10
294.1
 11
293.942
 20
183.441
 21
183.544
  0
LINE
  8
0
 10
293.942
 11
293.796
 20
183.544
 21
183.662
  0
LINE
  8
0
 10
293.796
 11
293.662
 20
183.662
 21
183.796
  0
LINE
  8
0
 10
293.662
 11
293.544
 20
183.796
 21
183.942
  0
LINE
  8
0
 10
293.544
 11
293.441
 20
183.942
 21
184.1
  0
LINE
  8
0
 10
293.441
 11
293.356
 20
184.1
 21
184.268
  0
LINE
  8
0
 10
293.356
 11
293.288
 20
184.268
 21
184.444
  0
LINE
  8
0
 10
293.288
 11
293.239
 20
184.444
 21
184.626
  0
LINE
  8
0
 10
293.239
 11
293.21
 20
184.626
 21
184.812
  0
LINE
  8
0
 10
293.21
 11
293.2
 20
184.812
 21
185
  0
LINE
  8
0
 10
293.2
 11
293.21
 20
235
 21
235.188
  0
LINE
  8
0
 10
293.21
 11
293.239
 20
235.188
 21
235.374
  0
LINE
  8
0
 10
293.239
 11
293.288
 20
235.374
 21
235.556
  0
LINE
  8
0
 10
293.288
 11
293.356
 20
235.556
 21
235.732
  0
LINE
  8
0
 10
293.356
 11
293.441
 20
235.732
 21
235.9
  0
LINE
  8
0
 10
293.441
 11
293.544
 20
235.9
 21
236.058
  0
LINE
  8
0
 10
293.544
 11
293.662
 20
236.058
 21
236.204
  0
LINE
  8
0
 10
293.662
 11
293.796
 20
236.204
 21
236.338
  0
LINE
  8
0
 10
293.796
 11
293.942
 20
236.338
 21
236.456
  0
LINE
  8
0
 10
293.942
 11
294.1
 20
236.456
 21
236.559
  0
LINE
  8
0
 10
294.1
 11
294.268
 20
236.559
 21
236.644
  0
LINE
  8
0
 10
294.268
 11
294.444
 20
236.644
 21
236.712
  0
LINE
  8
0
 10
294.444
 11
294.626
 20
236.712
 21
236.761
  0
LINE
  8
0
 10
294.626
 11
294.812
 20
236.761
 21
236.79
  0
LINE
  8
0
 10
294.812
 11
295
 20
236.79
 21
236.8
  0
LINE
  8
0
 10
295
 11
295.188
 20
236.8
 21
236.79
  0
LINE
  8
0
 10
295.188
 11
295.374
 20
236.79
 21
236.761
  0
LINE
  8
0
 10
295.374
 11
295.556
 20
236.761
 21
236.712
  0
LINE
  8
0
 10
295.556
 11
295.732
 20
236.712
 21
236.644
  0
LINE
  8
0
 10
295.732
 11
295.9
 20
236.644
 21
236.559
  0
LINE
  8
0
 10
295.9
 11
296.058
 20
236.559
 21
236.456
  0
LINE
  8
0
 10
296.058
 11
296.204
 20
236.456
 21
236.338
  0
LINE
  8
0
 10
296.204
 11
296.338
 20
236.338
 21
236.204
  0
LINE
  8
0
 10
296.338
 11
296.456
 20
236.204
 21
236.058
  0
LINE
  8
0
 10
296.456
 11
296.559
 20
236.058
 21
235.9
  0
LINE
  8
0
 10
296.559
 11
296.644
 20
235.9
 21
235.732
  0
LINE
  8
0
 10
296.644
 11
296.712
 20
235.732
 21
235.556
  0
LINE
  8
0
 10
296.712
 11
296.761
 20
235.556
 21
235.374
  0
LINE
  8
0
 10
296.761
 11
296.79
 20
235.374
 21
235.188
  0
LINE
  8
0
 10
296.79
 11
296.8
 20
235.188
 21
235
  0
LINE
  8
0
 10
296.8
 11
296.79
 20
235
 21
234.812
  0
LINE
  8
0
 10
296.79
 11
296.761
 20
234.812
 21
234.626
  0
LINE
  8
0
 10
296.761
 11
296.712
 20
234.626
 21
234.444
  0
LINE
  8
0
 10
296.712
 11
296.644
 20
234.444
 21
234.268
  0
LINE
  8
0
 10
296.644
 11
296.559
 20
234.268
 21
234.1
  0
LINE
  8
0
 10
296.559
 11
296.456
 20
234.1
 21
233.942
  0
LINE
  8
0
 10
296.456
 11
296.338
 20
233.942
 21
233.796
  0
LINE
  8
0
 10
296.338
 11
296.204
 20
233.796
 21
233.662
  0
LINE
  8
0
 10
296.204
 11
296.058
 20
233.662
 21
233.544
  0
LINE
  8
0
 10
296.058
 11
295.9
 20
233.544
 21
233.441
  0
LINE
  8
0
 10
295.9
 11
295.732
 20
233.441
 21
233.356
  0
LINE
  8
0
 10
295.732
 11
295.556
 20
233.356
 21
233.288
  0
LINE
  8
0
 10
295.556
 11
295.374
 20
233.288
 21
233.239
  0
LINE
  8
0
 10
295.374
 11
295.188
 20
233.239
 21
233.21
  0
LINE
  8
0
 10
295.188
 11
295
 20
233.21
 21
233.2
  0
LINE
  8
0
 10
295
 11
294.812
 20
233.2
 21
233.21
  0
LINE
  8
0
 10
294.812
 11
294.626
 20
233.21
 21
233.239
  0
LINE
  8
0
 10
294.626
 11
294.444
 20
233.239
 21
233.288
  0
LINE
  8
0
 10
294.444
 11
294.268
 20
233.288
 21
233.356
  0
LINE
  8
0
 10
294.268
 11
294.1
 20
233.356
 21
233.441
  0
LINE
  8
0
 10
294.1
 11
293.942
 20
233.441
 21
233.544
  0
LINE
  8
0
 10
293.942
 11
293.796
 20
233.544
 21
233.662
  0
LINE
  8
0
 10
293.796
 11
293.662
 20
233.662
 21
233.796
  0
LINE
  8
0
 10
293.662
 11
293.544
 20
233.796
 21
233.942
  0
LINE
  8
0
 10
293.544
 11
293.441
 20
233.942
 21
234.1
  0
LINE
  8
0
 10
293.441
 11
293.356
 20
234.1
 21
234.268
  0
LINE
  8
0
 10
293.356
 11
293.288
 20
234.268
 21
234.444
  0
LINE
  8
0
 10
293.288
 11
293.239
 20
234.444
 21
234.626
  0
LINE
  8
0
 10
293.239
 11
293.21
 20
234.626
 21
234.812
  0
LINE
  8
0
 10
293.21
 11
293.2
 20
234.812
 21
235
  0
LINE
  8
0
 10
303.283
 11
303.283
 20
17.45
 21
22.55
  0
LINE
  8
0
 10
303.283
 11
313.383
 20
22.55
 21
22.55
  0
LINE
  8
0
 10
313.383
 11
313.383
 20
22.55
 21
17.45
  0
LINE
  8
0
 10
313.383
 11
303.283
 20
17.45
 21
17.45
  0
LINE
  8
0
 10
322.04
 11
322.05
 20
243.157
 21
243.345
  0
LINE
  8
0
 10
322.05
 11
322.079
 20
243.345
 21
243.531
  0
LINE
  8
0
 10
322.079
 11
322.128
 20
243.531
 21
243.713
  0
LINE
  8
0
 10
322.128
 11
322.195
 20
243.713
 21
243.889
  0
LINE
  8
0
 10
322.195
 11
322.281
 20
243.889
 21
244.057
  0
LINE
  8
0
 10
322.281
 11
322.384
 20
244.057
 21
244.215
  0
LINE
  8
0
 10
322.384
 11
322.502
 20
244.215
 21
244.361
  0
LINE
  8
0
 10
322.502
 11
322.635
 20
244.361
 21
244.495
  0
LINE
  8
0
 10
322.635
 11
322.782
 20
244.495
 21
244.613
  0
LINE
  8
0
 10
322.782
 11
322.94
 20
244.613
 21
244.716
  0
LINE
  8
0
 10
322.94
 11
323.108
 20
244.716
 21
244.801
  0
LINE
  8
0
 10
323.108
 11
323.284
 20
244.801
 21
244.869
  0
LINE
  8
0
 10
323.284
 11
323.466
 20
244.869
 21
244.918
  0
LINE
  8
0
 10
323.466
 11
323.652
 20
244.918
 21
244.947
  0
LINE
  8
0
 10
323.652
 11
323.84
 20
244.947
 21
244.957
  0
LINE
  8
0
 10
323.84
 11
324.028
 20
244.957
 21
244.947
  0
LINE
  8
0
 10
324.028
 11
324.214
 20
244.947
 21
244.918
  0
LINE
  8
0
 10
324.214
 11
324.396
 20
244.918
 21
244.869
  0
LINE
  8
0
 10
324.396
 11
324.572
 20
244.869
 21
244.801
  0
LINE
  8
0
 10
324.572
 11
324.74
 20
244.801
 21
244.716
  0
LINE
  8
0
 10
324.74
 11
324.898
 20
244.716
 21
244.613
  0
LINE
  8
0
 10
324.898
 11
325.044
 20
244.613
 21
244.495
  0
LINE
  8
0
 10
325.044
 11
325.177
 20
244.495
 21
244.361
  0
LINE
  8
0
 10
325.177
 11
325.296
 20
244.361
 21
244.215
  0
LINE
  8
0
 10
325.296
 11
325.399
 20
244.215
 21
244.057
  0
LINE
  8
0
 10
325.399
 11
325.484
 20
244.057
 21
243.889
  0
LINE
  8
0
 10
325.484
 11
325.552
 20
243.889
 21
243.713
  0
LINE
  8
0
 10
325.552
 11
325.6
 20
243.713
 21
243.531
  0
LINE
  8
0
 10
325.6
 11
325.63
 20
243.531
 21
243.345
  0
LINE
  8
0
 10
325.63
 11
325.64
 20
243.345
 21
243.157
  0
LINE
  8
0
 10
325.64
 11
325.63
 20
243.157
 21
242.969
  0
LINE
  8
0
 10
325.63
 11
325.6
 20
242.969
 21
242.783
  0
LINE
  8
0
 10
325.6
 11
325.552
 20
242.783
 21
242.601
  0
LINE
  8
0
 10
325.552
 11
325.484
 20
242.601
 21
242.425
  0
LINE
  8
0
 10
325.484
 11
325.399
 20
242.425
 21
242.257
  0
LINE
  8
0
 10
325.399
 11
325.296
 20
242.257
 21
242.099
  0
LINE
  8
0
 10
325.296
 11
325.177
 20
242.099
 21
241.953
  0
LINE
  8
0
 10
325.177
 11
325.044
 20
241.953
 21
241.819
  0
LINE
  8
0
 10
325.044
 11
324.898
 20
241.819
 21
241.701
  0
LINE
  8
0
 10
324.898
 11
324.74
 20
241.701
 21
241.598
  0
LINE
  8
0
 10
324.74
 11
324.572
 20
241.598
 21
241.513
  0
LINE
  8
0
 10
324.572
 11
324.396
 20
241.513
 21
241.445
  0
LINE
  8
0
 10
324.396
 11
324.214
 20
241.445
 21
241.396
  0
LINE
  8
0
 10
324.214
 11
324.028
 20
241.396
 21
241.367
  0
LINE
  8
0
 10
324.028
 11
323.84
 20
241.367
 21
241.357
  0
LINE
  8
0
 10
323.84
 11
323.652
 20
241.357
 21
241.367
  0
LINE
  8
0
 10
323.652
 11
323.466
 20
241.367
 21
241.396
  0
LINE
  8
0
 10
323.466
 11
323.284
 20
241.396
 21
241.445
  0
LINE
  8
0
 10
323.284
 11
323.108
 20
241.445
 21
241.513
  0
LINE
  8
0
 10
323.108
 11
322.94
 20
241.513
 21
241.598
  0
LINE
  8
0
 10
322.94
 11
322.782
 20
241.598
 21
241.701
  0
LINE
  8
0
 10
322.782
 11
322.635
 20
241.701
 21
241.819
  0
LINE
  8
0
 10
322.635
 11
322.502
 20
241.819
 21
241.953
  0
LINE
  8
0
 10
322.502
 11
322.384
 20
241.953
 21
242.099
  0
LINE
  8
0
 10
322.384
 11
322.281
 20
242.099
 21
242.257
  0
LINE
  8
0
 10
322.281
 11
322.195
 20
242.257
 21
242.425
  0
LINE
  8
0
 10
322.195
 11
322.128
 20
242.425
 21
242.601
  0
LINE
  8
0
 10
322.128
 11
322.079
 20
242.601
 21
242.783
  0
LINE
  8
0
 10
322.079
 11
322.05
 20
242.783
 21
242.969
  0
LINE
  8
0
 10
322.05
 11
322.04
 20
242.969
 21
243.157
  0
LINE
  8
0
 10
326.533
 11
326.543
 20
20
 21
20.188
  0
LINE
  8
0
 10
326.543
 11
326.573
 20
20.188
 21
20.374
  0
LINE
  8
0
 10
326.573
 11
326.621
 20
20.374
 21
20.556
  0
LINE
  8
0
 10
326.621
 11
326.689
 20
20.556
 21
20.732
  0
LINE
  8
0
 10
326.689
 11
326.774
 20
20.732
 21
20.9
  0
LINE
  8
0
 10
326.774
 11
326.877
 20
20.9
 21
21.058
  0
LINE
  8
0
 10
326.877
 11
326.996
 20
21.058
 21
21.204
  0
LINE
  8
0
 10
326.996
 11
327.129
 20
21.204
 21
21.338
  0
LINE
  8
0
 10
327.129
 11
327.275
 20
21.338
 21
21.456
  0
LINE
  8
0
 10
327.275
 11
327.433
 20
21.456
 21
21.559
  0
LINE
  8
0
 10
327.433
 11
327.601
 20
21.559
 21
21.644
  0
LINE
  8
0
 10
327.601
 11
327.777
 20
21.644
 21
21.712
  0
LINE
  8
0
 10
327.777
 11
327.959
 20
21.712
 21
21.761
  0
LINE
  8
0
 10
327.959
 11
328.145
 20
21.761
 21
21.79
  0
LINE
  8
0
 10
328.145
 11
328.333
 20
21.79
 21
21.8
  0
LINE
  8
0
 10
328.333
 11
328.521
 20
21.8
 21
21.79
  0
LINE
  8
0
 10
328.521
 11
328.708
 20
21.79
 21
21.761
  0
LINE
  8
0
 10
328.708
 11
328.89
 20
21.761
 21
21.712
  0
LINE
  8
0
 10
328.89
 11
329.065
 20
21.712
 21
21.644
  0
LINE
  8
0
 10
329.065
 11
329.233
 20
21.644
 21
21.559
  0
LINE
  8
0
 10
329.233
 11
329.391
 20
21.559
 21
21.456
  0
LINE
  8
0
 10
329.391
 11
329.538
 20
21.456
 21
21.338
  0
LINE
  8
0
 10
329.538
 11
329.671
 20
21.338
 21
21.204
  0
LINE
  8
0
 10
329.671
 11
329.79
 20
21.204
 21
21.058
  0
LINE
  8
0
 10
329.79
 11
329.892
 20
21.058
 21
20.9
  0
LINE
  8
0
 10
329.892
 11
329.978
 20
20.9
 21
20.732
  0
LINE
  8
0
 10
329.978
 11
330.045
 20
20.732
 21
20.556
  0
LINE
  8
0
 10
330.045
 11
330.094
 20
20.556
 21
20.374
  0
LINE
  8
0
 10
330.094
 11
330.123
 20
20.374
 21
20.188
  0
LINE
  8
0
 10
330.123
 11
330.133
 20
20.188
 21
20
  0
LINE
  8
0
 10
330.133
 11
330.123
 20
20
 21
19.812
  0
LINE
  8
0
 10
330.123
 11
330.094
 20
19.812
 21
19.626
  0
LINE
  8
0
 10
330.094
 11
330.045
 20
19.626
 21
19.444
  0
LINE
  8
0
 10
330.045
 11
329.978
 20
19.444
 21
19.268
  0
LINE
  8
0
 10
329.978
 11
329.892
 20
19.268
 21
19.1
  0
LINE
  8
0
 10
329.892
 11
329.79
 20
19.1
 21
18.942
  0
LINE
  8
0
 10
329.79
 11
329.671
 20
18.942
 21
18.796
  0
LINE
  8
0
 10
329.671
 11
329.538
 20
18.796
 21
18.662
  0
LINE
  8
0
 10
329.538
 11
329.391
 20
18.662
 21
18.544
  0
LINE
  8
0
 10
329.391
 11
329.233
 20
18.544
 21
18.441
  0
LINE
  8
0
 10
329.233
 11
329.065
 20
18.441
 21
18.356
  0
LINE
  8
0
 10
329.065
 11
328.89
 20
18.356
 21
18.288
  0
LINE
  8
0
 10
328.89
 11
328.708
 20
18.288
 21
18.239
  0
LINE
  8
0
 10
328.708
 11
328.521
 20
18.239
 21
18.21
  0
LINE
  8
0
 10
328.521
 11
328.333
 20
18.21
 21
18.2
  0
LINE
  8
0
 10
328.333
 11
328.145
 20
18.2
 21
18.21
  0
LINE
  8
0
 10
328.145
 11
327.959
 20
18.21
 21
18.239
  0
LINE
  8
0
 10
327.959
 11
327.777
 20
18.239
 21
18.288
  0
LINE
  8
0
 10
327.777
 11
327.601
 20
18.288
 21
18.356
  0
LINE
  8
0
 10
327.601
 11
327.433
 20
18.356
 21
18.441
  0
LINE
  8
0
 10
327.433
 11
327.275
 20
18.441
 21
18.544
  0
LINE
  8
0
 10
327.275
 11
327.129
 20
18.544
 21
18.662
  0
LINE
  8
0
 10
327.129
 11
326.996
 20
18.662
 21
18.796
  0
LINE
  8
0
 10
326.996
 11
326.877
 20
18.796
 21
18.942
  0
LINE
  8
0
 10
326.877
 11
326.774
 20
18.942
 21
19.1
  0
LINE
  8
0
 10
326.774
 11
326.689
 20
19.1
 21
19.268
  0
LINE
  8
0
 10
326.689
 11
326.621
 20
19.268
 21
19.444
  0
LINE
  8
0
 10
326.621
 11
326.573
 20
19.444
 21
19.626
  0
LINE
  8
0
 10
326.573
 11
326.543
 20
19.626
 21
19.812
  0
LINE
  8
0
 10
326.543
 11
326.533
 20
19.812
 21
20
  0
LINE
  8
0
 10
343.283
 11
343.283
 20
17.45
 21
22.55
  0
LINE
  8
0
 10
343.283
 11
353.383
 20
22.55
 21
22.55
  0
LINE
  8
0
 10
353.383
 11
353.383
 20
22.55
 21
17.45
  0
LINE
  8
0
 10
353.383
 11
343.283
 20
17.45
 21
17.45
  0
LINE
  8
0
 10
347.04
 11
347.05
 20
199.856
 21
200.044
  0
LINE
  8
0
 10
347.05
 11
347.079
 20
200.044
 21
200.23
  0
LINE
  8
0
 10
347.079
 11
347.128
 20
200.23
 21
200.412
  0
LINE
  8
0
 10
347.128
 11
347.195
 20
200.412
 21
200.588
  0
LINE
  8
0
 10
347.195
 11
347.281
 20
200.588
 21
200.756
  0
LINE
  8
0
 10
347.281
 11
347.384
 20
200.756
 21
200.914
  0
LINE
  8
0
 10
347.384
 11
347.502
 20
200.914
 21
201.06
  0
LINE
  8
0
 10
347.502
 11
347.635
 20
201.06
 21
201.193
  0
LINE
  8
0
 10
347.635
 11
347.782
 20
201.193
 21
201.312
  0
LINE
  8
0
 10
347.782
 11
347.94
 20
201.312
 21
201.415
  0
LINE
  8
0
 10
347.94
 11
348.108
 20
201.415
 21
201.5
  0
LINE
  8
0
 10
348.108
 11
348.284
 20
201.5
 21
201.568
  0
LINE
  8
0
 10
348.284
 11
348.466
 20
201.568
 21
201.616
  0
LINE
  8
0
 10
348.466
 11
348.652
 20
201.616
 21
201.646
  0
LINE
  8
0
 10
348.652
 11
348.84
 20
201.646
 21
201.656
  0
LINE
  8
0
 10
348.84
 11
349.028
 20
201.656
 21
201.646
  0
LINE
  8
0
 10
349.028
 11
349.214
 20
201.646
 21
201.616
  0
LINE
  8
0
 10
349.214
 11
349.396
 20
201.616
 21
201.568
  0
LINE
  8
0
 10
349.396
 11
349.572
 20
201.568
 21
201.5
  0
LINE
  8
0
 10
349.572
 11
349.74
 20
201.5
 21
201.415
  0
LINE
  8
0
 10
349.74
 11
349.898
 20
201.415
 21
201.312
  0
LINE
  8
0
 10
349.898
 11
350.044
 20
201.312
 21
201.193
  0
LINE
  8
0
 10
350.044
 11
350.177
 20
201.193
 21
201.06
  0
LINE
  8
0
 10
350.177
 11
350.296
 20
201.06
 21
200.914
  0
LINE
  8
0
 10
350.296
 11
350.399
 20
200.914
 21
200.756
  0
LINE
  8
0
 10
350.399
 11
350.484
 20
200.756
 21
200.588
  0
LINE
  8
0
 10
350.484
 11
350.552
 20
200.588
 21
200.412
  0
LINE
  8
0
 10
350.552
 11
350.6
 20
200.412
 21
200.23
  0
LINE
  8
0
 10
350.6
 11
350.63
 20
200.23
 21
200.044
  0
LINE
  8
0
 10
350.63
 11
350.64
 20
200.044
 21
199.856
  0
LINE
  8
0
 10
350.64
 11
350.63
 20
199.856
 21
199.668
  0
LINE
  8
0
 10
350.63
 11
350.6
 20
199.668
 21
199.481
  0
LINE
  8
0
 10
350.6
 11
350.552
 20
199.481
 21
199.299
  0
LINE
  8
0
 10
350.552
 11
350.484
 20
199.299
 21
199.124
  0
LINE
  8
0
 10
350.484
 11
350.399
 20
199.124
 21
198.956
  0
LINE
  8
0
 10
350.399
 11
350.296
 20
198.956
 21
198.798
  0
LINE
  8
0
 10
350.296
 11
350.177
 20
198.798
 21
198.651
  0
LINE
  8
0
 10
350.177
 11
350.044
 20
198.651
 21
198.518
  0
LINE
  8
0
 10
350.044
 11
349.898
 20
198.518
 21
198.399
  0
LINE
  8
0
 10
349.898
 11
349.74
 20
198.399
 21
198.297
  0
LINE
  8
0
 10
349.74
 11
349.572
 20
198.297
 21
198.211
  0
LINE
  8
0
 10
349.572
 11
349.396
 20
198.211
 21
198.144
  0
LINE
  8
0
 10
349.396
 11
349.214
 20
198.144
 21
198.095
  0
LINE
  8
0
 10
349.214
 11
349.028
 20
198.095
 21
198.066
  0
LINE
  8
0
 10
349.028
 11
348.84
 20
198.066
 21
198.056
  0
LINE
  8
0
 10
348.84
 11
348.652
 20
198.056
 21
198.066
  0
LINE
  8
0
 10
348.652
 11
348.466
 20
198.066
 21
198.095
  0
LINE
  8
0
 10
348.466
 11
348.284
 20
198.095
 21
198.144
  0
LINE
  8
0
 10
348.284
 11
348.108
 20
198.144
 21
198.211
  0
LINE
  8
0
 10
348.108
 11
347.94
 20
198.211
 21
198.297
  0
LINE
  8
0
 10
347.94
 11
347.782
 20
198.297
 21
198.399
  0
LINE
  8
0
 10
347.782
 11
347.635
 20
198.399
 21
198.518
  0
LINE
  8
0
 10
347.635
 11
347.502
 20
198.518
 21
198.651
  0
LINE
  8
0
 10
347.502
 11
347.384
 20
198.651
 21
198.798
  0
LINE
  8
0
 10
347.384
 11
347.281
 20
198.798
 21
198.956
  0
LINE
  8
0
 10
347.281
 11
347.195
 20
198.956
 21
199.124
  0
LINE
  8
0
 10
347.195
 11
347.128
 20
199.124
 21
199.299
  0
LINE
  8
0
 10
347.128
 11
347.079
 20
199.299
 21
199.481
  0
LINE
  8
0
 10
347.079
 11
347.05
 20
199.481
 21
199.668
  0
LINE
  8
0
 10
347.05
 11
347.04
 20
199.668
 21
199.856
  0
LINE
  8
0
 10
372.04
 11
372.05
 20
156.554
 21
156.743
  0
LINE
  8
0
 10
372.05
 11
372.079
 20
156.743
 21
156.929
  0
LINE
  8
0
 10
372.079
 11
372.128
 20
156.929
 21
157.111
  0
LINE
  8
0
 10
372.128
 11
372.195
 20
157.111
 21
157.287
  0
LINE
  8
0
 10
372.195
 11
372.281
 20
157.287
 21
157.454
  0
LINE
  8
0
 10
372.281
 11
372.384
 20
157.454
 21
157.612
  0
LINE
  8
0
 10
372.384
 11
372.502
 20
157.612
 21
157.759
  0
LINE
  8
0
 10
372.502
 11
372.635
 20
157.759
 21
157.892
  0
LINE
  8
0
 10
372.635
 11
372.782
 20
157.892
 21
158.011
  0
LINE
  8
0
 10
372.782
 11
372.94
 20
158.011
 21
158.113
  0
LINE
  8
0
 10
372.94
 11
373.108
 20
158.113
 21
158.199
  0
LINE
  8
0
 10
373.108
 11
373.284
 20
158.199
 21
158.266
  0
LINE
  8
0
 10
373.284
 11
373.466
 20
158.266
 21
158.315
  0
LINE
  8
0
 10
373.466
 11
373.652
 20
158.315
 21
158.345
  0
LINE
  8
0
 10
373.652
 11
373.84
 20
158.345
 21
158.354
  0
LINE
  8
0
 10
373.84
 11
374.028
 20
158.354
 21
158.345
  0
LINE
  8
0
 10
374.028
 11
374.214
 20
158.345
 21
158.315
  0
LINE
  8
0
 10
374.214
 11
374.396
 20
158.315
 21
158.266
  0
LINE
  8
0
 10
374.396
 11
374.572
 20
158.266
 21
158.199
  0
LINE
  8
0
 10
374.572
 11
374.74
 20
158.199
 21
158.113
  0
LINE
  8
0
 10
374.74
 11
374.898
 20
158.113
 21
158.011
  0
LINE
  8
0
 10
374.898
 11
375.044
 20
158.011
 21
157.892
  0
LINE
  8
0
 10
375.044
 11
375.177
 20
157.892
 21
157.759
  0
LINE
  8
0
 10
375.177
 11
375.296
 20
157.759
 21
157.612
  0
LINE
  8
0
 10
375.296
 11
375.399
 20
157.612
 21
157.454
  0
LINE
  8
0
 10
375.399
 11
375.484
 20
157.454
 21
157.287
  0
LINE
  8
0
 10
375.484
 11
375.552
 20
157.287
 21
157.111
  0
LINE
  8
0
 10
375.552
 11
375.6
 20
157.111
 21
156.929
  0
LINE
  8
0
 10
375.6
 11
375.63
 20
156.929
 21
156.743
  0
LINE
  8
0
 10
375.63
 11
375.64
 20
156.743
 21
156.554
  0
LINE
  8
0
 10
375.64
 11
375.63
 20
156.554
 21
156.366
  0
LINE
  8
0
 10
375.63
 11
375.6
 20
156.366
 21
156.18
  0
LINE
  8
0
 10
375.6
 11
375.552
 20
156.18
 21
155.998
  0
LINE
  8
0
 10
375.552
 11
375.484
 20
155.998
 21
155.822
  0
LINE
  8
0
 10
375.484
 11
375.399
 20
155.822
 21
155.654
  0
LINE
  8
0
 10
375.399
 11
375.296
 20
155.654
 21
155.496
  0
LINE
  8
0
 10
375.296
 11
375.177
 20
155.496
 21
155.35
  0
LINE
  8
0
 10
375.177
 11
375.044
 20
155.35
 21
155.217
  0
LINE
  8
0
 10
375.044
 11
374.898
 20
155.217
 21
155.098
  0
LINE
  8
0
 10
374.898
 11
374.74
 20
155.098
 21
154.996
  0
LINE
  8
0
 10
374.74
 11
374.572
 20
154.996
 21
154.91
  0
LINE
  8
0
 10
374.572
 11
374.396
 20
154.91
 21
154.843
  0
LINE
  8
0
 10
374.396
 11
374.214
 20
154.843
 21
154.794
  0
LINE
  8
0
 10
374.214
 11
374.028
 20
154.794
 21
154.764
  0
LINE
  8
0
 10
374.028
 11
373.84
 20
154.764
 21
154.754
  0
LINE
  8
0
 10
373.84
 11
373.652
 20
154.754
 21
154.764
  0
LINE
  8
0
 10
373.652
 11
373.466
 20
154.764
 21
154.794
  0
LINE
  8
0
 10
373.466
 11
373.284
 20
154.794
 21
154.843
  0
LINE
  8
0
 10
373.284
 11
373.108
 20
154.843
 21
154.91
  0
LINE
  8
0
 10
373.108
 11
372.94
 20
154.91
 21
154.996
  0
LINE
  8
0
 10
372.94
 11
372.782
 20
154.996
 21
155.098
  0
LINE
  8
0
 10
372.782
 11
372.635
 20
155.098
 21
155.217
  0
LINE
  8
0
 10
372.635
 11
372.502
 20
155.217
 21
155.35
  0
LINE
  8
0
 10
372.502
 11
372.384
 20
155.35
 21
155.496
  0
LINE
  8
0
 10
372.384
 11
372.281
 20
155.496
 21
155.654
  0
LINE
  8
0
 10
372.281
 11
372.195
 20
155.654
 21
155.822
  0
LINE
  8
0
 10
372.195
 11
372.128
 20
155.822
 21
155.998
  0
LINE
  8
0
 10
372.128
 11
372.079
 20
155.998
 21
156.18
  0
LINE
  8
0
 10
372.079
 11
372.05
 20
156.18
 21
156.366
  0
LINE
  8
0
 10
372.05
 11
372.04
 20
156.366
 21
156.554
  0
LINE
  8
0
 10
390.65
 11
390.674
 20
20
 21
20.455
  0
LINE
  8
0
 10
390.674
 11
390.745
 20
20.455
 21
20.904
  0
LINE
  8
0
 10
390.745
 11
390.863
 20
20.904
 21
21.344
  0
LINE
  8
0
 10
390.863
 11
391.026
 20
21.344
 21
21.769
  0
LINE
  8
0
 10
391.026
 11
391.233
 20
21.769
 21
22.175
  0
LINE
  8
0
 10
391.233
 11
391.481
 20
22.175
 21
22.557
  0
LINE
  8
0
 10
391.481
 11
391.767
 20
22.557
 21
22.911
  0
LINE
  8
0
 10
391.767
 11
392.089
 20
22.911
 21
23.233
  0
LINE
  8
0
 10
392.089
 11
392.443
 20
23.233
 21
23.519
  0
LINE
  8
0
 10
392.443
 11
392.825
 20
23.519
 21
23.767
  0
LINE
  8
0
 10
392.825
 11
393.231
 20
23.767
 21
23.974
  0
LINE
  8
0
 10
393.231
 11
393.656
 20
23.974
 21
24.137
  0
LINE
  8
0
 10
393.656
 11
394.096
 20
24.137
 21
24.255
  0
LINE
  8
0
 10
394.096
 11
394.545
 20
24.255
 21
24.326
  0
LINE
  8
0
 10
394.545
 11
395
 20
24.326
 21
24.35
  0
LINE
  8
0
 10
395
 11
395.455
 20
24.35
 21
24.326
  0
LINE
  8
0
 10
395.455
 11
395.904
 20
24.326
 21
24.255
  0
LINE
  8
0
 10
395.904
 11
396.344
 20
24.255
 21
24.137
  0
LINE
  8
0
 10
396.344
 11
396.769
 20
24.137
 21
23.974
  0
LINE
  8
0
 10
396.769
 11
397.175
 20
23.974
 21
23.767
  0
LINE
  8
0
 10
397.175
 11
397.557
 20
23.767
 21
23.519
  0
LINE
  8
0
 10
397.557
 11
397.911
 20
23.519
 21
23.233
  0
LINE
  8
0
 10
397.911
 11
398.233
 20
23.233
 21
22.911
  0
LINE
  8
0
 10
398.233
 11
398.519
 20
22.911
 21
22.557
  0
LINE
  8
0
 10
398.519
 11
398.767
 20
22.557
 21
22.175
  0
LINE
  8
0
 10
398.767
 11
398.974
 20
22.175
 21
21.769
  0
LINE
  8
0
 10
398.974
 11
399.137
 20
21.769
 21
21.344
  0
LINE
  8
0
 10
399.137
 11
399.255
 20
21.344
 21
20.904
  0
LINE
  8
0
 10
399.255
 11
399.326
 20
20.904
 21
20.455
  0
LINE
  8
0
 10
399.326
 11
399.35
 20
20.455
 21
20
  0
LINE
  8
0
 10
399.35
 11
399.326
 20
20
 21
19.545
  0
LINE
  8
0
 10
399.326
 11
399.255
 20
19.545
 21
19.096
  0
LINE
  8
0
 10
399.255
 11
399.137
 20
19.096
 21
18.656
  0
LINE
  8
0
 10
399.137
 11
398.974
 20
18.656
 21
18.231
  0
LINE
  8
0
 10
398.974
 11
398.767
 20
18.231
 21
17.825
  0
LINE
  8
0
 10
398.767
 11
398.519
 20
17.825
 21
17.443
  0
LINE
  8
0
 10
398.519
 11
398.233
 20
17.443
 21
17.089
  0
LINE
  8
0
 10
398.233
 11
397.911
 20
17.089
 21
16.767
  0
LINE
  8
0
 10
397.911
 11
397.557
 20
16.767
 21
16.481
  0
LINE
  8
0
 10
397.557
 11
397.175
 20
16.481
 21
16.233
  0
LINE
  8
0
 10
397.175
 11
396.769
 20
16.233
 21
16.026
  0
LINE
  8
0
 10
396.769
 11
396.344
 20
16.026
 21
15.863
  0
LINE
  8
0
 10
396.344
 11
395.904
 20
15.863
 21
15.745
  0
LINE
  8
0
 10
395.904
 11
395.455
 20
15.745
 21
15.674
  0
LINE
  8
0
 10
395.455
 11
395
 20
15.674
 21
15.65
  0
LINE
  8
0
 10
395
 11
394.545
 20
15.65
 21
15.674
  0
LINE
  8
0
 10
394.545
 11
394.096
 20
15.674
 21
15.745
  0
LINE
  8
0
 10
394.096
 11
393.656
 20
15.745
 21
15.863
  0
LINE
  8
0
 10
393.656
 11
393.231
 20
15.863
 21
16.026
  0
LINE
  8
0
 10
393.231
 11
392.825
 20
16.026
 21
16.233
  0
LINE
  8
0
 10
392.825
 11
392.443
 20
16.233
 21
16.481
  0
LINE
  8
0
 10
392.443
 11
392.089
 20
16.481
 21
16.767
  0
LINE
  8
0
 10
392.089
 11
391.767
 20
16.767
 21
17.089
  0
LINE
  8
0
 10
391.767
 11
391.481
 20
17.089
 21
17.443
  0
LINE
  8
0
 10
391.481
 11
391.233
 20
17.443
 21
17.825
  0
LINE
  8
0
 10
391.233
 11
391.026
 20
17.825
 21
18.231
  0
LINE
  8
0
 10
391.026
 11
390.863
 20
18.231
 21
18.656
  0
LINE
  8
0
 10
390.863
 11
390.745
 20
18.656
 21
19.096
  0
LINE
  8
0
 10
390.745
 11
390.674
 20
19.096
 21
19.545
  0
LINE
  8
0
 10
390.674
 11
390.65
 20
19.545
 21
20
  0
LINE
  8
0
 10
397.04
 11
397.05
 20
113.253
 21
113.441
  0
LINE
  8
0
 10
397.05
 11
397.079
 20
113.441
 21
113.627
  0
LINE
  8
0
 10
397.079
 11
397.128
 20
113.627
 21
113.809
  0
LINE
  8
0
 10
397.128
 11
397.195
 20
113.809
 21
113.985
  0
LINE
  8
0
 10
397.195
 11
397.281
 20
113.985
 21
114.153
  0
LINE
  8
0
 10
397.281
 11
397.384
 20
114.153
 21
114.311
  0
LINE
  8
0
 10
397.384
 11
397.502
 20
114.311
 21
114.458
  0
LINE
  8
0
 10
397.502
 11
397.635
 20
114.458
 21
114.591
  0
LINE
  8
0
 10
397.635
 11
397.782
 20
114.591
 21
114.709
  0
LINE
  8
0
 10
397.782
 11
397.94
 20
114.709
 21
114.812
  0
LINE
  8
0
 10
397.94
 11
398.108
 20
114.812
 21
114.898
  0
LINE
  8
0
 10
398.108
 11
398.284
 20
114.898
 21
114.965
  0
LINE
  8
0
 10
398.284
 11
398.466
 20
114.965
 21
115.014
  0
LINE
  8
0
 10
398.466
 11
398.652
 20
115.014
 21
115.043
  0
LINE
  8
0
 10
398.652
 11
398.84
 20
115.043
 21
115.053
  0
LINE
  8
0
 10
398.84
 11
399.028
 20
115.053
 21
115.043
  0
LINE
  8
0
 10
399.028
 11
399.214
 20
115.043
 21
115.014
  0
LINE
  8
0
 10
399.214
 11
399.396
 20
115.014
 21
114.965
  0
LINE
  8
0
 10
399.396
 11
399.572
 20
114.965
 21
114.898
  0
LINE
  8
0
 10
399.572
 11
399.74
 20
114.898
 21
114.812
  0
LINE
  8
0
 10
399.74
 11
399.898
 20
114.812
 21
114.709
  0
LINE
  8
0
 10
399.898
 11
400.044
 20
114.709
 21
114.591
  0
LINE
  8
0
 10
400.044
 11
400.177
 20
114.591
 21
114.458
  0
LINE
  8
0
 10
400.177
 11
400.296
 20
114.458
 21
114.311
  0
LINE
  8
0
 10
400.296
 11
400.399
 20
114.311
 21
114.153
  0
LINE
  8
0
 10
400.399
 11
400.484
 20
114.153
 21
113.985
  0
LINE
  8
0
 10
400.484
 11
400.552
 20
113.985
 21
113.809
  0
LINE
  8
0
 10
400.552
 11
400.6
 20
113.809
 21
113.627
  0
LINE
  8
0
 10
400.6
 11
400.63
 20
113.627
 21
113.441
  0
LINE
  8
0
 10
400.63
 11
400.64
 20
113.441
 21
113.253
  0
LINE
  8
0
 10
400.64
 11
400.63
 20
113.253
 21
113.065
  0
LINE
  8
0
 10
400.63
 11
400.6
 20
113.065
 21
112.879
  0
LINE
  8
0
 10
400.6
 11
400.552
 20
112.879
 21
112.697
  0
LINE
  8
0
 10
400.552
 11
400.484
 20
112.697
 21
112.521
  0
LINE
  8
0
 10
400.484
 11
400.399
 20
112.521
 21
112.353
  0
LINE
  8
0
 10
400.399
 11
400.296
 20
112.353
 21
112.195
  0
LINE
  8
0
 10
400.296
 11
400.177
 20
112.195
 21
112.049
  0
LINE
  8
0
 10
400.177
 11
400.044
 20
112.049
 21
111.916
  0
LINE
  8
0
 10
400.044
 11
399.898
 20
111.916
 21
111.797
  0
LINE
  8
0
 10
399.898
 11
399.74
 20
111.797
 21
111.694
  0
LINE
  8
0
 10
399.74
 11
399.572
 20
111.694
 21
111.609
  0
LINE
  8
0
 10
399.572
 11
399.396
 20
111.609
 21
111.541
  0
LINE
  8
0
 10
399.396
 11
399.214
 20
111.541
 21
111.493
  0
LINE
  8
0
 10
399.214
 11
399.028
 20
111.493
 21
111.463
  0
LINE
  8
0
 10
399.028
 11
398.84
 20
111.463
 21
111.453
  0
LINE
  8
0
 10
398.84
 11
398.652
 20
111.453
 21
111.463
  0
LINE
  8
0
 10
398.652
 11
398.466
 20
111.463
 21
111.493
  0
LINE
  8
0
 10
398.466
 11
398.284
 20
111.493
 21
111.541
  0
LINE
  8
0
 10
398.284
 11
398.108
 20
111.541
 21
111.609
  0
LINE
  8
0
 10
398.108
 11
397.94
 20
111.609
 21
111.694
  0
LINE
  8
0
 10
397.94
 11
397.782
 20
111.694
 21
111.797
  0
LINE
  8
0
 10
397.782
 11
397.635
 20
111.797
 21
111.916
  0
LINE
  8
0
 10
397.635
 11
397.502
 20
111.916
 21
112.049
  0
LINE
  8
0
 10
397.502
 11
397.384
 20
112.049
 21
112.195
  0
LINE
  8
0
 10
397.384
 11
397.281
 20
112.195
 21
112.353
  0
LINE
  8
0
 10
397.281
 11
397.195
 20
112.353
 21
112.521
  0
LINE
  8
0
 10
397.195
 11
397.128
 20
112.521
 21
112.697
  0
LINE
  8
0
 10
397.128
 11
397.079
 20
112.697
 21
112.879
  0
LINE
  8
0
 10
397.079
 11
397.05
 20
112.879
 21
113.065
  0
LINE
  8
0
 10
397.05
 11
397.04
 20
113.065
 21
113.253
  0
LINE
  8
0
 10
419.9
 11
419.924
 20
70.662
 21
71.117
  0
LINE
  8
0
 10
419.924
 11
419.995
 20
71.117
 21
71.567
  0
LINE
  8
0
 10
419.995
 11
420.113
 20
71.567
 21
72.007
  0
LINE
  8
0
 10
420.113
 11
420.276
 20
72.007
 21
72.432
  0
LINE
  8
0
 10
420.276
 11
420.483
 20
72.432
 21
72.837
  0
LINE
  8
0
 10
420.483
 11
420.731
 20
72.837
 21
73.219
  0
LINE
  8
0
 10
420.731
 11
421.017
 20
73.219
 21
73.573
  0
LINE
  8
0
 10
421.017
 11
421.339
 20
73.573
 21
73.895
  0
LINE
  8
0
 10
421.339
 11
421.693
 20
73.895
 21
74.182
  0
LINE
  8
0
 10
421.693
 11
422.075
 20
74.182
 21
74.43
  0
LINE
  8
0
 10
422.075
 11
422.481
 20
74.43
 21
74.636
  0
LINE
  8
0
 10
422.481
 11
422.906
 20
74.636
 21
74.8
  0
LINE
  8
0
 10
422.906
 11
423.346
 20
74.8
 21
74.917
  0
LINE
  8
0
 10
423.346
 11
423.795
 20
74.917
 21
74.989
  0
LINE
  8
0
 10
423.795
 11
424.25
 20
74.989
 21
75.012
  0
LINE
  8
0
 10
424.25
 11
424.705
 20
75.012
 21
74.989
  0
LINE
  8
0
 10
424.705
 11
425.154
 20
74.989
 21
74.917
  0
LINE
  8
0
 10
425.154
 11
425.594
 20
74.917
 21
74.8
  0
LINE
  8
0
 10
425.594
 11
426.019
 20
74.8
 21
74.636
  0
LINE
  8
0
 10
426.019
 11
426.425
 20
74.636
 21
74.43
  0
LINE
  8
0
 10
426.425
 11
426.807
 20
74.43
 21
74.182
  0
LINE
  8
0
 10
426.807
 11
427.161
 20
74.182
 21
73.895
  0
LINE
  8
0
 10
427.161
 11
427.483
 20
73.895
 21
73.573
  0
LINE
  8
0
 10
427.483
 11
427.769
 20
73.573
 21
73.219
  0
LINE
  8
0
 10
427.769
 11
428.017
 20
73.219
 21
72.837
  0
LINE
  8
0
 10
428.017
 11
428.224
 20
72.837
 21
72.432
  0
LINE
  8
0
 10
428.224
 11
428.387
 20
72.432
 21
72.007
  0
LINE
  8
0
 10
428.387
 11
428.505
 20
72.007
 21
71.567
  0
LINE
  8
0
 10
428.505
 11
428.576
 20
71.567
 21
71.117
  0
LINE
  8
0
 10
428.576
 11
428.6
 20
71.117
 21
70.662
  0
LINE
  8
0
 10
428.6
 11
428.576
 20
70.662
 21
70.208
  0
LINE
  8
0
 10
428.576
 11
428.505
 20
70.208
 21
69.758
  0
LINE
  8
0
 10
428.505
 11
428.387
 20
69.758
 21
69.318
  0
LINE
  8
0
 10
428.387
 11
428.224
 20
69.318
 21
68.893
  0
LINE
  8
0
 10
428.224
 11
428.017
 20
68.893
 21
68.487
  0
LINE
  8
0
 10
428.017
 11
427.769
 20
68.487
 21
68.106
  0
LINE
  8
0
 10
427.769
 11
427.483
 20
68.106
 21
67.752
  0
LINE
  8
0
 10
427.483
 11
427.161
 20
67.752
 21
67.43
  0
LINE
  8
0
 10
427.161
 11
426.807
 20
67.43
 21
67.143
  0
LINE
  8
0
 10
426.807
 11
426.425
 20
67.143
 21
66.895
  0
LINE
  8
0
 10
426.425
 11
426.019
 20
66.895
 21
66.689
  0
LINE
  8
0
 10
426.019
 11
425.594
 20
66.689
 21
66.525
  0
LINE
  8
0
 10
425.594
 11
425.154
 20
66.525
 21
66.408
  0
LINE
  8
0
 10
425.154
 11
424.705
 20
66.408
 21
66.336
  0
LINE
  8
0
 10
424.705
 11
424.25
 20
66.336
 21
66.312
  0
LINE
  8
0
 10
424.25
 11
423.795
 20
66.312
 21
66.336
  0
LINE
  8
0
 10
423.795
 11
423.346
 20
66.336
 21
66.408
  0
LINE
  8
0
 10
423.346
 11
422.906
 20
66.408
 21
66.525
  0
LINE
  8
0
 10
422.906
 11
422.481
 20
66.525
 21
66.689
  0
LINE
  8
0
 10
422.481
 11
422.075
 20
66.689
 21
66.895
  0
LINE
  8
0
 10
422.075
 11
421.693
 20
66.895
 21
67.143
  0
LINE
  8
0
 10
421.693
 11
421.339
 20
67.143
 21
67.43
  0
LINE
  8
0
 10
421.339
 11
421.017
 20
67.43
 21
67.752
  0
LINE
  8
0
 10
421.017
 11
420.731
 20
67.752
 21
68.106
  0
LINE
  8
0
 10
420.731
 11
420.483
 20
68.106
 21
68.487
  0
LINE
  8
0
 10
420.483
 11
420.276
 20
68.487
 21
68.893
  0
LINE
  8
0
 10
420.276
 11
420.113
 20
68.893
 21
69.318
  0
LINE
  8
0
 10
420.113
 11
419.995
 20
69.318
 21
69.758
  0
LINE
  8
0
 10
419.995
 11
419.924
 20
69.758
 21
70.208
  0
LINE
  8
0
 10
419.924
 11
419.9
 20
70.208
 21
70.662
  0
ENDSEC
  0
SECTION
  2
OBJECTS
  0
DICTIONARY
  0
ENDSEC
  0
EOF
