  0
SECTION
  2
BLOCKS
  0
ENDSEC
  0
SECTION
  2
ENTITIES
  0
LINE
  8
0
 10
0
 11
0
 20
9.95
 21
40
  0
LINE
  8
0
 10
0
 11
0.418
 20
40
 21
40.022
  0
LINE
  8
0
 10
0.418
 11
0.832
 20
40.022
 21
40.087
  0
LINE
  8
0
 10
0.832
 11
1.236
 20
40.087
 21
40.196
  0
LINE
  8
0
 10
1.236
 11
1.627
 20
40.196
 21
40.346
  0
LINE
  8
0
 10
1.627
 11
2
 20
40.346
 21
40.536
  0
LINE
  8
0
 10
2
 11
2.351
 20
40.536
 21
40.764
  0
LINE
  8
0
 10
2.351
 11
2.677
 20
40.764
 21
41.027
  0
LINE
  8
0
 10
2.677
 11
2.973
 20
41.027
 21
41.323
  0
LINE
  8
0
 10
2.973
 11
3.236
 20
41.323
 21
41.649
  0
LINE
  8
0
 10
3.236
 11
3.464
 20
41.649
 21
42
  0
LINE
  8
0
 10
3.464
 11
3.654
 20
42
 21
42.373
  0
LINE
  8
0
 10
3.654
 11
3.804
 20
42.373
 21
42.764
  0
LINE
  8
0
 10
3.804
 11
3.913
 20
42.764
 21
43.168
  0
LINE
  8
0
 10
3.913
 11
3.978
 20
43.168
 21
43.582
  0
LINE
  8
0
 10
3.978
 11
4
 20
43.582
 21
44
  0
LINE
  8
0
 10
4
 11
3.978
 20
44
 21
44.418
  0
LINE
  8
0
 10
3.978
 11
3.913
 20
44.418
 21
44.832
  0
LINE
  8
0
 10
3.913
 11
3.804
 20
44.832
 21
45.236
  0
LINE
  8
0
 10
3.804
 11
3.654
 20
45.236
 21
45.627
  0
LINE
  8
0
 10
3.654
 11
3.464
 20
45.627
 21
46
  0
LINE
  8
0
 10
3.464
 11
3.236
 20
46
 21
46.351
  0
LINE
  8
0
 10
3.236
 11
2.973
 20
46.351
 21
46.677
  0
LINE
  8
0
 10
2.973
 11
2.677
 20
46.677
 21
46.973
  0
LINE
  8
0
 10
2.677
 11
2.351
 20
46.973
 21
47.236
  0
LINE
  8
0
 10
2.351
 11
2
 20
47.236
 21
47.464
  0
LINE
  8
0
 10
2
 11
1.627
 20
47.464
 21
47.654
  0
LINE
  8
0
 10
1.627
 11
1.236
 20
47.654
 21
47.804
  0
LINE
  8
0
 10
1.236
 11
0.832
 20
47.804
 21
47.913
  0
LINE
  8
0
 10
0.832
 11
0.418
 20
47.913
 21
47.978
  0
LINE
  8
0
 10
0.418
 11
0
 20
47.978
 21
48
  0
LINE
  8
0
 10
0
 11
0
 20
48
 21
78
  0
LINE
  8
0
 10
0
 11
0.059
 20
78
 21
78
  0
LINE
  8
0
 10
0.059
 11
0.02
 20
78
 21
78.628
  0
LINE
  8
0
 10
0.02
 11
0.489
 20
78.628
 21
81.09
  0
LINE
  8
0
 10
0.489
 11
1.557
 20
81.09
 21
83.358
  0
LINE
  8
0
 10
1.557
 11
3.155
 20
83.358
 21
85.29
  0
LINE
  8
0
 10
3.155
 11
5.182
 20
85.29
 21
86.763
  0
LINE
  8
0
 10
5.182
 11
7.513
 20
86.763
 21
87.686
  0
LINE
  8
0
 10
7.513
 11
9.95
 20
87.686
 21
87.994
  0
LINE
  8
0
 10
9.95
 11
9.95
 20
87.994
 21
88
  0
LINE
  8
0
 10
9.95
 11
33
 20
88
 21
88
  0
LINE
  8
0
 10
33
 11
33
 20
88
 21
93
  0
LINE
  8
0
 10
33
 11
33.452
 20
93
 21
95.565
  0
LINE
  8
0
 10
33.452
 11
34.755
 20
95.565
 21
97.821
  0
LINE
  8
0
 10
34.755
 11
36.75
 20
97.821
 21
99.495
  0
LINE
  8
0
 10
36.75
 11
39.198
 20
99.495
 21
100.386
  0
LINE
  8
0
 10
39.198
 11
41.802
 20
100.386
 21
100.386
  0
LINE
  8
0
 10
41.802
 11
44.25
 20
100.386
 21
99.495
  0
LINE
  8
0
 10
44.25
 11
46.245
 20
99.495
 21
97.821
  0
LINE
  8
0
 10
46.245
 11
47.548
 20
97.821
 21
95.565
  0
LINE
  8
0
 10
47.548
 11
48
 20
95.565
 21
93
  0
LINE
  8
0
 10
48
 11
48
 20
93
 21
88
  0
LINE
  8
0
 10
48
 11
57
 20
88
 21
88
  0
LINE
  8
0
 10
57
 11
57
 20
88
 21
93
  0
LINE
  8
0
 10
57
 11
57.452
 20
93
 21
95.565
  0
LINE
  8
0
 10
57.452
 11
58.755
 20
95.565
 21
97.821
  0
LINE
  8
0
 10
58.755
 11
60.75
 20
97.821
 21
99.495
  0
LINE
  8
0
 10
60.75
 11
63.198
 20
99.495
 21
100.386
  0
LINE
  8
0
 10
63.198
 11
65.802
 20
100.386
 21
100.386
  0
LINE
  8
0
 10
65.802
 11
68.25
 20
100.386
 21
99.495
  0
LINE
  8
0
 10
68.25
 11
70.245
 20
99.495
 21
97.821
  0
LINE
  8
0
 10
70.245
 11
71.548
 20
97.821
 21
95.565
  0
LINE
  8
0
 10
71.548
 11
72
 20
95.565
 21
93
  0
LINE
  8
0
 10
72
 11
72
 20
93
 21
88
  0
LINE
  8
0
 10
72
 11
95
 20
88
 21
88
  0
LINE
  8
0
 10
95
 11
95
 20
88
 21
87.941
  0
LINE
  8
0
 10
95
 11
95.628
 20
87.941
 21
87.98
  0
LINE
  8
0
 10
95.628
 11
98.09
 20
87.98
 21
87.511
  0
LINE
  8
0
 10
98.09
 11
100.358
 20
87.511
 21
86.443
  0
LINE
  8
0
 10
100.358
 11
102.29
 20
86.443
 21
84.845
  0
LINE
  8
0
 10
102.29
 11
103.763
 20
84.845
 21
82.818
  0
LINE
  8
0
 10
103.763
 11
104.686
 20
82.818
 21
80.487
  0
LINE
  8
0
 10
104.686
 11
104.994
 20
80.487
 21
78.05
  0
LINE
  8
0
 10
104.994
 11
105
 20
78.05
 21
78.05
  0
LINE
  8
0
 10
105
 11
105
 20
78.05
 21
10
  0
LINE
  8
0
 10
105
 11
104.941
 20
10
 21
10
  0
LINE
  8
0
 10
104.941
 11
104.98
 20
10
 21
9.372
  0
LINE
  8
0
 10
104.98
 11
104.511
 20
9.372
 21
6.91
  0
LINE
  8
0
 10
104.511
 11
103.443
 20
6.91
 21
4.642
  0
LINE
  8
0
 10
103.443
 11
101.845
 20
4.642
 21
2.71
  0
LINE
  8
0
 10
101.845
 11
99.818
 20
2.71
 21
1.237
  0
LINE
  8
0
 10
99.818
 11
97.487
 20
1.237
 21
0.314
  0
LINE
  8
0
 10
97.487
 11
95.05
 20
0.314
 21
0.006
  0
LINE
  8
0
 10
95.05
 11
95.05
 20
0.006
 21
0
  0
LINE
  8
0
 10
95.05
 11
73.5
 20
0
 21
0
  0
LINE
  8
0
 10
73.5
 11
73.5
 20
0
 21
5
  0
LINE
  8
0
 10
73.5
 11
31.5
 20
5
 21
5
  0
LINE
  8
0
 10
31.5
 11
31.5
 20
5
 21
0
  0
LINE
  8
0
 10
31.5
 11
10
 20
0
 21
0
  0
LINE
  8
0
 10
10
 11
10
 20
0
 21
0.059
  0
LINE
  8
0
 10
10
 11
9.372
 20
0.059
 21
0.02
  0
LINE
  8
0
 10
9.372
 11
6.91
 20
0.02
 21
0.489
  0
LINE
  8
0
 10
6.91
 11
4.642
 20
0.489
 21
1.557
  0
LINE
  8
0
 10
4.642
 11
2.71
 20
1.557
 21
3.155
  0
LINE
  8
0
 10
2.71
 11
1.237
 20
3.155
 21
5.182
  0
LINE
  8
0
 10
1.237
 11
0.314
 20
5.182
 21
7.513
  0
LINE
  8
0
 10
0.314
 11
0.006
 20
7.513
 21
9.95
  0
LINE
  8
0
 10
0.006
 11
0
 20
9.95
 21
9.95
  0
LINE
  8
0
 10
2.7
 11
2.71
 20
33
 21
33.188
  0
LINE
  8
0
 10
2.71
 11
2.739
 20
33.188
 21
33.374
  0
LINE
  8
0
 10
2.739
 11
2.788
 20
33.374
 21
33.556
  0
LINE
  8
0
 10
2.788
 11
2.856
 20
33.556
 21
33.732
  0
LINE
  8
0
 10
2.856
 11
2.941
 20
33.732
 21
33.9
  0
LINE
  8
0
 10
2.941
 11
3.044
 20
33.9
 21
34.058
  0
LINE
  8
0
 10
3.044
 11
3.162
 20
34.058
 21
34.204
  0
LINE
  8
0
 10
3.162
 11
3.296
 20
34.204
 21
34.338
  0
LINE
  8
0
 10
3.296
 11
3.442
 20
34.338
 21
34.456
  0
LINE
  8
0
 10
3.442
 11
3.6
 20
34.456
 21
34.559
  0
LINE
  8
0
 10
3.6
 11
3.768
 20
34.559
 21
34.644
  0
LINE
  8
0
 10
3.768
 11
3.944
 20
34.644
 21
34.712
  0
LINE
  8
0
 10
3.944
 11
4.126
 20
34.712
 21
34.761
  0
LINE
  8
0
 10
4.126
 11
4.312
 20
34.761
 21
34.79
  0
LINE
  8
0
 10
4.312
 11
4.5
 20
34.79
 21
34.8
  0
LINE
  8
0
 10
4.5
 11
4.688
 20
34.8
 21
34.79
  0
LINE
  8
0
 10
4.688
 11
4.874
 20
34.79
 21
34.761
  0
LINE
  8
0
 10
4.874
 11
5.056
 20
34.761
 21
34.712
  0
LINE
  8
0
 10
5.056
 11
5.232
 20
34.712
 21
34.644
  0
LINE
  8
0
 10
5.232
 11
5.4
 20
34.644
 21
34.559
  0
LINE
  8
0
 10
5.4
 11
5.558
 20
34.559
 21
34.456
  0
LINE
  8
0
 10
5.558
 11
5.704
 20
34.456
 21
34.338
  0
LINE
  8
0
 10
5.704
 11
5.838
 20
34.338
 21
34.204
  0
LINE
  8
0
 10
5.838
 11
5.956
 20
34.204
 21
34.058
  0
LINE
  8
0
 10
5.956
 11
6.059
 20
34.058
 21
33.9
  0
LINE
  8
0
 10
6.059
 11
6.144
 20
33.9
 21
33.732
  0
LINE
  8
0
 10
6.144
 11
6.212
 20
33.732
 21
33.556
  0
LINE
  8
0
 10
6.212
 11
6.261
 20
33.556
 21
33.374
  0
LINE
  8
0
 10
6.261
 11
6.29
 20
33.374
 21
33.188
  0
LINE
  8
0
 10
6.29
 11
6.3
 20
33.188
 21
33
  0
LINE
  8
0
 10
6.3
 11
6.29
 20
33
 21
32.812
  0
LINE
  8
0
 10
6.29
 11
6.261
 20
32.812
 21
32.626
  0
LINE
  8
0
 10
6.261
 11
6.212
 20
32.626
 21
32.444
  0
LINE
  8
0
 10
6.212
 11
6.144
 20
32.444
 21
32.268
  0
LINE
  8
0
 10
6.144
 11
6.059
 20
32.268
 21
32.1
  0
LINE
  8
0
 10
6.059
 11
5.956
 20
32.1
 21
31.942
  0
LINE
  8
0
 10
5.956
 11
5.838
 20
31.942
 21
31.796
  0
LINE
  8
0
 10
5.838
 11
5.704
 20
31.796
 21
31.662
  0
LINE
  8
0
 10
5.704
 11
5.558
 20
31.662
 21
31.544
  0
LINE
  8
0
 10
5.558
 11
5.4
 20
31.544
 21
31.441
  0
LINE
  8
0
 10
5.4
 11
5.232
 20
31.441
 21
31.356
  0
LINE
  8
0
 10
5.232
 11
5.056
 20
31.356
 21
31.288
  0
LINE
  8
0
 10
5.056
 11
4.874
 20
31.288
 21
31.239
  0
LINE
  8
0
 10
4.874
 11
4.688
 20
31.239
 21
31.21
  0
LINE
  8
0
 10
4.688
 11
4.5
 20
31.21
 21
31.2
  0
LINE
  8
0
 10
4.5
 11
4.312
 20
31.2
 21
31.21
  0
LINE
  8
0
 10
4.312
 11
4.126
 20
31.21
 21
31.239
  0
LINE
  8
0
 10
4.126
 11
3.944
 20
31.239
 21
31.288
  0
LINE
  8
0
 10
3.944
 11
3.768
 20
31.288
 21
31.356
  0
LINE
  8
0
 10
3.768
 11
3.6
 20
31.356
 21
31.441
  0
LINE
  8
0
 10
3.6
 11
3.442
 20
31.441
 21
31.544
  0
LINE
  8
0
 10
3.442
 11
3.296
 20
31.544
 21
31.662
  0
LINE
  8
0
 10
3.296
 11
3.162
 20
31.662
 21
31.796
  0
LINE
  8
0
 10
3.162
 11
3.044
 20
31.796
 21
31.942
  0
LINE
  8
0
 10
3.044
 11
2.941
 20
31.942
 21
32.1
  0
LINE
  8
0
 10
2.941
 11
2.856
 20
32.1
 21
32.268
  0
LINE
  8
0
 10
2.856
 11
2.788
 20
32.268
 21
32.444
  0
LINE
  8
0
 10
2.788
 11
2.739
 20
32.444
 21
32.626
  0
LINE
  8
0
 10
2.739
 11
2.71
 20
32.626
 21
32.812
  0
LINE
  8
0
 10
2.71
 11
2.7
 20
32.812
 21
33
  0
LINE
  8
0
 10
2.7
 11
2.71
 20
55
 21
55.188
  0
LINE
  8
0
 10
2.71
 11
2.739
 20
55.188
 21
55.374
  0
LINE
  8
0
 10
2.739
 11
2.788
 20
55.374
 21
55.556
  0
LINE
  8
0
 10
2.788
 11
2.856
 20
55.556
 21
55.732
  0
LINE
  8
0
 10
2.856
 11
2.941
 20
55.732
 21
55.9
  0
LINE
  8
0
 10
2.941
 11
3.044
 20
55.9
 21
56.058
  0
LINE
  8
0
 10
3.044
 11
3.162
 20
56.058
 21
56.204
  0
LINE
  8
0
 10
3.162
 11
3.296
 20
56.204
 21
56.338
  0
LINE
  8
0
 10
3.296
 11
3.442
 20
56.338
 21
56.456
  0
LINE
  8
0
 10
3.442
 11
3.6
 20
56.456
 21
56.559
  0
LINE
  8
0
 10
3.6
 11
3.768
 20
56.559
 21
56.644
  0
LINE
  8
0
 10
3.768
 11
3.944
 20
56.644
 21
56.712
  0
LINE
  8
0
 10
3.944
 11
4.126
 20
56.712
 21
56.761
  0
LINE
  8
0
 10
4.126
 11
4.312
 20
56.761
 21
56.79
  0
LINE
  8
0
 10
4.312
 11
4.5
 20
56.79
 21
56.8
  0
LINE
  8
0
 10
4.5
 11
4.688
 20
56.8
 21
56.79
  0
LINE
  8
0
 10
4.688
 11
4.874
 20
56.79
 21
56.761
  0
LINE
  8
0
 10
4.874
 11
5.056
 20
56.761
 21
56.712
  0
LINE
  8
0
 10
5.056
 11
5.232
 20
56.712
 21
56.644
  0
LINE
  8
0
 10
5.232
 11
5.4
 20
56.644
 21
56.559
  0
LINE
  8
0
 10
5.4
 11
5.558
 20
56.559
 21
56.456
  0
LINE
  8
0
 10
5.558
 11
5.704
 20
56.456
 21
56.338
  0
LINE
  8
0
 10
5.704
 11
5.838
 20
56.338
 21
56.204
  0
LINE
  8
0
 10
5.838
 11
5.956
 20
56.204
 21
56.058
  0
LINE
  8
0
 10
5.956
 11
6.059
 20
56.058
 21
55.9
  0
LINE
  8
0
 10
6.059
 11
6.144
 20
55.9
 21
55.732
  0
LINE
  8
0
 10
6.144
 11
6.212
 20
55.732
 21
55.556
  0
LINE
  8
0
 10
6.212
 11
6.261
 20
55.556
 21
55.374
  0
LINE
  8
0
 10
6.261
 11
6.29
 20
55.374
 21
55.188
  0
LINE
  8
0
 10
6.29
 11
6.3
 20
55.188
 21
55
  0
LINE
  8
0
 10
6.3
 11
6.29
 20
55
 21
54.812
  0
LINE
  8
0
 10
6.29
 11
6.261
 20
54.812
 21
54.626
  0
LINE
  8
0
 10
6.261
 11
6.212
 20
54.626
 21
54.444
  0
LINE
  8
0
 10
6.212
 11
6.144
 20
54.444
 21
54.268
  0
LINE
  8
0
 10
6.144
 11
6.059
 20
54.268
 21
54.1
  0
LINE
  8
0
 10
6.059
 11
5.956
 20
54.1
 21
53.942
  0
LINE
  8
0
 10
5.956
 11
5.838
 20
53.942
 21
53.796
  0
LINE
  8
0
 10
5.838
 11
5.704
 20
53.796
 21
53.662
  0
LINE
  8
0
 10
5.704
 11
5.558
 20
53.662
 21
53.544
  0
LINE
  8
0
 10
5.558
 11
5.4
 20
53.544
 21
53.441
  0
LINE
  8
0
 10
5.4
 11
5.232
 20
53.441
 21
53.356
  0
LINE
  8
0
 10
5.232
 11
5.056
 20
53.356
 21
53.288
  0
LINE
  8
0
 10
5.056
 11
4.874
 20
53.288
 21
53.239
  0
LINE
  8
0
 10
4.874
 11
4.688
 20
53.239
 21
53.21
  0
LINE
  8
0
 10
4.688
 11
4.5
 20
53.21
 21
53.2
  0
LINE
  8
0
 10
4.5
 11
4.312
 20
53.2
 21
53.21
  0
LINE
  8
0
 10
4.312
 11
4.126
 20
53.21
 21
53.239
  0
LINE
  8
0
 10
4.126
 11
3.944
 20
53.239
 21
53.288
  0
LINE
  8
0
 10
3.944
 11
3.768
 20
53.288
 21
53.356
  0
LINE
  8
0
 10
3.768
 11
3.6
 20
53.356
 21
53.441
  0
LINE
  8
0
 10
3.6
 11
3.442
 20
53.441
 21
53.544
  0
LINE
  8
0
 10
3.442
 11
3.296
 20
53.544
 21
53.662
  0
LINE
  8
0
 10
3.296
 11
3.162
 20
53.662
 21
53.796
  0
LINE
  8
0
 10
3.162
 11
3.044
 20
53.796
 21
53.942
  0
LINE
  8
0
 10
3.044
 11
2.941
 20
53.942
 21
54.1
  0
LINE
  8
0
 10
2.941
 11
2.856
 20
54.1
 21
54.268
  0
LINE
  8
0
 10
2.856
 11
2.788
 20
54.268
 21
54.444
  0
LINE
  8
0
 10
2.788
 11
2.739
 20
54.444
 21
54.626
  0
LINE
  8
0
 10
2.739
 11
2.71
 20
54.626
 21
54.812
  0
LINE
  8
0
 10
2.71
 11
2.7
 20
54.812
 21
55
  0
LINE
  8
0
 10
8.2
 11
8.21
 20
44
 21
44.188
  0
LINE
  8
0
 10
8.21
 11
8.239
 20
44.188
 21
44.374
  0
LINE
  8
0
 10
8.239
 11
8.288
 20
44.374
 21
44.556
  0
LINE
  8
0
 10
8.288
 11
8.356
 20
44.556
 21
44.732
  0
LINE
  8
0
 10
8.356
 11
8.441
 20
44.732
 21
44.9
  0
LINE
  8
0
 10
8.441
 11
8.544
 20
44.9
 21
45.058
  0
LINE
  8
0
 10
8.544
 11
8.662
 20
45.058
 21
45.204
  0
LINE
  8
0
 10
8.662
 11
8.796
 20
45.204
 21
45.338
  0
LINE
  8
0
 10
8.796
 11
8.942
 20
45.338
 21
45.456
  0
LINE
  8
0
 10
8.942
 11
9.1
 20
45.456
 21
45.559
  0
LINE
  8
0
 10
9.1
 11
9.268
 20
45.559
 21
45.644
  0
LINE
  8
0
 10
9.268
 11
9.444
 20
45.644
 21
45.712
  0
LINE
  8
0
 10
9.444
 11
9.626
 20
45.712
 21
45.761
  0
LINE
  8
0
 10
9.626
 11
9.812
 20
45.761
 21
45.79
  0
LINE
  8
0
 10
9.812
 11
10
 20
45.79
 21
45.8
  0
LINE
  8
0
 10
10
 11
10.188
 20
45.8
 21
45.79
  0
LINE
  8
0
 10
10.188
 11
10.374
 20
45.79
 21
45.761
  0
LINE
  8
0
 10
10.374
 11
10.556
 20
45.761
 21
45.712
  0
LINE
  8
0
 10
10.556
 11
10.732
 20
45.712
 21
45.644
  0
LINE
  8
0
 10
10.732
 11
10.9
 20
45.644
 21
45.559
  0
LINE
  8
0
 10
10.9
 11
11.058
 20
45.559
 21
45.456
  0
LINE
  8
0
 10
11.058
 11
11.204
 20
45.456
 21
45.338
  0
LINE
  8
0
 10
11.204
 11
11.338
 20
45.338
 21
45.204
  0
LINE
  8
0
 10
11.338
 11
11.456
 20
45.204
 21
45.058
  0
LINE
  8
0
 10
11.456
 11
11.559
 20
45.058
 21
44.9
  0
LINE
  8
0
 10
11.559
 11
11.644
 20
44.9
 21
44.732
  0
LINE
  8
0
 10
11.644
 11
11.712
 20
44.732
 21
44.556
  0
LINE
  8
0
 10
11.712
 11
11.761
 20
44.556
 21
44.374
  0
LINE
  8
0
 10
11.761
 11
11.79
 20
44.374
 21
44.188
  0
LINE
  8
0
 10
11.79
 11
11.8
 20
44.188
 21
44
  0
LINE
  8
0
 10
11.8
 11
11.79
 20
44
 21
43.812
  0
LINE
  8
0
 10
11.79
 11
11.761
 20
43.812
 21
43.626
  0
LINE
  8
0
 10
11.761
 11
11.712
 20
43.626
 21
43.444
  0
LINE
  8
0
 10
11.712
 11
11.644
 20
43.444
 21
43.268
  0
LINE
  8
0
 10
11.644
 11
11.559
 20
43.268
 21
43.1
  0
LINE
  8
0
 10
11.559
 11
11.456
 20
43.1
 21
42.942
  0
LINE
  8
0
 10
11.456
 11
11.338
 20
42.942
 21
42.796
  0
LINE
  8
0
 10
11.338
 11
11.204
 20
42.796
 21
42.662
  0
LINE
  8
0
 10
11.204
 11
11.058
 20
42.662
 21
42.544
  0
LINE
  8
0
 10
11.058
 11
10.9
 20
42.544
 21
42.441
  0
LINE
  8
0
 10
10.9
 11
10.732
 20
42.441
 21
42.356
  0
LINE
  8
0
 10
10.732
 11
10.556
 20
42.356
 21
42.288
  0
LINE
  8
0
 10
10.556
 11
10.374
 20
42.288
 21
42.239
  0
LINE
  8
0
 10
10.374
 11
10.188
 20
42.239
 21
42.21
  0
LINE
  8
0
 10
10.188
 11
10
 20
42.21
 21
42.2
  0
LINE
  8
0
 10
10
 11
9.812
 20
42.2
 21
42.21
  0
LINE
  8
0
 10
9.812
 11
9.626
 20
42.21
 21
42.239
  0
LINE
  8
0
 10
9.626
 11
9.444
 20
42.239
 21
42.288
  0
LINE
  8
0
 10
9.444
 11
9.268
 20
42.288
 21
42.356
  0
LINE
  8
0
 10
9.268
 11
9.1
 20
42.356
 21
42.441
  0
LINE
  8
0
 10
9.1
 11
8.942
 20
42.441
 21
42.544
  0
LINE
  8
0
 10
8.942
 11
8.796
 20
42.544
 21
42.662
  0
LINE
  8
0
 10
8.796
 11
8.662
 20
42.662
 21
42.796
  0
LINE
  8
0
 10
8.662
 11
8.544
 20
42.796
 21
42.942
  0
LINE
  8
0
 10
8.544
 11
8.441
 20
42.942
 21
43.1
  0
LINE
  8
0
 10
8.441
 11
8.356
 20
43.1
 21
43.268
  0
LINE
  8
0
 10
8.356
 11
8.288
 20
43.268
 21
43.444
  0
LINE
  8
0
 10
8.288
 11
8.239
 20
43.444
 21
43.626
  0
LINE
  8
0
 10
8.239
 11
8.21
 20
43.626
 21
43.812
  0
LINE
  8
0
 10
8.21
 11
8.2
 20
43.812
 21
44
  0
LINE
  8
0
 10
22.7
 11
22.71
 20
5
 21
5.188
  0
LINE
  8
0
 10
22.71
 11
22.739
 20
5.188
 21
5.374
  0
LINE
  8
0
 10
22.739
 11
22.788
 20
5.374
 21
5.556
  0
LINE
  8
0
 10
22.788
 11
22.856
 20
5.556
 21
5.732
  0
LINE
  8
0
 10
22.856
 11
22.941
 20
5.732
 21
5.9
  0
LINE
  8
0
 10
22.941
 11
23.044
 20
5.9
 21
6.058
  0
LINE
  8
0
 10
23.044
 11
23.162
 20
6.058
 21
6.204
  0
LINE
  8
0
 10
23.162
 11
23.296
 20
6.204
 21
6.338
  0
LINE
  8
0
 10
23.296
 11
23.442
 20
6.338
 21
6.456
  0
LINE
  8
0
 10
23.442
 11
23.6
 20
6.456
 21
6.559
  0
LINE
  8
0
 10
23.6
 11
23.768
 20
6.559
 21
6.644
  0
LINE
  8
0
 10
23.768
 11
23.944
 20
6.644
 21
6.712
  0
LINE
  8
0
 10
23.944
 11
24.126
 20
6.712
 21
6.761
  0
LINE
  8
0
 10
24.126
 11
24.312
 20
6.761
 21
6.79
  0
LINE
  8
0
 10
24.312
 11
24.5
 20
6.79
 21
6.8
  0
LINE
  8
0
 10
24.5
 11
24.688
 20
6.8
 21
6.79
  0
LINE
  8
0
 10
24.688
 11
24.874
 20
6.79
 21
6.761
  0
LINE
  8
0
 10
24.874
 11
25.056
 20
6.761
 21
6.712
  0
LINE
  8
0
 10
25.056
 11
25.232
 20
6.712
 21
6.644
  0
LINE
  8
0
 10
25.232
 11
25.4
 20
6.644
 21
6.559
  0
LINE
  8
0
 10
25.4
 11
25.558
 20
6.559
 21
6.456
  0
LINE
  8
0
 10
25.558
 11
25.704
 20
6.456
 21
6.338
  0
LINE
  8
0
 10
25.704
 11
25.838
 20
6.338
 21
6.204
  0
LINE
  8
0
 10
25.838
 11
25.956
 20
6.204
 21
6.058
  0
LINE
  8
0
 10
25.956
 11
26.059
 20
6.058
 21
5.9
  0
LINE
  8
0
 10
26.059
 11
26.144
 20
5.9
 21
5.732
  0
LINE
  8
0
 10
26.144
 11
26.212
 20
5.732
 21
5.556
  0
LINE
  8
0
 10
26.212
 11
26.261
 20
5.556
 21
5.374
  0
LINE
  8
0
 10
26.261
 11
26.29
 20
5.374
 21
5.188
  0
LINE
  8
0
 10
26.29
 11
26.3
 20
5.188
 21
5
  0
LINE
  8
0
 10
26.3
 11
26.29
 20
5
 21
4.812
  0
LINE
  8
0
 10
26.29
 11
26.261
 20
4.812
 21
4.626
  0
LINE
  8
0
 10
26.261
 11
26.212
 20
4.626
 21
4.444
  0
LINE
  8
0
 10
26.212
 11
26.144
 20
4.444
 21
4.268
  0
LINE
  8
0
 10
26.144
 11
26.059
 20
4.268
 21
4.1
  0
LINE
  8
0
 10
26.059
 11
25.956
 20
4.1
 21
3.942
  0
LINE
  8
0
 10
25.956
 11
25.838
 20
3.942
 21
3.796
  0
LINE
  8
0
 10
25.838
 11
25.704
 20
3.796
 21
3.662
  0
LINE
  8
0
 10
25.704
 11
25.558
 20
3.662
 21
3.544
  0
LINE
  8
0
 10
25.558
 11
25.4
 20
3.544
 21
3.441
  0
LINE
  8
0
 10
25.4
 11
25.232
 20
3.441
 21
3.356
  0
LINE
  8
0
 10
25.232
 11
25.056
 20
3.356
 21
3.288
  0
LINE
  8
0
 10
25.056
 11
24.874
 20
3.288
 21
3.239
  0
LINE
  8
0
 10
24.874
 11
24.688
 20
3.239
 21
3.21
  0
LINE
  8
0
 10
24.688
 11
24.5
 20
3.21
 21
3.2
  0
LINE
  8
0
 10
24.5
 11
24.312
 20
3.2
 21
3.21
  0
LINE
  8
0
 10
24.312
 11
24.126
 20
3.21
 21
3.239
  0
LINE
  8
0
 10
24.126
 11
23.944
 20
3.239
 21
3.288
  0
LINE
  8
0
 10
23.944
 11
23.768
 20
3.288
 21
3.356
  0
LINE
  8
0
 10
23.768
 11
23.6
 20
3.356
 21
3.441
  0
LINE
  8
0
 10
23.6
 11
23.442
 20
3.441
 21
3.544
  0
LINE
  8
0
 10
23.442
 11
23.296
 20
3.544
 21
3.662
  0
LINE
  8
0
 10
23.296
 11
23.162
 20
3.662
 21
3.796
  0
LINE
  8
0
 10
23.162
 11
23.044
 20
3.796
 21
3.942
  0
LINE
  8
0
 10
23.044
 11
22.941
 20
3.942
 21
4.1
  0
LINE
  8
0
 10
22.941
 11
22.856
 20
4.1
 21
4.268
  0
LINE
  8
0
 10
22.856
 11
22.788
 20
4.268
 21
4.444
  0
LINE
  8
0
 10
22.788
 11
22.739
 20
4.444
 21
4.626
  0
LINE
  8
0
 10
22.739
 11
22.71
 20
4.626
 21
4.812
  0
LINE
  8
0
 10
22.71
 11
22.7
 20
4.812
 21
5
  0
LINE
  8
0
 10
22.7
 11
22.71
 20
83
 21
83.188
  0
LINE
  8
0
 10
22.71
 11
22.739
 20
83.188
 21
83.374
  0
LINE
  8
0
 10
22.739
 11
22.788
 20
83.374
 21
83.556
  0
LINE
  8
0
 10
22.788
 11
22.856
 20
83.556
 21
83.732
  0
LINE
  8
0
 10
22.856
 11
22.941
 20
83.732
 21
83.9
  0
LINE
  8
0
 10
22.941
 11
23.044
 20
83.9
 21
84.058
  0
LINE
  8
0
 10
23.044
 11
23.162
 20
84.058
 21
84.204
  0
LINE
  8
0
 10
23.162
 11
23.296
 20
84.204
 21
84.338
  0
LINE
  8
0
 10
23.296
 11
23.442
 20
84.338
 21
84.456
  0
LINE
  8
0
 10
23.442
 11
23.6
 20
84.456
 21
84.559
  0
LINE
  8
0
 10
23.6
 11
23.768
 20
84.559
 21
84.644
  0
LINE
  8
0
 10
23.768
 11
23.944
 20
84.644
 21
84.712
  0
LINE
  8
0
 10
23.944
 11
24.126
 20
84.712
 21
84.761
  0
LINE
  8
0
 10
24.126
 11
24.312
 20
84.761
 21
84.79
  0
LINE
  8
0
 10
24.312
 11
24.5
 20
84.79
 21
84.8
  0
LINE
  8
0
 10
24.5
 11
24.688
 20
84.8
 21
84.79
  0
LINE
  8
0
 10
24.688
 11
24.874
 20
84.79
 21
84.761
  0
LINE
  8
0
 10
24.874
 11
25.056
 20
84.761
 21
84.712
  0
LINE
  8
0
 10
25.056
 11
25.232
 20
84.712
 21
84.644
  0
LINE
  8
0
 10
25.232
 11
25.4
 20
84.644
 21
84.559
  0
LINE
  8
0
 10
25.4
 11
25.558
 20
84.559
 21
84.456
  0
LINE
  8
0
 10
25.558
 11
25.704
 20
84.456
 21
84.338
  0
LINE
  8
0
 10
25.704
 11
25.838
 20
84.338
 21
84.204
  0
LINE
  8
0
 10
25.838
 11
25.956
 20
84.204
 21
84.058
  0
LINE
  8
0
 10
25.956
 11
26.059
 20
84.058
 21
83.9
  0
LINE
  8
0
 10
26.059
 11
26.144
 20
83.9
 21
83.732
  0
LINE
  8
0
 10
26.144
 11
26.212
 20
83.732
 21
83.556
  0
LINE
  8
0
 10
26.212
 11
26.261
 20
83.556
 21
83.374
  0
LINE
  8
0
 10
26.261
 11
26.29
 20
83.374
 21
83.188
  0
LINE
  8
0
 10
26.29
 11
26.3
 20
83.188
 21
83
  0
LINE
  8
0
 10
26.3
 11
26.29
 20
83
 21
82.812
  0
LINE
  8
0
 10
26.29
 11
26.261
 20
82.812
 21
82.626
  0
LINE
  8
0
 10
26.261
 11
26.212
 20
82.626
 21
82.444
  0
LINE
  8
0
 10
26.212
 11
26.144
 20
82.444
 21
82.268
  0
LINE
  8
0
 10
26.144
 11
26.059
 20
82.268
 21
82.1
  0
LINE
  8
0
 10
26.059
 11
25.956
 20
82.1
 21
81.942
  0
LINE
  8
0
 10
25.956
 11
25.838
 20
81.942
 21
81.796
  0
LINE
  8
0
 10
25.838
 11
25.704
 20
81.796
 21
81.662
  0
LINE
  8
0
 10
25.704
 11
25.558
 20
81.662
 21
81.544
  0
LINE
  8
0
 10
25.558
 11
25.4
 20
81.544
 21
81.441
  0
LINE
  8
0
 10
25.4
 11
25.232
 20
81.441
 21
81.356
  0
LINE
  8
0
 10
25.232
 11
25.056
 20
81.356
 21
81.288
  0
LINE
  8
0
 10
25.056
 11
24.874
 20
81.288
 21
81.239
  0
LINE
  8
0
 10
24.874
 11
24.688
 20
81.239
 21
81.21
  0
LINE
  8
0
 10
24.688
 11
24.5
 20
81.21
 21
81.2
  0
LINE
  8
0
 10
24.5
 11
24.312
 20
81.2
 21
81.21
  0
LINE
  8
0
 10
24.312
 11
24.126
 20
81.21
 21
81.239
  0
LINE
  8
0
 10
24.126
 11
23.944
 20
81.239
 21
81.288
  0
LINE
  8
0
 10
23.944
 11
23.768
 20
81.288
 21
81.356
  0
LINE
  8
0
 10
23.768
 11
23.6
 20
81.356
 21
81.441
  0
LINE
  8
0
 10
23.6
 11
23.442
 20
81.441
 21
81.544
  0
LINE
  8
0
 10
23.442
 11
23.296
 20
81.544
 21
81.662
  0
LINE
  8
0
 10
23.296
 11
23.162
 20
81.662
 21
81.796
  0
LINE
  8
0
 10
23.162
 11
23.044
 20
81.796
 21
81.942
  0
LINE
  8
0
 10
23.044
 11
22.941
 20
81.942
 21
82.1
  0
LINE
  8
0
 10
22.941
 11
22.856
 20
82.1
 21
82.268
  0
LINE
  8
0
 10
22.856
 11
22.788
 20
82.268
 21
82.444
  0
LINE
  8
0
 10
22.788
 11
22.739
 20
82.444
 21
82.626
  0
LINE
  8
0
 10
22.739
 11
22.71
 20
82.626
 21
82.812
  0
LINE
  8
0
 10
22.71
 11
22.7
 20
82.812
 21
83
  0
LINE
  8
0
 10
25.502
 11
26.254
 20
44
 21
45.562
  0
LINE
  8
0
 10
26.254
 11
27.945
 20
45.562
 21
45.948
  0
LINE
  8
0
 10
27.945
 11
29.3
 20
45.948
 21
44.867
  0
LINE
  8
0
 10
29.3
 11
29.3
 20
44.867
 21
43.133
  0
LINE
  8
0
 10
29.3
 11
27.945
 20
43.133
 21
42.052
  0
LINE
  8
0
 10
27.945
 11
26.254
 20
42.052
 21
42.438
  0
LINE
  8
0
 10
26.254
 11
25.502
 20
42.438
 21
44
  0
LINE
  8
0
 10
27.648
 11
27.73
 20
33.451
 21
35.183
  0
LINE
  8
0
 10
27.73
 11
29.136
 20
35.183
 21
36.198
  0
LINE
  8
0
 10
29.136
 11
30.806
 20
36.198
 21
35.733
  0
LINE
  8
0
 10
30.806
 11
31.483
 20
35.733
 21
34.137
  0
LINE
  8
0
 10
31.483
 11
30.658
 20
34.137
 21
32.613
  0
LINE
  8
0
 10
30.658
 11
28.951
 20
32.613
 21
32.307
  0
LINE
  8
0
 10
28.951
 11
27.648
 20
32.307
 21
33.451
  0
LINE
  8
0
 10
27.648
 11
28.951
 20
54.549
 21
55.693
  0
LINE
  8
0
 10
28.951
 11
30.658
 20
55.693
 21
55.387
  0
LINE
  8
0
 10
30.658
 11
31.483
 20
55.387
 21
53.863
  0
LINE
  8
0
 10
31.483
 11
30.806
 20
53.863
 21
52.267
  0
LINE
  8
0
 10
30.806
 11
29.136
 20
52.267
 21
51.802
  0
LINE
  8
0
 10
29.136
 11
27.73
 20
51.802
 21
52.817
  0
LINE
  8
0
 10
27.73
 11
27.648
 20
52.817
 21
54.549
  0
LINE
  8
0
 10
32.5
 11
32.61
 20
44
 21
46.091
  0
LINE
  8
0
 10
32.61
 11
32.937
 20
46.091
 21
48.158
  0
LINE
  8
0
 10
32.937
 11
33.479
 20
48.158
 21
50.18
  0
LINE
  8
0
 10
33.479
 11
34.229
 20
50.18
 21
52.135
  0
LINE
  8
0
 10
34.229
 11
35.179
 20
52.135
 21
54
  0
LINE
  8
0
 10
35.179
 11
36.32
 20
54
 21
55.756
  0
LINE
  8
0
 10
36.32
 11
37.637
 20
55.756
 21
57.383
  0
LINE
  8
0
 10
37.637
 11
39.117
 20
57.383
 21
58.863
  0
LINE
  8
0
 10
39.117
 11
40.744
 20
58.863
 21
60.18
  0
LINE
  8
0
 10
40.744
 11
42.5
 20
60.18
 21
61.321
  0
LINE
  8
0
 10
42.5
 11
44.365
 20
61.321
 21
62.271
  0
LINE
  8
0
 10
44.365
 11
46.32
 20
62.271
 21
63.021
  0
LINE
  8
0
 10
46.32
 11
48.342
 20
63.021
 21
63.563
  0
LINE
  8
0
 10
48.342
 11
50.409
 20
63.563
 21
63.89
  0
LINE
  8
0
 10
50.409
 11
52.5
 20
63.89
 21
64
  0
LINE
  8
0
 10
52.5
 11
54.591
 20
64
 21
63.89
  0
LINE
  8
0
 10
54.591
 11
56.658
 20
63.89
 21
63.563
  0
LINE
  8
0
 10
56.658
 11
58.68
 20
63.563
 21
63.021
  0
LINE
  8
0
 10
58.68
 11
60.635
 20
63.021
 21
62.271
  0
LINE
  8
0
 10
60.635
 11
62.5
 20
62.271
 21
61.321
  0
LINE
  8
0
 10
62.5
 11
64.256
 20
61.321
 21
60.18
  0
LINE
  8
0
 10
64.256
 11
65.883
 20
60.18
 21
58.863
  0
LINE
  8
0
 10
65.883
 11
67.363
 20
58.863
 21
57.383
  0
LINE
  8
0
 10
67.363
 11
68.68
 20
57.383
 21
55.756
  0
LINE
  8
0
 10
68.68
 11
69.821
 20
55.756
 21
54
  0
LINE
  8
0
 10
69.821
 11
70.771
 20
54
 21
52.135
  0
LINE
  8
0
 10
70.771
 11
71.521
 20
52.135
 21
50.18
  0
LINE
  8
0
 10
71.521
 11
72.063
 20
50.18
 21
48.158
  0
LINE
  8
0
 10
72.063
 11
72.39
 20
48.158
 21
46.091
  0
LINE
  8
0
 10
72.39
 11
72.5
 20
46.091
 21
44
  0
LINE
  8
0
 10
72.5
 11
72.39
 20
44
 21
41.909
  0
LINE
  8
0
 10
72.39
 11
72.063
 20
41.909
 21
39.842
  0
LINE
  8
0
 10
72.063
 11
71.521
 20
39.842
 21
37.82
  0
LINE
  8
0
 10
71.521
 11
70.771
 20
37.82
 21
35.865
  0
LINE
  8
0
 10
70.771
 11
69.821
 20
35.865
 21
34
  0
LINE
  8
0
 10
69.821
 11
68.68
 20
34
 21
32.244
  0
LINE
  8
0
 10
68.68
 11
67.363
 20
32.244
 21
30.617
  0
LINE
  8
0
 10
67.363
 11
65.883
 20
30.617
 21
29.137
  0
LINE
  8
0
 10
65.883
 11
64.256
 20
29.137
 21
27.82
  0
LINE
  8
0
 10
64.256
 11
62.5
 20
27.82
 21
26.679
  0
LINE
  8
0
 10
62.5
 11
60.635
 20
26.679
 21
25.729
  0
LINE
  8
0
 10
60.635
 11
58.68
 20
25.729
 21
24.979
  0
LINE
  8
0
 10
58.68
 11
56.658
 20
24.979
 21
24.437
  0
LINE
  8
0
 10
56.658
 11
54.591
 20
24.437
 21
24.11
  0
LINE
  8
0
 10
54.591
 11
52.5
 20
24.11
 21
24
  0
LINE
  8
0
 10
52.5
 11
50.409
 20
24
 21
24.11
  0
LINE
  8
0
 10
50.409
 11
48.342
 20
24.11
 21
24.437
  0
LINE
  8
0
 10
48.342
 11
46.32
 20
24.437
 21
24.979
  0
LINE
  8
0
 10
46.32
 11
44.365
 20
24.979
 21
25.729
  0
LINE
  8
0
 10
44.365
 11
42.5
 20
25.729
 21
26.679
  0
LINE
  8
0
 10
42.5
 11
40.744
 20
26.679
 21
27.82
  0
LINE
  8
0
 10
40.744
 11
39.117
 20
27.82
 21
29.137
  0
LINE
  8
0
 10
39.117
 11
37.637
 20
29.137
 21
30.617
  0
LINE
  8
0
 10
37.637
 11
36.32
 20
30.617
 21
32.244
  0
LINE
  8
0
 10
36.32
 11
35.179
 20
32.244
 21
34
  0
LINE
  8
0
 10
35.179
 11
34.229
 20
34
 21
35.865
  0
LINE
  8
0
 10
34.229
 11
33.479
 20
35.865
 21
37.82
  0
LINE
  8
0
 10
33.479
 11
32.937
 20
37.82
 21
39.842
  0
LINE
  8
0
 10
32.937
 11
32.61
 20
39.842
 21
41.909
  0
LINE
  8
0
 10
32.61
 11
32.5
 20
41.909
 21
44
  0
LINE
  8
0
 10
35.7
 11
35.71
 20
10
 21
10.188
  0
LINE
  8
0
 10
35.71
 11
35.739
 20
10.188
 21
10.374
  0
LINE
  8
0
 10
35.739
 11
35.788
 20
10.374
 21
10.556
  0
LINE
  8
0
 10
35.788
 11
35.856
 20
10.556
 21
10.732
  0
LINE
  8
0
 10
35.856
 11
35.941
 20
10.732
 21
10.9
  0
LINE
  8
0
 10
35.941
 11
36.044
 20
10.9
 21
11.058
  0
LINE
  8
0
 10
36.044
 11
36.162
 20
11.058
 21
11.204
  0
LINE
  8
0
 10
36.162
 11
36.296
 20
11.204
 21
11.338
  0
LINE
  8
0
 10
36.296
 11
36.442
 20
11.338
 21
11.456
  0
LINE
  8
0
 10
36.442
 11
36.6
 20
11.456
 21
11.559
  0
LINE
  8
0
 10
36.6
 11
36.768
 20
11.559
 21
11.644
  0
LINE
  8
0
 10
36.768
 11
36.944
 20
11.644
 21
11.712
  0
LINE
  8
0
 10
36.944
 11
37.126
 20
11.712
 21
11.761
  0
LINE
  8
0
 10
37.126
 11
37.312
 20
11.761
 21
11.79
  0
LINE
  8
0
 10
37.312
 11
37.5
 20
11.79
 21
11.8
  0
LINE
  8
0
 10
37.5
 11
37.688
 20
11.8
 21
11.79
  0
LINE
  8
0
 10
37.688
 11
37.874
 20
11.79
 21
11.761
  0
LINE
  8
0
 10
37.874
 11
38.056
 20
11.761
 21
11.712
  0
LINE
  8
0
 10
38.056
 11
38.232
 20
11.712
 21
11.644
  0
LINE
  8
0
 10
38.232
 11
38.4
 20
11.644
 21
11.559
  0
LINE
  8
0
 10
38.4
 11
38.558
 20
11.559
 21
11.456
  0
LINE
  8
0
 10
38.558
 11
38.704
 20
11.456
 21
11.338
  0
LINE
  8
0
 10
38.704
 11
38.838
 20
11.338
 21
11.204
  0
LINE
  8
0
 10
38.838
 11
38.956
 20
11.204
 21
11.058
  0
LINE
  8
0
 10
38.956
 11
39.059
 20
11.058
 21
10.9
  0
LINE
  8
0
 10
39.059
 11
39.144
 20
10.9
 21
10.732
  0
LINE
  8
0
 10
39.144
 11
39.212
 20
10.732
 21
10.556
  0
LINE
  8
0
 10
39.212
 11
39.261
 20
10.556
 21
10.374
  0
LINE
  8
0
 10
39.261
 11
39.29
 20
10.374
 21
10.188
  0
LINE
  8
0
 10
39.29
 11
39.3
 20
10.188
 21
10
  0
LINE
  8
0
 10
39.3
 11
39.29
 20
10
 21
9.812
  0
LINE
  8
0
 10
39.29
 11
39.261
 20
9.812
 21
9.626
  0
LINE
  8
0
 10
39.261
 11
39.212
 20
9.626
 21
9.444
  0
LINE
  8
0
 10
39.212
 11
39.144
 20
9.444
 21
9.268
  0
LINE
  8
0
 10
39.144
 11
39.059
 20
9.268
 21
9.1
  0
LINE
  8
0
 10
39.059
 11
38.956
 20
9.1
 21
8.942
  0
LINE
  8
0
 10
38.956
 11
38.838
 20
8.942
 21
8.796
  0
LINE
  8
0
 10
38.838
 11
38.704
 20
8.796
 21
8.662
  0
LINE
  8
0
 10
38.704
 11
38.558
 20
8.662
 21
8.544
  0
LINE
  8
0
 10
38.558
 11
38.4
 20
8.544
 21
8.441
  0
LINE
  8
0
 10
38.4
 11
38.232
 20
8.441
 21
8.356
  0
LINE
  8
0
 10
38.232
 11
38.056
 20
8.356
 21
8.288
  0
LINE
  8
0
 10
38.056
 11
37.874
 20
8.288
 21
8.239
  0
LINE
  8
0
 10
37.874
 11
37.688
 20
8.239
 21
8.21
  0
LINE
  8
0
 10
37.688
 11
37.5
 20
8.21
 21
8.2
  0
LINE
  8
0
 10
37.5
 11
37.312
 20
8.2
 21
8.21
  0
LINE
  8
0
 10
37.312
 11
37.126
 20
8.21
 21
8.239
  0
LINE
  8
0
 10
37.126
 11
36.944
 20
8.239
 21
8.288
  0
LINE
  8
0
 10
36.944
 11
36.768
 20
8.288
 21
8.356
  0
LINE
  8
0
 10
36.768
 11
36.6
 20
8.356
 21
8.441
  0
LINE
  8
0
 10
36.6
 11
36.442
 20
8.441
 21
8.544
  0
LINE
  8
0
 10
36.442
 11
36.296
 20
8.544
 21
8.662
  0
LINE
  8
0
 10
36.296
 11
36.162
 20
8.662
 21
8.796
  0
LINE
  8
0
 10
36.162
 11
36.044
 20
8.796
 21
8.942
  0
LINE
  8
0
 10
36.044
 11
35.941
 20
8.942
 21
9.1
  0
LINE
  8
0
 10
35.941
 11
35.856
 20
9.1
 21
9.268
  0
LINE
  8
0
 10
35.856
 11
35.788
 20
9.268
 21
9.444
  0
LINE
  8
0
 10
35.788
 11
35.739
 20
9.444
 21
9.626
  0
LINE
  8
0
 10
35.739
 11
35.71
 20
9.626
 21
9.812
  0
LINE
  8
0
 10
35.71
 11
35.7
 20
9.812
 21
10
  0
LINE
  8
0
 10
38.7
 11
38.71
 20
77
 21
77.188
  0
LINE
  8
0
 10
38.71
 11
38.739
 20
77.188
 21
77.374
  0
LINE
  8
0
 10
38.739
 11
38.788
 20
77.374
 21
77.556
  0
LINE
  8
0
 10
38.788
 11
38.856
 20
77.556
 21
77.732
  0
LINE
  8
0
 10
38.856
 11
38.941
 20
77.732
 21
77.9
  0
LINE
  8
0
 10
38.941
 11
39.044
 20
77.9
 21
78.058
  0
LINE
  8
0
 10
39.044
 11
39.162
 20
78.058
 21
78.204
  0
LINE
  8
0
 10
39.162
 11
39.296
 20
78.204
 21
78.338
  0
LINE
  8
0
 10
39.296
 11
39.442
 20
78.338
 21
78.456
  0
LINE
  8
0
 10
39.442
 11
39.6
 20
78.456
 21
78.559
  0
LINE
  8
0
 10
39.6
 11
39.768
 20
78.559
 21
78.644
  0
LINE
  8
0
 10
39.768
 11
39.944
 20
78.644
 21
78.712
  0
LINE
  8
0
 10
39.944
 11
40.126
 20
78.712
 21
78.761
  0
LINE
  8
0
 10
40.126
 11
40.312
 20
78.761
 21
78.79
  0
LINE
  8
0
 10
40.312
 11
40.5
 20
78.79
 21
78.8
  0
LINE
  8
0
 10
40.5
 11
40.688
 20
78.8
 21
78.79
  0
LINE
  8
0
 10
40.688
 11
40.874
 20
78.79
 21
78.761
  0
LINE
  8
0
 10
40.874
 11
41.056
 20
78.761
 21
78.712
  0
LINE
  8
0
 10
41.056
 11
41.232
 20
78.712
 21
78.644
  0
LINE
  8
0
 10
41.232
 11
41.4
 20
78.644
 21
78.559
  0
LINE
  8
0
 10
41.4
 11
41.558
 20
78.559
 21
78.456
  0
LINE
  8
0
 10
41.558
 11
41.704
 20
78.456
 21
78.338
  0
LINE
  8
0
 10
41.704
 11
41.838
 20
78.338
 21
78.204
  0
LINE
  8
0
 10
41.838
 11
41.956
 20
78.204
 21
78.058
  0
LINE
  8
0
 10
41.956
 11
42.059
 20
78.058
 21
77.9
  0
LINE
  8
0
 10
42.059
 11
42.144
 20
77.9
 21
77.732
  0
LINE
  8
0
 10
42.144
 11
42.212
 20
77.732
 21
77.556
  0
LINE
  8
0
 10
42.212
 11
42.261
 20
77.556
 21
77.374
  0
LINE
  8
0
 10
42.261
 11
42.29
 20
77.374
 21
77.188
  0
LINE
  8
0
 10
42.29
 11
42.3
 20
77.188
 21
77
  0
LINE
  8
0
 10
42.3
 11
42.29
 20
77
 21
76.812
  0
LINE
  8
0
 10
42.29
 11
42.261
 20
76.812
 21
76.626
  0
LINE
  8
0
 10
42.261
 11
42.212
 20
76.626
 21
76.444
  0
LINE
  8
0
 10
42.212
 11
42.144
 20
76.444
 21
76.268
  0
LINE
  8
0
 10
42.144
 11
42.059
 20
76.268
 21
76.1
  0
LINE
  8
0
 10
42.059
 11
41.956
 20
76.1
 21
75.942
  0
LINE
  8
0
 10
41.956
 11
41.838
 20
75.942
 21
75.796
  0
LINE
  8
0
 10
41.838
 11
41.704
 20
75.796
 21
75.662
  0
LINE
  8
0
 10
41.704
 11
41.558
 20
75.662
 21
75.544
  0
LINE
  8
0
 10
41.558
 11
41.4
 20
75.544
 21
75.441
  0
LINE
  8
0
 10
41.4
 11
41.232
 20
75.441
 21
75.356
  0
LINE
  8
0
 10
41.232
 11
41.056
 20
75.356
 21
75.288
  0
LINE
  8
0
 10
41.056
 11
40.874
 20
75.288
 21
75.239
  0
LINE
  8
0
 10
40.874
 11
40.688
 20
75.239
 21
75.21
  0
LINE
  8
0
 10
40.688
 11
40.5
 20
75.21
 21
75.2
  0
LINE
  8
0
 10
40.5
 11
40.312
 20
75.2
 21
75.21
  0
LINE
  8
0
 10
40.312
 11
40.126
 20
75.21
 21
75.239
  0
LINE
  8
0
 10
40.126
 11
39.944
 20
75.239
 21
75.288
  0
LINE
  8
0
 10
39.944
 11
39.768
 20
75.288
 21
75.356
  0
LINE
  8
0
 10
39.768
 11
39.6
 20
75.356
 21
75.441
  0
LINE
  8
0
 10
39.6
 11
39.442
 20
75.441
 21
75.544
  0
LINE
  8
0
 10
39.442
 11
39.296
 20
75.544
 21
75.662
  0
LINE
  8
0
 10
39.296
 11
39.162
 20
75.662
 21
75.796
  0
LINE
  8
0
 10
39.162
 11
39.044
 20
75.796
 21
75.942
  0
LINE
  8
0
 10
39.044
 11
38.941
 20
75.942
 21
76.1
  0
LINE
  8
0
 10
38.941
 11
38.856
 20
76.1
 21
76.268
  0
LINE
  8
0
 10
38.856
 11
38.788
 20
76.268
 21
76.444
  0
LINE
  8
0
 10
38.788
 11
38.739
 20
76.444
 21
76.626
  0
LINE
  8
0
 10
38.739
 11
38.71
 20
76.626
 21
76.812
  0
LINE
  8
0
 10
38.71
 11
38.7
 20
76.812
 21
77
  0
LINE
  8
0
 10
38.7
 11
38.71
 20
95
 21
95.188
  0
LINE
  8
0
 10
38.71
 11
38.739
 20
95.188
 21
95.374
  0
LINE
  8
0
 10
38.739
 11
38.788
 20
95.374
 21
95.556
  0
LINE
  8
0
 10
38.788
 11
38.856
 20
95.556
 21
95.732
  0
LINE
  8
0
 10
38.856
 11
38.941
 20
95.732
 21
95.9
  0
LINE
  8
0
 10
38.941
 11
39.044
 20
95.9
 21
96.058
  0
LINE
  8
0
 10
39.044
 11
39.162
 20
96.058
 21
96.204
  0
LINE
  8
0
 10
39.162
 11
39.296
 20
96.204
 21
96.338
  0
LINE
  8
0
 10
39.296
 11
39.442
 20
96.338
 21
96.456
  0
LINE
  8
0
 10
39.442
 11
39.6
 20
96.456
 21
96.559
  0
LINE
  8
0
 10
39.6
 11
39.768
 20
96.559
 21
96.644
  0
LINE
  8
0
 10
39.768
 11
39.944
 20
96.644
 21
96.712
  0
LINE
  8
0
 10
39.944
 11
40.126
 20
96.712
 21
96.761
  0
LINE
  8
0
 10
40.126
 11
40.312
 20
96.761
 21
96.79
  0
LINE
  8
0
 10
40.312
 11
40.5
 20
96.79
 21
96.8
  0
LINE
  8
0
 10
40.5
 11
40.688
 20
96.8
 21
96.79
  0
LINE
  8
0
 10
40.688
 11
40.874
 20
96.79
 21
96.761
  0
LINE
  8
0
 10
40.874
 11
41.056
 20
96.761
 21
96.712
  0
LINE
  8
0
 10
41.056
 11
41.232
 20
96.712
 21
96.644
  0
LINE
  8
0
 10
41.232
 11
41.4
 20
96.644
 21
96.559
  0
LINE
  8
0
 10
41.4
 11
41.558
 20
96.559
 21
96.456
  0
LINE
  8
0
 10
41.558
 11
41.704
 20
96.456
 21
96.338
  0
LINE
  8
0
 10
41.704
 11
41.838
 20
96.338
 21
96.204
  0
LINE
  8
0
 10
41.838
 11
41.956
 20
96.204
 21
96.058
  0
LINE
  8
0
 10
41.956
 11
42.059
 20
96.058
 21
95.9
  0
LINE
  8
0
 10
42.059
 11
42.144
 20
95.9
 21
95.732
  0
LINE
  8
0
 10
42.144
 11
42.212
 20
95.732
 21
95.556
  0
LINE
  8
0
 10
42.212
 11
42.261
 20
95.556
 21
95.374
  0
LINE
  8
0
 10
42.261
 11
42.29
 20
95.374
 21
95.188
  0
LINE
  8
0
 10
42.29
 11
42.3
 20
95.188
 21
95
  0
LINE
  8
0
 10
42.3
 11
42.29
 20
95
 21
94.812
  0
LINE
  8
0
 10
42.29
 11
42.261
 20
94.812
 21
94.626
  0
LINE
  8
0
 10
42.261
 11
42.212
 20
94.626
 21
94.444
  0
LINE
  8
0
 10
42.212
 11
42.144
 20
94.444
 21
94.268
  0
LINE
  8
0
 10
42.144
 11
42.059
 20
94.268
 21
94.1
  0
LINE
  8
0
 10
42.059
 11
41.956
 20
94.1
 21
93.942
  0
LINE
  8
0
 10
41.956
 11
41.838
 20
93.942
 21
93.796
  0
LINE
  8
0
 10
41.838
 11
41.704
 20
93.796
 21
93.662
  0
LINE
  8
0
 10
41.704
 11
41.558
 20
93.662
 21
93.544
  0
LINE
  8
0
 10
41.558
 11
41.4
 20
93.544
 21
93.441
  0
LINE
  8
0
 10
41.4
 11
41.232
 20
93.441
 21
93.356
  0
LINE
  8
0
 10
41.232
 11
41.056
 20
93.356
 21
93.288
  0
LINE
  8
0
 10
41.056
 11
40.874
 20
93.288
 21
93.239
  0
LINE
  8
0
 10
40.874
 11
40.688
 20
93.239
 21
93.21
  0
LINE
  8
0
 10
40.688
 11
40.5
 20
93.21
 21
93.2
  0
LINE
  8
0
 10
40.5
 11
40.312
 20
93.2
 21
93.21
  0
LINE
  8
0
 10
40.312
 11
40.126
 20
93.21
 21
93.239
  0
LINE
  8
0
 10
40.126
 11
39.944
 20
93.239
 21
93.288
  0
LINE
  8
0
 10
39.944
 11
39.768
 20
93.288
 21
93.356
  0
LINE
  8
0
 10
39.768
 11
39.6
 20
93.356
 21
93.441
  0
LINE
  8
0
 10
39.6
 11
39.442
 20
93.441
 21
93.544
  0
LINE
  8
0
 10
39.442
 11
39.296
 20
93.544
 21
93.662
  0
LINE
  8
0
 10
39.296
 11
39.162
 20
93.662
 21
93.796
  0
LINE
  8
0
 10
39.162
 11
39.044
 20
93.796
 21
93.942
  0
LINE
  8
0
 10
39.044
 11
38.941
 20
93.942
 21
94.1
  0
LINE
  8
0
 10
38.941
 11
38.856
 20
94.1
 21
94.268
  0
LINE
  8
0
 10
38.856
 11
38.788
 20
94.268
 21
94.444
  0
LINE
  8
0
 10
38.788
 11
38.739
 20
94.444
 21
94.626
  0
LINE
  8
0
 10
38.739
 11
38.71
 20
94.626
 21
94.812
  0
LINE
  8
0
 10
38.71
 11
38.7
 20
94.812
 21
95
  0
LINE
  8
0
 10
62.7
 11
62.71
 20
77
 21
77.188
  0
LINE
  8
0
 10
62.71
 11
62.739
 20
77.188
 21
77.374
  0
LINE
  8
0
 10
62.739
 11
62.788
 20
77.374
 21
77.556
  0
LINE
  8
0
 10
62.788
 11
62.856
 20
77.556
 21
77.732
  0
LINE
  8
0
 10
62.856
 11
62.941
 20
77.732
 21
77.9
  0
LINE
  8
0
 10
62.941
 11
63.044
 20
77.9
 21
78.058
  0
LINE
  8
0
 10
63.044
 11
63.162
 20
78.058
 21
78.204
  0
LINE
  8
0
 10
63.162
 11
63.296
 20
78.204
 21
78.338
  0
LINE
  8
0
 10
63.296
 11
63.442
 20
78.338
 21
78.456
  0
LINE
  8
0
 10
63.442
 11
63.6
 20
78.456
 21
78.559
  0
LINE
  8
0
 10
63.6
 11
63.768
 20
78.559
 21
78.644
  0
LINE
  8
0
 10
63.768
 11
63.944
 20
78.644
 21
78.712
  0
LINE
  8
0
 10
63.944
 11
64.126
 20
78.712
 21
78.761
  0
LINE
  8
0
 10
64.126
 11
64.312
 20
78.761
 21
78.79
  0
LINE
  8
0
 10
64.312
 11
64.5
 20
78.79
 21
78.8
  0
LINE
  8
0
 10
64.5
 11
64.688
 20
78.8
 21
78.79
  0
LINE
  8
0
 10
64.688
 11
64.874
 20
78.79
 21
78.761
  0
LINE
  8
0
 10
64.874
 11
65.056
 20
78.761
 21
78.712
  0
LINE
  8
0
 10
65.056
 11
65.232
 20
78.712
 21
78.644
  0
LINE
  8
0
 10
65.232
 11
65.4
 20
78.644
 21
78.559
  0
LINE
  8
0
 10
65.4
 11
65.558
 20
78.559
 21
78.456
  0
LINE
  8
0
 10
65.558
 11
65.704
 20
78.456
 21
78.338
  0
LINE
  8
0
 10
65.704
 11
65.838
 20
78.338
 21
78.204
  0
LINE
  8
0
 10
65.838
 11
65.956
 20
78.204
 21
78.058
  0
LINE
  8
0
 10
65.956
 11
66.059
 20
78.058
 21
77.9
  0
LINE
  8
0
 10
66.059
 11
66.144
 20
77.9
 21
77.732
  0
LINE
  8
0
 10
66.144
 11
66.212
 20
77.732
 21
77.556
  0
LINE
  8
0
 10
66.212
 11
66.261
 20
77.556
 21
77.374
  0
LINE
  8
0
 10
66.261
 11
66.29
 20
77.374
 21
77.188
  0
LINE
  8
0
 10
66.29
 11
66.3
 20
77.188
 21
77
  0
LINE
  8
0
 10
66.3
 11
66.29
 20
77
 21
76.812
  0
LINE
  8
0
 10
66.29
 11
66.261
 20
76.812
 21
76.626
  0
LINE
  8
0
 10
66.261
 11
66.212
 20
76.626
 21
76.444
  0
LINE
  8
0
 10
66.212
 11
66.144
 20
76.444
 21
76.268
  0
LINE
  8
0
 10
66.144
 11
66.059
 20
76.268
 21
76.1
  0
LINE
  8
0
 10
66.059
 11
65.956
 20
76.1
 21
75.942
  0
LINE
  8
0
 10
65.956
 11
65.838
 20
75.942
 21
75.796
  0
LINE
  8
0
 10
65.838
 11
65.704
 20
75.796
 21
75.662
  0
LINE
  8
0
 10
65.704
 11
65.558
 20
75.662
 21
75.544
  0
LINE
  8
0
 10
65.558
 11
65.4
 20
75.544
 21
75.441
  0
LINE
  8
0
 10
65.4
 11
65.232
 20
75.441
 21
75.356
  0
LINE
  8
0
 10
65.232
 11
65.056
 20
75.356
 21
75.288
  0
LINE
  8
0
 10
65.056
 11
64.874
 20
75.288
 21
75.239
  0
LINE
  8
0
 10
64.874
 11
64.688
 20
75.239
 21
75.21
  0
LINE
  8
0
 10
64.688
 11
64.5
 20
75.21
 21
75.2
  0
LINE
  8
0
 10
64.5
 11
64.312
 20
75.2
 21
75.21
  0
LINE
  8
0
 10
64.312
 11
64.126
 20
75.21
 21
75.239
  0
LINE
  8
0
 10
64.126
 11
63.944
 20
75.239
 21
75.288
  0
LINE
  8
0
 10
63.944
 11
63.768
 20
75.288
 21
75.356
  0
LINE
  8
0
 10
63.768
 11
63.6
 20
75.356
 21
75.441
  0
LINE
  8
0
 10
63.6
 11
63.442
 20
75.441
 21
75.544
  0
LINE
  8
0
 10
63.442
 11
63.296
 20
75.544
 21
75.662
  0
LINE
  8
0
 10
63.296
 11
63.162
 20
75.662
 21
75.796
  0
LINE
  8
0
 10
63.162
 11
63.044
 20
75.796
 21
75.942
  0
LINE
  8
0
 10
63.044
 11
62.941
 20
75.942
 21
76.1
  0
LINE
  8
0
 10
62.941
 11
62.856
 20
76.1
 21
76.268
  0
LINE
  8
0
 10
62.856
 11
62.788
 20
76.268
 21
76.444
  0
LINE
  8
0
 10
62.788
 11
62.739
 20
76.444
 21
76.626
  0
LINE
  8
0
 10
62.739
 11
62.71
 20
76.626
 21
76.812
  0
LINE
  8
0
 10
62.71
 11
62.7
 20
76.812
 21
77
  0
LINE
  8
0
 10
62.7
 11
62.71
 20
95
 21
95.188
  0
LINE
  8
0
 10
62.71
 11
62.739
 20
95.188
 21
95.374
  0
LINE
  8
0
 10
62.739
 11
62.788
 20
95.374
 21
95.556
  0
LINE
  8
0
 10
62.788
 11
62.856
 20
95.556
 21
95.732
  0
LINE
  8
0
 10
62.856
 11
62.941
 20
95.732
 21
95.9
  0
LINE
  8
0
 10
62.941
 11
63.044
 20
95.9
 21
96.058
  0
LINE
  8
0
 10
63.044
 11
63.162
 20
96.058
 21
96.204
  0
LINE
  8
0
 10
63.162
 11
63.296
 20
96.204
 21
96.338
  0
LINE
  8
0
 10
63.296
 11
63.442
 20
96.338
 21
96.456
  0
LINE
  8
0
 10
63.442
 11
63.6
 20
96.456
 21
96.559
  0
LINE
  8
0
 10
63.6
 11
63.768
 20
96.559
 21
96.644
  0
LINE
  8
0
 10
63.768
 11
63.944
 20
96.644
 21
96.712
  0
LINE
  8
0
 10
63.944
 11
64.126
 20
96.712
 21
96.761
  0
LINE
  8
0
 10
64.126
 11
64.312
 20
96.761
 21
96.79
  0
LINE
  8
0
 10
64.312
 11
64.5
 20
96.79
 21
96.8
  0
LINE
  8
0
 10
64.5
 11
64.688
 20
96.8
 21
96.79
  0
LINE
  8
0
 10
64.688
 11
64.874
 20
96.79
 21
96.761
  0
LINE
  8
0
 10
64.874
 11
65.056
 20
96.761
 21
96.712
  0
LINE
  8
0
 10
65.056
 11
65.232
 20
96.712
 21
96.644
  0
LINE
  8
0
 10
65.232
 11
65.4
 20
96.644
 21
96.559
  0
LINE
  8
0
 10
65.4
 11
65.558
 20
96.559
 21
96.456
  0
LINE
  8
0
 10
65.558
 11
65.704
 20
96.456
 21
96.338
  0
LINE
  8
0
 10
65.704
 11
65.838
 20
96.338
 21
96.204
  0
LINE
  8
0
 10
65.838
 11
65.956
 20
96.204
 21
96.058
  0
LINE
  8
0
 10
65.956
 11
66.059
 20
96.058
 21
95.9
  0
LINE
  8
0
 10
66.059
 11
66.144
 20
95.9
 21
95.732
  0
LINE
  8
0
 10
66.144
 11
66.212
 20
95.732
 21
95.556
  0
LINE
  8
0
 10
66.212
 11
66.261
 20
95.556
 21
95.374
  0
LINE
  8
0
 10
66.261
 11
66.29
 20
95.374
 21
95.188
  0
LINE
  8
0
 10
66.29
 11
66.3
 20
95.188
 21
95
  0
LINE
  8
0
 10
66.3
 11
66.29
 20
95
 21
94.812
  0
LINE
  8
0
 10
66.29
 11
66.261
 20
94.812
 21
94.626
  0
LINE
  8
0
 10
66.261
 11
66.212
 20
94.626
 21
94.444
  0
LINE
  8
0
 10
66.212
 11
66.144
 20
94.444
 21
94.268
  0
LINE
  8
0
 10
66.144
 11
66.059
 20
94.268
 21
94.1
  0
LINE
  8
0
 10
66.059
 11
65.956
 20
94.1
 21
93.942
  0
LINE
  8
0
 10
65.956
 11
65.838
 20
93.942
 21
93.796
  0
LINE
  8
0
 10
65.838
 11
65.704
 20
93.796
 21
93.662
  0
LINE
  8
0
 10
65.704
 11
65.558
 20
93.662
 21
93.544
  0
LINE
  8
0
 10
65.558
 11
65.4
 20
93.544
 21
93.441
  0
LINE
  8
0
 10
65.4
 11
65.232
 20
93.441
 21
93.356
  0
LINE
  8
0
 10
65.232
 11
65.056
 20
93.356
 21
93.288
  0
LINE
  8
0
 10
65.056
 11
64.874
 20
93.288
 21
93.239
  0
LINE
  8
0
 10
64.874
 11
64.688
 20
93.239
 21
93.21
  0
LINE
  8
0
 10
64.688
 11
64.5
 20
93.21
 21
93.2
  0
LINE
  8
0
 10
64.5
 11
64.312
 20
93.2
 21
93.21
  0
LINE
  8
0
 10
64.312
 11
64.126
 20
93.21
 21
93.239
  0
LINE
  8
0
 10
64.126
 11
63.944
 20
93.239
 21
93.288
  0
LINE
  8
0
 10
63.944
 11
63.768
 20
93.288
 21
93.356
  0
LINE
  8
0
 10
63.768
 11
63.6
 20
93.356
 21
93.441
  0
LINE
  8
0
 10
63.6
 11
63.442
 20
93.441
 21
93.544
  0
LINE
  8
0
 10
63.442
 11
63.296
 20
93.544
 21
93.662
  0
LINE
  8
0
 10
63.296
 11
63.162
 20
93.662
 21
93.796
  0
LINE
  8
0
 10
63.162
 11
63.044
 20
93.796
 21
93.942
  0
LINE
  8
0
 10
63.044
 11
62.941
 20
93.942
 21
94.1
  0
LINE
  8
0
 10
62.941
 11
62.856
 20
94.1
 21
94.268
  0
LINE
  8
0
 10
62.856
 11
62.788
 20
94.268
 21
94.444
  0
LINE
  8
0
 10
62.788
 11
62.739
 20
94.444
 21
94.626
  0
LINE
  8
0
 10
62.739
 11
62.71
 20
94.626
 21
94.812
  0
LINE
  8
0
 10
62.71
 11
62.7
 20
94.812
 21
95
  0
LINE
  8
0
 10
65.7
 11
65.71
 20
10
 21
10.188
  0
LINE
  8
0
 10
65.71
 11
65.739
 20
10.188
 21
10.374
  0
LINE
  8
0
 10
65.739
 11
65.788
 20
10.374
 21
10.556
  0
LINE
  8
0
 10
65.788
 11
65.856
 20
10.556
 21
10.732
  0
LINE
  8
0
 10
65.856
 11
65.941
 20
10.732
 21
10.9
  0
LINE
  8
0
 10
65.941
 11
66.044
 20
10.9
 21
11.058
  0
LINE
  8
0
 10
66.044
 11
66.162
 20
11.058
 21
11.204
  0
LINE
  8
0
 10
66.162
 11
66.296
 20
11.204
 21
11.338
  0
LINE
  8
0
 10
66.296
 11
66.442
 20
11.338
 21
11.456
  0
LINE
  8
0
 10
66.442
 11
66.6
 20
11.456
 21
11.559
  0
LINE
  8
0
 10
66.6
 11
66.768
 20
11.559
 21
11.644
  0
LINE
  8
0
 10
66.768
 11
66.944
 20
11.644
 21
11.712
  0
LINE
  8
0
 10
66.944
 11
67.126
 20
11.712
 21
11.761
  0
LINE
  8
0
 10
67.126
 11
67.312
 20
11.761
 21
11.79
  0
LINE
  8
0
 10
67.312
 11
67.5
 20
11.79
 21
11.8
  0
LINE
  8
0
 10
67.5
 11
67.688
 20
11.8
 21
11.79
  0
LINE
  8
0
 10
67.688
 11
67.874
 20
11.79
 21
11.761
  0
LINE
  8
0
 10
67.874
 11
68.056
 20
11.761
 21
11.712
  0
LINE
  8
0
 10
68.056
 11
68.232
 20
11.712
 21
11.644
  0
LINE
  8
0
 10
68.232
 11
68.4
 20
11.644
 21
11.559
  0
LINE
  8
0
 10
68.4
 11
68.558
 20
11.559
 21
11.456
  0
LINE
  8
0
 10
68.558
 11
68.704
 20
11.456
 21
11.338
  0
LINE
  8
0
 10
68.704
 11
68.838
 20
11.338
 21
11.204
  0
LINE
  8
0
 10
68.838
 11
68.956
 20
11.204
 21
11.058
  0
LINE
  8
0
 10
68.956
 11
69.059
 20
11.058
 21
10.9
  0
LINE
  8
0
 10
69.059
 11
69.144
 20
10.9
 21
10.732
  0
LINE
  8
0
 10
69.144
 11
69.212
 20
10.732
 21
10.556
  0
LINE
  8
0
 10
69.212
 11
69.261
 20
10.556
 21
10.374
  0
LINE
  8
0
 10
69.261
 11
69.29
 20
10.374
 21
10.188
  0
LINE
  8
0
 10
69.29
 11
69.3
 20
10.188
 21
10
  0
LINE
  8
0
 10
69.3
 11
69.29
 20
10
 21
9.812
  0
LINE
  8
0
 10
69.29
 11
69.261
 20
9.812
 21
9.626
  0
LINE
  8
0
 10
69.261
 11
69.212
 20
9.626
 21
9.444
  0
LINE
  8
0
 10
69.212
 11
69.144
 20
9.444
 21
9.268
  0
LINE
  8
0
 10
69.144
 11
69.059
 20
9.268
 21
9.1
  0
LINE
  8
0
 10
69.059
 11
68.956
 20
9.1
 21
8.942
  0
LINE
  8
0
 10
68.956
 11
68.838
 20
8.942
 21
8.796
  0
LINE
  8
0
 10
68.838
 11
68.704
 20
8.796
 21
8.662
  0
LINE
  8
0
 10
68.704
 11
68.558
 20
8.662
 21
8.544
  0
LINE
  8
0
 10
68.558
 11
68.4
 20
8.544
 21
8.441
  0
LINE
  8
0
 10
68.4
 11
68.232
 20
8.441
 21
8.356
  0
LINE
  8
0
 10
68.232
 11
68.056
 20
8.356
 21
8.288
  0
LINE
  8
0
 10
68.056
 11
67.874
 20
8.288
 21
8.239
  0
LINE
  8
0
 10
67.874
 11
67.688
 20
8.239
 21
8.21
  0
LINE
  8
0
 10
67.688
 11
67.5
 20
8.21
 21
8.2
  0
LINE
  8
0
 10
67.5
 11
67.312
 20
8.2
 21
8.21
  0
LINE
  8
0
 10
67.312
 11
67.126
 20
8.21
 21
8.239
  0
LINE
  8
0
 10
67.126
 11
66.944
 20
8.239
 21
8.288
  0
LINE
  8
0
 10
66.944
 11
66.768
 20
8.288
 21
8.356
  0
LINE
  8
0
 10
66.768
 11
66.6
 20
8.356
 21
8.441
  0
LINE
  8
0
 10
66.6
 11
66.442
 20
8.441
 21
8.544
  0
LINE
  8
0
 10
66.442
 11
66.296
 20
8.544
 21
8.662
  0
LINE
  8
0
 10
66.296
 11
66.162
 20
8.662
 21
8.796
  0
LINE
  8
0
 10
66.162
 11
66.044
 20
8.796
 21
8.942
  0
LINE
  8
0
 10
66.044
 11
65.941
 20
8.942
 21
9.1
  0
LINE
  8
0
 10
65.941
 11
65.856
 20
9.1
 21
9.268
  0
LINE
  8
0
 10
65.856
 11
65.788
 20
9.268
 21
9.444
  0
LINE
  8
0
 10
65.788
 11
65.739
 20
9.444
 21
9.626
  0
LINE
  8
0
 10
65.739
 11
65.71
 20
9.626
 21
9.812
  0
LINE
  8
0
 10
65.71
 11
65.7
 20
9.812
 21
10
  0
LINE
  8
0
 10
73.674
 11
74.976
 20
35.012
 21
36.156
  0
LINE
  8
0
 10
74.976
 11
76.683
 20
36.156
 21
35.851
  0
LINE
  8
0
 10
76.683
 11
77.508
 20
35.851
 21
34.326
  0
LINE
  8
0
 10
77.508
 11
76.831
 20
34.326
 21
32.73
  0
LINE
  8
0
 10
76.831
 11
75.161
 20
32.73
 21
32.265
  0
LINE
  8
0
 10
75.161
 11
73.756
 20
32.265
 21
33.281
  0
LINE
  8
0
 10
73.756
 11
73.674
 20
33.281
 21
35.012
  0
LINE
  8
0
 10
73.674
 11
73.756
 20
52.988
 21
54.719
  0
LINE
  8
0
 10
73.756
 11
75.161
 20
54.719
 21
55.735
  0
LINE
  8
0
 10
75.161
 11
76.831
 20
55.735
 21
55.27
  0
LINE
  8
0
 10
76.831
 11
77.508
 20
55.27
 21
53.674
  0
LINE
  8
0
 10
77.508
 11
76.683
 20
53.674
 21
52.149
  0
LINE
  8
0
 10
76.683
 11
74.976
 20
52.149
 21
51.844
  0
LINE
  8
0
 10
74.976
 11
73.674
 20
51.844
 21
52.988
  0
LINE
  8
0
 10
75.502
 11
76.254
 20
44
 21
45.562
  0
LINE
  8
0
 10
76.254
 11
77.945
 20
45.562
 21
45.948
  0
LINE
  8
0
 10
77.945
 11
79.3
 20
45.948
 21
44.867
  0
LINE
  8
0
 10
79.3
 11
79.3
 20
44.867
 21
43.133
  0
LINE
  8
0
 10
79.3
 11
77.945
 20
43.133
 21
42.052
  0
LINE
  8
0
 10
77.945
 11
76.254
 20
42.052
 21
42.438
  0
LINE
  8
0
 10
76.254
 11
75.502
 20
42.438
 21
44
  0
LINE
  8
0
 10
78.7
 11
78.71
 20
5
 21
5.188
  0
LINE
  8
0
 10
78.71
 11
78.739
 20
5.188
 21
5.374
  0
LINE
  8
0
 10
78.739
 11
78.788
 20
5.374
 21
5.556
  0
LINE
  8
0
 10
78.788
 11
78.856
 20
5.556
 21
5.732
  0
LINE
  8
0
 10
78.856
 11
78.941
 20
5.732
 21
5.9
  0
LINE
  8
0
 10
78.941
 11
79.044
 20
5.9
 21
6.058
  0
LINE
  8
0
 10
79.044
 11
79.162
 20
6.058
 21
6.204
  0
LINE
  8
0
 10
79.162
 11
79.296
 20
6.204
 21
6.338
  0
LINE
  8
0
 10
79.296
 11
79.442
 20
6.338
 21
6.456
  0
LINE
  8
0
 10
79.442
 11
79.6
 20
6.456
 21
6.559
  0
LINE
  8
0
 10
79.6
 11
79.768
 20
6.559
 21
6.644
  0
LINE
  8
0
 10
79.768
 11
79.944
 20
6.644
 21
6.712
  0
LINE
  8
0
 10
79.944
 11
80.126
 20
6.712
 21
6.761
  0
LINE
  8
0
 10
80.126
 11
80.312
 20
6.761
 21
6.79
  0
LINE
  8
0
 10
80.312
 11
80.5
 20
6.79
 21
6.8
  0
LINE
  8
0
 10
80.5
 11
80.688
 20
6.8
 21
6.79
  0
LINE
  8
0
 10
80.688
 11
80.874
 20
6.79
 21
6.761
  0
LINE
  8
0
 10
80.874
 11
81.056
 20
6.761
 21
6.712
  0
LINE
  8
0
 10
81.056
 11
81.232
 20
6.712
 21
6.644
  0
LINE
  8
0
 10
81.232
 11
81.4
 20
6.644
 21
6.559
  0
LINE
  8
0
 10
81.4
 11
81.558
 20
6.559
 21
6.456
  0
LINE
  8
0
 10
81.558
 11
81.704
 20
6.456
 21
6.338
  0
LINE
  8
0
 10
81.704
 11
81.838
 20
6.338
 21
6.204
  0
LINE
  8
0
 10
81.838
 11
81.956
 20
6.204
 21
6.058
  0
LINE
  8
0
 10
81.956
 11
82.059
 20
6.058
 21
5.9
  0
LINE
  8
0
 10
82.059
 11
82.144
 20
5.9
 21
5.732
  0
LINE
  8
0
 10
82.144
 11
82.212
 20
5.732
 21
5.556
  0
LINE
  8
0
 10
82.212
 11
82.261
 20
5.556
 21
5.374
  0
LINE
  8
0
 10
82.261
 11
82.29
 20
5.374
 21
5.188
  0
LINE
  8
0
 10
82.29
 11
82.3
 20
5.188
 21
5
  0
LINE
  8
0
 10
82.3
 11
82.29
 20
5
 21
4.812
  0
LINE
  8
0
 10
82.29
 11
82.261
 20
4.812
 21
4.626
  0
LINE
  8
0
 10
82.261
 11
82.212
 20
4.626
 21
4.444
  0
LINE
  8
0
 10
82.212
 11
82.144
 20
4.444
 21
4.268
  0
LINE
  8
0
 10
82.144
 11
82.059
 20
4.268
 21
4.1
  0
LINE
  8
0
 10
82.059
 11
81.956
 20
4.1
 21
3.942
  0
LINE
  8
0
 10
81.956
 11
81.838
 20
3.942
 21
3.796
  0
LINE
  8
0
 10
81.838
 11
81.704
 20
3.796
 21
3.662
  0
LINE
  8
0
 10
81.704
 11
81.558
 20
3.662
 21
3.544
  0
LINE
  8
0
 10
81.558
 11
81.4
 20
3.544
 21
3.441
  0
LINE
  8
0
 10
81.4
 11
81.232
 20
3.441
 21
3.356
  0
LINE
  8
0
 10
81.232
 11
81.056
 20
3.356
 21
3.288
  0
LINE
  8
0
 10
81.056
 11
80.874
 20
3.288
 21
3.239
  0
LINE
  8
0
 10
80.874
 11
80.688
 20
3.239
 21
3.21
  0
LINE
  8
0
 10
80.688
 11
80.5
 20
3.21
 21
3.2
  0
LINE
  8
0
 10
80.5
 11
80.312
 20
3.2
 21
3.21
  0
LINE
  8
0
 10
80.312
 11
80.126
 20
3.21
 21
3.239
  0
LINE
  8
0
 10
80.126
 11
79.944
 20
3.239
 21
3.288
  0
LINE
  8
0
 10
79.944
 11
79.768
 20
3.288
 21
3.356
  0
LINE
  8
0
 10
79.768
 11
79.6
 20
3.356
 21
3.441
  0
LINE
  8
0
 10
79.6
 11
79.442
 20
3.441
 21
3.544
  0
LINE
  8
0
 10
79.442
 11
79.296
 20
3.544
 21
3.662
  0
LINE
  8
0
 10
79.296
 11
79.162
 20
3.662
 21
3.796
  0
LINE
  8
0
 10
79.162
 11
79.044
 20
3.796
 21
3.942
  0
LINE
  8
0
 10
79.044
 11
78.941
 20
3.942
 21
4.1
  0
LINE
  8
0
 10
78.941
 11
78.856
 20
4.1
 21
4.268
  0
LINE
  8
0
 10
78.856
 11
78.788
 20
4.268
 21
4.444
  0
LINE
  8
0
 10
78.788
 11
78.739
 20
4.444
 21
4.626
  0
LINE
  8
0
 10
78.739
 11
78.71
 20
4.626
 21
4.812
  0
LINE
  8
0
 10
78.71
 11
78.7
 20
4.812
 21
5
  0
LINE
  8
0
 10
78.7
 11
78.71
 20
83
 21
83.188
  0
LINE
  8
0
 10
78.71
 11
78.739
 20
83.188
 21
83.374
  0
LINE
  8
0
 10
78.739
 11
78.788
 20
83.374
 21
83.556
  0
LINE
  8
0
 10
78.788
 11
78.856
 20
83.556
 21
83.732
  0
LINE
  8
0
 10
78.856
 11
78.941
 20
83.732
 21
83.9
  0
LINE
  8
0
 10
78.941
 11
79.044
 20
83.9
 21
84.058
  0
LINE
  8
0
 10
79.044
 11
79.162
 20
84.058
 21
84.204
  0
LINE
  8
0
 10
79.162
 11
79.296
 20
84.204
 21
84.338
  0
LINE
  8
0
 10
79.296
 11
79.442
 20
84.338
 21
84.456
  0
LINE
  8
0
 10
79.442
 11
79.6
 20
84.456
 21
84.559
  0
LINE
  8
0
 10
79.6
 11
79.768
 20
84.559
 21
84.644
  0
LINE
  8
0
 10
79.768
 11
79.944
 20
84.644
 21
84.712
  0
LINE
  8
0
 10
79.944
 11
80.126
 20
84.712
 21
84.761
  0
LINE
  8
0
 10
80.126
 11
80.312
 20
84.761
 21
84.79
  0
LINE
  8
0
 10
80.312
 11
80.5
 20
84.79
 21
84.8
  0
LINE
  8
0
 10
80.5
 11
80.688
 20
84.8
 21
84.79
  0
LINE
  8
0
 10
80.688
 11
80.874
 20
84.79
 21
84.761
  0
LINE
  8
0
 10
80.874
 11
81.056
 20
84.761
 21
84.712
  0
LINE
  8
0
 10
81.056
 11
81.232
 20
84.712
 21
84.644
  0
LINE
  8
0
 10
81.232
 11
81.4
 20
84.644
 21
84.559
  0
LINE
  8
0
 10
81.4
 11
81.558
 20
84.559
 21
84.456
  0
LINE
  8
0
 10
81.558
 11
81.704
 20
84.456
 21
84.338
  0
LINE
  8
0
 10
81.704
 11
81.838
 20
84.338
 21
84.204
  0
LINE
  8
0
 10
81.838
 11
81.956
 20
84.204
 21
84.058
  0
LINE
  8
0
 10
81.956
 11
82.059
 20
84.058
 21
83.9
  0
LINE
  8
0
 10
82.059
 11
82.144
 20
83.9
 21
83.732
  0
LINE
  8
0
 10
82.144
 11
82.212
 20
83.732
 21
83.556
  0
LINE
  8
0
 10
82.212
 11
82.261
 20
83.556
 21
83.374
  0
LINE
  8
0
 10
82.261
 11
82.29
 20
83.374
 21
83.188
  0
LINE
  8
0
 10
82.29
 11
82.3
 20
83.188
 21
83
  0
LINE
  8
0
 10
82.3
 11
82.29
 20
83
 21
82.812
  0
LINE
  8
0
 10
82.29
 11
82.261
 20
82.812
 21
82.626
  0
LINE
  8
0
 10
82.261
 11
82.212
 20
82.626
 21
82.444
  0
LINE
  8
0
 10
82.212
 11
82.144
 20
82.444
 21
82.268
  0
LINE
  8
0
 10
82.144
 11
82.059
 20
82.268
 21
82.1
  0
LINE
  8
0
 10
82.059
 11
81.956
 20
82.1
 21
81.942
  0
LINE
  8
0
 10
81.956
 11
81.838
 20
81.942
 21
81.796
  0
LINE
  8
0
 10
81.838
 11
81.704
 20
81.796
 21
81.662
  0
LINE
  8
0
 10
81.704
 11
81.558
 20
81.662
 21
81.544
  0
LINE
  8
0
 10
81.558
 11
81.4
 20
81.544
 21
81.441
  0
LINE
  8
0
 10
81.4
 11
81.232
 20
81.441
 21
81.356
  0
LINE
  8
0
 10
81.232
 11
81.056
 20
81.356
 21
81.288
  0
LINE
  8
0
 10
81.056
 11
80.874
 20
81.288
 21
81.239
  0
LINE
  8
0
 10
80.874
 11
80.688
 20
81.239
 21
81.21
  0
LINE
  8
0
 10
80.688
 11
80.5
 20
81.21
 21
81.2
  0
LINE
  8
0
 10
80.5
 11
80.312
 20
81.2
 21
81.21
  0
LINE
  8
0
 10
80.312
 11
80.126
 20
81.21
 21
81.239
  0
LINE
  8
0
 10
80.126
 11
79.944
 20
81.239
 21
81.288
  0
LINE
  8
0
 10
79.944
 11
79.768
 20
81.288
 21
81.356
  0
LINE
  8
0
 10
79.768
 11
79.6
 20
81.356
 21
81.441
  0
LINE
  8
0
 10
79.6
 11
79.442
 20
81.441
 21
81.544
  0
LINE
  8
0
 10
79.442
 11
79.296
 20
81.544
 21
81.662
  0
LINE
  8
0
 10
79.296
 11
79.162
 20
81.662
 21
81.796
  0
LINE
  8
0
 10
79.162
 11
79.044
 20
81.796
 21
81.942
  0
LINE
  8
0
 10
79.044
 11
78.941
 20
81.942
 21
82.1
  0
LINE
  8
0
 10
78.941
 11
78.856
 20
82.1
 21
82.268
  0
LINE
  8
0
 10
78.856
 11
78.788
 20
82.268
 21
82.444
  0
LINE
  8
0
 10
78.788
 11
78.739
 20
82.444
 21
82.626
  0
LINE
  8
0
 10
78.739
 11
78.71
 20
82.626
 21
82.812
  0
LINE
  8
0
 10
78.71
 11
78.7
 20
82.812
 21
83
  0
LINE
  8
0
 10
98.7
 11
98.71
 20
33
 21
33.188
  0
LINE
  8
0
 10
98.71
 11
98.739
 20
33.188
 21
33.374
  0
LINE
  8
0
 10
98.739
 11
98.788
 20
33.374
 21
33.556
  0
LINE
  8
0
 10
98.788
 11
98.856
 20
33.556
 21
33.732
  0
LINE
  8
0
 10
98.856
 11
98.941
 20
33.732
 21
33.9
  0
LINE
  8
0
 10
98.941
 11
99.044
 20
33.9
 21
34.058
  0
LINE
  8
0
 10
99.044
 11
99.162
 20
34.058
 21
34.204
  0
LINE
  8
0
 10
99.162
 11
99.296
 20
34.204
 21
34.338
  0
LINE
  8
0
 10
99.296
 11
99.442
 20
34.338
 21
34.456
  0
LINE
  8
0
 10
99.442
 11
99.6
 20
34.456
 21
34.559
  0
LINE
  8
0
 10
99.6
 11
99.768
 20
34.559
 21
34.644
  0
LINE
  8
0
 10
99.768
 11
99.944
 20
34.644
 21
34.712
  0
LINE
  8
0
 10
99.944
 11
100.126
 20
34.712
 21
34.761
  0
LINE
  8
0
 10
100.126
 11
100.312
 20
34.761
 21
34.79
  0
LINE
  8
0
 10
100.312
 11
100.5
 20
34.79
 21
34.8
  0
LINE
  8
0
 10
100.5
 11
100.688
 20
34.8
 21
34.79
  0
LINE
  8
0
 10
100.688
 11
100.874
 20
34.79
 21
34.761
  0
LINE
  8
0
 10
100.874
 11
101.056
 20
34.761
 21
34.712
  0
LINE
  8
0
 10
101.056
 11
101.232
 20
34.712
 21
34.644
  0
LINE
  8
0
 10
101.232
 11
101.4
 20
34.644
 21
34.559
  0
LINE
  8
0
 10
101.4
 11
101.558
 20
34.559
 21
34.456
  0
LINE
  8
0
 10
101.558
 11
101.704
 20
34.456
 21
34.338
  0
LINE
  8
0
 10
101.704
 11
101.838
 20
34.338
 21
34.204
  0
LINE
  8
0
 10
101.838
 11
101.956
 20
34.204
 21
34.058
  0
LINE
  8
0
 10
101.956
 11
102.059
 20
34.058
 21
33.9
  0
LINE
  8
0
 10
102.059
 11
102.144
 20
33.9
 21
33.732
  0
LINE
  8
0
 10
102.144
 11
102.212
 20
33.732
 21
33.556
  0
LINE
  8
0
 10
102.212
 11
102.261
 20
33.556
 21
33.374
  0
LINE
  8
0
 10
102.261
 11
102.29
 20
33.374
 21
33.188
  0
LINE
  8
0
 10
102.29
 11
102.3
 20
33.188
 21
33
  0
LINE
  8
0
 10
102.3
 11
102.29
 20
33
 21
32.812
  0
LINE
  8
0
 10
102.29
 11
102.261
 20
32.812
 21
32.626
  0
LINE
  8
0
 10
102.261
 11
102.212
 20
32.626
 21
32.444
  0
LINE
  8
0
 10
102.212
 11
102.144
 20
32.444
 21
32.268
  0
LINE
  8
0
 10
102.144
 11
102.059
 20
32.268
 21
32.1
  0
LINE
  8
0
 10
102.059
 11
101.956
 20
32.1
 21
31.942
  0
LINE
  8
0
 10
101.956
 11
101.838
 20
31.942
 21
31.796
  0
LINE
  8
0
 10
101.838
 11
101.704
 20
31.796
 21
31.662
  0
LINE
  8
0
 10
101.704
 11
101.558
 20
31.662
 21
31.544
  0
LINE
  8
0
 10
101.558
 11
101.4
 20
31.544
 21
31.441
  0
LINE
  8
0
 10
101.4
 11
101.232
 20
31.441
 21
31.356
  0
LINE
  8
0
 10
101.232
 11
101.056
 20
31.356
 21
31.288
  0
LINE
  8
0
 10
101.056
 11
100.874
 20
31.288
 21
31.239
  0
LINE
  8
0
 10
100.874
 11
100.688
 20
31.239
 21
31.21
  0
LINE
  8
0
 10
100.688
 11
100.5
 20
31.21
 21
31.2
  0
LINE
  8
0
 10
100.5
 11
100.312
 20
31.2
 21
31.21
  0
LINE
  8
0
 10
100.312
 11
100.126
 20
31.21
 21
31.239
  0
LINE
  8
0
 10
100.126
 11
99.944
 20
31.239
 21
31.288
  0
LINE
  8
0
 10
99.944
 11
99.768
 20
31.288
 21
31.356
  0
LINE
  8
0
 10
99.768
 11
99.6
 20
31.356
 21
31.441
  0
LINE
  8
0
 10
99.6
 11
99.442
 20
31.441
 21
31.544
  0
LINE
  8
0
 10
99.442
 11
99.296
 20
31.544
 21
31.662
  0
LINE
  8
0
 10
99.296
 11
99.162
 20
31.662
 21
31.796
  0
LINE
  8
0
 10
99.162
 11
99.044
 20
31.796
 21
31.942
  0
LINE
  8
0
 10
99.044
 11
98.941
 20
31.942
 21
32.1
  0
LINE
  8
0
 10
98.941
 11
98.856
 20
32.1
 21
32.268
  0
LINE
  8
0
 10
98.856
 11
98.788
 20
32.268
 21
32.444
  0
LINE
  8
0
 10
98.788
 11
98.739
 20
32.444
 21
32.626
  0
LINE
  8
0
 10
98.739
 11
98.71
 20
32.626
 21
32.812
  0
LINE
  8
0
 10
98.71
 11
98.7
 20
32.812
 21
33
  0
LINE
  8
0
 10
98.7
 11
98.71
 20
55
 21
55.188
  0
LINE
  8
0
 10
98.71
 11
98.739
 20
55.188
 21
55.374
  0
LINE
  8
0
 10
98.739
 11
98.788
 20
55.374
 21
55.556
  0
LINE
  8
0
 10
98.788
 11
98.856
 20
55.556
 21
55.732
  0
LINE
  8
0
 10
98.856
 11
98.941
 20
55.732
 21
55.9
  0
LINE
  8
0
 10
98.941
 11
99.044
 20
55.9
 21
56.058
  0
LINE
  8
0
 10
99.044
 11
99.162
 20
56.058
 21
56.204
  0
LINE
  8
0
 10
99.162
 11
99.296
 20
56.204
 21
56.338
  0
LINE
  8
0
 10
99.296
 11
99.442
 20
56.338
 21
56.456
  0
LINE
  8
0
 10
99.442
 11
99.6
 20
56.456
 21
56.559
  0
LINE
  8
0
 10
99.6
 11
99.768
 20
56.559
 21
56.644
  0
LINE
  8
0
 10
99.768
 11
99.944
 20
56.644
 21
56.712
  0
LINE
  8
0
 10
99.944
 11
100.126
 20
56.712
 21
56.761
  0
LINE
  8
0
 10
100.126
 11
100.312
 20
56.761
 21
56.79
  0
LINE
  8
0
 10
100.312
 11
100.5
 20
56.79
 21
56.8
  0
LINE
  8
0
 10
100.5
 11
100.688
 20
56.8
 21
56.79
  0
LINE
  8
0
 10
100.688
 11
100.874
 20
56.79
 21
56.761
  0
LINE
  8
0
 10
100.874
 11
101.056
 20
56.761
 21
56.712
  0
LINE
  8
0
 10
101.056
 11
101.232
 20
56.712
 21
56.644
  0
LINE
  8
0
 10
101.232
 11
101.4
 20
56.644
 21
56.559
  0
LINE
  8
0
 10
101.4
 11
101.558
 20
56.559
 21
56.456
  0
LINE
  8
0
 10
101.558
 11
101.704
 20
56.456
 21
56.338
  0
LINE
  8
0
 10
101.704
 11
101.838
 20
56.338
 21
56.204
  0
LINE
  8
0
 10
101.838
 11
101.956
 20
56.204
 21
56.058
  0
LINE
  8
0
 10
101.956
 11
102.059
 20
56.058
 21
55.9
  0
LINE
  8
0
 10
102.059
 11
102.144
 20
55.9
 21
55.732
  0
LINE
  8
0
 10
102.144
 11
102.212
 20
55.732
 21
55.556
  0
LINE
  8
0
 10
102.212
 11
102.261
 20
55.556
 21
55.374
  0
LINE
  8
0
 10
102.261
 11
102.29
 20
55.374
 21
55.188
  0
LINE
  8
0
 10
102.29
 11
102.3
 20
55.188
 21
55
  0
LINE
  8
0
 10
102.3
 11
102.29
 20
55
 21
54.812
  0
LINE
  8
0
 10
102.29
 11
102.261
 20
54.812
 21
54.626
  0
LINE
  8
0
 10
102.261
 11
102.212
 20
54.626
 21
54.444
  0
LINE
  8
0
 10
102.212
 11
102.144
 20
54.444
 21
54.268
  0
LINE
  8
0
 10
102.144
 11
102.059
 20
54.268
 21
54.1
  0
LINE
  8
0
 10
102.059
 11
101.956
 20
54.1
 21
53.942
  0
LINE
  8
0
 10
101.956
 11
101.838
 20
53.942
 21
53.796
  0
LINE
  8
0
 10
101.838
 11
101.704
 20
53.796
 21
53.662
  0
LINE
  8
0
 10
101.704
 11
101.558
 20
53.662
 21
53.544
  0
LINE
  8
0
 10
101.558
 11
101.4
 20
53.544
 21
53.441
  0
LINE
  8
0
 10
101.4
 11
101.232
 20
53.441
 21
53.356
  0
LINE
  8
0
 10
101.232
 11
101.056
 20
53.356
 21
53.288
  0
LINE
  8
0
 10
101.056
 11
100.874
 20
53.288
 21
53.239
  0
LINE
  8
0
 10
100.874
 11
100.688
 20
53.239
 21
53.21
  0
LINE
  8
0
 10
100.688
 11
100.5
 20
53.21
 21
53.2
  0
LINE
  8
0
 10
100.5
 11
100.312
 20
53.2
 21
53.21
  0
LINE
  8
0
 10
100.312
 11
100.126
 20
53.21
 21
53.239
  0
LINE
  8
0
 10
100.126
 11
99.944
 20
53.239
 21
53.288
  0
LINE
  8
0
 10
99.944
 11
99.768
 20
53.288
 21
53.356
  0
LINE
  8
0
 10
99.768
 11
99.6
 20
53.356
 21
53.441
  0
LINE
  8
0
 10
99.6
 11
99.442
 20
53.441
 21
53.544
  0
LINE
  8
0
 10
99.442
 11
99.296
 20
53.544
 21
53.662
  0
LINE
  8
0
 10
99.296
 11
99.162
 20
53.662
 21
53.796
  0
LINE
  8
0
 10
99.162
 11
99.044
 20
53.796
 21
53.942
  0
LINE
  8
0
 10
99.044
 11
98.941
 20
53.942
 21
54.1
  0
LINE
  8
0
 10
98.941
 11
98.856
 20
54.1
 21
54.268
  0
LINE
  8
0
 10
98.856
 11
98.788
 20
54.268
 21
54.444
  0
LINE
  8
0
 10
98.788
 11
98.739
 20
54.444
 21
54.626
  0
LINE
  8
0
 10
98.739
 11
98.71
 20
54.626
 21
54.812
  0
LINE
  8
0
 10
98.71
 11
98.7
 20
54.812
 21
55
  0
ENDSEC
  0
SECTION
  2
OBJECTS
  0
DICTIONARY
  0
ENDSEC
  0
EOF
