  0
SECTION
  2
BLOCKS
  0
ENDSEC
  0
SECTION
  2
ENTITIES
  0
LINE
  8
0
 10
5.65
 11
5.674
 20
32.2
 21
32.655
  0
LINE
  8
0
 10
5.674
 11
5.745
 20
32.655
 21
33.104
  0
LINE
  8
0
 10
5.745
 11
5.863
 20
33.104
 21
33.544
  0
LINE
  8
0
 10
5.863
 11
6.026
 20
33.544
 21
33.969
  0
LINE
  8
0
 10
6.026
 11
6.233
 20
33.969
 21
34.375
  0
LINE
  8
0
 10
6.233
 11
6.481
 20
34.375
 21
34.757
  0
LINE
  8
0
 10
6.481
 11
6.767
 20
34.757
 21
35.111
  0
LINE
  8
0
 10
6.767
 11
7.089
 20
35.111
 21
35.433
  0
LINE
  8
0
 10
7.089
 11
7.443
 20
35.433
 21
35.719
  0
LINE
  8
0
 10
7.443
 11
7.825
 20
35.719
 21
35.967
  0
LINE
  8
0
 10
7.825
 11
8.231
 20
35.967
 21
36.174
  0
LINE
  8
0
 10
8.231
 11
8.656
 20
36.174
 21
36.337
  0
LINE
  8
0
 10
8.656
 11
9.096
 20
36.337
 21
36.455
  0
LINE
  8
0
 10
9.096
 11
9.545
 20
36.455
 21
36.526
  0
LINE
  8
0
 10
9.545
 11
10
 20
36.526
 21
36.55
  0
LINE
  8
0
 10
10
 11
10.455
 20
36.55
 21
36.526
  0
LINE
  8
0
 10
10.455
 11
10.904
 20
36.526
 21
36.455
  0
LINE
  8
0
 10
10.904
 11
11.344
 20
36.455
 21
36.337
  0
LINE
  8
0
 10
11.344
 11
11.769
 20
36.337
 21
36.174
  0
LINE
  8
0
 10
11.769
 11
12.175
 20
36.174
 21
35.967
  0
LINE
  8
0
 10
12.175
 11
12.557
 20
35.967
 21
35.719
  0
LINE
  8
0
 10
12.557
 11
12.911
 20
35.719
 21
35.433
  0
LINE
  8
0
 10
12.911
 11
13.233
 20
35.433
 21
35.111
  0
LINE
  8
0
 10
13.233
 11
13.519
 20
35.111
 21
34.757
  0
LINE
  8
0
 10
13.519
 11
13.767
 20
34.757
 21
34.375
  0
LINE
  8
0
 10
13.767
 11
13.974
 20
34.375
 21
33.969
  0
LINE
  8
0
 10
13.974
 11
14.137
 20
33.969
 21
33.544
  0
LINE
  8
0
 10
14.137
 11
14.255
 20
33.544
 21
33.104
  0
LINE
  8
0
 10
14.255
 11
14.326
 20
33.104
 21
32.655
  0
LINE
  8
0
 10
14.326
 11
14.35
 20
32.655
 21
32.2
  0
LINE
  8
0
 10
14.35
 11
14.326
 20
32.2
 21
31.745
  0
LINE
  8
0
 10
14.326
 11
14.255
 20
31.745
 21
31.296
  0
LINE
  8
0
 10
14.255
 11
14.137
 20
31.296
 21
30.856
  0
LINE
  8
0
 10
14.137
 11
13.974
 20
30.856
 21
30.431
  0
LINE
  8
0
 10
13.974
 11
13.767
 20
30.431
 21
30.025
  0
LINE
  8
0
 10
13.767
 11
13.519
 20
30.025
 21
29.643
  0
LINE
  8
0
 10
13.519
 11
13.233
 20
29.643
 21
29.289
  0
LINE
  8
0
 10
13.233
 11
12.911
 20
29.289
 21
28.967
  0
LINE
  8
0
 10
12.911
 11
12.557
 20
28.967
 21
28.681
  0
LINE
  8
0
 10
12.557
 11
12.175
 20
28.681
 21
28.433
  0
LINE
  8
0
 10
12.175
 11
11.769
 20
28.433
 21
28.226
  0
LINE
  8
0
 10
11.769
 11
11.344
 20
28.226
 21
28.063
  0
LINE
  8
0
 10
11.344
 11
10.904
 20
28.063
 21
27.945
  0
LINE
  8
0
 10
10.904
 11
10.455
 20
27.945
 21
27.874
  0
LINE
  8
0
 10
10.455
 11
10
 20
27.874
 21
27.85
  0
LINE
  8
0
 10
10
 11
9.545
 20
27.85
 21
27.874
  0
LINE
  8
0
 10
9.545
 11
9.096
 20
27.874
 21
27.945
  0
LINE
  8
0
 10
9.096
 11
8.656
 20
27.945
 21
28.063
  0
LINE
  8
0
 10
8.656
 11
8.231
 20
28.063
 21
28.226
  0
LINE
  8
0
 10
8.231
 11
7.825
 20
28.226
 21
28.433
  0
LINE
  8
0
 10
7.825
 11
7.443
 20
28.433
 21
28.681
  0
LINE
  8
0
 10
7.443
 11
7.089
 20
28.681
 21
28.967
  0
LINE
  8
0
 10
7.089
 11
6.767
 20
28.967
 21
29.289
  0
LINE
  8
0
 10
6.767
 11
6.481
 20
29.289
 21
29.643
  0
LINE
  8
0
 10
6.481
 11
6.233
 20
29.643
 21
30.025
  0
LINE
  8
0
 10
6.233
 11
6.026
 20
30.025
 21
30.431
  0
LINE
  8
0
 10
6.026
 11
5.863
 20
30.431
 21
30.856
  0
LINE
  8
0
 10
5.863
 11
5.745
 20
30.856
 21
31.296
  0
LINE
  8
0
 10
5.745
 11
5.674
 20
31.296
 21
31.745
  0
LINE
  8
0
 10
5.674
 11
5.65
 20
31.745
 21
32.2
  0
LINE
  8
0
 10
13.2
 11
13.21
 20
15
 21
15.188
  0
LINE
  8
0
 10
13.21
 11
13.239
 20
15.188
 21
15.374
  0
LINE
  8
0
 10
13.239
 11
13.288
 20
15.374
 21
15.556
  0
LINE
  8
0
 10
13.288
 11
13.356
 20
15.556
 21
15.732
  0
LINE
  8
0
 10
13.356
 11
13.441
 20
15.732
 21
15.9
  0
LINE
  8
0
 10
13.441
 11
13.544
 20
15.9
 21
16.058
  0
LINE
  8
0
 10
13.544
 11
13.662
 20
16.058
 21
16.204
  0
LINE
  8
0
 10
13.662
 11
13.796
 20
16.204
 21
16.338
  0
LINE
  8
0
 10
13.796
 11
13.942
 20
16.338
 21
16.456
  0
LINE
  8
0
 10
13.942
 11
14.1
 20
16.456
 21
16.559
  0
LINE
  8
0
 10
14.1
 11
14.268
 20
16.559
 21
16.644
  0
LINE
  8
0
 10
14.268
 11
14.444
 20
16.644
 21
16.712
  0
LINE
  8
0
 10
14.444
 11
14.626
 20
16.712
 21
16.761
  0
LINE
  8
0
 10
14.626
 11
14.812
 20
16.761
 21
16.79
  0
LINE
  8
0
 10
14.812
 11
15
 20
16.79
 21
16.8
  0
LINE
  8
0
 10
15
 11
15.188
 20
16.8
 21
16.79
  0
LINE
  8
0
 10
15.188
 11
15.374
 20
16.79
 21
16.761
  0
LINE
  8
0
 10
15.374
 11
15.556
 20
16.761
 21
16.712
  0
LINE
  8
0
 10
15.556
 11
15.732
 20
16.712
 21
16.644
  0
LINE
  8
0
 10
15.732
 11
15.9
 20
16.644
 21
16.559
  0
LINE
  8
0
 10
15.9
 11
16.058
 20
16.559
 21
16.456
  0
LINE
  8
0
 10
16.058
 11
16.204
 20
16.456
 21
16.338
  0
LINE
  8
0
 10
16.204
 11
16.338
 20
16.338
 21
16.204
  0
LINE
  8
0
 10
16.338
 11
16.456
 20
16.204
 21
16.058
  0
LINE
  8
0
 10
16.456
 11
16.559
 20
16.058
 21
15.9
  0
LINE
  8
0
 10
16.559
 11
16.644
 20
15.9
 21
15.732
  0
LINE
  8
0
 10
16.644
 11
16.712
 20
15.732
 21
15.556
  0
LINE
  8
0
 10
16.712
 11
16.761
 20
15.556
 21
15.374
  0
LINE
  8
0
 10
16.761
 11
16.79
 20
15.374
 21
15.188
  0
LINE
  8
0
 10
16.79
 11
16.8
 20
15.188
 21
15
  0
LINE
  8
0
 10
16.8
 11
16.79
 20
15
 21
14.812
  0
LINE
  8
0
 10
16.79
 11
16.761
 20
14.812
 21
14.626
  0
LINE
  8
0
 10
16.761
 11
16.712
 20
14.626
 21
14.444
  0
LINE
  8
0
 10
16.712
 11
16.644
 20
14.444
 21
14.268
  0
LINE
  8
0
 10
16.644
 11
16.559
 20
14.268
 21
14.1
  0
LINE
  8
0
 10
16.559
 11
16.456
 20
14.1
 21
13.942
  0
LINE
  8
0
 10
16.456
 11
16.338
 20
13.942
 21
13.796
  0
LINE
  8
0
 10
16.338
 11
16.204
 20
13.796
 21
13.662
  0
LINE
  8
0
 10
16.204
 11
16.058
 20
13.662
 21
13.544
  0
LINE
  8
0
 10
16.058
 11
15.9
 20
13.544
 21
13.441
  0
LINE
  8
0
 10
15.9
 11
15.732
 20
13.441
 21
13.356
  0
LINE
  8
0
 10
15.732
 11
15.556
 20
13.356
 21
13.288
  0
LINE
  8
0
 10
15.556
 11
15.374
 20
13.288
 21
13.239
  0
LINE
  8
0
 10
15.374
 11
15.188
 20
13.239
 21
13.21
  0
LINE
  8
0
 10
15.188
 11
15
 20
13.21
 21
13.2
  0
LINE
  8
0
 10
15
 11
14.812
 20
13.2
 21
13.21
  0
LINE
  8
0
 10
14.812
 11
14.626
 20
13.21
 21
13.239
  0
LINE
  8
0
 10
14.626
 11
14.444
 20
13.239
 21
13.288
  0
LINE
  8
0
 10
14.444
 11
14.268
 20
13.288
 21
13.356
  0
LINE
  8
0
 10
14.268
 11
14.1
 20
13.356
 21
13.441
  0
LINE
  8
0
 10
14.1
 11
13.942
 20
13.441
 21
13.544
  0
LINE
  8
0
 10
13.942
 11
13.796
 20
13.544
 21
13.662
  0
LINE
  8
0
 10
13.796
 11
13.662
 20
13.662
 21
13.796
  0
LINE
  8
0
 10
13.662
 11
13.544
 20
13.796
 21
13.942
  0
LINE
  8
0
 10
13.544
 11
13.441
 20
13.942
 21
14.1
  0
LINE
  8
0
 10
13.441
 11
13.356
 20
14.1
 21
14.268
  0
LINE
  8
0
 10
13.356
 11
13.288
 20
14.268
 21
14.444
  0
LINE
  8
0
 10
13.288
 11
13.239
 20
14.444
 21
14.626
  0
LINE
  8
0
 10
13.239
 11
13.21
 20
14.626
 21
14.812
  0
LINE
  8
0
 10
13.21
 11
13.2
 20
14.812
 21
15
  0
LINE
  8
0
 10
23.9
 11
23.91
 20
5.7
 21
5.888
  0
LINE
  8
0
 10
23.91
 11
23.939
 20
5.888
 21
6.074
  0
LINE
  8
0
 10
23.939
 11
23.988
 20
6.074
 21
6.256
  0
LINE
  8
0
 10
23.988
 11
24.056
 20
6.256
 21
6.432
  0
LINE
  8
0
 10
24.056
 11
24.141
 20
6.432
 21
6.6
  0
LINE
  8
0
 10
24.141
 11
24.244
 20
6.6
 21
6.758
  0
LINE
  8
0
 10
24.244
 11
24.362
 20
6.758
 21
6.904
  0
LINE
  8
0
 10
24.362
 11
24.496
 20
6.904
 21
7.038
  0
LINE
  8
0
 10
24.496
 11
24.642
 20
7.038
 21
7.156
  0
LINE
  8
0
 10
24.642
 11
24.8
 20
7.156
 21
7.259
  0
LINE
  8
0
 10
24.8
 11
24.968
 20
7.259
 21
7.344
  0
LINE
  8
0
 10
24.968
 11
25.144
 20
7.344
 21
7.412
  0
LINE
  8
0
 10
25.144
 11
25.326
 20
7.412
 21
7.461
  0
LINE
  8
0
 10
25.326
 11
25.512
 20
7.461
 21
7.49
  0
LINE
  8
0
 10
25.512
 11
25.7
 20
7.49
 21
7.5
  0
LINE
  8
0
 10
25.7
 11
25.888
 20
7.5
 21
7.49
  0
LINE
  8
0
 10
25.888
 11
26.074
 20
7.49
 21
7.461
  0
LINE
  8
0
 10
26.074
 11
26.256
 20
7.461
 21
7.412
  0
LINE
  8
0
 10
26.256
 11
26.432
 20
7.412
 21
7.344
  0
LINE
  8
0
 10
26.432
 11
26.6
 20
7.344
 21
7.259
  0
LINE
  8
0
 10
26.6
 11
26.758
 20
7.259
 21
7.156
  0
LINE
  8
0
 10
26.758
 11
26.904
 20
7.156
 21
7.038
  0
LINE
  8
0
 10
26.904
 11
27.038
 20
7.038
 21
6.904
  0
LINE
  8
0
 10
27.038
 11
27.156
 20
6.904
 21
6.758
  0
LINE
  8
0
 10
27.156
 11
27.259
 20
6.758
 21
6.6
  0
LINE
  8
0
 10
27.259
 11
27.344
 20
6.6
 21
6.432
  0
LINE
  8
0
 10
27.344
 11
27.412
 20
6.432
 21
6.256
  0
LINE
  8
0
 10
27.412
 11
27.461
 20
6.256
 21
6.074
  0
LINE
  8
0
 10
27.461
 11
27.49
 20
6.074
 21
5.888
  0
LINE
  8
0
 10
27.49
 11
27.5
 20
5.888
 21
5.7
  0
LINE
  8
0
 10
27.5
 11
27.49
 20
5.7
 21
5.512
  0
LINE
  8
0
 10
27.49
 11
27.461
 20
5.512
 21
5.326
  0
LINE
  8
0
 10
27.461
 11
27.412
 20
5.326
 21
5.144
  0
LINE
  8
0
 10
27.412
 11
27.344
 20
5.144
 21
4.968
  0
LINE
  8
0
 10
27.344
 11
27.259
 20
4.968
 21
4.8
  0
LINE
  8
0
 10
27.259
 11
27.156
 20
4.8
 21
4.642
  0
LINE
  8
0
 10
27.156
 11
27.038
 20
4.642
 21
4.496
  0
LINE
  8
0
 10
27.038
 11
26.904
 20
4.496
 21
4.362
  0
LINE
  8
0
 10
26.904
 11
26.758
 20
4.362
 21
4.244
  0
LINE
  8
0
 10
26.758
 11
26.6
 20
4.244
 21
4.141
  0
LINE
  8
0
 10
26.6
 11
26.432
 20
4.141
 21
4.056
  0
LINE
  8
0
 10
26.432
 11
26.256
 20
4.056
 21
3.988
  0
LINE
  8
0
 10
26.256
 11
26.074
 20
3.988
 21
3.939
  0
LINE
  8
0
 10
26.074
 11
25.888
 20
3.939
 21
3.91
  0
LINE
  8
0
 10
25.888
 11
25.7
 20
3.91
 21
3.9
  0
LINE
  8
0
 10
25.7
 11
25.512
 20
3.9
 21
3.91
  0
LINE
  8
0
 10
25.512
 11
25.326
 20
3.91
 21
3.939
  0
LINE
  8
0
 10
25.326
 11
25.144
 20
3.939
 21
3.988
  0
LINE
  8
0
 10
25.144
 11
24.968
 20
3.988
 21
4.056
  0
LINE
  8
0
 10
24.968
 11
24.8
 20
4.056
 21
4.141
  0
LINE
  8
0
 10
24.8
 11
24.642
 20
4.141
 21
4.244
  0
LINE
  8
0
 10
24.642
 11
24.496
 20
4.244
 21
4.362
  0
LINE
  8
0
 10
24.496
 11
24.362
 20
4.362
 21
4.496
  0
LINE
  8
0
 10
24.362
 11
24.244
 20
4.496
 21
4.642
  0
LINE
  8
0
 10
24.244
 11
24.141
 20
4.642
 21
4.8
  0
LINE
  8
0
 10
24.141
 11
24.056
 20
4.8
 21
4.968
  0
LINE
  8
0
 10
24.056
 11
23.988
 20
4.968
 21
5.144
  0
LINE
  8
0
 10
23.988
 11
23.939
 20
5.144
 21
5.326
  0
LINE
  8
0
 10
23.939
 11
23.91
 20
5.326
 21
5.512
  0
LINE
  8
0
 10
23.91
 11
23.9
 20
5.512
 21
5.7
  0
LINE
  8
0
 10
23.9
 11
23.91
 20
36.7
 21
36.888
  0
LINE
  8
0
 10
23.91
 11
23.939
 20
36.888
 21
37.074
  0
LINE
  8
0
 10
23.939
 11
23.988
 20
37.074
 21
37.256
  0
LINE
  8
0
 10
23.988
 11
24.056
 20
37.256
 21
37.432
  0
LINE
  8
0
 10
24.056
 11
24.141
 20
37.432
 21
37.6
  0
LINE
  8
0
 10
24.141
 11
24.244
 20
37.6
 21
37.758
  0
LINE
  8
0
 10
24.244
 11
24.362
 20
37.758
 21
37.904
  0
LINE
  8
0
 10
24.362
 11
24.496
 20
37.904
 21
38.038
  0
LINE
  8
0
 10
24.496
 11
24.642
 20
38.038
 21
38.156
  0
LINE
  8
0
 10
24.642
 11
24.8
 20
38.156
 21
38.259
  0
LINE
  8
0
 10
24.8
 11
24.968
 20
38.259
 21
38.344
  0
LINE
  8
0
 10
24.968
 11
25.144
 20
38.344
 21
38.412
  0
LINE
  8
0
 10
25.144
 11
25.326
 20
38.412
 21
38.461
  0
LINE
  8
0
 10
25.326
 11
25.512
 20
38.461
 21
38.49
  0
LINE
  8
0
 10
25.512
 11
25.7
 20
38.49
 21
38.5
  0
LINE
  8
0
 10
25.7
 11
25.888
 20
38.5
 21
38.49
  0
LINE
  8
0
 10
25.888
 11
26.074
 20
38.49
 21
38.461
  0
LINE
  8
0
 10
26.074
 11
26.256
 20
38.461
 21
38.412
  0
LINE
  8
0
 10
26.256
 11
26.432
 20
38.412
 21
38.344
  0
LINE
  8
0
 10
26.432
 11
26.6
 20
38.344
 21
38.259
  0
LINE
  8
0
 10
26.6
 11
26.758
 20
38.259
 21
38.156
  0
LINE
  8
0
 10
26.758
 11
26.904
 20
38.156
 21
38.038
  0
LINE
  8
0
 10
26.904
 11
27.038
 20
38.038
 21
37.904
  0
LINE
  8
0
 10
27.038
 11
27.156
 20
37.904
 21
37.758
  0
LINE
  8
0
 10
27.156
 11
27.259
 20
37.758
 21
37.6
  0
LINE
  8
0
 10
27.259
 11
27.344
 20
37.6
 21
37.432
  0
LINE
  8
0
 10
27.344
 11
27.412
 20
37.432
 21
37.256
  0
LINE
  8
0
 10
27.412
 11
27.461
 20
37.256
 21
37.074
  0
LINE
  8
0
 10
27.461
 11
27.49
 20
37.074
 21
36.888
  0
LINE
  8
0
 10
27.49
 11
27.5
 20
36.888
 21
36.7
  0
LINE
  8
0
 10
27.5
 11
27.49
 20
36.7
 21
36.512
  0
LINE
  8
0
 10
27.49
 11
27.461
 20
36.512
 21
36.326
  0
LINE
  8
0
 10
27.461
 11
27.412
 20
36.326
 21
36.144
  0
LINE
  8
0
 10
27.412
 11
27.344
 20
36.144
 21
35.968
  0
LINE
  8
0
 10
27.344
 11
27.259
 20
35.968
 21
35.8
  0
LINE
  8
0
 10
27.259
 11
27.156
 20
35.8
 21
35.642
  0
LINE
  8
0
 10
27.156
 11
27.038
 20
35.642
 21
35.496
  0
LINE
  8
0
 10
27.038
 11
26.904
 20
35.496
 21
35.362
  0
LINE
  8
0
 10
26.904
 11
26.758
 20
35.362
 21
35.244
  0
LINE
  8
0
 10
26.758
 11
26.6
 20
35.244
 21
35.141
  0
LINE
  8
0
 10
26.6
 11
26.432
 20
35.141
 21
35.056
  0
LINE
  8
0
 10
26.432
 11
26.256
 20
35.056
 21
34.988
  0
LINE
  8
0
 10
26.256
 11
26.074
 20
34.988
 21
34.939
  0
LINE
  8
0
 10
26.074
 11
25.888
 20
34.939
 21
34.91
  0
LINE
  8
0
 10
25.888
 11
25.7
 20
34.91
 21
34.9
  0
LINE
  8
0
 10
25.7
 11
25.512
 20
34.9
 21
34.91
  0
LINE
  8
0
 10
25.512
 11
25.326
 20
34.91
 21
34.939
  0
LINE
  8
0
 10
25.326
 11
25.144
 20
34.939
 21
34.988
  0
LINE
  8
0
 10
25.144
 11
24.968
 20
34.988
 21
35.056
  0
LINE
  8
0
 10
24.968
 11
24.8
 20
35.056
 21
35.141
  0
LINE
  8
0
 10
24.8
 11
24.642
 20
35.141
 21
35.244
  0
LINE
  8
0
 10
24.642
 11
24.496
 20
35.244
 21
35.362
  0
LINE
  8
0
 10
24.496
 11
24.362
 20
35.362
 21
35.496
  0
LINE
  8
0
 10
24.362
 11
24.244
 20
35.496
 21
35.642
  0
LINE
  8
0
 10
24.244
 11
24.141
 20
35.642
 21
35.8
  0
LINE
  8
0
 10
24.141
 11
24.056
 20
35.8
 21
35.968
  0
LINE
  8
0
 10
24.056
 11
23.988
 20
35.968
 21
36.144
  0
LINE
  8
0
 10
23.988
 11
23.939
 20
36.144
 21
36.326
  0
LINE
  8
0
 10
23.939
 11
23.91
 20
36.326
 21
36.512
  0
LINE
  8
0
 10
23.91
 11
23.9
 20
36.512
 21
36.7
  0
LINE
  8
0
 10
28.2
 11
28.271
 20
21.2
 21
22.559
  0
LINE
  8
0
 10
28.271
 11
28.484
 20
22.559
 21
23.903
  0
LINE
  8
0
 10
28.484
 11
28.836
 20
23.903
 21
25.217
  0
LINE
  8
0
 10
28.836
 11
29.324
 20
25.217
 21
26.488
  0
LINE
  8
0
 10
29.324
 11
29.942
 20
26.488
 21
27.7
  0
LINE
  8
0
 10
29.942
 11
30.683
 20
27.7
 21
28.841
  0
LINE
  8
0
 10
30.683
 11
31.539
 20
28.841
 21
29.899
  0
LINE
  8
0
 10
31.539
 11
32.501
 20
29.899
 21
30.861
  0
LINE
  8
0
 10
32.501
 11
33.559
 20
30.861
 21
31.717
  0
LINE
  8
0
 10
33.559
 11
34.7
 20
31.717
 21
32.458
  0
LINE
  8
0
 10
34.7
 11
35.912
 20
32.458
 21
33.076
  0
LINE
  8
0
 10
35.912
 11
37.183
 20
33.076
 21
33.564
  0
LINE
  8
0
 10
37.183
 11
38.497
 20
33.564
 21
33.916
  0
LINE
  8
0
 10
38.497
 11
39.841
 20
33.916
 21
34.129
  0
LINE
  8
0
 10
39.841
 11
41.2
 20
34.129
 21
34.2
  0
LINE
  8
0
 10
41.2
 11
42.559
 20
34.2
 21
34.129
  0
LINE
  8
0
 10
42.559
 11
43.903
 20
34.129
 21
33.916
  0
LINE
  8
0
 10
43.903
 11
45.217
 20
33.916
 21
33.564
  0
LINE
  8
0
 10
45.217
 11
46.488
 20
33.564
 21
33.076
  0
LINE
  8
0
 10
46.488
 11
47.7
 20
33.076
 21
32.458
  0
LINE
  8
0
 10
47.7
 11
48.841
 20
32.458
 21
31.717
  0
LINE
  8
0
 10
48.841
 11
49.899
 20
31.717
 21
30.861
  0
LINE
  8
0
 10
49.899
 11
50.861
 20
30.861
 21
29.899
  0
LINE
  8
0
 10
50.861
 11
51.717
 20
29.899
 21
28.841
  0
LINE
  8
0
 10
51.717
 11
52.458
 20
28.841
 21
27.7
  0
LINE
  8
0
 10
52.458
 11
53.076
 20
27.7
 21
26.488
  0
LINE
  8
0
 10
53.076
 11
53.564
 20
26.488
 21
25.217
  0
LINE
  8
0
 10
53.564
 11
53.916
 20
25.217
 21
23.903
  0
LINE
  8
0
 10
53.916
 11
54.129
 20
23.903
 21
22.559
  0
LINE
  8
0
 10
54.129
 11
54.2
 20
22.559
 21
21.2
  0
LINE
  8
0
 10
54.2
 11
54.129
 20
21.2
 21
19.841
  0
LINE
  8
0
 10
54.129
 11
53.916
 20
19.841
 21
18.497
  0
LINE
  8
0
 10
53.916
 11
53.564
 20
18.497
 21
17.183
  0
LINE
  8
0
 10
53.564
 11
53.076
 20
17.183
 21
15.912
  0
LINE
  8
0
 10
53.076
 11
52.458
 20
15.912
 21
14.7
  0
LINE
  8
0
 10
52.458
 11
51.717
 20
14.7
 21
13.559
  0
LINE
  8
0
 10
51.717
 11
50.861
 20
13.559
 21
12.501
  0
LINE
  8
0
 10
50.861
 11
49.899
 20
12.501
 21
11.539
  0
LINE
  8
0
 10
49.899
 11
48.841
 20
11.539
 21
10.683
  0
LINE
  8
0
 10
48.841
 11
47.7
 20
10.683
 21
9.942
  0
LINE
  8
0
 10
47.7
 11
46.488
 20
9.942
 21
9.324
  0
LINE
  8
0
 10
46.488
 11
45.217
 20
9.324
 21
8.836
  0
LINE
  8
0
 10
45.217
 11
43.903
 20
8.836
 21
8.484
  0
LINE
  8
0
 10
43.903
 11
42.559
 20
8.484
 21
8.271
  0
LINE
  8
0
 10
42.559
 11
41.2
 20
8.271
 21
8.2
  0
LINE
  8
0
 10
41.2
 11
39.841
 20
8.2
 21
8.271
  0
LINE
  8
0
 10
39.841
 11
38.497
 20
8.271
 21
8.484
  0
LINE
  8
0
 10
38.497
 11
37.183
 20
8.484
 21
8.836
  0
LINE
  8
0
 10
37.183
 11
35.912
 20
8.836
 21
9.324
  0
LINE
  8
0
 10
35.912
 11
34.7
 20
9.324
 21
9.942
  0
LINE
  8
0
 10
34.7
 11
33.559
 20
9.942
 21
10.683
  0
LINE
  8
0
 10
33.559
 11
32.501
 20
10.683
 21
11.539
  0
LINE
  8
0
 10
32.501
 11
31.539
 20
11.539
 21
12.501
  0
LINE
  8
0
 10
31.539
 11
30.683
 20
12.501
 21
13.559
  0
LINE
  8
0
 10
30.683
 11
29.942
 20
13.559
 21
14.7
  0
LINE
  8
0
 10
29.942
 11
29.324
 20
14.7
 21
15.912
  0
LINE
  8
0
 10
29.324
 11
28.836
 20
15.912
 21
17.183
  0
LINE
  8
0
 10
28.836
 11
28.484
 20
17.183
 21
18.497
  0
LINE
  8
0
 10
28.484
 11
28.271
 20
18.497
 21
19.841
  0
LINE
  8
0
 10
28.271
 11
28.2
 20
19.841
 21
21.2
  0
LINE
  8
0
 10
0
 11
0
 20
-5
 21
37.4
  0
LINE
  8
0
 10
0
 11
0.059
 20
37.4
 21
37.4
  0
LINE
  8
0
 10
0.059
 11
0.02
 20
37.4
 21
38.028
  0
LINE
  8
0
 10
0.02
 11
0.489
 20
38.028
 21
40.49
  0
LINE
  8
0
 10
0.489
 11
1.557
 20
40.49
 21
42.758
  0
LINE
  8
0
 10
1.557
 11
3.155
 20
42.758
 21
44.69
  0
LINE
  8
0
 10
3.155
 11
5.182
 20
44.69
 21
46.163
  0
LINE
  8
0
 10
5.182
 11
7.513
 20
46.163
 21
47.086
  0
LINE
  8
0
 10
7.513
 11
9.95
 20
47.086
 21
47.394
  0
LINE
  8
0
 10
9.95
 11
9.95
 20
47.394
 21
47.4
  0
LINE
  8
0
 10
9.95
 11
72.4
 20
47.4
 21
47.4
  0
LINE
  8
0
 10
72.4
 11
72.4
 20
47.4
 21
47.341
  0
LINE
  8
0
 10
72.4
 11
73.028
 20
47.341
 21
47.38
  0
LINE
  8
0
 10
73.028
 11
75.49
 20
47.38
 21
46.911
  0
LINE
  8
0
 10
75.49
 11
77.758
 20
46.911
 21
45.843
  0
LINE
  8
0
 10
77.758
 11
79.69
 20
45.843
 21
44.245
  0
LINE
  8
0
 10
79.69
 11
81.163
 20
44.245
 21
42.218
  0
LINE
  8
0
 10
81.163
 11
82.086
 20
42.218
 21
39.887
  0
LINE
  8
0
 10
82.086
 11
82.394
 20
39.887
 21
37.45
  0
LINE
  8
0
 10
82.394
 11
82.4
 20
37.45
 21
37.45
  0
LINE
  8
0
 10
82.4
 11
82.4
 20
37.45
 21
10
  0
LINE
  8
0
 10
82.4
 11
82.341
 20
10
 21
10
  0
LINE
  8
0
 10
82.341
 11
82.38
 20
10
 21
9.372
  0
LINE
  8
0
 10
82.38
 11
81.911
 20
9.372
 21
6.91
  0
LINE
  8
0
 10
81.911
 11
80.843
 20
6.91
 21
4.642
  0
LINE
  8
0
 10
80.843
 11
79.245
 20
4.642
 21
2.71
  0
LINE
  8
0
 10
79.245
 11
77.218
 20
2.71
 21
1.237
  0
LINE
  8
0
 10
77.218
 11
74.887
 20
1.237
 21
0.314
  0
LINE
  8
0
 10
74.887
 11
72.45
 20
0.314
 21
0.006
  0
LINE
  8
0
 10
72.45
 11
72.45
 20
0.006
 21
0
  0
LINE
  8
0
 10
72.45
 11
68
 20
0
 21
0
  0
LINE
  8
0
 10
68
 11
68
 20
0
 21
8.5
  0
LINE
  8
0
 10
68
 11
69.25
 20
8.5
 21
8.5
  0
LINE
  8
0
 10
69.25
 11
69.25
 20
8.5
 21
11.5
  0
LINE
  8
0
 10
69.25
 11
68
 20
11.5
 21
11.5
  0
LINE
  8
0
 10
68
 11
68
 20
11.5
 21
15.5
  0
LINE
  8
0
 10
68
 11
64.4
 20
15.5
 21
15.5
  0
LINE
  8
0
 10
64.4
 11
64.4
 20
15.5
 21
11.5
  0
LINE
  8
0
 10
64.4
 11
63.15
 20
11.5
 21
11.5
  0
LINE
  8
0
 10
63.15
 11
63.15
 20
11.5
 21
8.5
  0
LINE
  8
0
 10
63.15
 11
64.4
 20
8.5
 21
8.5
  0
LINE
  8
0
 10
64.4
 11
64.4
 20
8.5
 21
0
  0
LINE
  8
0
 10
64.4
 11
50
 20
0
 21
0
  0
LINE
  8
0
 10
50
 11
50
 20
0
 21
-5
  0
LINE
  8
0
 10
50
 11
40
 20
-5
 21
-5
  0
LINE
  8
0
 10
40
 11
40
 20
-5
 21
0
  0
LINE
  8
0
 10
40
 11
10
 20
0
 21
0
  0
LINE
  8
0
 10
10
 11
10
 20
0
 21
-5
  0
LINE
  8
0
 10
10
 11
0
 20
-5
 21
-5
  0
LINE
  8
0
 10
54.9
 11
54.91
 20
5.7
 21
5.888
  0
LINE
  8
0
 10
54.91
 11
54.939
 20
5.888
 21
6.074
  0
LINE
  8
0
 10
54.939
 11
54.988
 20
6.074
 21
6.256
  0
LINE
  8
0
 10
54.988
 11
55.056
 20
6.256
 21
6.432
  0
LINE
  8
0
 10
55.056
 11
55.141
 20
6.432
 21
6.6
  0
LINE
  8
0
 10
55.141
 11
55.244
 20
6.6
 21
6.758
  0
LINE
  8
0
 10
55.244
 11
55.362
 20
6.758
 21
6.904
  0
LINE
  8
0
 10
55.362
 11
55.496
 20
6.904
 21
7.038
  0
LINE
  8
0
 10
55.496
 11
55.642
 20
7.038
 21
7.156
  0
LINE
  8
0
 10
55.642
 11
55.8
 20
7.156
 21
7.259
  0
LINE
  8
0
 10
55.8
 11
55.968
 20
7.259
 21
7.344
  0
LINE
  8
0
 10
55.968
 11
56.144
 20
7.344
 21
7.412
  0
LINE
  8
0
 10
56.144
 11
56.326
 20
7.412
 21
7.461
  0
LINE
  8
0
 10
56.326
 11
56.512
 20
7.461
 21
7.49
  0
LINE
  8
0
 10
56.512
 11
56.7
 20
7.49
 21
7.5
  0
LINE
  8
0
 10
56.7
 11
56.888
 20
7.5
 21
7.49
  0
LINE
  8
0
 10
56.888
 11
57.074
 20
7.49
 21
7.461
  0
LINE
  8
0
 10
57.074
 11
57.256
 20
7.461
 21
7.412
  0
LINE
  8
0
 10
57.256
 11
57.432
 20
7.412
 21
7.344
  0
LINE
  8
0
 10
57.432
 11
57.6
 20
7.344
 21
7.259
  0
LINE
  8
0
 10
57.6
 11
57.758
 20
7.259
 21
7.156
  0
LINE
  8
0
 10
57.758
 11
57.904
 20
7.156
 21
7.038
  0
LINE
  8
0
 10
57.904
 11
58.038
 20
7.038
 21
6.904
  0
LINE
  8
0
 10
58.038
 11
58.156
 20
6.904
 21
6.758
  0
LINE
  8
0
 10
58.156
 11
58.259
 20
6.758
 21
6.6
  0
LINE
  8
0
 10
58.259
 11
58.344
 20
6.6
 21
6.432
  0
LINE
  8
0
 10
58.344
 11
58.412
 20
6.432
 21
6.256
  0
LINE
  8
0
 10
58.412
 11
58.461
 20
6.256
 21
6.074
  0
LINE
  8
0
 10
58.461
 11
58.49
 20
6.074
 21
5.888
  0
LINE
  8
0
 10
58.49
 11
58.5
 20
5.888
 21
5.7
  0
LINE
  8
0
 10
58.5
 11
58.49
 20
5.7
 21
5.512
  0
LINE
  8
0
 10
58.49
 11
58.461
 20
5.512
 21
5.326
  0
LINE
  8
0
 10
58.461
 11
58.412
 20
5.326
 21
5.144
  0
LINE
  8
0
 10
58.412
 11
58.344
 20
5.144
 21
4.968
  0
LINE
  8
0
 10
58.344
 11
58.259
 20
4.968
 21
4.8
  0
LINE
  8
0
 10
58.259
 11
58.156
 20
4.8
 21
4.642
  0
LINE
  8
0
 10
58.156
 11
58.038
 20
4.642
 21
4.496
  0
LINE
  8
0
 10
58.038
 11
57.904
 20
4.496
 21
4.362
  0
LINE
  8
0
 10
57.904
 11
57.758
 20
4.362
 21
4.244
  0
LINE
  8
0
 10
57.758
 11
57.6
 20
4.244
 21
4.141
  0
LINE
  8
0
 10
57.6
 11
57.432
 20
4.141
 21
4.056
  0
LINE
  8
0
 10
57.432
 11
57.256
 20
4.056
 21
3.988
  0
LINE
  8
0
 10
57.256
 11
57.074
 20
3.988
 21
3.939
  0
LINE
  8
0
 10
57.074
 11
56.888
 20
3.939
 21
3.91
  0
LINE
  8
0
 10
56.888
 11
56.7
 20
3.91
 21
3.9
  0
LINE
  8
0
 10
56.7
 11
56.512
 20
3.9
 21
3.91
  0
LINE
  8
0
 10
56.512
 11
56.326
 20
3.91
 21
3.939
  0
LINE
  8
0
 10
56.326
 11
56.144
 20
3.939
 21
3.988
  0
LINE
  8
0
 10
56.144
 11
55.968
 20
3.988
 21
4.056
  0
LINE
  8
0
 10
55.968
 11
55.8
 20
4.056
 21
4.141
  0
LINE
  8
0
 10
55.8
 11
55.642
 20
4.141
 21
4.244
  0
LINE
  8
0
 10
55.642
 11
55.496
 20
4.244
 21
4.362
  0
LINE
  8
0
 10
55.496
 11
55.362
 20
4.362
 21
4.496
  0
LINE
  8
0
 10
55.362
 11
55.244
 20
4.496
 21
4.642
  0
LINE
  8
0
 10
55.244
 11
55.141
 20
4.642
 21
4.8
  0
LINE
  8
0
 10
55.141
 11
55.056
 20
4.8
 21
4.968
  0
LINE
  8
0
 10
55.056
 11
54.988
 20
4.968
 21
5.144
  0
LINE
  8
0
 10
54.988
 11
54.939
 20
5.144
 21
5.326
  0
LINE
  8
0
 10
54.939
 11
54.91
 20
5.326
 21
5.512
  0
LINE
  8
0
 10
54.91
 11
54.9
 20
5.512
 21
5.7
  0
LINE
  8
0
 10
54.9
 11
54.91
 20
36.7
 21
36.888
  0
LINE
  8
0
 10
54.91
 11
54.939
 20
36.888
 21
37.074
  0
LINE
  8
0
 10
54.939
 11
54.988
 20
37.074
 21
37.256
  0
LINE
  8
0
 10
54.988
 11
55.056
 20
37.256
 21
37.432
  0
LINE
  8
0
 10
55.056
 11
55.141
 20
37.432
 21
37.6
  0
LINE
  8
0
 10
55.141
 11
55.244
 20
37.6
 21
37.758
  0
LINE
  8
0
 10
55.244
 11
55.362
 20
37.758
 21
37.904
  0
LINE
  8
0
 10
55.362
 11
55.496
 20
37.904
 21
38.038
  0
LINE
  8
0
 10
55.496
 11
55.642
 20
38.038
 21
38.156
  0
LINE
  8
0
 10
55.642
 11
55.8
 20
38.156
 21
38.259
  0
LINE
  8
0
 10
55.8
 11
55.968
 20
38.259
 21
38.344
  0
LINE
  8
0
 10
55.968
 11
56.144
 20
38.344
 21
38.412
  0
LINE
  8
0
 10
56.144
 11
56.326
 20
38.412
 21
38.461
  0
LINE
  8
0
 10
56.326
 11
56.512
 20
38.461
 21
38.49
  0
LINE
  8
0
 10
56.512
 11
56.7
 20
38.49
 21
38.5
  0
LINE
  8
0
 10
56.7
 11
56.888
 20
38.5
 21
38.49
  0
LINE
  8
0
 10
56.888
 11
57.074
 20
38.49
 21
38.461
  0
LINE
  8
0
 10
57.074
 11
57.256
 20
38.461
 21
38.412
  0
LINE
  8
0
 10
57.256
 11
57.432
 20
38.412
 21
38.344
  0
LINE
  8
0
 10
57.432
 11
57.6
 20
38.344
 21
38.259
  0
LINE
  8
0
 10
57.6
 11
57.758
 20
38.259
 21
38.156
  0
LINE
  8
0
 10
57.758
 11
57.904
 20
38.156
 21
38.038
  0
LINE
  8
0
 10
57.904
 11
58.038
 20
38.038
 21
37.904
  0
LINE
  8
0
 10
58.038
 11
58.156
 20
37.904
 21
37.758
  0
LINE
  8
0
 10
58.156
 11
58.259
 20
37.758
 21
37.6
  0
LINE
  8
0
 10
58.259
 11
58.344
 20
37.6
 21
37.432
  0
LINE
  8
0
 10
58.344
 11
58.412
 20
37.432
 21
37.256
  0
LINE
  8
0
 10
58.412
 11
58.461
 20
37.256
 21
37.074
  0
LINE
  8
0
 10
58.461
 11
58.49
 20
37.074
 21
36.888
  0
LINE
  8
0
 10
58.49
 11
58.5
 20
36.888
 21
36.7
  0
LINE
  8
0
 10
58.5
 11
58.49
 20
36.7
 21
36.512
  0
LINE
  8
0
 10
58.49
 11
58.461
 20
36.512
 21
36.326
  0
LINE
  8
0
 10
58.461
 11
58.412
 20
36.326
 21
36.144
  0
LINE
  8
0
 10
58.412
 11
58.344
 20
36.144
 21
35.968
  0
LINE
  8
0
 10
58.344
 11
58.259
 20
35.968
 21
35.8
  0
LINE
  8
0
 10
58.259
 11
58.156
 20
35.8
 21
35.642
  0
LINE
  8
0
 10
58.156
 11
58.038
 20
35.642
 21
35.496
  0
LINE
  8
0
 10
58.038
 11
57.904
 20
35.496
 21
35.362
  0
LINE
  8
0
 10
57.904
 11
57.758
 20
35.362
 21
35.244
  0
LINE
  8
0
 10
57.758
 11
57.6
 20
35.244
 21
35.141
  0
LINE
  8
0
 10
57.6
 11
57.432
 20
35.141
 21
35.056
  0
LINE
  8
0
 10
57.432
 11
57.256
 20
35.056
 21
34.988
  0
LINE
  8
0
 10
57.256
 11
57.074
 20
34.988
 21
34.939
  0
LINE
  8
0
 10
57.074
 11
56.888
 20
34.939
 21
34.91
  0
LINE
  8
0
 10
56.888
 11
56.7
 20
34.91
 21
34.9
  0
LINE
  8
0
 10
56.7
 11
56.512
 20
34.9
 21
34.91
  0
LINE
  8
0
 10
56.512
 11
56.326
 20
34.91
 21
34.939
  0
LINE
  8
0
 10
56.326
 11
56.144
 20
34.939
 21
34.988
  0
LINE
  8
0
 10
56.144
 11
55.968
 20
34.988
 21
35.056
  0
LINE
  8
0
 10
55.968
 11
55.8
 20
35.056
 21
35.141
  0
LINE
  8
0
 10
55.8
 11
55.642
 20
35.141
 21
35.244
  0
LINE
  8
0
 10
55.642
 11
55.496
 20
35.244
 21
35.362
  0
LINE
  8
0
 10
55.496
 11
55.362
 20
35.362
 21
35.496
  0
LINE
  8
0
 10
55.362
 11
55.244
 20
35.496
 21
35.642
  0
LINE
  8
0
 10
55.244
 11
55.141
 20
35.642
 21
35.8
  0
LINE
  8
0
 10
55.141
 11
55.056
 20
35.8
 21
35.968
  0
LINE
  8
0
 10
55.056
 11
54.988
 20
35.968
 21
36.144
  0
LINE
  8
0
 10
54.988
 11
54.939
 20
36.144
 21
36.326
  0
LINE
  8
0
 10
54.939
 11
54.91
 20
36.326
 21
36.512
  0
LINE
  8
0
 10
54.91
 11
54.9
 20
36.512
 21
36.7
  0
ENDSEC
  0
SECTION
  2
OBJECTS
  0
DICTIONARY
  0
ENDSEC
  0
EOF
