  0
SECTION
  2
BLOCKS
  0
ENDSEC
  0
SECTION
  2
ENTITIES
  0
LINE
  8
0
 10
18.15
 11
18.174
 20
20
 21
20.455
  0
LINE
  8
0
 10
18.174
 11
18.245
 20
20.455
 21
20.904
  0
LINE
  8
0
 10
18.245
 11
18.363
 20
20.904
 21
21.344
  0
LINE
  8
0
 10
18.363
 11
18.526
 20
21.344
 21
21.769
  0
LINE
  8
0
 10
18.526
 11
18.733
 20
21.769
 21
22.175
  0
LINE
  8
0
 10
18.733
 11
18.981
 20
22.175
 21
22.557
  0
LINE
  8
0
 10
18.981
 11
19.267
 20
22.557
 21
22.911
  0
LINE
  8
0
 10
19.267
 11
19.589
 20
22.911
 21
23.233
  0
LINE
  8
0
 10
19.589
 11
19.943
 20
23.233
 21
23.519
  0
LINE
  8
0
 10
19.943
 11
20.325
 20
23.519
 21
23.767
  0
LINE
  8
0
 10
20.325
 11
20.731
 20
23.767
 21
23.974
  0
LINE
  8
0
 10
20.731
 11
21.156
 20
23.974
 21
24.137
  0
LINE
  8
0
 10
21.156
 11
21.596
 20
24.137
 21
24.255
  0
LINE
  8
0
 10
21.596
 11
22.045
 20
24.255
 21
24.326
  0
LINE
  8
0
 10
22.045
 11
22.5
 20
24.326
 21
24.35
  0
LINE
  8
0
 10
22.5
 11
37.5
 20
24.35
 21
24.35
  0
LINE
  8
0
 10
37.5
 11
37.955
 20
24.35
 21
24.326
  0
LINE
  8
0
 10
37.955
 11
38.404
 20
24.326
 21
24.255
  0
LINE
  8
0
 10
38.404
 11
38.844
 20
24.255
 21
24.137
  0
LINE
  8
0
 10
38.844
 11
39.269
 20
24.137
 21
23.974
  0
LINE
  8
0
 10
39.269
 11
39.675
 20
23.974
 21
23.767
  0
LINE
  8
0
 10
39.675
 11
40.057
 20
23.767
 21
23.519
  0
LINE
  8
0
 10
40.057
 11
40.411
 20
23.519
 21
23.233
  0
LINE
  8
0
 10
40.411
 11
40.733
 20
23.233
 21
22.911
  0
LINE
  8
0
 10
40.733
 11
41.019
 20
22.911
 21
22.557
  0
LINE
  8
0
 10
41.019
 11
41.267
 20
22.557
 21
22.175
  0
LINE
  8
0
 10
41.267
 11
41.474
 20
22.175
 21
21.769
  0
LINE
  8
0
 10
41.474
 11
41.637
 20
21.769
 21
21.344
  0
LINE
  8
0
 10
41.637
 11
41.755
 20
21.344
 21
20.904
  0
LINE
  8
0
 10
41.755
 11
41.826
 20
20.904
 21
20.455
  0
LINE
  8
0
 10
41.826
 11
41.85
 20
20.455
 21
20
  0
LINE
  8
0
 10
41.85
 11
41.826
 20
20
 21
19.545
  0
LINE
  8
0
 10
41.826
 11
41.755
 20
19.545
 21
19.096
  0
LINE
  8
0
 10
41.755
 11
41.637
 20
19.096
 21
18.656
  0
LINE
  8
0
 10
41.637
 11
41.474
 20
18.656
 21
18.231
  0
LINE
  8
0
 10
41.474
 11
41.267
 20
18.231
 21
17.825
  0
LINE
  8
0
 10
41.267
 11
41.019
 20
17.825
 21
17.443
  0
LINE
  8
0
 10
41.019
 11
40.733
 20
17.443
 21
17.089
  0
LINE
  8
0
 10
40.733
 11
40.411
 20
17.089
 21
16.767
  0
LINE
  8
0
 10
40.411
 11
40.057
 20
16.767
 21
16.481
  0
LINE
  8
0
 10
40.057
 11
39.675
 20
16.481
 21
16.233
  0
LINE
  8
0
 10
39.675
 11
39.269
 20
16.233
 21
16.026
  0
LINE
  8
0
 10
39.269
 11
38.844
 20
16.026
 21
15.863
  0
LINE
  8
0
 10
38.844
 11
38.404
 20
15.863
 21
15.745
  0
LINE
  8
0
 10
38.404
 11
37.955
 20
15.745
 21
15.674
  0
LINE
  8
0
 10
37.955
 11
37.5
 20
15.674
 21
15.65
  0
LINE
  8
0
 10
37.5
 11
22.5
 20
15.65
 21
15.65
  0
LINE
  8
0
 10
22.5
 11
22.045
 20
15.65
 21
15.674
  0
LINE
  8
0
 10
22.045
 11
21.596
 20
15.674
 21
15.745
  0
LINE
  8
0
 10
21.596
 11
21.156
 20
15.745
 21
15.863
  0
LINE
  8
0
 10
21.156
 11
20.731
 20
15.863
 21
16.026
  0
LINE
  8
0
 10
20.731
 11
20.325
 20
16.026
 21
16.233
  0
LINE
  8
0
 10
20.325
 11
19.943
 20
16.233
 21
16.481
  0
LINE
  8
0
 10
19.943
 11
19.589
 20
16.481
 21
16.767
  0
LINE
  8
0
 10
19.589
 11
19.267
 20
16.767
 21
17.089
  0
LINE
  8
0
 10
19.267
 11
18.981
 20
17.089
 21
17.443
  0
LINE
  8
0
 10
18.981
 11
18.733
 20
17.443
 21
17.825
  0
LINE
  8
0
 10
18.733
 11
18.526
 20
17.825
 21
18.231
  0
LINE
  8
0
 10
18.526
 11
18.363
 20
18.231
 21
18.656
  0
LINE
  8
0
 10
18.363
 11
18.245
 20
18.656
 21
19.096
  0
LINE
  8
0
 10
18.245
 11
18.174
 20
19.096
 21
19.545
  0
LINE
  8
0
 10
18.174
 11
18.15
 20
19.545
 21
20
  0
LINE
  8
0
 10
0
 11
0
 20
0
 21
30
  0
LINE
  8
0
 10
0
 11
0.059
 20
30
 21
30
  0
LINE
  8
0
 10
0.059
 11
0.02
 20
30
 21
30.628
  0
LINE
  8
0
 10
0.02
 11
0.489
 20
30.628
 21
33.09
  0
LINE
  8
0
 10
0.489
 11
1.557
 20
33.09
 21
35.358
  0
LINE
  8
0
 10
1.557
 11
3.155
 20
35.358
 21
37.29
  0
LINE
  8
0
 10
3.155
 11
5.182
 20
37.29
 21
38.763
  0
LINE
  8
0
 10
5.182
 11
7.513
 20
38.763
 21
39.686
  0
LINE
  8
0
 10
7.513
 11
9.95
 20
39.686
 21
39.994
  0
LINE
  8
0
 10
9.95
 11
9.95
 20
39.994
 21
40
  0
LINE
  8
0
 10
9.95
 11
50
 20
40
 21
40
  0
LINE
  8
0
 10
50
 11
50
 20
40
 21
39.941
  0
LINE
  8
0
 10
50
 11
50.628
 20
39.941
 21
39.98
  0
LINE
  8
0
 10
50.628
 11
53.09
 20
39.98
 21
39.511
  0
LINE
  8
0
 10
53.09
 11
55.358
 20
39.511
 21
38.443
  0
LINE
  8
0
 10
55.358
 11
57.29
 20
38.443
 21
36.845
  0
LINE
  8
0
 10
57.29
 11
58.763
 20
36.845
 21
34.818
  0
LINE
  8
0
 10
58.763
 11
59.686
 20
34.818
 21
32.487
  0
LINE
  8
0
 10
59.686
 11
59.994
 20
32.487
 21
30.05
  0
LINE
  8
0
 10
59.994
 11
60
 20
30.05
 21
30.05
  0
LINE
  8
0
 10
60
 11
60
 20
30.05
 21
0
  0
LINE
  8
0
 10
60
 11
55
 20
0
 21
0
  0
LINE
  8
0
 10
55
 11
55
 20
0
 21
-5
  0
LINE
  8
0
 10
55
 11
45
 20
-5
 21
-5
  0
LINE
  8
0
 10
45
 11
45
 20
-5
 21
0
  0
LINE
  8
0
 10
45
 11
31.8
 20
0
 21
0
  0
LINE
  8
0
 10
31.8
 11
31.8
 20
0
 21
5.5
  0
LINE
  8
0
 10
31.8
 11
33.05
 20
5.5
 21
5.5
  0
LINE
  8
0
 10
33.05
 11
33.05
 20
5.5
 21
8.5
  0
LINE
  8
0
 10
33.05
 11
31.8
 20
8.5
 21
8.5
  0
LINE
  8
0
 10
31.8
 11
31.8
 20
8.5
 21
12.5
  0
LINE
  8
0
 10
31.8
 11
28.2
 20
12.5
 21
12.5
  0
LINE
  8
0
 10
28.2
 11
28.2
 20
12.5
 21
8.5
  0
LINE
  8
0
 10
28.2
 11
26.95
 20
8.5
 21
8.5
  0
LINE
  8
0
 10
26.95
 11
26.95
 20
8.5
 21
5.5
  0
LINE
  8
0
 10
26.95
 11
28.2
 20
5.5
 21
5.5
  0
LINE
  8
0
 10
28.2
 11
28.2
 20
5.5
 21
0
  0
LINE
  8
0
 10
28.2
 11
15
 20
0
 21
0
  0
LINE
  8
0
 10
15
 11
15
 20
0
 21
-5
  0
LINE
  8
0
 10
15
 11
5
 20
-5
 21
-5
  0
LINE
  8
0
 10
5
 11
5
 20
-5
 21
0
  0
LINE
  8
0
 10
5
 11
0
 20
0
 21
0
  0
LINE
  8
0
 10
48.2
 11
48.21
 20
15
 21
15.188
  0
LINE
  8
0
 10
48.21
 11
48.239
 20
15.188
 21
15.374
  0
LINE
  8
0
 10
48.239
 11
48.288
 20
15.374
 21
15.556
  0
LINE
  8
0
 10
48.288
 11
48.356
 20
15.556
 21
15.732
  0
LINE
  8
0
 10
48.356
 11
48.441
 20
15.732
 21
15.9
  0
LINE
  8
0
 10
48.441
 11
48.544
 20
15.9
 21
16.058
  0
LINE
  8
0
 10
48.544
 11
48.662
 20
16.058
 21
16.204
  0
LINE
  8
0
 10
48.662
 11
48.796
 20
16.204
 21
16.338
  0
LINE
  8
0
 10
48.796
 11
48.942
 20
16.338
 21
16.456
  0
LINE
  8
0
 10
48.942
 11
49.1
 20
16.456
 21
16.559
  0
LINE
  8
0
 10
49.1
 11
49.268
 20
16.559
 21
16.644
  0
LINE
  8
0
 10
49.268
 11
49.444
 20
16.644
 21
16.712
  0
LINE
  8
0
 10
49.444
 11
49.626
 20
16.712
 21
16.761
  0
LINE
  8
0
 10
49.626
 11
49.812
 20
16.761
 21
16.79
  0
LINE
  8
0
 10
49.812
 11
50
 20
16.79
 21
16.8
  0
LINE
  8
0
 10
50
 11
50.188
 20
16.8
 21
16.79
  0
LINE
  8
0
 10
50.188
 11
50.374
 20
16.79
 21
16.761
  0
LINE
  8
0
 10
50.374
 11
50.556
 20
16.761
 21
16.712
  0
LINE
  8
0
 10
50.556
 11
50.732
 20
16.712
 21
16.644
  0
LINE
  8
0
 10
50.732
 11
50.9
 20
16.644
 21
16.559
  0
LINE
  8
0
 10
50.9
 11
51.058
 20
16.559
 21
16.456
  0
LINE
  8
0
 10
51.058
 11
51.204
 20
16.456
 21
16.338
  0
LINE
  8
0
 10
51.204
 11
51.338
 20
16.338
 21
16.204
  0
LINE
  8
0
 10
51.338
 11
51.456
 20
16.204
 21
16.058
  0
LINE
  8
0
 10
51.456
 11
51.559
 20
16.058
 21
15.9
  0
LINE
  8
0
 10
51.559
 11
51.644
 20
15.9
 21
15.732
  0
LINE
  8
0
 10
51.644
 11
51.712
 20
15.732
 21
15.556
  0
LINE
  8
0
 10
51.712
 11
51.761
 20
15.556
 21
15.374
  0
LINE
  8
0
 10
51.761
 11
51.79
 20
15.374
 21
15.188
  0
LINE
  8
0
 10
51.79
 11
51.8
 20
15.188
 21
15
  0
LINE
  8
0
 10
51.8
 11
51.79
 20
15
 21
14.812
  0
LINE
  8
0
 10
51.79
 11
51.761
 20
14.812
 21
14.626
  0
LINE
  8
0
 10
51.761
 11
51.712
 20
14.626
 21
14.444
  0
LINE
  8
0
 10
51.712
 11
51.644
 20
14.444
 21
14.268
  0
LINE
  8
0
 10
51.644
 11
51.559
 20
14.268
 21
14.1
  0
LINE
  8
0
 10
51.559
 11
51.456
 20
14.1
 21
13.942
  0
LINE
  8
0
 10
51.456
 11
51.338
 20
13.942
 21
13.796
  0
LINE
  8
0
 10
51.338
 11
51.204
 20
13.796
 21
13.662
  0
LINE
  8
0
 10
51.204
 11
51.058
 20
13.662
 21
13.544
  0
LINE
  8
0
 10
51.058
 11
50.9
 20
13.544
 21
13.441
  0
LINE
  8
0
 10
50.9
 11
50.732
 20
13.441
 21
13.356
  0
LINE
  8
0
 10
50.732
 11
50.556
 20
13.356
 21
13.288
  0
LINE
  8
0
 10
50.556
 11
50.374
 20
13.288
 21
13.239
  0
LINE
  8
0
 10
50.374
 11
50.188
 20
13.239
 21
13.21
  0
LINE
  8
0
 10
50.188
 11
50
 20
13.21
 21
13.2
  0
LINE
  8
0
 10
50
 11
49.812
 20
13.2
 21
13.21
  0
LINE
  8
0
 10
49.812
 11
49.626
 20
13.21
 21
13.239
  0
LINE
  8
0
 10
49.626
 11
49.444
 20
13.239
 21
13.288
  0
LINE
  8
0
 10
49.444
 11
49.268
 20
13.288
 21
13.356
  0
LINE
  8
0
 10
49.268
 11
49.1
 20
13.356
 21
13.441
  0
LINE
  8
0
 10
49.1
 11
48.942
 20
13.441
 21
13.544
  0
LINE
  8
0
 10
48.942
 11
48.796
 20
13.544
 21
13.662
  0
LINE
  8
0
 10
48.796
 11
48.662
 20
13.662
 21
13.796
  0
LINE
  8
0
 10
48.662
 11
48.544
 20
13.796
 21
13.942
  0
LINE
  8
0
 10
48.544
 11
48.441
 20
13.942
 21
14.1
  0
LINE
  8
0
 10
48.441
 11
48.356
 20
14.1
 21
14.268
  0
LINE
  8
0
 10
48.356
 11
48.288
 20
14.268
 21
14.444
  0
LINE
  8
0
 10
48.288
 11
48.239
 20
14.444
 21
14.626
  0
LINE
  8
0
 10
48.239
 11
48.21
 20
14.626
 21
14.812
  0
LINE
  8
0
 10
48.21
 11
48.2
 20
14.812
 21
15
  0
ENDSEC
  0
SECTION
  2
OBJECTS
  0
DICTIONARY
  0
ENDSEC
  0
EOF
