  0
SECTION
  2
BLOCKS
  0
ENDSEC
  0
SECTION
  2
ENTITIES
  0
LINE
  8
0
 10
0
 11
0
 20
9.95
 21
67.6
  0
LINE
  8
0
 10
0
 11
0.059
 20
67.6
 21
67.6
  0
LINE
  8
0
 10
0.059
 11
0.02
 20
67.6
 21
68.228
  0
LINE
  8
0
 10
0.02
 11
0.489
 20
68.228
 21
70.69
  0
LINE
  8
0
 10
0.489
 11
1.557
 20
70.69
 21
72.958
  0
LINE
  8
0
 10
1.557
 11
3.155
 20
72.958
 21
74.89
  0
LINE
  8
0
 10
3.155
 11
5.182
 20
74.89
 21
76.363
  0
LINE
  8
0
 10
5.182
 11
7.513
 20
76.363
 21
77.286
  0
LINE
  8
0
 10
7.513
 11
9.95
 20
77.286
 21
77.594
  0
LINE
  8
0
 10
9.95
 11
9.95
 20
77.594
 21
77.6
  0
LINE
  8
0
 10
9.95
 11
60
 20
77.6
 21
77.6
  0
LINE
  8
0
 10
60
 11
60
 20
77.6
 21
77.541
  0
LINE
  8
0
 10
60
 11
60.628
 20
77.541
 21
77.58
  0
LINE
  8
0
 10
60.628
 11
63.09
 20
77.58
 21
77.111
  0
LINE
  8
0
 10
63.09
 11
65.358
 20
77.111
 21
76.043
  0
LINE
  8
0
 10
65.358
 11
67.29
 20
76.043
 21
74.445
  0
LINE
  8
0
 10
67.29
 11
68.763
 20
74.445
 21
72.418
  0
LINE
  8
0
 10
68.763
 11
69.686
 20
72.418
 21
70.087
  0
LINE
  8
0
 10
69.686
 11
69.994
 20
70.087
 21
67.65
  0
LINE
  8
0
 10
69.994
 11
70
 20
67.65
 21
67.65
  0
LINE
  8
0
 10
70
 11
70
 20
67.65
 21
10
  0
LINE
  8
0
 10
70
 11
69.941
 20
10
 21
10
  0
LINE
  8
0
 10
69.941
 11
69.98
 20
10
 21
9.372
  0
LINE
  8
0
 10
69.98
 11
69.881
 20
9.372
 21
8.85
  0
LINE
  8
0
 10
69.881
 11
61
 20
8.85
 21
8.85
  0
LINE
  8
0
 10
61
 11
61
 20
8.85
 21
0.126
  0
LINE
  8
0
 10
61
 11
60.05
 20
0.126
 21
0.006
  0
LINE
  8
0
 10
60.05
 11
60.05
 20
0.006
 21
0
  0
LINE
  8
0
 10
60.05
 11
10
 20
0
 21
0
  0
LINE
  8
0
 10
10
 11
10
 20
0
 21
0.059
  0
LINE
  8
0
 10
10
 11
9.372
 20
0.059
 21
0.02
  0
LINE
  8
0
 10
9.372
 11
6.91
 20
0.02
 21
0.489
  0
LINE
  8
0
 10
6.91
 11
4.642
 20
0.489
 21
1.557
  0
LINE
  8
0
 10
4.642
 11
2.71
 20
1.557
 21
3.155
  0
LINE
  8
0
 10
2.71
 11
1.237
 20
3.155
 21
5.182
  0
LINE
  8
0
 10
1.237
 11
0.314
 20
5.182
 21
7.513
  0
LINE
  8
0
 10
0.314
 11
0.006
 20
7.513
 21
9.95
  0
LINE
  8
0
 10
0.006
 11
0
 20
9.95
 21
9.95
  0
LINE
  8
0
 10
15.7
 11
15.71
 20
6.3
 21
6.488
  0
LINE
  8
0
 10
15.71
 11
15.739
 20
6.488
 21
6.674
  0
LINE
  8
0
 10
15.739
 11
15.788
 20
6.674
 21
6.856
  0
LINE
  8
0
 10
15.788
 11
15.856
 20
6.856
 21
7.032
  0
LINE
  8
0
 10
15.856
 11
15.941
 20
7.032
 21
7.2
  0
LINE
  8
0
 10
15.941
 11
16.044
 20
7.2
 21
7.358
  0
LINE
  8
0
 10
16.044
 11
16.162
 20
7.358
 21
7.504
  0
LINE
  8
0
 10
16.162
 11
16.296
 20
7.504
 21
7.638
  0
LINE
  8
0
 10
16.296
 11
16.442
 20
7.638
 21
7.756
  0
LINE
  8
0
 10
16.442
 11
16.6
 20
7.756
 21
7.859
  0
LINE
  8
0
 10
16.6
 11
16.768
 20
7.859
 21
7.944
  0
LINE
  8
0
 10
16.768
 11
16.944
 20
7.944
 21
8.012
  0
LINE
  8
0
 10
16.944
 11
17.126
 20
8.012
 21
8.061
  0
LINE
  8
0
 10
17.126
 11
17.312
 20
8.061
 21
8.09
  0
LINE
  8
0
 10
17.312
 11
17.5
 20
8.09
 21
8.1
  0
LINE
  8
0
 10
17.5
 11
17.688
 20
8.1
 21
8.09
  0
LINE
  8
0
 10
17.688
 11
17.874
 20
8.09
 21
8.061
  0
LINE
  8
0
 10
17.874
 11
18.056
 20
8.061
 21
8.012
  0
LINE
  8
0
 10
18.056
 11
18.232
 20
8.012
 21
7.944
  0
LINE
  8
0
 10
18.232
 11
18.4
 20
7.944
 21
7.859
  0
LINE
  8
0
 10
18.4
 11
18.558
 20
7.859
 21
7.756
  0
LINE
  8
0
 10
18.558
 11
18.704
 20
7.756
 21
7.638
  0
LINE
  8
0
 10
18.704
 11
18.838
 20
7.638
 21
7.504
  0
LINE
  8
0
 10
18.838
 11
18.956
 20
7.504
 21
7.358
  0
LINE
  8
0
 10
18.956
 11
19.059
 20
7.358
 21
7.2
  0
LINE
  8
0
 10
19.059
 11
19.144
 20
7.2
 21
7.032
  0
LINE
  8
0
 10
19.144
 11
19.212
 20
7.032
 21
6.856
  0
LINE
  8
0
 10
19.212
 11
19.261
 20
6.856
 21
6.674
  0
LINE
  8
0
 10
19.261
 11
19.29
 20
6.674
 21
6.488
  0
LINE
  8
0
 10
19.29
 11
19.3
 20
6.488
 21
6.3
  0
LINE
  8
0
 10
19.3
 11
19.29
 20
6.3
 21
6.112
  0
LINE
  8
0
 10
19.29
 11
19.261
 20
6.112
 21
5.926
  0
LINE
  8
0
 10
19.261
 11
19.212
 20
5.926
 21
5.744
  0
LINE
  8
0
 10
19.212
 11
19.144
 20
5.744
 21
5.568
  0
LINE
  8
0
 10
19.144
 11
19.059
 20
5.568
 21
5.4
  0
LINE
  8
0
 10
19.059
 11
18.956
 20
5.4
 21
5.242
  0
LINE
  8
0
 10
18.956
 11
18.838
 20
5.242
 21
5.096
  0
LINE
  8
0
 10
18.838
 11
18.704
 20
5.096
 21
4.962
  0
LINE
  8
0
 10
18.704
 11
18.558
 20
4.962
 21
4.844
  0
LINE
  8
0
 10
18.558
 11
18.4
 20
4.844
 21
4.741
  0
LINE
  8
0
 10
18.4
 11
18.232
 20
4.741
 21
4.656
  0
LINE
  8
0
 10
18.232
 11
18.056
 20
4.656
 21
4.588
  0
LINE
  8
0
 10
18.056
 11
17.874
 20
4.588
 21
4.539
  0
LINE
  8
0
 10
17.874
 11
17.688
 20
4.539
 21
4.51
  0
LINE
  8
0
 10
17.688
 11
17.5
 20
4.51
 21
4.5
  0
LINE
  8
0
 10
17.5
 11
17.312
 20
4.5
 21
4.51
  0
LINE
  8
0
 10
17.312
 11
17.126
 20
4.51
 21
4.539
  0
LINE
  8
0
 10
17.126
 11
16.944
 20
4.539
 21
4.588
  0
LINE
  8
0
 10
16.944
 11
16.768
 20
4.588
 21
4.656
  0
LINE
  8
0
 10
16.768
 11
16.6
 20
4.656
 21
4.741
  0
LINE
  8
0
 10
16.6
 11
16.442
 20
4.741
 21
4.844
  0
LINE
  8
0
 10
16.442
 11
16.296
 20
4.844
 21
4.962
  0
LINE
  8
0
 10
16.296
 11
16.162
 20
4.962
 21
5.096
  0
LINE
  8
0
 10
16.162
 11
16.044
 20
5.096
 21
5.242
  0
LINE
  8
0
 10
16.044
 11
15.941
 20
5.242
 21
5.4
  0
LINE
  8
0
 10
15.941
 11
15.856
 20
5.4
 21
5.568
  0
LINE
  8
0
 10
15.856
 11
15.788
 20
5.568
 21
5.744
  0
LINE
  8
0
 10
15.788
 11
15.739
 20
5.744
 21
5.926
  0
LINE
  8
0
 10
15.739
 11
15.71
 20
5.926
 21
6.112
  0
LINE
  8
0
 10
15.71
 11
15.7
 20
6.112
 21
6.3
  0
LINE
  8
0
 10
15.7
 11
15.71
 20
21.3
 21
21.488
  0
LINE
  8
0
 10
15.71
 11
15.739
 20
21.488
 21
21.674
  0
LINE
  8
0
 10
15.739
 11
15.788
 20
21.674
 21
21.856
  0
LINE
  8
0
 10
15.788
 11
15.856
 20
21.856
 21
22.032
  0
LINE
  8
0
 10
15.856
 11
15.941
 20
22.032
 21
22.2
  0
LINE
  8
0
 10
15.941
 11
16.044
 20
22.2
 21
22.358
  0
LINE
  8
0
 10
16.044
 11
16.162
 20
22.358
 21
22.504
  0
LINE
  8
0
 10
16.162
 11
16.296
 20
22.504
 21
22.638
  0
LINE
  8
0
 10
16.296
 11
16.442
 20
22.638
 21
22.756
  0
LINE
  8
0
 10
16.442
 11
16.6
 20
22.756
 21
22.859
  0
LINE
  8
0
 10
16.6
 11
16.768
 20
22.859
 21
22.944
  0
LINE
  8
0
 10
16.768
 11
16.944
 20
22.944
 21
23.012
  0
LINE
  8
0
 10
16.944
 11
17.126
 20
23.012
 21
23.061
  0
LINE
  8
0
 10
17.126
 11
17.312
 20
23.061
 21
23.09
  0
LINE
  8
0
 10
17.312
 11
17.5
 20
23.09
 21
23.1
  0
LINE
  8
0
 10
17.5
 11
17.688
 20
23.1
 21
23.09
  0
LINE
  8
0
 10
17.688
 11
17.874
 20
23.09
 21
23.061
  0
LINE
  8
0
 10
17.874
 11
18.056
 20
23.061
 21
23.012
  0
LINE
  8
0
 10
18.056
 11
18.232
 20
23.012
 21
22.944
  0
LINE
  8
0
 10
18.232
 11
18.4
 20
22.944
 21
22.859
  0
LINE
  8
0
 10
18.4
 11
18.558
 20
22.859
 21
22.756
  0
LINE
  8
0
 10
18.558
 11
18.704
 20
22.756
 21
22.638
  0
LINE
  8
0
 10
18.704
 11
18.838
 20
22.638
 21
22.504
  0
LINE
  8
0
 10
18.838
 11
18.956
 20
22.504
 21
22.358
  0
LINE
  8
0
 10
18.956
 11
19.059
 20
22.358
 21
22.2
  0
LINE
  8
0
 10
19.059
 11
19.144
 20
22.2
 21
22.032
  0
LINE
  8
0
 10
19.144
 11
19.212
 20
22.032
 21
21.856
  0
LINE
  8
0
 10
19.212
 11
19.261
 20
21.856
 21
21.674
  0
LINE
  8
0
 10
19.261
 11
19.29
 20
21.674
 21
21.488
  0
LINE
  8
0
 10
19.29
 11
19.3
 20
21.488
 21
21.3
  0
LINE
  8
0
 10
19.3
 11
19.29
 20
21.3
 21
21.112
  0
LINE
  8
0
 10
19.29
 11
19.261
 20
21.112
 21
20.926
  0
LINE
  8
0
 10
19.261
 11
19.212
 20
20.926
 21
20.744
  0
LINE
  8
0
 10
19.212
 11
19.144
 20
20.744
 21
20.568
  0
LINE
  8
0
 10
19.144
 11
19.059
 20
20.568
 21
20.4
  0
LINE
  8
0
 10
19.059
 11
18.956
 20
20.4
 21
20.242
  0
LINE
  8
0
 10
18.956
 11
18.838
 20
20.242
 21
20.096
  0
LINE
  8
0
 10
18.838
 11
18.704
 20
20.096
 21
19.962
  0
LINE
  8
0
 10
18.704
 11
18.558
 20
19.962
 21
19.844
  0
LINE
  8
0
 10
18.558
 11
18.4
 20
19.844
 21
19.741
  0
LINE
  8
0
 10
18.4
 11
18.232
 20
19.741
 21
19.656
  0
LINE
  8
0
 10
18.232
 11
18.056
 20
19.656
 21
19.588
  0
LINE
  8
0
 10
18.056
 11
17.874
 20
19.588
 21
19.539
  0
LINE
  8
0
 10
17.874
 11
17.688
 20
19.539
 21
19.51
  0
LINE
  8
0
 10
17.688
 11
17.5
 20
19.51
 21
19.5
  0
LINE
  8
0
 10
17.5
 11
17.312
 20
19.5
 21
19.51
  0
LINE
  8
0
 10
17.312
 11
17.126
 20
19.51
 21
19.539
  0
LINE
  8
0
 10
17.126
 11
16.944
 20
19.539
 21
19.588
  0
LINE
  8
0
 10
16.944
 11
16.768
 20
19.588
 21
19.656
  0
LINE
  8
0
 10
16.768
 11
16.6
 20
19.656
 21
19.741
  0
LINE
  8
0
 10
16.6
 11
16.442
 20
19.741
 21
19.844
  0
LINE
  8
0
 10
16.442
 11
16.296
 20
19.844
 21
19.962
  0
LINE
  8
0
 10
16.296
 11
16.162
 20
19.962
 21
20.096
  0
LINE
  8
0
 10
16.162
 11
16.044
 20
20.096
 21
20.242
  0
LINE
  8
0
 10
16.044
 11
15.941
 20
20.242
 21
20.4
  0
LINE
  8
0
 10
15.941
 11
15.856
 20
20.4
 21
20.568
  0
LINE
  8
0
 10
15.856
 11
15.788
 20
20.568
 21
20.744
  0
LINE
  8
0
 10
15.788
 11
15.739
 20
20.744
 21
20.926
  0
LINE
  8
0
 10
15.739
 11
15.71
 20
20.926
 21
21.112
  0
LINE
  8
0
 10
15.71
 11
15.7
 20
21.112
 21
21.3
  0
LINE
  8
0
 10
15.7
 11
15.71
 20
56.3
 21
56.488
  0
LINE
  8
0
 10
15.71
 11
15.739
 20
56.488
 21
56.674
  0
LINE
  8
0
 10
15.739
 11
15.788
 20
56.674
 21
56.856
  0
LINE
  8
0
 10
15.788
 11
15.856
 20
56.856
 21
57.032
  0
LINE
  8
0
 10
15.856
 11
15.941
 20
57.032
 21
57.2
  0
LINE
  8
0
 10
15.941
 11
16.044
 20
57.2
 21
57.358
  0
LINE
  8
0
 10
16.044
 11
16.162
 20
57.358
 21
57.504
  0
LINE
  8
0
 10
16.162
 11
16.296
 20
57.504
 21
57.638
  0
LINE
  8
0
 10
16.296
 11
16.442
 20
57.638
 21
57.756
  0
LINE
  8
0
 10
16.442
 11
16.6
 20
57.756
 21
57.859
  0
LINE
  8
0
 10
16.6
 11
16.768
 20
57.859
 21
57.944
  0
LINE
  8
0
 10
16.768
 11
16.944
 20
57.944
 21
58.012
  0
LINE
  8
0
 10
16.944
 11
17.126
 20
58.012
 21
58.061
  0
LINE
  8
0
 10
17.126
 11
17.312
 20
58.061
 21
58.09
  0
LINE
  8
0
 10
17.312
 11
17.5
 20
58.09
 21
58.1
  0
LINE
  8
0
 10
17.5
 11
17.688
 20
58.1
 21
58.09
  0
LINE
  8
0
 10
17.688
 11
17.874
 20
58.09
 21
58.061
  0
LINE
  8
0
 10
17.874
 11
18.056
 20
58.061
 21
58.012
  0
LINE
  8
0
 10
18.056
 11
18.232
 20
58.012
 21
57.944
  0
LINE
  8
0
 10
18.232
 11
18.4
 20
57.944
 21
57.859
  0
LINE
  8
0
 10
18.4
 11
18.558
 20
57.859
 21
57.756
  0
LINE
  8
0
 10
18.558
 11
18.704
 20
57.756
 21
57.638
  0
LINE
  8
0
 10
18.704
 11
18.838
 20
57.638
 21
57.504
  0
LINE
  8
0
 10
18.838
 11
18.956
 20
57.504
 21
57.358
  0
LINE
  8
0
 10
18.956
 11
19.059
 20
57.358
 21
57.2
  0
LINE
  8
0
 10
19.059
 11
19.144
 20
57.2
 21
57.032
  0
LINE
  8
0
 10
19.144
 11
19.212
 20
57.032
 21
56.856
  0
LINE
  8
0
 10
19.212
 11
19.261
 20
56.856
 21
56.674
  0
LINE
  8
0
 10
19.261
 11
19.29
 20
56.674
 21
56.488
  0
LINE
  8
0
 10
19.29
 11
19.3
 20
56.488
 21
56.3
  0
LINE
  8
0
 10
19.3
 11
19.29
 20
56.3
 21
56.112
  0
LINE
  8
0
 10
19.29
 11
19.261
 20
56.112
 21
55.926
  0
LINE
  8
0
 10
19.261
 11
19.212
 20
55.926
 21
55.744
  0
LINE
  8
0
 10
19.212
 11
19.144
 20
55.744
 21
55.568
  0
LINE
  8
0
 10
19.144
 11
19.059
 20
55.568
 21
55.4
  0
LINE
  8
0
 10
19.059
 11
18.956
 20
55.4
 21
55.242
  0
LINE
  8
0
 10
18.956
 11
18.838
 20
55.242
 21
55.096
  0
LINE
  8
0
 10
18.838
 11
18.704
 20
55.096
 21
54.962
  0
LINE
  8
0
 10
18.704
 11
18.558
 20
54.962
 21
54.844
  0
LINE
  8
0
 10
18.558
 11
18.4
 20
54.844
 21
54.741
  0
LINE
  8
0
 10
18.4
 11
18.232
 20
54.741
 21
54.656
  0
LINE
  8
0
 10
18.232
 11
18.056
 20
54.656
 21
54.588
  0
LINE
  8
0
 10
18.056
 11
17.874
 20
54.588
 21
54.539
  0
LINE
  8
0
 10
17.874
 11
17.688
 20
54.539
 21
54.51
  0
LINE
  8
0
 10
17.688
 11
17.5
 20
54.51
 21
54.5
  0
LINE
  8
0
 10
17.5
 11
17.312
 20
54.5
 21
54.51
  0
LINE
  8
0
 10
17.312
 11
17.126
 20
54.51
 21
54.539
  0
LINE
  8
0
 10
17.126
 11
16.944
 20
54.539
 21
54.588
  0
LINE
  8
0
 10
16.944
 11
16.768
 20
54.588
 21
54.656
  0
LINE
  8
0
 10
16.768
 11
16.6
 20
54.656
 21
54.741
  0
LINE
  8
0
 10
16.6
 11
16.442
 20
54.741
 21
54.844
  0
LINE
  8
0
 10
16.442
 11
16.296
 20
54.844
 21
54.962
  0
LINE
  8
0
 10
16.296
 11
16.162
 20
54.962
 21
55.096
  0
LINE
  8
0
 10
16.162
 11
16.044
 20
55.096
 21
55.242
  0
LINE
  8
0
 10
16.044
 11
15.941
 20
55.242
 21
55.4
  0
LINE
  8
0
 10
15.941
 11
15.856
 20
55.4
 21
55.568
  0
LINE
  8
0
 10
15.856
 11
15.788
 20
55.568
 21
55.744
  0
LINE
  8
0
 10
15.788
 11
15.739
 20
55.744
 21
55.926
  0
LINE
  8
0
 10
15.739
 11
15.71
 20
55.926
 21
56.112
  0
LINE
  8
0
 10
15.71
 11
15.7
 20
56.112
 21
56.3
  0
LINE
  8
0
 10
15.7
 11
15.71
 20
71.3
 21
71.488
  0
LINE
  8
0
 10
15.71
 11
15.739
 20
71.488
 21
71.674
  0
LINE
  8
0
 10
15.739
 11
15.788
 20
71.674
 21
71.856
  0
LINE
  8
0
 10
15.788
 11
15.856
 20
71.856
 21
72.032
  0
LINE
  8
0
 10
15.856
 11
15.941
 20
72.032
 21
72.2
  0
LINE
  8
0
 10
15.941
 11
16.044
 20
72.2
 21
72.358
  0
LINE
  8
0
 10
16.044
 11
16.162
 20
72.358
 21
72.504
  0
LINE
  8
0
 10
16.162
 11
16.296
 20
72.504
 21
72.638
  0
LINE
  8
0
 10
16.296
 11
16.442
 20
72.638
 21
72.756
  0
LINE
  8
0
 10
16.442
 11
16.6
 20
72.756
 21
72.859
  0
LINE
  8
0
 10
16.6
 11
16.768
 20
72.859
 21
72.944
  0
LINE
  8
0
 10
16.768
 11
16.944
 20
72.944
 21
73.012
  0
LINE
  8
0
 10
16.944
 11
17.126
 20
73.012
 21
73.061
  0
LINE
  8
0
 10
17.126
 11
17.312
 20
73.061
 21
73.09
  0
LINE
  8
0
 10
17.312
 11
17.5
 20
73.09
 21
73.1
  0
LINE
  8
0
 10
17.5
 11
17.688
 20
73.1
 21
73.09
  0
LINE
  8
0
 10
17.688
 11
17.874
 20
73.09
 21
73.061
  0
LINE
  8
0
 10
17.874
 11
18.056
 20
73.061
 21
73.012
  0
LINE
  8
0
 10
18.056
 11
18.232
 20
73.012
 21
72.944
  0
LINE
  8
0
 10
18.232
 11
18.4
 20
72.944
 21
72.859
  0
LINE
  8
0
 10
18.4
 11
18.558
 20
72.859
 21
72.756
  0
LINE
  8
0
 10
18.558
 11
18.704
 20
72.756
 21
72.638
  0
LINE
  8
0
 10
18.704
 11
18.838
 20
72.638
 21
72.504
  0
LINE
  8
0
 10
18.838
 11
18.956
 20
72.504
 21
72.358
  0
LINE
  8
0
 10
18.956
 11
19.059
 20
72.358
 21
72.2
  0
LINE
  8
0
 10
19.059
 11
19.144
 20
72.2
 21
72.032
  0
LINE
  8
0
 10
19.144
 11
19.212
 20
72.032
 21
71.856
  0
LINE
  8
0
 10
19.212
 11
19.261
 20
71.856
 21
71.674
  0
LINE
  8
0
 10
19.261
 11
19.29
 20
71.674
 21
71.488
  0
LINE
  8
0
 10
19.29
 11
19.3
 20
71.488
 21
71.3
  0
LINE
  8
0
 10
19.3
 11
19.29
 20
71.3
 21
71.112
  0
LINE
  8
0
 10
19.29
 11
19.261
 20
71.112
 21
70.926
  0
LINE
  8
0
 10
19.261
 11
19.212
 20
70.926
 21
70.744
  0
LINE
  8
0
 10
19.212
 11
19.144
 20
70.744
 21
70.568
  0
LINE
  8
0
 10
19.144
 11
19.059
 20
70.568
 21
70.4
  0
LINE
  8
0
 10
19.059
 11
18.956
 20
70.4
 21
70.242
  0
LINE
  8
0
 10
18.956
 11
18.838
 20
70.242
 21
70.096
  0
LINE
  8
0
 10
18.838
 11
18.704
 20
70.096
 21
69.962
  0
LINE
  8
0
 10
18.704
 11
18.558
 20
69.962
 21
69.844
  0
LINE
  8
0
 10
18.558
 11
18.4
 20
69.844
 21
69.741
  0
LINE
  8
0
 10
18.4
 11
18.232
 20
69.741
 21
69.656
  0
LINE
  8
0
 10
18.232
 11
18.056
 20
69.656
 21
69.588
  0
LINE
  8
0
 10
18.056
 11
17.874
 20
69.588
 21
69.539
  0
LINE
  8
0
 10
17.874
 11
17.688
 20
69.539
 21
69.51
  0
LINE
  8
0
 10
17.688
 11
17.5
 20
69.51
 21
69.5
  0
LINE
  8
0
 10
17.5
 11
17.312
 20
69.5
 21
69.51
  0
LINE
  8
0
 10
17.312
 11
17.126
 20
69.51
 21
69.539
  0
LINE
  8
0
 10
17.126
 11
16.944
 20
69.539
 21
69.588
  0
LINE
  8
0
 10
16.944
 11
16.768
 20
69.588
 21
69.656
  0
LINE
  8
0
 10
16.768
 11
16.6
 20
69.656
 21
69.741
  0
LINE
  8
0
 10
16.6
 11
16.442
 20
69.741
 21
69.844
  0
LINE
  8
0
 10
16.442
 11
16.296
 20
69.844
 21
69.962
  0
LINE
  8
0
 10
16.296
 11
16.162
 20
69.962
 21
70.096
  0
LINE
  8
0
 10
16.162
 11
16.044
 20
70.096
 21
70.242
  0
LINE
  8
0
 10
16.044
 11
15.941
 20
70.242
 21
70.4
  0
LINE
  8
0
 10
15.941
 11
15.856
 20
70.4
 21
70.568
  0
LINE
  8
0
 10
15.856
 11
15.788
 20
70.568
 21
70.744
  0
LINE
  8
0
 10
15.788
 11
15.739
 20
70.744
 21
70.926
  0
LINE
  8
0
 10
15.739
 11
15.71
 20
70.926
 21
71.112
  0
LINE
  8
0
 10
15.71
 11
15.7
 20
71.112
 21
71.3
  0
LINE
  8
0
 10
25.45
 11
25.475
 20
38.8
 21
39.276
  0
LINE
  8
0
 10
25.475
 11
25.549
 20
39.276
 21
39.746
  0
LINE
  8
0
 10
25.549
 11
25.673
 20
39.746
 21
40.206
  0
LINE
  8
0
 10
25.673
 11
25.843
 20
40.206
 21
40.651
  0
LINE
  8
0
 10
25.843
 11
26.06
 20
40.651
 21
41.075
  0
LINE
  8
0
 10
26.06
 11
26.319
 20
41.075
 21
41.474
  0
LINE
  8
0
 10
26.319
 11
26.619
 20
41.474
 21
41.845
  0
LINE
  8
0
 10
26.619
 11
26.955
 20
41.845
 21
42.181
  0
LINE
  8
0
 10
26.955
 11
27.326
 20
42.181
 21
42.481
  0
LINE
  8
0
 10
27.326
 11
27.725
 20
42.481
 21
42.74
  0
LINE
  8
0
 10
27.725
 11
28.149
 20
42.74
 21
42.957
  0
LINE
  8
0
 10
28.149
 11
28.594
 20
42.957
 21
43.127
  0
LINE
  8
0
 10
28.594
 11
29.054
 20
43.127
 21
43.251
  0
LINE
  8
0
 10
29.054
 11
29.524
 20
43.251
 21
43.325
  0
LINE
  8
0
 10
29.524
 11
30
 20
43.325
 21
43.35
  0
LINE
  8
0
 10
30
 11
30.476
 20
43.35
 21
43.325
  0
LINE
  8
0
 10
30.476
 11
30.946
 20
43.325
 21
43.251
  0
LINE
  8
0
 10
30.946
 11
31.406
 20
43.251
 21
43.127
  0
LINE
  8
0
 10
31.406
 11
31.851
 20
43.127
 21
42.957
  0
LINE
  8
0
 10
31.851
 11
32.275
 20
42.957
 21
42.74
  0
LINE
  8
0
 10
32.275
 11
32.674
 20
42.74
 21
42.481
  0
LINE
  8
0
 10
32.674
 11
33.045
 20
42.481
 21
42.181
  0
LINE
  8
0
 10
33.045
 11
33.381
 20
42.181
 21
41.845
  0
LINE
  8
0
 10
33.381
 11
33.681
 20
41.845
 21
41.474
  0
LINE
  8
0
 10
33.681
 11
33.94
 20
41.474
 21
41.075
  0
LINE
  8
0
 10
33.94
 11
34.157
 20
41.075
 21
40.651
  0
LINE
  8
0
 10
34.157
 11
34.327
 20
40.651
 21
40.206
  0
LINE
  8
0
 10
34.327
 11
34.451
 20
40.206
 21
39.746
  0
LINE
  8
0
 10
34.451
 11
34.525
 20
39.746
 21
39.276
  0
LINE
  8
0
 10
34.525
 11
34.55
 20
39.276
 21
38.8
  0
LINE
  8
0
 10
34.55
 11
34.525
 20
38.8
 21
38.324
  0
LINE
  8
0
 10
34.525
 11
34.451
 20
38.324
 21
37.854
  0
LINE
  8
0
 10
34.451
 11
34.327
 20
37.854
 21
37.394
  0
LINE
  8
0
 10
34.327
 11
34.157
 20
37.394
 21
36.949
  0
LINE
  8
0
 10
34.157
 11
33.94
 20
36.949
 21
36.525
  0
LINE
  8
0
 10
33.94
 11
33.681
 20
36.525
 21
36.126
  0
LINE
  8
0
 10
33.681
 11
33.381
 20
36.126
 21
35.755
  0
LINE
  8
0
 10
33.381
 11
33.045
 20
35.755
 21
35.419
  0
LINE
  8
0
 10
33.045
 11
32.674
 20
35.419
 21
35.119
  0
LINE
  8
0
 10
32.674
 11
32.275
 20
35.119
 21
34.86
  0
LINE
  8
0
 10
32.275
 11
31.851
 20
34.86
 21
34.643
  0
LINE
  8
0
 10
31.851
 11
31.406
 20
34.643
 21
34.473
  0
LINE
  8
0
 10
31.406
 11
30.946
 20
34.473
 21
34.349
  0
LINE
  8
0
 10
30.946
 11
30.476
 20
34.349
 21
34.275
  0
LINE
  8
0
 10
30.476
 11
30
 20
34.275
 21
34.25
  0
LINE
  8
0
 10
30
 11
29.524
 20
34.25
 21
34.275
  0
LINE
  8
0
 10
29.524
 11
29.054
 20
34.275
 21
34.349
  0
LINE
  8
0
 10
29.054
 11
28.594
 20
34.349
 21
34.473
  0
LINE
  8
0
 10
28.594
 11
28.149
 20
34.473
 21
34.643
  0
LINE
  8
0
 10
28.149
 11
27.725
 20
34.643
 21
34.86
  0
LINE
  8
0
 10
27.725
 11
27.326
 20
34.86
 21
35.119
  0
LINE
  8
0
 10
27.326
 11
26.955
 20
35.119
 21
35.419
  0
LINE
  8
0
 10
26.955
 11
26.619
 20
35.419
 21
35.755
  0
LINE
  8
0
 10
26.619
 11
26.319
 20
35.755
 21
36.126
  0
LINE
  8
0
 10
26.319
 11
26.06
 20
36.126
 21
36.525
  0
LINE
  8
0
 10
26.06
 11
25.843
 20
36.525
 21
36.949
  0
LINE
  8
0
 10
25.843
 11
25.673
 20
36.949
 21
37.394
  0
LINE
  8
0
 10
25.673
 11
25.549
 20
37.394
 21
37.854
  0
LINE
  8
0
 10
25.549
 11
25.475
 20
37.854
 21
38.324
  0
LINE
  8
0
 10
25.475
 11
25.45
 20
38.324
 21
38.8
  0
LINE
  8
0
 10
48.7
 11
48.71
 20
25.8
 21
25.988
  0
LINE
  8
0
 10
48.71
 11
48.739
 20
25.988
 21
26.174
  0
LINE
  8
0
 10
48.739
 11
48.788
 20
26.174
 21
26.356
  0
LINE
  8
0
 10
48.788
 11
48.856
 20
26.356
 21
26.532
  0
LINE
  8
0
 10
48.856
 11
48.941
 20
26.532
 21
26.7
  0
LINE
  8
0
 10
48.941
 11
49.044
 20
26.7
 21
26.858
  0
LINE
  8
0
 10
49.044
 11
49.162
 20
26.858
 21
27.004
  0
LINE
  8
0
 10
49.162
 11
49.296
 20
27.004
 21
27.138
  0
LINE
  8
0
 10
49.296
 11
49.442
 20
27.138
 21
27.256
  0
LINE
  8
0
 10
49.442
 11
49.6
 20
27.256
 21
27.359
  0
LINE
  8
0
 10
49.6
 11
49.768
 20
27.359
 21
27.444
  0
LINE
  8
0
 10
49.768
 11
49.944
 20
27.444
 21
27.512
  0
LINE
  8
0
 10
49.944
 11
50.126
 20
27.512
 21
27.561
  0
LINE
  8
0
 10
50.126
 11
50.312
 20
27.561
 21
27.59
  0
LINE
  8
0
 10
50.312
 11
50.5
 20
27.59
 21
27.6
  0
LINE
  8
0
 10
50.5
 11
50.688
 20
27.6
 21
27.59
  0
LINE
  8
0
 10
50.688
 11
50.874
 20
27.59
 21
27.561
  0
LINE
  8
0
 10
50.874
 11
51.056
 20
27.561
 21
27.512
  0
LINE
  8
0
 10
51.056
 11
51.232
 20
27.512
 21
27.444
  0
LINE
  8
0
 10
51.232
 11
51.4
 20
27.444
 21
27.359
  0
LINE
  8
0
 10
51.4
 11
51.558
 20
27.359
 21
27.256
  0
LINE
  8
0
 10
51.558
 11
51.704
 20
27.256
 21
27.138
  0
LINE
  8
0
 10
51.704
 11
51.838
 20
27.138
 21
27.004
  0
LINE
  8
0
 10
51.838
 11
51.956
 20
27.004
 21
26.858
  0
LINE
  8
0
 10
51.956
 11
52.059
 20
26.858
 21
26.7
  0
LINE
  8
0
 10
52.059
 11
52.144
 20
26.7
 21
26.532
  0
LINE
  8
0
 10
52.144
 11
52.212
 20
26.532
 21
26.356
  0
LINE
  8
0
 10
52.212
 11
52.261
 20
26.356
 21
26.174
  0
LINE
  8
0
 10
52.261
 11
52.29
 20
26.174
 21
25.988
  0
LINE
  8
0
 10
52.29
 11
52.3
 20
25.988
 21
25.8
  0
LINE
  8
0
 10
52.3
 11
52.29
 20
25.8
 21
25.612
  0
LINE
  8
0
 10
52.29
 11
52.261
 20
25.612
 21
25.426
  0
LINE
  8
0
 10
52.261
 11
52.212
 20
25.426
 21
25.244
  0
LINE
  8
0
 10
52.212
 11
52.144
 20
25.244
 21
25.068
  0
LINE
  8
0
 10
52.144
 11
52.059
 20
25.068
 21
24.9
  0
LINE
  8
0
 10
52.059
 11
51.956
 20
24.9
 21
24.742
  0
LINE
  8
0
 10
51.956
 11
51.838
 20
24.742
 21
24.596
  0
LINE
  8
0
 10
51.838
 11
51.704
 20
24.596
 21
24.462
  0
LINE
  8
0
 10
51.704
 11
51.558
 20
24.462
 21
24.344
  0
LINE
  8
0
 10
51.558
 11
51.4
 20
24.344
 21
24.241
  0
LINE
  8
0
 10
51.4
 11
51.232
 20
24.241
 21
24.156
  0
LINE
  8
0
 10
51.232
 11
51.056
 20
24.156
 21
24.088
  0
LINE
  8
0
 10
51.056
 11
50.874
 20
24.088
 21
24.039
  0
LINE
  8
0
 10
50.874
 11
50.688
 20
24.039
 21
24.01
  0
LINE
  8
0
 10
50.688
 11
50.5
 20
24.01
 21
24
  0
LINE
  8
0
 10
50.5
 11
50.312
 20
24
 21
24.01
  0
LINE
  8
0
 10
50.312
 11
50.126
 20
24.01
 21
24.039
  0
LINE
  8
0
 10
50.126
 11
49.944
 20
24.039
 21
24.088
  0
LINE
  8
0
 10
49.944
 11
49.768
 20
24.088
 21
24.156
  0
LINE
  8
0
 10
49.768
 11
49.6
 20
24.156
 21
24.241
  0
LINE
  8
0
 10
49.6
 11
49.442
 20
24.241
 21
24.344
  0
LINE
  8
0
 10
49.442
 11
49.296
 20
24.344
 21
24.462
  0
LINE
  8
0
 10
49.296
 11
49.162
 20
24.462
 21
24.596
  0
LINE
  8
0
 10
49.162
 11
49.044
 20
24.596
 21
24.742
  0
LINE
  8
0
 10
49.044
 11
48.941
 20
24.742
 21
24.9
  0
LINE
  8
0
 10
48.941
 11
48.856
 20
24.9
 21
25.068
  0
LINE
  8
0
 10
48.856
 11
48.788
 20
25.068
 21
25.244
  0
LINE
  8
0
 10
48.788
 11
48.739
 20
25.244
 21
25.426
  0
LINE
  8
0
 10
48.739
 11
48.71
 20
25.426
 21
25.612
  0
LINE
  8
0
 10
48.71
 11
48.7
 20
25.612
 21
25.8
  0
LINE
  8
0
 10
48.7
 11
48.71
 20
51.8
 21
51.988
  0
LINE
  8
0
 10
48.71
 11
48.739
 20
51.988
 21
52.174
  0
LINE
  8
0
 10
48.739
 11
48.788
 20
52.174
 21
52.356
  0
LINE
  8
0
 10
48.788
 11
48.856
 20
52.356
 21
52.532
  0
LINE
  8
0
 10
48.856
 11
48.941
 20
52.532
 21
52.7
  0
LINE
  8
0
 10
48.941
 11
49.044
 20
52.7
 21
52.858
  0
LINE
  8
0
 10
49.044
 11
49.162
 20
52.858
 21
53.004
  0
LINE
  8
0
 10
49.162
 11
49.296
 20
53.004
 21
53.138
  0
LINE
  8
0
 10
49.296
 11
49.442
 20
53.138
 21
53.256
  0
LINE
  8
0
 10
49.442
 11
49.6
 20
53.256
 21
53.359
  0
LINE
  8
0
 10
49.6
 11
49.768
 20
53.359
 21
53.444
  0
LINE
  8
0
 10
49.768
 11
49.944
 20
53.444
 21
53.512
  0
LINE
  8
0
 10
49.944
 11
50.126
 20
53.512
 21
53.561
  0
LINE
  8
0
 10
50.126
 11
50.312
 20
53.561
 21
53.59
  0
LINE
  8
0
 10
50.312
 11
50.5
 20
53.59
 21
53.6
  0
LINE
  8
0
 10
50.5
 11
50.688
 20
53.6
 21
53.59
  0
LINE
  8
0
 10
50.688
 11
50.874
 20
53.59
 21
53.561
  0
LINE
  8
0
 10
50.874
 11
51.056
 20
53.561
 21
53.512
  0
LINE
  8
0
 10
51.056
 11
51.232
 20
53.512
 21
53.444
  0
LINE
  8
0
 10
51.232
 11
51.4
 20
53.444
 21
53.359
  0
LINE
  8
0
 10
51.4
 11
51.558
 20
53.359
 21
53.256
  0
LINE
  8
0
 10
51.558
 11
51.704
 20
53.256
 21
53.138
  0
LINE
  8
0
 10
51.704
 11
51.838
 20
53.138
 21
53.004
  0
LINE
  8
0
 10
51.838
 11
51.956
 20
53.004
 21
52.858
  0
LINE
  8
0
 10
51.956
 11
52.059
 20
52.858
 21
52.7
  0
LINE
  8
0
 10
52.059
 11
52.144
 20
52.7
 21
52.532
  0
LINE
  8
0
 10
52.144
 11
52.212
 20
52.532
 21
52.356
  0
LINE
  8
0
 10
52.212
 11
52.261
 20
52.356
 21
52.174
  0
LINE
  8
0
 10
52.261
 11
52.29
 20
52.174
 21
51.988
  0
LINE
  8
0
 10
52.29
 11
52.3
 20
51.988
 21
51.8
  0
LINE
  8
0
 10
52.3
 11
52.29
 20
51.8
 21
51.612
  0
LINE
  8
0
 10
52.29
 11
52.261
 20
51.612
 21
51.426
  0
LINE
  8
0
 10
52.261
 11
52.212
 20
51.426
 21
51.244
  0
LINE
  8
0
 10
52.212
 11
52.144
 20
51.244
 21
51.068
  0
LINE
  8
0
 10
52.144
 11
52.059
 20
51.068
 21
50.9
  0
LINE
  8
0
 10
52.059
 11
51.956
 20
50.9
 21
50.742
  0
LINE
  8
0
 10
51.956
 11
51.838
 20
50.742
 21
50.596
  0
LINE
  8
0
 10
51.838
 11
51.704
 20
50.596
 21
50.462
  0
LINE
  8
0
 10
51.704
 11
51.558
 20
50.462
 21
50.344
  0
LINE
  8
0
 10
51.558
 11
51.4
 20
50.344
 21
50.241
  0
LINE
  8
0
 10
51.4
 11
51.232
 20
50.241
 21
50.156
  0
LINE
  8
0
 10
51.232
 11
51.056
 20
50.156
 21
50.088
  0
LINE
  8
0
 10
51.056
 11
50.874
 20
50.088
 21
50.039
  0
LINE
  8
0
 10
50.874
 11
50.688
 20
50.039
 21
50.01
  0
LINE
  8
0
 10
50.688
 11
50.5
 20
50.01
 21
50
  0
LINE
  8
0
 10
50.5
 11
50.312
 20
50
 21
50.01
  0
LINE
  8
0
 10
50.312
 11
50.126
 20
50.01
 21
50.039
  0
LINE
  8
0
 10
50.126
 11
49.944
 20
50.039
 21
50.088
  0
LINE
  8
0
 10
49.944
 11
49.768
 20
50.088
 21
50.156
  0
LINE
  8
0
 10
49.768
 11
49.6
 20
50.156
 21
50.241
  0
LINE
  8
0
 10
49.6
 11
49.442
 20
50.241
 21
50.344
  0
LINE
  8
0
 10
49.442
 11
49.296
 20
50.344
 21
50.462
  0
LINE
  8
0
 10
49.296
 11
49.162
 20
50.462
 21
50.596
  0
LINE
  8
0
 10
49.162
 11
49.044
 20
50.596
 21
50.742
  0
LINE
  8
0
 10
49.044
 11
48.941
 20
50.742
 21
50.9
  0
LINE
  8
0
 10
48.941
 11
48.856
 20
50.9
 21
51.068
  0
LINE
  8
0
 10
48.856
 11
48.788
 20
51.068
 21
51.244
  0
LINE
  8
0
 10
48.788
 11
48.739
 20
51.244
 21
51.426
  0
LINE
  8
0
 10
48.739
 11
48.71
 20
51.426
 21
51.612
  0
LINE
  8
0
 10
48.71
 11
48.7
 20
51.612
 21
51.8
  0
LINE
  8
0
 10
55.8
 11
55.823
 20
38.8
 21
39.239
  0
LINE
  8
0
 10
55.823
 11
55.892
 20
39.239
 21
39.673
  0
LINE
  8
0
 10
55.892
 11
56.006
 20
39.673
 21
40.098
  0
LINE
  8
0
 10
56.006
 11
56.163
 20
40.098
 21
40.508
  0
LINE
  8
0
 10
56.163
 11
56.363
 20
40.508
 21
40.9
  0
LINE
  8
0
 10
56.363
 11
56.602
 20
40.9
 21
41.269
  0
LINE
  8
0
 10
56.602
 11
56.879
 20
41.269
 21
41.61
  0
LINE
  8
0
 10
56.879
 11
57.19
 20
41.61
 21
41.921
  0
LINE
  8
0
 10
57.19
 11
57.531
 20
41.921
 21
42.198
  0
LINE
  8
0
 10
57.531
 11
57.9
 20
42.198
 21
42.437
  0
LINE
  8
0
 10
57.9
 11
58.292
 20
42.437
 21
42.637
  0
LINE
  8
0
 10
58.292
 11
58.702
 20
42.637
 21
42.794
  0
LINE
  8
0
 10
58.702
 11
59.127
 20
42.794
 21
42.908
  0
LINE
  8
0
 10
59.127
 11
59.561
 20
42.908
 21
42.977
  0
LINE
  8
0
 10
59.561
 11
60
 20
42.977
 21
43
  0
LINE
  8
0
 10
60
 11
60.439
 20
43
 21
42.977
  0
LINE
  8
0
 10
60.439
 11
60.873
 20
42.977
 21
42.908
  0
LINE
  8
0
 10
60.873
 11
61.298
 20
42.908
 21
42.794
  0
LINE
  8
0
 10
61.298
 11
61.708
 20
42.794
 21
42.637
  0
LINE
  8
0
 10
61.708
 11
62.1
 20
42.637
 21
42.437
  0
LINE
  8
0
 10
62.1
 11
62.469
 20
42.437
 21
42.198
  0
LINE
  8
0
 10
62.469
 11
62.81
 20
42.198
 21
41.921
  0
LINE
  8
0
 10
62.81
 11
63.121
 20
41.921
 21
41.61
  0
LINE
  8
0
 10
63.121
 11
63.398
 20
41.61
 21
41.269
  0
LINE
  8
0
 10
63.398
 11
63.637
 20
41.269
 21
40.9
  0
LINE
  8
0
 10
63.637
 11
63.837
 20
40.9
 21
40.508
  0
LINE
  8
0
 10
63.837
 11
63.994
 20
40.508
 21
40.098
  0
LINE
  8
0
 10
63.994
 11
64.108
 20
40.098
 21
39.673
  0
LINE
  8
0
 10
64.108
 11
64.177
 20
39.673
 21
39.239
  0
LINE
  8
0
 10
64.177
 11
64.2
 20
39.239
 21
38.8
  0
LINE
  8
0
 10
64.2
 11
64.177
 20
38.8
 21
38.361
  0
LINE
  8
0
 10
64.177
 11
64.108
 20
38.361
 21
37.927
  0
LINE
  8
0
 10
64.108
 11
63.994
 20
37.927
 21
37.502
  0
LINE
  8
0
 10
63.994
 11
63.837
 20
37.502
 21
37.092
  0
LINE
  8
0
 10
63.837
 11
63.637
 20
37.092
 21
36.7
  0
LINE
  8
0
 10
63.637
 11
63.398
 20
36.7
 21
36.331
  0
LINE
  8
0
 10
63.398
 11
63.121
 20
36.331
 21
35.99
  0
LINE
  8
0
 10
63.121
 11
62.81
 20
35.99
 21
35.679
  0
LINE
  8
0
 10
62.81
 11
62.469
 20
35.679
 21
35.402
  0
LINE
  8
0
 10
62.469
 11
62.1
 20
35.402
 21
35.163
  0
LINE
  8
0
 10
62.1
 11
61.708
 20
35.163
 21
34.963
  0
LINE
  8
0
 10
61.708
 11
61.298
 20
34.963
 21
34.806
  0
LINE
  8
0
 10
61.298
 11
60.873
 20
34.806
 21
34.692
  0
LINE
  8
0
 10
60.873
 11
60.439
 20
34.692
 21
34.623
  0
LINE
  8
0
 10
60.439
 11
60
 20
34.623
 21
34.6
  0
LINE
  8
0
 10
60
 11
59.561
 20
34.6
 21
34.623
  0
LINE
  8
0
 10
59.561
 11
59.127
 20
34.623
 21
34.692
  0
LINE
  8
0
 10
59.127
 11
58.702
 20
34.692
 21
34.806
  0
LINE
  8
0
 10
58.702
 11
58.292
 20
34.806
 21
34.963
  0
LINE
  8
0
 10
58.292
 11
57.9
 20
34.963
 21
35.163
  0
LINE
  8
0
 10
57.9
 11
57.531
 20
35.163
 21
35.402
  0
LINE
  8
0
 10
57.531
 11
57.19
 20
35.402
 21
35.679
  0
LINE
  8
0
 10
57.19
 11
56.879
 20
35.679
 21
35.99
  0
LINE
  8
0
 10
56.879
 11
56.602
 20
35.99
 21
36.331
  0
LINE
  8
0
 10
56.602
 11
56.363
 20
36.331
 21
36.7
  0
LINE
  8
0
 10
56.363
 11
56.163
 20
36.7
 21
37.092
  0
LINE
  8
0
 10
56.163
 11
56.006
 20
37.092
 21
37.502
  0
LINE
  8
0
 10
56.006
 11
55.892
 20
37.502
 21
37.927
  0
LINE
  8
0
 10
55.892
 11
55.823
 20
37.927
 21
38.361
  0
LINE
  8
0
 10
55.823
 11
55.8
 20
38.361
 21
38.8
  0
ENDSEC
  0
SECTION
  2
OBJECTS
  0
DICTIONARY
  0
ENDSEC
  0
EOF
