solid OpenSCAD_Model
  facet normal -1 0 0
    outer loop
      vertex 0 0 0
      vertex 0 0 5
      vertex 0 30 0
    endloop
  endfacet
  facet normal -1 0 0
    outer loop
      vertex 0 30 0
      vertex 0 0 5
      vertex 0 30 5
    endloop
  endfacet
  facet normal 0 -1 0
    outer loop
      vertex 0 0 5
      vertex 0 0 0
      vertex 5 0 0
    endloop
  endfacet
  facet normal 0 -1 0
    outer loop
      vertex 5 0 5
      vertex 0 0 5
      vertex 5 0 0
    endloop
  endfacet
  facet normal 0 0 -1
    outer loop
      vertex 0 0 0
      vertex 0 30 0
      vertex 5 0 0
    endloop
  endfacet
  facet normal 0 0 -1
    outer loop
      vertex 5 0 0
      vertex 0 30 0
      vertex 0.0592372 30 0
    endloop
  endfacet
  facet normal 0 0 -1
    outer loop
      vertex 5 0 0
      vertex 0.0592372 30 0
      vertex 0.019733 30.6279 0
    endloop
  endfacet
  facet normal 0 0 -1
    outer loop
      vertex 5 0 0
      vertex 0.019733 30.6279 0
      vertex 0.489435 33.0902 0
    endloop
  endfacet
  facet normal 0 0 -1
    outer loop
      vertex 5 0 0
      vertex 0.489435 33.0902 0
      vertex 1.55672 35.3583 0
    endloop
  endfacet
  facet normal 0 0 -1
    outer loop
      vertex 5 0 0
      vertex 1.55672 35.3583 0
      vertex 3.15453 37.2897 0
    endloop
  endfacet
  facet normal 0 0 -1
    outer loop
      vertex 5 0 0
      vertex 3.15453 37.2897 0
      vertex 5.18246 38.7631 0
    endloop
  endfacet
  facet normal 0 0 -1
    outer loop
      vertex 5 0 0
      vertex 5.18246 38.7631 0
      vertex 7.5131 39.6858 0
    endloop
  endfacet
  facet normal 0 0 -1
    outer loop
      vertex 5 0 0
      vertex 7.5131 39.6858 0
      vertex 9.95 39.9937 0
    endloop
  endfacet
  facet normal 0 0 -1
    outer loop
      vertex 9.95 39.9937 0
      vertex 9.95 40 0
      vertex 50 40 0
    endloop
  endfacet
  facet normal 0 0 -1
    outer loop
      vertex 38.8442 24.1371 0
      vertex 55.3583 38.4433 0
      vertex 57.2897 36.8455 0
    endloop
  endfacet
  facet normal 0 0 -1
    outer loop
      vertex 40.4107 23.2327 0
      vertex 57.2897 36.8455 0
      vertex 58.7631 34.8175 0
    endloop
  endfacet
  facet normal 0 0 -1
    outer loop
      vertex 41.4739 21.7693 0
      vertex 58.7631 34.8175 0
      vertex 59.6858 32.4869 0
    endloop
  endfacet
  facet normal 0 0 -1
    outer loop
      vertex 41.8262 20.4547 0
      vertex 59.6858 32.4869 0
      vertex 59.9937 30.05 0
    endloop
  endfacet
  facet normal 0 0 -1
    outer loop
      vertex 55 0 0
      vertex 60 30.05 0
      vertex 60 0 0
    endloop
  endfacet
  facet normal 0 0 -1
    outer loop
      vertex 33.05 5.5 0
      vertex 60 30.05 0
      vertex 31.8 0 0
    endloop
  endfacet
  facet normal 0 0 -1
    outer loop
      vertex 45 0 0
      vertex 55 -5 0
      vertex 45 -5 0
    endloop
  endfacet
  facet normal 0 0 -1
    outer loop
      vertex 28.2 12.5 0
      vertex 5 0 0
      vertex 22.5 15.65 0
    endloop
  endfacet
  facet normal 0 0 -1
    outer loop
      vertex 55 0 0
      vertex 55 -5 0
      vertex 45 0 0
    endloop
  endfacet
  facet normal 0 0 -1
    outer loop
      vertex 55 0 0
      vertex 45 0 0
      vertex 60 30.05 0
    endloop
  endfacet
  facet normal 0 0 -1
    outer loop
      vertex 33.05 8.5 0
      vertex 60 30.05 0
      vertex 33.05 5.5 0
    endloop
  endfacet
  facet normal 0 0 -1
    outer loop
      vertex 48.7956 16.3377 0
      vertex 31.8 0 0
      vertex 60 30.05 0
    endloop
  endfacet
  facet normal 0 0 -1
    outer loop
      vertex 26.95 8.5 0
      vertex 5 0 0
      vertex 28.2 12.5 0
    endloop
  endfacet
  facet normal 0 0 -1
    outer loop
      vertex 28.2 8.5 0
      vertex 26.95 8.5 0
      vertex 28.2 12.5 0
    endloop
  endfacet
  facet normal 0 0 -1
    outer loop
      vertex 31.8 5.5 0
      vertex 33.05 5.5 0
      vertex 31.8 0 0
    endloop
  endfacet
  facet normal 0 0 -1
    outer loop
      vertex 31.8 8.5 0
      vertex 60 30.05 0
      vertex 33.05 8.5 0
    endloop
  endfacet
  facet normal 0 0 -1
    outer loop
      vertex 40.0569 16.4808 0
      vertex 60 30.05 0
      vertex 31.8 8.5 0
    endloop
  endfacet
  facet normal 0 0 -1
    outer loop
      vertex 28.2 0 0
      vertex 15 0 0
      vertex 28.2 5.5 0
    endloop
  endfacet
  facet normal 0 0 -1
    outer loop
      vertex 26.95 5.5 0
      vertex 5 0 0
      vertex 26.95 8.5 0
    endloop
  endfacet
  facet normal 0 0 -1
    outer loop
      vertex 15 0 0
      vertex 5 0 0
      vertex 28.2 5.5 0
    endloop
  endfacet
  facet normal 0 0 -1
    outer loop
      vertex 37.5 15.65 0
      vertex 28.2 12.5 0
      vertex 22.5 15.65 0
    endloop
  endfacet
  facet normal 0 0 -1
    outer loop
      vertex 26.95 5.5 0
      vertex 28.2 5.5 0
      vertex 5 0 0
    endloop
  endfacet
  facet normal 0 0 -1
    outer loop
      vertex 15 -5 0
      vertex 5 0 0
      vertex 15 0 0
    endloop
  endfacet
  facet normal 0 0 -1
    outer loop
      vertex 51.7119 14.4438 0
      vertex 60 30.05 0
      vertex 51.6444 14.2679 0
    endloop
  endfacet
  facet normal 0 0 -1
    outer loop
      vertex 9.95 39.9937 0
      vertex 18.15 20 0
      vertex 5 0 0
    endloop
  endfacet
  facet normal 0 0 -1
    outer loop
      vertex 18.15 20 0
      vertex 18.1738 19.5453 0
      vertex 5 0 0
    endloop
  endfacet
  facet normal 0 0 -1
    outer loop
      vertex 18.1738 19.5453 0
      vertex 18.2451 19.0956 0
      vertex 5 0 0
    endloop
  endfacet
  facet normal 0 0 -1
    outer loop
      vertex 18.2451 19.0956 0
      vertex 18.3629 18.6558 0
      vertex 5 0 0
    endloop
  endfacet
  facet normal 0 0 -1
    outer loop
      vertex 18.3629 18.6558 0
      vertex 18.5261 18.2307 0
      vertex 5 0 0
    endloop
  endfacet
  facet normal 0 0 -1
    outer loop
      vertex 18.5261 18.2307 0
      vertex 18.7328 17.825 0
      vertex 5 0 0
    endloop
  endfacet
  facet normal 0 0 -1
    outer loop
      vertex 18.7328 17.825 0
      vertex 18.9808 17.4431 0
      vertex 5 0 0
    endloop
  endfacet
  facet normal 0 0 -1
    outer loop
      vertex 18.9808 17.4431 0
      vertex 19.2673 17.0893 0
      vertex 5 0 0
    endloop
  endfacet
  facet normal 0 0 -1
    outer loop
      vertex 19.2673 17.0893 0
      vertex 19.5893 16.7673 0
      vertex 5 0 0
    endloop
  endfacet
  facet normal 0 0 -1
    outer loop
      vertex 19.5893 16.7673 0
      vertex 19.9431 16.4808 0
      vertex 5 0 0
    endloop
  endfacet
  facet normal 0 0 -1
    outer loop
      vertex 19.9431 16.4808 0
      vertex 20.325 16.2328 0
      vertex 5 0 0
    endloop
  endfacet
  facet normal 0 0 -1
    outer loop
      vertex 20.325 16.2328 0
      vertex 20.7307 16.0261 0
      vertex 5 0 0
    endloop
  endfacet
  facet normal 0 0 -1
    outer loop
      vertex 20.7307 16.0261 0
      vertex 21.1558 15.8629 0
      vertex 5 0 0
    endloop
  endfacet
  facet normal 0 0 -1
    outer loop
      vertex 21.1558 15.8629 0
      vertex 21.5956 15.7451 0
      vertex 5 0 0
    endloop
  endfacet
  facet normal 0 0 -1
    outer loop
      vertex 21.5956 15.7451 0
      vertex 22.0453 15.6738 0
      vertex 5 0 0
    endloop
  endfacet
  facet normal 0 0 -1
    outer loop
      vertex 22.0453 15.6738 0
      vertex 22.5 15.65 0
      vertex 5 0 0
    endloop
  endfacet
  facet normal 0 0 -1
    outer loop
      vertex 22.5 24.35 0
      vertex 50 40 0
      vertex 50 39.9408 0
    endloop
  endfacet
  facet normal 0 0 -1
    outer loop
      vertex 31.8 12.5 0
      vertex 37.5 15.65 0
      vertex 31.8 8.5 0
    endloop
  endfacet
  facet normal 0 0 -1
    outer loop
      vertex 22.5 24.35 0
      vertex 50 39.9408 0
      vertex 50.6279 39.9803 0
    endloop
  endfacet
  facet normal 0 0 -1
    outer loop
      vertex 37.5 15.65 0
      vertex 37.9547 15.6738 0
      vertex 31.8 8.5 0
    endloop
  endfacet
  facet normal 0 0 -1
    outer loop
      vertex 41.4739 18.2307 0
      vertex 60 30.05 0
      vertex 41.2672 17.825 0
    endloop
  endfacet
  facet normal 0 0 -1
    outer loop
      vertex 37.9547 15.6738 0
      vertex 38.4044 15.7451 0
      vertex 31.8 8.5 0
    endloop
  endfacet
  facet normal 0 0 -1
    outer loop
      vertex 41.2672 17.825 0
      vertex 60 30.05 0
      vertex 41.0192 17.4431 0
    endloop
  endfacet
  facet normal 0 0 -1
    outer loop
      vertex 38.4044 15.7451 0
      vertex 38.8442 15.8629 0
      vertex 31.8 8.5 0
    endloop
  endfacet
  facet normal 0 0 -1
    outer loop
      vertex 41.0192 17.4431 0
      vertex 60 30.05 0
      vertex 40.7327 17.0893 0
    endloop
  endfacet
  facet normal 0 0 -1
    outer loop
      vertex 38.8442 15.8629 0
      vertex 39.2693 16.0261 0
      vertex 31.8 8.5 0
    endloop
  endfacet
  facet normal 0 0 -1
    outer loop
      vertex 40.7327 17.0893 0
      vertex 60 30.05 0
      vertex 40.4107 16.7673 0
    endloop
  endfacet
  facet normal 0 0 -1
    outer loop
      vertex 39.2693 16.0261 0
      vertex 39.675 16.2328 0
      vertex 31.8 8.5 0
    endloop
  endfacet
  facet normal 0 0 -1
    outer loop
      vertex 39.675 16.2328 0
      vertex 40.0569 16.4808 0
      vertex 31.8 8.5 0
    endloop
  endfacet
  facet normal 0 0 -1
    outer loop
      vertex 22.5 24.35 0
      vertex 50.6279 39.9803 0
      vertex 53.0902 39.5106 0
    endloop
  endfacet
  facet normal 0 0 -1
    outer loop
      vertex 40.4107 16.7673 0
      vertex 60 30.05 0
      vertex 40.0569 16.4808 0
    endloop
  endfacet
  facet normal 0 0 -1
    outer loop
      vertex 41.7549 19.0956 0
      vertex 60 30.05 0
      vertex 41.6371 18.6558 0
    endloop
  endfacet
  facet normal 0 0 -1
    outer loop
      vertex 22.5 24.35 0
      vertex 53.0902 39.5106 0
      vertex 55.3583 38.4433 0
    endloop
  endfacet
  facet normal 0 0 -1
    outer loop
      vertex 41.8262 19.5453 0
      vertex 60 30.05 0
      vertex 41.7549 19.0956 0
    endloop
  endfacet
  facet normal 0 0 -1
    outer loop
      vertex 22.5 24.35 0
      vertex 55.3583 38.4433 0
      vertex 37.5 24.35 0
    endloop
  endfacet
  facet normal 0 0 -1
    outer loop
      vertex 41.85 20 0
      vertex 60 30.05 0
      vertex 41.8262 19.5453 0
    endloop
  endfacet
  facet normal 0 0 -1
    outer loop
      vertex 41.7549 20.9044 0
      vertex 59.6858 32.4869 0
      vertex 41.8262 20.4547 0
    endloop
  endfacet
  facet normal 0 0 -1
    outer loop
      vertex 41.6371 21.3442 0
      vertex 59.6858 32.4869 0
      vertex 41.7549 20.9044 0
    endloop
  endfacet
  facet normal 0 0 -1
    outer loop
      vertex 41.2672 22.175 0
      vertex 58.7631 34.8175 0
      vertex 41.4739 21.7693 0
    endloop
  endfacet
  facet normal 0 0 -1
    outer loop
      vertex 41.0192 22.5569 0
      vertex 58.7631 34.8175 0
      vertex 41.2672 22.175 0
    endloop
  endfacet
  facet normal 0 0 -1
    outer loop
      vertex 40.7327 22.9107 0
      vertex 58.7631 34.8175 0
      vertex 41.0192 22.5569 0
    endloop
  endfacet
  facet normal 0 0 -1
    outer loop
      vertex 40.0569 23.5192 0
      vertex 57.2897 36.8455 0
      vertex 40.4107 23.2327 0
    endloop
  endfacet
  facet normal 0 0 -1
    outer loop
      vertex 39.675 23.7672 0
      vertex 57.2897 36.8455 0
      vertex 40.0569 23.5192 0
    endloop
  endfacet
  facet normal 0 0 -1
    outer loop
      vertex 39.2693 23.9739 0
      vertex 57.2897 36.8455 0
      vertex 39.675 23.7672 0
    endloop
  endfacet
  facet normal 0 0 -1
    outer loop
      vertex 38.4044 24.2549 0
      vertex 55.3583 38.4433 0
      vertex 38.8442 24.1371 0
    endloop
  endfacet
  facet normal 0 0 -1
    outer loop
      vertex 37.9547 24.3262 0
      vertex 55.3583 38.4433 0
      vertex 38.4044 24.2549 0
    endloop
  endfacet
  facet normal 0 0 -1
    outer loop
      vertex 37.5 24.35 0
      vertex 55.3583 38.4433 0
      vertex 37.9547 24.3262 0
    endloop
  endfacet
  facet normal 0 0 -1
    outer loop
      vertex 9.95 39.9937 0
      vertex 50 40 0
      vertex 22.5 24.35 0
    endloop
  endfacet
  facet normal 0 0 -1
    outer loop
      vertex 9.95 39.9937 0
      vertex 22.5 24.35 0
      vertex 22.0453 24.3262 0
    endloop
  endfacet
  facet normal 0 0 -1
    outer loop
      vertex 9.95 39.9937 0
      vertex 22.0453 24.3262 0
      vertex 21.5956 24.2549 0
    endloop
  endfacet
  facet normal 0 0 -1
    outer loop
      vertex 9.95 39.9937 0
      vertex 21.5956 24.2549 0
      vertex 21.1558 24.1371 0
    endloop
  endfacet
  facet normal 0 0 -1
    outer loop
      vertex 9.95 39.9937 0
      vertex 21.1558 24.1371 0
      vertex 20.7307 23.9739 0
    endloop
  endfacet
  facet normal 0 0 -1
    outer loop
      vertex 9.95 39.9937 0
      vertex 20.7307 23.9739 0
      vertex 20.325 23.7672 0
    endloop
  endfacet
  facet normal 0 0 -1
    outer loop
      vertex 9.95 39.9937 0
      vertex 20.325 23.7672 0
      vertex 19.9431 23.5192 0
    endloop
  endfacet
  facet normal 0 0 -1
    outer loop
      vertex 9.95 39.9937 0
      vertex 19.9431 23.5192 0
      vertex 19.5893 23.2327 0
    endloop
  endfacet
  facet normal 0 0 -1
    outer loop
      vertex 9.95 39.9937 0
      vertex 19.5893 23.2327 0
      vertex 19.2673 22.9107 0
    endloop
  endfacet
  facet normal 0 0 -1
    outer loop
      vertex 9.95 39.9937 0
      vertex 19.2673 22.9107 0
      vertex 18.9808 22.5569 0
    endloop
  endfacet
  facet normal 0 0 -1
    outer loop
      vertex 9.95 39.9937 0
      vertex 18.9808 22.5569 0
      vertex 18.7328 22.175 0
    endloop
  endfacet
  facet normal 0 0 -1
    outer loop
      vertex 9.95 39.9937 0
      vertex 18.7328 22.175 0
      vertex 18.5261 21.7693 0
    endloop
  endfacet
  facet normal 0 0 -1
    outer loop
      vertex 9.95 39.9937 0
      vertex 18.5261 21.7693 0
      vertex 18.3629 21.3442 0
    endloop
  endfacet
  facet normal 0 0 -1
    outer loop
      vertex 9.95 39.9937 0
      vertex 18.3629 21.3442 0
      vertex 18.2451 20.9044 0
    endloop
  endfacet
  facet normal 0 0 -1
    outer loop
      vertex 9.95 39.9937 0
      vertex 18.2451 20.9044 0
      vertex 18.1738 20.4547 0
    endloop
  endfacet
  facet normal 0 0 -1
    outer loop
      vertex 9.95 39.9937 0
      vertex 18.1738 20.4547 0
      vertex 18.15 20 0
    endloop
  endfacet
  facet normal 0 0 -1
    outer loop
      vertex 45 0 0
      vertex 31.8 0 0
      vertex 48.2 15 0
    endloop
  endfacet
  facet normal 0 0 -1
    outer loop
      vertex 45 0 0
      vertex 48.2 15 0
      vertex 48.2099 14.8118 0
    endloop
  endfacet
  facet normal 0 0 -1
    outer loop
      vertex 45 0 0
      vertex 48.2099 14.8118 0
      vertex 48.2393 14.6258 0
    endloop
  endfacet
  facet normal 0 0 -1
    outer loop
      vertex 45 0 0
      vertex 48.2393 14.6258 0
      vertex 48.2881 14.4438 0
    endloop
  endfacet
  facet normal 0 0 -1
    outer loop
      vertex 45 0 0
      vertex 48.2881 14.4438 0
      vertex 48.3556 14.2679 0
    endloop
  endfacet
  facet normal 0 0 -1
    outer loop
      vertex 45 0 0
      vertex 48.3556 14.2679 0
      vertex 48.4412 14.1 0
    endloop
  endfacet
  facet normal 0 0 -1
    outer loop
      vertex 45 0 0
      vertex 48.4412 14.1 0
      vertex 48.5438 13.942 0
    endloop
  endfacet
  facet normal 0 0 -1
    outer loop
      vertex 45 0 0
      vertex 48.5438 13.942 0
      vertex 48.6623 13.7956 0
    endloop
  endfacet
  facet normal 0 0 -1
    outer loop
      vertex 45 0 0
      vertex 48.6623 13.7956 0
      vertex 48.7956 13.6623 0
    endloop
  endfacet
  facet normal 0 0 -1
    outer loop
      vertex 45 0 0
      vertex 48.7956 13.6623 0
      vertex 48.942 13.5438 0
    endloop
  endfacet
  facet normal 0 0 -1
    outer loop
      vertex 45 0 0
      vertex 48.942 13.5438 0
      vertex 49.1 13.4412 0
    endloop
  endfacet
  facet normal 0 0 -1
    outer loop
      vertex 45 0 0
      vertex 49.1 13.4412 0
      vertex 49.2679 13.3556 0
    endloop
  endfacet
  facet normal 0 0 -1
    outer loop
      vertex 45 0 0
      vertex 49.2679 13.3556 0
      vertex 49.4438 13.2881 0
    endloop
  endfacet
  facet normal 0 0 -1
    outer loop
      vertex 45 0 0
      vertex 49.4438 13.2881 0
      vertex 49.6258 13.2393 0
    endloop
  endfacet
  facet normal 0 0 -1
    outer loop
      vertex 45 0 0
      vertex 49.6258 13.2393 0
      vertex 49.8118 13.2099 0
    endloop
  endfacet
  facet normal 0 0 -1
    outer loop
      vertex 45 0 0
      vertex 49.8118 13.2099 0
      vertex 50 13.2 0
    endloop
  endfacet
  facet normal 0 0 -1
    outer loop
      vertex 45 0 0
      vertex 50 13.2 0
      vertex 50.1882 13.2099 0
    endloop
  endfacet
  facet normal 0 0 -1
    outer loop
      vertex 45 0 0
      vertex 50.1882 13.2099 0
      vertex 50.3742 13.2393 0
    endloop
  endfacet
  facet normal 0 0 -1
    outer loop
      vertex 45 0 0
      vertex 50.3742 13.2393 0
      vertex 50.5562 13.2881 0
    endloop
  endfacet
  facet normal 0 0 -1
    outer loop
      vertex 45 0 0
      vertex 50.5562 13.2881 0
      vertex 50.7321 13.3556 0
    endloop
  endfacet
  facet normal 0 0 -1
    outer loop
      vertex 45 0 0
      vertex 50.7321 13.3556 0
      vertex 50.9 13.4412 0
    endloop
  endfacet
  facet normal 0 0 -1
    outer loop
      vertex 45 0 0
      vertex 50.9 13.4412 0
      vertex 51.058 13.5438 0
    endloop
  endfacet
  facet normal 0 0 -1
    outer loop
      vertex 45 0 0
      vertex 51.058 13.5438 0
      vertex 51.2044 13.6623 0
    endloop
  endfacet
  facet normal 0 0 -1
    outer loop
      vertex 45 0 0
      vertex 51.2044 13.6623 0
      vertex 51.3377 13.7956 0
    endloop
  endfacet
  facet normal 0 0 -1
    outer loop
      vertex 45 0 0
      vertex 51.3377 13.7956 0
      vertex 51.4562 13.942 0
    endloop
  endfacet
  facet normal 0 0 -1
    outer loop
      vertex 45 0 0
      vertex 51.4562 13.942 0
      vertex 51.5588 14.1 0
    endloop
  endfacet
  facet normal 0 0 -1
    outer loop
      vertex 45 0 0
      vertex 51.5588 14.1 0
      vertex 60 30.05 0
    endloop
  endfacet
  facet normal 0 0 -1
    outer loop
      vertex 51.5588 14.1 0
      vertex 51.6444 14.2679 0
      vertex 60 30.05 0
    endloop
  endfacet
  facet normal 0 0 -1
    outer loop
      vertex 51.7607 14.6258 0
      vertex 60 30.05 0
      vertex 51.7119 14.4438 0
    endloop
  endfacet
  facet normal 0 0 -1
    outer loop
      vertex 51.7901 14.8118 0
      vertex 60 30.05 0
      vertex 51.7607 14.6258 0
    endloop
  endfacet
  facet normal 0 0 -1
    outer loop
      vertex 51.8 15 0
      vertex 60 30.05 0
      vertex 51.7901 14.8118 0
    endloop
  endfacet
  facet normal 0 0 -1
    outer loop
      vertex 51.7901 15.1882 0
      vertex 60 30.05 0
      vertex 51.8 15 0
    endloop
  endfacet
  facet normal 0 0 -1
    outer loop
      vertex 51.7607 15.3742 0
      vertex 60 30.05 0
      vertex 51.7901 15.1882 0
    endloop
  endfacet
  facet normal 0 0 -1
    outer loop
      vertex 51.7119 15.5562 0
      vertex 60 30.05 0
      vertex 51.7607 15.3742 0
    endloop
  endfacet
  facet normal 0 0 -1
    outer loop
      vertex 51.6444 15.7321 0
      vertex 60 30.05 0
      vertex 51.7119 15.5562 0
    endloop
  endfacet
  facet normal 0 0 -1
    outer loop
      vertex 51.5588 15.9 0
      vertex 60 30.05 0
      vertex 51.6444 15.7321 0
    endloop
  endfacet
  facet normal 0 0 -1
    outer loop
      vertex 51.4562 16.058 0
      vertex 60 30.05 0
      vertex 51.5588 15.9 0
    endloop
  endfacet
  facet normal 0 0 -1
    outer loop
      vertex 51.3377 16.2044 0
      vertex 60 30.05 0
      vertex 51.4562 16.058 0
    endloop
  endfacet
  facet normal 0 0 -1
    outer loop
      vertex 51.2044 16.3377 0
      vertex 60 30.05 0
      vertex 51.3377 16.2044 0
    endloop
  endfacet
  facet normal 0 0 -1
    outer loop
      vertex 51.058 16.4562 0
      vertex 60 30.05 0
      vertex 51.2044 16.3377 0
    endloop
  endfacet
  facet normal 0 0 -1
    outer loop
      vertex 50.9 16.5588 0
      vertex 60 30.05 0
      vertex 51.058 16.4562 0
    endloop
  endfacet
  facet normal 0 0 -1
    outer loop
      vertex 50.7321 16.6444 0
      vertex 60 30.05 0
      vertex 50.9 16.5588 0
    endloop
  endfacet
  facet normal 0 0 -1
    outer loop
      vertex 50.5562 16.7119 0
      vertex 60 30.05 0
      vertex 50.7321 16.6444 0
    endloop
  endfacet
  facet normal 0 0 -1
    outer loop
      vertex 50.3742 16.7607 0
      vertex 60 30.05 0
      vertex 50.5562 16.7119 0
    endloop
  endfacet
  facet normal 0 0 -1
    outer loop
      vertex 50.1882 16.7901 0
      vertex 60 30.05 0
      vertex 50.3742 16.7607 0
    endloop
  endfacet
  facet normal 0 0 -1
    outer loop
      vertex 50 16.8 0
      vertex 60 30.05 0
      vertex 50.1882 16.7901 0
    endloop
  endfacet
  facet normal 0 0 -1
    outer loop
      vertex 49.8118 16.7901 0
      vertex 60 30.05 0
      vertex 50 16.8 0
    endloop
  endfacet
  facet normal 0 0 -1
    outer loop
      vertex 49.6258 16.7607 0
      vertex 60 30.05 0
      vertex 49.8118 16.7901 0
    endloop
  endfacet
  facet normal 0 0 -1
    outer loop
      vertex 49.4438 16.7119 0
      vertex 60 30.05 0
      vertex 49.6258 16.7607 0
    endloop
  endfacet
  facet normal 0 0 -1
    outer loop
      vertex 48.5438 16.058 0
      vertex 31.8 0 0
      vertex 48.6623 16.2044 0
    endloop
  endfacet
  facet normal 0 0 -1
    outer loop
      vertex 48.2881 15.5562 0
      vertex 31.8 0 0
      vertex 48.3556 15.7321 0
    endloop
  endfacet
  facet normal 0 0 -1
    outer loop
      vertex 49.4438 16.7119 0
      vertex 49.2679 16.6444 0
      vertex 60 30.05 0
    endloop
  endfacet
  facet normal 0 0 -1
    outer loop
      vertex 48.3556 15.7321 0
      vertex 31.8 0 0
      vertex 48.4412 15.9 0
    endloop
  endfacet
  facet normal 0 0 -1
    outer loop
      vertex 49.2679 16.6444 0
      vertex 49.1 16.5588 0
      vertex 60 30.05 0
    endloop
  endfacet
  facet normal 0 0 -1
    outer loop
      vertex 48.4412 15.9 0
      vertex 31.8 0 0
      vertex 48.5438 16.058 0
    endloop
  endfacet
  facet normal 0 0 -1
    outer loop
      vertex 49.1 16.5588 0
      vertex 48.942 16.4562 0
      vertex 60 30.05 0
    endloop
  endfacet
  facet normal 0 0 -1
    outer loop
      vertex 48.6623 16.2044 0
      vertex 31.8 0 0
      vertex 48.7956 16.3377 0
    endloop
  endfacet
  facet normal 0 0 -1
    outer loop
      vertex 48.942 16.4562 0
      vertex 48.7956 16.3377 0
      vertex 60 30.05 0
    endloop
  endfacet
  facet normal 0 0 -1
    outer loop
      vertex 48.2393 15.3742 0
      vertex 31.8 0 0
      vertex 48.2881 15.5562 0
    endloop
  endfacet
  facet normal 0 0 -1
    outer loop
      vertex 48.2099 15.1882 0
      vertex 31.8 0 0
      vertex 48.2393 15.3742 0
    endloop
  endfacet
  facet normal 0 0 -1
    outer loop
      vertex 48.2 15 0
      vertex 31.8 0 0
      vertex 48.2099 15.1882 0
    endloop
  endfacet
  facet normal 0 0 -1
    outer loop
      vertex 37.5 15.65 0
      vertex 31.8 12.5 0
      vertex 28.2 12.5 0
    endloop
  endfacet
  facet normal 0 0 -1
    outer loop
      vertex 5 0 0
      vertex 15 -5 0
      vertex 5 -5 0
    endloop
  endfacet
  facet normal 0 0 -1
    outer loop
      vertex 38.8442 24.1371 0
      vertex 57.2897 36.8455 0
      vertex 39.2693 23.9739 0
    endloop
  endfacet
  facet normal 0 0 -1
    outer loop
      vertex 40.4107 23.2327 0
      vertex 58.7631 34.8175 0
      vertex 40.7327 22.9107 0
    endloop
  endfacet
  facet normal 0 0 -1
    outer loop
      vertex 41.4739 21.7693 0
      vertex 59.6858 32.4869 0
      vertex 41.6371 21.3442 0
    endloop
  endfacet
  facet normal 0 0 -1
    outer loop
      vertex 41.8262 20.4547 0
      vertex 59.9937 30.05 0
      vertex 60 30.05 0
    endloop
  endfacet
  facet normal 0 0 -1
    outer loop
      vertex 41.8262 20.4547 0
      vertex 60 30.05 0
      vertex 41.85 20 0
    endloop
  endfacet
  facet normal 0 0 -1
    outer loop
      vertex 41.6371 18.6558 0
      vertex 60 30.05 0
      vertex 41.4739 18.2307 0
    endloop
  endfacet
  facet normal 6.12303e-17 1 0
    outer loop
      vertex 0.0592372 30 5
      vertex 0.0592372 30 0
      vertex 0 30 5
    endloop
  endfacet
  facet normal 6.12303e-17 1 0
    outer loop
      vertex 0 30 5
      vertex 0.0592372 30 0
      vertex 0 30 0
    endloop
  endfacet
  facet normal 0 0 1
    outer loop
      vertex 15 0 5
      vertex 28.2 0 5
      vertex 0 30 5
    endloop
  endfacet
  facet normal 0 0 1
    outer loop
      vertex 0 30 5
      vertex 0 0 5
      vertex 5 0 5
    endloop
  endfacet
  facet normal 0 0 1
    outer loop
      vertex 15 -5 5
      vertex 0 30 5
      vertex 5 0 5
    endloop
  endfacet
  facet normal 0 0 1
    outer loop
      vertex 5 -5 5
      vertex 15 -5 5
      vertex 5 0 5
    endloop
  endfacet
  facet normal 0 0 1
    outer loop
      vertex 15 -5 5
      vertex 15 0 5
      vertex 0 30 5
    endloop
  endfacet
  facet normal 0 0 1
    outer loop
      vertex 26.95 8.5 5
      vertex 28.2 8.5 5
      vertex 0 30 5
    endloop
  endfacet
  facet normal 0 0 1
    outer loop
      vertex 18.15 20 5
      vertex 18.1738 20.4547 5
      vertex 0 30 5
    endloop
  endfacet
  facet normal 0 0 1
    outer loop
      vertex 31.8 5.5 5
      vertex 31.8 0 5
      vertex 33.05 5.5 5
    endloop
  endfacet
  facet normal 0 0 1
    outer loop
      vertex 31.8 8.5 5
      vertex 33.05 8.5 5
      vertex 31.8 12.5 5
    endloop
  endfacet
  facet normal 0 0 1
    outer loop
      vertex 28.2 0 5
      vertex 26.95 5.5 5
      vertex 0 30 5
    endloop
  endfacet
  facet normal 0 0 1
    outer loop
      vertex 28.2 0 5
      vertex 28.2 5.5 5
      vertex 26.95 5.5 5
    endloop
  endfacet
  facet normal 0 0 1
    outer loop
      vertex 18.1738 20.4547 5
      vertex 18.2451 20.9044 5
      vertex 0.0592372 30 5
    endloop
  endfacet
  facet normal 0 0 1
    outer loop
      vertex 19.9431 16.4808 5
      vertex 19.5893 16.7673 5
      vertex 0 30 5
    endloop
  endfacet
  facet normal 0 0 1
    outer loop
      vertex 18.1738 20.4547 5
      vertex 0.0592372 30 5
      vertex 0 30 5
    endloop
  endfacet
  facet normal 0 0 1
    outer loop
      vertex 33.05 8.5 5
      vertex 45 0 5
      vertex 31.8 12.5 5
    endloop
  endfacet
  facet normal 0 0 1
    outer loop
      vertex 33.05 5.5 5
      vertex 45 0 5
      vertex 33.05 8.5 5
    endloop
  endfacet
  facet normal 0 0 1
    outer loop
      vertex 45 0 5
      vertex 55 -5 5
      vertex 31.8 12.5 5
    endloop
  endfacet
  facet normal 0 0 1
    outer loop
      vertex 22.5 24.35 5
      vertex 37.5 24.35 5
      vertex 60 30.05 5
    endloop
  endfacet
  facet normal 0 0 1
    outer loop
      vertex 31.8 0 5
      vertex 45 0 5
      vertex 33.05 5.5 5
    endloop
  endfacet
  facet normal 0 0 1
    outer loop
      vertex 45 -5 5
      vertex 55 -5 5
      vertex 45 0 5
    endloop
  endfacet
  facet normal 0 0 1
    outer loop
      vertex 55 -5 5
      vertex 55 0 5
      vertex 31.8 12.5 5
    endloop
  endfacet
  facet normal 0 0 1
    outer loop
      vertex 0.019733 30.6279 5
      vertex 1.55672 35.3583 5
      vertex 0.489435 33.0902 5
    endloop
  endfacet
  facet normal 0 0 1
    outer loop
      vertex 50 40 5
      vertex 9.95 40 5
      vertex 9.95 39.9937 5
    endloop
  endfacet
  facet normal 0 0 1
    outer loop
      vertex 22.0453 24.3262 5
      vertex 22.5 24.35 5
      vertex 60 30.05 5
    endloop
  endfacet
  facet normal 0 0 1
    outer loop
      vertex 22.0453 24.3262 5
      vertex 60 30.05 5
      vertex 0.0592372 30 5
    endloop
  endfacet
  facet normal 0 0 1
    outer loop
      vertex 18.2451 19.0956 5
      vertex 18.1738 19.5453 5
      vertex 0 30 5
    endloop
  endfacet
  facet normal 0 0 1
    outer loop
      vertex 18.1738 19.5453 5
      vertex 18.15 20 5
      vertex 0 30 5
    endloop
  endfacet
  facet normal 0 0 1
    outer loop
      vertex 18.2451 20.9044 5
      vertex 18.3629 21.3442 5
      vertex 0.0592372 30 5
    endloop
  endfacet
  facet normal 0 0 1
    outer loop
      vertex 41.0192 22.5569 5
      vertex 41.2672 22.175 5
      vertex 60 0 5
    endloop
  endfacet
  facet normal 0 0 1
    outer loop
      vertex 18.3629 21.3442 5
      vertex 18.5261 21.7693 5
      vertex 0.0592372 30 5
    endloop
  endfacet
  facet normal 0 0 1
    outer loop
      vertex 41.8262 20.4547 5
      vertex 41.85 20 5
      vertex 60 0 5
    endloop
  endfacet
  facet normal 0 0 1
    outer loop
      vertex 18.5261 21.7693 5
      vertex 18.7328 22.175 5
      vertex 0.0592372 30 5
    endloop
  endfacet
  facet normal 0 0 1
    outer loop
      vertex 18.7328 22.175 5
      vertex 18.9808 22.5569 5
      vertex 0.0592372 30 5
    endloop
  endfacet
  facet normal 0 0 1
    outer loop
      vertex 18.9808 22.5569 5
      vertex 19.2673 22.9107 5
      vertex 0.0592372 30 5
    endloop
  endfacet
  facet normal 0 0 1
    outer loop
      vertex 19.2673 22.9107 5
      vertex 19.5893 23.2327 5
      vertex 0.0592372 30 5
    endloop
  endfacet
  facet normal 0 0 1
    outer loop
      vertex 19.5893 23.2327 5
      vertex 19.9431 23.5192 5
      vertex 0.0592372 30 5
    endloop
  endfacet
  facet normal 0 0 1
    outer loop
      vertex 37.5 15.65 5
      vertex 55 0 5
      vertex 60 0 5
    endloop
  endfacet
  facet normal 0 0 1
    outer loop
      vertex 19.9431 23.5192 5
      vertex 20.325 23.7672 5
      vertex 0.0592372 30 5
    endloop
  endfacet
  facet normal 0 0 1
    outer loop
      vertex 37.5 15.65 5
      vertex 31.8 12.5 5
      vertex 55 0 5
    endloop
  endfacet
  facet normal 0 0 1
    outer loop
      vertex 20.325 23.7672 5
      vertex 20.7307 23.9739 5
      vertex 0.0592372 30 5
    endloop
  endfacet
  facet normal 0 0 1
    outer loop
      vertex 37.5 15.65 5
      vertex 28.2 12.5 5
      vertex 31.8 12.5 5
    endloop
  endfacet
  facet normal 0 0 1
    outer loop
      vertex 20.7307 23.9739 5
      vertex 21.1558 24.1371 5
      vertex 0.0592372 30 5
    endloop
  endfacet
  facet normal 0 0 1
    outer loop
      vertex 37.5 15.65 5
      vertex 22.5 15.65 5
      vertex 28.2 12.5 5
    endloop
  endfacet
  facet normal 0 0 1
    outer loop
      vertex 21.1558 24.1371 5
      vertex 21.5956 24.2549 5
      vertex 0.0592372 30 5
    endloop
  endfacet
  facet normal 0 0 1
    outer loop
      vertex 21.5956 24.2549 5
      vertex 22.0453 24.3262 5
      vertex 0.0592372 30 5
    endloop
  endfacet
  facet normal 0 0 1
    outer loop
      vertex 37.9547 24.3262 5
      vertex 60 30.05 5
      vertex 37.5 24.35 5
    endloop
  endfacet
  facet normal 0 0 1
    outer loop
      vertex 38.4044 24.2549 5
      vertex 60 30.05 5
      vertex 37.9547 24.3262 5
    endloop
  endfacet
  facet normal 0 0 1
    outer loop
      vertex 41.85 20 5
      vertex 41.8262 19.5453 5
      vertex 60 0 5
    endloop
  endfacet
  facet normal 0 0 1
    outer loop
      vertex 38.8442 24.1371 5
      vertex 60 30.05 5
      vertex 38.4044 24.2549 5
    endloop
  endfacet
  facet normal 0 0 1
    outer loop
      vertex 39.2693 23.9739 5
      vertex 60 30.05 5
      vertex 38.8442 24.1371 5
    endloop
  endfacet
  facet normal 0 0 1
    outer loop
      vertex 39.675 23.7672 5
      vertex 60 30.05 5
      vertex 39.2693 23.9739 5
    endloop
  endfacet
  facet normal 0 0 1
    outer loop
      vertex 40.0569 23.5192 5
      vertex 60 30.05 5
      vertex 39.675 23.7672 5
    endloop
  endfacet
  facet normal 0 0 1
    outer loop
      vertex 40.4107 23.2327 5
      vertex 60 30.05 5
      vertex 40.0569 23.5192 5
    endloop
  endfacet
  facet normal 0 0 1
    outer loop
      vertex 40.7327 22.9107 5
      vertex 60 30.05 5
      vertex 40.4107 23.2327 5
    endloop
  endfacet
  facet normal 0 0 1
    outer loop
      vertex 48.6623 16.2044 5
      vertex 60 30.05 5
      vertex 40.7327 22.9107 5
    endloop
  endfacet
  facet normal 0 0 1
    outer loop
      vertex 41.2672 22.175 5
      vertex 41.4739 21.7693 5
      vertex 60 0 5
    endloop
  endfacet
  facet normal 0 0 1
    outer loop
      vertex 60 0 5
      vertex 40.7327 22.9107 5
      vertex 41.0192 22.5569 5
    endloop
  endfacet
  facet normal 0 0 1
    outer loop
      vertex 41.4739 21.7693 5
      vertex 41.6371 21.3442 5
      vertex 60 0 5
    endloop
  endfacet
  facet normal 0 0 1
    outer loop
      vertex 41.6371 21.3442 5
      vertex 41.7549 20.9044 5
      vertex 60 0 5
    endloop
  endfacet
  facet normal 0 0 1
    outer loop
      vertex 41.7549 20.9044 5
      vertex 41.8262 20.4547 5
      vertex 60 0 5
    endloop
  endfacet
  facet normal 0 0 1
    outer loop
      vertex 18.5261 18.2307 5
      vertex 18.3629 18.6558 5
      vertex 0 30 5
    endloop
  endfacet
  facet normal 0 0 1
    outer loop
      vertex 60 0 5
      vertex 41.8262 19.5453 5
      vertex 41.7549 19.0956 5
    endloop
  endfacet
  facet normal 0 0 1
    outer loop
      vertex 60 0 5
      vertex 41.7549 19.0956 5
      vertex 41.6371 18.6558 5
    endloop
  endfacet
  facet normal 0 0 1
    outer loop
      vertex 60 0 5
      vertex 41.6371 18.6558 5
      vertex 41.4739 18.2307 5
    endloop
  endfacet
  facet normal 0 0 1
    outer loop
      vertex 60 0 5
      vertex 41.4739 18.2307 5
      vertex 41.2672 17.825 5
    endloop
  endfacet
  facet normal 0 0 1
    outer loop
      vertex 60 0 5
      vertex 41.2672 17.825 5
      vertex 41.0192 17.4431 5
    endloop
  endfacet
  facet normal 0 0 1
    outer loop
      vertex 60 0 5
      vertex 41.0192 17.4431 5
      vertex 40.7327 17.0893 5
    endloop
  endfacet
  facet normal 0 0 1
    outer loop
      vertex 60 0 5
      vertex 40.7327 17.0893 5
      vertex 40.4107 16.7673 5
    endloop
  endfacet
  facet normal 0 0 1
    outer loop
      vertex 60 0 5
      vertex 40.4107 16.7673 5
      vertex 40.0569 16.4808 5
    endloop
  endfacet
  facet normal 0 0 1
    outer loop
      vertex 60 0 5
      vertex 40.0569 16.4808 5
      vertex 39.675 16.2328 5
    endloop
  endfacet
  facet normal 0 0 1
    outer loop
      vertex 60 0 5
      vertex 39.675 16.2328 5
      vertex 39.2693 16.0261 5
    endloop
  endfacet
  facet normal 0 0 1
    outer loop
      vertex 60 0 5
      vertex 39.2693 16.0261 5
      vertex 38.8442 15.8629 5
    endloop
  endfacet
  facet normal 0 0 1
    outer loop
      vertex 60 0 5
      vertex 38.8442 15.8629 5
      vertex 38.4044 15.7451 5
    endloop
  endfacet
  facet normal 0 0 1
    outer loop
      vertex 60 0 5
      vertex 38.4044 15.7451 5
      vertex 37.9547 15.6738 5
    endloop
  endfacet
  facet normal 0 0 1
    outer loop
      vertex 60 0 5
      vertex 37.9547 15.6738 5
      vertex 37.5 15.65 5
    endloop
  endfacet
  facet normal 0 0 1
    outer loop
      vertex 48.6623 16.2044 5
      vertex 48.7956 16.3377 5
      vertex 60 30.05 5
    endloop
  endfacet
  facet normal 0 0 1
    outer loop
      vertex 28.2 8.5 5
      vertex 28.2 12.5 5
      vertex 22.5 15.65 5
    endloop
  endfacet
  facet normal 0 0 1
    outer loop
      vertex 48.942 16.4562 5
      vertex 49.1 16.5588 5
      vertex 60 30.05 5
    endloop
  endfacet
  facet normal 0 0 1
    outer loop
      vertex 28.2 8.5 5
      vertex 22.5 15.65 5
      vertex 22.0453 15.6738 5
    endloop
  endfacet
  facet normal 0 0 1
    outer loop
      vertex 28.2 8.5 5
      vertex 22.0453 15.6738 5
      vertex 21.5956 15.7451 5
    endloop
  endfacet
  facet normal 0 0 1
    outer loop
      vertex 18.9808 17.4431 5
      vertex 18.7328 17.825 5
      vertex 0 30 5
    endloop
  endfacet
  facet normal 0 0 1
    outer loop
      vertex 28.2 8.5 5
      vertex 21.5956 15.7451 5
      vertex 21.1558 15.8629 5
    endloop
  endfacet
  facet normal 0 0 1
    outer loop
      vertex 19.2673 17.0893 5
      vertex 18.9808 17.4431 5
      vertex 0 30 5
    endloop
  endfacet
  facet normal 0 0 1
    outer loop
      vertex 28.2 8.5 5
      vertex 21.1558 15.8629 5
      vertex 20.7307 16.0261 5
    endloop
  endfacet
  facet normal 0 0 1
    outer loop
      vertex 19.5893 16.7673 5
      vertex 19.2673 17.0893 5
      vertex 0 30 5
    endloop
  endfacet
  facet normal 0 0 1
    outer loop
      vertex 28.2 8.5 5
      vertex 20.7307 16.0261 5
      vertex 20.325 16.2328 5
    endloop
  endfacet
  facet normal 0 0 1
    outer loop
      vertex 28.2 8.5 5
      vertex 19.9431 16.4808 5
      vertex 0 30 5
    endloop
  endfacet
  facet normal 0 0 1
    outer loop
      vertex 28.2 8.5 5
      vertex 20.325 16.2328 5
      vertex 19.9431 16.4808 5
    endloop
  endfacet
  facet normal 0 0 1
    outer loop
      vertex 18.7328 17.825 5
      vertex 18.5261 18.2307 5
      vertex 0 30 5
    endloop
  endfacet
  facet normal 0 0 1
    outer loop
      vertex 18.3629 18.6558 5
      vertex 18.2451 19.0956 5
      vertex 0 30 5
    endloop
  endfacet
  facet normal 0 0 1
    outer loop
      vertex 48.2393 14.6258 5
      vertex 48.2099 14.8118 5
      vertex 40.7327 22.9107 5
    endloop
  endfacet
  facet normal 0 0 1
    outer loop
      vertex 48.2099 14.8118 5
      vertex 48.2 15 5
      vertex 40.7327 22.9107 5
    endloop
  endfacet
  facet normal 0 0 1
    outer loop
      vertex 48.2 15 5
      vertex 48.2099 15.1882 5
      vertex 40.7327 22.9107 5
    endloop
  endfacet
  facet normal 0 0 1
    outer loop
      vertex 48.2099 15.1882 5
      vertex 48.2393 15.3742 5
      vertex 40.7327 22.9107 5
    endloop
  endfacet
  facet normal 0 0 1
    outer loop
      vertex 48.2393 15.3742 5
      vertex 48.2881 15.5562 5
      vertex 40.7327 22.9107 5
    endloop
  endfacet
  facet normal 0 0 1
    outer loop
      vertex 48.2881 15.5562 5
      vertex 48.3556 15.7321 5
      vertex 40.7327 22.9107 5
    endloop
  endfacet
  facet normal 0 0 1
    outer loop
      vertex 49.1 16.5588 5
      vertex 49.2679 16.6444 5
      vertex 60 30.05 5
    endloop
  endfacet
  facet normal 0 0 1
    outer loop
      vertex 48.3556 15.7321 5
      vertex 48.4412 15.9 5
      vertex 40.7327 22.9107 5
    endloop
  endfacet
  facet normal 0 0 1
    outer loop
      vertex 48.4412 15.9 5
      vertex 48.5438 16.058 5
      vertex 40.7327 22.9107 5
    endloop
  endfacet
  facet normal 0 0 1
    outer loop
      vertex 48.5438 16.058 5
      vertex 48.6623 16.2044 5
      vertex 40.7327 22.9107 5
    endloop
  endfacet
  facet normal 0 0 1
    outer loop
      vertex 48.7956 16.3377 5
      vertex 48.942 16.4562 5
      vertex 60 30.05 5
    endloop
  endfacet
  facet normal 0 0 1
    outer loop
      vertex 51.7119 14.4438 5
      vertex 51.6444 14.2679 5
      vertex 60 0 5
    endloop
  endfacet
  facet normal 0 0 1
    outer loop
      vertex 49.2679 16.6444 5
      vertex 49.4438 16.7119 5
      vertex 60 30.05 5
    endloop
  endfacet
  facet normal 0 0 1
    outer loop
      vertex 49.4438 16.7119 5
      vertex 49.6258 16.7607 5
      vertex 60 30.05 5
    endloop
  endfacet
  facet normal 0 0 1
    outer loop
      vertex 49.6258 16.7607 5
      vertex 49.8118 16.7901 5
      vertex 60 30.05 5
    endloop
  endfacet
  facet normal 0 0 1
    outer loop
      vertex 51.6444 15.7321 5
      vertex 51.7119 15.5562 5
      vertex 60 0 5
    endloop
  endfacet
  facet normal 0 0 1
    outer loop
      vertex 50 16.8 5
      vertex 60 30.05 5
      vertex 49.8118 16.7901 5
    endloop
  endfacet
  facet normal 0 0 1
    outer loop
      vertex 50.1882 16.7901 5
      vertex 60 30.05 5
      vertex 50 16.8 5
    endloop
  endfacet
  facet normal 0 0 1
    outer loop
      vertex 50.3742 16.7607 5
      vertex 60 30.05 5
      vertex 50.1882 16.7901 5
    endloop
  endfacet
  facet normal 0 0 1
    outer loop
      vertex 51.6444 14.2679 5
      vertex 51.5588 14.1 5
      vertex 60 0 5
    endloop
  endfacet
  facet normal 0 0 1
    outer loop
      vertex 50.5562 16.7119 5
      vertex 60 30.05 5
      vertex 50.3742 16.7607 5
    endloop
  endfacet
  facet normal 0 0 1
    outer loop
      vertex 50.7321 16.6444 5
      vertex 60 30.05 5
      vertex 50.5562 16.7119 5
    endloop
  endfacet
  facet normal 0 0 1
    outer loop
      vertex 50.9 16.5588 5
      vertex 60 30.05 5
      vertex 50.7321 16.6444 5
    endloop
  endfacet
  facet normal 0 0 1
    outer loop
      vertex 51.058 16.4562 5
      vertex 60 30.05 5
      vertex 50.9 16.5588 5
    endloop
  endfacet
  facet normal 0 0 1
    outer loop
      vertex 51.2044 16.3377 5
      vertex 60 30.05 5
      vertex 51.058 16.4562 5
    endloop
  endfacet
  facet normal 0 0 1
    outer loop
      vertex 51.3377 16.2044 5
      vertex 60 30.05 5
      vertex 51.2044 16.3377 5
    endloop
  endfacet
  facet normal 0 0 1
    outer loop
      vertex 51.4562 16.058 5
      vertex 60 30.05 5
      vertex 51.3377 16.2044 5
    endloop
  endfacet
  facet normal 0 0 1
    outer loop
      vertex 51.5588 15.9 5
      vertex 60 30.05 5
      vertex 51.4562 16.058 5
    endloop
  endfacet
  facet normal 0 0 1
    outer loop
      vertex 60 0 5
      vertex 60 30.05 5
      vertex 51.5588 15.9 5
    endloop
  endfacet
  facet normal 0 0 1
    outer loop
      vertex 51.7119 15.5562 5
      vertex 51.7607 15.3742 5
      vertex 60 0 5
    endloop
  endfacet
  facet normal 0 0 1
    outer loop
      vertex 60 0 5
      vertex 51.5588 15.9 5
      vertex 51.6444 15.7321 5
    endloop
  endfacet
  facet normal 0 0 1
    outer loop
      vertex 51.7607 15.3742 5
      vertex 51.7901 15.1882 5
      vertex 60 0 5
    endloop
  endfacet
  facet normal 0 0 1
    outer loop
      vertex 51.7901 15.1882 5
      vertex 51.8 15 5
      vertex 60 0 5
    endloop
  endfacet
  facet normal 0 0 1
    outer loop
      vertex 51.8 15 5
      vertex 51.7901 14.8118 5
      vertex 60 0 5
    endloop
  endfacet
  facet normal 0 0 1
    outer loop
      vertex 51.7901 14.8118 5
      vertex 51.7607 14.6258 5
      vertex 60 0 5
    endloop
  endfacet
  facet normal 0 0 1
    outer loop
      vertex 51.7607 14.6258 5
      vertex 51.7119 14.4438 5
      vertex 60 0 5
    endloop
  endfacet
  facet normal 0 0 1
    outer loop
      vertex 51.5588 14.1 5
      vertex 51.4562 13.942 5
      vertex 60 0 5
    endloop
  endfacet
  facet normal 0 0 1
    outer loop
      vertex 49.4438 13.2881 5
      vertex 49.2679 13.3556 5
      vertex 60 0 5
    endloop
  endfacet
  facet normal 0 0 1
    outer loop
      vertex 60 0 5
      vertex 51.4562 13.942 5
      vertex 51.3377 13.7956 5
    endloop
  endfacet
  facet normal 0 0 1
    outer loop
      vertex 60 0 5
      vertex 51.3377 13.7956 5
      vertex 51.2044 13.6623 5
    endloop
  endfacet
  facet normal 0 0 1
    outer loop
      vertex 60 0 5
      vertex 51.2044 13.6623 5
      vertex 51.058 13.5438 5
    endloop
  endfacet
  facet normal 0 0 1
    outer loop
      vertex 60 0 5
      vertex 51.058 13.5438 5
      vertex 50.9 13.4412 5
    endloop
  endfacet
  facet normal 0 0 1
    outer loop
      vertex 60 0 5
      vertex 50.9 13.4412 5
      vertex 50.7321 13.3556 5
    endloop
  endfacet
  facet normal 0 0 1
    outer loop
      vertex 60 0 5
      vertex 50.7321 13.3556 5
      vertex 50.5562 13.2881 5
    endloop
  endfacet
  facet normal 0 0 1
    outer loop
      vertex 60 0 5
      vertex 50.5562 13.2881 5
      vertex 50.3742 13.2393 5
    endloop
  endfacet
  facet normal 0 0 1
    outer loop
      vertex 60 0 5
      vertex 50.3742 13.2393 5
      vertex 50.1882 13.2099 5
    endloop
  endfacet
  facet normal 0 0 1
    outer loop
      vertex 60 0 5
      vertex 50.1882 13.2099 5
      vertex 50 13.2 5
    endloop
  endfacet
  facet normal 0 0 1
    outer loop
      vertex 60 0 5
      vertex 50 13.2 5
      vertex 49.8118 13.2099 5
    endloop
  endfacet
  facet normal 0 0 1
    outer loop
      vertex 60 0 5
      vertex 49.8118 13.2099 5
      vertex 49.6258 13.2393 5
    endloop
  endfacet
  facet normal 0 0 1
    outer loop
      vertex 48.5438 13.942 5
      vertex 48.4412 14.1 5
      vertex 40.7327 22.9107 5
    endloop
  endfacet
  facet normal 0 0 1
    outer loop
      vertex 60 0 5
      vertex 49.6258 13.2393 5
      vertex 49.4438 13.2881 5
    endloop
  endfacet
  facet normal 0 0 1
    outer loop
      vertex 48.2881 14.4438 5
      vertex 48.2393 14.6258 5
      vertex 40.7327 22.9107 5
    endloop
  endfacet
  facet normal 0 0 1
    outer loop
      vertex 60 0 5
      vertex 49.2679 13.3556 5
      vertex 49.1 13.4412 5
    endloop
  endfacet
  facet normal 0 0 1
    outer loop
      vertex 48.3556 14.2679 5
      vertex 48.2881 14.4438 5
      vertex 40.7327 22.9107 5
    endloop
  endfacet
  facet normal 0 0 1
    outer loop
      vertex 60 0 5
      vertex 49.1 13.4412 5
      vertex 48.942 13.5438 5
    endloop
  endfacet
  facet normal 0 0 1
    outer loop
      vertex 48.4412 14.1 5
      vertex 48.3556 14.2679 5
      vertex 40.7327 22.9107 5
    endloop
  endfacet
  facet normal 0 0 1
    outer loop
      vertex 60 0 5
      vertex 48.942 13.5438 5
      vertex 48.7956 13.6623 5
    endloop
  endfacet
  facet normal 0 0 1
    outer loop
      vertex 60 0 5
      vertex 48.6623 13.7956 5
      vertex 40.7327 22.9107 5
    endloop
  endfacet
  facet normal 0 0 1
    outer loop
      vertex 60 0 5
      vertex 48.7956 13.6623 5
      vertex 48.6623 13.7956 5
    endloop
  endfacet
  facet normal 0 0 1
    outer loop
      vertex 48.6623 13.7956 5
      vertex 48.5438 13.942 5
      vertex 40.7327 22.9107 5
    endloop
  endfacet
  facet normal 0 0 1
    outer loop
      vertex 26.95 5.5 5
      vertex 26.95 8.5 5
      vertex 0 30 5
    endloop
  endfacet
  facet normal 0 0 1
    outer loop
      vertex 0.019733 30.6279 5
      vertex 3.15453 37.2897 5
      vertex 1.55672 35.3583 5
    endloop
  endfacet
  facet normal 0 0 1
    outer loop
      vertex 0.019733 30.6279 5
      vertex 5.18246 38.7631 5
      vertex 3.15453 37.2897 5
    endloop
  endfacet
  facet normal 0 0 1
    outer loop
      vertex 0.019733 30.6279 5
      vertex 7.5131 39.6858 5
      vertex 5.18246 38.7631 5
    endloop
  endfacet
  facet normal 0 0 1
    outer loop
      vertex 0.019733 30.6279 5
      vertex 9.95 39.9937 5
      vertex 7.5131 39.6858 5
    endloop
  endfacet
  facet normal 0 0 1
    outer loop
      vertex 0.019733 30.6279 5
      vertex 50 40 5
      vertex 9.95 39.9937 5
    endloop
  endfacet
  facet normal 0 0 1
    outer loop
      vertex 0.019733 30.6279 5
      vertex 50 39.9408 5
      vertex 50 40 5
    endloop
  endfacet
  facet normal 0 0 1
    outer loop
      vertex 0.019733 30.6279 5
      vertex 50.6279 39.9803 5
      vertex 50 39.9408 5
    endloop
  endfacet
  facet normal 0 0 1
    outer loop
      vertex 0.019733 30.6279 5
      vertex 53.0902 39.5106 5
      vertex 50.6279 39.9803 5
    endloop
  endfacet
  facet normal 0 0 1
    outer loop
      vertex 0.019733 30.6279 5
      vertex 55.3583 38.4433 5
      vertex 53.0902 39.5106 5
    endloop
  endfacet
  facet normal 0 0 1
    outer loop
      vertex 0.019733 30.6279 5
      vertex 57.2897 36.8455 5
      vertex 55.3583 38.4433 5
    endloop
  endfacet
  facet normal 0 0 1
    outer loop
      vertex 0.019733 30.6279 5
      vertex 58.7631 34.8175 5
      vertex 57.2897 36.8455 5
    endloop
  endfacet
  facet normal 0 0 1
    outer loop
      vertex 0.019733 30.6279 5
      vertex 59.6858 32.4869 5
      vertex 58.7631 34.8175 5
    endloop
  endfacet
  facet normal 0 0 1
    outer loop
      vertex 0.019733 30.6279 5
      vertex 59.9937 30.05 5
      vertex 59.6858 32.4869 5
    endloop
  endfacet
  facet normal 0 0 1
    outer loop
      vertex 59.9937 30.05 5
      vertex 0.0592372 30 5
      vertex 60 30.05 5
    endloop
  endfacet
  facet normal 0 0 1
    outer loop
      vertex 0.019733 30.6279 5
      vertex 0.0592372 30 5
      vertex 59.9937 30.05 5
    endloop
  endfacet
  facet normal -1 0 0
    outer loop
      vertex 5 -5 0
      vertex 5 -5 5
      vertex 5 0 0
    endloop
  endfacet
  facet normal -1 0 0
    outer loop
      vertex 5 0 0
      vertex 5 -5 5
      vertex 5 0 5
    endloop
  endfacet
  facet normal 0 -1 0
    outer loop
      vertex 5 -5 5
      vertex 5 -5 0
      vertex 15 -5 0
    endloop
  endfacet
  facet normal 0 -1 0
    outer loop
      vertex 15 -5 5
      vertex 5 -5 5
      vertex 15 -5 0
    endloop
  endfacet
  facet normal 1 0 0
    outer loop
      vertex 15 -5 5
      vertex 15 -5 0
      vertex 15 0 0
    endloop
  endfacet
  facet normal 1 0 0
    outer loop
      vertex 15 0 5
      vertex 15 -5 5
      vertex 15 0 0
    endloop
  endfacet
  facet normal 0 -1 0
    outer loop
      vertex 15 0 5
      vertex 15 0 0
      vertex 28.2 0 0
    endloop
  endfacet
  facet normal 0 -1 0
    outer loop
      vertex 28.2 0 5
      vertex 15 0 5
      vertex 28.2 0 0
    endloop
  endfacet
  facet normal 1 -1.22461e-16 0
    outer loop
      vertex 28.2 5.5 0
      vertex 28.2 5.5 5
      vertex 28.2 0 5
    endloop
  endfacet
  facet normal 1 -1.22461e-16 0
    outer loop
      vertex 28.2 0 0
      vertex 28.2 5.5 0
      vertex 28.2 0 5
    endloop
  endfacet
  facet normal 1.22461e-16 1 0
    outer loop
      vertex 28.2 5.5 5
      vertex 28.2 5.5 0
      vertex 26.95 5.5 5
    endloop
  endfacet
  facet normal 1.22461e-16 1 0
    outer loop
      vertex 26.95 5.5 5
      vertex 28.2 5.5 0
      vertex 26.95 5.5 0
    endloop
  endfacet
  facet normal 1 -1.22461e-16 0
    outer loop
      vertex 26.95 8.5 0
      vertex 26.95 8.5 5
      vertex 26.95 5.5 5
    endloop
  endfacet
  facet normal 1 -1.22461e-16 0
    outer loop
      vertex 26.95 5.5 0
      vertex 26.95 8.5 0
      vertex 26.95 5.5 5
    endloop
  endfacet
  facet normal -1.22461e-16 -1 0
    outer loop
      vertex 28.2 8.5 0
      vertex 28.2 8.5 5
      vertex 26.95 8.5 5
    endloop
  endfacet
  facet normal -1.22461e-16 -1 0
    outer loop
      vertex 26.95 8.5 0
      vertex 28.2 8.5 0
      vertex 26.95 8.5 5
    endloop
  endfacet
  facet normal 1 -1.22461e-16 0
    outer loop
      vertex 28.2 12.5 0
      vertex 28.2 12.5 5
      vertex 28.2 8.5 5
    endloop
  endfacet
  facet normal 1 -1.22461e-16 0
    outer loop
      vertex 28.2 8.5 0
      vertex 28.2 12.5 0
      vertex 28.2 8.5 5
    endloop
  endfacet
  facet normal -1.22461e-16 -1 0
    outer loop
      vertex 31.8 12.5 0
      vertex 31.8 12.5 5
      vertex 28.2 12.5 5
    endloop
  endfacet
  facet normal -1.22461e-16 -1 0
    outer loop
      vertex 28.2 12.5 0
      vertex 31.8 12.5 0
      vertex 28.2 12.5 5
    endloop
  endfacet
  facet normal -1 1.22461e-16 0
    outer loop
      vertex 31.8 12.5 5
      vertex 31.8 12.5 0
      vertex 31.8 8.5 5
    endloop
  endfacet
  facet normal -1 1.22461e-16 0
    outer loop
      vertex 31.8 8.5 5
      vertex 31.8 12.5 0
      vertex 31.8 8.5 0
    endloop
  endfacet
  facet normal -1.22461e-16 -1 0
    outer loop
      vertex 33.05 8.5 0
      vertex 33.05 8.5 5
      vertex 31.8 8.5 5
    endloop
  endfacet
  facet normal -1.22461e-16 -1 0
    outer loop
      vertex 31.8 8.5 0
      vertex 33.05 8.5 0
      vertex 31.8 8.5 5
    endloop
  endfacet
  facet normal -1 1.22461e-16 0
    outer loop
      vertex 33.05 8.5 5
      vertex 33.05 8.5 0
      vertex 33.05 5.5 5
    endloop
  endfacet
  facet normal -1 1.22461e-16 0
    outer loop
      vertex 33.05 5.5 5
      vertex 33.05 8.5 0
      vertex 33.05 5.5 0
    endloop
  endfacet
  facet normal 1.22461e-16 1 0
    outer loop
      vertex 33.05 5.5 5
      vertex 33.05 5.5 0
      vertex 31.8 5.5 5
    endloop
  endfacet
  facet normal 1.22461e-16 1 0
    outer loop
      vertex 31.8 5.5 5
      vertex 33.05 5.5 0
      vertex 31.8 5.5 0
    endloop
  endfacet
  facet normal -1 1.22461e-16 0
    outer loop
      vertex 31.8 5.5 5
      vertex 31.8 5.5 0
      vertex 31.8 0 5
    endloop
  endfacet
  facet normal -1 1.22461e-16 0
    outer loop
      vertex 31.8 0 5
      vertex 31.8 5.5 0
      vertex 31.8 0 0
    endloop
  endfacet
  facet normal 0 -1 0
    outer loop
      vertex 31.8 0 5
      vertex 31.8 0 0
      vertex 45 0 0
    endloop
  endfacet
  facet normal 0 -1 0
    outer loop
      vertex 45 0 5
      vertex 31.8 0 5
      vertex 45 0 0
    endloop
  endfacet
  facet normal -1 0 0
    outer loop
      vertex 45 -5 0
      vertex 45 -5 5
      vertex 45 0 0
    endloop
  endfacet
  facet normal -1 0 0
    outer loop
      vertex 45 0 0
      vertex 45 -5 5
      vertex 45 0 5
    endloop
  endfacet
  facet normal 0 -1 0
    outer loop
      vertex 45 -5 5
      vertex 45 -5 0
      vertex 55 -5 0
    endloop
  endfacet
  facet normal 0 -1 0
    outer loop
      vertex 55 -5 5
      vertex 45 -5 5
      vertex 55 -5 0
    endloop
  endfacet
  facet normal 1 0 0
    outer loop
      vertex 55 -5 5
      vertex 55 -5 0
      vertex 55 0 0
    endloop
  endfacet
  facet normal 1 0 0
    outer loop
      vertex 55 0 5
      vertex 55 -5 5
      vertex 55 0 0
    endloop
  endfacet
  facet normal 0 -1 0
    outer loop
      vertex 55 0 5
      vertex 55 0 0
      vertex 60 0 0
    endloop
  endfacet
  facet normal 0 -1 0
    outer loop
      vertex 60 0 5
      vertex 55 0 5
      vertex 60 0 0
    endloop
  endfacet
  facet normal 1 0 0
    outer loop
      vertex 60 0 5
      vertex 60 0 0
      vertex 60 30.05 0
    endloop
  endfacet
  facet normal 1 0 0
    outer loop
      vertex 60 30.05 5
      vertex 60 0 5
      vertex 60 30.05 0
    endloop
  endfacet
  facet normal 0 1 0
    outer loop
      vertex 60 30.05 5
      vertex 60 30.05 0
      vertex 59.9937 30.05 5
    endloop
  endfacet
  facet normal 0 1 0
    outer loop
      vertex 59.9937 30.05 5
      vertex 60 30.05 0
      vertex 59.9937 30.05 0
    endloop
  endfacet
  facet normal 0.992115 0.125333 0
    outer loop
      vertex 59.9937 30.05 0
      vertex 59.6858 32.4869 0
      vertex 59.6858 32.4869 5
    endloop
  endfacet
  facet normal 0.992115 0.125333 0
    outer loop
      vertex 59.9937 30.05 5
      vertex 59.9937 30.05 0
      vertex 59.6858 32.4869 5
    endloop
  endfacet
  facet normal 0.929776 0.368125 0
    outer loop
      vertex 59.6858 32.4869 0
      vertex 58.7631 34.8175 0
      vertex 58.7631 34.8175 5
    endloop
  endfacet
  facet normal 0.929776 0.368125 0
    outer loop
      vertex 59.6858 32.4869 5
      vertex 59.6858 32.4869 0
      vertex 58.7631 34.8175 5
    endloop
  endfacet
  facet normal 0.809017 0.587785 0
    outer loop
      vertex 58.7631 34.8175 0
      vertex 57.2897 36.8455 0
      vertex 57.2897 36.8455 5
    endloop
  endfacet
  facet normal 0.809017 0.587785 0
    outer loop
      vertex 58.7631 34.8175 5
      vertex 58.7631 34.8175 0
      vertex 57.2897 36.8455 5
    endloop
  endfacet
  facet normal 0.637424 0.770513 0
    outer loop
      vertex 55.3583 38.4433 0
      vertex 55.3583 38.4433 5
      vertex 57.2897 36.8455 0
    endloop
  endfacet
  facet normal 0.637424 0.770513 0
    outer loop
      vertex 57.2897 36.8455 0
      vertex 55.3583 38.4433 5
      vertex 57.2897 36.8455 5
    endloop
  endfacet
  facet normal 0.425779 0.904827 0
    outer loop
      vertex 53.0902 39.5106 0
      vertex 53.0902 39.5106 5
      vertex 55.3583 38.4433 0
    endloop
  endfacet
  facet normal 0.425779 0.904827 0
    outer loop
      vertex 55.3583 38.4433 0
      vertex 53.0902 39.5106 5
      vertex 55.3583 38.4433 5
    endloop
  endfacet
  facet normal 0.187381 0.982287 0
    outer loop
      vertex 50.6279 39.9803 0
      vertex 50.6279 39.9803 5
      vertex 53.0902 39.5106 0
    endloop
  endfacet
  facet normal 0.187381 0.982287 0
    outer loop
      vertex 53.0902 39.5106 0
      vertex 50.6279 39.9803 5
      vertex 53.0902 39.5106 5
    endloop
  endfacet
  facet normal -0.0627902 0.998027 0
    outer loop
      vertex 50 39.9408 0
      vertex 50 39.9408 5
      vertex 50.6279 39.9803 0
    endloop
  endfacet
  facet normal -0.0627902 0.998027 0
    outer loop
      vertex 50.6279 39.9803 0
      vertex 50 39.9408 5
      vertex 50.6279 39.9803 5
    endloop
  endfacet
  facet normal 1 0 0
    outer loop
      vertex 50 40 0
      vertex 50 40 5
      vertex 50 39.9408 5
    endloop
  endfacet
  facet normal 1 0 0
    outer loop
      vertex 50 39.9408 0
      vertex 50 40 0
      vertex 50 39.9408 5
    endloop
  endfacet
  facet normal 0 1 0
    outer loop
      vertex 9.95 40 0
      vertex 9.95 40 5
      vertex 50 40 0
    endloop
  endfacet
  facet normal 0 1 0
    outer loop
      vertex 50 40 0
      vertex 9.95 40 5
      vertex 50 40 5
    endloop
  endfacet
  facet normal -1 6.12303e-17 0
    outer loop
      vertex 9.95 40 5
      vertex 9.95 40 0
      vertex 9.95 39.9937 5
    endloop
  endfacet
  facet normal -1 6.12303e-17 0
    outer loop
      vertex 9.95 39.9937 5
      vertex 9.95 40 0
      vertex 9.95 39.9937 0
    endloop
  endfacet
  facet normal -0.125333 0.992115 0
    outer loop
      vertex 7.5131 39.6858 0
      vertex 7.5131 39.6858 5
      vertex 9.95 39.9937 0
    endloop
  endfacet
  facet normal -0.125333 0.992115 0
    outer loop
      vertex 9.95 39.9937 0
      vertex 7.5131 39.6858 5
      vertex 9.95 39.9937 5
    endloop
  endfacet
  facet normal -0.368125 0.929776 0
    outer loop
      vertex 5.18246 38.7631 0
      vertex 5.18246 38.7631 5
      vertex 7.5131 39.6858 0
    endloop
  endfacet
  facet normal -0.368125 0.929776 0
    outer loop
      vertex 7.5131 39.6858 0
      vertex 5.18246 38.7631 5
      vertex 7.5131 39.6858 5
    endloop
  endfacet
  facet normal -0.587785 0.809017 0
    outer loop
      vertex 3.15453 37.2897 0
      vertex 3.15453 37.2897 5
      vertex 5.18246 38.7631 0
    endloop
  endfacet
  facet normal -0.587785 0.809017 0
    outer loop
      vertex 5.18246 38.7631 0
      vertex 3.15453 37.2897 5
      vertex 5.18246 38.7631 5
    endloop
  endfacet
  facet normal -0.770513 0.637424 0
    outer loop
      vertex 1.55672 35.3583 0
      vertex 1.55672 35.3583 5
      vertex 3.15453 37.2897 0
    endloop
  endfacet
  facet normal -0.770513 0.637424 0
    outer loop
      vertex 3.15453 37.2897 0
      vertex 1.55672 35.3583 5
      vertex 3.15453 37.2897 5
    endloop
  endfacet
  facet normal -0.904827 0.425779 0
    outer loop
      vertex 0.489435 33.0902 0
      vertex 0.489435 33.0902 5
      vertex 1.55672 35.3583 0
    endloop
  endfacet
  facet normal -0.904827 0.425779 0
    outer loop
      vertex 1.55672 35.3583 0
      vertex 0.489435 33.0902 5
      vertex 1.55672 35.3583 5
    endloop
  endfacet
  facet normal -0.982287 0.187381 0
    outer loop
      vertex 0.019733 30.6279 0
      vertex 0.019733 30.6279 5
      vertex 0.489435 33.0902 0
    endloop
  endfacet
  facet normal -0.982287 0.187381 0
    outer loop
      vertex 0.489435 33.0902 0
      vertex 0.019733 30.6279 5
      vertex 0.489435 33.0902 5
    endloop
  endfacet
  facet normal -0.998027 -0.0627902 0
    outer loop
      vertex 0.019733 30.6279 0
      vertex 0.0592372 30 0
      vertex 0.019733 30.6279 5
    endloop
  endfacet
  facet normal -0.998027 -0.0627902 0
    outer loop
      vertex 0.019733 30.6279 5
      vertex 0.0592372 30 0
      vertex 0.0592372 30 5
    endloop
  endfacet
  facet normal 0.99863 -0.0523365 0
    outer loop
      vertex 18.1738 20.4547 0
      vertex 18.1738 20.4547 5
      vertex 18.15 20 5
    endloop
  endfacet
  facet normal 0.99863 -0.0523365 0
    outer loop
      vertex 18.15 20 0
      vertex 18.1738 20.4547 0
      vertex 18.15 20 5
    endloop
  endfacet
  facet normal 0.99863 0.0523365 0
    outer loop
      vertex 18.15 20 5
      vertex 18.1738 19.5453 5
      vertex 18.1738 19.5453 0
    endloop
  endfacet
  facet normal 0.99863 0.0523365 0
    outer loop
      vertex 18.15 20 0
      vertex 18.15 20 5
      vertex 18.1738 19.5453 0
    endloop
  endfacet
  facet normal 0.987688 -0.156434 0
    outer loop
      vertex 18.2451 20.9044 0
      vertex 18.2451 20.9044 5
      vertex 18.1738 20.4547 5
    endloop
  endfacet
  facet normal 0.987688 -0.156434 0
    outer loop
      vertex 18.1738 20.4547 0
      vertex 18.2451 20.9044 0
      vertex 18.1738 20.4547 5
    endloop
  endfacet
  facet normal 0.965926 -0.258819 0
    outer loop
      vertex 18.3629 21.3442 0
      vertex 18.3629 21.3442 5
      vertex 18.2451 20.9044 5
    endloop
  endfacet
  facet normal 0.965926 -0.258819 0
    outer loop
      vertex 18.2451 20.9044 0
      vertex 18.3629 21.3442 0
      vertex 18.2451 20.9044 5
    endloop
  endfacet
  facet normal 0.93358 -0.358368 0
    outer loop
      vertex 18.5261 21.7693 0
      vertex 18.5261 21.7693 5
      vertex 18.3629 21.3442 5
    endloop
  endfacet
  facet normal 0.93358 -0.358368 0
    outer loop
      vertex 18.3629 21.3442 0
      vertex 18.5261 21.7693 0
      vertex 18.3629 21.3442 5
    endloop
  endfacet
  facet normal 0.891007 -0.45399 0
    outer loop
      vertex 18.7328 22.175 0
      vertex 18.7328 22.175 5
      vertex 18.5261 21.7693 5
    endloop
  endfacet
  facet normal 0.891007 -0.45399 0
    outer loop
      vertex 18.5261 21.7693 0
      vertex 18.7328 22.175 0
      vertex 18.5261 21.7693 5
    endloop
  endfacet
  facet normal 0.83867 -0.54464 0
    outer loop
      vertex 18.9808 22.5569 0
      vertex 18.9808 22.5569 5
      vertex 18.7328 22.175 5
    endloop
  endfacet
  facet normal 0.83867 -0.54464 0
    outer loop
      vertex 18.7328 22.175 0
      vertex 18.9808 22.5569 0
      vertex 18.7328 22.175 5
    endloop
  endfacet
  facet normal 0.777146 -0.629321 0
    outer loop
      vertex 19.2673 22.9107 0
      vertex 19.2673 22.9107 5
      vertex 18.9808 22.5569 5
    endloop
  endfacet
  facet normal 0.777146 -0.629321 0
    outer loop
      vertex 18.9808 22.5569 0
      vertex 19.2673 22.9107 0
      vertex 18.9808 22.5569 5
    endloop
  endfacet
  facet normal 0.707107 -0.707107 0
    outer loop
      vertex 19.5893 23.2327 0
      vertex 19.5893 23.2327 5
      vertex 19.2673 22.9107 5
    endloop
  endfacet
  facet normal 0.707107 -0.707107 0
    outer loop
      vertex 19.2673 22.9107 0
      vertex 19.5893 23.2327 0
      vertex 19.2673 22.9107 5
    endloop
  endfacet
  facet normal 0.629321 -0.777146 0
    outer loop
      vertex 19.9431 23.5192 0
      vertex 19.9431 23.5192 5
      vertex 19.5893 23.2327 5
    endloop
  endfacet
  facet normal 0.629321 -0.777146 0
    outer loop
      vertex 19.5893 23.2327 0
      vertex 19.9431 23.5192 0
      vertex 19.5893 23.2327 5
    endloop
  endfacet
  facet normal 0.54464 -0.83867 0
    outer loop
      vertex 20.325 23.7672 0
      vertex 20.325 23.7672 5
      vertex 19.9431 23.5192 5
    endloop
  endfacet
  facet normal 0.54464 -0.83867 0
    outer loop
      vertex 19.9431 23.5192 0
      vertex 20.325 23.7672 0
      vertex 19.9431 23.5192 5
    endloop
  endfacet
  facet normal 0.45399 -0.891007 0
    outer loop
      vertex 20.7307 23.9739 0
      vertex 20.7307 23.9739 5
      vertex 20.325 23.7672 5
    endloop
  endfacet
  facet normal 0.45399 -0.891007 0
    outer loop
      vertex 20.325 23.7672 0
      vertex 20.7307 23.9739 0
      vertex 20.325 23.7672 5
    endloop
  endfacet
  facet normal 0.358368 -0.93358 0
    outer loop
      vertex 21.1558 24.1371 0
      vertex 21.1558 24.1371 5
      vertex 20.7307 23.9739 5
    endloop
  endfacet
  facet normal 0.358368 -0.93358 0
    outer loop
      vertex 20.7307 23.9739 0
      vertex 21.1558 24.1371 0
      vertex 20.7307 23.9739 5
    endloop
  endfacet
  facet normal 0.258819 -0.965926 0
    outer loop
      vertex 21.5956 24.2549 0
      vertex 21.5956 24.2549 5
      vertex 21.1558 24.1371 5
    endloop
  endfacet
  facet normal 0.258819 -0.965926 0
    outer loop
      vertex 21.1558 24.1371 0
      vertex 21.5956 24.2549 0
      vertex 21.1558 24.1371 5
    endloop
  endfacet
  facet normal 0.156434 -0.987688 0
    outer loop
      vertex 22.0453 24.3262 0
      vertex 22.0453 24.3262 5
      vertex 21.5956 24.2549 5
    endloop
  endfacet
  facet normal 0.156434 -0.987688 0
    outer loop
      vertex 21.5956 24.2549 0
      vertex 22.0453 24.3262 0
      vertex 21.5956 24.2549 5
    endloop
  endfacet
  facet normal 0.0523365 -0.99863 0
    outer loop
      vertex 22.5 24.35 0
      vertex 22.5 24.35 5
      vertex 22.0453 24.3262 5
    endloop
  endfacet
  facet normal 0.0523365 -0.99863 0
    outer loop
      vertex 22.0453 24.3262 0
      vertex 22.5 24.35 0
      vertex 22.0453 24.3262 5
    endloop
  endfacet
  facet normal 0 -1 0
    outer loop
      vertex 37.5 24.35 0
      vertex 37.5 24.35 5
      vertex 22.5 24.35 5
    endloop
  endfacet
  facet normal 0 -1 0
    outer loop
      vertex 22.5 24.35 0
      vertex 37.5 24.35 0
      vertex 22.5 24.35 5
    endloop
  endfacet
  facet normal -0.0523365 -0.99863 0
    outer loop
      vertex 37.9547 24.3262 0
      vertex 37.9547 24.3262 5
      vertex 37.5 24.35 5
    endloop
  endfacet
  facet normal -0.0523365 -0.99863 0
    outer loop
      vertex 37.5 24.35 0
      vertex 37.9547 24.3262 0
      vertex 37.5 24.35 5
    endloop
  endfacet
  facet normal -0.156434 -0.987688 0
    outer loop
      vertex 38.4044 24.2549 0
      vertex 38.4044 24.2549 5
      vertex 37.9547 24.3262 5
    endloop
  endfacet
  facet normal -0.156434 -0.987688 0
    outer loop
      vertex 37.9547 24.3262 0
      vertex 38.4044 24.2549 0
      vertex 37.9547 24.3262 5
    endloop
  endfacet
  facet normal -0.258819 -0.965926 0
    outer loop
      vertex 38.8442 24.1371 0
      vertex 38.8442 24.1371 5
      vertex 38.4044 24.2549 5
    endloop
  endfacet
  facet normal -0.258819 -0.965926 0
    outer loop
      vertex 38.4044 24.2549 0
      vertex 38.8442 24.1371 0
      vertex 38.4044 24.2549 5
    endloop
  endfacet
  facet normal -0.358368 -0.93358 0
    outer loop
      vertex 39.2693 23.9739 0
      vertex 39.2693 23.9739 5
      vertex 38.8442 24.1371 5
    endloop
  endfacet
  facet normal -0.358368 -0.93358 0
    outer loop
      vertex 38.8442 24.1371 0
      vertex 39.2693 23.9739 0
      vertex 38.8442 24.1371 5
    endloop
  endfacet
  facet normal -0.45399 -0.891007 0
    outer loop
      vertex 39.675 23.7672 0
      vertex 39.675 23.7672 5
      vertex 39.2693 23.9739 5
    endloop
  endfacet
  facet normal -0.45399 -0.891007 0
    outer loop
      vertex 39.2693 23.9739 0
      vertex 39.675 23.7672 0
      vertex 39.2693 23.9739 5
    endloop
  endfacet
  facet normal -0.54464 -0.83867 0
    outer loop
      vertex 40.0569 23.5192 0
      vertex 40.0569 23.5192 5
      vertex 39.675 23.7672 5
    endloop
  endfacet
  facet normal -0.54464 -0.83867 0
    outer loop
      vertex 39.675 23.7672 0
      vertex 40.0569 23.5192 0
      vertex 39.675 23.7672 5
    endloop
  endfacet
  facet normal -0.629321 -0.777146 0
    outer loop
      vertex 40.4107 23.2327 0
      vertex 40.4107 23.2327 5
      vertex 40.0569 23.5192 5
    endloop
  endfacet
  facet normal -0.629321 -0.777146 0
    outer loop
      vertex 40.0569 23.5192 0
      vertex 40.4107 23.2327 0
      vertex 40.0569 23.5192 5
    endloop
  endfacet
  facet normal -0.707107 -0.707107 0
    outer loop
      vertex 40.7327 22.9107 0
      vertex 40.7327 22.9107 5
      vertex 40.4107 23.2327 5
    endloop
  endfacet
  facet normal -0.707107 -0.707107 0
    outer loop
      vertex 40.4107 23.2327 0
      vertex 40.7327 22.9107 0
      vertex 40.4107 23.2327 5
    endloop
  endfacet
  facet normal -0.777146 -0.629321 0
    outer loop
      vertex 41.0192 22.5569 5
      vertex 40.7327 22.9107 5
      vertex 41.0192 22.5569 0
    endloop
  endfacet
  facet normal -0.777146 -0.629321 0
    outer loop
      vertex 41.0192 22.5569 0
      vertex 40.7327 22.9107 5
      vertex 40.7327 22.9107 0
    endloop
  endfacet
  facet normal -0.83867 -0.54464 0
    outer loop
      vertex 41.2672 22.175 5
      vertex 41.0192 22.5569 5
      vertex 41.2672 22.175 0
    endloop
  endfacet
  facet normal -0.83867 -0.54464 0
    outer loop
      vertex 41.2672 22.175 0
      vertex 41.0192 22.5569 5
      vertex 41.0192 22.5569 0
    endloop
  endfacet
  facet normal -0.891007 -0.45399 0
    outer loop
      vertex 41.4739 21.7693 5
      vertex 41.2672 22.175 5
      vertex 41.4739 21.7693 0
    endloop
  endfacet
  facet normal -0.891007 -0.45399 0
    outer loop
      vertex 41.4739 21.7693 0
      vertex 41.2672 22.175 5
      vertex 41.2672 22.175 0
    endloop
  endfacet
  facet normal -0.93358 -0.358368 0
    outer loop
      vertex 41.6371 21.3442 5
      vertex 41.4739 21.7693 5
      vertex 41.6371 21.3442 0
    endloop
  endfacet
  facet normal -0.93358 -0.358368 0
    outer loop
      vertex 41.6371 21.3442 0
      vertex 41.4739 21.7693 5
      vertex 41.4739 21.7693 0
    endloop
  endfacet
  facet normal -0.965926 -0.258819 0
    outer loop
      vertex 41.7549 20.9044 5
      vertex 41.6371 21.3442 5
      vertex 41.7549 20.9044 0
    endloop
  endfacet
  facet normal -0.965926 -0.258819 0
    outer loop
      vertex 41.7549 20.9044 0
      vertex 41.6371 21.3442 5
      vertex 41.6371 21.3442 0
    endloop
  endfacet
  facet normal -0.987688 -0.156434 0
    outer loop
      vertex 41.8262 20.4547 5
      vertex 41.7549 20.9044 5
      vertex 41.8262 20.4547 0
    endloop
  endfacet
  facet normal -0.987688 -0.156434 0
    outer loop
      vertex 41.8262 20.4547 0
      vertex 41.7549 20.9044 5
      vertex 41.7549 20.9044 0
    endloop
  endfacet
  facet normal -0.99863 -0.0523365 0
    outer loop
      vertex 41.85 20 5
      vertex 41.8262 20.4547 5
      vertex 41.85 20 0
    endloop
  endfacet
  facet normal -0.99863 -0.0523365 0
    outer loop
      vertex 41.85 20 0
      vertex 41.8262 20.4547 5
      vertex 41.8262 20.4547 0
    endloop
  endfacet
  facet normal -0.99863 0.0523365 0
    outer loop
      vertex 41.85 20 5
      vertex 41.85 20 0
      vertex 41.8262 19.5453 5
    endloop
  endfacet
  facet normal -0.99863 0.0523365 0
    outer loop
      vertex 41.8262 19.5453 5
      vertex 41.85 20 0
      vertex 41.8262 19.5453 0
    endloop
  endfacet
  facet normal -0.987688 0.156434 0
    outer loop
      vertex 41.8262 19.5453 5
      vertex 41.8262 19.5453 0
      vertex 41.7549 19.0956 5
    endloop
  endfacet
  facet normal -0.987688 0.156434 0
    outer loop
      vertex 41.7549 19.0956 5
      vertex 41.8262 19.5453 0
      vertex 41.7549 19.0956 0
    endloop
  endfacet
  facet normal -0.965926 0.258819 0
    outer loop
      vertex 41.7549 19.0956 5
      vertex 41.7549 19.0956 0
      vertex 41.6371 18.6558 5
    endloop
  endfacet
  facet normal -0.965926 0.258819 0
    outer loop
      vertex 41.6371 18.6558 5
      vertex 41.7549 19.0956 0
      vertex 41.6371 18.6558 0
    endloop
  endfacet
  facet normal -0.93358 0.358368 0
    outer loop
      vertex 41.6371 18.6558 5
      vertex 41.6371 18.6558 0
      vertex 41.4739 18.2307 5
    endloop
  endfacet
  facet normal -0.93358 0.358368 0
    outer loop
      vertex 41.4739 18.2307 5
      vertex 41.6371 18.6558 0
      vertex 41.4739 18.2307 0
    endloop
  endfacet
  facet normal -0.891007 0.45399 0
    outer loop
      vertex 41.4739 18.2307 5
      vertex 41.4739 18.2307 0
      vertex 41.2672 17.825 5
    endloop
  endfacet
  facet normal -0.891007 0.45399 0
    outer loop
      vertex 41.2672 17.825 5
      vertex 41.4739 18.2307 0
      vertex 41.2672 17.825 0
    endloop
  endfacet
  facet normal -0.83867 0.54464 0
    outer loop
      vertex 41.2672 17.825 5
      vertex 41.2672 17.825 0
      vertex 41.0192 17.4431 5
    endloop
  endfacet
  facet normal -0.83867 0.54464 0
    outer loop
      vertex 41.0192 17.4431 5
      vertex 41.2672 17.825 0
      vertex 41.0192 17.4431 0
    endloop
  endfacet
  facet normal -0.777146 0.629321 0
    outer loop
      vertex 41.0192 17.4431 5
      vertex 41.0192 17.4431 0
      vertex 40.7327 17.0893 5
    endloop
  endfacet
  facet normal -0.777146 0.629321 0
    outer loop
      vertex 40.7327 17.0893 5
      vertex 41.0192 17.4431 0
      vertex 40.7327 17.0893 0
    endloop
  endfacet
  facet normal -0.707107 0.707107 0
    outer loop
      vertex 40.7327 17.0893 5
      vertex 40.7327 17.0893 0
      vertex 40.4107 16.7673 5
    endloop
  endfacet
  facet normal -0.707107 0.707107 0
    outer loop
      vertex 40.4107 16.7673 5
      vertex 40.7327 17.0893 0
      vertex 40.4107 16.7673 0
    endloop
  endfacet
  facet normal -0.629321 0.777146 0
    outer loop
      vertex 40.4107 16.7673 5
      vertex 40.4107 16.7673 0
      vertex 40.0569 16.4808 5
    endloop
  endfacet
  facet normal -0.629321 0.777146 0
    outer loop
      vertex 40.0569 16.4808 5
      vertex 40.4107 16.7673 0
      vertex 40.0569 16.4808 0
    endloop
  endfacet
  facet normal -0.54464 0.83867 0
    outer loop
      vertex 40.0569 16.4808 5
      vertex 40.0569 16.4808 0
      vertex 39.675 16.2328 5
    endloop
  endfacet
  facet normal -0.54464 0.83867 0
    outer loop
      vertex 39.675 16.2328 5
      vertex 40.0569 16.4808 0
      vertex 39.675 16.2328 0
    endloop
  endfacet
  facet normal -0.45399 0.891007 0
    outer loop
      vertex 39.675 16.2328 5
      vertex 39.675 16.2328 0
      vertex 39.2693 16.0261 5
    endloop
  endfacet
  facet normal -0.45399 0.891007 0
    outer loop
      vertex 39.2693 16.0261 5
      vertex 39.675 16.2328 0
      vertex 39.2693 16.0261 0
    endloop
  endfacet
  facet normal -0.358368 0.93358 0
    outer loop
      vertex 39.2693 16.0261 5
      vertex 39.2693 16.0261 0
      vertex 38.8442 15.8629 5
    endloop
  endfacet
  facet normal -0.358368 0.93358 0
    outer loop
      vertex 38.8442 15.8629 5
      vertex 39.2693 16.0261 0
      vertex 38.8442 15.8629 0
    endloop
  endfacet
  facet normal -0.258819 0.965926 0
    outer loop
      vertex 38.8442 15.8629 5
      vertex 38.8442 15.8629 0
      vertex 38.4044 15.7451 5
    endloop
  endfacet
  facet normal -0.258819 0.965926 0
    outer loop
      vertex 38.4044 15.7451 5
      vertex 38.8442 15.8629 0
      vertex 38.4044 15.7451 0
    endloop
  endfacet
  facet normal -0.156434 0.987688 0
    outer loop
      vertex 38.4044 15.7451 5
      vertex 38.4044 15.7451 0
      vertex 37.9547 15.6738 5
    endloop
  endfacet
  facet normal -0.156434 0.987688 0
    outer loop
      vertex 37.9547 15.6738 5
      vertex 38.4044 15.7451 0
      vertex 37.9547 15.6738 0
    endloop
  endfacet
  facet normal -0.0523365 0.99863 0
    outer loop
      vertex 37.9547 15.6738 5
      vertex 37.9547 15.6738 0
      vertex 37.5 15.65 5
    endloop
  endfacet
  facet normal -0.0523365 0.99863 0
    outer loop
      vertex 37.5 15.65 5
      vertex 37.9547 15.6738 0
      vertex 37.5 15.65 0
    endloop
  endfacet
  facet normal 0 1 0
    outer loop
      vertex 37.5 15.65 5
      vertex 37.5 15.65 0
      vertex 22.5 15.65 5
    endloop
  endfacet
  facet normal 0 1 0
    outer loop
      vertex 22.5 15.65 5
      vertex 37.5 15.65 0
      vertex 22.5 15.65 0
    endloop
  endfacet
  facet normal 0.0523365 0.99863 0
    outer loop
      vertex 22.5 15.65 5
      vertex 22.5 15.65 0
      vertex 22.0453 15.6738 5
    endloop
  endfacet
  facet normal 0.0523365 0.99863 0
    outer loop
      vertex 22.0453 15.6738 5
      vertex 22.5 15.65 0
      vertex 22.0453 15.6738 0
    endloop
  endfacet
  facet normal 0.156434 0.987688 0
    outer loop
      vertex 22.0453 15.6738 5
      vertex 22.0453 15.6738 0
      vertex 21.5956 15.7451 5
    endloop
  endfacet
  facet normal 0.156434 0.987688 0
    outer loop
      vertex 21.5956 15.7451 5
      vertex 22.0453 15.6738 0
      vertex 21.5956 15.7451 0
    endloop
  endfacet
  facet normal 0.258819 0.965926 0
    outer loop
      vertex 21.5956 15.7451 5
      vertex 21.5956 15.7451 0
      vertex 21.1558 15.8629 5
    endloop
  endfacet
  facet normal 0.258819 0.965926 0
    outer loop
      vertex 21.1558 15.8629 5
      vertex 21.5956 15.7451 0
      vertex 21.1558 15.8629 0
    endloop
  endfacet
  facet normal 0.358368 0.93358 0
    outer loop
      vertex 21.1558 15.8629 5
      vertex 21.1558 15.8629 0
      vertex 20.7307 16.0261 5
    endloop
  endfacet
  facet normal 0.358368 0.93358 0
    outer loop
      vertex 20.7307 16.0261 5
      vertex 21.1558 15.8629 0
      vertex 20.7307 16.0261 0
    endloop
  endfacet
  facet normal 0.45399 0.891007 0
    outer loop
      vertex 20.7307 16.0261 5
      vertex 20.7307 16.0261 0
      vertex 20.325 16.2328 5
    endloop
  endfacet
  facet normal 0.45399 0.891007 0
    outer loop
      vertex 20.325 16.2328 5
      vertex 20.7307 16.0261 0
      vertex 20.325 16.2328 0
    endloop
  endfacet
  facet normal 0.54464 0.83867 0
    outer loop
      vertex 20.325 16.2328 5
      vertex 20.325 16.2328 0
      vertex 19.9431 16.4808 5
    endloop
  endfacet
  facet normal 0.54464 0.83867 0
    outer loop
      vertex 19.9431 16.4808 5
      vertex 20.325 16.2328 0
      vertex 19.9431 16.4808 0
    endloop
  endfacet
  facet normal 0.629321 0.777146 0
    outer loop
      vertex 19.9431 16.4808 5
      vertex 19.9431 16.4808 0
      vertex 19.5893 16.7673 5
    endloop
  endfacet
  facet normal 0.629321 0.777146 0
    outer loop
      vertex 19.5893 16.7673 5
      vertex 19.9431 16.4808 0
      vertex 19.5893 16.7673 0
    endloop
  endfacet
  facet normal 0.707107 0.707107 0
    outer loop
      vertex 19.5893 16.7673 5
      vertex 19.5893 16.7673 0
      vertex 19.2673 17.0893 5
    endloop
  endfacet
  facet normal 0.707107 0.707107 0
    outer loop
      vertex 19.2673 17.0893 5
      vertex 19.5893 16.7673 0
      vertex 19.2673 17.0893 0
    endloop
  endfacet
  facet normal 0.777146 0.629321 0
    outer loop
      vertex 18.9808 17.4431 5
      vertex 19.2673 17.0893 5
      vertex 19.2673 17.0893 0
    endloop
  endfacet
  facet normal 0.777146 0.629321 0
    outer loop
      vertex 18.9808 17.4431 0
      vertex 18.9808 17.4431 5
      vertex 19.2673 17.0893 0
    endloop
  endfacet
  facet normal 0.83867 0.54464 0
    outer loop
      vertex 18.7328 17.825 5
      vertex 18.9808 17.4431 5
      vertex 18.9808 17.4431 0
    endloop
  endfacet
  facet normal 0.83867 0.54464 0
    outer loop
      vertex 18.7328 17.825 0
      vertex 18.7328 17.825 5
      vertex 18.9808 17.4431 0
    endloop
  endfacet
  facet normal 0.891007 0.45399 0
    outer loop
      vertex 18.5261 18.2307 5
      vertex 18.7328 17.825 5
      vertex 18.7328 17.825 0
    endloop
  endfacet
  facet normal 0.891007 0.45399 0
    outer loop
      vertex 18.5261 18.2307 0
      vertex 18.5261 18.2307 5
      vertex 18.7328 17.825 0
    endloop
  endfacet
  facet normal 0.93358 0.358368 0
    outer loop
      vertex 18.3629 18.6558 5
      vertex 18.5261 18.2307 5
      vertex 18.5261 18.2307 0
    endloop
  endfacet
  facet normal 0.93358 0.358368 0
    outer loop
      vertex 18.3629 18.6558 0
      vertex 18.3629 18.6558 5
      vertex 18.5261 18.2307 0
    endloop
  endfacet
  facet normal 0.965926 0.258819 0
    outer loop
      vertex 18.2451 19.0956 5
      vertex 18.3629 18.6558 5
      vertex 18.3629 18.6558 0
    endloop
  endfacet
  facet normal 0.965926 0.258819 0
    outer loop
      vertex 18.2451 19.0956 0
      vertex 18.2451 19.0956 5
      vertex 18.3629 18.6558 0
    endloop
  endfacet
  facet normal 0.987688 0.156434 0
    outer loop
      vertex 18.1738 19.5453 5
      vertex 18.2451 19.0956 5
      vertex 18.2451 19.0956 0
    endloop
  endfacet
  facet normal 0.987688 0.156434 0
    outer loop
      vertex 18.1738 19.5453 0
      vertex 18.1738 19.5453 5
      vertex 18.2451 19.0956 0
    endloop
  endfacet
  facet normal 0.998629 -0.0523382 0
    outer loop
      vertex 48.2099 15.1882 0
      vertex 48.2099 15.1882 5
      vertex 48.2 15 5
    endloop
  endfacet
  facet normal 0.998629 -0.0523382 0
    outer loop
      vertex 48.2 15 0
      vertex 48.2099 15.1882 0
      vertex 48.2 15 5
    endloop
  endfacet
  facet normal 0.998629 0.0523382 0
    outer loop
      vertex 48.2 15 5
      vertex 48.2099 14.8118 5
      vertex 48.2099 14.8118 0
    endloop
  endfacet
  facet normal 0.998629 0.0523382 0
    outer loop
      vertex 48.2 15 0
      vertex 48.2 15 5
      vertex 48.2099 14.8118 0
    endloop
  endfacet
  facet normal 0.987689 -0.156431 0
    outer loop
      vertex 48.2393 15.3742 0
      vertex 48.2393 15.3742 5
      vertex 48.2099 15.1882 5
    endloop
  endfacet
  facet normal 0.987689 -0.156431 0
    outer loop
      vertex 48.2099 15.1882 0
      vertex 48.2393 15.3742 0
      vertex 48.2099 15.1882 5
    endloop
  endfacet
  facet normal 0.965926 -0.258819 0
    outer loop
      vertex 48.2881 15.5562 0
      vertex 48.2881 15.5562 5
      vertex 48.2393 15.3742 5
    endloop
  endfacet
  facet normal 0.965926 -0.258819 0
    outer loop
      vertex 48.2393 15.3742 0
      vertex 48.2881 15.5562 0
      vertex 48.2393 15.3742 5
    endloop
  endfacet
  facet normal 0.93358 -0.358369 0
    outer loop
      vertex 48.3556 15.7321 0
      vertex 48.3556 15.7321 5
      vertex 48.2881 15.5562 5
    endloop
  endfacet
  facet normal 0.93358 -0.358369 0
    outer loop
      vertex 48.2881 15.5562 0
      vertex 48.3556 15.7321 0
      vertex 48.2881 15.5562 5
    endloop
  endfacet
  facet normal 0.891007 -0.45399 0
    outer loop
      vertex 48.4412 15.9 0
      vertex 48.4412 15.9 5
      vertex 48.3556 15.7321 5
    endloop
  endfacet
  facet normal 0.891007 -0.45399 0
    outer loop
      vertex 48.3556 15.7321 0
      vertex 48.4412 15.9 0
      vertex 48.3556 15.7321 5
    endloop
  endfacet
  facet normal 0.83867 -0.54464 0
    outer loop
      vertex 48.5438 16.058 0
      vertex 48.5438 16.058 5
      vertex 48.4412 15.9 5
    endloop
  endfacet
  facet normal 0.83867 -0.54464 0
    outer loop
      vertex 48.4412 15.9 0
      vertex 48.5438 16.058 0
      vertex 48.4412 15.9 5
    endloop
  endfacet
  facet normal 0.777146 -0.62932 0
    outer loop
      vertex 48.6623 16.2044 0
      vertex 48.6623 16.2044 5
      vertex 48.5438 16.058 5
    endloop
  endfacet
  facet normal 0.777146 -0.62932 0
    outer loop
      vertex 48.5438 16.058 0
      vertex 48.6623 16.2044 0
      vertex 48.5438 16.058 5
    endloop
  endfacet
  facet normal 0.707107 -0.707107 0
    outer loop
      vertex 48.7956 16.3377 0
      vertex 48.7956 16.3377 5
      vertex 48.6623 16.2044 5
    endloop
  endfacet
  facet normal 0.707107 -0.707107 0
    outer loop
      vertex 48.6623 16.2044 0
      vertex 48.7956 16.3377 0
      vertex 48.6623 16.2044 5
    endloop
  endfacet
  facet normal 0.62932 -0.777146 0
    outer loop
      vertex 48.942 16.4562 0
      vertex 48.942 16.4562 5
      vertex 48.7956 16.3377 5
    endloop
  endfacet
  facet normal 0.62932 -0.777146 0
    outer loop
      vertex 48.7956 16.3377 0
      vertex 48.942 16.4562 0
      vertex 48.7956 16.3377 5
    endloop
  endfacet
  facet normal 0.54464 -0.83867 0
    outer loop
      vertex 49.1 16.5588 0
      vertex 49.1 16.5588 5
      vertex 48.942 16.4562 5
    endloop
  endfacet
  facet normal 0.54464 -0.83867 0
    outer loop
      vertex 48.942 16.4562 0
      vertex 49.1 16.5588 0
      vertex 48.942 16.4562 5
    endloop
  endfacet
  facet normal 0.45399 -0.891007 0
    outer loop
      vertex 49.2679 16.6444 0
      vertex 49.2679 16.6444 5
      vertex 49.1 16.5588 5
    endloop
  endfacet
  facet normal 0.45399 -0.891007 0
    outer loop
      vertex 49.1 16.5588 0
      vertex 49.2679 16.6444 0
      vertex 49.1 16.5588 5
    endloop
  endfacet
  facet normal 0.358369 -0.93358 0
    outer loop
      vertex 49.4438 16.7119 0
      vertex 49.4438 16.7119 5
      vertex 49.2679 16.6444 5
    endloop
  endfacet
  facet normal 0.358369 -0.93358 0
    outer loop
      vertex 49.2679 16.6444 0
      vertex 49.4438 16.7119 0
      vertex 49.2679 16.6444 5
    endloop
  endfacet
  facet normal 0.258819 -0.965926 0
    outer loop
      vertex 49.6258 16.7607 0
      vertex 49.6258 16.7607 5
      vertex 49.4438 16.7119 5
    endloop
  endfacet
  facet normal 0.258819 -0.965926 0
    outer loop
      vertex 49.4438 16.7119 0
      vertex 49.6258 16.7607 0
      vertex 49.4438 16.7119 5
    endloop
  endfacet
  facet normal 0.156431 -0.987689 0
    outer loop
      vertex 49.8118 16.7901 0
      vertex 49.8118 16.7901 5
      vertex 49.6258 16.7607 5
    endloop
  endfacet
  facet normal 0.156431 -0.987689 0
    outer loop
      vertex 49.6258 16.7607 0
      vertex 49.8118 16.7901 0
      vertex 49.6258 16.7607 5
    endloop
  endfacet
  facet normal 0.0523382 -0.998629 0
    outer loop
      vertex 50 16.8 0
      vertex 50 16.8 5
      vertex 49.8118 16.7901 5
    endloop
  endfacet
  facet normal 0.0523382 -0.998629 0
    outer loop
      vertex 49.8118 16.7901 0
      vertex 50 16.8 0
      vertex 49.8118 16.7901 5
    endloop
  endfacet
  facet normal -0.0523382 -0.998629 0
    outer loop
      vertex 50.1882 16.7901 0
      vertex 50.1882 16.7901 5
      vertex 50 16.8 5
    endloop
  endfacet
  facet normal -0.0523382 -0.998629 0
    outer loop
      vertex 50 16.8 0
      vertex 50.1882 16.7901 0
      vertex 50 16.8 5
    endloop
  endfacet
  facet normal -0.156431 -0.987689 0
    outer loop
      vertex 50.3742 16.7607 0
      vertex 50.3742 16.7607 5
      vertex 50.1882 16.7901 5
    endloop
  endfacet
  facet normal -0.156431 -0.987689 0
    outer loop
      vertex 50.1882 16.7901 0
      vertex 50.3742 16.7607 0
      vertex 50.1882 16.7901 5
    endloop
  endfacet
  facet normal -0.258819 -0.965926 0
    outer loop
      vertex 50.5562 16.7119 0
      vertex 50.5562 16.7119 5
      vertex 50.3742 16.7607 5
    endloop
  endfacet
  facet normal -0.258819 -0.965926 0
    outer loop
      vertex 50.3742 16.7607 0
      vertex 50.5562 16.7119 0
      vertex 50.3742 16.7607 5
    endloop
  endfacet
  facet normal -0.358369 -0.93358 0
    outer loop
      vertex 50.7321 16.6444 0
      vertex 50.7321 16.6444 5
      vertex 50.5562 16.7119 5
    endloop
  endfacet
  facet normal -0.358369 -0.93358 0
    outer loop
      vertex 50.5562 16.7119 0
      vertex 50.7321 16.6444 0
      vertex 50.5562 16.7119 5
    endloop
  endfacet
  facet normal -0.45399 -0.891007 0
    outer loop
      vertex 50.9 16.5588 0
      vertex 50.9 16.5588 5
      vertex 50.7321 16.6444 5
    endloop
  endfacet
  facet normal -0.45399 -0.891007 0
    outer loop
      vertex 50.7321 16.6444 0
      vertex 50.9 16.5588 0
      vertex 50.7321 16.6444 5
    endloop
  endfacet
  facet normal -0.54464 -0.83867 0
    outer loop
      vertex 51.058 16.4562 0
      vertex 51.058 16.4562 5
      vertex 50.9 16.5588 5
    endloop
  endfacet
  facet normal -0.54464 -0.83867 0
    outer loop
      vertex 50.9 16.5588 0
      vertex 51.058 16.4562 0
      vertex 50.9 16.5588 5
    endloop
  endfacet
  facet normal -0.62932 -0.777146 0
    outer loop
      vertex 51.2044 16.3377 0
      vertex 51.2044 16.3377 5
      vertex 51.058 16.4562 5
    endloop
  endfacet
  facet normal -0.62932 -0.777146 0
    outer loop
      vertex 51.058 16.4562 0
      vertex 51.2044 16.3377 0
      vertex 51.058 16.4562 5
    endloop
  endfacet
  facet normal -0.707107 -0.707107 0
    outer loop
      vertex 51.3377 16.2044 0
      vertex 51.3377 16.2044 5
      vertex 51.2044 16.3377 5
    endloop
  endfacet
  facet normal -0.707107 -0.707107 0
    outer loop
      vertex 51.2044 16.3377 0
      vertex 51.3377 16.2044 0
      vertex 51.2044 16.3377 5
    endloop
  endfacet
  facet normal -0.777146 -0.62932 0
    outer loop
      vertex 51.4562 16.058 5
      vertex 51.3377 16.2044 5
      vertex 51.4562 16.058 0
    endloop
  endfacet
  facet normal -0.777146 -0.62932 0
    outer loop
      vertex 51.4562 16.058 0
      vertex 51.3377 16.2044 5
      vertex 51.3377 16.2044 0
    endloop
  endfacet
  facet normal -0.83867 -0.54464 0
    outer loop
      vertex 51.5588 15.9 5
      vertex 51.4562 16.058 5
      vertex 51.5588 15.9 0
    endloop
  endfacet
  facet normal -0.83867 -0.54464 0
    outer loop
      vertex 51.5588 15.9 0
      vertex 51.4562 16.058 5
      vertex 51.4562 16.058 0
    endloop
  endfacet
  facet normal -0.891007 -0.45399 0
    outer loop
      vertex 51.6444 15.7321 5
      vertex 51.5588 15.9 5
      vertex 51.6444 15.7321 0
    endloop
  endfacet
  facet normal -0.891007 -0.45399 0
    outer loop
      vertex 51.6444 15.7321 0
      vertex 51.5588 15.9 5
      vertex 51.5588 15.9 0
    endloop
  endfacet
  facet normal -0.93358 -0.358369 0
    outer loop
      vertex 51.7119 15.5562 5
      vertex 51.6444 15.7321 5
      vertex 51.7119 15.5562 0
    endloop
  endfacet
  facet normal -0.93358 -0.358369 0
    outer loop
      vertex 51.7119 15.5562 0
      vertex 51.6444 15.7321 5
      vertex 51.6444 15.7321 0
    endloop
  endfacet
  facet normal -0.965926 -0.258819 0
    outer loop
      vertex 51.7607 15.3742 5
      vertex 51.7119 15.5562 5
      vertex 51.7607 15.3742 0
    endloop
  endfacet
  facet normal -0.965926 -0.258819 0
    outer loop
      vertex 51.7607 15.3742 0
      vertex 51.7119 15.5562 5
      vertex 51.7119 15.5562 0
    endloop
  endfacet
  facet normal -0.987689 -0.156431 0
    outer loop
      vertex 51.7901 15.1882 5
      vertex 51.7607 15.3742 5
      vertex 51.7901 15.1882 0
    endloop
  endfacet
  facet normal -0.987689 -0.156431 0
    outer loop
      vertex 51.7901 15.1882 0
      vertex 51.7607 15.3742 5
      vertex 51.7607 15.3742 0
    endloop
  endfacet
  facet normal -0.998629 -0.0523382 0
    outer loop
      vertex 51.8 15 5
      vertex 51.7901 15.1882 5
      vertex 51.8 15 0
    endloop
  endfacet
  facet normal -0.998629 -0.0523382 0
    outer loop
      vertex 51.8 15 0
      vertex 51.7901 15.1882 5
      vertex 51.7901 15.1882 0
    endloop
  endfacet
  facet normal -0.998629 0.0523382 0
    outer loop
      vertex 51.8 15 5
      vertex 51.8 15 0
      vertex 51.7901 14.8118 5
    endloop
  endfacet
  facet normal -0.998629 0.0523382 0
    outer loop
      vertex 51.7901 14.8118 5
      vertex 51.8 15 0
      vertex 51.7901 14.8118 0
    endloop
  endfacet
  facet normal -0.987689 0.156431 0
    outer loop
      vertex 51.7901 14.8118 5
      vertex 51.7901 14.8118 0
      vertex 51.7607 14.6258 5
    endloop
  endfacet
  facet normal -0.987689 0.156431 0
    outer loop
      vertex 51.7607 14.6258 5
      vertex 51.7901 14.8118 0
      vertex 51.7607 14.6258 0
    endloop
  endfacet
  facet normal -0.965926 0.258819 0
    outer loop
      vertex 51.7607 14.6258 5
      vertex 51.7607 14.6258 0
      vertex 51.7119 14.4438 5
    endloop
  endfacet
  facet normal -0.965926 0.258819 0
    outer loop
      vertex 51.7119 14.4438 5
      vertex 51.7607 14.6258 0
      vertex 51.7119 14.4438 0
    endloop
  endfacet
  facet normal -0.93358 0.358369 0
    outer loop
      vertex 51.7119 14.4438 5
      vertex 51.7119 14.4438 0
      vertex 51.6444 14.2679 5
    endloop
  endfacet
  facet normal -0.93358 0.358369 0
    outer loop
      vertex 51.6444 14.2679 5
      vertex 51.7119 14.4438 0
      vertex 51.6444 14.2679 0
    endloop
  endfacet
  facet normal -0.891007 0.45399 0
    outer loop
      vertex 51.6444 14.2679 5
      vertex 51.6444 14.2679 0
      vertex 51.5588 14.1 5
    endloop
  endfacet
  facet normal -0.891007 0.45399 0
    outer loop
      vertex 51.5588 14.1 5
      vertex 51.6444 14.2679 0
      vertex 51.5588 14.1 0
    endloop
  endfacet
  facet normal -0.83867 0.54464 0
    outer loop
      vertex 51.5588 14.1 5
      vertex 51.5588 14.1 0
      vertex 51.4562 13.942 5
    endloop
  endfacet
  facet normal -0.83867 0.54464 0
    outer loop
      vertex 51.4562 13.942 5
      vertex 51.5588 14.1 0
      vertex 51.4562 13.942 0
    endloop
  endfacet
  facet normal -0.777146 0.62932 0
    outer loop
      vertex 51.4562 13.942 5
      vertex 51.4562 13.942 0
      vertex 51.3377 13.7956 5
    endloop
  endfacet
  facet normal -0.777146 0.62932 0
    outer loop
      vertex 51.3377 13.7956 5
      vertex 51.4562 13.942 0
      vertex 51.3377 13.7956 0
    endloop
  endfacet
  facet normal -0.707107 0.707107 0
    outer loop
      vertex 51.3377 13.7956 5
      vertex 51.3377 13.7956 0
      vertex 51.2044 13.6623 5
    endloop
  endfacet
  facet normal -0.707107 0.707107 0
    outer loop
      vertex 51.2044 13.6623 5
      vertex 51.3377 13.7956 0
      vertex 51.2044 13.6623 0
    endloop
  endfacet
  facet normal -0.62932 0.777146 0
    outer loop
      vertex 51.2044 13.6623 5
      vertex 51.2044 13.6623 0
      vertex 51.058 13.5438 5
    endloop
  endfacet
  facet normal -0.62932 0.777146 0
    outer loop
      vertex 51.058 13.5438 5
      vertex 51.2044 13.6623 0
      vertex 51.058 13.5438 0
    endloop
  endfacet
  facet normal -0.54464 0.83867 0
    outer loop
      vertex 51.058 13.5438 5
      vertex 51.058 13.5438 0
      vertex 50.9 13.4412 5
    endloop
  endfacet
  facet normal -0.54464 0.83867 0
    outer loop
      vertex 50.9 13.4412 5
      vertex 51.058 13.5438 0
      vertex 50.9 13.4412 0
    endloop
  endfacet
  facet normal -0.45399 0.891007 0
    outer loop
      vertex 50.9 13.4412 5
      vertex 50.9 13.4412 0
      vertex 50.7321 13.3556 5
    endloop
  endfacet
  facet normal -0.45399 0.891007 0
    outer loop
      vertex 50.7321 13.3556 5
      vertex 50.9 13.4412 0
      vertex 50.7321 13.3556 0
    endloop
  endfacet
  facet normal -0.358369 0.93358 0
    outer loop
      vertex 50.7321 13.3556 5
      vertex 50.7321 13.3556 0
      vertex 50.5562 13.2881 5
    endloop
  endfacet
  facet normal -0.358369 0.93358 0
    outer loop
      vertex 50.5562 13.2881 5
      vertex 50.7321 13.3556 0
      vertex 50.5562 13.2881 0
    endloop
  endfacet
  facet normal -0.258819 0.965926 0
    outer loop
      vertex 50.5562 13.2881 5
      vertex 50.5562 13.2881 0
      vertex 50.3742 13.2393 5
    endloop
  endfacet
  facet normal -0.258819 0.965926 0
    outer loop
      vertex 50.3742 13.2393 5
      vertex 50.5562 13.2881 0
      vertex 50.3742 13.2393 0
    endloop
  endfacet
  facet normal -0.156431 0.987689 0
    outer loop
      vertex 50.3742 13.2393 5
      vertex 50.3742 13.2393 0
      vertex 50.1882 13.2099 5
    endloop
  endfacet
  facet normal -0.156431 0.987689 0
    outer loop
      vertex 50.1882 13.2099 5
      vertex 50.3742 13.2393 0
      vertex 50.1882 13.2099 0
    endloop
  endfacet
  facet normal -0.0523382 0.998629 0
    outer loop
      vertex 50.1882 13.2099 5
      vertex 50.1882 13.2099 0
      vertex 50 13.2 5
    endloop
  endfacet
  facet normal -0.0523382 0.998629 0
    outer loop
      vertex 50 13.2 5
      vertex 50.1882 13.2099 0
      vertex 50 13.2 0
    endloop
  endfacet
  facet normal 0.0523382 0.998629 0
    outer loop
      vertex 50 13.2 5
      vertex 50 13.2 0
      vertex 49.8118 13.2099 5
    endloop
  endfacet
  facet normal 0.0523382 0.998629 0
    outer loop
      vertex 49.8118 13.2099 5
      vertex 50 13.2 0
      vertex 49.8118 13.2099 0
    endloop
  endfacet
  facet normal 0.156431 0.987689 0
    outer loop
      vertex 49.8118 13.2099 5
      vertex 49.8118 13.2099 0
      vertex 49.6258 13.2393 5
    endloop
  endfacet
  facet normal 0.156431 0.987689 0
    outer loop
      vertex 49.6258 13.2393 5
      vertex 49.8118 13.2099 0
      vertex 49.6258 13.2393 0
    endloop
  endfacet
  facet normal 0.258819 0.965926 0
    outer loop
      vertex 49.6258 13.2393 5
      vertex 49.6258 13.2393 0
      vertex 49.4438 13.2881 5
    endloop
  endfacet
  facet normal 0.258819 0.965926 0
    outer loop
      vertex 49.4438 13.2881 5
      vertex 49.6258 13.2393 0
      vertex 49.4438 13.2881 0
    endloop
  endfacet
  facet normal 0.358369 0.93358 0
    outer loop
      vertex 49.4438 13.2881 5
      vertex 49.4438 13.2881 0
      vertex 49.2679 13.3556 5
    endloop
  endfacet
  facet normal 0.358369 0.93358 0
    outer loop
      vertex 49.2679 13.3556 5
      vertex 49.4438 13.2881 0
      vertex 49.2679 13.3556 0
    endloop
  endfacet
  facet normal 0.45399 0.891007 0
    outer loop
      vertex 49.2679 13.3556 5
      vertex 49.2679 13.3556 0
      vertex 49.1 13.4412 5
    endloop
  endfacet
  facet normal 0.45399 0.891007 0
    outer loop
      vertex 49.1 13.4412 5
      vertex 49.2679 13.3556 0
      vertex 49.1 13.4412 0
    endloop
  endfacet
  facet normal 0.54464 0.83867 0
    outer loop
      vertex 49.1 13.4412 5
      vertex 49.1 13.4412 0
      vertex 48.942 13.5438 5
    endloop
  endfacet
  facet normal 0.54464 0.83867 0
    outer loop
      vertex 48.942 13.5438 5
      vertex 49.1 13.4412 0
      vertex 48.942 13.5438 0
    endloop
  endfacet
  facet normal 0.62932 0.777146 0
    outer loop
      vertex 48.942 13.5438 5
      vertex 48.942 13.5438 0
      vertex 48.7956 13.6623 5
    endloop
  endfacet
  facet normal 0.62932 0.777146 0
    outer loop
      vertex 48.7956 13.6623 5
      vertex 48.942 13.5438 0
      vertex 48.7956 13.6623 0
    endloop
  endfacet
  facet normal 0.707107 0.707107 0
    outer loop
      vertex 48.7956 13.6623 5
      vertex 48.7956 13.6623 0
      vertex 48.6623 13.7956 5
    endloop
  endfacet
  facet normal 0.707107 0.707107 0
    outer loop
      vertex 48.6623 13.7956 5
      vertex 48.7956 13.6623 0
      vertex 48.6623 13.7956 0
    endloop
  endfacet
  facet normal 0.777146 0.62932 0
    outer loop
      vertex 48.5438 13.942 5
      vertex 48.6623 13.7956 5
      vertex 48.6623 13.7956 0
    endloop
  endfacet
  facet normal 0.777146 0.62932 0
    outer loop
      vertex 48.5438 13.942 0
      vertex 48.5438 13.942 5
      vertex 48.6623 13.7956 0
    endloop
  endfacet
  facet normal 0.83867 0.54464 0
    outer loop
      vertex 48.4412 14.1 5
      vertex 48.5438 13.942 5
      vertex 48.5438 13.942 0
    endloop
  endfacet
  facet normal 0.83867 0.54464 0
    outer loop
      vertex 48.4412 14.1 0
      vertex 48.4412 14.1 5
      vertex 48.5438 13.942 0
    endloop
  endfacet
  facet normal 0.891007 0.45399 0
    outer loop
      vertex 48.3556 14.2679 5
      vertex 48.4412 14.1 5
      vertex 48.4412 14.1 0
    endloop
  endfacet
  facet normal 0.891007 0.45399 0
    outer loop
      vertex 48.3556 14.2679 0
      vertex 48.3556 14.2679 5
      vertex 48.4412 14.1 0
    endloop
  endfacet
  facet normal 0.93358 0.358369 0
    outer loop
      vertex 48.2881 14.4438 5
      vertex 48.3556 14.2679 5
      vertex 48.3556 14.2679 0
    endloop
  endfacet
  facet normal 0.93358 0.358369 0
    outer loop
      vertex 48.2881 14.4438 0
      vertex 48.2881 14.4438 5
      vertex 48.3556 14.2679 0
    endloop
  endfacet
  facet normal 0.965926 0.258819 0
    outer loop
      vertex 48.2393 14.6258 5
      vertex 48.2881 14.4438 5
      vertex 48.2881 14.4438 0
    endloop
  endfacet
  facet normal 0.965926 0.258819 0
    outer loop
      vertex 48.2393 14.6258 0
      vertex 48.2393 14.6258 5
      vertex 48.2881 14.4438 0
    endloop
  endfacet
  facet normal 0.987689 0.156431 0
    outer loop
      vertex 48.2099 14.8118 5
      vertex 48.2393 14.6258 5
      vertex 48.2393 14.6258 0
    endloop
  endfacet
  facet normal 0.987689 0.156431 0
    outer loop
      vertex 48.2099 14.8118 0
      vertex 48.2099 14.8118 5
      vertex 48.2393 14.6258 0
    endloop
  endfacet
endsolid OpenSCAD_Model
