  0
SECTION
  2
BLOCKS
  0
ENDSEC
  0
SECTION
  2
ENTITIES
  0
LINE
  8
0
 10
0
 11
0
 20
9.95
 21
42.4
  0
LINE
  8
0
 10
0
 11
0.059
 20
42.4
 21
42.4
  0
LINE
  8
0
 10
0.059
 11
0.02
 20
42.4
 21
43.028
  0
LINE
  8
0
 10
0.02
 11
0.489
 20
43.028
 21
45.49
  0
LINE
  8
0
 10
0.489
 11
1.557
 20
45.49
 21
47.758
  0
LINE
  8
0
 10
1.557
 11
3.155
 20
47.758
 21
49.69
  0
LINE
  8
0
 10
3.155
 11
5.182
 20
49.69
 21
51.163
  0
LINE
  8
0
 10
5.182
 11
7.513
 20
51.163
 21
52.086
  0
LINE
  8
0
 10
7.513
 11
9.95
 20
52.086
 21
52.394
  0
LINE
  8
0
 10
9.95
 11
9.95
 20
52.394
 21
52.4
  0
LINE
  8
0
 10
9.95
 11
77.2
 20
52.4
 21
52.4
  0
LINE
  8
0
 10
77.2
 11
77.2
 20
52.4
 21
52.341
  0
LINE
  8
0
 10
77.2
 11
77.828
 20
52.341
 21
52.38
  0
LINE
  8
0
 10
77.828
 11
80.29
 20
52.38
 21
51.911
  0
LINE
  8
0
 10
80.29
 11
82.558
 20
51.911
 21
50.843
  0
LINE
  8
0
 10
82.558
 11
84.49
 20
50.843
 21
49.245
  0
LINE
  8
0
 10
84.49
 11
85.963
 20
49.245
 21
47.218
  0
LINE
  8
0
 10
85.963
 11
86.886
 20
47.218
 21
44.887
  0
LINE
  8
0
 10
86.886
 11
87.194
 20
44.887
 21
42.45
  0
LINE
  8
0
 10
87.194
 11
87.2
 20
42.45
 21
42.45
  0
LINE
  8
0
 10
87.2
 11
87.2
 20
42.45
 21
10
  0
LINE
  8
0
 10
87.2
 11
87.141
 20
10
 21
10
  0
LINE
  8
0
 10
87.141
 11
87.18
 20
10
 21
9.372
  0
LINE
  8
0
 10
87.18
 11
86.711
 20
9.372
 21
6.91
  0
LINE
  8
0
 10
86.711
 11
85.643
 20
6.91
 21
4.642
  0
LINE
  8
0
 10
85.643
 11
84.045
 20
4.642
 21
2.71
  0
LINE
  8
0
 10
84.045
 11
82.018
 20
2.71
 21
1.237
  0
LINE
  8
0
 10
82.018
 11
79.687
 20
1.237
 21
0.314
  0
LINE
  8
0
 10
79.687
 11
77.25
 20
0.314
 21
0.006
  0
LINE
  8
0
 10
77.25
 11
77.25
 20
0.006
 21
0
  0
LINE
  8
0
 10
77.25
 11
10
 20
0
 21
0
  0
LINE
  8
0
 10
10
 11
10
 20
0
 21
0.059
  0
LINE
  8
0
 10
10
 11
9.372
 20
0.059
 21
0.02
  0
LINE
  8
0
 10
9.372
 11
6.91
 20
0.02
 21
0.489
  0
LINE
  8
0
 10
6.91
 11
4.642
 20
0.489
 21
1.557
  0
LINE
  8
0
 10
4.642
 11
2.71
 20
1.557
 21
3.155
  0
LINE
  8
0
 10
2.71
 11
1.237
 20
3.155
 21
5.182
  0
LINE
  8
0
 10
1.237
 11
0.314
 20
5.182
 21
7.513
  0
LINE
  8
0
 10
0.314
 11
0.006
 20
7.513
 21
9.95
  0
LINE
  8
0
 10
0.006
 11
0
 20
9.95
 21
9.95
  0
LINE
  8
0
 10
10
 11
10.024
 20
15
 21
15.455
  0
LINE
  8
0
 10
10.024
 11
10.095
 20
15.455
 21
15.904
  0
LINE
  8
0
 10
10.095
 11
10.213
 20
15.904
 21
16.344
  0
LINE
  8
0
 10
10.213
 11
10.376
 20
16.344
 21
16.769
  0
LINE
  8
0
 10
10.376
 11
10.583
 20
16.769
 21
17.175
  0
LINE
  8
0
 10
10.583
 11
10.831
 20
17.175
 21
17.557
  0
LINE
  8
0
 10
10.831
 11
11.117
 20
17.557
 21
17.911
  0
LINE
  8
0
 10
11.117
 11
11.439
 20
17.911
 21
18.233
  0
LINE
  8
0
 10
11.439
 11
11.793
 20
18.233
 21
18.519
  0
LINE
  8
0
 10
11.793
 11
12.175
 20
18.519
 21
18.767
  0
LINE
  8
0
 10
12.175
 11
12.581
 20
18.767
 21
18.974
  0
LINE
  8
0
 10
12.581
 11
13.006
 20
18.974
 21
19.137
  0
LINE
  8
0
 10
13.006
 11
13.446
 20
19.137
 21
19.255
  0
LINE
  8
0
 10
13.446
 11
13.895
 20
19.255
 21
19.326
  0
LINE
  8
0
 10
13.895
 11
14.35
 20
19.326
 21
19.35
  0
LINE
  8
0
 10
14.35
 11
14.805
 20
19.35
 21
19.326
  0
LINE
  8
0
 10
14.805
 11
15.254
 20
19.326
 21
19.255
  0
LINE
  8
0
 10
15.254
 11
15.694
 20
19.255
 21
19.137
  0
LINE
  8
0
 10
15.694
 11
16.119
 20
19.137
 21
18.974
  0
LINE
  8
0
 10
16.119
 11
16.525
 20
18.974
 21
18.767
  0
LINE
  8
0
 10
16.525
 11
16.907
 20
18.767
 21
18.519
  0
LINE
  8
0
 10
16.907
 11
17.261
 20
18.519
 21
18.233
  0
LINE
  8
0
 10
17.261
 11
17.583
 20
18.233
 21
17.911
  0
LINE
  8
0
 10
17.583
 11
17.869
 20
17.911
 21
17.557
  0
LINE
  8
0
 10
17.869
 11
18.117
 20
17.557
 21
17.175
  0
LINE
  8
0
 10
18.117
 11
18.324
 20
17.175
 21
16.769
  0
LINE
  8
0
 10
18.324
 11
18.487
 20
16.769
 21
16.344
  0
LINE
  8
0
 10
18.487
 11
18.605
 20
16.344
 21
15.904
  0
LINE
  8
0
 10
18.605
 11
18.676
 20
15.904
 21
15.455
  0
LINE
  8
0
 10
18.676
 11
18.7
 20
15.455
 21
15
  0
LINE
  8
0
 10
18.7
 11
18.676
 20
15
 21
14.545
  0
LINE
  8
0
 10
18.676
 11
18.605
 20
14.545
 21
14.096
  0
LINE
  8
0
 10
18.605
 11
18.487
 20
14.096
 21
13.656
  0
LINE
  8
0
 10
18.487
 11
18.324
 20
13.656
 21
13.231
  0
LINE
  8
0
 10
18.324
 11
18.117
 20
13.231
 21
12.825
  0
LINE
  8
0
 10
18.117
 11
17.869
 20
12.825
 21
12.443
  0
LINE
  8
0
 10
17.869
 11
17.583
 20
12.443
 21
12.089
  0
LINE
  8
0
 10
17.583
 11
17.261
 20
12.089
 21
11.767
  0
LINE
  8
0
 10
17.261
 11
16.907
 20
11.767
 21
11.481
  0
LINE
  8
0
 10
16.907
 11
16.525
 20
11.481
 21
11.233
  0
LINE
  8
0
 10
16.525
 11
16.119
 20
11.233
 21
11.026
  0
LINE
  8
0
 10
16.119
 11
15.694
 20
11.026
 21
10.863
  0
LINE
  8
0
 10
15.694
 11
15.254
 20
10.863
 21
10.745
  0
LINE
  8
0
 10
15.254
 11
14.805
 20
10.745
 21
10.674
  0
LINE
  8
0
 10
14.805
 11
14.35
 20
10.674
 21
10.65
  0
LINE
  8
0
 10
14.35
 11
13.895
 20
10.65
 21
10.674
  0
LINE
  8
0
 10
13.895
 11
13.446
 20
10.674
 21
10.745
  0
LINE
  8
0
 10
13.446
 11
13.006
 20
10.745
 21
10.863
  0
LINE
  8
0
 10
13.006
 11
12.581
 20
10.863
 21
11.026
  0
LINE
  8
0
 10
12.581
 11
12.175
 20
11.026
 21
11.233
  0
LINE
  8
0
 10
12.175
 11
11.793
 20
11.233
 21
11.481
  0
LINE
  8
0
 10
11.793
 11
11.439
 20
11.481
 21
11.767
  0
LINE
  8
0
 10
11.439
 11
11.117
 20
11.767
 21
12.089
  0
LINE
  8
0
 10
11.117
 11
10.831
 20
12.089
 21
12.443
  0
LINE
  8
0
 10
10.831
 11
10.583
 20
12.443
 21
12.825
  0
LINE
  8
0
 10
10.583
 11
10.376
 20
12.825
 21
13.231
  0
LINE
  8
0
 10
10.376
 11
10.213
 20
13.231
 21
13.656
  0
LINE
  8
0
 10
10.213
 11
10.095
 20
13.656
 21
14.096
  0
LINE
  8
0
 10
10.095
 11
10.024
 20
14.096
 21
14.545
  0
LINE
  8
0
 10
10.024
 11
10
 20
14.545
 21
15
  0
LINE
  8
0
 10
10
 11
10.024
 20
34.2
 21
34.655
  0
LINE
  8
0
 10
10.024
 11
10.095
 20
34.655
 21
35.104
  0
LINE
  8
0
 10
10.095
 11
10.121
 20
35.104
 21
35.2
  0
LINE
  8
0
 10
10.121
 11
10
 20
35.2
 21
35.2
  0
LINE
  8
0
 10
10
 11
10
 20
35.2
 21
47.2
  0
LINE
  8
0
 10
10
 11
10.121
 20
47.2
 21
47.2
  0
LINE
  8
0
 10
10.121
 11
10.213
 20
47.2
 21
47.544
  0
LINE
  8
0
 10
10.213
 11
10.376
 20
47.544
 21
47.969
  0
LINE
  8
0
 10
10.376
 11
10.583
 20
47.969
 21
48.375
  0
LINE
  8
0
 10
10.583
 11
10.831
 20
48.375
 21
48.757
  0
LINE
  8
0
 10
10.831
 11
11.117
 20
48.757
 21
49.111
  0
LINE
  8
0
 10
11.117
 11
11.439
 20
49.111
 21
49.433
  0
LINE
  8
0
 10
11.439
 11
11.793
 20
49.433
 21
49.719
  0
LINE
  8
0
 10
11.793
 11
12.175
 20
49.719
 21
49.967
  0
LINE
  8
0
 10
12.175
 11
12.581
 20
49.967
 21
50.174
  0
LINE
  8
0
 10
12.581
 11
13.006
 20
50.174
 21
50.337
  0
LINE
  8
0
 10
13.006
 11
13.446
 20
50.337
 21
50.455
  0
LINE
  8
0
 10
13.446
 11
13.895
 20
50.455
 21
50.526
  0
LINE
  8
0
 10
13.895
 11
14.35
 20
50.526
 21
50.55
  0
LINE
  8
0
 10
14.35
 11
14.805
 20
50.55
 21
50.526
  0
LINE
  8
0
 10
14.805
 11
15.254
 20
50.526
 21
50.455
  0
LINE
  8
0
 10
15.254
 11
15.694
 20
50.455
 21
50.337
  0
LINE
  8
0
 10
15.694
 11
16.119
 20
50.337
 21
50.174
  0
LINE
  8
0
 10
16.119
 11
16.525
 20
50.174
 21
49.967
  0
LINE
  8
0
 10
16.525
 11
16.907
 20
49.967
 21
49.719
  0
LINE
  8
0
 10
16.907
 11
17.261
 20
49.719
 21
49.433
  0
LINE
  8
0
 10
17.261
 11
17.583
 20
49.433
 21
49.111
  0
LINE
  8
0
 10
17.583
 11
17.869
 20
49.111
 21
48.757
  0
LINE
  8
0
 10
17.869
 11
18.117
 20
48.757
 21
48.375
  0
LINE
  8
0
 10
18.117
 11
18.324
 20
48.375
 21
47.969
  0
LINE
  8
0
 10
18.324
 11
18.487
 20
47.969
 21
47.544
  0
LINE
  8
0
 10
18.487
 11
18.579
 20
47.544
 21
47.2
  0
LINE
  8
0
 10
18.579
 11
18.7
 20
47.2
 21
47.2
  0
LINE
  8
0
 10
18.7
 11
18.7
 20
47.2
 21
35.2
  0
LINE
  8
0
 10
18.7
 11
18.579
 20
35.2
 21
35.2
  0
LINE
  8
0
 10
18.579
 11
18.605
 20
35.2
 21
35.104
  0
LINE
  8
0
 10
18.605
 11
18.676
 20
35.104
 21
34.655
  0
LINE
  8
0
 10
18.676
 11
18.7
 20
34.655
 21
34.2
  0
LINE
  8
0
 10
18.7
 11
18.676
 20
34.2
 21
33.745
  0
LINE
  8
0
 10
18.676
 11
18.605
 20
33.745
 21
33.296
  0
LINE
  8
0
 10
18.605
 11
18.487
 20
33.296
 21
32.856
  0
LINE
  8
0
 10
18.487
 11
18.324
 20
32.856
 21
32.431
  0
LINE
  8
0
 10
18.324
 11
18.117
 20
32.431
 21
32.025
  0
LINE
  8
0
 10
18.117
 11
17.869
 20
32.025
 21
31.643
  0
LINE
  8
0
 10
17.869
 11
17.583
 20
31.643
 21
31.289
  0
LINE
  8
0
 10
17.583
 11
17.261
 20
31.289
 21
30.967
  0
LINE
  8
0
 10
17.261
 11
16.907
 20
30.967
 21
30.681
  0
LINE
  8
0
 10
16.907
 11
16.525
 20
30.681
 21
30.433
  0
LINE
  8
0
 10
16.525
 11
16.119
 20
30.433
 21
30.226
  0
LINE
  8
0
 10
16.119
 11
15.694
 20
30.226
 21
30.063
  0
LINE
  8
0
 10
15.694
 11
15.254
 20
30.063
 21
29.945
  0
LINE
  8
0
 10
15.254
 11
14.805
 20
29.945
 21
29.874
  0
LINE
  8
0
 10
14.805
 11
14.35
 20
29.874
 21
29.85
  0
LINE
  8
0
 10
14.35
 11
13.895
 20
29.85
 21
29.874
  0
LINE
  8
0
 10
13.895
 11
13.446
 20
29.874
 21
29.945
  0
LINE
  8
0
 10
13.446
 11
13.006
 20
29.945
 21
30.063
  0
LINE
  8
0
 10
13.006
 11
12.581
 20
30.063
 21
30.226
  0
LINE
  8
0
 10
12.581
 11
12.175
 20
30.226
 21
30.433
  0
LINE
  8
0
 10
12.175
 11
11.793
 20
30.433
 21
30.681
  0
LINE
  8
0
 10
11.793
 11
11.439
 20
30.681
 21
30.967
  0
LINE
  8
0
 10
11.439
 11
11.117
 20
30.967
 21
31.289
  0
LINE
  8
0
 10
11.117
 11
10.831
 20
31.289
 21
31.643
  0
LINE
  8
0
 10
10.831
 11
10.583
 20
31.643
 21
32.025
  0
LINE
  8
0
 10
10.583
 11
10.376
 20
32.025
 21
32.431
  0
LINE
  8
0
 10
10.376
 11
10.213
 20
32.431
 21
32.856
  0
LINE
  8
0
 10
10.213
 11
10.095
 20
32.856
 21
33.296
  0
LINE
  8
0
 10
10.095
 11
10.024
 20
33.296
 21
33.745
  0
LINE
  8
0
 10
10.024
 11
10
 20
33.745
 21
34.2
  0
LINE
  8
0
 10
26.3
 11
26.31
 20
10.7
 21
10.888
  0
LINE
  8
0
 10
26.31
 11
26.339
 20
10.888
 21
11.074
  0
LINE
  8
0
 10
26.339
 11
26.388
 20
11.074
 21
11.256
  0
LINE
  8
0
 10
26.388
 11
26.456
 20
11.256
 21
11.432
  0
LINE
  8
0
 10
26.456
 11
26.541
 20
11.432
 21
11.6
  0
LINE
  8
0
 10
26.541
 11
26.644
 20
11.6
 21
11.758
  0
LINE
  8
0
 10
26.644
 11
26.762
 20
11.758
 21
11.904
  0
LINE
  8
0
 10
26.762
 11
26.896
 20
11.904
 21
12.038
  0
LINE
  8
0
 10
26.896
 11
27.042
 20
12.038
 21
12.156
  0
LINE
  8
0
 10
27.042
 11
27.2
 20
12.156
 21
12.259
  0
LINE
  8
0
 10
27.2
 11
27.368
 20
12.259
 21
12.344
  0
LINE
  8
0
 10
27.368
 11
27.544
 20
12.344
 21
12.412
  0
LINE
  8
0
 10
27.544
 11
27.726
 20
12.412
 21
12.461
  0
LINE
  8
0
 10
27.726
 11
27.912
 20
12.461
 21
12.49
  0
LINE
  8
0
 10
27.912
 11
28.1
 20
12.49
 21
12.5
  0
LINE
  8
0
 10
28.1
 11
28.288
 20
12.5
 21
12.49
  0
LINE
  8
0
 10
28.288
 11
28.474
 20
12.49
 21
12.461
  0
LINE
  8
0
 10
28.474
 11
28.656
 20
12.461
 21
12.412
  0
LINE
  8
0
 10
28.656
 11
28.832
 20
12.412
 21
12.344
  0
LINE
  8
0
 10
28.832
 11
29
 20
12.344
 21
12.259
  0
LINE
  8
0
 10
29
 11
29.158
 20
12.259
 21
12.156
  0
LINE
  8
0
 10
29.158
 11
29.304
 20
12.156
 21
12.038
  0
LINE
  8
0
 10
29.304
 11
29.438
 20
12.038
 21
11.904
  0
LINE
  8
0
 10
29.438
 11
29.556
 20
11.904
 21
11.758
  0
LINE
  8
0
 10
29.556
 11
29.659
 20
11.758
 21
11.6
  0
LINE
  8
0
 10
29.659
 11
29.744
 20
11.6
 21
11.432
  0
LINE
  8
0
 10
29.744
 11
29.812
 20
11.432
 21
11.256
  0
LINE
  8
0
 10
29.812
 11
29.861
 20
11.256
 21
11.074
  0
LINE
  8
0
 10
29.861
 11
29.89
 20
11.074
 21
10.888
  0
LINE
  8
0
 10
29.89
 11
29.9
 20
10.888
 21
10.7
  0
LINE
  8
0
 10
29.9
 11
29.89
 20
10.7
 21
10.512
  0
LINE
  8
0
 10
29.89
 11
29.861
 20
10.512
 21
10.326
  0
LINE
  8
0
 10
29.861
 11
29.812
 20
10.326
 21
10.144
  0
LINE
  8
0
 10
29.812
 11
29.744
 20
10.144
 21
9.968
  0
LINE
  8
0
 10
29.744
 11
29.659
 20
9.968
 21
9.8
  0
LINE
  8
0
 10
29.659
 11
29.556
 20
9.8
 21
9.642
  0
LINE
  8
0
 10
29.556
 11
29.438
 20
9.642
 21
9.496
  0
LINE
  8
0
 10
29.438
 11
29.304
 20
9.496
 21
9.362
  0
LINE
  8
0
 10
29.304
 11
29.158
 20
9.362
 21
9.244
  0
LINE
  8
0
 10
29.158
 11
29
 20
9.244
 21
9.141
  0
LINE
  8
0
 10
29
 11
28.832
 20
9.141
 21
9.056
  0
LINE
  8
0
 10
28.832
 11
28.656
 20
9.056
 21
8.988
  0
LINE
  8
0
 10
28.656
 11
28.474
 20
8.988
 21
8.939
  0
LINE
  8
0
 10
28.474
 11
28.288
 20
8.939
 21
8.91
  0
LINE
  8
0
 10
28.288
 11
28.1
 20
8.91
 21
8.9
  0
LINE
  8
0
 10
28.1
 11
27.912
 20
8.9
 21
8.91
  0
LINE
  8
0
 10
27.912
 11
27.726
 20
8.91
 21
8.939
  0
LINE
  8
0
 10
27.726
 11
27.544
 20
8.939
 21
8.988
  0
LINE
  8
0
 10
27.544
 11
27.368
 20
8.988
 21
9.056
  0
LINE
  8
0
 10
27.368
 11
27.2
 20
9.056
 21
9.141
  0
LINE
  8
0
 10
27.2
 11
27.042
 20
9.141
 21
9.244
  0
LINE
  8
0
 10
27.042
 11
26.896
 20
9.244
 21
9.362
  0
LINE
  8
0
 10
26.896
 11
26.762
 20
9.362
 21
9.496
  0
LINE
  8
0
 10
26.762
 11
26.644
 20
9.496
 21
9.642
  0
LINE
  8
0
 10
26.644
 11
26.541
 20
9.642
 21
9.8
  0
LINE
  8
0
 10
26.541
 11
26.456
 20
9.8
 21
9.968
  0
LINE
  8
0
 10
26.456
 11
26.388
 20
9.968
 21
10.144
  0
LINE
  8
0
 10
26.388
 11
26.339
 20
10.144
 21
10.326
  0
LINE
  8
0
 10
26.339
 11
26.31
 20
10.326
 21
10.512
  0
LINE
  8
0
 10
26.31
 11
26.3
 20
10.512
 21
10.7
  0
LINE
  8
0
 10
26.3
 11
26.31
 20
41.7
 21
41.888
  0
LINE
  8
0
 10
26.31
 11
26.339
 20
41.888
 21
42.074
  0
LINE
  8
0
 10
26.339
 11
26.388
 20
42.074
 21
42.256
  0
LINE
  8
0
 10
26.388
 11
26.456
 20
42.256
 21
42.432
  0
LINE
  8
0
 10
26.456
 11
26.541
 20
42.432
 21
42.6
  0
LINE
  8
0
 10
26.541
 11
26.644
 20
42.6
 21
42.758
  0
LINE
  8
0
 10
26.644
 11
26.762
 20
42.758
 21
42.904
  0
LINE
  8
0
 10
26.762
 11
26.896
 20
42.904
 21
43.038
  0
LINE
  8
0
 10
26.896
 11
27.042
 20
43.038
 21
43.156
  0
LINE
  8
0
 10
27.042
 11
27.2
 20
43.156
 21
43.259
  0
LINE
  8
0
 10
27.2
 11
27.368
 20
43.259
 21
43.344
  0
LINE
  8
0
 10
27.368
 11
27.544
 20
43.344
 21
43.412
  0
LINE
  8
0
 10
27.544
 11
27.726
 20
43.412
 21
43.461
  0
LINE
  8
0
 10
27.726
 11
27.912
 20
43.461
 21
43.49
  0
LINE
  8
0
 10
27.912
 11
28.1
 20
43.49
 21
43.5
  0
LINE
  8
0
 10
28.1
 11
28.288
 20
43.5
 21
43.49
  0
LINE
  8
0
 10
28.288
 11
28.474
 20
43.49
 21
43.461
  0
LINE
  8
0
 10
28.474
 11
28.656
 20
43.461
 21
43.412
  0
LINE
  8
0
 10
28.656
 11
28.832
 20
43.412
 21
43.344
  0
LINE
  8
0
 10
28.832
 11
29
 20
43.344
 21
43.259
  0
LINE
  8
0
 10
29
 11
29.158
 20
43.259
 21
43.156
  0
LINE
  8
0
 10
29.158
 11
29.304
 20
43.156
 21
43.038
  0
LINE
  8
0
 10
29.304
 11
29.438
 20
43.038
 21
42.904
  0
LINE
  8
0
 10
29.438
 11
29.556
 20
42.904
 21
42.758
  0
LINE
  8
0
 10
29.556
 11
29.659
 20
42.758
 21
42.6
  0
LINE
  8
0
 10
29.659
 11
29.744
 20
42.6
 21
42.432
  0
LINE
  8
0
 10
29.744
 11
29.812
 20
42.432
 21
42.256
  0
LINE
  8
0
 10
29.812
 11
29.861
 20
42.256
 21
42.074
  0
LINE
  8
0
 10
29.861
 11
29.89
 20
42.074
 21
41.888
  0
LINE
  8
0
 10
29.89
 11
29.9
 20
41.888
 21
41.7
  0
LINE
  8
0
 10
29.9
 11
29.89
 20
41.7
 21
41.512
  0
LINE
  8
0
 10
29.89
 11
29.861
 20
41.512
 21
41.326
  0
LINE
  8
0
 10
29.861
 11
29.812
 20
41.326
 21
41.144
  0
LINE
  8
0
 10
29.812
 11
29.744
 20
41.144
 21
40.968
  0
LINE
  8
0
 10
29.744
 11
29.659
 20
40.968
 21
40.8
  0
LINE
  8
0
 10
29.659
 11
29.556
 20
40.8
 21
40.642
  0
LINE
  8
0
 10
29.556
 11
29.438
 20
40.642
 21
40.496
  0
LINE
  8
0
 10
29.438
 11
29.304
 20
40.496
 21
40.362
  0
LINE
  8
0
 10
29.304
 11
29.158
 20
40.362
 21
40.244
  0
LINE
  8
0
 10
29.158
 11
29
 20
40.244
 21
40.141
  0
LINE
  8
0
 10
29
 11
28.832
 20
40.141
 21
40.056
  0
LINE
  8
0
 10
28.832
 11
28.656
 20
40.056
 21
39.988
  0
LINE
  8
0
 10
28.656
 11
28.474
 20
39.988
 21
39.939
  0
LINE
  8
0
 10
28.474
 11
28.288
 20
39.939
 21
39.91
  0
LINE
  8
0
 10
28.288
 11
28.1
 20
39.91
 21
39.9
  0
LINE
  8
0
 10
28.1
 11
27.912
 20
39.9
 21
39.91
  0
LINE
  8
0
 10
27.912
 11
27.726
 20
39.91
 21
39.939
  0
LINE
  8
0
 10
27.726
 11
27.544
 20
39.939
 21
39.988
  0
LINE
  8
0
 10
27.544
 11
27.368
 20
39.988
 21
40.056
  0
LINE
  8
0
 10
27.368
 11
27.2
 20
40.056
 21
40.141
  0
LINE
  8
0
 10
27.2
 11
27.042
 20
40.141
 21
40.244
  0
LINE
  8
0
 10
27.042
 11
26.896
 20
40.244
 21
40.362
  0
LINE
  8
0
 10
26.896
 11
26.762
 20
40.362
 21
40.496
  0
LINE
  8
0
 10
26.762
 11
26.644
 20
40.496
 21
40.642
  0
LINE
  8
0
 10
26.644
 11
26.541
 20
40.642
 21
40.8
  0
LINE
  8
0
 10
26.541
 11
26.456
 20
40.8
 21
40.968
  0
LINE
  8
0
 10
26.456
 11
26.388
 20
40.968
 21
41.144
  0
LINE
  8
0
 10
26.388
 11
26.339
 20
41.144
 21
41.326
  0
LINE
  8
0
 10
26.339
 11
26.31
 20
41.326
 21
41.512
  0
LINE
  8
0
 10
26.31
 11
26.3
 20
41.512
 21
41.7
  0
LINE
  8
0
 10
30.6
 11
30.671
 20
26.2
 21
27.559
  0
LINE
  8
0
 10
30.671
 11
30.884
 20
27.559
 21
28.903
  0
LINE
  8
0
 10
30.884
 11
31.236
 20
28.903
 21
30.217
  0
LINE
  8
0
 10
31.236
 11
31.724
 20
30.217
 21
31.488
  0
LINE
  8
0
 10
31.724
 11
32.342
 20
31.488
 21
32.7
  0
LINE
  8
0
 10
32.342
 11
33.083
 20
32.7
 21
33.841
  0
LINE
  8
0
 10
33.083
 11
33.939
 20
33.841
 21
34.899
  0
LINE
  8
0
 10
33.939
 11
34.901
 20
34.899
 21
35.861
  0
LINE
  8
0
 10
34.901
 11
35.959
 20
35.861
 21
36.717
  0
LINE
  8
0
 10
35.959
 11
37.1
 20
36.717
 21
37.458
  0
LINE
  8
0
 10
37.1
 11
38.312
 20
37.458
 21
38.076
  0
LINE
  8
0
 10
38.312
 11
39.583
 20
38.076
 21
38.564
  0
LINE
  8
0
 10
39.583
 11
40.897
 20
38.564
 21
38.916
  0
LINE
  8
0
 10
40.897
 11
42.241
 20
38.916
 21
39.129
  0
LINE
  8
0
 10
42.241
 11
43.6
 20
39.129
 21
39.2
  0
LINE
  8
0
 10
43.6
 11
44.959
 20
39.2
 21
39.129
  0
LINE
  8
0
 10
44.959
 11
46.303
 20
39.129
 21
38.916
  0
LINE
  8
0
 10
46.303
 11
47.617
 20
38.916
 21
38.564
  0
LINE
  8
0
 10
47.617
 11
48.888
 20
38.564
 21
38.076
  0
LINE
  8
0
 10
48.888
 11
50.1
 20
38.076
 21
37.458
  0
LINE
  8
0
 10
50.1
 11
51.241
 20
37.458
 21
36.717
  0
LINE
  8
0
 10
51.241
 11
52.299
 20
36.717
 21
35.861
  0
LINE
  8
0
 10
52.299
 11
53.261
 20
35.861
 21
34.899
  0
LINE
  8
0
 10
53.261
 11
54.117
 20
34.899
 21
33.841
  0
LINE
  8
0
 10
54.117
 11
54.858
 20
33.841
 21
32.7
  0
LINE
  8
0
 10
54.858
 11
55.476
 20
32.7
 21
31.488
  0
LINE
  8
0
 10
55.476
 11
55.964
 20
31.488
 21
30.217
  0
LINE
  8
0
 10
55.964
 11
56.316
 20
30.217
 21
28.903
  0
LINE
  8
0
 10
56.316
 11
56.529
 20
28.903
 21
27.559
  0
LINE
  8
0
 10
56.529
 11
56.6
 20
27.559
 21
26.2
  0
LINE
  8
0
 10
56.6
 11
56.529
 20
26.2
 21
24.841
  0
LINE
  8
0
 10
56.529
 11
56.316
 20
24.841
 21
23.497
  0
LINE
  8
0
 10
56.316
 11
55.964
 20
23.497
 21
22.183
  0
LINE
  8
0
 10
55.964
 11
55.476
 20
22.183
 21
20.912
  0
LINE
  8
0
 10
55.476
 11
54.858
 20
20.912
 21
19.7
  0
LINE
  8
0
 10
54.858
 11
54.117
 20
19.7
 21
18.559
  0
LINE
  8
0
 10
54.117
 11
53.261
 20
18.559
 21
17.501
  0
LINE
  8
0
 10
53.261
 11
52.299
 20
17.501
 21
16.539
  0
LINE
  8
0
 10
52.299
 11
51.241
 20
16.539
 21
15.683
  0
LINE
  8
0
 10
51.241
 11
50.1
 20
15.683
 21
14.942
  0
LINE
  8
0
 10
50.1
 11
48.888
 20
14.942
 21
14.324
  0
LINE
  8
0
 10
48.888
 11
47.617
 20
14.324
 21
13.836
  0
LINE
  8
0
 10
47.617
 11
46.303
 20
13.836
 21
13.484
  0
LINE
  8
0
 10
46.303
 11
44.959
 20
13.484
 21
13.271
  0
LINE
  8
0
 10
44.959
 11
43.6
 20
13.271
 21
13.2
  0
LINE
  8
0
 10
43.6
 11
42.241
 20
13.2
 21
13.271
  0
LINE
  8
0
 10
42.241
 11
40.897
 20
13.271
 21
13.484
  0
LINE
  8
0
 10
40.897
 11
39.583
 20
13.484
 21
13.836
  0
LINE
  8
0
 10
39.583
 11
38.312
 20
13.836
 21
14.324
  0
LINE
  8
0
 10
38.312
 11
37.1
 20
14.324
 21
14.942
  0
LINE
  8
0
 10
37.1
 11
35.959
 20
14.942
 21
15.683
  0
LINE
  8
0
 10
35.959
 11
34.901
 20
15.683
 21
16.539
  0
LINE
  8
0
 10
34.901
 11
33.939
 20
16.539
 21
17.501
  0
LINE
  8
0
 10
33.939
 11
33.083
 20
17.501
 21
18.559
  0
LINE
  8
0
 10
33.083
 11
32.342
 20
18.559
 21
19.7
  0
LINE
  8
0
 10
32.342
 11
31.724
 20
19.7
 21
20.912
  0
LINE
  8
0
 10
31.724
 11
31.236
 20
20.912
 21
22.183
  0
LINE
  8
0
 10
31.236
 11
30.884
 20
22.183
 21
23.497
  0
LINE
  8
0
 10
30.884
 11
30.671
 20
23.497
 21
24.841
  0
LINE
  8
0
 10
30.671
 11
30.6
 20
24.841
 21
26.2
  0
LINE
  8
0
 10
57.3
 11
57.31
 20
10.7
 21
10.888
  0
LINE
  8
0
 10
57.31
 11
57.339
 20
10.888
 21
11.074
  0
LINE
  8
0
 10
57.339
 11
57.388
 20
11.074
 21
11.256
  0
LINE
  8
0
 10
57.388
 11
57.456
 20
11.256
 21
11.432
  0
LINE
  8
0
 10
57.456
 11
57.541
 20
11.432
 21
11.6
  0
LINE
  8
0
 10
57.541
 11
57.644
 20
11.6
 21
11.758
  0
LINE
  8
0
 10
57.644
 11
57.762
 20
11.758
 21
11.904
  0
LINE
  8
0
 10
57.762
 11
57.896
 20
11.904
 21
12.038
  0
LINE
  8
0
 10
57.896
 11
58.042
 20
12.038
 21
12.156
  0
LINE
  8
0
 10
58.042
 11
58.2
 20
12.156
 21
12.259
  0
LINE
  8
0
 10
58.2
 11
58.368
 20
12.259
 21
12.344
  0
LINE
  8
0
 10
58.368
 11
58.544
 20
12.344
 21
12.412
  0
LINE
  8
0
 10
58.544
 11
58.726
 20
12.412
 21
12.461
  0
LINE
  8
0
 10
58.726
 11
58.912
 20
12.461
 21
12.49
  0
LINE
  8
0
 10
58.912
 11
59.1
 20
12.49
 21
12.5
  0
LINE
  8
0
 10
59.1
 11
59.288
 20
12.5
 21
12.49
  0
LINE
  8
0
 10
59.288
 11
59.474
 20
12.49
 21
12.461
  0
LINE
  8
0
 10
59.474
 11
59.656
 20
12.461
 21
12.412
  0
LINE
  8
0
 10
59.656
 11
59.832
 20
12.412
 21
12.344
  0
LINE
  8
0
 10
59.832
 11
60
 20
12.344
 21
12.259
  0
LINE
  8
0
 10
60
 11
60.158
 20
12.259
 21
12.156
  0
LINE
  8
0
 10
60.158
 11
60.304
 20
12.156
 21
12.038
  0
LINE
  8
0
 10
60.304
 11
60.438
 20
12.038
 21
11.904
  0
LINE
  8
0
 10
60.438
 11
60.556
 20
11.904
 21
11.758
  0
LINE
  8
0
 10
60.556
 11
60.659
 20
11.758
 21
11.6
  0
LINE
  8
0
 10
60.659
 11
60.744
 20
11.6
 21
11.432
  0
LINE
  8
0
 10
60.744
 11
60.812
 20
11.432
 21
11.256
  0
LINE
  8
0
 10
60.812
 11
60.861
 20
11.256
 21
11.074
  0
LINE
  8
0
 10
60.861
 11
60.89
 20
11.074
 21
10.888
  0
LINE
  8
0
 10
60.89
 11
60.9
 20
10.888
 21
10.7
  0
LINE
  8
0
 10
60.9
 11
60.89
 20
10.7
 21
10.512
  0
LINE
  8
0
 10
60.89
 11
60.861
 20
10.512
 21
10.326
  0
LINE
  8
0
 10
60.861
 11
60.812
 20
10.326
 21
10.144
  0
LINE
  8
0
 10
60.812
 11
60.744
 20
10.144
 21
9.968
  0
LINE
  8
0
 10
60.744
 11
60.659
 20
9.968
 21
9.8
  0
LINE
  8
0
 10
60.659
 11
60.556
 20
9.8
 21
9.642
  0
LINE
  8
0
 10
60.556
 11
60.438
 20
9.642
 21
9.496
  0
LINE
  8
0
 10
60.438
 11
60.304
 20
9.496
 21
9.362
  0
LINE
  8
0
 10
60.304
 11
60.158
 20
9.362
 21
9.244
  0
LINE
  8
0
 10
60.158
 11
60
 20
9.244
 21
9.141
  0
LINE
  8
0
 10
60
 11
59.832
 20
9.141
 21
9.056
  0
LINE
  8
0
 10
59.832
 11
59.656
 20
9.056
 21
8.988
  0
LINE
  8
0
 10
59.656
 11
59.474
 20
8.988
 21
8.939
  0
LINE
  8
0
 10
59.474
 11
59.288
 20
8.939
 21
8.91
  0
LINE
  8
0
 10
59.288
 11
59.1
 20
8.91
 21
8.9
  0
LINE
  8
0
 10
59.1
 11
58.912
 20
8.9
 21
8.91
  0
LINE
  8
0
 10
58.912
 11
58.726
 20
8.91
 21
8.939
  0
LINE
  8
0
 10
58.726
 11
58.544
 20
8.939
 21
8.988
  0
LINE
  8
0
 10
58.544
 11
58.368
 20
8.988
 21
9.056
  0
LINE
  8
0
 10
58.368
 11
58.2
 20
9.056
 21
9.141
  0
LINE
  8
0
 10
58.2
 11
58.042
 20
9.141
 21
9.244
  0
LINE
  8
0
 10
58.042
 11
57.896
 20
9.244
 21
9.362
  0
LINE
  8
0
 10
57.896
 11
57.762
 20
9.362
 21
9.496
  0
LINE
  8
0
 10
57.762
 11
57.644
 20
9.496
 21
9.642
  0
LINE
  8
0
 10
57.644
 11
57.541
 20
9.642
 21
9.8
  0
LINE
  8
0
 10
57.541
 11
57.456
 20
9.8
 21
9.968
  0
LINE
  8
0
 10
57.456
 11
57.388
 20
9.968
 21
10.144
  0
LINE
  8
0
 10
57.388
 11
57.339
 20
10.144
 21
10.326
  0
LINE
  8
0
 10
57.339
 11
57.31
 20
10.326
 21
10.512
  0
LINE
  8
0
 10
57.31
 11
57.3
 20
10.512
 21
10.7
  0
LINE
  8
0
 10
57.3
 11
57.31
 20
41.7
 21
41.888
  0
LINE
  8
0
 10
57.31
 11
57.339
 20
41.888
 21
42.074
  0
LINE
  8
0
 10
57.339
 11
57.388
 20
42.074
 21
42.256
  0
LINE
  8
0
 10
57.388
 11
57.456
 20
42.256
 21
42.432
  0
LINE
  8
0
 10
57.456
 11
57.541
 20
42.432
 21
42.6
  0
LINE
  8
0
 10
57.541
 11
57.644
 20
42.6
 21
42.758
  0
LINE
  8
0
 10
57.644
 11
57.762
 20
42.758
 21
42.904
  0
LINE
  8
0
 10
57.762
 11
57.896
 20
42.904
 21
43.038
  0
LINE
  8
0
 10
57.896
 11
58.042
 20
43.038
 21
43.156
  0
LINE
  8
0
 10
58.042
 11
58.2
 20
43.156
 21
43.259
  0
LINE
  8
0
 10
58.2
 11
58.368
 20
43.259
 21
43.344
  0
LINE
  8
0
 10
58.368
 11
58.544
 20
43.344
 21
43.412
  0
LINE
  8
0
 10
58.544
 11
58.726
 20
43.412
 21
43.461
  0
LINE
  8
0
 10
58.726
 11
58.912
 20
43.461
 21
43.49
  0
LINE
  8
0
 10
58.912
 11
59.1
 20
43.49
 21
43.5
  0
LINE
  8
0
 10
59.1
 11
59.288
 20
43.5
 21
43.49
  0
LINE
  8
0
 10
59.288
 11
59.474
 20
43.49
 21
43.461
  0
LINE
  8
0
 10
59.474
 11
59.656
 20
43.461
 21
43.412
  0
LINE
  8
0
 10
59.656
 11
59.832
 20
43.412
 21
43.344
  0
LINE
  8
0
 10
59.832
 11
60
 20
43.344
 21
43.259
  0
LINE
  8
0
 10
60
 11
60.158
 20
43.259
 21
43.156
  0
LINE
  8
0
 10
60.158
 11
60.304
 20
43.156
 21
43.038
  0
LINE
  8
0
 10
60.304
 11
60.438
 20
43.038
 21
42.904
  0
LINE
  8
0
 10
60.438
 11
60.556
 20
42.904
 21
42.758
  0
LINE
  8
0
 10
60.556
 11
60.659
 20
42.758
 21
42.6
  0
LINE
  8
0
 10
60.659
 11
60.744
 20
42.6
 21
42.432
  0
LINE
  8
0
 10
60.744
 11
60.812
 20
42.432
 21
42.256
  0
LINE
  8
0
 10
60.812
 11
60.861
 20
42.256
 21
42.074
  0
LINE
  8
0
 10
60.861
 11
60.89
 20
42.074
 21
41.888
  0
LINE
  8
0
 10
60.89
 11
60.9
 20
41.888
 21
41.7
  0
LINE
  8
0
 10
60.9
 11
60.89
 20
41.7
 21
41.512
  0
LINE
  8
0
 10
60.89
 11
60.861
 20
41.512
 21
41.326
  0
LINE
  8
0
 10
60.861
 11
60.812
 20
41.326
 21
41.144
  0
LINE
  8
0
 10
60.812
 11
60.744
 20
41.144
 21
40.968
  0
LINE
  8
0
 10
60.744
 11
60.659
 20
40.968
 21
40.8
  0
LINE
  8
0
 10
60.659
 11
60.556
 20
40.8
 21
40.642
  0
LINE
  8
0
 10
60.556
 11
60.438
 20
40.642
 21
40.496
  0
LINE
  8
0
 10
60.438
 11
60.304
 20
40.496
 21
40.362
  0
LINE
  8
0
 10
60.304
 11
60.158
 20
40.362
 21
40.244
  0
LINE
  8
0
 10
60.158
 11
60
 20
40.244
 21
40.141
  0
LINE
  8
0
 10
60
 11
59.832
 20
40.141
 21
40.056
  0
LINE
  8
0
 10
59.832
 11
59.656
 20
40.056
 21
39.988
  0
LINE
  8
0
 10
59.656
 11
59.474
 20
39.988
 21
39.939
  0
LINE
  8
0
 10
59.474
 11
59.288
 20
39.939
 21
39.91
  0
LINE
  8
0
 10
59.288
 11
59.1
 20
39.91
 21
39.9
  0
LINE
  8
0
 10
59.1
 11
58.912
 20
39.9
 21
39.91
  0
LINE
  8
0
 10
58.912
 11
58.726
 20
39.91
 21
39.939
  0
LINE
  8
0
 10
58.726
 11
58.544
 20
39.939
 21
39.988
  0
LINE
  8
0
 10
58.544
 11
58.368
 20
39.988
 21
40.056
  0
LINE
  8
0
 10
58.368
 11
58.2
 20
40.056
 21
40.141
  0
LINE
  8
0
 10
58.2
 11
58.042
 20
40.141
 21
40.244
  0
LINE
  8
0
 10
58.042
 11
57.896
 20
40.244
 21
40.362
  0
LINE
  8
0
 10
57.896
 11
57.762
 20
40.362
 21
40.496
  0
LINE
  8
0
 10
57.762
 11
57.644
 20
40.496
 21
40.642
  0
LINE
  8
0
 10
57.644
 11
57.541
 20
40.642
 21
40.8
  0
LINE
  8
0
 10
57.541
 11
57.456
 20
40.8
 21
40.968
  0
LINE
  8
0
 10
57.456
 11
57.388
 20
40.968
 21
41.144
  0
LINE
  8
0
 10
57.388
 11
57.339
 20
41.144
 21
41.326
  0
LINE
  8
0
 10
57.339
 11
57.31
 20
41.326
 21
41.512
  0
LINE
  8
0
 10
57.31
 11
57.3
 20
41.512
 21
41.7
  0
LINE
  8
0
 10
68.5
 11
68.524
 20
15
 21
15.455
  0
LINE
  8
0
 10
68.524
 11
68.595
 20
15.455
 21
15.904
  0
LINE
  8
0
 10
68.595
 11
68.713
 20
15.904
 21
16.344
  0
LINE
  8
0
 10
68.713
 11
68.876
 20
16.344
 21
16.769
  0
LINE
  8
0
 10
68.876
 11
69.083
 20
16.769
 21
17.175
  0
LINE
  8
0
 10
69.083
 11
69.331
 20
17.175
 21
17.557
  0
LINE
  8
0
 10
69.331
 11
69.617
 20
17.557
 21
17.911
  0
LINE
  8
0
 10
69.617
 11
69.939
 20
17.911
 21
18.233
  0
LINE
  8
0
 10
69.939
 11
70.293
 20
18.233
 21
18.519
  0
LINE
  8
0
 10
70.293
 11
70.675
 20
18.519
 21
18.767
  0
LINE
  8
0
 10
70.675
 11
71.081
 20
18.767
 21
18.974
  0
LINE
  8
0
 10
71.081
 11
71.506
 20
18.974
 21
19.137
  0
LINE
  8
0
 10
71.506
 11
71.946
 20
19.137
 21
19.255
  0
LINE
  8
0
 10
71.946
 11
72.395
 20
19.255
 21
19.326
  0
LINE
  8
0
 10
72.395
 11
72.85
 20
19.326
 21
19.35
  0
LINE
  8
0
 10
72.85
 11
73.305
 20
19.35
 21
19.326
  0
LINE
  8
0
 10
73.305
 11
73.754
 20
19.326
 21
19.255
  0
LINE
  8
0
 10
73.754
 11
74.194
 20
19.255
 21
19.137
  0
LINE
  8
0
 10
74.194
 11
74.619
 20
19.137
 21
18.974
  0
LINE
  8
0
 10
74.619
 11
75.025
 20
18.974
 21
18.767
  0
LINE
  8
0
 10
75.025
 11
75.407
 20
18.767
 21
18.519
  0
LINE
  8
0
 10
75.407
 11
75.761
 20
18.519
 21
18.233
  0
LINE
  8
0
 10
75.761
 11
76.083
 20
18.233
 21
17.911
  0
LINE
  8
0
 10
76.083
 11
76.369
 20
17.911
 21
17.557
  0
LINE
  8
0
 10
76.369
 11
76.617
 20
17.557
 21
17.175
  0
LINE
  8
0
 10
76.617
 11
76.824
 20
17.175
 21
16.769
  0
LINE
  8
0
 10
76.824
 11
76.987
 20
16.769
 21
16.344
  0
LINE
  8
0
 10
76.987
 11
77.105
 20
16.344
 21
15.904
  0
LINE
  8
0
 10
77.105
 11
77.176
 20
15.904
 21
15.455
  0
LINE
  8
0
 10
77.176
 11
77.2
 20
15.455
 21
15
  0
LINE
  8
0
 10
77.2
 11
77.176
 20
15
 21
14.545
  0
LINE
  8
0
 10
77.176
 11
77.105
 20
14.545
 21
14.096
  0
LINE
  8
0
 10
77.105
 11
76.987
 20
14.096
 21
13.656
  0
LINE
  8
0
 10
76.987
 11
76.824
 20
13.656
 21
13.231
  0
LINE
  8
0
 10
76.824
 11
76.617
 20
13.231
 21
12.825
  0
LINE
  8
0
 10
76.617
 11
76.369
 20
12.825
 21
12.443
  0
LINE
  8
0
 10
76.369
 11
76.083
 20
12.443
 21
12.089
  0
LINE
  8
0
 10
76.083
 11
75.761
 20
12.089
 21
11.767
  0
LINE
  8
0
 10
75.761
 11
75.407
 20
11.767
 21
11.481
  0
LINE
  8
0
 10
75.407
 11
75.025
 20
11.481
 21
11.233
  0
LINE
  8
0
 10
75.025
 11
74.619
 20
11.233
 21
11.026
  0
LINE
  8
0
 10
74.619
 11
74.194
 20
11.026
 21
10.863
  0
LINE
  8
0
 10
74.194
 11
73.754
 20
10.863
 21
10.745
  0
LINE
  8
0
 10
73.754
 11
73.305
 20
10.745
 21
10.674
  0
LINE
  8
0
 10
73.305
 11
72.85
 20
10.674
 21
10.65
  0
LINE
  8
0
 10
72.85
 11
72.395
 20
10.65
 21
10.674
  0
LINE
  8
0
 10
72.395
 11
71.946
 20
10.674
 21
10.745
  0
LINE
  8
0
 10
71.946
 11
71.506
 20
10.745
 21
10.863
  0
LINE
  8
0
 10
71.506
 11
71.081
 20
10.863
 21
11.026
  0
LINE
  8
0
 10
71.081
 11
70.675
 20
11.026
 21
11.233
  0
LINE
  8
0
 10
70.675
 11
70.293
 20
11.233
 21
11.481
  0
LINE
  8
0
 10
70.293
 11
69.939
 20
11.481
 21
11.767
  0
LINE
  8
0
 10
69.939
 11
69.617
 20
11.767
 21
12.089
  0
LINE
  8
0
 10
69.617
 11
69.331
 20
12.089
 21
12.443
  0
LINE
  8
0
 10
69.331
 11
69.083
 20
12.443
 21
12.825
  0
LINE
  8
0
 10
69.083
 11
68.876
 20
12.825
 21
13.231
  0
LINE
  8
0
 10
68.876
 11
68.713
 20
13.231
 21
13.656
  0
LINE
  8
0
 10
68.713
 11
68.595
 20
13.656
 21
14.096
  0
LINE
  8
0
 10
68.595
 11
68.524
 20
14.096
 21
14.545
  0
LINE
  8
0
 10
68.524
 11
68.5
 20
14.545
 21
15
  0
LINE
  8
0
 10
68.5
 11
68.524
 20
34.2
 21
34.655
  0
LINE
  8
0
 10
68.524
 11
68.595
 20
34.655
 21
35.104
  0
LINE
  8
0
 10
68.595
 11
68.621
 20
35.104
 21
35.2
  0
LINE
  8
0
 10
68.621
 11
68.5
 20
35.2
 21
35.2
  0
LINE
  8
0
 10
68.5
 11
68.5
 20
35.2
 21
47.2
  0
LINE
  8
0
 10
68.5
 11
68.621
 20
47.2
 21
47.2
  0
LINE
  8
0
 10
68.621
 11
68.713
 20
47.2
 21
47.544
  0
LINE
  8
0
 10
68.713
 11
68.876
 20
47.544
 21
47.969
  0
LINE
  8
0
 10
68.876
 11
69.083
 20
47.969
 21
48.375
  0
LINE
  8
0
 10
69.083
 11
69.331
 20
48.375
 21
48.757
  0
LINE
  8
0
 10
69.331
 11
69.617
 20
48.757
 21
49.111
  0
LINE
  8
0
 10
69.617
 11
69.939
 20
49.111
 21
49.433
  0
LINE
  8
0
 10
69.939
 11
70.293
 20
49.433
 21
49.719
  0
LINE
  8
0
 10
70.293
 11
70.675
 20
49.719
 21
49.967
  0
LINE
  8
0
 10
70.675
 11
71.081
 20
49.967
 21
50.174
  0
LINE
  8
0
 10
71.081
 11
71.506
 20
50.174
 21
50.337
  0
LINE
  8
0
 10
71.506
 11
71.946
 20
50.337
 21
50.455
  0
LINE
  8
0
 10
71.946
 11
72.395
 20
50.455
 21
50.526
  0
LINE
  8
0
 10
72.395
 11
72.85
 20
50.526
 21
50.55
  0
LINE
  8
0
 10
72.85
 11
73.305
 20
50.55
 21
50.526
  0
LINE
  8
0
 10
73.305
 11
73.754
 20
50.526
 21
50.455
  0
LINE
  8
0
 10
73.754
 11
74.194
 20
50.455
 21
50.337
  0
LINE
  8
0
 10
74.194
 11
74.619
 20
50.337
 21
50.174
  0
LINE
  8
0
 10
74.619
 11
75.025
 20
50.174
 21
49.967
  0
LINE
  8
0
 10
75.025
 11
75.407
 20
49.967
 21
49.719
  0
LINE
  8
0
 10
75.407
 11
75.761
 20
49.719
 21
49.433
  0
LINE
  8
0
 10
75.761
 11
76.083
 20
49.433
 21
49.111
  0
LINE
  8
0
 10
76.083
 11
76.369
 20
49.111
 21
48.757
  0
LINE
  8
0
 10
76.369
 11
76.617
 20
48.757
 21
48.375
  0
LINE
  8
0
 10
76.617
 11
76.824
 20
48.375
 21
47.969
  0
LINE
  8
0
 10
76.824
 11
76.987
 20
47.969
 21
47.544
  0
LINE
  8
0
 10
76.987
 11
77.079
 20
47.544
 21
47.2
  0
LINE
  8
0
 10
77.079
 11
77.2
 20
47.2
 21
47.2
  0
LINE
  8
0
 10
77.2
 11
77.2
 20
47.2
 21
35.2
  0
LINE
  8
0
 10
77.2
 11
77.079
 20
35.2
 21
35.2
  0
LINE
  8
0
 10
77.079
 11
77.105
 20
35.2
 21
35.104
  0
LINE
  8
0
 10
77.105
 11
77.176
 20
35.104
 21
34.655
  0
LINE
  8
0
 10
77.176
 11
77.2
 20
34.655
 21
34.2
  0
LINE
  8
0
 10
77.2
 11
77.176
 20
34.2
 21
33.745
  0
LINE
  8
0
 10
77.176
 11
77.105
 20
33.745
 21
33.296
  0
LINE
  8
0
 10
77.105
 11
76.987
 20
33.296
 21
32.856
  0
LINE
  8
0
 10
76.987
 11
76.824
 20
32.856
 21
32.431
  0
LINE
  8
0
 10
76.824
 11
76.617
 20
32.431
 21
32.025
  0
LINE
  8
0
 10
76.617
 11
76.369
 20
32.025
 21
31.643
  0
LINE
  8
0
 10
76.369
 11
76.083
 20
31.643
 21
31.289
  0
LINE
  8
0
 10
76.083
 11
75.761
 20
31.289
 21
30.967
  0
LINE
  8
0
 10
75.761
 11
75.407
 20
30.967
 21
30.681
  0
LINE
  8
0
 10
75.407
 11
75.025
 20
30.681
 21
30.433
  0
LINE
  8
0
 10
75.025
 11
74.619
 20
30.433
 21
30.226
  0
LINE
  8
0
 10
74.619
 11
74.194
 20
30.226
 21
30.063
  0
LINE
  8
0
 10
74.194
 11
73.754
 20
30.063
 21
29.945
  0
LINE
  8
0
 10
73.754
 11
73.305
 20
29.945
 21
29.874
  0
LINE
  8
0
 10
73.305
 11
72.85
 20
29.874
 21
29.85
  0
LINE
  8
0
 10
72.85
 11
72.395
 20
29.85
 21
29.874
  0
LINE
  8
0
 10
72.395
 11
71.946
 20
29.874
 21
29.945
  0
LINE
  8
0
 10
71.946
 11
71.506
 20
29.945
 21
30.063
  0
LINE
  8
0
 10
71.506
 11
71.081
 20
30.063
 21
30.226
  0
LINE
  8
0
 10
71.081
 11
70.675
 20
30.226
 21
30.433
  0
LINE
  8
0
 10
70.675
 11
70.293
 20
30.433
 21
30.681
  0
LINE
  8
0
 10
70.293
 11
69.939
 20
30.681
 21
30.967
  0
LINE
  8
0
 10
69.939
 11
69.617
 20
30.967
 21
31.289
  0
LINE
  8
0
 10
69.617
 11
69.331
 20
31.289
 21
31.643
  0
LINE
  8
0
 10
69.331
 11
69.083
 20
31.643
 21
32.025
  0
LINE
  8
0
 10
69.083
 11
68.876
 20
32.025
 21
32.431
  0
LINE
  8
0
 10
68.876
 11
68.713
 20
32.431
 21
32.856
  0
LINE
  8
0
 10
68.713
 11
68.595
 20
32.856
 21
33.296
  0
LINE
  8
0
 10
68.595
 11
68.524
 20
33.296
 21
33.745
  0
LINE
  8
0
 10
68.524
 11
68.5
 20
33.745
 21
34.2
  0
ENDSEC
  0
SECTION
  2
OBJECTS
  0
DICTIONARY
  0
ENDSEC
  0
EOF
