  0
SECTION
  2
BLOCKS
  0
ENDSEC
  0
SECTION
  2
ENTITIES
  0
LINE
  8
0
 10
31.2
 11
31.2
 20
36.2
 21
49.85
  0
LINE
  8
0
 10
31.2
 11
31.259
 20
49.85
 21
49.85
  0
LINE
  8
0
 10
31.259
 11
31.22
 20
49.85
 21
50.478
  0
LINE
  8
0
 10
31.22
 11
31.689
 20
50.478
 21
52.94
  0
LINE
  8
0
 10
31.689
 11
32.757
 20
52.94
 21
55.208
  0
LINE
  8
0
 10
32.757
 11
34.355
 20
55.208
 21
57.14
  0
LINE
  8
0
 10
34.355
 11
36.382
 20
57.14
 21
58.613
  0
LINE
  8
0
 10
36.382
 11
38.713
 20
58.613
 21
59.536
  0
LINE
  8
0
 10
38.713
 11
41.15
 20
59.536
 21
59.844
  0
LINE
  8
0
 10
41.15
 11
41.15
 20
59.844
 21
59.85
  0
LINE
  8
0
 10
41.15
 11
84.8
 20
59.85
 21
59.85
  0
LINE
  8
0
 10
84.8
 11
84.8
 20
59.85
 21
59.791
  0
LINE
  8
0
 10
84.8
 11
85.428
 20
59.791
 21
59.83
  0
LINE
  8
0
 10
85.428
 11
87.89
 20
59.83
 21
59.361
  0
LINE
  8
0
 10
87.89
 11
90.158
 20
59.361
 21
58.293
  0
LINE
  8
0
 10
90.158
 11
92.09
 20
58.293
 21
56.695
  0
LINE
  8
0
 10
92.09
 11
93.563
 20
56.695
 21
54.668
  0
LINE
  8
0
 10
93.563
 11
94.486
 20
54.668
 21
52.337
  0
LINE
  8
0
 10
94.486
 11
94.794
 20
52.337
 21
49.9
  0
LINE
  8
0
 10
94.794
 11
94.8
 20
49.9
 21
49.9
  0
LINE
  8
0
 10
94.8
 11
94.8
 20
49.9
 21
36.25
  0
LINE
  8
0
 10
94.8
 11
94.741
 20
36.25
 21
36.25
  0
LINE
  8
0
 10
94.741
 11
94.78
 20
36.25
 21
35.622
  0
LINE
  8
0
 10
94.78
 11
94.311
 20
35.622
 21
33.16
  0
LINE
  8
0
 10
94.311
 11
93.243
 20
33.16
 21
30.892
  0
LINE
  8
0
 10
93.243
 11
91.645
 20
30.892
 21
28.96
  0
LINE
  8
0
 10
91.645
 11
89.618
 20
28.96
 21
27.487
  0
LINE
  8
0
 10
89.618
 11
87.287
 20
27.487
 21
26.564
  0
LINE
  8
0
 10
87.287
 11
84.85
 20
26.564
 21
26.256
  0
LINE
  8
0
 10
84.85
 11
84.85
 20
26.256
 21
26.25
  0
LINE
  8
0
 10
84.85
 11
41.2
 20
26.25
 21
26.25
  0
LINE
  8
0
 10
41.2
 11
41.2
 20
26.25
 21
26.309
  0
LINE
  8
0
 10
41.2
 11
40.572
 20
26.309
 21
26.27
  0
LINE
  8
0
 10
40.572
 11
38.11
 20
26.27
 21
26.739
  0
LINE
  8
0
 10
38.11
 11
35.842
 20
26.739
 21
27.807
  0
LINE
  8
0
 10
35.842
 11
33.91
 20
27.807
 21
29.405
  0
LINE
  8
0
 10
33.91
 11
32.437
 20
29.405
 21
31.432
  0
LINE
  8
0
 10
32.437
 11
31.514
 20
31.432
 21
33.763
  0
LINE
  8
0
 10
31.514
 11
31.206
 20
33.763
 21
36.2
  0
LINE
  8
0
 10
31.206
 11
31.2
 20
36.2
 21
36.2
  0
LINE
  8
0
 10
36.2
 11
36.21
 20
33.05
 21
33.238
  0
LINE
  8
0
 10
36.21
 11
36.239
 20
33.238
 21
33.424
  0
LINE
  8
0
 10
36.239
 11
36.288
 20
33.424
 21
33.606
  0
LINE
  8
0
 10
36.288
 11
36.356
 20
33.606
 21
33.782
  0
LINE
  8
0
 10
36.356
 11
36.441
 20
33.782
 21
33.95
  0
LINE
  8
0
 10
36.441
 11
36.544
 20
33.95
 21
34.108
  0
LINE
  8
0
 10
36.544
 11
36.662
 20
34.108
 21
34.254
  0
LINE
  8
0
 10
36.662
 11
36.796
 20
34.254
 21
34.388
  0
LINE
  8
0
 10
36.796
 11
36.942
 20
34.388
 21
34.506
  0
LINE
  8
0
 10
36.942
 11
37.1
 20
34.506
 21
34.609
  0
LINE
  8
0
 10
37.1
 11
37.268
 20
34.609
 21
34.694
  0
LINE
  8
0
 10
37.268
 11
37.444
 20
34.694
 21
34.762
  0
LINE
  8
0
 10
37.444
 11
37.626
 20
34.762
 21
34.811
  0
LINE
  8
0
 10
37.626
 11
37.812
 20
34.811
 21
34.84
  0
LINE
  8
0
 10
37.812
 11
38
 20
34.84
 21
34.85
  0
LINE
  8
0
 10
38
 11
38.188
 20
34.85
 21
34.84
  0
LINE
  8
0
 10
38.188
 11
38.374
 20
34.84
 21
34.811
  0
LINE
  8
0
 10
38.374
 11
38.556
 20
34.811
 21
34.762
  0
LINE
  8
0
 10
38.556
 11
38.732
 20
34.762
 21
34.694
  0
LINE
  8
0
 10
38.732
 11
38.9
 20
34.694
 21
34.609
  0
LINE
  8
0
 10
38.9
 11
39.058
 20
34.609
 21
34.506
  0
LINE
  8
0
 10
39.058
 11
39.204
 20
34.506
 21
34.388
  0
LINE
  8
0
 10
39.204
 11
39.338
 20
34.388
 21
34.254
  0
LINE
  8
0
 10
39.338
 11
39.456
 20
34.254
 21
34.108
  0
LINE
  8
0
 10
39.456
 11
39.559
 20
34.108
 21
33.95
  0
LINE
  8
0
 10
39.559
 11
39.644
 20
33.95
 21
33.782
  0
LINE
  8
0
 10
39.644
 11
39.712
 20
33.782
 21
33.606
  0
LINE
  8
0
 10
39.712
 11
39.761
 20
33.606
 21
33.424
  0
LINE
  8
0
 10
39.761
 11
39.79
 20
33.424
 21
33.238
  0
LINE
  8
0
 10
39.79
 11
39.8
 20
33.238
 21
33.05
  0
LINE
  8
0
 10
39.8
 11
39.79
 20
33.05
 21
32.862
  0
LINE
  8
0
 10
39.79
 11
39.761
 20
32.862
 21
32.676
  0
LINE
  8
0
 10
39.761
 11
39.712
 20
32.676
 21
32.494
  0
LINE
  8
0
 10
39.712
 11
39.644
 20
32.494
 21
32.318
  0
LINE
  8
0
 10
39.644
 11
39.559
 20
32.318
 21
32.15
  0
LINE
  8
0
 10
39.559
 11
39.456
 20
32.15
 21
31.992
  0
LINE
  8
0
 10
39.456
 11
39.338
 20
31.992
 21
31.846
  0
LINE
  8
0
 10
39.338
 11
39.204
 20
31.846
 21
31.712
  0
LINE
  8
0
 10
39.204
 11
39.058
 20
31.712
 21
31.594
  0
LINE
  8
0
 10
39.058
 11
38.9
 20
31.594
 21
31.491
  0
LINE
  8
0
 10
38.9
 11
38.732
 20
31.491
 21
31.406
  0
LINE
  8
0
 10
38.732
 11
38.556
 20
31.406
 21
31.338
  0
LINE
  8
0
 10
38.556
 11
38.374
 20
31.338
 21
31.289
  0
LINE
  8
0
 10
38.374
 11
38.188
 20
31.289
 21
31.26
  0
LINE
  8
0
 10
38.188
 11
38
 20
31.26
 21
31.25
  0
LINE
  8
0
 10
38
 11
37.812
 20
31.25
 21
31.26
  0
LINE
  8
0
 10
37.812
 11
37.626
 20
31.26
 21
31.289
  0
LINE
  8
0
 10
37.626
 11
37.444
 20
31.289
 21
31.338
  0
LINE
  8
0
 10
37.444
 11
37.268
 20
31.338
 21
31.406
  0
LINE
  8
0
 10
37.268
 11
37.1
 20
31.406
 21
31.491
  0
LINE
  8
0
 10
37.1
 11
36.942
 20
31.491
 21
31.594
  0
LINE
  8
0
 10
36.942
 11
36.796
 20
31.594
 21
31.712
  0
LINE
  8
0
 10
36.796
 11
36.662
 20
31.712
 21
31.846
  0
LINE
  8
0
 10
36.662
 11
36.544
 20
31.846
 21
31.992
  0
LINE
  8
0
 10
36.544
 11
36.441
 20
31.992
 21
32.15
  0
LINE
  8
0
 10
36.441
 11
36.356
 20
32.15
 21
32.318
  0
LINE
  8
0
 10
36.356
 11
36.288
 20
32.318
 21
32.494
  0
LINE
  8
0
 10
36.288
 11
36.239
 20
32.494
 21
32.676
  0
LINE
  8
0
 10
36.239
 11
36.21
 20
32.676
 21
32.862
  0
LINE
  8
0
 10
36.21
 11
36.2
 20
32.862
 21
33.05
  0
LINE
  8
0
 10
36.2
 11
36.21
 20
53.05
 21
53.238
  0
LINE
  8
0
 10
36.21
 11
36.239
 20
53.238
 21
53.424
  0
LINE
  8
0
 10
36.239
 11
36.288
 20
53.424
 21
53.606
  0
LINE
  8
0
 10
36.288
 11
36.356
 20
53.606
 21
53.782
  0
LINE
  8
0
 10
36.356
 11
36.441
 20
53.782
 21
53.95
  0
LINE
  8
0
 10
36.441
 11
36.544
 20
53.95
 21
54.108
  0
LINE
  8
0
 10
36.544
 11
36.662
 20
54.108
 21
54.254
  0
LINE
  8
0
 10
36.662
 11
36.796
 20
54.254
 21
54.388
  0
LINE
  8
0
 10
36.796
 11
36.942
 20
54.388
 21
54.506
  0
LINE
  8
0
 10
36.942
 11
37.1
 20
54.506
 21
54.609
  0
LINE
  8
0
 10
37.1
 11
37.268
 20
54.609
 21
54.694
  0
LINE
  8
0
 10
37.268
 11
37.444
 20
54.694
 21
54.762
  0
LINE
  8
0
 10
37.444
 11
37.626
 20
54.762
 21
54.811
  0
LINE
  8
0
 10
37.626
 11
37.812
 20
54.811
 21
54.84
  0
LINE
  8
0
 10
37.812
 11
38
 20
54.84
 21
54.85
  0
LINE
  8
0
 10
38
 11
38.188
 20
54.85
 21
54.84
  0
LINE
  8
0
 10
38.188
 11
38.374
 20
54.84
 21
54.811
  0
LINE
  8
0
 10
38.374
 11
38.556
 20
54.811
 21
54.762
  0
LINE
  8
0
 10
38.556
 11
38.732
 20
54.762
 21
54.694
  0
LINE
  8
0
 10
38.732
 11
38.9
 20
54.694
 21
54.609
  0
LINE
  8
0
 10
38.9
 11
39.058
 20
54.609
 21
54.506
  0
LINE
  8
0
 10
39.058
 11
39.204
 20
54.506
 21
54.388
  0
LINE
  8
0
 10
39.204
 11
39.338
 20
54.388
 21
54.254
  0
LINE
  8
0
 10
39.338
 11
39.456
 20
54.254
 21
54.108
  0
LINE
  8
0
 10
39.456
 11
39.559
 20
54.108
 21
53.95
  0
LINE
  8
0
 10
39.559
 11
39.644
 20
53.95
 21
53.782
  0
LINE
  8
0
 10
39.644
 11
39.712
 20
53.782
 21
53.606
  0
LINE
  8
0
 10
39.712
 11
39.761
 20
53.606
 21
53.424
  0
LINE
  8
0
 10
39.761
 11
39.79
 20
53.424
 21
53.238
  0
LINE
  8
0
 10
39.79
 11
39.8
 20
53.238
 21
53.05
  0
LINE
  8
0
 10
39.8
 11
39.79
 20
53.05
 21
52.862
  0
LINE
  8
0
 10
39.79
 11
39.761
 20
52.862
 21
52.676
  0
LINE
  8
0
 10
39.761
 11
39.712
 20
52.676
 21
52.494
  0
LINE
  8
0
 10
39.712
 11
39.644
 20
52.494
 21
52.318
  0
LINE
  8
0
 10
39.644
 11
39.559
 20
52.318
 21
52.15
  0
LINE
  8
0
 10
39.559
 11
39.456
 20
52.15
 21
51.992
  0
LINE
  8
0
 10
39.456
 11
39.338
 20
51.992
 21
51.846
  0
LINE
  8
0
 10
39.338
 11
39.204
 20
51.846
 21
51.712
  0
LINE
  8
0
 10
39.204
 11
39.058
 20
51.712
 21
51.594
  0
LINE
  8
0
 10
39.058
 11
38.9
 20
51.594
 21
51.491
  0
LINE
  8
0
 10
38.9
 11
38.732
 20
51.491
 21
51.406
  0
LINE
  8
0
 10
38.732
 11
38.556
 20
51.406
 21
51.338
  0
LINE
  8
0
 10
38.556
 11
38.374
 20
51.338
 21
51.289
  0
LINE
  8
0
 10
38.374
 11
38.188
 20
51.289
 21
51.26
  0
LINE
  8
0
 10
38.188
 11
38
 20
51.26
 21
51.25
  0
LINE
  8
0
 10
38
 11
37.812
 20
51.25
 21
51.26
  0
LINE
  8
0
 10
37.812
 11
37.626
 20
51.26
 21
51.289
  0
LINE
  8
0
 10
37.626
 11
37.444
 20
51.289
 21
51.338
  0
LINE
  8
0
 10
37.444
 11
37.268
 20
51.338
 21
51.406
  0
LINE
  8
0
 10
37.268
 11
37.1
 20
51.406
 21
51.491
  0
LINE
  8
0
 10
37.1
 11
36.942
 20
51.491
 21
51.594
  0
LINE
  8
0
 10
36.942
 11
36.796
 20
51.594
 21
51.712
  0
LINE
  8
0
 10
36.796
 11
36.662
 20
51.712
 21
51.846
  0
LINE
  8
0
 10
36.662
 11
36.544
 20
51.846
 21
51.992
  0
LINE
  8
0
 10
36.544
 11
36.441
 20
51.992
 21
52.15
  0
LINE
  8
0
 10
36.441
 11
36.356
 20
52.15
 21
52.318
  0
LINE
  8
0
 10
36.356
 11
36.288
 20
52.318
 21
52.494
  0
LINE
  8
0
 10
36.288
 11
36.239
 20
52.494
 21
52.676
  0
LINE
  8
0
 10
36.239
 11
36.21
 20
52.676
 21
52.862
  0
LINE
  8
0
 10
36.21
 11
36.2
 20
52.862
 21
53.05
  0
LINE
  8
0
 10
46.6
 11
46.635
 20
43.05
 21
43.719
  0
LINE
  8
0
 10
46.635
 11
46.74
 20
43.719
 21
44.381
  0
LINE
  8
0
 10
46.74
 11
46.913
 20
44.381
 21
45.028
  0
LINE
  8
0
 10
46.913
 11
47.153
 20
45.028
 21
45.653
  0
LINE
  8
0
 10
47.153
 11
47.457
 20
45.653
 21
46.25
  0
LINE
  8
0
 10
47.457
 11
47.822
 20
46.25
 21
46.812
  0
LINE
  8
0
 10
47.822
 11
48.244
 20
46.812
 21
47.332
  0
LINE
  8
0
 10
48.244
 11
48.718
 20
47.332
 21
47.806
  0
LINE
  8
0
 10
48.718
 11
49.238
 20
47.806
 21
48.228
  0
LINE
  8
0
 10
49.238
 11
49.8
 20
48.228
 21
48.593
  0
LINE
  8
0
 10
49.8
 11
50.397
 20
48.593
 21
48.897
  0
LINE
  8
0
 10
50.397
 11
51.022
 20
48.897
 21
49.137
  0
LINE
  8
0
 10
51.022
 11
51.669
 20
49.137
 21
49.31
  0
LINE
  8
0
 10
51.669
 11
52.331
 20
49.31
 21
49.415
  0
LINE
  8
0
 10
52.331
 11
53
 20
49.415
 21
49.45
  0
LINE
  8
0
 10
53
 11
53.669
 20
49.45
 21
49.415
  0
LINE
  8
0
 10
53.669
 11
54.331
 20
49.415
 21
49.31
  0
LINE
  8
0
 10
54.331
 11
54.978
 20
49.31
 21
49.137
  0
LINE
  8
0
 10
54.978
 11
55.603
 20
49.137
 21
48.897
  0
LINE
  8
0
 10
55.603
 11
56.2
 20
48.897
 21
48.593
  0
LINE
  8
0
 10
56.2
 11
56.762
 20
48.593
 21
48.228
  0
LINE
  8
0
 10
56.762
 11
57.282
 20
48.228
 21
47.806
  0
LINE
  8
0
 10
57.282
 11
57.756
 20
47.806
 21
47.332
  0
LINE
  8
0
 10
57.756
 11
58.178
 20
47.332
 21
46.812
  0
LINE
  8
0
 10
58.178
 11
58.543
 20
46.812
 21
46.25
  0
LINE
  8
0
 10
58.543
 11
58.847
 20
46.25
 21
45.653
  0
LINE
  8
0
 10
58.847
 11
59.087
 20
45.653
 21
45.028
  0
LINE
  8
0
 10
59.087
 11
59.26
 20
45.028
 21
44.381
  0
LINE
  8
0
 10
59.26
 11
59.365
 20
44.381
 21
43.719
  0
LINE
  8
0
 10
59.365
 11
59.4
 20
43.719
 21
43.05
  0
LINE
  8
0
 10
59.4
 11
59.365
 20
43.05
 21
42.381
  0
LINE
  8
0
 10
59.365
 11
59.26
 20
42.381
 21
41.719
  0
LINE
  8
0
 10
59.26
 11
59.087
 20
41.719
 21
41.072
  0
LINE
  8
0
 10
59.087
 11
58.847
 20
41.072
 21
40.447
  0
LINE
  8
0
 10
58.847
 11
58.543
 20
40.447
 21
39.85
  0
LINE
  8
0
 10
58.543
 11
58.178
 20
39.85
 21
39.288
  0
LINE
  8
0
 10
58.178
 11
57.756
 20
39.288
 21
38.768
  0
LINE
  8
0
 10
57.756
 11
57.282
 20
38.768
 21
38.294
  0
LINE
  8
0
 10
57.282
 11
56.762
 20
38.294
 21
37.872
  0
LINE
  8
0
 10
56.762
 11
56.2
 20
37.872
 21
37.507
  0
LINE
  8
0
 10
56.2
 11
55.603
 20
37.507
 21
37.203
  0
LINE
  8
0
 10
55.603
 11
54.978
 20
37.203
 21
36.963
  0
LINE
  8
0
 10
54.978
 11
54.331
 20
36.963
 21
36.79
  0
LINE
  8
0
 10
54.331
 11
53.669
 20
36.79
 21
36.685
  0
LINE
  8
0
 10
53.669
 11
53
 20
36.685
 21
36.65
  0
LINE
  8
0
 10
53
 11
52.331
 20
36.65
 21
36.685
  0
LINE
  8
0
 10
52.331
 11
51.669
 20
36.685
 21
36.79
  0
LINE
  8
0
 10
51.669
 11
51.022
 20
36.79
 21
36.963
  0
LINE
  8
0
 10
51.022
 11
50.397
 20
36.963
 21
37.203
  0
LINE
  8
0
 10
50.397
 11
49.8
 20
37.203
 21
37.507
  0
LINE
  8
0
 10
49.8
 11
49.238
 20
37.507
 21
37.872
  0
LINE
  8
0
 10
49.238
 11
48.718
 20
37.872
 21
38.294
  0
LINE
  8
0
 10
48.718
 11
48.244
 20
38.294
 21
38.768
  0
LINE
  8
0
 10
48.244
 11
47.822
 20
38.768
 21
39.288
  0
LINE
  8
0
 10
47.822
 11
47.457
 20
39.288
 21
39.85
  0
LINE
  8
0
 10
47.457
 11
47.153
 20
39.85
 21
40.447
  0
LINE
  8
0
 10
47.153
 11
46.913
 20
40.447
 21
41.072
  0
LINE
  8
0
 10
46.913
 11
46.74
 20
41.072
 21
41.719
  0
LINE
  8
0
 10
46.74
 11
46.635
 20
41.719
 21
42.381
  0
LINE
  8
0
 10
46.635
 11
46.6
 20
42.381
 21
43.05
  0
LINE
  8
0
 10
78.8
 11
78.823
 20
43.05
 21
43.489
  0
LINE
  8
0
 10
78.823
 11
78.892
 20
43.489
 21
43.923
  0
LINE
  8
0
 10
78.892
 11
79.006
 20
43.923
 21
44.348
  0
LINE
  8
0
 10
79.006
 11
79.163
 20
44.348
 21
44.758
  0
LINE
  8
0
 10
79.163
 11
79.363
 20
44.758
 21
45.15
  0
LINE
  8
0
 10
79.363
 11
79.602
 20
45.15
 21
45.519
  0
LINE
  8
0
 10
79.602
 11
79.879
 20
45.519
 21
45.86
  0
LINE
  8
0
 10
79.879
 11
80.19
 20
45.86
 21
46.171
  0
LINE
  8
0
 10
80.19
 11
80.531
 20
46.171
 21
46.448
  0
LINE
  8
0
 10
80.531
 11
80.9
 20
46.448
 21
46.687
  0
LINE
  8
0
 10
80.9
 11
81.292
 20
46.687
 21
46.887
  0
LINE
  8
0
 10
81.292
 11
81.702
 20
46.887
 21
47.044
  0
LINE
  8
0
 10
81.702
 11
82.127
 20
47.044
 21
47.158
  0
LINE
  8
0
 10
82.127
 11
82.561
 20
47.158
 21
47.227
  0
LINE
  8
0
 10
82.561
 11
83
 20
47.227
 21
47.25
  0
LINE
  8
0
 10
83
 11
83.439
 20
47.25
 21
47.227
  0
LINE
  8
0
 10
83.439
 11
83.873
 20
47.227
 21
47.158
  0
LINE
  8
0
 10
83.873
 11
84.298
 20
47.158
 21
47.044
  0
LINE
  8
0
 10
84.298
 11
84.708
 20
47.044
 21
46.887
  0
LINE
  8
0
 10
84.708
 11
85.1
 20
46.887
 21
46.687
  0
LINE
  8
0
 10
85.1
 11
85.469
 20
46.687
 21
46.448
  0
LINE
  8
0
 10
85.469
 11
85.81
 20
46.448
 21
46.171
  0
LINE
  8
0
 10
85.81
 11
86.121
 20
46.171
 21
45.86
  0
LINE
  8
0
 10
86.121
 11
86.398
 20
45.86
 21
45.519
  0
LINE
  8
0
 10
86.398
 11
86.637
 20
45.519
 21
45.15
  0
LINE
  8
0
 10
86.637
 11
86.837
 20
45.15
 21
44.758
  0
LINE
  8
0
 10
86.837
 11
86.994
 20
44.758
 21
44.348
  0
LINE
  8
0
 10
86.994
 11
87.108
 20
44.348
 21
43.923
  0
LINE
  8
0
 10
87.108
 11
87.177
 20
43.923
 21
43.489
  0
LINE
  8
0
 10
87.177
 11
87.2
 20
43.489
 21
43.05
  0
LINE
  8
0
 10
87.2
 11
87.177
 20
43.05
 21
42.611
  0
LINE
  8
0
 10
87.177
 11
87.108
 20
42.611
 21
42.177
  0
LINE
  8
0
 10
87.108
 11
86.994
 20
42.177
 21
41.752
  0
LINE
  8
0
 10
86.994
 11
86.837
 20
41.752
 21
41.342
  0
LINE
  8
0
 10
86.837
 11
86.637
 20
41.342
 21
40.95
  0
LINE
  8
0
 10
86.637
 11
86.398
 20
40.95
 21
40.581
  0
LINE
  8
0
 10
86.398
 11
86.121
 20
40.581
 21
40.24
  0
LINE
  8
0
 10
86.121
 11
85.81
 20
40.24
 21
39.929
  0
LINE
  8
0
 10
85.81
 11
85.469
 20
39.929
 21
39.652
  0
LINE
  8
0
 10
85.469
 11
85.1
 20
39.652
 21
39.413
  0
LINE
  8
0
 10
85.1
 11
84.708
 20
39.413
 21
39.213
  0
LINE
  8
0
 10
84.708
 11
84.298
 20
39.213
 21
39.056
  0
LINE
  8
0
 10
84.298
 11
83.873
 20
39.056
 21
38.942
  0
LINE
  8
0
 10
83.873
 11
83.439
 20
38.942
 21
38.873
  0
LINE
  8
0
 10
83.439
 11
83
 20
38.873
 21
38.85
  0
LINE
  8
0
 10
83
 11
82.561
 20
38.85
 21
38.873
  0
LINE
  8
0
 10
82.561
 11
82.127
 20
38.873
 21
38.942
  0
LINE
  8
0
 10
82.127
 11
81.702
 20
38.942
 21
39.056
  0
LINE
  8
0
 10
81.702
 11
81.292
 20
39.056
 21
39.213
  0
LINE
  8
0
 10
81.292
 11
80.9
 20
39.213
 21
39.413
  0
LINE
  8
0
 10
80.9
 11
80.531
 20
39.413
 21
39.652
  0
LINE
  8
0
 10
80.531
 11
80.19
 20
39.652
 21
39.929
  0
LINE
  8
0
 10
80.19
 11
79.879
 20
39.929
 21
40.24
  0
LINE
  8
0
 10
79.879
 11
79.602
 20
40.24
 21
40.581
  0
LINE
  8
0
 10
79.602
 11
79.363
 20
40.581
 21
40.95
  0
LINE
  8
0
 10
79.363
 11
79.163
 20
40.95
 21
41.342
  0
LINE
  8
0
 10
79.163
 11
79.006
 20
41.342
 21
41.752
  0
LINE
  8
0
 10
79.006
 11
78.892
 20
41.752
 21
42.177
  0
LINE
  8
0
 10
78.892
 11
78.823
 20
42.177
 21
42.611
  0
LINE
  8
0
 10
78.823
 11
78.8
 20
42.611
 21
43.05
  0
LINE
  8
0
 10
86.2
 11
86.21
 20
33.05
 21
33.238
  0
LINE
  8
0
 10
86.21
 11
86.239
 20
33.238
 21
33.424
  0
LINE
  8
0
 10
86.239
 11
86.288
 20
33.424
 21
33.606
  0
LINE
  8
0
 10
86.288
 11
86.356
 20
33.606
 21
33.782
  0
LINE
  8
0
 10
86.356
 11
86.441
 20
33.782
 21
33.95
  0
LINE
  8
0
 10
86.441
 11
86.544
 20
33.95
 21
34.108
  0
LINE
  8
0
 10
86.544
 11
86.662
 20
34.108
 21
34.254
  0
LINE
  8
0
 10
86.662
 11
86.796
 20
34.254
 21
34.388
  0
LINE
  8
0
 10
86.796
 11
86.942
 20
34.388
 21
34.506
  0
LINE
  8
0
 10
86.942
 11
87.1
 20
34.506
 21
34.609
  0
LINE
  8
0
 10
87.1
 11
87.268
 20
34.609
 21
34.694
  0
LINE
  8
0
 10
87.268
 11
87.444
 20
34.694
 21
34.762
  0
LINE
  8
0
 10
87.444
 11
87.626
 20
34.762
 21
34.811
  0
LINE
  8
0
 10
87.626
 11
87.812
 20
34.811
 21
34.84
  0
LINE
  8
0
 10
87.812
 11
88
 20
34.84
 21
34.85
  0
LINE
  8
0
 10
88
 11
88.188
 20
34.85
 21
34.84
  0
LINE
  8
0
 10
88.188
 11
88.374
 20
34.84
 21
34.811
  0
LINE
  8
0
 10
88.374
 11
88.556
 20
34.811
 21
34.762
  0
LINE
  8
0
 10
88.556
 11
88.732
 20
34.762
 21
34.694
  0
LINE
  8
0
 10
88.732
 11
88.9
 20
34.694
 21
34.609
  0
LINE
  8
0
 10
88.9
 11
89.058
 20
34.609
 21
34.506
  0
LINE
  8
0
 10
89.058
 11
89.204
 20
34.506
 21
34.388
  0
LINE
  8
0
 10
89.204
 11
89.338
 20
34.388
 21
34.254
  0
LINE
  8
0
 10
89.338
 11
89.456
 20
34.254
 21
34.108
  0
LINE
  8
0
 10
89.456
 11
89.559
 20
34.108
 21
33.95
  0
LINE
  8
0
 10
89.559
 11
89.644
 20
33.95
 21
33.782
  0
LINE
  8
0
 10
89.644
 11
89.712
 20
33.782
 21
33.606
  0
LINE
  8
0
 10
89.712
 11
89.761
 20
33.606
 21
33.424
  0
LINE
  8
0
 10
89.761
 11
89.79
 20
33.424
 21
33.238
  0
LINE
  8
0
 10
89.79
 11
89.8
 20
33.238
 21
33.05
  0
LINE
  8
0
 10
89.8
 11
89.79
 20
33.05
 21
32.862
  0
LINE
  8
0
 10
89.79
 11
89.761
 20
32.862
 21
32.676
  0
LINE
  8
0
 10
89.761
 11
89.712
 20
32.676
 21
32.494
  0
LINE
  8
0
 10
89.712
 11
89.644
 20
32.494
 21
32.318
  0
LINE
  8
0
 10
89.644
 11
89.559
 20
32.318
 21
32.15
  0
LINE
  8
0
 10
89.559
 11
89.456
 20
32.15
 21
31.992
  0
LINE
  8
0
 10
89.456
 11
89.338
 20
31.992
 21
31.846
  0
LINE
  8
0
 10
89.338
 11
89.204
 20
31.846
 21
31.712
  0
LINE
  8
0
 10
89.204
 11
89.058
 20
31.712
 21
31.594
  0
LINE
  8
0
 10
89.058
 11
88.9
 20
31.594
 21
31.491
  0
LINE
  8
0
 10
88.9
 11
88.732
 20
31.491
 21
31.406
  0
LINE
  8
0
 10
88.732
 11
88.556
 20
31.406
 21
31.338
  0
LINE
  8
0
 10
88.556
 11
88.374
 20
31.338
 21
31.289
  0
LINE
  8
0
 10
88.374
 11
88.188
 20
31.289
 21
31.26
  0
LINE
  8
0
 10
88.188
 11
88
 20
31.26
 21
31.25
  0
LINE
  8
0
 10
88
 11
87.812
 20
31.25
 21
31.26
  0
LINE
  8
0
 10
87.812
 11
87.626
 20
31.26
 21
31.289
  0
LINE
  8
0
 10
87.626
 11
87.444
 20
31.289
 21
31.338
  0
LINE
  8
0
 10
87.444
 11
87.268
 20
31.338
 21
31.406
  0
LINE
  8
0
 10
87.268
 11
87.1
 20
31.406
 21
31.491
  0
LINE
  8
0
 10
87.1
 11
86.942
 20
31.491
 21
31.594
  0
LINE
  8
0
 10
86.942
 11
86.796
 20
31.594
 21
31.712
  0
LINE
  8
0
 10
86.796
 11
86.662
 20
31.712
 21
31.846
  0
LINE
  8
0
 10
86.662
 11
86.544
 20
31.846
 21
31.992
  0
LINE
  8
0
 10
86.544
 11
86.441
 20
31.992
 21
32.15
  0
LINE
  8
0
 10
86.441
 11
86.356
 20
32.15
 21
32.318
  0
LINE
  8
0
 10
86.356
 11
86.288
 20
32.318
 21
32.494
  0
LINE
  8
0
 10
86.288
 11
86.239
 20
32.494
 21
32.676
  0
LINE
  8
0
 10
86.239
 11
86.21
 20
32.676
 21
32.862
  0
LINE
  8
0
 10
86.21
 11
86.2
 20
32.862
 21
33.05
  0
LINE
  8
0
 10
86.2
 11
86.21
 20
53.05
 21
53.238
  0
LINE
  8
0
 10
86.21
 11
86.239
 20
53.238
 21
53.424
  0
LINE
  8
0
 10
86.239
 11
86.288
 20
53.424
 21
53.606
  0
LINE
  8
0
 10
86.288
 11
86.356
 20
53.606
 21
53.782
  0
LINE
  8
0
 10
86.356
 11
86.441
 20
53.782
 21
53.95
  0
LINE
  8
0
 10
86.441
 11
86.544
 20
53.95
 21
54.108
  0
LINE
  8
0
 10
86.544
 11
86.662
 20
54.108
 21
54.254
  0
LINE
  8
0
 10
86.662
 11
86.796
 20
54.254
 21
54.388
  0
LINE
  8
0
 10
86.796
 11
86.942
 20
54.388
 21
54.506
  0
LINE
  8
0
 10
86.942
 11
87.1
 20
54.506
 21
54.609
  0
LINE
  8
0
 10
87.1
 11
87.268
 20
54.609
 21
54.694
  0
LINE
  8
0
 10
87.268
 11
87.444
 20
54.694
 21
54.762
  0
LINE
  8
0
 10
87.444
 11
87.626
 20
54.762
 21
54.811
  0
LINE
  8
0
 10
87.626
 11
87.812
 20
54.811
 21
54.84
  0
LINE
  8
0
 10
87.812
 11
88
 20
54.84
 21
54.85
  0
LINE
  8
0
 10
88
 11
88.188
 20
54.85
 21
54.84
  0
LINE
  8
0
 10
88.188
 11
88.374
 20
54.84
 21
54.811
  0
LINE
  8
0
 10
88.374
 11
88.556
 20
54.811
 21
54.762
  0
LINE
  8
0
 10
88.556
 11
88.732
 20
54.762
 21
54.694
  0
LINE
  8
0
 10
88.732
 11
88.9
 20
54.694
 21
54.609
  0
LINE
  8
0
 10
88.9
 11
89.058
 20
54.609
 21
54.506
  0
LINE
  8
0
 10
89.058
 11
89.204
 20
54.506
 21
54.388
  0
LINE
  8
0
 10
89.204
 11
89.338
 20
54.388
 21
54.254
  0
LINE
  8
0
 10
89.338
 11
89.456
 20
54.254
 21
54.108
  0
LINE
  8
0
 10
89.456
 11
89.559
 20
54.108
 21
53.95
  0
LINE
  8
0
 10
89.559
 11
89.644
 20
53.95
 21
53.782
  0
LINE
  8
0
 10
89.644
 11
89.712
 20
53.782
 21
53.606
  0
LINE
  8
0
 10
89.712
 11
89.761
 20
53.606
 21
53.424
  0
LINE
  8
0
 10
89.761
 11
89.79
 20
53.424
 21
53.238
  0
LINE
  8
0
 10
89.79
 11
89.8
 20
53.238
 21
53.05
  0
LINE
  8
0
 10
89.8
 11
89.79
 20
53.05
 21
52.862
  0
LINE
  8
0
 10
89.79
 11
89.761
 20
52.862
 21
52.676
  0
LINE
  8
0
 10
89.761
 11
89.712
 20
52.676
 21
52.494
  0
LINE
  8
0
 10
89.712
 11
89.644
 20
52.494
 21
52.318
  0
LINE
  8
0
 10
89.644
 11
89.559
 20
52.318
 21
52.15
  0
LINE
  8
0
 10
89.559
 11
89.456
 20
52.15
 21
51.992
  0
LINE
  8
0
 10
89.456
 11
89.338
 20
51.992
 21
51.846
  0
LINE
  8
0
 10
89.338
 11
89.204
 20
51.846
 21
51.712
  0
LINE
  8
0
 10
89.204
 11
89.058
 20
51.712
 21
51.594
  0
LINE
  8
0
 10
89.058
 11
88.9
 20
51.594
 21
51.491
  0
LINE
  8
0
 10
88.9
 11
88.732
 20
51.491
 21
51.406
  0
LINE
  8
0
 10
88.732
 11
88.556
 20
51.406
 21
51.338
  0
LINE
  8
0
 10
88.556
 11
88.374
 20
51.338
 21
51.289
  0
LINE
  8
0
 10
88.374
 11
88.188
 20
51.289
 21
51.26
  0
LINE
  8
0
 10
88.188
 11
88
 20
51.26
 21
51.25
  0
LINE
  8
0
 10
88
 11
87.812
 20
51.25
 21
51.26
  0
LINE
  8
0
 10
87.812
 11
87.626
 20
51.26
 21
51.289
  0
LINE
  8
0
 10
87.626
 11
87.444
 20
51.289
 21
51.338
  0
LINE
  8
0
 10
87.444
 11
87.268
 20
51.338
 21
51.406
  0
LINE
  8
0
 10
87.268
 11
87.1
 20
51.406
 21
51.491
  0
LINE
  8
0
 10
87.1
 11
86.942
 20
51.491
 21
51.594
  0
LINE
  8
0
 10
86.942
 11
86.796
 20
51.594
 21
51.712
  0
LINE
  8
0
 10
86.796
 11
86.662
 20
51.712
 21
51.846
  0
LINE
  8
0
 10
86.662
 11
86.544
 20
51.846
 21
51.992
  0
LINE
  8
0
 10
86.544
 11
86.441
 20
51.992
 21
52.15
  0
LINE
  8
0
 10
86.441
 11
86.356
 20
52.15
 21
52.318
  0
LINE
  8
0
 10
86.356
 11
86.288
 20
52.318
 21
52.494
  0
LINE
  8
0
 10
86.288
 11
86.239
 20
52.494
 21
52.676
  0
LINE
  8
0
 10
86.239
 11
86.21
 20
52.676
 21
52.862
  0
LINE
  8
0
 10
86.21
 11
86.2
 20
52.862
 21
53.05
  0
ENDSEC
  0
SECTION
  2
OBJECTS
  0
DICTIONARY
  0
ENDSEC
  0
EOF
