  0
SECTION
  2
BLOCKS
  0
ENDSEC
  0
SECTION
  2
ENTITIES
  0
LINE
  8
0
 10
-5
 11
-5
 20
18.05
 21
28.05
  0
LINE
  8
0
 10
-5
 11
0
 20
28.05
 21
28.05
  0
LINE
  8
0
 10
0
 11
0
 20
28.05
 21
18.05
  0
LINE
  8
0
 10
0
 11
-5
 20
18.05
 21
18.05
  0
LINE
  8
0
 10
23.95
 11
23.96
 20
6.3
 21
6.488
  0
LINE
  8
0
 10
23.96
 11
23.989
 20
6.488
 21
6.674
  0
LINE
  8
0
 10
23.989
 11
24.038
 20
6.674
 21
6.856
  0
LINE
  8
0
 10
24.038
 11
24.106
 20
6.856
 21
7.032
  0
LINE
  8
0
 10
24.106
 11
24.191
 20
7.032
 21
7.2
  0
LINE
  8
0
 10
24.191
 11
24.294
 20
7.2
 21
7.358
  0
LINE
  8
0
 10
24.294
 11
24.412
 20
7.358
 21
7.504
  0
LINE
  8
0
 10
24.412
 11
24.546
 20
7.504
 21
7.638
  0
LINE
  8
0
 10
24.546
 11
24.692
 20
7.638
 21
7.756
  0
LINE
  8
0
 10
24.692
 11
24.85
 20
7.756
 21
7.859
  0
LINE
  8
0
 10
24.85
 11
25.018
 20
7.859
 21
7.944
  0
LINE
  8
0
 10
25.018
 11
25.194
 20
7.944
 21
8.012
  0
LINE
  8
0
 10
25.194
 11
25.376
 20
8.012
 21
8.061
  0
LINE
  8
0
 10
25.376
 11
25.562
 20
8.061
 21
8.09
  0
LINE
  8
0
 10
25.562
 11
25.75
 20
8.09
 21
8.1
  0
LINE
  8
0
 10
25.75
 11
25.938
 20
8.1
 21
8.09
  0
LINE
  8
0
 10
25.938
 11
26.124
 20
8.09
 21
8.061
  0
LINE
  8
0
 10
26.124
 11
26.306
 20
8.061
 21
8.012
  0
LINE
  8
0
 10
26.306
 11
26.482
 20
8.012
 21
7.944
  0
LINE
  8
0
 10
26.482
 11
26.65
 20
7.944
 21
7.859
  0
LINE
  8
0
 10
26.65
 11
26.808
 20
7.859
 21
7.756
  0
LINE
  8
0
 10
26.808
 11
26.954
 20
7.756
 21
7.638
  0
LINE
  8
0
 10
26.954
 11
27.088
 20
7.638
 21
7.504
  0
LINE
  8
0
 10
27.088
 11
27.206
 20
7.504
 21
7.358
  0
LINE
  8
0
 10
27.206
 11
27.309
 20
7.358
 21
7.2
  0
LINE
  8
0
 10
27.309
 11
27.394
 20
7.2
 21
7.032
  0
LINE
  8
0
 10
27.394
 11
27.462
 20
7.032
 21
6.856
  0
LINE
  8
0
 10
27.462
 11
27.511
 20
6.856
 21
6.674
  0
LINE
  8
0
 10
27.511
 11
27.54
 20
6.674
 21
6.488
  0
LINE
  8
0
 10
27.54
 11
27.55
 20
6.488
 21
6.3
  0
LINE
  8
0
 10
27.55
 11
27.54
 20
6.3
 21
6.112
  0
LINE
  8
0
 10
27.54
 11
27.511
 20
6.112
 21
5.926
  0
LINE
  8
0
 10
27.511
 11
27.462
 20
5.926
 21
5.744
  0
LINE
  8
0
 10
27.462
 11
27.394
 20
5.744
 21
5.568
  0
LINE
  8
0
 10
27.394
 11
27.309
 20
5.568
 21
5.4
  0
LINE
  8
0
 10
27.309
 11
27.206
 20
5.4
 21
5.242
  0
LINE
  8
0
 10
27.206
 11
27.088
 20
5.242
 21
5.096
  0
LINE
  8
0
 10
27.088
 11
26.954
 20
5.096
 21
4.962
  0
LINE
  8
0
 10
26.954
 11
26.808
 20
4.962
 21
4.844
  0
LINE
  8
0
 10
26.808
 11
26.65
 20
4.844
 21
4.741
  0
LINE
  8
0
 10
26.65
 11
26.482
 20
4.741
 21
4.656
  0
LINE
  8
0
 10
26.482
 11
26.306
 20
4.656
 21
4.588
  0
LINE
  8
0
 10
26.306
 11
26.124
 20
4.588
 21
4.539
  0
LINE
  8
0
 10
26.124
 11
25.938
 20
4.539
 21
4.51
  0
LINE
  8
0
 10
25.938
 11
25.75
 20
4.51
 21
4.5
  0
LINE
  8
0
 10
25.75
 11
25.562
 20
4.5
 21
4.51
  0
LINE
  8
0
 10
25.562
 11
25.376
 20
4.51
 21
4.539
  0
LINE
  8
0
 10
25.376
 11
25.194
 20
4.539
 21
4.588
  0
LINE
  8
0
 10
25.194
 11
25.018
 20
4.588
 21
4.656
  0
LINE
  8
0
 10
25.018
 11
24.85
 20
4.656
 21
4.741
  0
LINE
  8
0
 10
24.85
 11
24.692
 20
4.741
 21
4.844
  0
LINE
  8
0
 10
24.692
 11
24.546
 20
4.844
 21
4.962
  0
LINE
  8
0
 10
24.546
 11
24.412
 20
4.962
 21
5.096
  0
LINE
  8
0
 10
24.412
 11
24.294
 20
5.096
 21
5.242
  0
LINE
  8
0
 10
24.294
 11
24.191
 20
5.242
 21
5.4
  0
LINE
  8
0
 10
24.191
 11
24.106
 20
5.4
 21
5.568
  0
LINE
  8
0
 10
24.106
 11
24.038
 20
5.568
 21
5.744
  0
LINE
  8
0
 10
24.038
 11
23.989
 20
5.744
 21
5.926
  0
LINE
  8
0
 10
23.989
 11
23.96
 20
5.926
 21
6.112
  0
LINE
  8
0
 10
23.96
 11
23.95
 20
6.112
 21
6.3
  0
LINE
  8
0
 10
23.95
 11
23.96
 20
21.3
 21
21.488
  0
LINE
  8
0
 10
23.96
 11
23.989
 20
21.488
 21
21.674
  0
LINE
  8
0
 10
23.989
 11
24.038
 20
21.674
 21
21.856
  0
LINE
  8
0
 10
24.038
 11
24.106
 20
21.856
 21
22.032
  0
LINE
  8
0
 10
24.106
 11
24.191
 20
22.032
 21
22.2
  0
LINE
  8
0
 10
24.191
 11
24.294
 20
22.2
 21
22.358
  0
LINE
  8
0
 10
24.294
 11
24.412
 20
22.358
 21
22.504
  0
LINE
  8
0
 10
24.412
 11
24.546
 20
22.504
 21
22.638
  0
LINE
  8
0
 10
24.546
 11
24.692
 20
22.638
 21
22.756
  0
LINE
  8
0
 10
24.692
 11
24.85
 20
22.756
 21
22.859
  0
LINE
  8
0
 10
24.85
 11
25.018
 20
22.859
 21
22.944
  0
LINE
  8
0
 10
25.018
 11
25.194
 20
22.944
 21
23.012
  0
LINE
  8
0
 10
25.194
 11
25.376
 20
23.012
 21
23.061
  0
LINE
  8
0
 10
25.376
 11
25.562
 20
23.061
 21
23.09
  0
LINE
  8
0
 10
25.562
 11
25.75
 20
23.09
 21
23.1
  0
LINE
  8
0
 10
25.75
 11
25.938
 20
23.1
 21
23.09
  0
LINE
  8
0
 10
25.938
 11
26.124
 20
23.09
 21
23.061
  0
LINE
  8
0
 10
26.124
 11
26.306
 20
23.061
 21
23.012
  0
LINE
  8
0
 10
26.306
 11
26.482
 20
23.012
 21
22.944
  0
LINE
  8
0
 10
26.482
 11
26.65
 20
22.944
 21
22.859
  0
LINE
  8
0
 10
26.65
 11
26.808
 20
22.859
 21
22.756
  0
LINE
  8
0
 10
26.808
 11
26.954
 20
22.756
 21
22.638
  0
LINE
  8
0
 10
26.954
 11
27.088
 20
22.638
 21
22.504
  0
LINE
  8
0
 10
27.088
 11
27.206
 20
22.504
 21
22.358
  0
LINE
  8
0
 10
27.206
 11
27.309
 20
22.358
 21
22.2
  0
LINE
  8
0
 10
27.309
 11
27.394
 20
22.2
 21
22.032
  0
LINE
  8
0
 10
27.394
 11
27.462
 20
22.032
 21
21.856
  0
LINE
  8
0
 10
27.462
 11
27.511
 20
21.856
 21
21.674
  0
LINE
  8
0
 10
27.511
 11
27.54
 20
21.674
 21
21.488
  0
LINE
  8
0
 10
27.54
 11
27.55
 20
21.488
 21
21.3
  0
LINE
  8
0
 10
27.55
 11
27.54
 20
21.3
 21
21.112
  0
LINE
  8
0
 10
27.54
 11
27.511
 20
21.112
 21
20.926
  0
LINE
  8
0
 10
27.511
 11
27.462
 20
20.926
 21
20.744
  0
LINE
  8
0
 10
27.462
 11
27.394
 20
20.744
 21
20.568
  0
LINE
  8
0
 10
27.394
 11
27.309
 20
20.568
 21
20.4
  0
LINE
  8
0
 10
27.309
 11
27.206
 20
20.4
 21
20.242
  0
LINE
  8
0
 10
27.206
 11
27.088
 20
20.242
 21
20.096
  0
LINE
  8
0
 10
27.088
 11
26.954
 20
20.096
 21
19.962
  0
LINE
  8
0
 10
26.954
 11
26.808
 20
19.962
 21
19.844
  0
LINE
  8
0
 10
26.808
 11
26.65
 20
19.844
 21
19.741
  0
LINE
  8
0
 10
26.65
 11
26.482
 20
19.741
 21
19.656
  0
LINE
  8
0
 10
26.482
 11
26.306
 20
19.656
 21
19.588
  0
LINE
  8
0
 10
26.306
 11
26.124
 20
19.588
 21
19.539
  0
LINE
  8
0
 10
26.124
 11
25.938
 20
19.539
 21
19.51
  0
LINE
  8
0
 10
25.938
 11
25.75
 20
19.51
 21
19.5
  0
LINE
  8
0
 10
25.75
 11
25.562
 20
19.5
 21
19.51
  0
LINE
  8
0
 10
25.562
 11
25.376
 20
19.51
 21
19.539
  0
LINE
  8
0
 10
25.376
 11
25.194
 20
19.539
 21
19.588
  0
LINE
  8
0
 10
25.194
 11
25.018
 20
19.588
 21
19.656
  0
LINE
  8
0
 10
25.018
 11
24.85
 20
19.656
 21
19.741
  0
LINE
  8
0
 10
24.85
 11
24.692
 20
19.741
 21
19.844
  0
LINE
  8
0
 10
24.692
 11
24.546
 20
19.844
 21
19.962
  0
LINE
  8
0
 10
24.546
 11
24.412
 20
19.962
 21
20.096
  0
LINE
  8
0
 10
24.412
 11
24.294
 20
20.096
 21
20.242
  0
LINE
  8
0
 10
24.294
 11
24.191
 20
20.242
 21
20.4
  0
LINE
  8
0
 10
24.191
 11
24.106
 20
20.4
 21
20.568
  0
LINE
  8
0
 10
24.106
 11
24.038
 20
20.568
 21
20.744
  0
LINE
  8
0
 10
24.038
 11
23.989
 20
20.744
 21
20.926
  0
LINE
  8
0
 10
23.989
 11
23.96
 20
20.926
 21
21.112
  0
LINE
  8
0
 10
23.96
 11
23.95
 20
21.112
 21
21.3
  0
LINE
  8
0
 10
23.95
 11
23.96
 20
64.8
 21
64.988
  0
LINE
  8
0
 10
23.96
 11
23.989
 20
64.988
 21
65.174
  0
LINE
  8
0
 10
23.989
 11
24.038
 20
65.174
 21
65.356
  0
LINE
  8
0
 10
24.038
 11
24.106
 20
65.356
 21
65.532
  0
LINE
  8
0
 10
24.106
 11
24.191
 20
65.532
 21
65.7
  0
LINE
  8
0
 10
24.191
 11
24.294
 20
65.7
 21
65.858
  0
LINE
  8
0
 10
24.294
 11
24.412
 20
65.858
 21
66.004
  0
LINE
  8
0
 10
24.412
 11
24.546
 20
66.004
 21
66.138
  0
LINE
  8
0
 10
24.546
 11
24.692
 20
66.138
 21
66.256
  0
LINE
  8
0
 10
24.692
 11
24.85
 20
66.256
 21
66.359
  0
LINE
  8
0
 10
24.85
 11
25.018
 20
66.359
 21
66.444
  0
LINE
  8
0
 10
25.018
 11
25.194
 20
66.444
 21
66.512
  0
LINE
  8
0
 10
25.194
 11
25.376
 20
66.512
 21
66.561
  0
LINE
  8
0
 10
25.376
 11
25.562
 20
66.561
 21
66.59
  0
LINE
  8
0
 10
25.562
 11
25.75
 20
66.59
 21
66.6
  0
LINE
  8
0
 10
25.75
 11
25.938
 20
66.6
 21
66.59
  0
LINE
  8
0
 10
25.938
 11
26.124
 20
66.59
 21
66.561
  0
LINE
  8
0
 10
26.124
 11
26.306
 20
66.561
 21
66.512
  0
LINE
  8
0
 10
26.306
 11
26.482
 20
66.512
 21
66.444
  0
LINE
  8
0
 10
26.482
 11
26.65
 20
66.444
 21
66.359
  0
LINE
  8
0
 10
26.65
 11
26.808
 20
66.359
 21
66.256
  0
LINE
  8
0
 10
26.808
 11
26.954
 20
66.256
 21
66.138
  0
LINE
  8
0
 10
26.954
 11
27.088
 20
66.138
 21
66.004
  0
LINE
  8
0
 10
27.088
 11
27.206
 20
66.004
 21
65.858
  0
LINE
  8
0
 10
27.206
 11
27.309
 20
65.858
 21
65.7
  0
LINE
  8
0
 10
27.309
 11
27.394
 20
65.7
 21
65.532
  0
LINE
  8
0
 10
27.394
 11
27.462
 20
65.532
 21
65.356
  0
LINE
  8
0
 10
27.462
 11
27.511
 20
65.356
 21
65.174
  0
LINE
  8
0
 10
27.511
 11
27.54
 20
65.174
 21
64.988
  0
LINE
  8
0
 10
27.54
 11
27.55
 20
64.988
 21
64.8
  0
LINE
  8
0
 10
27.55
 11
27.54
 20
64.8
 21
64.612
  0
LINE
  8
0
 10
27.54
 11
27.511
 20
64.612
 21
64.426
  0
LINE
  8
0
 10
27.511
 11
27.462
 20
64.426
 21
64.244
  0
LINE
  8
0
 10
27.462
 11
27.394
 20
64.244
 21
64.068
  0
LINE
  8
0
 10
27.394
 11
27.309
 20
64.068
 21
63.9
  0
LINE
  8
0
 10
27.309
 11
27.206
 20
63.9
 21
63.742
  0
LINE
  8
0
 10
27.206
 11
27.088
 20
63.742
 21
63.596
  0
LINE
  8
0
 10
27.088
 11
26.954
 20
63.596
 21
63.462
  0
LINE
  8
0
 10
26.954
 11
26.808
 20
63.462
 21
63.344
  0
LINE
  8
0
 10
26.808
 11
26.65
 20
63.344
 21
63.241
  0
LINE
  8
0
 10
26.65
 11
26.482
 20
63.241
 21
63.156
  0
LINE
  8
0
 10
26.482
 11
26.306
 20
63.156
 21
63.088
  0
LINE
  8
0
 10
26.306
 11
26.124
 20
63.088
 21
63.039
  0
LINE
  8
0
 10
26.124
 11
25.938
 20
63.039
 21
63.01
  0
LINE
  8
0
 10
25.938
 11
25.75
 20
63.01
 21
63
  0
LINE
  8
0
 10
25.75
 11
25.562
 20
63
 21
63.01
  0
LINE
  8
0
 10
25.562
 11
25.376
 20
63.01
 21
63.039
  0
LINE
  8
0
 10
25.376
 11
25.194
 20
63.039
 21
63.088
  0
LINE
  8
0
 10
25.194
 11
25.018
 20
63.088
 21
63.156
  0
LINE
  8
0
 10
25.018
 11
24.85
 20
63.156
 21
63.241
  0
LINE
  8
0
 10
24.85
 11
24.692
 20
63.241
 21
63.344
  0
LINE
  8
0
 10
24.692
 11
24.546
 20
63.344
 21
63.462
  0
LINE
  8
0
 10
24.546
 11
24.412
 20
63.462
 21
63.596
  0
LINE
  8
0
 10
24.412
 11
24.294
 20
63.596
 21
63.742
  0
LINE
  8
0
 10
24.294
 11
24.191
 20
63.742
 21
63.9
  0
LINE
  8
0
 10
24.191
 11
24.106
 20
63.9
 21
64.068
  0
LINE
  8
0
 10
24.106
 11
24.038
 20
64.068
 21
64.244
  0
LINE
  8
0
 10
24.038
 11
23.989
 20
64.244
 21
64.426
  0
LINE
  8
0
 10
23.989
 11
23.96
 20
64.426
 21
64.612
  0
LINE
  8
0
 10
23.96
 11
23.95
 20
64.612
 21
64.8
  0
LINE
  8
0
 10
23.95
 11
23.96
 20
79.8
 21
79.988
  0
LINE
  8
0
 10
23.96
 11
23.989
 20
79.988
 21
80.174
  0
LINE
  8
0
 10
23.989
 11
24.038
 20
80.174
 21
80.356
  0
LINE
  8
0
 10
24.038
 11
24.106
 20
80.356
 21
80.532
  0
LINE
  8
0
 10
24.106
 11
24.191
 20
80.532
 21
80.7
  0
LINE
  8
0
 10
24.191
 11
24.294
 20
80.7
 21
80.858
  0
LINE
  8
0
 10
24.294
 11
24.412
 20
80.858
 21
81.004
  0
LINE
  8
0
 10
24.412
 11
24.546
 20
81.004
 21
81.138
  0
LINE
  8
0
 10
24.546
 11
24.692
 20
81.138
 21
81.256
  0
LINE
  8
0
 10
24.692
 11
24.85
 20
81.256
 21
81.359
  0
LINE
  8
0
 10
24.85
 11
25.018
 20
81.359
 21
81.444
  0
LINE
  8
0
 10
25.018
 11
25.194
 20
81.444
 21
81.512
  0
LINE
  8
0
 10
25.194
 11
25.376
 20
81.512
 21
81.561
  0
LINE
  8
0
 10
25.376
 11
25.562
 20
81.561
 21
81.59
  0
LINE
  8
0
 10
25.562
 11
25.75
 20
81.59
 21
81.6
  0
LINE
  8
0
 10
25.75
 11
25.938
 20
81.6
 21
81.59
  0
LINE
  8
0
 10
25.938
 11
26.124
 20
81.59
 21
81.561
  0
LINE
  8
0
 10
26.124
 11
26.306
 20
81.561
 21
81.512
  0
LINE
  8
0
 10
26.306
 11
26.482
 20
81.512
 21
81.444
  0
LINE
  8
0
 10
26.482
 11
26.65
 20
81.444
 21
81.359
  0
LINE
  8
0
 10
26.65
 11
26.808
 20
81.359
 21
81.256
  0
LINE
  8
0
 10
26.808
 11
26.954
 20
81.256
 21
81.138
  0
LINE
  8
0
 10
26.954
 11
27.088
 20
81.138
 21
81.004
  0
LINE
  8
0
 10
27.088
 11
27.206
 20
81.004
 21
80.858
  0
LINE
  8
0
 10
27.206
 11
27.309
 20
80.858
 21
80.7
  0
LINE
  8
0
 10
27.309
 11
27.394
 20
80.7
 21
80.532
  0
LINE
  8
0
 10
27.394
 11
27.462
 20
80.532
 21
80.356
  0
LINE
  8
0
 10
27.462
 11
27.511
 20
80.356
 21
80.174
  0
LINE
  8
0
 10
27.511
 11
27.54
 20
80.174
 21
79.988
  0
LINE
  8
0
 10
27.54
 11
27.55
 20
79.988
 21
79.8
  0
LINE
  8
0
 10
27.55
 11
27.54
 20
79.8
 21
79.612
  0
LINE
  8
0
 10
27.54
 11
27.511
 20
79.612
 21
79.426
  0
LINE
  8
0
 10
27.511
 11
27.462
 20
79.426
 21
79.244
  0
LINE
  8
0
 10
27.462
 11
27.394
 20
79.244
 21
79.068
  0
LINE
  8
0
 10
27.394
 11
27.309
 20
79.068
 21
78.9
  0
LINE
  8
0
 10
27.309
 11
27.206
 20
78.9
 21
78.742
  0
LINE
  8
0
 10
27.206
 11
27.088
 20
78.742
 21
78.596
  0
LINE
  8
0
 10
27.088
 11
26.954
 20
78.596
 21
78.462
  0
LINE
  8
0
 10
26.954
 11
26.808
 20
78.462
 21
78.344
  0
LINE
  8
0
 10
26.808
 11
26.65
 20
78.344
 21
78.241
  0
LINE
  8
0
 10
26.65
 11
26.482
 20
78.241
 21
78.156
  0
LINE
  8
0
 10
26.482
 11
26.306
 20
78.156
 21
78.088
  0
LINE
  8
0
 10
26.306
 11
26.124
 20
78.088
 21
78.039
  0
LINE
  8
0
 10
26.124
 11
25.938
 20
78.039
 21
78.01
  0
LINE
  8
0
 10
25.938
 11
25.75
 20
78.01
 21
78
  0
LINE
  8
0
 10
25.75
 11
25.562
 20
78
 21
78.01
  0
LINE
  8
0
 10
25.562
 11
25.376
 20
78.01
 21
78.039
  0
LINE
  8
0
 10
25.376
 11
25.194
 20
78.039
 21
78.088
  0
LINE
  8
0
 10
25.194
 11
25.018
 20
78.088
 21
78.156
  0
LINE
  8
0
 10
25.018
 11
24.85
 20
78.156
 21
78.241
  0
LINE
  8
0
 10
24.85
 11
24.692
 20
78.241
 21
78.344
  0
LINE
  8
0
 10
24.692
 11
24.546
 20
78.344
 21
78.462
  0
LINE
  8
0
 10
24.546
 11
24.412
 20
78.462
 21
78.596
  0
LINE
  8
0
 10
24.412
 11
24.294
 20
78.596
 21
78.742
  0
LINE
  8
0
 10
24.294
 11
24.191
 20
78.742
 21
78.9
  0
LINE
  8
0
 10
24.191
 11
24.106
 20
78.9
 21
79.068
  0
LINE
  8
0
 10
24.106
 11
24.038
 20
79.068
 21
79.244
  0
LINE
  8
0
 10
24.038
 11
23.989
 20
79.244
 21
79.426
  0
LINE
  8
0
 10
23.989
 11
23.96
 20
79.426
 21
79.612
  0
LINE
  8
0
 10
23.96
 11
23.95
 20
79.612
 21
79.8
  0
LINE
  8
0
 10
36.2
 11
36.21
 20
33.05
 21
33.238
  0
LINE
  8
0
 10
36.21
 11
36.239
 20
33.238
 21
33.424
  0
LINE
  8
0
 10
36.239
 11
36.288
 20
33.424
 21
33.606
  0
LINE
  8
0
 10
36.288
 11
36.356
 20
33.606
 21
33.782
  0
LINE
  8
0
 10
36.356
 11
36.441
 20
33.782
 21
33.95
  0
LINE
  8
0
 10
36.441
 11
36.544
 20
33.95
 21
34.108
  0
LINE
  8
0
 10
36.544
 11
36.662
 20
34.108
 21
34.254
  0
LINE
  8
0
 10
36.662
 11
36.796
 20
34.254
 21
34.388
  0
LINE
  8
0
 10
36.796
 11
36.942
 20
34.388
 21
34.506
  0
LINE
  8
0
 10
36.942
 11
37.1
 20
34.506
 21
34.609
  0
LINE
  8
0
 10
37.1
 11
37.268
 20
34.609
 21
34.694
  0
LINE
  8
0
 10
37.268
 11
37.444
 20
34.694
 21
34.762
  0
LINE
  8
0
 10
37.444
 11
37.626
 20
34.762
 21
34.811
  0
LINE
  8
0
 10
37.626
 11
37.812
 20
34.811
 21
34.84
  0
LINE
  8
0
 10
37.812
 11
38
 20
34.84
 21
34.85
  0
LINE
  8
0
 10
38
 11
38.188
 20
34.85
 21
34.84
  0
LINE
  8
0
 10
38.188
 11
38.374
 20
34.84
 21
34.811
  0
LINE
  8
0
 10
38.374
 11
38.556
 20
34.811
 21
34.762
  0
LINE
  8
0
 10
38.556
 11
38.732
 20
34.762
 21
34.694
  0
LINE
  8
0
 10
38.732
 11
38.9
 20
34.694
 21
34.609
  0
LINE
  8
0
 10
38.9
 11
39.058
 20
34.609
 21
34.506
  0
LINE
  8
0
 10
39.058
 11
39.204
 20
34.506
 21
34.388
  0
LINE
  8
0
 10
39.204
 11
39.338
 20
34.388
 21
34.254
  0
LINE
  8
0
 10
39.338
 11
39.456
 20
34.254
 21
34.108
  0
LINE
  8
0
 10
39.456
 11
39.559
 20
34.108
 21
33.95
  0
LINE
  8
0
 10
39.559
 11
39.644
 20
33.95
 21
33.782
  0
LINE
  8
0
 10
39.644
 11
39.712
 20
33.782
 21
33.606
  0
LINE
  8
0
 10
39.712
 11
39.761
 20
33.606
 21
33.424
  0
LINE
  8
0
 10
39.761
 11
39.79
 20
33.424
 21
33.238
  0
LINE
  8
0
 10
39.79
 11
39.8
 20
33.238
 21
33.05
  0
LINE
  8
0
 10
39.8
 11
39.79
 20
33.05
 21
32.862
  0
LINE
  8
0
 10
39.79
 11
39.761
 20
32.862
 21
32.676
  0
LINE
  8
0
 10
39.761
 11
39.712
 20
32.676
 21
32.494
  0
LINE
  8
0
 10
39.712
 11
39.644
 20
32.494
 21
32.318
  0
LINE
  8
0
 10
39.644
 11
39.559
 20
32.318
 21
32.15
  0
LINE
  8
0
 10
39.559
 11
39.456
 20
32.15
 21
31.992
  0
LINE
  8
0
 10
39.456
 11
39.338
 20
31.992
 21
31.846
  0
LINE
  8
0
 10
39.338
 11
39.204
 20
31.846
 21
31.712
  0
LINE
  8
0
 10
39.204
 11
39.058
 20
31.712
 21
31.594
  0
LINE
  8
0
 10
39.058
 11
38.9
 20
31.594
 21
31.491
  0
LINE
  8
0
 10
38.9
 11
38.732
 20
31.491
 21
31.406
  0
LINE
  8
0
 10
38.732
 11
38.556
 20
31.406
 21
31.338
  0
LINE
  8
0
 10
38.556
 11
38.374
 20
31.338
 21
31.289
  0
LINE
  8
0
 10
38.374
 11
38.188
 20
31.289
 21
31.26
  0
LINE
  8
0
 10
38.188
 11
38
 20
31.26
 21
31.25
  0
LINE
  8
0
 10
38
 11
37.812
 20
31.25
 21
31.26
  0
LINE
  8
0
 10
37.812
 11
37.626
 20
31.26
 21
31.289
  0
LINE
  8
0
 10
37.626
 11
37.444
 20
31.289
 21
31.338
  0
LINE
  8
0
 10
37.444
 11
37.268
 20
31.338
 21
31.406
  0
LINE
  8
0
 10
37.268
 11
37.1
 20
31.406
 21
31.491
  0
LINE
  8
0
 10
37.1
 11
36.942
 20
31.491
 21
31.594
  0
LINE
  8
0
 10
36.942
 11
36.796
 20
31.594
 21
31.712
  0
LINE
  8
0
 10
36.796
 11
36.662
 20
31.712
 21
31.846
  0
LINE
  8
0
 10
36.662
 11
36.544
 20
31.846
 21
31.992
  0
LINE
  8
0
 10
36.544
 11
36.441
 20
31.992
 21
32.15
  0
LINE
  8
0
 10
36.441
 11
36.356
 20
32.15
 21
32.318
  0
LINE
  8
0
 10
36.356
 11
36.288
 20
32.318
 21
32.494
  0
LINE
  8
0
 10
36.288
 11
36.239
 20
32.494
 21
32.676
  0
LINE
  8
0
 10
36.239
 11
36.21
 20
32.676
 21
32.862
  0
LINE
  8
0
 10
36.21
 11
36.2
 20
32.862
 21
33.05
  0
LINE
  8
0
 10
36.2
 11
36.21
 20
53.05
 21
53.238
  0
LINE
  8
0
 10
36.21
 11
36.239
 20
53.238
 21
53.424
  0
LINE
  8
0
 10
36.239
 11
36.288
 20
53.424
 21
53.606
  0
LINE
  8
0
 10
36.288
 11
36.356
 20
53.606
 21
53.782
  0
LINE
  8
0
 10
36.356
 11
36.441
 20
53.782
 21
53.95
  0
LINE
  8
0
 10
36.441
 11
36.544
 20
53.95
 21
54.108
  0
LINE
  8
0
 10
36.544
 11
36.662
 20
54.108
 21
54.254
  0
LINE
  8
0
 10
36.662
 11
36.796
 20
54.254
 21
54.388
  0
LINE
  8
0
 10
36.796
 11
36.942
 20
54.388
 21
54.506
  0
LINE
  8
0
 10
36.942
 11
37.1
 20
54.506
 21
54.609
  0
LINE
  8
0
 10
37.1
 11
37.268
 20
54.609
 21
54.694
  0
LINE
  8
0
 10
37.268
 11
37.444
 20
54.694
 21
54.762
  0
LINE
  8
0
 10
37.444
 11
37.626
 20
54.762
 21
54.811
  0
LINE
  8
0
 10
37.626
 11
37.812
 20
54.811
 21
54.84
  0
LINE
  8
0
 10
37.812
 11
38
 20
54.84
 21
54.85
  0
LINE
  8
0
 10
38
 11
38.188
 20
54.85
 21
54.84
  0
LINE
  8
0
 10
38.188
 11
38.374
 20
54.84
 21
54.811
  0
LINE
  8
0
 10
38.374
 11
38.556
 20
54.811
 21
54.762
  0
LINE
  8
0
 10
38.556
 11
38.732
 20
54.762
 21
54.694
  0
LINE
  8
0
 10
38.732
 11
38.9
 20
54.694
 21
54.609
  0
LINE
  8
0
 10
38.9
 11
39.058
 20
54.609
 21
54.506
  0
LINE
  8
0
 10
39.058
 11
39.204
 20
54.506
 21
54.388
  0
LINE
  8
0
 10
39.204
 11
39.338
 20
54.388
 21
54.254
  0
LINE
  8
0
 10
39.338
 11
39.456
 20
54.254
 21
54.108
  0
LINE
  8
0
 10
39.456
 11
39.559
 20
54.108
 21
53.95
  0
LINE
  8
0
 10
39.559
 11
39.644
 20
53.95
 21
53.782
  0
LINE
  8
0
 10
39.644
 11
39.712
 20
53.782
 21
53.606
  0
LINE
  8
0
 10
39.712
 11
39.761
 20
53.606
 21
53.424
  0
LINE
  8
0
 10
39.761
 11
39.79
 20
53.424
 21
53.238
  0
LINE
  8
0
 10
39.79
 11
39.8
 20
53.238
 21
53.05
  0
LINE
  8
0
 10
39.8
 11
39.79
 20
53.05
 21
52.862
  0
LINE
  8
0
 10
39.79
 11
39.761
 20
52.862
 21
52.676
  0
LINE
  8
0
 10
39.761
 11
39.712
 20
52.676
 21
52.494
  0
LINE
  8
0
 10
39.712
 11
39.644
 20
52.494
 21
52.318
  0
LINE
  8
0
 10
39.644
 11
39.559
 20
52.318
 21
52.15
  0
LINE
  8
0
 10
39.559
 11
39.456
 20
52.15
 21
51.992
  0
LINE
  8
0
 10
39.456
 11
39.338
 20
51.992
 21
51.846
  0
LINE
  8
0
 10
39.338
 11
39.204
 20
51.846
 21
51.712
  0
LINE
  8
0
 10
39.204
 11
39.058
 20
51.712
 21
51.594
  0
LINE
  8
0
 10
39.058
 11
38.9
 20
51.594
 21
51.491
  0
LINE
  8
0
 10
38.9
 11
38.732
 20
51.491
 21
51.406
  0
LINE
  8
0
 10
38.732
 11
38.556
 20
51.406
 21
51.338
  0
LINE
  8
0
 10
38.556
 11
38.374
 20
51.338
 21
51.289
  0
LINE
  8
0
 10
38.374
 11
38.188
 20
51.289
 21
51.26
  0
LINE
  8
0
 10
38.188
 11
38
 20
51.26
 21
51.25
  0
LINE
  8
0
 10
38
 11
37.812
 20
51.25
 21
51.26
  0
LINE
  8
0
 10
37.812
 11
37.626
 20
51.26
 21
51.289
  0
LINE
  8
0
 10
37.626
 11
37.444
 20
51.289
 21
51.338
  0
LINE
  8
0
 10
37.444
 11
37.268
 20
51.338
 21
51.406
  0
LINE
  8
0
 10
37.268
 11
37.1
 20
51.406
 21
51.491
  0
LINE
  8
0
 10
37.1
 11
36.942
 20
51.491
 21
51.594
  0
LINE
  8
0
 10
36.942
 11
36.796
 20
51.594
 21
51.712
  0
LINE
  8
0
 10
36.796
 11
36.662
 20
51.712
 21
51.846
  0
LINE
  8
0
 10
36.662
 11
36.544
 20
51.846
 21
51.992
  0
LINE
  8
0
 10
36.544
 11
36.441
 20
51.992
 21
52.15
  0
LINE
  8
0
 10
36.441
 11
36.356
 20
52.15
 21
52.318
  0
LINE
  8
0
 10
36.356
 11
36.288
 20
52.318
 21
52.494
  0
LINE
  8
0
 10
36.288
 11
36.239
 20
52.494
 21
52.676
  0
LINE
  8
0
 10
36.239
 11
36.21
 20
52.676
 21
52.862
  0
LINE
  8
0
 10
36.21
 11
36.2
 20
52.862
 21
53.05
  0
LINE
  8
0
 10
41.85
 11
41.911
 20
43.05
 21
44.215
  0
LINE
  8
0
 10
41.911
 11
42.094
 20
44.215
 21
45.368
  0
LINE
  8
0
 10
42.094
 11
42.396
 20
45.368
 21
46.496
  0
LINE
  8
0
 10
42.396
 11
42.814
 20
46.496
 21
47.585
  0
LINE
  8
0
 10
42.814
 11
43.344
 20
47.585
 21
48.625
  0
LINE
  8
0
 10
43.344
 11
43.979
 20
48.625
 21
49.604
  0
LINE
  8
0
 10
43.979
 11
44.714
 20
49.604
 21
50.511
  0
LINE
  8
0
 10
44.714
 11
45.539
 20
50.511
 21
51.336
  0
LINE
  8
0
 10
45.539
 11
46.446
 20
51.336
 21
52.071
  0
LINE
  8
0
 10
46.446
 11
47.425
 20
52.071
 21
52.706
  0
LINE
  8
0
 10
47.425
 11
48.465
 20
52.706
 21
53.236
  0
LINE
  8
0
 10
48.465
 11
49.554
 20
53.236
 21
53.654
  0
LINE
  8
0
 10
49.554
 11
50.682
 20
53.654
 21
53.956
  0
LINE
  8
0
 10
50.682
 11
51.835
 20
53.956
 21
54.139
  0
LINE
  8
0
 10
51.835
 11
53
 20
54.139
 21
54.2
  0
LINE
  8
0
 10
53
 11
54.165
 20
54.2
 21
54.139
  0
LINE
  8
0
 10
54.165
 11
55.318
 20
54.139
 21
53.956
  0
LINE
  8
0
 10
55.318
 11
56.446
 20
53.956
 21
53.654
  0
LINE
  8
0
 10
56.446
 11
57.535
 20
53.654
 21
53.236
  0
LINE
  8
0
 10
57.535
 11
58.575
 20
53.236
 21
52.706
  0
LINE
  8
0
 10
58.575
 11
59.554
 20
52.706
 21
52.071
  0
LINE
  8
0
 10
59.554
 11
60.461
 20
52.071
 21
51.336
  0
LINE
  8
0
 10
60.461
 11
61.286
 20
51.336
 21
50.511
  0
LINE
  8
0
 10
61.286
 11
62.021
 20
50.511
 21
49.604
  0
LINE
  8
0
 10
62.021
 11
62.656
 20
49.604
 21
48.625
  0
LINE
  8
0
 10
62.656
 11
63.186
 20
48.625
 21
47.585
  0
LINE
  8
0
 10
63.186
 11
63.604
 20
47.585
 21
46.496
  0
LINE
  8
0
 10
63.604
 11
63.906
 20
46.496
 21
45.368
  0
LINE
  8
0
 10
63.906
 11
64.089
 20
45.368
 21
44.215
  0
LINE
  8
0
 10
64.089
 11
64.15
 20
44.215
 21
43.05
  0
LINE
  8
0
 10
64.15
 11
64.089
 20
43.05
 21
41.885
  0
LINE
  8
0
 10
64.089
 11
63.906
 20
41.885
 21
40.732
  0
LINE
  8
0
 10
63.906
 11
63.604
 20
40.732
 21
39.604
  0
LINE
  8
0
 10
63.604
 11
63.186
 20
39.604
 21
38.515
  0
LINE
  8
0
 10
63.186
 11
62.656
 20
38.515
 21
37.475
  0
LINE
  8
0
 10
62.656
 11
62.021
 20
37.475
 21
36.496
  0
LINE
  8
0
 10
62.021
 11
61.286
 20
36.496
 21
35.589
  0
LINE
  8
0
 10
61.286
 11
60.461
 20
35.589
 21
34.764
  0
LINE
  8
0
 10
60.461
 11
59.554
 20
34.764
 21
34.029
  0
LINE
  8
0
 10
59.554
 11
58.575
 20
34.029
 21
33.394
  0
LINE
  8
0
 10
58.575
 11
57.535
 20
33.394
 21
32.864
  0
LINE
  8
0
 10
57.535
 11
56.446
 20
32.864
 21
32.446
  0
LINE
  8
0
 10
56.446
 11
55.318
 20
32.446
 21
32.144
  0
LINE
  8
0
 10
55.318
 11
54.165
 20
32.144
 21
31.961
  0
LINE
  8
0
 10
54.165
 11
53
 20
31.961
 21
31.9
  0
LINE
  8
0
 10
53
 11
51.835
 20
31.9
 21
31.961
  0
LINE
  8
0
 10
51.835
 11
50.682
 20
31.961
 21
32.144
  0
LINE
  8
0
 10
50.682
 11
49.554
 20
32.144
 21
32.446
  0
LINE
  8
0
 10
49.554
 11
48.465
 20
32.446
 21
32.864
  0
LINE
  8
0
 10
48.465
 11
47.425
 20
32.864
 21
33.394
  0
LINE
  8
0
 10
47.425
 11
46.446
 20
33.394
 21
34.029
  0
LINE
  8
0
 10
46.446
 11
45.539
 20
34.029
 21
34.764
  0
LINE
  8
0
 10
45.539
 11
44.714
 20
34.764
 21
35.589
  0
LINE
  8
0
 10
44.714
 11
43.979
 20
35.589
 21
36.496
  0
LINE
  8
0
 10
43.979
 11
43.344
 20
36.496
 21
37.475
  0
LINE
  8
0
 10
43.344
 11
42.814
 20
37.475
 21
38.515
  0
LINE
  8
0
 10
42.814
 11
42.396
 20
38.515
 21
39.604
  0
LINE
  8
0
 10
42.396
 11
42.094
 20
39.604
 21
40.732
  0
LINE
  8
0
 10
42.094
 11
41.911
 20
40.732
 21
41.885
  0
LINE
  8
0
 10
41.911
 11
41.85
 20
41.885
 21
43.05
  0
LINE
  8
0
 10
75.45
 11
75.46
 20
6.3
 21
6.488
  0
LINE
  8
0
 10
75.46
 11
75.489
 20
6.488
 21
6.674
  0
LINE
  8
0
 10
75.489
 11
75.538
 20
6.674
 21
6.856
  0
LINE
  8
0
 10
75.538
 11
75.606
 20
6.856
 21
7.032
  0
LINE
  8
0
 10
75.606
 11
75.691
 20
7.032
 21
7.2
  0
LINE
  8
0
 10
75.691
 11
75.794
 20
7.2
 21
7.358
  0
LINE
  8
0
 10
75.794
 11
75.912
 20
7.358
 21
7.504
  0
LINE
  8
0
 10
75.912
 11
76.046
 20
7.504
 21
7.638
  0
LINE
  8
0
 10
76.046
 11
76.192
 20
7.638
 21
7.756
  0
LINE
  8
0
 10
76.192
 11
76.35
 20
7.756
 21
7.859
  0
LINE
  8
0
 10
76.35
 11
76.518
 20
7.859
 21
7.944
  0
LINE
  8
0
 10
76.518
 11
76.694
 20
7.944
 21
8.012
  0
LINE
  8
0
 10
76.694
 11
76.876
 20
8.012
 21
8.061
  0
LINE
  8
0
 10
76.876
 11
77.062
 20
8.061
 21
8.09
  0
LINE
  8
0
 10
77.062
 11
77.25
 20
8.09
 21
8.1
  0
LINE
  8
0
 10
77.25
 11
77.438
 20
8.1
 21
8.09
  0
LINE
  8
0
 10
77.438
 11
77.624
 20
8.09
 21
8.061
  0
LINE
  8
0
 10
77.624
 11
77.806
 20
8.061
 21
8.012
  0
LINE
  8
0
 10
77.806
 11
77.982
 20
8.012
 21
7.944
  0
LINE
  8
0
 10
77.982
 11
78.15
 20
7.944
 21
7.859
  0
LINE
  8
0
 10
78.15
 11
78.308
 20
7.859
 21
7.756
  0
LINE
  8
0
 10
78.308
 11
78.454
 20
7.756
 21
7.638
  0
LINE
  8
0
 10
78.454
 11
78.588
 20
7.638
 21
7.504
  0
LINE
  8
0
 10
78.588
 11
78.706
 20
7.504
 21
7.358
  0
LINE
  8
0
 10
78.706
 11
78.809
 20
7.358
 21
7.2
  0
LINE
  8
0
 10
78.809
 11
78.894
 20
7.2
 21
7.032
  0
LINE
  8
0
 10
78.894
 11
78.962
 20
7.032
 21
6.856
  0
LINE
  8
0
 10
78.962
 11
79.011
 20
6.856
 21
6.674
  0
LINE
  8
0
 10
79.011
 11
79.04
 20
6.674
 21
6.488
  0
LINE
  8
0
 10
79.04
 11
79.05
 20
6.488
 21
6.3
  0
LINE
  8
0
 10
79.05
 11
79.04
 20
6.3
 21
6.112
  0
LINE
  8
0
 10
79.04
 11
79.011
 20
6.112
 21
5.926
  0
LINE
  8
0
 10
79.011
 11
78.962
 20
5.926
 21
5.744
  0
LINE
  8
0
 10
78.962
 11
78.894
 20
5.744
 21
5.568
  0
LINE
  8
0
 10
78.894
 11
78.809
 20
5.568
 21
5.4
  0
LINE
  8
0
 10
78.809
 11
78.706
 20
5.4
 21
5.242
  0
LINE
  8
0
 10
78.706
 11
78.588
 20
5.242
 21
5.096
  0
LINE
  8
0
 10
78.588
 11
78.454
 20
5.096
 21
4.962
  0
LINE
  8
0
 10
78.454
 11
78.308
 20
4.962
 21
4.844
  0
LINE
  8
0
 10
78.308
 11
78.15
 20
4.844
 21
4.741
  0
LINE
  8
0
 10
78.15
 11
77.982
 20
4.741
 21
4.656
  0
LINE
  8
0
 10
77.982
 11
77.806
 20
4.656
 21
4.588
  0
LINE
  8
0
 10
77.806
 11
77.624
 20
4.588
 21
4.539
  0
LINE
  8
0
 10
77.624
 11
77.438
 20
4.539
 21
4.51
  0
LINE
  8
0
 10
77.438
 11
77.25
 20
4.51
 21
4.5
  0
LINE
  8
0
 10
77.25
 11
77.062
 20
4.5
 21
4.51
  0
LINE
  8
0
 10
77.062
 11
76.876
 20
4.51
 21
4.539
  0
LINE
  8
0
 10
76.876
 11
76.694
 20
4.539
 21
4.588
  0
LINE
  8
0
 10
76.694
 11
76.518
 20
4.588
 21
4.656
  0
LINE
  8
0
 10
76.518
 11
76.35
 20
4.656
 21
4.741
  0
LINE
  8
0
 10
76.35
 11
76.192
 20
4.741
 21
4.844
  0
LINE
  8
0
 10
76.192
 11
76.046
 20
4.844
 21
4.962
  0
LINE
  8
0
 10
76.046
 11
75.912
 20
4.962
 21
5.096
  0
LINE
  8
0
 10
75.912
 11
75.794
 20
5.096
 21
5.242
  0
LINE
  8
0
 10
75.794
 11
75.691
 20
5.242
 21
5.4
  0
LINE
  8
0
 10
75.691
 11
75.606
 20
5.4
 21
5.568
  0
LINE
  8
0
 10
75.606
 11
75.538
 20
5.568
 21
5.744
  0
LINE
  8
0
 10
75.538
 11
75.489
 20
5.744
 21
5.926
  0
LINE
  8
0
 10
75.489
 11
75.46
 20
5.926
 21
6.112
  0
LINE
  8
0
 10
75.46
 11
75.45
 20
6.112
 21
6.3
  0
LINE
  8
0
 10
75.45
 11
75.46
 20
21.3
 21
21.488
  0
LINE
  8
0
 10
75.46
 11
75.489
 20
21.488
 21
21.674
  0
LINE
  8
0
 10
75.489
 11
75.538
 20
21.674
 21
21.856
  0
LINE
  8
0
 10
75.538
 11
75.606
 20
21.856
 21
22.032
  0
LINE
  8
0
 10
75.606
 11
75.691
 20
22.032
 21
22.2
  0
LINE
  8
0
 10
75.691
 11
75.794
 20
22.2
 21
22.358
  0
LINE
  8
0
 10
75.794
 11
75.912
 20
22.358
 21
22.504
  0
LINE
  8
0
 10
75.912
 11
76.046
 20
22.504
 21
22.638
  0
LINE
  8
0
 10
76.046
 11
76.192
 20
22.638
 21
22.756
  0
LINE
  8
0
 10
76.192
 11
76.35
 20
22.756
 21
22.859
  0
LINE
  8
0
 10
76.35
 11
76.518
 20
22.859
 21
22.944
  0
LINE
  8
0
 10
76.518
 11
76.694
 20
22.944
 21
23.012
  0
LINE
  8
0
 10
76.694
 11
76.876
 20
23.012
 21
23.061
  0
LINE
  8
0
 10
76.876
 11
77.062
 20
23.061
 21
23.09
  0
LINE
  8
0
 10
77.062
 11
77.25
 20
23.09
 21
23.1
  0
LINE
  8
0
 10
77.25
 11
77.438
 20
23.1
 21
23.09
  0
LINE
  8
0
 10
77.438
 11
77.624
 20
23.09
 21
23.061
  0
LINE
  8
0
 10
77.624
 11
77.806
 20
23.061
 21
23.012
  0
LINE
  8
0
 10
77.806
 11
77.982
 20
23.012
 21
22.944
  0
LINE
  8
0
 10
77.982
 11
78.15
 20
22.944
 21
22.859
  0
LINE
  8
0
 10
78.15
 11
78.308
 20
22.859
 21
22.756
  0
LINE
  8
0
 10
78.308
 11
78.454
 20
22.756
 21
22.638
  0
LINE
  8
0
 10
78.454
 11
78.588
 20
22.638
 21
22.504
  0
LINE
  8
0
 10
78.588
 11
78.706
 20
22.504
 21
22.358
  0
LINE
  8
0
 10
78.706
 11
78.809
 20
22.358
 21
22.2
  0
LINE
  8
0
 10
78.809
 11
78.894
 20
22.2
 21
22.032
  0
LINE
  8
0
 10
78.894
 11
78.962
 20
22.032
 21
21.856
  0
LINE
  8
0
 10
78.962
 11
79.011
 20
21.856
 21
21.674
  0
LINE
  8
0
 10
79.011
 11
79.04
 20
21.674
 21
21.488
  0
LINE
  8
0
 10
79.04
 11
79.05
 20
21.488
 21
21.3
  0
LINE
  8
0
 10
79.05
 11
79.04
 20
21.3
 21
21.112
  0
LINE
  8
0
 10
79.04
 11
79.011
 20
21.112
 21
20.926
  0
LINE
  8
0
 10
79.011
 11
78.962
 20
20.926
 21
20.744
  0
LINE
  8
0
 10
78.962
 11
78.894
 20
20.744
 21
20.568
  0
LINE
  8
0
 10
78.894
 11
78.809
 20
20.568
 21
20.4
  0
LINE
  8
0
 10
78.809
 11
78.706
 20
20.4
 21
20.242
  0
LINE
  8
0
 10
78.706
 11
78.588
 20
20.242
 21
20.096
  0
LINE
  8
0
 10
78.588
 11
78.454
 20
20.096
 21
19.962
  0
LINE
  8
0
 10
78.454
 11
78.308
 20
19.962
 21
19.844
  0
LINE
  8
0
 10
78.308
 11
78.15
 20
19.844
 21
19.741
  0
LINE
  8
0
 10
78.15
 11
77.982
 20
19.741
 21
19.656
  0
LINE
  8
0
 10
77.982
 11
77.806
 20
19.656
 21
19.588
  0
LINE
  8
0
 10
77.806
 11
77.624
 20
19.588
 21
19.539
  0
LINE
  8
0
 10
77.624
 11
77.438
 20
19.539
 21
19.51
  0
LINE
  8
0
 10
77.438
 11
77.25
 20
19.51
 21
19.5
  0
LINE
  8
0
 10
77.25
 11
77.062
 20
19.5
 21
19.51
  0
LINE
  8
0
 10
77.062
 11
76.876
 20
19.51
 21
19.539
  0
LINE
  8
0
 10
76.876
 11
76.694
 20
19.539
 21
19.588
  0
LINE
  8
0
 10
76.694
 11
76.518
 20
19.588
 21
19.656
  0
LINE
  8
0
 10
76.518
 11
76.35
 20
19.656
 21
19.741
  0
LINE
  8
0
 10
76.35
 11
76.192
 20
19.741
 21
19.844
  0
LINE
  8
0
 10
76.192
 11
76.046
 20
19.844
 21
19.962
  0
LINE
  8
0
 10
76.046
 11
75.912
 20
19.962
 21
20.096
  0
LINE
  8
0
 10
75.912
 11
75.794
 20
20.096
 21
20.242
  0
LINE
  8
0
 10
75.794
 11
75.691
 20
20.242
 21
20.4
  0
LINE
  8
0
 10
75.691
 11
75.606
 20
20.4
 21
20.568
  0
LINE
  8
0
 10
75.606
 11
75.538
 20
20.568
 21
20.744
  0
LINE
  8
0
 10
75.538
 11
75.489
 20
20.744
 21
20.926
  0
LINE
  8
0
 10
75.489
 11
75.46
 20
20.926
 21
21.112
  0
LINE
  8
0
 10
75.46
 11
75.45
 20
21.112
 21
21.3
  0
LINE
  8
0
 10
75.45
 11
75.46
 20
64.8
 21
64.988
  0
LINE
  8
0
 10
75.46
 11
75.489
 20
64.988
 21
65.174
  0
LINE
  8
0
 10
75.489
 11
75.538
 20
65.174
 21
65.356
  0
LINE
  8
0
 10
75.538
 11
75.606
 20
65.356
 21
65.532
  0
LINE
  8
0
 10
75.606
 11
75.691
 20
65.532
 21
65.7
  0
LINE
  8
0
 10
75.691
 11
75.794
 20
65.7
 21
65.858
  0
LINE
  8
0
 10
75.794
 11
75.912
 20
65.858
 21
66.004
  0
LINE
  8
0
 10
75.912
 11
76.046
 20
66.004
 21
66.138
  0
LINE
  8
0
 10
76.046
 11
76.192
 20
66.138
 21
66.256
  0
LINE
  8
0
 10
76.192
 11
76.35
 20
66.256
 21
66.359
  0
LINE
  8
0
 10
76.35
 11
76.518
 20
66.359
 21
66.444
  0
LINE
  8
0
 10
76.518
 11
76.694
 20
66.444
 21
66.512
  0
LINE
  8
0
 10
76.694
 11
76.876
 20
66.512
 21
66.561
  0
LINE
  8
0
 10
76.876
 11
77.062
 20
66.561
 21
66.59
  0
LINE
  8
0
 10
77.062
 11
77.25
 20
66.59
 21
66.6
  0
LINE
  8
0
 10
77.25
 11
77.438
 20
66.6
 21
66.59
  0
LINE
  8
0
 10
77.438
 11
77.624
 20
66.59
 21
66.561
  0
LINE
  8
0
 10
77.624
 11
77.806
 20
66.561
 21
66.512
  0
LINE
  8
0
 10
77.806
 11
77.982
 20
66.512
 21
66.444
  0
LINE
  8
0
 10
77.982
 11
78.15
 20
66.444
 21
66.359
  0
LINE
  8
0
 10
78.15
 11
78.308
 20
66.359
 21
66.256
  0
LINE
  8
0
 10
78.308
 11
78.454
 20
66.256
 21
66.138
  0
LINE
  8
0
 10
78.454
 11
78.588
 20
66.138
 21
66.004
  0
LINE
  8
0
 10
78.588
 11
78.706
 20
66.004
 21
65.858
  0
LINE
  8
0
 10
78.706
 11
78.809
 20
65.858
 21
65.7
  0
LINE
  8
0
 10
78.809
 11
78.894
 20
65.7
 21
65.532
  0
LINE
  8
0
 10
78.894
 11
78.962
 20
65.532
 21
65.356
  0
LINE
  8
0
 10
78.962
 11
79.011
 20
65.356
 21
65.174
  0
LINE
  8
0
 10
79.011
 11
79.04
 20
65.174
 21
64.988
  0
LINE
  8
0
 10
79.04
 11
79.05
 20
64.988
 21
64.8
  0
LINE
  8
0
 10
79.05
 11
79.04
 20
64.8
 21
64.612
  0
LINE
  8
0
 10
79.04
 11
79.011
 20
64.612
 21
64.426
  0
LINE
  8
0
 10
79.011
 11
78.962
 20
64.426
 21
64.244
  0
LINE
  8
0
 10
78.962
 11
78.894
 20
64.244
 21
64.068
  0
LINE
  8
0
 10
78.894
 11
78.809
 20
64.068
 21
63.9
  0
LINE
  8
0
 10
78.809
 11
78.706
 20
63.9
 21
63.742
  0
LINE
  8
0
 10
78.706
 11
78.588
 20
63.742
 21
63.596
  0
LINE
  8
0
 10
78.588
 11
78.454
 20
63.596
 21
63.462
  0
LINE
  8
0
 10
78.454
 11
78.308
 20
63.462
 21
63.344
  0
LINE
  8
0
 10
78.308
 11
78.15
 20
63.344
 21
63.241
  0
LINE
  8
0
 10
78.15
 11
77.982
 20
63.241
 21
63.156
  0
LINE
  8
0
 10
77.982
 11
77.806
 20
63.156
 21
63.088
  0
LINE
  8
0
 10
77.806
 11
77.624
 20
63.088
 21
63.039
  0
LINE
  8
0
 10
77.624
 11
77.438
 20
63.039
 21
63.01
  0
LINE
  8
0
 10
77.438
 11
77.25
 20
63.01
 21
63
  0
LINE
  8
0
 10
77.25
 11
77.062
 20
63
 21
63.01
  0
LINE
  8
0
 10
77.062
 11
76.876
 20
63.01
 21
63.039
  0
LINE
  8
0
 10
76.876
 11
76.694
 20
63.039
 21
63.088
  0
LINE
  8
0
 10
76.694
 11
76.518
 20
63.088
 21
63.156
  0
LINE
  8
0
 10
76.518
 11
76.35
 20
63.156
 21
63.241
  0
LINE
  8
0
 10
76.35
 11
76.192
 20
63.241
 21
63.344
  0
LINE
  8
0
 10
76.192
 11
76.046
 20
63.344
 21
63.462
  0
LINE
  8
0
 10
76.046
 11
75.912
 20
63.462
 21
63.596
  0
LINE
  8
0
 10
75.912
 11
75.794
 20
63.596
 21
63.742
  0
LINE
  8
0
 10
75.794
 11
75.691
 20
63.742
 21
63.9
  0
LINE
  8
0
 10
75.691
 11
75.606
 20
63.9
 21
64.068
  0
LINE
  8
0
 10
75.606
 11
75.538
 20
64.068
 21
64.244
  0
LINE
  8
0
 10
75.538
 11
75.489
 20
64.244
 21
64.426
  0
LINE
  8
0
 10
75.489
 11
75.46
 20
64.426
 21
64.612
  0
LINE
  8
0
 10
75.46
 11
75.45
 20
64.612
 21
64.8
  0
LINE
  8
0
 10
75.45
 11
75.46
 20
79.8
 21
79.988
  0
LINE
  8
0
 10
75.46
 11
75.489
 20
79.988
 21
80.174
  0
LINE
  8
0
 10
75.489
 11
75.538
 20
80.174
 21
80.356
  0
LINE
  8
0
 10
75.538
 11
75.606
 20
80.356
 21
80.532
  0
LINE
  8
0
 10
75.606
 11
75.691
 20
80.532
 21
80.7
  0
LINE
  8
0
 10
75.691
 11
75.794
 20
80.7
 21
80.858
  0
LINE
  8
0
 10
75.794
 11
75.912
 20
80.858
 21
81.004
  0
LINE
  8
0
 10
75.912
 11
76.046
 20
81.004
 21
81.138
  0
LINE
  8
0
 10
76.046
 11
76.192
 20
81.138
 21
81.256
  0
LINE
  8
0
 10
76.192
 11
76.35
 20
81.256
 21
81.359
  0
LINE
  8
0
 10
76.35
 11
76.518
 20
81.359
 21
81.444
  0
LINE
  8
0
 10
76.518
 11
76.694
 20
81.444
 21
81.512
  0
LINE
  8
0
 10
76.694
 11
76.876
 20
81.512
 21
81.561
  0
LINE
  8
0
 10
76.876
 11
77.062
 20
81.561
 21
81.59
  0
LINE
  8
0
 10
77.062
 11
77.25
 20
81.59
 21
81.6
  0
LINE
  8
0
 10
77.25
 11
77.438
 20
81.6
 21
81.59
  0
LINE
  8
0
 10
77.438
 11
77.624
 20
81.59
 21
81.561
  0
LINE
  8
0
 10
77.624
 11
77.806
 20
81.561
 21
81.512
  0
LINE
  8
0
 10
77.806
 11
77.982
 20
81.512
 21
81.444
  0
LINE
  8
0
 10
77.982
 11
78.15
 20
81.444
 21
81.359
  0
LINE
  8
0
 10
78.15
 11
78.308
 20
81.359
 21
81.256
  0
LINE
  8
0
 10
78.308
 11
78.454
 20
81.256
 21
81.138
  0
LINE
  8
0
 10
78.454
 11
78.588
 20
81.138
 21
81.004
  0
LINE
  8
0
 10
78.588
 11
78.706
 20
81.004
 21
80.858
  0
LINE
  8
0
 10
78.706
 11
78.809
 20
80.858
 21
80.7
  0
LINE
  8
0
 10
78.809
 11
78.894
 20
80.7
 21
80.532
  0
LINE
  8
0
 10
78.894
 11
78.962
 20
80.532
 21
80.356
  0
LINE
  8
0
 10
78.962
 11
79.011
 20
80.356
 21
80.174
  0
LINE
  8
0
 10
79.011
 11
79.04
 20
80.174
 21
79.988
  0
LINE
  8
0
 10
79.04
 11
79.05
 20
79.988
 21
79.8
  0
LINE
  8
0
 10
79.05
 11
79.04
 20
79.8
 21
79.612
  0
LINE
  8
0
 10
79.04
 11
79.011
 20
79.612
 21
79.426
  0
LINE
  8
0
 10
79.011
 11
78.962
 20
79.426
 21
79.244
  0
LINE
  8
0
 10
78.962
 11
78.894
 20
79.244
 21
79.068
  0
LINE
  8
0
 10
78.894
 11
78.809
 20
79.068
 21
78.9
  0
LINE
  8
0
 10
78.809
 11
78.706
 20
78.9
 21
78.742
  0
LINE
  8
0
 10
78.706
 11
78.588
 20
78.742
 21
78.596
  0
LINE
  8
0
 10
78.588
 11
78.454
 20
78.596
 21
78.462
  0
LINE
  8
0
 10
78.454
 11
78.308
 20
78.462
 21
78.344
  0
LINE
  8
0
 10
78.308
 11
78.15
 20
78.344
 21
78.241
  0
LINE
  8
0
 10
78.15
 11
77.982
 20
78.241
 21
78.156
  0
LINE
  8
0
 10
77.982
 11
77.806
 20
78.156
 21
78.088
  0
LINE
  8
0
 10
77.806
 11
77.624
 20
78.088
 21
78.039
  0
LINE
  8
0
 10
77.624
 11
77.438
 20
78.039
 21
78.01
  0
LINE
  8
0
 10
77.438
 11
77.25
 20
78.01
 21
78
  0
LINE
  8
0
 10
77.25
 11
77.062
 20
78
 21
78.01
  0
LINE
  8
0
 10
77.062
 11
76.876
 20
78.01
 21
78.039
  0
LINE
  8
0
 10
76.876
 11
76.694
 20
78.039
 21
78.088
  0
LINE
  8
0
 10
76.694
 11
76.518
 20
78.088
 21
78.156
  0
LINE
  8
0
 10
76.518
 11
76.35
 20
78.156
 21
78.241
  0
LINE
  8
0
 10
76.35
 11
76.192
 20
78.241
 21
78.344
  0
LINE
  8
0
 10
76.192
 11
76.046
 20
78.344
 21
78.462
  0
LINE
  8
0
 10
76.046
 11
75.912
 20
78.462
 21
78.596
  0
LINE
  8
0
 10
75.912
 11
75.794
 20
78.596
 21
78.742
  0
LINE
  8
0
 10
75.794
 11
75.691
 20
78.742
 21
78.9
  0
LINE
  8
0
 10
75.691
 11
75.606
 20
78.9
 21
79.068
  0
LINE
  8
0
 10
75.606
 11
75.538
 20
79.068
 21
79.244
  0
LINE
  8
0
 10
75.538
 11
75.489
 20
79.244
 21
79.426
  0
LINE
  8
0
 10
75.489
 11
75.46
 20
79.426
 21
79.612
  0
LINE
  8
0
 10
75.46
 11
75.45
 20
79.612
 21
79.8
  0
LINE
  8
0
 10
78.8
 11
78.823
 20
43.05
 21
43.489
  0
LINE
  8
0
 10
78.823
 11
78.892
 20
43.489
 21
43.923
  0
LINE
  8
0
 10
78.892
 11
79.006
 20
43.923
 21
44.348
  0
LINE
  8
0
 10
79.006
 11
79.163
 20
44.348
 21
44.758
  0
LINE
  8
0
 10
79.163
 11
79.363
 20
44.758
 21
45.15
  0
LINE
  8
0
 10
79.363
 11
79.602
 20
45.15
 21
45.519
  0
LINE
  8
0
 10
79.602
 11
79.879
 20
45.519
 21
45.86
  0
LINE
  8
0
 10
79.879
 11
80.19
 20
45.86
 21
46.171
  0
LINE
  8
0
 10
80.19
 11
80.531
 20
46.171
 21
46.448
  0
LINE
  8
0
 10
80.531
 11
80.9
 20
46.448
 21
46.687
  0
LINE
  8
0
 10
80.9
 11
81.292
 20
46.687
 21
46.887
  0
LINE
  8
0
 10
81.292
 11
81.702
 20
46.887
 21
47.044
  0
LINE
  8
0
 10
81.702
 11
82.127
 20
47.044
 21
47.158
  0
LINE
  8
0
 10
82.127
 11
82.561
 20
47.158
 21
47.227
  0
LINE
  8
0
 10
82.561
 11
83
 20
47.227
 21
47.25
  0
LINE
  8
0
 10
83
 11
83.439
 20
47.25
 21
47.227
  0
LINE
  8
0
 10
83.439
 11
83.873
 20
47.227
 21
47.158
  0
LINE
  8
0
 10
83.873
 11
84.298
 20
47.158
 21
47.044
  0
LINE
  8
0
 10
84.298
 11
84.708
 20
47.044
 21
46.887
  0
LINE
  8
0
 10
84.708
 11
85.1
 20
46.887
 21
46.687
  0
LINE
  8
0
 10
85.1
 11
85.469
 20
46.687
 21
46.448
  0
LINE
  8
0
 10
85.469
 11
85.81
 20
46.448
 21
46.171
  0
LINE
  8
0
 10
85.81
 11
86.121
 20
46.171
 21
45.86
  0
LINE
  8
0
 10
86.121
 11
86.398
 20
45.86
 21
45.519
  0
LINE
  8
0
 10
86.398
 11
86.637
 20
45.519
 21
45.15
  0
LINE
  8
0
 10
86.637
 11
86.837
 20
45.15
 21
44.758
  0
LINE
  8
0
 10
86.837
 11
86.994
 20
44.758
 21
44.348
  0
LINE
  8
0
 10
86.994
 11
87.108
 20
44.348
 21
43.923
  0
LINE
  8
0
 10
87.108
 11
87.177
 20
43.923
 21
43.489
  0
LINE
  8
0
 10
87.177
 11
87.2
 20
43.489
 21
43.05
  0
LINE
  8
0
 10
87.2
 11
87.177
 20
43.05
 21
42.611
  0
LINE
  8
0
 10
87.177
 11
87.108
 20
42.611
 21
42.177
  0
LINE
  8
0
 10
87.108
 11
86.994
 20
42.177
 21
41.752
  0
LINE
  8
0
 10
86.994
 11
86.837
 20
41.752
 21
41.342
  0
LINE
  8
0
 10
86.837
 11
86.637
 20
41.342
 21
40.95
  0
LINE
  8
0
 10
86.637
 11
86.398
 20
40.95
 21
40.581
  0
LINE
  8
0
 10
86.398
 11
86.121
 20
40.581
 21
40.24
  0
LINE
  8
0
 10
86.121
 11
85.81
 20
40.24
 21
39.929
  0
LINE
  8
0
 10
85.81
 11
85.469
 20
39.929
 21
39.652
  0
LINE
  8
0
 10
85.469
 11
85.1
 20
39.652
 21
39.413
  0
LINE
  8
0
 10
85.1
 11
84.708
 20
39.413
 21
39.213
  0
LINE
  8
0
 10
84.708
 11
84.298
 20
39.213
 21
39.056
  0
LINE
  8
0
 10
84.298
 11
83.873
 20
39.056
 21
38.942
  0
LINE
  8
0
 10
83.873
 11
83.439
 20
38.942
 21
38.873
  0
LINE
  8
0
 10
83.439
 11
83
 20
38.873
 21
38.85
  0
LINE
  8
0
 10
83
 11
82.561
 20
38.85
 21
38.873
  0
LINE
  8
0
 10
82.561
 11
82.127
 20
38.873
 21
38.942
  0
LINE
  8
0
 10
82.127
 11
81.702
 20
38.942
 21
39.056
  0
LINE
  8
0
 10
81.702
 11
81.292
 20
39.056
 21
39.213
  0
LINE
  8
0
 10
81.292
 11
80.9
 20
39.213
 21
39.413
  0
LINE
  8
0
 10
80.9
 11
80.531
 20
39.413
 21
39.652
  0
LINE
  8
0
 10
80.531
 11
80.19
 20
39.652
 21
39.929
  0
LINE
  8
0
 10
80.19
 11
79.879
 20
39.929
 21
40.24
  0
LINE
  8
0
 10
79.879
 11
79.602
 20
40.24
 21
40.581
  0
LINE
  8
0
 10
79.602
 11
79.363
 20
40.581
 21
40.95
  0
LINE
  8
0
 10
79.363
 11
79.163
 20
40.95
 21
41.342
  0
LINE
  8
0
 10
79.163
 11
79.006
 20
41.342
 21
41.752
  0
LINE
  8
0
 10
79.006
 11
78.892
 20
41.752
 21
42.177
  0
LINE
  8
0
 10
78.892
 11
78.823
 20
42.177
 21
42.611
  0
LINE
  8
0
 10
78.823
 11
78.8
 20
42.611
 21
43.05
  0
LINE
  8
0
 10
86.2
 11
86.21
 20
33.05
 21
33.238
  0
LINE
  8
0
 10
86.21
 11
86.239
 20
33.238
 21
33.424
  0
LINE
  8
0
 10
86.239
 11
86.288
 20
33.424
 21
33.606
  0
LINE
  8
0
 10
86.288
 11
86.356
 20
33.606
 21
33.782
  0
LINE
  8
0
 10
86.356
 11
86.441
 20
33.782
 21
33.95
  0
LINE
  8
0
 10
86.441
 11
86.544
 20
33.95
 21
34.108
  0
LINE
  8
0
 10
86.544
 11
86.662
 20
34.108
 21
34.254
  0
LINE
  8
0
 10
86.662
 11
86.796
 20
34.254
 21
34.388
  0
LINE
  8
0
 10
86.796
 11
86.942
 20
34.388
 21
34.506
  0
LINE
  8
0
 10
86.942
 11
87.1
 20
34.506
 21
34.609
  0
LINE
  8
0
 10
87.1
 11
87.268
 20
34.609
 21
34.694
  0
LINE
  8
0
 10
87.268
 11
87.444
 20
34.694
 21
34.762
  0
LINE
  8
0
 10
87.444
 11
87.626
 20
34.762
 21
34.811
  0
LINE
  8
0
 10
87.626
 11
87.812
 20
34.811
 21
34.84
  0
LINE
  8
0
 10
87.812
 11
88
 20
34.84
 21
34.85
  0
LINE
  8
0
 10
88
 11
88.188
 20
34.85
 21
34.84
  0
LINE
  8
0
 10
88.188
 11
88.374
 20
34.84
 21
34.811
  0
LINE
  8
0
 10
88.374
 11
88.556
 20
34.811
 21
34.762
  0
LINE
  8
0
 10
88.556
 11
88.732
 20
34.762
 21
34.694
  0
LINE
  8
0
 10
88.732
 11
88.9
 20
34.694
 21
34.609
  0
LINE
  8
0
 10
88.9
 11
89.058
 20
34.609
 21
34.506
  0
LINE
  8
0
 10
89.058
 11
89.204
 20
34.506
 21
34.388
  0
LINE
  8
0
 10
89.204
 11
89.338
 20
34.388
 21
34.254
  0
LINE
  8
0
 10
89.338
 11
89.456
 20
34.254
 21
34.108
  0
LINE
  8
0
 10
89.456
 11
89.559
 20
34.108
 21
33.95
  0
LINE
  8
0
 10
89.559
 11
89.644
 20
33.95
 21
33.782
  0
LINE
  8
0
 10
89.644
 11
89.712
 20
33.782
 21
33.606
  0
LINE
  8
0
 10
89.712
 11
89.761
 20
33.606
 21
33.424
  0
LINE
  8
0
 10
89.761
 11
89.79
 20
33.424
 21
33.238
  0
LINE
  8
0
 10
89.79
 11
89.8
 20
33.238
 21
33.05
  0
LINE
  8
0
 10
89.8
 11
89.79
 20
33.05
 21
32.862
  0
LINE
  8
0
 10
89.79
 11
89.761
 20
32.862
 21
32.676
  0
LINE
  8
0
 10
89.761
 11
89.712
 20
32.676
 21
32.494
  0
LINE
  8
0
 10
89.712
 11
89.644
 20
32.494
 21
32.318
  0
LINE
  8
0
 10
89.644
 11
89.559
 20
32.318
 21
32.15
  0
LINE
  8
0
 10
89.559
 11
89.456
 20
32.15
 21
31.992
  0
LINE
  8
0
 10
89.456
 11
89.338
 20
31.992
 21
31.846
  0
LINE
  8
0
 10
89.338
 11
89.204
 20
31.846
 21
31.712
  0
LINE
  8
0
 10
89.204
 11
89.058
 20
31.712
 21
31.594
  0
LINE
  8
0
 10
89.058
 11
88.9
 20
31.594
 21
31.491
  0
LINE
  8
0
 10
88.9
 11
88.732
 20
31.491
 21
31.406
  0
LINE
  8
0
 10
88.732
 11
88.556
 20
31.406
 21
31.338
  0
LINE
  8
0
 10
88.556
 11
88.374
 20
31.338
 21
31.289
  0
LINE
  8
0
 10
88.374
 11
88.188
 20
31.289
 21
31.26
  0
LINE
  8
0
 10
88.188
 11
88
 20
31.26
 21
31.25
  0
LINE
  8
0
 10
88
 11
87.812
 20
31.25
 21
31.26
  0
LINE
  8
0
 10
87.812
 11
87.626
 20
31.26
 21
31.289
  0
LINE
  8
0
 10
87.626
 11
87.444
 20
31.289
 21
31.338
  0
LINE
  8
0
 10
87.444
 11
87.268
 20
31.338
 21
31.406
  0
LINE
  8
0
 10
87.268
 11
87.1
 20
31.406
 21
31.491
  0
LINE
  8
0
 10
87.1
 11
86.942
 20
31.491
 21
31.594
  0
LINE
  8
0
 10
86.942
 11
86.796
 20
31.594
 21
31.712
  0
LINE
  8
0
 10
86.796
 11
86.662
 20
31.712
 21
31.846
  0
LINE
  8
0
 10
86.662
 11
86.544
 20
31.846
 21
31.992
  0
LINE
  8
0
 10
86.544
 11
86.441
 20
31.992
 21
32.15
  0
LINE
  8
0
 10
86.441
 11
86.356
 20
32.15
 21
32.318
  0
LINE
  8
0
 10
86.356
 11
86.288
 20
32.318
 21
32.494
  0
LINE
  8
0
 10
86.288
 11
86.239
 20
32.494
 21
32.676
  0
LINE
  8
0
 10
86.239
 11
86.21
 20
32.676
 21
32.862
  0
LINE
  8
0
 10
86.21
 11
86.2
 20
32.862
 21
33.05
  0
LINE
  8
0
 10
86.2
 11
86.21
 20
53.05
 21
53.238
  0
LINE
  8
0
 10
86.21
 11
86.239
 20
53.238
 21
53.424
  0
LINE
  8
0
 10
86.239
 11
86.288
 20
53.424
 21
53.606
  0
LINE
  8
0
 10
86.288
 11
86.356
 20
53.606
 21
53.782
  0
LINE
  8
0
 10
86.356
 11
86.441
 20
53.782
 21
53.95
  0
LINE
  8
0
 10
86.441
 11
86.544
 20
53.95
 21
54.108
  0
LINE
  8
0
 10
86.544
 11
86.662
 20
54.108
 21
54.254
  0
LINE
  8
0
 10
86.662
 11
86.796
 20
54.254
 21
54.388
  0
LINE
  8
0
 10
86.796
 11
86.942
 20
54.388
 21
54.506
  0
LINE
  8
0
 10
86.942
 11
87.1
 20
54.506
 21
54.609
  0
LINE
  8
0
 10
87.1
 11
87.268
 20
54.609
 21
54.694
  0
LINE
  8
0
 10
87.268
 11
87.444
 20
54.694
 21
54.762
  0
LINE
  8
0
 10
87.444
 11
87.626
 20
54.762
 21
54.811
  0
LINE
  8
0
 10
87.626
 11
87.812
 20
54.811
 21
54.84
  0
LINE
  8
0
 10
87.812
 11
88
 20
54.84
 21
54.85
  0
LINE
  8
0
 10
88
 11
88.188
 20
54.85
 21
54.84
  0
LINE
  8
0
 10
88.188
 11
88.374
 20
54.84
 21
54.811
  0
LINE
  8
0
 10
88.374
 11
88.556
 20
54.811
 21
54.762
  0
LINE
  8
0
 10
88.556
 11
88.732
 20
54.762
 21
54.694
  0
LINE
  8
0
 10
88.732
 11
88.9
 20
54.694
 21
54.609
  0
LINE
  8
0
 10
88.9
 11
89.058
 20
54.609
 21
54.506
  0
LINE
  8
0
 10
89.058
 11
89.204
 20
54.506
 21
54.388
  0
LINE
  8
0
 10
89.204
 11
89.338
 20
54.388
 21
54.254
  0
LINE
  8
0
 10
89.338
 11
89.456
 20
54.254
 21
54.108
  0
LINE
  8
0
 10
89.456
 11
89.559
 20
54.108
 21
53.95
  0
LINE
  8
0
 10
89.559
 11
89.644
 20
53.95
 21
53.782
  0
LINE
  8
0
 10
89.644
 11
89.712
 20
53.782
 21
53.606
  0
LINE
  8
0
 10
89.712
 11
89.761
 20
53.606
 21
53.424
  0
LINE
  8
0
 10
89.761
 11
89.79
 20
53.424
 21
53.238
  0
LINE
  8
0
 10
89.79
 11
89.8
 20
53.238
 21
53.05
  0
LINE
  8
0
 10
89.8
 11
89.79
 20
53.05
 21
52.862
  0
LINE
  8
0
 10
89.79
 11
89.761
 20
52.862
 21
52.676
  0
LINE
  8
0
 10
89.761
 11
89.712
 20
52.676
 21
52.494
  0
LINE
  8
0
 10
89.712
 11
89.644
 20
52.494
 21
52.318
  0
LINE
  8
0
 10
89.644
 11
89.559
 20
52.318
 21
52.15
  0
LINE
  8
0
 10
89.559
 11
89.456
 20
52.15
 21
51.992
  0
LINE
  8
0
 10
89.456
 11
89.338
 20
51.992
 21
51.846
  0
LINE
  8
0
 10
89.338
 11
89.204
 20
51.846
 21
51.712
  0
LINE
  8
0
 10
89.204
 11
89.058
 20
51.712
 21
51.594
  0
LINE
  8
0
 10
89.058
 11
88.9
 20
51.594
 21
51.491
  0
LINE
  8
0
 10
88.9
 11
88.732
 20
51.491
 21
51.406
  0
LINE
  8
0
 10
88.732
 11
88.556
 20
51.406
 21
51.338
  0
LINE
  8
0
 10
88.556
 11
88.374
 20
51.338
 21
51.289
  0
LINE
  8
0
 10
88.374
 11
88.188
 20
51.289
 21
51.26
  0
LINE
  8
0
 10
88.188
 11
88
 20
51.26
 21
51.25
  0
LINE
  8
0
 10
88
 11
87.812
 20
51.25
 21
51.26
  0
LINE
  8
0
 10
87.812
 11
87.626
 20
51.26
 21
51.289
  0
LINE
  8
0
 10
87.626
 11
87.444
 20
51.289
 21
51.338
  0
LINE
  8
0
 10
87.444
 11
87.268
 20
51.338
 21
51.406
  0
LINE
  8
0
 10
87.268
 11
87.1
 20
51.406
 21
51.491
  0
LINE
  8
0
 10
87.1
 11
86.942
 20
51.491
 21
51.594
  0
LINE
  8
0
 10
86.942
 11
86.796
 20
51.594
 21
51.712
  0
LINE
  8
0
 10
86.796
 11
86.662
 20
51.712
 21
51.846
  0
LINE
  8
0
 10
86.662
 11
86.544
 20
51.846
 21
51.992
  0
LINE
  8
0
 10
86.544
 11
86.441
 20
51.992
 21
52.15
  0
LINE
  8
0
 10
86.441
 11
86.356
 20
52.15
 21
52.318
  0
LINE
  8
0
 10
86.356
 11
86.288
 20
52.318
 21
52.494
  0
LINE
  8
0
 10
86.288
 11
86.239
 20
52.494
 21
52.676
  0
LINE
  8
0
 10
86.239
 11
86.21
 20
52.676
 21
52.862
  0
LINE
  8
0
 10
86.21
 11
86.2
 20
52.862
 21
53.05
  0
ENDSEC
  0
SECTION
  2
OBJECTS
  0
DICTIONARY
  0
ENDSEC
  0
EOF
